<svg width="1440" height="67" viewBox="0 0 1440 67" fill="none" xmlns="http://www.w3.org/2000/svg">
<g opacity="0.6">
<mask id="path-1-inside-1_211_447" fill="white">
<path fill-rule="evenodd" clip-rule="evenodd" d="M-9.93059e-07 44.2815C0.971427 43.3787 1.625 41.6915 1.625 39.759C1.625 38.3131 1.25909 37.0044 0.667903 36.059C0.760676 35.716 0.812113 35.3375 0.812113 34.9397C0.812113 33.9414 0.4882 33.0646 -1.50517e-06 32.5658L-2.66639e-06 6.00005C-2.81124e-06 2.68635 2.68629 6.09177e-05 6 6.07729e-05L30.9168 5.96837e-05L33.105 4.43905L33.9035 5.95532e-05L508.031 3.88284e-05L508.996 4.76722L509.963 3.8744e-05L510.526 3.87193e-05L512.053 8.86985L514.014 3.85669e-05L971.199 1.85827e-05L965.335 8.49013L974.197 1.84517e-05L1424.2 -1.21858e-06L1418.33 8.49012L1427.2 -1.34959e-06L1434 -1.64697e-06C1436.26 -1.74564e-06 1438.22 1.24646 1439.25 3.08861L1434.56 6.00922L1439.9 4.91718C1439.97 5.26841 1440 5.6303 1440 6L1440 20.9053L1439.6 26.8508L1440 31.6565L1440 60.9999C1440 64.3137 1437.31 66.9999 1434 66.9999L1424.54 66.9999L1422.62 63.4809L1418.95 66.9999L970.163 67L966.489 63.4809L964.567 67L932.989 67L933.866 57.4238L929.029 66.7284L930.183 67L46.1626 67L46.4621 62.178L44.0617 67L43.6938 67L44.5707 57.4238L39.7342 66.7284L40.8884 67L5.99999 67C2.68629 67 -1.17422e-07 64.3137 -2.62268e-07 61L-5.09041e-07 55.3545L5.10843 52.6181L-6.02016e-07 53.2275L-9.93059e-07 44.2815Z"/>
</mask>
<path fill-rule="evenodd" clip-rule="evenodd" d="M-9.93059e-07 44.2815C0.971427 43.3787 1.625 41.6915 1.625 39.759C1.625 38.3131 1.25909 37.0044 0.667903 36.059C0.760676 35.716 0.812113 35.3375 0.812113 34.9397C0.812113 33.9414 0.4882 33.0646 -1.50517e-06 32.5658L-2.66639e-06 6.00005C-2.81124e-06 2.68635 2.68629 6.09177e-05 6 6.07729e-05L30.9168 5.96837e-05L33.105 4.43905L33.9035 5.95532e-05L508.031 3.88284e-05L508.996 4.76722L509.963 3.8744e-05L510.526 3.87193e-05L512.053 8.86985L514.014 3.85669e-05L971.199 1.85827e-05L965.335 8.49013L974.197 1.84517e-05L1424.2 -1.21858e-06L1418.33 8.49012L1427.2 -1.34959e-06L1434 -1.64697e-06C1436.26 -1.74564e-06 1438.22 1.24646 1439.25 3.08861L1434.56 6.00922L1439.9 4.91718C1439.97 5.26841 1440 5.6303 1440 6L1440 20.9053L1439.6 26.8508L1440 31.6565L1440 60.9999C1440 64.3137 1437.31 66.9999 1434 66.9999L1424.54 66.9999L1422.62 63.4809L1418.95 66.9999L970.163 67L966.489 63.4809L964.567 67L932.989 67L933.866 57.4238L929.029 66.7284L930.183 67L46.1626 67L46.4621 62.178L44.0617 67L43.6938 67L44.5707 57.4238L39.7342 66.7284L40.8884 67L5.99999 67C2.68629 67 -1.17422e-07 64.3137 -2.62268e-07 61L-5.09041e-07 55.3545L5.10843 52.6181L-6.02016e-07 53.2275L-9.93059e-07 44.2815Z" fill="#CEBA9A"/>
<path d="M-9.93059e-07 44.2815L-0.680726 43.5489L-1 43.8456L-1 44.2815L-9.93059e-07 44.2815ZM0.667903 36.059L-0.297408 35.7979L-0.411354 36.2192L-0.179981 36.5892L0.667903 36.059ZM-1.50517e-06 32.5658L-1 32.5658L-1 32.9738L-0.714659 33.2653L-1.50517e-06 32.5658ZM30.9168 5.96837e-05L31.8138 -0.442083L31.5388 -0.99994L30.9168 -0.99994L30.9168 5.96837e-05ZM33.105 4.43905L32.2081 4.8812L33.5513 7.60621L34.0892 4.6161L33.105 4.43905ZM33.9035 5.95532e-05L33.9035 -0.99994L33.0673 -0.99994L32.9193 -0.176982L33.9035 5.95532e-05ZM508.031 3.88284e-05L509.011 -0.198404L508.849 -0.999961L508.031 -0.999961L508.031 3.88284e-05ZM508.996 4.76722L508.016 4.96567L509.976 4.96597L508.996 4.76722ZM509.963 3.8744e-05L509.963 -0.999961L509.146 -0.999961L508.983 -0.198705L509.963 3.8744e-05ZM510.526 3.87193e-05L511.512 -0.16962L511.369 -0.999961L510.526 -0.999961L510.526 3.87193e-05ZM512.053 8.86985L511.068 9.03951L513.03 9.0857L512.053 8.86985ZM514.014 3.85669e-05L514.014 -0.999961L513.211 -0.999961L513.038 -0.21581L514.014 3.85669e-05ZM971.199 1.85827e-05L972.022 0.568371L973.106 -0.999982L971.199 -0.999981L971.199 1.85827e-05ZM965.335 8.49013L964.512 7.92177L966.027 9.21222L965.335 8.49013ZM974.197 1.84517e-05L974.197 -0.999982L973.795 -0.999982L973.505 -0.722072L974.197 1.84517e-05ZM1424.2 -1.21858e-06L1425.02 0.568355L1426.11 -1L1424.2 -1L1424.2 -1.21858e-06ZM1418.33 8.49012L1417.51 7.92177L1419.03 9.21221L1418.33 8.49012ZM1427.2 -1.34959e-06L1427.2 -1L1426.79 -1L1426.5 -0.722089L1427.2 -1.34959e-06ZM1439.25 3.08861L1439.78 3.93733L1440.58 3.43419L1440.12 2.6027L1439.25 3.08861ZM1434.56 6.00922L1434.03 5.16051L1434.76 6.98896L1434.56 6.00922ZM1439.9 4.91718L1440.89 4.73801L1440.7 3.73281L1439.7 3.93745L1439.9 4.91718ZM1440 20.9053L1441 20.9728L1441 20.9391L1441 20.9053L1440 20.9053ZM1439.6 26.8508L1438.6 26.7834L1438.6 26.8588L1438.6 26.9342L1439.6 26.8508ZM1440 31.6565L1441 31.6565L1441 31.6147L1441 31.5731L1440 31.6565ZM1424.54 66.9999L1423.66 67.4792L1423.95 67.9999L1424.54 67.9999L1424.54 66.9999ZM1422.62 63.4809L1423.5 63.0016L1422.87 61.8551L1421.93 62.7587L1422.62 63.4809ZM1418.95 66.9999L1418.95 67.9999L1419.35 67.9999L1419.64 67.7221L1418.95 66.9999ZM970.163 67L969.471 67.7221L969.761 68L970.163 68L970.163 67ZM966.489 63.4809L967.181 62.7587L966.238 61.8551L965.611 63.0016L966.489 63.4809ZM964.567 67L964.567 68L965.161 68L965.445 67.4792L964.567 67ZM932.989 67L931.993 66.9088L931.893 68L932.989 68L932.989 67ZM933.866 57.4238L934.861 57.515L932.978 56.9626L933.866 57.4238ZM929.029 66.7284L928.142 66.2672L927.549 67.4075L928.8 67.7018L929.029 66.7284ZM930.183 67L930.183 68L930.412 66.0265L930.183 67ZM46.1626 67L45.1645 66.938L45.0985 68L46.1626 68L46.1626 67ZM46.4621 62.178L47.4601 62.24L45.5668 61.7323L46.4621 62.178ZM44.0617 67L44.0617 68L44.681 68L44.957 67.4456L44.0617 67ZM43.6938 67L42.6979 66.9088L42.598 68L43.6938 68L43.6938 67ZM44.5707 57.4238L45.5665 57.515L43.6834 56.9626L44.5707 57.4238ZM39.7342 66.7284L38.8469 66.2672L38.2542 67.4075L39.5051 67.7018L39.7342 66.7284ZM40.8884 67L40.8884 68L41.1175 66.0266L40.8884 67ZM5.99999 67L5.99999 68L5.99999 67ZM-5.09041e-07 55.3545L-0.472187 54.473L-1 54.7557L-1 55.3545L-5.09041e-07 55.3545ZM5.10843 52.6181L5.58061 53.4996L4.98998 51.6251L5.10843 52.6181ZM-6.02016e-07 53.2275L-1 53.2275L-1 54.3539L0.118447 54.2204L-6.02016e-07 53.2275ZM0.625 39.759C0.625 41.5057 0.0282194 42.8901 -0.680726 43.5489L0.680724 45.014C1.91463 43.8674 2.625 41.8773 2.625 39.759L0.625 39.759ZM-0.179981 36.5892C0.29681 37.3517 0.625 38.4701 0.625 39.759L2.625 39.759C2.625 38.156 2.22137 36.6572 1.51579 35.5288L-0.179981 36.5892ZM-0.187887 34.9397C-0.187887 35.2523 -0.228425 35.5429 -0.297408 35.7979L1.63321 36.3201C1.74978 35.8892 1.81211 35.4227 1.81211 34.9397L-0.187887 34.9397ZM-0.714659 33.2653C-0.457609 33.5279 -0.187887 34.1247 -0.187887 34.9397L1.81211 34.9397C1.81211 33.7581 1.43401 32.6013 0.714656 31.8664L-0.714659 33.2653ZM0.999998 32.5658L0.999997 6.00005L-1 6.00005L-1 32.5658L0.999998 32.5658ZM0.999997 6.00005C0.999997 3.23863 3.23857 1.00006 6 1.00006L6 -0.999939C2.13401 -0.999939 -1 2.13406 -1 6.00005L0.999997 6.00005ZM6 1.00006L30.9168 1.00006L30.9168 -0.99994L6 -0.999939L6 1.00006ZM34.0019 3.99691L31.8138 -0.442083L30.0199 0.442203L32.2081 4.8812L34.0019 3.99691ZM32.9193 -0.176982L32.1208 4.26201L34.0892 4.6161L34.8877 0.177101L32.9193 -0.176982ZM33.9035 1.00006L508.031 1.00004L508.031 -0.999961L33.9035 -0.99994L33.9035 1.00006ZM507.051 0.198482L508.016 4.96567L509.976 4.56878L509.011 -0.198404L507.051 0.198482ZM509.976 4.96597L510.943 0.198783L508.983 -0.198705L508.016 4.56848L509.976 4.96597ZM509.963 1.00004L510.526 1.00004L510.526 -0.999961L509.963 -0.999961L509.963 1.00004ZM513.039 8.70019L511.512 -0.16962L509.541 0.169697L511.068 9.03951L513.039 8.70019ZM513.038 -0.21581L511.077 8.654L513.03 9.0857L514.991 0.215887L513.038 -0.21581ZM514.014 1.00004L971.199 1.00002L971.199 -0.999981L514.014 -0.999961L514.014 1.00004ZM966.157 9.05848L972.022 0.568371L970.377 -0.568334L964.512 7.92177L966.157 9.05848ZM973.505 -0.722072L964.643 7.76804L966.027 9.21222L974.888 0.722109L973.505 -0.722072ZM974.197 1.00002L1424.2 0.999999L1424.2 -1L974.197 -0.999982L974.197 1.00002ZM1423.38 -0.568357L1417.51 7.92177L1419.16 9.05848L1425.02 0.568355L1423.38 -0.568357ZM1419.03 9.21221L1427.89 0.722087L1426.5 -0.722089L1417.64 7.76803L1419.03 9.21221ZM1427.2 0.999999L1434 0.999998L1434 -1L1427.2 -1L1427.2 0.999999ZM1434 0.999998C1435.88 0.999998 1437.52 2.03685 1438.37 3.57453L1440.12 2.6027C1438.93 0.45607 1436.63 -1 1434 -1L1434 0.999998ZM1438.72 2.2399L1434.03 5.16051L1435.09 6.85793L1439.78 3.93733L1438.72 2.2399ZM1434.76 6.98896L1440.1 5.89692L1439.7 3.93745L1434.36 5.02948L1434.76 6.98896ZM1438.92 5.09636C1438.97 5.38881 1439 5.69073 1439 6L1441 6C1441 5.56986 1440.96 5.14801 1440.89 4.73801L1438.92 5.09636ZM1439 6L1439 20.9053L1441 20.9053L1441 6L1439 6ZM1440.6 26.9183L1441 20.9728L1439 20.8378L1438.6 26.7834L1440.6 26.9183ZM1441 31.5731L1440.59 26.7675L1438.6 26.9342L1439 31.7398L1441 31.5731ZM1439 31.6565L1439 60.9999L1441 60.9999L1441 31.6565L1439 31.6565ZM1439 60.9999C1439 63.7614 1436.76 65.9999 1434 65.9999L1434 67.9999C1437.87 67.9999 1441 64.8659 1441 60.9999L1439 60.9999ZM1434 65.9999L1424.54 65.9999L1424.54 67.9999L1434 67.9999L1434 65.9999ZM1425.42 66.5207L1423.5 63.0016L1421.74 63.9601L1423.66 67.4792L1425.42 66.5207ZM1421.93 62.7587L1418.25 66.2778L1419.64 67.7221L1423.31 64.203L1421.93 62.7587ZM1418.95 65.9999L970.163 66L970.163 68L1418.95 67.9999L1418.95 65.9999ZM970.855 66.2778L967.181 62.7587L965.797 64.203L969.471 67.7221L970.855 66.2778ZM965.611 63.0016L963.69 66.5207L965.445 67.4792L967.367 63.9601L965.611 63.0016ZM964.567 66L932.989 66L932.989 68L964.567 68L964.567 66ZM933.985 67.0911L934.861 57.515L932.87 57.3326L931.993 66.9088L933.985 67.0911ZM932.978 56.9626L928.142 66.2672L929.916 67.1896L934.753 57.885L932.978 56.9626ZM928.8 67.7018L929.954 67.9734L930.412 66.0265L929.258 65.755L928.8 67.7018ZM930.183 66L46.1626 66L46.1626 68L930.183 68L930.183 66ZM45.464 62.116L45.1645 66.938L47.1607 67.062L47.4601 62.24L45.464 62.116ZM44.957 67.4456L47.3573 62.6236L45.5668 61.7323L43.1665 66.5544L44.957 67.4456ZM44.0617 66L43.6938 66L43.6938 68L44.0617 68L44.0617 66ZM44.6896 67.0912L45.5665 57.515L43.5748 57.3326L42.6979 66.9088L44.6896 67.0912ZM43.6834 56.9626L38.8469 66.2672L40.6215 67.1896L45.458 57.885L43.6834 56.9626ZM39.5051 67.7018L40.6594 67.9734L41.1175 66.0266L39.9632 65.755L39.5051 67.7018ZM40.8884 66L5.99999 66L5.99999 68L40.8884 68L40.8884 66ZM5.99999 66C3.23857 66 1 63.7614 1 61L-1 61C-1 64.866 2.134 68 5.99999 68L5.99999 66ZM1 61L0.999999 55.3545L-1 55.3545L-1 61L1 61ZM0.472186 56.236L5.58061 53.4996L4.63624 51.7366L-0.472187 54.473L0.472186 56.236ZM4.98998 51.6251L-0.118448 52.2345L0.118447 54.2204L5.22687 53.6111L4.98998 51.6251ZM0.999999 53.2275L0.999999 44.2815L-1 44.2815L-1 53.2275L0.999999 53.2275Z" fill="#F1E5D6" mask="url(#path-1-inside-1_211_447)"/>
</g>
</svg>
