<svg width="12" height="12" viewBox="0 0 12 12" fill="none" xmlns="http://www.w3.org/2000/svg">
<path fill-rule="evenodd" clip-rule="evenodd" d="M5.91835 0.0130628C9.17444 0.14536 11.5014 2.29018 11.9223 5.1005C11.517 5.04611 11.1048 5.10577 10.731 5.27288C11.1444 5.26645 11.5576 5.29595 11.9659 5.36108C11.9945 5.6367 12.0051 5.91392 11.9977 6.19095C11.9143 9.53847 9.47225 12 5.91835 12C2.46768 12 0.232097 9.59459 0.0137002 6.38739C0.290322 6.29034 0.572834 6.21133 0.85949 6.15086C0.565171 6.17135 0.270424 6.11762 0.00178765 5.9945C-0.0249871 4.87267 0.249436 3.76443 0.795957 2.7873C1.10862 2.64476 1.43276 2.52942 1.76484 2.44252C1.09377 2.51468 0.946849 2.53072 0.970674 2.48261C2.05892 0.819765 3.94893 -0.123602 5.91835 0.0130628Z" fill="url(#paint0_linear_12_7387)"/>
<path fill-rule="evenodd" clip-rule="evenodd" d="M5.93245 0.00583648C9.21468 0.129233 11.582 2.14985 11.9595 4.78359C11.5068 4.76736 11.0569 4.85748 10.6507 5.0458C11.0988 5.03747 11.5471 5.05809 11.9923 5.1075C12.0026 5.29761 12.0026 5.4881 11.9923 5.67821C11.9102 8.73612 9.19007 10.9997 5.91604 10.9997C2.89558 11.0304 0.348243 8.89197 0.0408412 6.06768L1.19783 5.73605C0.797755 5.78919 0.39014 5.75891 0.00391604 5.64736C0.0058958 5.62555 0.0058958 5.60362 0.00391604 5.58181C-0.0349228 4.56167 0.215715 3.55018 0.73011 2.65114C1.05013 2.53932 1.55067 2.36193 2.07993 2.19226C1.70247 2.23083 1.31271 2.2771 0.939353 2.32723C2.03709 0.763116 3.94814 -0.121691 5.93655 0.0135487L5.93245 0.00583648Z" fill="url(#paint1_radial_12_7387)"/>
<g style="mix-blend-mode:multiply" opacity="0.6">
<path fill-rule="evenodd" clip-rule="evenodd" d="M0 5C0.475743 4.86928 0.97217 4.69798 1.50583 4.49063C2.29775 4.15916 3.11624 3.90866 3.95073 3.74234C6.25085 3.29157 7.96766 2.50272 10.4457 2.42609H11C10.909 2.29086 10.818 2.16013 10.7187 2.03391C10.1555 1.9887 9.58994 1.9887 9.0267 2.03391C6.74314 2.25479 4.06243 2.90391 1.64235 3.32763C1.22866 3.40426 0.769462 3.48991 0.318541 3.58007C0.165582 4.03944 0.0587782 4.51554 0 5H0Z" fill="url(#paint2_radial_12_7387)"/>
</g>
<g style="mix-blend-mode:multiply" opacity="0.6">
<path fill-rule="evenodd" clip-rule="evenodd" d="M3.99312 6.41261C3.26466 6.666 2.5526 6.96272 1.86087 7.30112C1.54017 7.45432 1.24891 7.66091 1 7.91173C1.20124 8.312 1.45152 8.68662 1.74529 9.02726C1.9087 9.10555 2.09601 9.18774 2.29529 9.27386C2.85725 9.51262 3.44312 9.74747 3.97319 10.0058C4.51723 10.2845 5.03708 10.6065 5.52754 10.9687C5.73478 10.9687 5.92609 11 6.15326 11C6.48282 10.9992 6.81187 10.9743 7.13768 10.9256C6.78297 10.6673 6.40833 10.3855 5.98587 10.088C5.30735 9.63891 4.65903 9.14731 4.04493 8.61628C3.96692 8.53479 3.90598 8.43903 3.86558 8.33446C3.78258 8.13319 3.79128 7.90666 3.88949 7.71211C3.94264 7.61114 4.01118 7.51874 4.09275 7.43812C4.63232 6.99519 5.24047 6.63974 5.8942 6.38521C6.90374 5.9397 7.94067 5.55667 8.99891 5.23836C9.55969 5.06506 10.1413 4.96504 10.7286 4.94088C11.1233 4.74973 11.5603 4.65825 12 4.67472C11.9698 4.46115 11.9272 4.24944 11.8725 4.04063C11.353 3.97949 10.8275 3.98739 10.3101 4.06411C8.56848 4.35767 5.82645 5.72763 3.99312 6.41261Z" fill="url(#paint3_radial_12_7387)"/>
</g>
<g style="mix-blend-mode:multiply" opacity="0.5">
<path fill-rule="evenodd" clip-rule="evenodd" d="M2.8974 0.47451C3.76744 0.427451 4.66211 0.345098 5.5896 0.207843C6.11081 0.133333 6.63201 0.0588235 7.15732 0C7.36125 0.0433676 7.56262 0.0970377 7.7606 0.160784C7.03901 0.233087 6.31908 0.329973 5.59932 0.426836C4.71849 0.545375 3.83792 0.66388 2.95486 0.737255L2.39672 0.776471C2.5582 0.671464 2.72533 0.574599 2.8974 0.486275V0.47451ZM1.81366 1.21176L1.80575 1.21176L1.81806 1.20784L1.81366 1.21176ZM1.81366 1.21176C3.33671 1.21003 4.85771 1.1052 6.36525 0.898039C7.23529 0.788235 8.10944 0.678431 8.98769 0.623529C9.12312 0.694118 9.25855 0.768627 9.39808 0.847059C8.39672 0.882353 7.39535 0.976471 6.40219 1.10196C4.77456 1.36642 3.12821 1.51194 1.47743 1.53725C1.58282 1.42493 1.69621 1.31643 1.81366 1.21176ZM1.1409 1.9098C1.77291 1.83137 2.40082 1.76471 3.00821 1.7451C3.78796 1.71765 4.56361 1.66667 5.34337 1.57255C5.79165 1.52102 6.18457 1.46684 6.5494 1.41654L6.78386 1.38431C7.76529 1.22884 8.75661 1.13713 9.75103 1.1098L9.77564 1.12807L9.77566 1.12809L9.77572 1.12813C9.84049 1.17619 9.90203 1.22184 9.96033 1.27059C8.8269 1.27059 7.77403 1.44357 6.67932 1.62342C5.55035 1.8089 4.37687 2.00169 3.02462 2.01961C2.31937 2.04462 1.61632 2.11009 0.919289 2.21569C0.989056 2.1098 1.06293 2.01176 1.1409 1.9098ZM1.63748 2.70588C1.24761 2.76471 0.878249 2.83529 0.521204 2.90588V2.89804C0.459644 3.03137 0.406293 3.16078 0.352941 3.2902C0.800274 3.21176 1.25581 3.13725 1.66621 3.07059C2.46319 2.94822 3.28867 2.80424 4.11876 2.65945L4.11879 2.65945C5.78925 2.36809 7.47843 2.07347 8.99179 1.9451C9.55054 1.90576 10.1116 1.90576 10.6703 1.9451L10.4487 1.70588C9.95721 1.69129 9.46525 1.70438 8.97538 1.7451C6.84166 1.91071 4.37903 2.28701 2.08612 2.63737L2.08612 2.63737L2.08611 2.63738L2.0861 2.63738L2.0861 2.63738L1.63748 2.70588ZM0.0369357 4.52549C0.508892 4.41176 1.00137 4.26274 1.53078 4.08235C2.3164 3.79399 3.12837 3.57606 3.95622 3.43137C4.75664 3.29381 5.48585 3.12006 6.20142 2.94956C7.52581 2.63399 8.80349 2.32956 10.3995 2.28627H10.9494L11.1012 2.50196H10.4036C9.02147 2.59325 7.65594 2.84342 6.33653 3.24706C5.54856 3.4549 4.79343 3.63922 3.99316 3.78431C3.17657 3.9277 2.37561 4.143 1.60055 4.42745C1.07685 4.60474 0.542346 4.75142 0 4.86667C0 4.76817 0.0143834 4.67242 0.0286995 4.57712L0.0369357 4.52157V4.52549ZM11.495 3.21919L11.5075 3.21961H11.4952L11.495 3.21919ZM11.495 3.21919C10.8117 3.19697 10.1279 3.24576 9.45554 3.36471C8.40144 3.55527 7.54511 3.86015 6.51932 4.22536L6.51926 4.22538C6.21515 4.33366 5.89614 4.44723 5.55267 4.56471C3.73871 5.18824 1.90424 5.77647 0.0533516 6.29804C0.0533516 6.24426 0.042631 6.19048 0.0319105 6.13669C0.02387 6.09636 0.0158296 6.05602 0.0123119 6.01569C1.89603 5.47843 3.76334 4.87843 5.61423 4.24706C6.845 3.77471 8.12032 3.4162 9.42271 3.17647C10.0851 3.07949 10.756 3.04533 11.4254 3.07451C11.4413 3.1048 11.4554 3.13509 11.4701 3.16642C11.4781 3.18364 11.4863 3.20117 11.495 3.21919ZM10.2066 4.10588C10.7393 4.02901 11.2804 4.0211 11.8153 4.08235L11.8399 4.06275C11.8357 4.04663 11.8296 4.03005 11.8233 4.01317L11.8233 4.01317C11.8113 3.98076 11.7989 3.94724 11.7989 3.91373C11.2704 3.87073 10.7391 3.87073 10.2107 3.91373C9.06145 4.01534 7.75165 4.53072 6.59527 4.98573L6.59525 4.98573C6.36824 5.07506 6.14715 5.16205 5.93434 5.24314C5.66089 5.34635 5.38744 5.45043 5.114 5.55451L5.11355 5.55468C4.56635 5.76296 4.01915 5.97124 3.47196 6.17255C2.4104 6.51923 1.38868 6.96862 0.422709 7.51373C0.479942 7.65835 0.545711 7.79975 0.619699 7.93725C0.877959 7.69435 1.17776 7.49541 1.50616 7.34902C2.21844 7.00998 2.95168 6.7127 3.70178 6.45882C4.29556 6.24297 4.98191 5.95922 5.69967 5.66249L5.69967 5.66248L5.69969 5.66248L5.6997 5.66247L5.69971 5.66247L5.69972 5.66246C7.26392 5.0158 8.97724 4.30749 10.2066 4.10588ZM11.9918 5.22745C10.0383 5.10588 8.5855 5.43137 5.85636 6.60392C5.25204 6.85307 4.69683 7.19925 4.21477 7.62745C4.07946 7.73832 3.99827 7.89781 3.99049 8.06797C3.98271 8.23813 4.04905 8.40377 4.17373 8.52549C4.73228 9.02556 5.32751 9.48687 5.95486 9.90588C6.329 10.1621 6.64392 10.4061 6.93759 10.6337C7.05302 10.7231 7.16517 10.81 7.27633 10.8941L6.91929 10.9569C6.80573 10.8764 6.6902 10.7937 6.57181 10.7089L6.57174 10.7088L6.57171 10.7088L6.57165 10.7088C6.30929 10.5209 6.03296 10.323 5.73324 10.1176C5.03456 9.6677 4.36696 9.17518 3.73461 8.64314C3.65428 8.56149 3.59153 8.46556 3.54993 8.36078C3.46446 8.15914 3.47342 7.93217 3.57456 7.73725C3.62928 7.6361 3.69986 7.54353 3.78386 7.46274C4.33947 7.01898 4.96568 6.66286 5.63885 6.40784C6.68507 5.96073 7.7597 5.57696 8.85636 5.25882C9.86511 4.95436 10.9333 4.87388 11.9795 5.02353V5.21176L11.9918 5.22745ZM11.8687 6.03529H11.9672H11.9754C12 5.93333 12 5.83137 12 5.72549C10.8493 5.72012 9.71055 5.94871 8.65937 6.39608C7.89193 6.6902 6.46375 7.39216 6.36525 8.04314C6.33911 8.45445 6.5061 8.85551 6.82079 9.13725C7.28013 9.66106 7.78538 10.1465 8.33105 10.5882C8.4788 10.5294 8.62243 10.4667 8.76607 10.4C8.22001 9.97142 7.71588 9.49626 7.25992 8.98039C7.03051 8.75507 6.92427 8.44036 6.97264 8.12941C7.01368 7.8549 7.24761 7.57647 7.72367 7.26667C8.94399 6.46661 10.3887 6.03741 11.8687 6.03529ZM11.4665 7.46667H11.6101C11.5691 7.56471 11.528 7.65882 11.4829 7.75294H11.3187C10.8848 7.7408 10.4763 7.94791 10.2435 8.29804C10.1674 8.40785 10.1235 8.53514 10.1163 8.66667C10.1173 8.7779 10.1628 8.88454 10.2435 8.96471C10.3312 9.03147 10.4278 9.08685 10.5308 9.12941C10.4765 9.18978 10.419 9.24738 10.3584 9.30196C10.2887 9.26475 10.2227 9.22143 10.1614 9.17255C10.092 9.11527 10.0385 9.04254 10.0055 8.96078C9.96512 8.87577 9.94414 8.78354 9.94391 8.6902C9.9419 8.59525 9.95861 8.5008 9.99316 8.41177C10.025 8.32676 10.0663 8.24525 10.1163 8.16863C10.164 8.09109 10.2204 8.01877 10.2845 7.95294C10.356 7.88352 10.4329 7.81929 10.5144 7.76078C10.5916 7.70611 10.6725 7.65633 10.7565 7.61176C10.8434 7.56885 10.9358 7.5372 11.0315 7.51765C11.175 7.49054 11.3204 7.4735 11.4665 7.46667ZM1.37893 9.0549C1.54856 9.13333 1.73735 9.21569 1.94528 9.30196C2.07791 9.35679 2.21183 9.41141 2.34606 9.46616C2.79747 9.65027 3.25233 9.83579 3.67305 10.0353C4.23326 10.3145 4.76857 10.6372 5.2736 11C4.92826 10.9654 4.58648 10.9038 4.25171 10.8157C3.94802 10.6549 3.64022 10.498 3.31601 10.3451C2.99179 10.1922 2.67168 10.0588 2.33926 9.92157C1.98629 9.66785 1.66417 9.37715 1.37893 9.0549ZM8.82763 9.34118C9.04486 9.57471 9.29647 9.77682 9.57456 9.94118L9.55404 9.95686L9.75103 9.81569C9.47809 9.65565 9.23415 9.45434 9.02873 9.21961C8.42955 8.50588 8.81943 8.07059 9.46785 7.60392C9.83367 7.32132 10.2511 7.10592 10.699 6.96863C11.0552 6.88068 11.4235 6.84628 11.7907 6.86667H11.8153C11.8315 6.81794 11.8438 6.76813 11.8523 6.71765C11.4507 6.69815 11.0483 6.73514 10.658 6.82745C10.1854 6.94937 9.73829 7.14837 9.33652 7.41569C8.9783 7.63181 8.68656 7.93495 8.49111 8.29412C8.47587 8.3267 8.46484 8.36094 8.45828 8.39608C8.42662 8.74813 8.56223 9.09513 8.82763 9.34118Z" fill="#B7805C"/>
</g>
<g style="mix-blend-mode:screen">
<path fill-rule="evenodd" clip-rule="evenodd" d="M3.41348 0.421179C3.38667 0.398763 3.37632 0.359682 3.38798 0.32491C3.43534 0.216606 3.71585 0.0962696 4 0C3.50091 0.0987575 3.01823 0.279971 2.56831 0.537505C2.88889 0.537505 3.21311 0.493381 3.54098 0.45728C3.49657 0.455837 3.45301 0.443504 3.41348 0.421179ZM3.15118 0.738067L2.61931 0.794224L2.12386 0.834336C1.93968 0.973332 1.7644 1.12612 1.59927 1.29162C2.09107 1.29162 2.56102 1.29162 3.02732 1.25552L2.7031 1.2154C2.18944 1.14721 2.74317 0.862415 2.92896 0.81428L3.15118 0.7501V0.738067ZM2.78689 1.56839C2.30601 1.61251 1.81785 1.63257 1.2969 1.62856C1.19854 1.7489 1.10383 1.87726 1.01275 2.00562C1.57377 1.92539 2.13115 1.8572 2.67031 1.83714H2.82332C2.75046 1.83714 2.68124 1.83714 2.60838 1.80505C2.45902 1.77296 2.55738 1.6446 2.66302 1.61251L2.78689 1.57641V1.56839ZM1.82878 2.1781C1.36976 2.35459 0.91439 2.53911 0.630237 2.65544C0.571949 2.77577 0.513661 2.90012 0.462659 3.02447C0.779599 2.95227 1.10747 2.88006 1.45355 2.8199H1.57013C1.38798 2.76374 1.20583 2.66747 1.37705 2.51103C1.76336 2.26842 2.20008 2.13991 2.64481 2.13799C2.38616 2.13799 2.10929 2.16606 1.82878 2.19815V2.1781ZM1.39891 3.20899C1.03461 3.27316 0.67031 3.34537 0.306011 3.42158C0.171314 3.83036 0.0772616 4.25402 0.0255009 4.68512C0.444444 4.56879 0.881603 4.41637 1.35155 4.23185C1.41348 4.20778 1.47541 4.1797 1.53734 4.15965C1.17304 4.23586 0.735883 4.30405 0.63388 4.19174C0.444444 3.97513 0.67031 3.48576 0.910747 3.38949C1.0674 3.3213 1.23133 3.26915 1.39162 3.21701L1.39891 3.20899ZM1.1439 4.68111C0.743169 4.82952 0.364299 4.94585 0 5.03811C0 5.25471 0 5.47934 0 5.70397C0.00175789 5.72666 0.00175789 5.74947 0 5.77216C0.342939 5.8882 0.704872 5.9197 1.06011 5.86442L1.42441 5.73205C0.990892 5.7842 0.302368 5.83233 0.229508 5.55556C0.156648 5.27878 0.655738 4.94585 1.1439 4.68111ZM1.17668 6.12515C0.812386 6.25351 0.448087 6.37786 0.0582878 6.49819C0.119273 6.92406 0.223131 7.34112 0.367942 7.74168C0.707001 7.49675 1.06404 7.28341 1.43534 7.10389C1.26383 7.16573 1.08385 7.19423 0.903461 7.18813C0.765418 7.16324 0.650392 7.0581 0.60277 6.91328C0.555149 6.76846 0.582379 6.6066 0.673953 6.49017C0.814139 6.32799 0.986078 6.20315 1.17668 6.12515ZM1.33698 7.56518C1.04364 7.71695 0.776221 7.9232 0.546448 8.17489C0.73039 8.58509 0.959165 8.969 1.22769 9.31809C1.37705 9.39832 1.54827 9.48255 1.73042 9.5708L2.63388 10C2.28515 9.80159 1.95243 9.57078 1.63934 9.31007C1.35519 9.01324 0.969035 8.30325 1.18033 7.86201C1.26111 7.7161 1.36471 7.58709 1.48634 7.48095L1.34062 7.56518H1.33698Z" fill="url(#paint4_radial_12_7387)"/>
</g>
<g style="mix-blend-mode:screen">
<path fill-rule="evenodd" clip-rule="evenodd" d="M1 9C2.11773 11.0324 3.54844 11.693 6 11.9253C3.81273 12.3276 1.66297 11.0699 1 9H1Z" fill="url(#paint5_radial_12_7387)"/>
</g>
<g style="mix-blend-mode:screen" opacity="0.65">
<path fill-rule="evenodd" clip-rule="evenodd" d="M1.17603 2.42458C2.29424 0.923752 4.1191 0.093741 6.0067 0.227416C6.4391 0.241729 6.86932 0.294255 7.29215 0.384356C7.48865 0.484959 7.72609 0.609706 7.79159 0.629826C8.09405 0.677198 8.39239 0.747152 8.68403 0.83908C9.74172 1.30662 10.6328 2.07465 11.2427 3.04429C11.2427 3.07246 11.2795 3.12477 11.2427 3.15294C11.2058 3.18111 11.1853 3.18915 11.1485 3.1972C11.0981 3.20154 11.0474 3.20154 10.997 3.1972C10.7647 3.16911 10.531 3.15299 10.297 3.14891C9.93212 3.15596 9.5688 3.19773 9.21213 3.27366C8.08222 3.59231 6.9757 3.98624 5.90026 4.45272C7.06316 4.0021 8.26656 3.65989 9.4946 3.4306C10.1202 3.33592 10.7534 3.29955 11.3859 3.32195C11.6674 3.84812 11.8636 4.4143 11.9672 5H12C11.6234 2.25154 9.28173 0.14291 5.98623 0.0141389C4.00219 -0.126992 2.09533 0.796356 1 2.4286H1.15556L1.17603 2.42458Z" fill="#CA9E67"/>
</g>
<g style="mix-blend-mode:screen" opacity="0.5">
<path fill-rule="evenodd" clip-rule="evenodd" d="M6.54814 5.4556C5.36922 5.96911 4.17134 6.46718 3 7L3.4511 6.82625C4.20925 6.52896 4.9674 6.21622 5.72555 5.9112C6.4837 5.60618 7.21531 5.27027 8 5C7.50055 5.08258 7.0146 5.23458 6.55572 5.45174L6.54814 5.4556Z" fill="#CA9E67"/>
</g>
<g style="mix-blend-mode:screen" opacity="0.5">
<path fill-rule="evenodd" clip-rule="evenodd" d="M6.07929 6.49335C7.12079 5.98864 8.19056 5.555 9.2823 5.19498C9.54477 5.11521 9.77854 5.04874 10 5C8.89294 5.18245 7.81401 5.52682 6.79289 6.02363C6.19705 6.2804 5.61633 6.57638 5.054 6.9099C4.59086 7.12136 4.21577 7.5093 4 8C4.05469 7.88569 4.12522 7.78109 4.20916 7.68981C4.76439 7.18836 5.39018 6.78595 6.06288 6.49778L6.07929 6.49335Z" fill="#CA9E67"/>
</g>
<g style="mix-blend-mode:screen" opacity="0.5">
<path fill-rule="evenodd" clip-rule="evenodd" d="M4.56352 3.66168C4.03078 3.74034 3.50773 3.85352 3 4C3.38588 3.91544 3.7773 3.84648 4.17264 3.79341C5.91987 3.55689 7.29967 3.17066 9 3C8.2047 3.02222 7.41645 3.12285 6.65472 3.2994C6.36156 3.36228 6.08013 3.4491 5.78697 3.50299C5.37655 3.57784 4.96221 3.61377 4.55179 3.67665L4.56352 3.66168Z" fill="#CA9E67"/>
</g>
<g style="mix-blend-mode:screen" opacity="0.65">
<path fill-rule="evenodd" clip-rule="evenodd" d="M10 9.01928C9.12591 10.1796 7.61486 10.8799 5.99377 10.876C4.37269 10.8721 2.86633 10.1645 2 9C2.78261 10.2307 4.09074 10.9633 6.03403 10.9986C7.69035 11.037 9.22834 10.2719 10 9.02571V9.01928Z" fill="#CA9E67"/>
</g>
<g style="mix-blend-mode:screen" opacity="0.65">
<path fill-rule="evenodd" clip-rule="evenodd" d="M2.72208 2.58308L3.26179 2.47692C3.08313 2.45385 3.01613 2.43077 3.10546 2.28769C3.1818 2.16208 3.27058 2.04888 3.36973 1.95077C3.50308 1.81454 3.64638 1.69402 3.79777 1.59077C4.07644 1.40511 4.36792 1.25065 4.66873 1.12923C4.7804 1.07846 4.89206 1.03692 5 1C4.83375 1.04 4.66998 1.09077 4.50868 1.15231C4.22426 1.26898 3.95093 1.42374 3.69355 1.61385C3.5464 1.72315 3.4047 1.84337 3.26923 1.97385C3.07264 2.15641 2.88954 2.36029 2.72208 2.58308ZM2.11538 3.73231C2.32754 3.27077 2.39082 3.15538 2.66253 3.02154L2.40571 3.07692C2.24494 3.36627 2.10897 3.67564 2 4L2.11538 3.75538V3.73231Z" fill="#CA9E67"/>
</g>
<path opacity="0.75" fill-rule="evenodd" clip-rule="evenodd" d="M1.63607 5.96862C1.58794 4.38883 2.40825 2.90812 3.77703 2.10409C5.1458 1.30005 6.84621 1.30005 8.21499 2.10409C9.58376 2.90812 10.4041 4.38883 10.3559 5.96862C10.37 7.12186 9.91542 8.23196 9.09507 9.04749C8.27473 9.86301 7.15806 10.3149 5.99801 10.3009C4.8336 10.3284 3.70862 9.88092 2.88465 9.06254C2.06068 8.24417 1.60952 7.12621 1.63607 5.96862ZM10.9677 5.33666C10.6918 2.91215 8.5408 1.08383 5.99801 1.00037C4.66763 0.984204 3.387 1.50245 2.44621 2.43771C1.50542 3.37296 0.98411 4.64607 1.00037 5.96862C1.00037 6.05607 1.00037 6.14748 1.00037 6.23492C1.10336 6.23286 1.20615 6.22489 1.30822 6.21108L1.00437 6.30249C1.15468 9.0024 3.44782 11.0879 6.16632 10.9971C8.88482 10.9063 11.032 8.67247 10.9996 5.96862C10.9996 5.80964 10.9996 5.65463 10.9996 5.49962C10.8437 5.49962 10.6958 5.49962 10.5439 5.49962C10.6887 5.43742 10.8369 5.38303 10.9876 5.33666H10.9677Z" fill="url(#paint6_linear_12_7387)"/>
<g style="mix-blend-mode:multiply" opacity="0.5">
<path fill-rule="evenodd" clip-rule="evenodd" d="M1.00037 5.98832C1.03997 3.33758 3.28359 1.2188 6.01422 1.25346C8.42841 1.2826 10.4916 2.94923 10.9599 5.2485H11C10.7232 2.87328 8.56527 1.08213 6.01422 1.00036C4.67953 0.984525 3.39474 1.49224 2.4509 2.40848C1.50706 3.32472 0.984059 4.57195 1.00037 5.86761V6V5.98832Z" fill="#683C11"/>
</g>
<g style="mix-blend-mode:multiply" opacity="0.5">
<path fill-rule="evenodd" clip-rule="evenodd" d="M9.99984 6C9.95241 8.11406 7.9415 9.79839 5.49826 9.7705C4.32082 9.79641 3.18081 9.41143 2.33488 8.70223C1.48894 7.99303 1.00817 7.01921 1.0008 6C1.0008 6.03928 1.0008 6.08212 1.0008 6.1214C0.978005 7.15822 1.44507 8.1582 2.29399 8.89013C3.14292 9.62206 4.3002 10.0226 5.49826 9.99902C6.69327 10.0125 7.84419 9.60888 8.69121 8.87927C9.53823 8.14966 10.0099 7.15556 9.99984 6.1214C9.99984 6.08212 9.99984 6.03928 9.99984 6Z" fill="#683C11"/>
</g>
<g style="mix-blend-mode:screen" opacity="0.5">
<path fill-rule="evenodd" clip-rule="evenodd" d="M5.50041 1C3.00954 1.02031 1.00106 3.03801 1.00114 5.51993C0.973758 6.71666 1.43912 7.87243 2.28903 8.71848C3.13894 9.56453 4.29934 10.0272 5.50041 9.99877C6.6977 10.0144 7.85059 9.54763 8.69767 8.7044C9.54474 7.86118 10.0142 6.71289 9.99967 5.51993C9.99977 3.0396 7.99378 1.02255 5.50453 1H5.50041Z" fill="url(#paint7_linear_12_7387)"/>
</g>
<defs>
<linearGradient id="paint0_linear_12_7387" x1="11.9812" y1="12" x2="11.9812" y2="0.0250901" gradientUnits="userSpaceOnUse">
<stop stop-color="#692705"/>
<stop offset="1" stop-color="#823B00"/>
</linearGradient>
<radialGradient id="paint1_radial_12_7387" cx="0" cy="0" r="1" gradientUnits="userSpaceOnUse" gradientTransform="translate(0.322553 -1.32328) scale(13.2471 12.1431)">
<stop stop-color="#BD8A60"/>
<stop offset="1" stop-color="#A85021"/>
</radialGradient>
<radialGradient id="paint2_radial_12_7387" cx="0" cy="0" r="1" gradientUnits="userSpaceOnUse" gradientTransform="translate(3.11922 5.54093) scale(13.1181 3.57766)">
<stop stop-color="#CFA04D"/>
<stop offset="1" stop-color="white"/>
</radialGradient>
<radialGradient id="paint3_radial_12_7387" cx="0" cy="0" r="1" gradientUnits="userSpaceOnUse" gradientTransform="translate(5.41993 11.2936) scale(15.5674 9.90652)">
<stop stop-color="#CFA04D"/>
<stop offset="1" stop-color="white"/>
</radialGradient>
<radialGradient id="paint4_radial_12_7387" cx="0" cy="0" r="1" gradientUnits="userSpaceOnUse" gradientTransform="translate(8.04372 7.3566) scale(9.86157 24.6539)">
<stop offset="0.35"/>
<stop offset="1" stop-color="#CA9E67"/>
</radialGradient>
<radialGradient id="paint5_radial_12_7387" cx="0" cy="0" r="1" gradientUnits="userSpaceOnUse" gradientTransform="translate(2.56483 11.5478) scale(4.37779 2.62668)">
<stop stop-color="#B0670B"/>
<stop offset="1"/>
</radialGradient>
<linearGradient id="paint6_linear_12_7387" x1="10.9424" y1="10.8852" x2="10.9424" y2="0.996392" gradientUnits="userSpaceOnUse">
<stop stop-color="#823B00"/>
<stop offset="1" stop-color="#692705"/>
</linearGradient>
<linearGradient id="paint7_linear_12_7387" x1="9.99979" y1="9.99877" x2="9.99979" y2="1" gradientUnits="userSpaceOnUse">
<stop stop-color="#FFB01C"/>
<stop offset="0.57"/>
</linearGradient>
</defs>
</svg>
