<svg width="220" height="65" viewBox="0 0 220 65" fill="none" xmlns="http://www.w3.org/2000/svg">
<path fill-rule="evenodd" clip-rule="evenodd" d="M5.28654 1.37961C39.7588 0.460211 75.2684 -0.0178769 109.781 0.000511129C144.193 0.000511129 179.962 0.478599 214.494 1.41639C215.551 1.61866 218.005 3.27358 218.444 4.28492C218.643 5.24109 218.803 6.27082 218.963 7.31894C219.003 7.55798 214.295 7.227 210.085 8.53255C212.14 8.47738 219.142 8.64287 219.162 8.95547C219.741 13.6996 219.98 19.2528 220 25.0266C219.721 24.953 215.372 24.7692 211.801 26.185C212.998 26.2218 219.581 26.3689 220 26.4609C219.94 38.5602 218.923 51.5053 217.786 60.3132C217.187 61.2693 214.993 62.9794 213.955 63.384C149.001 65.5905 59.7479 65.4802 6.04461 63.4024C4.80776 62.9059 2.71309 61.1222 2.25426 60.3683C1.3765 54.3738 0.698223 46.9267 0.319188 39.1486C0.299238 38.7257 1.71563 37.7695 5.42619 36.9972C3.83025 36.8869 0.219441 37.1259 0.219441 36.7581C0.0797969 33.1541 0 29.55 0 26.0195C0 25.6518 2.87269 25.4311 3.51106 25.4311C2.4737 25.1185 0 24.2359 0 23.9049C0.0797969 16.66 0.498731 9.78293 1.35655 4.22975C1.89518 3.29196 4.04969 1.83931 5.26659 1.398L5.28654 1.37961Z" fill="url(#paint0_linear_12_7343)"/>
<path fill-rule="evenodd" clip-rule="evenodd" d="M1.32313 36.1607C4.90824 36.1607 8.35392 36.3641 11.7797 36.7341C11.0428 36.7341 10.3257 36.7341 9.58879 36.7711C6.88005 36.993 3.11568 37.6219 1.50239 38.5652C2.07999 45.5199 2.93643 52.0862 3.93229 57.5612C4.43022 58.2455 6.6012 59.8732 7.83607 60.3356C75.5747 61.6859 143.572 61.6859 211.311 60.3356C212.366 59.9842 214.597 58.412 215.215 57.5612C216.788 48.9418 218.003 37.5294 218.322 26.2466C215.175 26.1911 212.048 26.2281 208.941 26.3205C209.498 26.1541 210.056 25.9876 210.614 25.8211C213.78 24.8593 215.613 24.5264 218.381 24.4894C218.481 19.0699 218.381 13.7244 217.983 8.78584C212.805 8.5084 208.104 8.65637 203.643 9.08179C208.861 7.67605 212.745 6.69574 217.804 6.64025C217.724 5.80791 217.624 4.99406 217.545 4.19871C217.166 3.1999 214.856 1.5907 213.8 1.38724C144.389 -0.462413 74.8576 -0.462413 5.42609 1.38724C4.23105 1.83115 2.15966 3.27388 1.68164 4.19871C0.984538 9.91413 0.725614 16.3509 0.805283 22.9542C2.93643 24.9518 10.6245 24.9518 15.2453 25.9691C10.6444 26.0061 5.92402 26.2281 0.865035 26.5425C0.964621 29.7609 1.12396 32.9978 1.36297 36.1792H1.32313V36.1607Z" fill="url(#paint1_radial_12_7343)"/>
<g style="mix-blend-mode:multiply" opacity="0.5">
<path fill-rule="evenodd" clip-rule="evenodd" d="M195.047 2.08932C194.35 2.97682 192.935 3.90129 190.723 4.64088H190.743C188.353 5.43593 184.288 6.28645 179.028 7.37733C175.083 8.19087 170.501 9.15233 165.54 10.2987L165.301 10.3541C160.659 11.445 155.777 12.5729 150.896 13.4049C147.21 14.0336 143.504 14.4773 139.918 14.6067C136.292 14.7362 132.766 14.5328 129.438 13.8302C125.493 12.9982 121.429 11.3896 118.082 9.46665C114.675 7.50676 111.985 5.21405 110.889 3.10624C110.75 2.86588 110.65 2.60703 110.591 2.34817C110.391 1.60859 110.431 0.81354 110.67 0H113.38C112.384 3.25416 115.293 5.67629 119.437 8.22785C122.405 10.0398 126.27 12.0367 129.757 12.8133C132.706 13.4789 135.834 13.6823 139.061 13.5528C142.309 13.4234 145.656 12.9797 149.023 12.3695C153.899 11.4793 158.88 10.1154 163.849 8.75464C167.55 7.74122 171.244 6.72956 174.884 5.91666C175.465 5.78622 176.031 5.66002 176.58 5.53754C180.622 4.63565 183.759 3.93566 185.583 3.23567C188.153 2.25572 188.193 1.44218 187.097 0.776561C188.512 0.804295 189.921 0.836652 191.331 0.869009C192.741 0.901365 194.15 0.933722 195.565 0.961456C195.505 1.33125 195.346 1.71953 195.047 2.08932ZM217.321 8.764C217.541 8.78249 217.76 8.80098 217.979 8.80098L218.118 8.78249C218.178 9.6515 218.238 10.5205 218.298 11.408C203.833 9.8364 186.36 13.22 167.891 17.4171C145.696 22.4648 134.718 23.9994 112.463 16.8254C105.908 14.7176 93.755 9.61452 92.8983 4.89969C92.5994 3.27261 93.0776 1.66402 94.1734 0.0184479H99.0148C98.0585 1.5161 97.919 2.90282 98.1581 4.28953C98.5168 6.2864 100.509 8.30176 104.574 10.5575C115.512 16.6036 127.585 19.414 139.898 19.4694C148.604 19.5035 156.736 17.9886 165.225 16.4072L165.23 16.4063C165.968 16.2689 166.709 16.1309 167.453 15.9934C172.549 15.0474 177.168 14.027 181.559 13.0568C189.356 11.3341 196.437 9.7695 204.212 9.05984C204.334 9.05113 204.46 9.03831 204.589 9.02526C204.733 9.01061 204.881 8.99566 205.029 8.98588C205.307 8.9489 205.586 8.93041 205.865 8.91192L206.702 8.85645C206.795 8.85029 206.888 8.84207 206.981 8.83385C207.167 8.81742 207.353 8.80098 207.539 8.80098C207.678 8.80098 207.818 8.79174 207.957 8.78249C208.097 8.77325 208.236 8.764 208.376 8.764L208.432 8.76053C208.71 8.74327 208.971 8.72702 209.232 8.72702C209.511 8.69004 209.81 8.69005 210.089 8.69005H210.109C210.388 8.67156 210.687 8.67156 210.966 8.67156H210.986H211.842H211.862H212.739H212.759H213.636H213.655H214.552C214.851 8.69005 215.17 8.69005 215.469 8.69005C215.767 8.70854 216.086 8.72702 216.385 8.72702H216.405C216.552 8.72702 216.699 8.73597 216.848 8.74507C217.003 8.75446 217.159 8.764 217.321 8.764ZM140.038 8.96746C141.393 8.83803 142.767 8.65314 144.122 8.3758L144.082 8.39429C145.457 8.11694 146.792 7.74715 148.047 7.24793C148.924 6.91512 149.741 6.45288 150.478 5.91669C151.255 5.362 151.932 4.71487 152.51 4.03075C152.948 3.51305 153.347 2.86591 153.546 2.20029C153.725 1.59013 153.765 0.961488 153.546 0.369823V0.295864C152.912 0.289673 152.281 0.281407 151.65 0.273151C150.397 0.256754 149.147 0.240396 147.888 0.240396C149.023 1.46071 149.003 2.90289 146.832 4.49299C144.122 6.47137 138.524 7.17398 135.017 7.06304C131.311 6.9521 127.924 5.87971 125.872 3.10628C125.294 2.32971 124.756 1.36826 124.776 0.425291C124.776 0.3285 124.791 0.231709 124.809 0.122638L124.809 0.122548L124.816 0.0739899H123.322V0.277375C123.302 0.961488 123.461 1.6456 123.74 2.29274C124.019 2.92138 124.378 3.51305 124.776 4.04924C125.195 4.60393 125.693 5.12164 126.251 5.60236C126.848 6.12007 127.506 6.58231 128.203 7.00757C128.861 7.39585 129.538 7.76564 130.255 8.06147C131.012 8.35731 131.789 8.61616 132.606 8.74559C133.802 8.94897 135.037 9.05991 136.292 9.09689C137.547 9.13387 138.803 9.0784 140.038 8.96746ZM218.397 18.1567C200.494 17.5972 186.49 19.6377 173.486 21.5324L173.486 21.5325C171.02 21.8917 168.591 22.2457 166.178 22.5757C132.865 27.0872 121.907 27.5309 88.5351 15.3648C82.3389 13.0906 77.3978 10.1877 74.6683 7.96897C72.3571 6.08304 72.0184 3.43904 74.3096 1.44216C74.728 1.09086 75.266 0.647114 75.9035 0.184875C75.0867 0.184875 74.2698 0.19412 73.4529 0.203365C72.636 0.21261 71.8192 0.221855 71.0023 0.221855C70.8429 0.351281 70.6835 0.480708 70.5441 0.610135C69.8667 1.2018 69.3287 1.92289 68.9701 2.66247C68.6115 3.42055 68.4521 4.2156 68.4919 4.99216C68.5318 5.73174 68.7908 6.47132 69.2092 7.15543C69.6475 7.89502 70.2651 8.56064 70.9625 9.15231C74.0108 11.6484 80.0078 14.3294 86.7619 16.807C96.5046 20.3755 107.901 23.5372 114.097 24.9978C126.485 27.9268 132.35 27.4303 144.763 26.3794L145.138 26.3476C152.442 25.7381 159.388 24.7965 166.473 23.8361L166.496 23.833C181.559 21.7807 197.258 19.6544 218.417 20.4309V18.1937L218.397 18.1567ZM216.166 26.2551H217.162L217.222 26.2367H218.397C218.378 27.0502 218.358 27.8637 218.318 28.6588C198.264 28.1972 178.846 30.3904 159.231 32.6058L159.145 32.6155C157.698 32.7793 156.216 32.954 154.71 33.1317C145.162 34.258 134.612 35.5025 125.474 34.8158C115.629 34.0712 104.437 30.3206 94.5705 27.0138C92.6763 26.3789 90.8309 25.7605 89.0532 25.1827C87.3653 24.6352 85.6797 24.0854 83.9947 23.5358L83.9924 23.5351L83.9901 23.5343L83.9877 23.5336L83.9854 23.5328L83.9831 23.532C78.7309 21.819 73.4848 20.108 68.1932 18.471C67.8482 18.364 67.4763 18.2492 67.0806 18.127C59.0654 15.6516 41.2264 10.1423 37.3912 5.1031C36.2954 3.66091 36.0563 2.16326 37.1721 0.665605C38.3874 0.647116 39.6027 0.624004 40.8181 0.600892C42.0334 0.57778 43.2488 0.554668 44.4641 0.536179C40.7185 3.19867 42.1131 5.93513 51.537 10.0028C57.229 12.47 64.0872 14.5584 68.3335 15.8515C69.0516 16.0701 69.6949 16.266 70.2453 16.4372C75.2399 17.9899 81.0092 20.0201 87.048 22.1452L87.0482 22.1453L87.0483 22.1453L87.0485 22.1453L87.0485 22.1454C100.425 26.8527 115.125 32.0254 125.653 33.503C133.69 34.6472 143.109 33.3863 151.84 32.2174L151.84 32.2174L151.841 32.2173L151.842 32.2171L151.843 32.217L151.844 32.2169C154.259 31.8937 156.62 31.5776 158.886 31.3213C162.974 30.8555 167.055 30.3499 171.136 29.8443C183.743 28.2825 196.354 26.7202 209.193 26.3291C209.531 26.2921 209.85 26.2921 210.189 26.2921C210.528 26.2736 210.846 26.2736 211.185 26.2736H212.181C212.839 26.2551 213.516 26.2551 214.174 26.2551H215.17H216.166ZM218.118 31.7466C211.566 31.8517 205.066 32.1763 198.533 32.5025L198.526 32.5028C197.017 32.5782 195.505 32.6537 193.991 32.7265C184.484 33.201 175.471 34.7368 166.503 36.2649C151.357 38.8455 136.341 41.4041 119.297 38.7911C110.315 37.409 103.026 35.2035 94.3005 32.5637L94.3003 32.5636L94.3002 32.5636C91.703 31.7778 88.9786 30.9535 86.0446 30.101C70.4643 25.5711 54.7047 21.263 38.8255 17.4727C35.4079 16.6551 31.5674 15.9275 27.6314 15.1818L27.6313 15.1818L27.6313 15.1818L27.6313 15.1818L27.6312 15.1818L27.6312 15.1818L27.6312 15.1818L27.6311 15.1818C19.7275 13.6844 11.4385 12.114 5.4136 9.59611C3.32161 8.7271 1.98673 7.85809 1.2894 7.02606C1.18978 8.11695 1.09017 9.24481 1.0304 10.3727C1.48864 10.5945 1.96681 10.8164 2.44497 11.0198C8.86417 13.7073 17.545 15.3496 25.8408 16.919L25.8409 16.919C29.93 17.6926 33.9255 18.4485 37.5106 19.3031C54.0074 23.2599 70.3647 27.7159 86.5426 32.4307C99.9313 36.332 109.355 38.939 119.018 40.1778C128.681 41.4166 138.503 41.2502 152.609 39.5862C156.968 39.0711 161.312 38.4745 165.656 37.8779L165.656 37.8779L165.656 37.8779L165.656 37.8779L165.656 37.8778L165.657 37.8778L165.657 37.8778L165.657 37.8778C175.035 36.5898 184.413 35.3019 193.931 34.8343C201.94 34.4276 209.95 34.3166 217.959 34.2797C218.019 33.4476 218.059 32.6156 218.098 31.7651L218.118 31.7466ZM51.6564 33.614C32.4899 27.9932 18.7824 27.1981 0.831229 28.1041V28.0671H0.851153C0.844307 27.8829 0.835109 27.7008 0.825984 27.5202C0.808551 27.1752 0.791382 26.8353 0.791382 26.4955C0.910899 26.4955 1.03042 26.4863 1.14993 26.477L1.15001 26.477C1.26955 26.4678 1.38909 26.4585 1.50863 26.4585C1.84733 26.4401 2.18604 26.4216 2.50481 26.4031H2.54466C2.88336 26.3846 3.20214 26.3661 3.52092 26.3476L4.47725 26.2921H4.53703C4.63073 26.2863 4.7264 26.2787 4.82341 26.271L4.82345 26.271L4.8235 26.271L4.82355 26.271C5.03589 26.2541 5.25466 26.2367 5.47344 26.2367H5.49336C5.59963 26.2305 5.70589 26.2223 5.81216 26.2141C6.02467 26.1976 6.23718 26.1812 6.4497 26.1812H6.46962C6.62901 26.1812 6.7884 26.172 6.94779 26.1627C7.10718 26.1535 7.26656 26.1442 7.42595 26.1442C7.74473 26.1257 8.06351 26.1072 8.38229 26.1072L8.38238 26.1072C8.70113 26.0887 9.01988 26.0703 9.33862 26.0703L9.39174 26.0672L9.3918 26.0672C9.69081 26.0498 9.97404 26.0333 10.275 26.0333H10.295L10.3512 26.03L10.3513 26.03C10.6491 26.0127 10.9303 25.9963 11.2114 25.9963H11.2513C11.5501 25.9778 11.8689 25.9778 12.1678 25.9778C12.4666 25.9593 12.7854 25.9593 13.0843 25.9593H13.1241H14.0207H14.0605H14.977C26.991 25.8669 38.1681 27.0502 52.2541 31.1919C59.3669 33.2812 65.2045 34.7603 72.636 35.8327C79.4698 36.8127 85.8852 38.2364 92.5995 39.734C104.016 42.3041 115.372 44.8372 127.267 45.1145C136.883 45.3426 147.36 43.9053 157.455 42.5202C161.27 41.9969 165.029 41.481 168.668 41.0653L168.962 41.0319C184.702 39.2496 200.355 37.4772 217.76 37.2934L217.58 39.5676C200.267 39.771 184.627 41.546 168.907 43.3395C166.961 43.5599 164.982 43.792 162.981 44.0268L162.98 44.0269C151.212 45.4073 138.652 46.8808 127.227 46.6121C113.734 46.3024 102.913 44.1117 91.72 41.8457C85.5429 40.5952 79.2525 39.3217 72.3372 38.3288C64.7861 37.2379 58.8688 35.7403 51.6564 33.614ZM2.12619 36.184H3.22199C3.58061 36.184 3.95916 36.184 4.31779 36.221C4.67641 36.221 5.05496 36.2395 5.41359 36.258C5.6557 36.258 5.90689 36.2748 6.1549 36.2915C6.27425 36.2995 6.39287 36.3074 6.50939 36.3135C6.86801 36.3319 7.22664 36.3504 7.58526 36.3874C7.76458 36.3967 7.94389 36.4105 8.1232 36.4244C8.30251 36.4383 8.48183 36.4521 8.66114 36.4614C8.84045 36.4799 9.01977 36.4937 9.19908 36.5076C9.37839 36.5215 9.5577 36.5353 9.73702 36.5538C10.0956 36.5908 10.4543 36.6278 10.8129 36.6463C10.9524 36.6648 11.0918 36.6786 11.2313 36.6925L11.2316 36.6925C11.371 36.7064 11.5103 36.7202 11.6497 36.7387C18.3486 37.4454 24.8667 38.7143 31.7477 40.0538L31.7478 40.0538L31.7478 40.0539L31.7479 40.0539C38.1897 41.3079 44.9495 42.6239 52.4732 43.5983C73.0942 46.2793 95.6477 49.2007 115.014 50.5689C127.565 51.4564 140.954 50.2176 153.446 48.9233C157.821 48.4705 162.225 47.9516 166.621 47.4337L166.621 47.4337L166.621 47.4337L166.622 47.4336L166.622 47.4336L166.622 47.4336L166.622 47.4335C167.431 47.3383 168.239 47.2431 169.046 47.1483C184.706 45.2994 200.008 43.5059 217.142 43.4319C217.222 42.6923 217.301 41.9528 217.361 41.2132C200.028 41.2687 184.607 43.0806 168.807 44.9481C166.012 45.2783 163.076 45.6486 160.049 46.0302C145.282 47.8926 128.368 50.0258 115.173 49.0897C102.339 48.1679 88.0884 46.0533 73.924 43.9514C66.7804 42.8914 59.6588 41.8347 52.7522 40.9358C48.2081 40.3477 43.4823 39.6327 38.6467 38.9011C26.4571 37.0569 13.5689 35.107 1.13 34.8158C1.14993 35.0377 1.16487 35.2642 1.17981 35.4906L1.17981 35.4907C1.19476 35.7172 1.2097 35.9437 1.22962 36.1655H2.08634L2.12619 36.184ZM13.1838 45.7616C9.33857 45.6137 5.67262 45.6692 2.16606 45.8725L2.14614 45.9095C2.11805 45.6229 2.08558 45.3281 2.05283 45.0308L2.05282 45.0308C2.01587 44.6953 1.97859 44.3569 1.9469 44.0236C8.56155 43.8757 15.754 44.0976 24.0223 45.0775C24.2931 45.1089 24.5637 45.1405 24.8342 45.172C27.7484 45.5117 30.6487 45.8497 33.5657 46.002C37.0928 46.1864 41.3081 46.6518 45.7368 47.1407H45.7368H45.7369H45.7369L45.7369 47.1407C51.9652 47.8284 58.6156 48.5627 64.3677 48.6275C75.9146 48.753 85.9384 50.1485 95.5847 51.4913C105.828 52.9174 115.646 54.2841 126.41 54.0079C137.627 53.7121 148.764 52.3809 159.882 50.9572C161.724 50.7202 163.584 50.4784 165.46 50.2346L165.46 50.2345C182.019 48.0822 199.766 45.7754 216.983 45.2439C216.903 46.0574 216.803 46.871 216.704 47.6845C199.243 48.146 181.698 50.0612 164.35 51.9548C162.932 52.1096 161.516 52.2642 160.101 52.4178L159.599 52.4718C148.588 53.656 137.537 54.8444 126.39 55.1358C115.651 55.4132 107.383 54.4702 96.4049 53.1944C92.7389 52.7691 88.7542 52.3069 84.112 51.8262C77.4774 51.1421 70.8428 50.7723 64.2282 50.5874C55.7085 50.3397 46.7816 49.2381 37.8807 48.1397L37.8806 48.1397C29.505 47.1061 21.1524 46.0753 13.1838 45.7616ZM17.9606 54.0368L17.9608 54.0368C21.0358 54.2114 24.2393 54.3934 27.8078 54.5071C34.3048 54.7184 40.7709 54.6154 47.2604 54.5121L47.2623 54.512C48.1554 54.4978 49.0489 54.4836 49.943 54.4702C65.1248 54.2298 77.597 55.0803 92.6592 56.7074C102.641 57.7798 112.762 58.8522 122.824 58.9446C136.006 59.0688 150.045 57.72 163.467 56.4306L163.467 56.4305L163.468 56.4305L163.469 56.4304C166.031 56.1842 168.571 55.9402 171.079 55.709C185.942 54.3407 200.446 53.0095 216.066 52.3439C216.145 51.8321 216.217 51.3144 216.291 50.7908L216.291 50.7902C216.347 50.3871 216.404 49.9805 216.465 49.5704C203.203 50.2269 189.262 51.7564 175.466 53.2701C157.012 55.2949 138.816 57.2914 122.844 57.1327C112.862 57.0402 102.78 56.2821 92.8784 55.2097C90.4643 54.9507 88.1204 54.6883 85.8238 54.4313C73.6969 53.0739 62.8908 51.8644 50.0426 52.0665C42.6509 52.1775 35.3389 52.159 27.9473 52.1035C25.289 52.0769 22.7961 52.0349 20.3901 51.9943L20.389 51.9943H20.3888C14.446 51.8942 9.03255 51.803 2.96301 51.9741C3.04271 52.5103 3.1224 53.028 3.2021 53.5457V53.5642C8.43959 53.4959 13.0352 53.7569 17.9606 54.0368ZM16.4561 60.516L16.4513 60.5163H16.4712L16.4561 60.516ZM82.7373 61.2929C58.7908 58.6121 37.454 59.2404 16.4561 60.516C13.5523 60.4606 10.6684 60.4053 7.78452 60.3499C7.10712 60.1095 6.11094 59.4809 5.29407 58.8522C24.9786 57.5765 44.4839 56.615 63.7899 57.9647C71.4663 58.4987 79.1328 59.3813 86.7965 60.2635L86.7966 60.2635L86.7967 60.2635L86.7973 60.2636L86.7979 60.2637C90.0139 60.6339 93.2293 61.004 96.4447 61.3483L82.7373 61.2929ZM186.36 60.7936C195.425 60.017 204.451 59.3144 213.735 58.9446C214.393 58.4639 214.95 57.9647 215.209 57.5764C215.309 57.0217 215.409 56.4486 215.508 55.8569C204.55 55.8939 193.353 56.9293 181.678 58.4454C174.027 59.4439 166.138 60.3683 158.168 61.1264C167.572 61.034 176.956 60.923 186.34 60.7751L186.36 60.7936Z" fill="#B7805C"/>
</g>
<g style="mix-blend-mode:multiply" opacity="0.65">
<path fill-rule="evenodd" clip-rule="evenodd" d="M68.3654 19.0336C61.038 16.7891 41.6046 11.0592 37.5825 5.84021C36.4874 4.41685 36.2285 2.93875 37.3634 1.46066C26.7905 1.66138 16.1977 1.89861 5.62477 2.17233C4.43009 2.61029 2.35931 4.03364 1.88143 4.94605C1.76197 5.85845 1.66241 6.78911 1.58276 7.73801C2.27966 8.57742 3.61372 9.41684 5.70441 10.2745C14.7243 13.9971 28.8215 15.6212 39.0957 18.0482C54.985 21.8073 70.715 26.0409 86.2856 30.5117C99.0687 34.1795 107.85 37.3182 119.518 39.0883C146.637 43.1941 168.599 34.362 194.165 33.1029C202.229 32.7014 210.214 32.2635 218.278 32.1358C218.338 31.1321 218.377 30.1102 218.417 29.1066C198.347 28.6504 178.913 30.8219 159.281 33.0117C148.668 34.1978 136.183 35.9679 125.63 35.1832C113.923 34.3073 100.263 29.2161 89.2325 25.6759C82.2834 23.4496 75.3742 21.1869 68.3853 19.0518L68.3654 19.0336Z" fill="url(#paint2_radial_12_7343)"/>
</g>
<g style="mix-blend-mode:multiply">
<path fill-rule="evenodd" clip-rule="evenodd" d="M126.127 3.16359C128.169 6.05711 131.54 7.17594 135.227 7.29168C138.717 7.40742 144.288 6.6744 146.984 4.61035C149.145 2.9514 149.165 1.44676 148.035 0.173611C140.382 0.0964508 132.729 0.0385803 125.076 0C125.056 0.135031 125.037 0.250772 125.037 0.366513C125.017 1.35031 125.552 2.3534 126.127 3.16359Z" fill="url(#paint3_radial_12_7343)"/>
</g>
<g style="mix-blend-mode:multiply" opacity="0.7">
<path fill-rule="evenodd" clip-rule="evenodd" d="M126.219 6.09885C125.662 5.63358 125.166 5.13252 124.748 4.59567C124.351 4.07672 123.993 3.50409 123.715 2.89566C123.437 2.26934 123.278 1.60723 123.298 0.945116C123.298 0.873536 123.298 0.819852 123.298 0.748272C119.979 0.748272 116.68 0.730377 113.362 0.730377C112.368 3.86198 115.269 6.22411 119.403 8.6936C122.364 10.4652 126.219 12.38 129.697 13.1315C132.638 13.7758 135.758 13.9547 138.977 13.8473C142.236 13.7221 145.574 13.2926 148.913 12.7021C157.418 11.1989 166.202 8.28202 174.707 6.45674C179.556 5.40094 183.312 4.63146 185.378 3.86198C187.922 2.91355 187.962 2.12618 186.889 1.48196C175.74 1.26722 164.612 1.10617 153.464 0.980906V1.05249C153.682 1.62512 153.643 2.23355 153.464 2.82408C153.265 3.4683 152.868 4.09462 152.43 4.59567C151.854 5.25779 151.178 5.88411 150.403 6.42095C149.668 6.9399 148.853 7.38728 147.979 7.70938C146.727 8.19255 145.396 8.55045 144.024 8.81887C142.673 9.08729 141.302 9.26624 139.951 9.39151C138.719 9.49887 137.467 9.55256 136.215 9.51677C134.963 9.48098 133.731 9.37361 132.538 9.17677C131.723 9.0515 130.948 8.80097 130.193 8.51466C129.478 8.22834 128.802 7.87044 128.146 7.49465C127.451 7.08306 126.795 6.63569 126.199 6.13463L126.219 6.09885Z" fill="url(#paint4_radial_12_7343)"/>
</g>
<g style="mix-blend-mode:multiply">
<path fill-rule="evenodd" clip-rule="evenodd" d="M52.7404 43.9342C37.1577 41.9696 24.8471 38.581 11.8582 37.2472C11.1399 37.2472 10.4017 37.2472 9.68338 37.2832C6.96988 37.4995 3.1989 38.1123 1.58276 39.0316C1.74238 40.816 1.902 42.5644 2.08157 44.2767C8.70572 44.1145 15.9085 44.3488 24.1887 45.3041C27.3611 45.6646 30.5535 46.0431 33.7458 46.2053C42.2455 46.6559 54.7157 48.6566 64.592 48.7648C88.435 49.0351 105.793 54.5326 126.723 54.0099C137.976 53.7215 149.13 52.4237 160.243 51.0359C178.38 48.7828 198.232 46.0431 217.426 45.4663C217.486 44.8895 217.546 44.3127 217.626 43.736C200.487 43.8081 185.144 45.5564 169.461 47.3589C164.274 47.9537 159.046 48.5485 153.839 49.0892C141.348 50.3689 127.921 51.5766 115.351 50.6934C95.957 49.3416 73.371 46.4937 52.7204 43.8982L52.7404 43.9342Z" fill="url(#paint5_radial_12_7343)"/>
</g>
<g style="mix-blend-mode:screen" opacity="0.4">
<path fill-rule="evenodd" clip-rule="evenodd" d="M75.9053 35.5119C72.4664 34.8631 68.9275 34.5927 65.4686 34.016C63.2093 33.6375 60.99 33.187 58.7906 32.6643C54.9918 31.7452 51.3529 30.4295 47.4941 29.6726C44.635 29.1139 41.6959 28.8075 38.7769 28.4831C43.0355 29.2581 47.4542 30.2854 52.2327 31.6551C59.3705 33.6916 65.2286 35.1514 72.6863 36.1787C79.5642 37.1339 86.0022 38.5216 92.7201 39.9814C99.2581 41.4052 105.776 42.8109 112.374 43.8202C112.254 43.8022 112.114 43.7661 111.994 43.7481C110.135 43.4057 108.255 43.0272 106.416 42.6307C103.637 42.036 100.838 41.4773 98.0984 40.7924C94.3196 39.8553 90.6807 38.5937 86.8819 37.7466C85.0025 37.3321 83.0031 37.3502 81.1237 36.9717C79.3442 36.6112 77.7048 35.8543 75.9053 35.5119Z" fill="#CA9E67"/>
</g>
<g style="mix-blend-mode:screen" opacity="0.3">
<path fill-rule="evenodd" clip-rule="evenodd" d="M103.933 26.7641C94.097 23.4728 84.9962 20.8841 75.1799 18.2584C90.9376 23.5098 112.1 31.923 125.99 33.883C136.223 35.3252 148.702 32.8845 159.135 31.7011C164.4 31.1094 169.646 30.4437 174.892 29.7965C168.255 30.0924 161.141 30.3143 155.021 31.0354C151.464 31.4607 148.066 32.5331 144.529 33.0139C141.151 33.4762 137.714 33.8275 134.296 33.9014C131.892 33.9569 129.447 33.846 127.103 33.4022C124.162 32.8475 121.459 31.6456 118.558 30.9245C116.154 30.3143 113.61 30.1109 111.246 29.4267C108.722 28.7056 106.397 27.5777 103.933 26.7456V26.7641Z" fill="#CA9E67"/>
</g>
<g style="mix-blend-mode:screen" opacity="0.5">
<path fill-rule="evenodd" clip-rule="evenodd" d="M48.8998 40.1181C44.477 39.6356 40.0343 39.1718 35.6116 38.7079C41.5883 39.6171 47.4255 40.5263 52.9838 41.2499C73.5835 43.9218 96.0957 48.0409 115.4 49.4325C123.927 50.0448 133.988 49.3582 144.029 48.3006C142.993 48.3563 141.977 48.4305 140.941 48.4862C138.072 48.6717 135.203 48.8944 132.315 49.0428C129.804 49.1727 127.314 49.2655 124.804 49.284C118.688 49.3211 115.161 48.6532 109.284 47.9295C104.901 47.3915 100.578 46.4637 96.1953 45.9442C94.0437 45.6844 91.8523 45.7401 89.7206 45.4432C87.9874 45.202 86.3736 44.6083 84.6404 44.3485C81.0743 43.7919 77.4484 43.5321 73.8824 42.994C70.4159 42.493 66.8896 42.2147 63.4231 41.7509C58.6019 41.1015 53.721 40.6376 48.8798 40.0995L48.8998 40.1181Z" fill="#CA9E67"/>
</g>
<g style="mix-blend-mode:screen" opacity="0.5">
<path fill-rule="evenodd" clip-rule="evenodd" d="M172.177 21.7226C169.382 22.2849 166.608 22.8279 163.813 23.3708C164.685 23.2545 165.557 23.1187 166.469 23.0024C181.552 20.85 197.249 17.6698 218.417 18.3679C218.417 18.2128 218.417 18.0576 218.417 17.9025C213.145 16.933 209.696 16.7391 203.632 17.2432C202.561 17.3402 201.491 17.4565 200.401 17.3983C198.677 17.3208 197.012 16.6809 195.287 16.8166C190.114 17.2432 177.965 20.5397 172.177 21.7032V21.7226Z" fill="#CA9E67"/>
</g>
<g style="mix-blend-mode:multiply" opacity="0.5">
<path fill-rule="evenodd" clip-rule="evenodd" d="M39.9335 21.1407C41.4059 21.6662 43.714 22.9164 44.1517 23.0432C45.8629 23.4962 50.658 24.1847 53.8614 24.8914C58.6964 25.9604 63.4717 27.1925 68.2669 28.3884C72.3656 29.4211 76.4445 30.4902 80.5433 31.5592C84.8411 32.6645 89.099 33.8241 93.4167 34.875C93.6753 34.9293 93.9141 35.0018 94.1727 35.0562C91.8249 34.4039 89.3378 33.6972 86.7313 32.9544C70.5749 28.334 54.2395 23.9673 37.7648 20.0898C31.6365 18.6584 24.3343 17.4988 17.4102 16.0674C19.7381 16.7016 22.0661 17.3539 24.4338 17.8974C28.4729 18.8215 32.5916 19.4738 36.6505 20.3254C37.7648 20.5609 38.8989 20.7784 39.9534 21.1589L39.9335 21.1407Z" fill="#683C11"/>
</g>
<g style="mix-blend-mode:multiply" opacity="0.5">
<path fill-rule="evenodd" clip-rule="evenodd" d="M119.496 50.8947C129.11 51.2774 136.741 51.1681 145.734 50.6577C148.558 50.4937 151.222 50.2021 154.527 50.1109C158.652 50.0016 163.159 49.3636 167.425 48.7075C170.75 48.2154 173.954 47.3223 177.259 46.7573C180.143 46.2469 183.067 45.8824 185.992 45.4814C186.512 45.4085 187.033 45.3356 187.554 45.2809C181.385 45.8824 175.316 46.575 169.168 47.2858C163.96 47.8873 158.713 48.4888 153.485 49.0356C142.469 50.1656 130.752 51.241 119.516 50.8947H119.496Z" fill="#683C11"/>
</g>
<g style="mix-blend-mode:multiply" opacity="0.5">
<path fill-rule="evenodd" clip-rule="evenodd" d="M113.957 6.573C117.204 9.81808 121.593 12.5254 128.387 14.3797C134.018 15.9374 137.686 16.4566 143.699 15.7705C147.306 15.3625 150.833 14.5837 154.341 13.7864C158.068 12.9334 161.676 11.8208 165.344 10.8565C167.207 10.3558 169.071 9.85517 170.935 9.3545C169.372 9.68828 167.749 10.0591 166.085 10.4486L165.845 10.5042C161.175 11.5797 156.265 12.7294 151.355 13.5638C147.647 14.1943 143.919 14.6394 140.312 14.7692C136.664 14.899 133.117 14.695 129.77 13.9903C125.801 13.1744 121.713 11.5426 118.346 9.61411C116.682 8.64985 115.179 7.62997 113.957 6.573H113.957Z" fill="#683C11"/>
</g>
<g style="mix-blend-mode:screen">
<path fill-rule="evenodd" clip-rule="evenodd" d="M2.37402 54.7943C2.41392 56.4488 2.55358 58.1032 2.79298 59.7387C3.65085 60.9177 4.78802 61.9827 6.34416 62.8574C29.1674 63.5801 82.455 65.4628 113.957 63.1617C78.5049 62.5722 42.9731 61.9827 7.54118 61.203C5.98505 60.5944 4.80798 59.6436 3.69075 58.5596C3.19199 57.3045 2.75308 56.0494 2.37402 54.7753L2.37402 54.7943Z" fill="url(#paint6_radial_12_7343)"/>
</g>
<g style="mix-blend-mode:screen" opacity="0.5">
<path fill-rule="evenodd" clip-rule="evenodd" d="M4.29527 3.39854C17.3791 3.04798 30.0042 2.75585 43.0881 2.54161C45.7208 3.12588 49.7298 3.88543 50.9464 3.90491C53.8783 3.94386 64.2895 2.67794 69.7943 2.17158C118.36 1.66521 166.547 2.0742 214.973 3.39854C215.631 3.5154 216.748 4.19704 217.626 4.93712C217.048 3.88543 214.953 2.38581 213.976 2.19105C144.468 0.243486 74.8404 0.243486 5.31246 2.19105C4.13571 2.65847 2.10133 4.13862 1.58276 5.1124C2.42045 4.3918 3.53736 3.69068 4.29527 3.39854Z" fill="#CA9E67"/>
</g>
<defs>
<linearGradient id="paint0_linear_12_7343" x1="219.94" y1="64.9653" x2="219.94" y2="0.000511131" gradientUnits="userSpaceOnUse">
<stop stop-color="#692705"/>
<stop offset="1" stop-color="#823B00"/>
</linearGradient>
<radialGradient id="paint1_radial_12_7343" cx="0" cy="0" r="1" gradientUnits="userSpaceOnUse" gradientTransform="translate(6.64104 -7.38011) scale(240.242 67.7237)">
<stop stop-color="#BD8A60"/>
<stop offset="1" stop-color="#A85021"/>
</radialGradient>
<radialGradient id="paint2_radial_12_7343" cx="0" cy="0" r="1" gradientUnits="userSpaceOnUse" gradientTransform="translate(35.7506 -46.8969) scale(257.334 45.9376)">
<stop stop-color="#CFA04D"/>
<stop offset="1" stop-color="white"/>
</radialGradient>
<radialGradient id="paint3_radial_12_7343" cx="0" cy="0" r="1" gradientUnits="userSpaceOnUse" gradientTransform="translate(139.827 -14.0625) scale(42.23 12.9911)">
<stop stop-color="#CFA04D"/>
<stop offset="1" stop-color="white"/>
</radialGradient>
<radialGradient id="paint4_radial_12_7343" cx="0" cy="0" r="1" gradientUnits="userSpaceOnUse" gradientTransform="translate(151.476 -10.7939) scale(77.7799 13.7454)">
<stop stop-color="#CFA04D"/>
<stop offset="1" stop-color="white"/>
</radialGradient>
<radialGradient id="paint5_radial_12_7343" cx="0" cy="0" r="1" gradientUnits="userSpaceOnUse" gradientTransform="translate(127.921 79.7668) scale(234.439 18.2281)">
<stop stop-color="#CFA04D"/>
<stop offset="1" stop-color="white"/>
</radialGradient>
<radialGradient id="paint6_radial_12_7343" cx="0" cy="0" r="1" gradientUnits="userSpaceOnUse" gradientTransform="translate(19.8107 67.9159) scale(118.146 10.0529)">
<stop stop-color="#B0670B"/>
<stop offset="1"/>
</radialGradient>
</defs>
</svg>
