<svg width="18" height="16" viewBox="0 0 18 16" fill="none" xmlns="http://www.w3.org/2000/svg">
<path fill-rule="evenodd" clip-rule="evenodd" d="M10.2362 0.275519C10.526 0.584871 10.7259 0.95264 10.8163 1.3429C10.9296 1.83194 12.4524 13.0032 12.4524 13.3451C12.4524 13.7516 12.3852 14.0325 12.197 14.4121L12.0517 14.705L12.482 14.689C12.8149 14.6767 12.9608 14.6539 13.1263 14.5883C13.3886 14.4844 13.7565 14.1479 13.9001 13.8804C14.1139 13.4822 14.1067 13.7076 14.1067 7.34866C14.1067 1.08204 14.1109 1.22932 13.9227 0.855317C13.8199 0.651009 13.5172 0.326027 13.3216 0.21009C12.9863 0.0111909 12.8826 0 11.3741 0H9.97807L10.2362 0.275519ZM4.71351 0.822826C1.33986 1.30679 1.09888 1.34626 0.879018 1.45056C0.550583 1.60637 0.301727 1.85492 0.138154 2.19046C-0.0941827 2.66715 -0.125161 2.34635 0.786929 8.91538L1.59748 14.7533L1.72613 15.0178C1.88496 15.3443 2.13735 15.5925 2.47211 15.7513C2.90441 15.9564 2.87417 15.9589 6.86016 15.39C8.81285 15.1113 10.4933 14.8568 10.5945 14.8245C11.1816 14.6371 11.6244 14.0734 11.6675 13.4586C11.6832 13.235 11.5445 12.1627 10.8897 7.44192C10.4514 4.28237 10.0769 1.62372 10.0573 1.53382C9.90224 0.821222 9.23967 0.292305 8.51576 0.303309C8.40447 0.305025 6.69346 0.538802 4.71351 0.822826ZM14.8495 1.22532C14.8676 1.32627 14.8776 4.09 14.8721 7.48287L14.8622 13.5596L14.7765 13.8207C14.5177 14.6088 13.8855 15.2222 13.1264 15.4216C13.0043 15.4537 12.7405 15.4927 12.5404 15.5083L12.1765 15.5366L13.4583 15.7185C14.948 15.9299 15.1336 15.9328 15.5184 15.7502C15.9484 15.5461 16.2892 15.1316 16.3852 14.6956C16.4054 14.6042 16.7803 11.9444 17.2185 8.78482C17.8646 4.1254 18.0121 2.98579 17.9992 2.7522C17.9688 2.19893 17.6239 1.69482 17.1086 1.45033C16.9064 1.35443 16.7303 1.31821 15.8506 1.19164C15.288 1.11069 14.8253 1.04448 14.8224 1.04448C14.8195 1.04448 14.8317 1.12584 14.8495 1.22532Z" fill="#FFF4E5"/>
</svg>
