<svg width="50" height="50" viewBox="0 0 50 50" fill="none" xmlns="http://www.w3.org/2000/svg">
<path fill-rule="evenodd" clip-rule="evenodd" d="M24.6598 0.0544283C38.2268 0.605667 47.9223 9.54242 49.6761 21.2521C47.9876 21.0255 46.27 21.274 44.7126 21.9703C46.435 21.9435 48.1565 22.0665 49.8581 22.3378C49.9771 23.4863 50.0214 24.6413 49.9905 25.7956C49.643 39.7436 39.4677 50 24.6598 50C10.282 50 0.96707 39.9775 0.0570841 26.6141C1.20968 26.2097 2.38681 25.8806 3.58121 25.6286C2.35488 25.714 1.12677 25.4901 0.00744855 24.9771C-0.104113 20.3028 1.03932 15.6851 3.31649 11.6137C4.61925 11.0198 5.96982 10.5393 7.35351 10.1772C4.55738 10.4779 3.9452 10.5447 4.04448 10.3442C8.57882 3.41569 16.4539 -0.51501 24.6598 0.0544283Z" fill="url(#paint0_linear_226_5170)"/>
<path fill-rule="evenodd" clip-rule="evenodd" d="M24.6763 0.405227C37.9124 0.939761 47.459 9.69276 48.9812 21.1017C47.1557 21.0314 45.3416 21.4218 43.7032 22.2376C45.5106 22.2015 47.3183 22.2908 49.1135 22.5049C49.1551 23.3284 49.1551 24.1536 49.1135 24.9771C48.7826 38.2235 37.8132 48.0289 24.6101 48.0289C12.4296 48.1619 2.15703 38.8987 0.917384 26.6642L5.58313 25.2277C3.96977 25.4579 2.32599 25.3267 0.768478 24.8435C0.776461 24.749 0.776461 24.654 0.768478 24.5595C0.611853 20.1404 1.62259 15.7588 3.69698 11.8643C4.9875 11.3799 7.00601 10.6115 9.14034 9.87651C7.61819 10.0436 6.04639 10.244 4.54078 10.4612C8.96761 3.68565 16.6742 -0.147205 24.6928 0.438635L24.6763 0.405227Z" fill="url(#paint1_radial_226_5170)"/>
<g style="mix-blend-mode:multiply" opacity="0.6">
<path fill-rule="evenodd" clip-rule="evenodd" d="M0.967041 20.3166C2.86974 19.8322 4.85516 19.1974 6.98949 18.4291C10.1567 17.2008 13.4302 16.2725 16.7677 15.6562C25.9668 13.9857 32.8331 11.0625 42.7436 10.7785H44.9607C44.5967 10.2774 44.2327 9.79298 43.8356 9.32526C41.583 9.15769 39.3213 9.15769 37.0686 9.32526C27.9357 10.1438 17.2144 12.5492 7.53548 14.1194C5.88096 14.4033 4.04445 14.7207 2.24102 15.0548C1.62928 16.7571 1.20212 18.5214 0.967041 20.3166H0.967041Z" fill="url(#paint2_radial_226_5170)"/>
</g>
<g style="mix-blend-mode:multiply" opacity="0.6">
<path fill-rule="evenodd" clip-rule="evenodd" d="M15.7418 28.4516C12.7178 29.533 9.76177 30.7993 6.89017 32.2434C5.55884 32.8973 4.34973 33.7789 3.31641 34.8493C4.15181 36.5575 5.19083 38.1563 6.41036 39.61C7.08871 39.9441 7.86633 40.2949 8.69359 40.6624C11.0265 41.6813 13.4586 42.6836 15.6591 43.786C17.9176 44.9755 20.0757 46.3498 22.1117 47.8953C22.9721 47.8953 23.7663 48.0289 24.7093 48.0289C26.0775 48.0255 27.4434 47.9194 28.796 47.7115C27.3235 46.6091 25.7682 45.4064 24.0144 44.1368C21.1977 42.2203 18.5063 40.1223 15.9569 37.8561C15.6331 37.5083 15.3801 37.0996 15.2124 36.6534C14.8678 35.7944 14.904 34.8277 15.3117 33.9974C15.5323 33.5665 15.8168 33.1722 16.1555 32.8281C18.3954 30.9378 20.92 29.4209 23.6339 28.3347C27.8248 26.4334 32.1295 24.7988 36.5226 23.4403C38.8506 22.7007 41.2649 22.2739 43.7032 22.1708C45.3416 21.355 47.1556 20.9646 48.9811 21.0349C48.8557 20.1235 48.6789 19.22 48.4517 18.3288C46.2951 18.0679 44.1136 18.1016 41.966 18.4291C34.7357 19.6819 23.3526 25.5283 15.7418 28.4516Z" fill="url(#paint3_radial_226_5170)"/>
</g>
<g style="mix-blend-mode:multiply" opacity="0.5">
<path fill-rule="evenodd" clip-rule="evenodd" d="M12.499 3.06119C16.0066 2.86074 19.6135 2.50995 23.3527 1.9253C25.4539 1.60792 27.5551 1.29054 29.6729 1.03998C30.4951 1.22471 31.3069 1.45332 32.1051 1.72485C29.196 2.03283 26.2936 2.44552 23.3918 2.85812C19.8408 3.36304 16.2907 3.86782 12.7307 4.18037L10.4805 4.34741C11.1315 3.90013 11.8053 3.48753 12.499 3.1113V3.06119ZM8.12992 6.20154L8.098 6.20158L8.14763 6.18487L8.12992 6.20154ZM8.12992 6.20154C14.2701 6.1942 20.402 5.74765 26.4797 4.86524C29.9873 4.39752 33.5114 3.92981 37.0521 3.69595C37.5981 3.99662 38.1441 4.314 38.7066 4.64809C34.6696 4.79842 30.6325 5.19932 26.6286 5.73386C20.0668 6.86036 13.4295 7.48021 6.77438 7.58803C7.19926 7.10957 7.65642 6.64741 8.12992 6.20154ZM5.41768 9.17492C7.96564 8.84084 10.4971 8.55687 12.9457 8.47335C16.0893 8.35642 19.2164 8.13926 22.36 7.73836C24.1672 7.51886 25.7512 7.2881 27.222 7.07382L27.2221 7.07382L27.2231 7.07366C27.5428 7.02709 27.8572 6.98129 28.1673 6.93656C32.1239 6.2743 36.1205 5.88364 40.1295 5.76727L40.2288 5.84515C40.49 6.04991 40.7382 6.24443 40.9733 6.45214C36.4039 6.45214 32.1592 7.18895 27.7458 7.95504C23.1944 8.74511 18.4635 9.56632 13.0119 9.64264C10.1687 9.74917 7.33434 10.0281 4.52424 10.4779C4.80551 10.0268 5.10332 9.60923 5.41768 9.17492ZM7.41965 12.5659C5.84785 12.8164 4.35879 13.1171 2.91935 13.4178V13.3844C2.67118 13.9523 2.45609 14.5036 2.241 15.0548C4.04443 14.7207 5.88094 14.4033 7.53546 14.1194C10.7485 13.5981 14.0764 12.9848 17.4229 12.3681L17.423 12.3681C24.1576 11.127 30.9675 9.87205 37.0686 9.32526C39.3212 9.15769 41.583 9.15769 43.8356 9.32526L42.9422 8.30631C40.9607 8.24415 38.9774 8.29993 37.0024 8.47335C28.4003 9.17879 18.4722 10.7817 9.22824 12.2741L9.22822 12.2741L9.22159 12.2752L9.21555 12.2761L9.20867 12.2772L9.20457 12.2779C8.60654 12.3744 8.01139 12.4705 7.41965 12.5659ZM0.967022 20.3166C2.86972 19.8322 4.85514 19.1974 6.98947 18.4291C10.1567 17.2008 13.4302 16.2725 16.7677 15.6562C19.9945 15.0702 22.9344 14.3301 25.8192 13.6038C31.1585 12.2597 36.3095 10.9629 42.7436 10.7785H44.9607L45.5729 11.6973H42.7602C37.1883 12.0861 31.6831 13.1517 26.3639 14.8711C23.1872 15.7564 20.1429 16.5415 16.9166 17.1595C13.6245 17.7703 10.3954 18.6874 7.27074 19.899C5.15944 20.6542 3.00459 21.279 0.818115 21.7699C0.818115 21.3503 0.876102 20.9425 0.933818 20.5365L0.933822 20.5365C0.945042 20.4576 0.956251 20.3788 0.967022 20.2999V20.3166ZM47.1604 14.7524L47.2108 14.7541H47.1612L47.1604 14.7524ZM47.1604 14.7524C44.4056 14.6577 41.6487 14.8655 38.9382 15.3722C34.6886 16.1839 31.2363 17.4826 27.1008 19.0382L27.1008 19.0382L27.1005 19.0383L27.0997 19.0386L27.099 19.0389L27.0982 19.0392L27.0974 19.0395L27.0971 19.0396C25.8721 19.5004 24.5872 19.9838 23.2038 20.4837C15.8908 23.1396 8.49508 25.6453 1.0332 27.8669C1.0332 27.6378 0.989983 27.4088 0.946763 27.1797C0.914347 27.0079 0.881932 26.836 0.867751 26.6642C8.46199 24.3758 15.9901 21.82 23.4519 19.1306C28.4138 17.1186 33.5553 15.5915 38.8059 14.5704C41.4765 14.1573 44.181 14.0118 46.8799 14.1361C46.9438 14.2651 47.0008 14.3941 47.0598 14.5275C47.0923 14.6009 47.1253 14.6756 47.1604 14.7524ZM41.966 18.5293C44.1136 18.2018 46.2952 18.1681 48.4517 18.4291L48.551 18.3455C48.534 18.277 48.5093 18.2064 48.4841 18.1346L48.4841 18.1346L48.4841 18.1345L48.4841 18.1345L48.484 18.1345L48.484 18.1344L48.484 18.1344C48.4356 17.9963 48.3855 17.8536 48.3855 17.7108C46.2551 17.5276 44.113 17.5276 41.9825 17.7108C37.3495 18.1436 32.069 20.3389 27.407 22.2771C26.4918 22.6575 25.6004 23.0281 24.7425 23.3735C23.6394 23.8134 22.5364 24.257 21.4334 24.7006L21.4329 24.7008C19.2271 25.5879 17.0212 26.475 14.8153 27.3324C10.5357 28.8091 6.4166 30.7233 2.52227 33.0452C2.75301 33.6613 3.01816 34.2636 3.31644 34.8493C4.35762 33.8146 5.56627 32.9672 6.8902 32.3437C9.7618 30.8995 12.7178 29.6332 15.7419 28.5518C18.1357 27.6324 20.9028 26.4237 23.7964 25.1598C30.1025 22.4052 37.0099 19.388 41.966 18.5293ZM49.1632 23.3067C41.2877 22.7889 35.4307 24.1753 24.4281 29.1699C21.9918 30.2311 19.7534 31.7057 17.81 33.5297C17.2645 34.0019 16.9372 34.6813 16.9058 35.4061C16.8745 36.1309 17.1419 36.8364 17.6446 37.3549C19.8964 39.485 22.296 41.45 24.8252 43.2348C26.3335 44.326 27.6032 45.3655 28.7871 46.3348L28.7873 46.335L28.7885 46.336C29.2534 46.7166 29.705 47.0864 30.1527 47.4443L28.7133 47.7115C28.2555 47.3688 27.7897 47.0163 27.3124 46.6552L27.3122 46.655C26.2544 45.8546 25.1402 45.0116 23.9317 44.1368C21.115 42.2203 18.4236 40.1223 15.8742 37.856C15.5504 37.5083 15.2974 37.0996 15.1297 36.6533C14.7851 35.7944 14.8213 34.8276 15.229 33.9974C15.4496 33.5665 15.7342 33.1722 16.0728 32.8281C18.3127 30.9378 20.8373 29.4209 23.5512 28.3346C27.7691 26.4301 32.1014 24.7955 36.5226 23.4403C40.5894 22.1434 44.8957 21.8006 49.1135 22.4381V23.2399L49.1632 23.3067ZM48.6668 26.7477H49.0639H49.097C49.1963 26.3134 49.1963 25.8791 49.1963 25.4281C44.5572 25.4053 39.9663 26.3789 35.7285 28.2845C32.6345 29.5374 26.8768 32.5274 26.4797 35.3003C26.3743 37.0523 27.0475 38.7607 28.3162 39.9608C30.168 42.192 32.205 44.2596 34.4049 46.1413C35.0005 45.8908 35.5796 45.6235 36.1586 45.3395C33.9572 43.514 31.9248 41.49 30.0866 39.2926C29.1617 38.3328 28.7334 36.9923 28.9284 35.6678C29.0938 34.4985 30.0369 33.3125 31.9562 31.9929C36.8759 28.585 42.7004 26.7568 48.6668 26.7477ZM47.0454 32.8448H47.6245C47.459 33.2624 47.2936 33.6633 47.1116 34.0642H46.4497C44.7004 34.0125 43.0534 34.8947 42.1149 36.3861C41.8081 36.8538 41.631 37.396 41.602 37.9563C41.606 38.4301 41.7896 38.8843 42.1149 39.2258C42.4686 39.5102 42.8581 39.7461 43.2731 39.9274C43.0544 40.1845 42.8224 40.4299 42.5782 40.6624C42.2971 40.5038 42.0312 40.3193 41.784 40.1111C41.5042 39.8671 41.2883 39.5573 41.1553 39.2091C40.9926 38.847 40.908 38.4541 40.9071 38.0565C40.899 37.6521 40.9664 37.2498 41.1057 36.8705C41.2341 36.5084 41.4005 36.1612 41.602 35.8348C41.7943 35.5046 42.0218 35.1965 42.2804 34.9161C42.5686 34.6204 42.8783 34.3468 43.2069 34.0976C43.5182 33.8647 43.8443 33.6527 44.1831 33.4628C44.5333 33.28 44.9061 33.1452 45.2916 33.0619C45.8702 32.9465 46.4563 32.8739 47.0454 32.8448ZM6.3773 39.61C7.06117 39.9441 7.82225 40.2949 8.66053 40.6623C9.19521 40.8959 9.7351 41.1285 10.2762 41.3617L10.2765 41.3619C12.0963 42.1461 13.93 42.9363 15.6261 43.786C17.8845 44.9755 20.0426 46.3498 22.0787 47.8953C20.6864 47.748 19.3086 47.4854 17.9589 47.1102C16.7346 46.4253 15.4937 45.7571 14.1866 45.1057C12.8796 44.4542 11.589 43.8863 10.2489 43.3016C8.82585 42.2209 7.52723 40.9826 6.3773 39.61ZM36.4068 40.8294C37.2826 41.8241 38.2969 42.6851 39.418 43.3851L39.3353 43.452L40.1295 42.8506C39.0291 42.1689 38.0457 41.3114 37.2175 40.3116C34.8019 37.2714 36.3737 35.4172 38.9879 33.4294C40.4627 32.2257 42.1456 31.3081 43.9514 30.7233C45.3872 30.3487 46.872 30.2022 48.3524 30.289H48.4517C48.5169 30.0815 48.5667 29.8693 48.6006 29.6543C46.9817 29.5712 45.3595 29.7288 43.786 30.122C41.8805 30.6413 40.0781 31.489 38.4584 32.6276C37.0142 33.5482 35.8381 34.8395 35.0501 36.3694C34.9887 36.5082 34.9442 36.654 34.9178 36.8037C34.7901 38.3033 35.3369 39.7813 36.4068 40.8294Z" fill="#B7805C"/>
</g>
<g style="mix-blend-mode:screen">
<path fill-rule="evenodd" clip-rule="evenodd" d="M16.3376 2.56006C16.2158 2.46671 16.1688 2.30397 16.2217 2.15916C16.4368 1.70815 17.7108 1.20702 19.0013 0.806122C16.7346 1.21738 14.5425 1.97202 12.4991 3.04449C13.9551 3.04449 15.4276 2.86074 16.9166 2.7104C16.7149 2.70439 16.5171 2.65303 16.3376 2.56006ZM15.1463 3.8797L12.7307 4.11355L10.4806 4.2806C9.64407 4.85943 8.84802 5.49569 8.09805 6.18488C10.3317 6.18488 12.466 6.18488 14.5838 6.03454L13.1112 5.8675C10.7784 5.58352 13.2932 4.39753 14.137 4.19708L15.1463 3.92981V3.8797ZM13.4918 7.33747C11.3078 7.52121 9.09077 7.60473 6.7248 7.58803C6.27808 8.08915 5.84791 8.62369 5.43428 9.15822C7.98224 8.82414 10.5137 8.54017 12.9623 8.45665H13.6572C13.3263 8.45665 13.012 8.45665 12.6811 8.32301C12.0027 8.18938 12.4494 7.65485 12.9293 7.52121L13.4918 7.37087V7.33747ZM9.1404 9.8765C7.05571 10.6115 4.98756 11.3799 3.69703 11.8643C3.43231 12.3654 3.16759 12.8833 2.93596 13.4011C4.37539 13.1004 5.86445 12.7997 7.43625 12.5492H7.96569C7.13843 12.3153 6.31117 11.9144 7.0888 11.263C8.84329 10.2526 10.8267 9.71747 12.8465 9.70946C11.6718 9.70946 10.4144 9.82639 9.1404 9.96003V9.8765ZM7.18807 14.1695C5.53355 14.4368 3.87903 14.7374 2.22451 15.0548C1.61277 16.7571 1.18561 18.5214 0.950533 20.3166C2.85323 19.8322 4.83865 19.1975 6.97298 18.4291C7.25425 18.3288 7.53552 18.2119 7.81679 18.1284C6.16227 18.4458 4.17685 18.7297 3.71358 18.262C2.85323 17.36 3.87903 15.3221 4.97101 14.9212C5.68246 14.6372 6.42699 14.42 7.15498 14.2029L7.18807 14.1695ZM6.02991 20.2999C4.20994 20.918 2.48924 21.4024 0.834717 21.7866C0.834717 22.6886 0.834717 23.6241 0.834717 24.5595C0.842701 24.654 0.842701 24.749 0.834717 24.8435C2.39223 25.3267 4.036 25.4579 5.64937 25.2277L7.30389 24.6764C5.33501 24.8936 2.20797 25.094 1.87706 23.9414C1.54616 22.7889 3.81285 21.4024 6.02991 20.2999ZM6.17881 26.3134C4.52429 26.848 2.86978 27.3658 1.09944 27.8669C1.37641 29.6404 1.8481 31.3772 2.50578 33.0452C4.04567 32.0253 5.66722 31.1368 7.35352 30.3893C6.57457 30.6468 5.75718 30.7655 4.93792 30.7401C4.31098 30.6364 3.78857 30.1986 3.57229 29.5955C3.35601 28.9924 3.47968 28.3184 3.89558 27.8335C4.53226 27.1581 5.31314 26.6382 6.17881 26.3134ZM6.9068 32.3103C5.57455 32.9423 4.36004 33.8012 3.3165 34.8493C4.1519 36.5575 5.19091 38.1562 6.41045 39.61C7.0888 39.9441 7.86642 40.2949 8.69368 40.6624L12.7969 42.4497C11.2131 41.6235 9.70197 40.6623 8.28005 39.5766C6.98953 38.3405 5.23574 35.3838 6.19536 33.5464C6.56225 32.9387 7.03277 32.4015 7.58515 31.9595L6.92335 32.3103H6.9068Z" fill="url(#paint4_radial_226_5170)"/>
</g>
<g style="mix-blend-mode:screen">
<path fill-rule="evenodd" clip-rule="evenodd" d="M2.85327 35.2168C7.81683 44.5711 14.1702 47.6113 25.0569 48.6804C15.3439 50.5323 5.79733 44.7436 2.85327 35.2168H2.85327Z" fill="url(#paint5_radial_226_5170)"/>
</g>
<g style="mix-blend-mode:screen" opacity="0.65">
<path fill-rule="evenodd" clip-rule="evenodd" d="M5.15309 10.3776C9.67236 4.14764 17.0476 0.702233 24.6764 1.25712C26.424 1.31654 28.1627 1.53457 29.8716 1.90859C30.6658 2.32619 31.6254 2.84402 31.8901 2.92754C33.1125 3.12419 34.3183 3.41457 35.497 3.79616C39.7716 5.73694 43.3731 8.92505 45.8377 12.9501C45.8377 13.067 45.9866 13.2842 45.8377 13.4011C45.6888 13.518 45.6061 13.5514 45.4572 13.5848C45.2535 13.6028 45.0487 13.6028 44.845 13.5848C43.906 13.4682 42.9617 13.4013 42.0158 13.3844C40.5411 13.4136 39.0728 13.587 37.6313 13.9022C33.0647 15.2249 28.5927 16.8601 24.2462 18.7965C28.9461 16.926 33.8097 15.5054 38.7729 14.5537C41.3011 14.1607 43.8605 14.0097 46.4168 14.1027C47.5546 16.2868 48.3473 18.637 48.7662 21.0683H48.8986C47.3764 9.65934 37.9126 0.906336 24.5937 0.371802C16.5751 -0.214038 8.86848 3.61882 4.44165 10.3943H5.07037L5.15309 10.3776Z" fill="#CA9E67"/>
</g>
<g style="mix-blend-mode:screen" opacity="0.5">
<path fill-rule="evenodd" clip-rule="evenodd" d="M28.2998 21.3857C23.1542 23.6074 17.9259 25.7622 12.8135 28.0674L14.7824 27.3157C18.0914 26.0295 21.4004 24.6764 24.7095 23.3568C28.0185 22.0372 31.2117 20.5839 34.6366 19.4146C32.4567 19.7719 30.3357 20.4295 28.3329 21.369L28.2998 21.3857Z" fill="#CA9E67"/>
</g>
<g style="mix-blend-mode:screen" opacity="0.5">
<path fill-rule="evenodd" clip-rule="evenodd" d="M23.6008 28.3346C27.8025 26.4321 32.1182 24.7974 36.5226 23.4403C37.5815 23.1396 38.5246 22.8891 39.418 22.7053C34.9518 23.3931 30.5991 24.6912 26.4797 26.564C24.0759 27.5319 21.7331 28.6476 19.4645 29.9048C17.5961 30.702 16.0829 32.1643 15.2124 34.0141C15.433 33.5832 15.7176 33.1889 16.0562 32.8448C18.2961 30.9545 20.8208 29.4376 23.5346 28.3513L23.6008 28.3346Z" fill="#CA9E67"/>
</g>
<g style="mix-blend-mode:screen" opacity="0.5">
<path fill-rule="evenodd" clip-rule="evenodd" d="M18.3727 14.9212C16.1177 15.36 13.9037 15.9915 11.7546 16.8088C13.388 16.337 15.0448 15.9522 16.7182 15.6562C24.1139 14.3365 29.9543 12.1817 37.1515 11.2296C33.7851 11.3535 30.4486 11.915 27.2244 12.9C25.9835 13.2508 24.7922 13.7352 23.5514 14.0359C21.8141 14.4535 20.0603 14.6539 18.3231 15.0047L18.3727 14.9212Z" fill="#CA9E67"/>
</g>
<g style="mix-blend-mode:screen" opacity="0.65">
<path fill-rule="evenodd" clip-rule="evenodd" d="M42.3963 35.2335C38.5711 41.2655 31.9585 44.9061 24.8643 44.8858C17.7701 44.8655 11.178 41.1871 7.38672 35.1333C10.8116 41.531 16.5362 45.3395 25.0404 45.5233C32.2888 45.7227 39.0194 41.7453 42.3963 35.2669V35.2335Z" fill="#CA9E67"/>
</g>
<g style="mix-blend-mode:screen" opacity="0.65">
<path fill-rule="evenodd" clip-rule="evenodd" d="M11.5892 11.881L13.9882 11.4968C13.194 11.4133 12.8962 11.3298 13.2933 10.8119C13.6326 10.3573 14.0273 9.94761 14.468 9.59252C15.0608 9.09947 15.6978 8.66328 16.3707 8.2896C17.6095 7.61766 18.9051 7.05863 20.2423 6.61918C20.7387 6.43543 21.235 6.28509 21.7148 6.15146C20.9758 6.29623 20.2478 6.47997 19.5309 6.7027C18.2665 7.12498 17.0516 7.68509 15.9075 8.37312C15.2533 8.76871 14.6235 9.20381 14.0213 9.67605C13.1475 10.3368 12.3335 11.0747 11.5892 11.881ZM8.8923 16.0403C9.83537 14.3699 10.1166 13.9523 11.3244 13.4679L10.1828 13.6684C9.46818 14.7156 8.86376 15.8353 8.37939 17.0092L8.8923 16.1239V16.0403Z" fill="#CA9E67"/>
</g>
<path opacity="0.75" fill-rule="evenodd" clip-rule="evenodd" d="M6.92323 24.2087C6.72406 17.5692 10.1187 11.3462 15.7831 7.96709C21.4474 4.58795 28.4841 4.58795 34.1485 7.96709C39.8128 11.3462 43.2075 17.5692 43.0083 24.2087C43.0666 29.0555 41.1853 33.7209 37.7905 37.1483C34.3957 40.5758 29.7746 42.4752 24.974 42.4163C20.1554 42.5317 15.5 40.651 12.0902 37.2116C8.68038 33.7722 6.81336 29.0737 6.92323 24.2087ZM45.5397 21.5527C44.3981 11.3632 35.4968 3.67924 24.974 3.32845C19.4686 3.26052 14.169 5.43857 10.2758 9.3692C6.38258 13.2998 4.22526 18.6504 4.29254 24.2087C4.29254 24.5762 4.29254 24.9604 4.29254 25.3279C4.71876 25.3192 5.14412 25.2857 5.56652 25.2277L4.30909 25.6119C4.93112 36.9588 14.4207 45.7239 25.6706 45.3422C36.9204 44.9606 45.8058 35.5723 45.6721 24.2087C45.6721 23.5405 45.6721 22.8891 45.6721 22.2376C45.0268 22.2376 44.4146 22.2376 43.7859 22.2376C44.3855 21.9762 44.9985 21.7476 45.6224 21.5527H45.5397Z" fill="url(#paint6_linear_226_5170)"/>
<g style="mix-blend-mode:multiply" opacity="0.5">
<path fill-rule="evenodd" clip-rule="evenodd" d="M4.29254 24.7766C4.45589 13.4051 13.7105 4.31568 24.974 4.46433C34.9322 4.58934 43.4427 11.7391 45.3742 21.6028H45.5397C44.3981 11.4133 35.4968 3.72935 24.974 3.37856C19.4686 3.31063 14.169 5.48868 10.2758 9.41931C6.38258 13.3499 4.22526 18.7005 4.29254 24.2588V24.8268V24.7766Z" fill="#683C11"/>
</g>
<g style="mix-blend-mode:multiply" opacity="0.5">
<path fill-rule="evenodd" clip-rule="evenodd" d="M43.025 24.7766C42.8348 34.6669 34.7713 42.5467 24.9742 42.4163C20.2528 42.5375 15.6815 40.7364 12.2895 37.4186C8.89736 34.1007 6.96954 29.5449 6.93996 24.7766C6.93996 24.9604 6.93996 25.1608 6.93996 25.3446C6.84857 30.1952 8.72144 34.8734 12.1255 38.2976C15.5296 41.7218 20.1702 43.5955 24.9742 43.4854C29.7661 43.5484 34.3811 41.6601 37.7776 38.2468C41.174 34.8334 43.0655 30.1828 43.025 25.3446C43.025 25.1608 43.025 24.9604 43.025 24.7766Z" fill="#683C11"/>
</g>
<g style="mix-blend-mode:screen" opacity="0.5">
<path fill-rule="evenodd" clip-rule="evenodd" d="M24.9741 5.83408C14.9809 5.91663 6.92296 14.1191 6.92329 24.2087C6.81342 29.0737 8.68044 33.7722 12.0902 37.2116C15.5 40.651 20.1555 42.5317 24.9741 42.4163C29.7776 42.4797 34.4029 40.5823 37.8013 37.1544C41.1997 33.7264 43.0833 29.0584 43.0249 24.2087C43.0253 14.1256 34.9774 5.92574 24.9906 5.83408H24.9741Z" fill="url(#paint7_linear_226_5170)"/>
</g>
<defs>
<linearGradient id="paint0_linear_226_5170" x1="49.9219" y1="50" x2="49.9219" y2="0.104542" gradientUnits="userSpaceOnUse">
<stop stop-color="#692705"/>
<stop offset="1" stop-color="#823B00"/>
</linearGradient>
<radialGradient id="paint1_radial_226_5170" cx="0" cy="0" r="1" gradientUnits="userSpaceOnUse" gradientTransform="translate(2.05343 -5.35232) scale(53.421 52.6023)">
<stop stop-color="#BD8A60"/>
<stop offset="1" stop-color="#A85021"/>
</radialGradient>
<radialGradient id="paint2_radial_226_5170" cx="0" cy="0" r="1" gradientUnits="userSpaceOnUse" gradientTransform="translate(13.4421 22.3211) scale(52.4648 13.2577)">
<stop stop-color="#CFA04D"/>
<stop offset="1" stop-color="white"/>
</radialGradient>
<radialGradient id="paint3_radial_226_5170" cx="0" cy="0" r="1" gradientUnits="userSpaceOnUse" gradientTransform="translate(21.665 49.2817) scale(64.6255 42.2774)">
<stop stop-color="#CFA04D"/>
<stop offset="1" stop-color="white"/>
</radialGradient>
<radialGradient id="paint4_radial_226_5170" cx="0" cy="0" r="1" gradientUnits="userSpaceOnUse" gradientTransform="translate(37.3665 31.4416) scale(44.7878 102.668)">
<stop offset="0.35"/>
<stop offset="1" stop-color="#CA9E67"/>
</radialGradient>
<radialGradient id="paint5_radial_226_5170" cx="0" cy="0" r="1" gradientUnits="userSpaceOnUse" gradientTransform="translate(9.80225 46.9431) scale(19.4406 12.0893)">
<stop stop-color="#B0670B"/>
<stop offset="1"/>
</radialGradient>
<linearGradient id="paint6_linear_226_5170" x1="45.4353" y1="44.8718" x2="45.4353" y2="3.31174" gradientUnits="userSpaceOnUse">
<stop stop-color="#823B00"/>
<stop offset="1" stop-color="#692705"/>
</linearGradient>
<linearGradient id="paint7_linear_226_5170" x1="43.0254" y1="42.4163" x2="43.0254" y2="5.83408" gradientUnits="userSpaceOnUse">
<stop stop-color="#FFB01C"/>
<stop offset="0.57"/>
</linearGradient>
</defs>
</svg>
