<svg width="79" height="80" viewBox="0 0 79 80" fill="none" xmlns="http://www.w3.org/2000/svg">
<path fill-rule="evenodd" clip-rule="evenodd" d="M67.0021 5.50964C75.3427 17.4215 80.2532 37.6387 73.6864 54.7077C73.6864 54.7077 75.8596 55.5065 75.8361 55.5535C75.8287 55.5684 75.5491 55.6815 75.1679 55.8357C74.3478 56.1675 73.0574 56.6896 72.9933 56.8339C72.7635 57.4083 73.0926 57.9827 73.4218 58.5571C73.7658 59.1574 74.1098 59.7578 73.8156 60.3582C72.8739 60.5161 71.9494 60.764 71.0549 61.0982C70.9802 61.2477 70.9533 61.1412 70.9247 61.0279C70.8948 60.9096 70.863 60.7838 70.773 60.9338C69.4038 63.3215 67.7811 65.5547 65.9331 67.5945C54.3972 80.3522 36.4119 82.0321 21.8569 72.9866C21.8569 72.9866 22.456 67.2421 21.7512 66.737C21.5045 66.5725 18.7674 70.6136 18.7674 70.6136C12.7958 66.0836 7.9946 60.1908 4.76449 53.4272C-7.05338 29.5918 11.0141 10.8312 15.3371 6.82535C15.2782 6.78252 15.2188 6.7397 15.1591 6.69674L15.159 6.69669C14.9567 6.5511 14.7523 6.40391 14.5618 6.24973C14.2459 6.01324 14.0468 5.65237 14.0153 5.25897C13.9839 4.86558 14.123 4.47765 14.3973 4.19394L17.5809 0.892921C18.0574 0.402153 18.8206 0.332321 19.3782 0.728462C23.7504 3.82845 27.9431 7.174 31.9362 10.749C32.4399 11.2254 32.5056 12.004 32.0889 12.5581L30.9846 14.0617C30.6059 14.5888 29.9079 14.7756 29.3165 14.5081L28.1418 13.9795C22.2315 19.7796 19.7121 28.2073 21.4693 36.2995C24.6176 50.8545 46.0565 62.6489 56.4765 44.5227C64.3354 30.8957 59.3546 19.5008 56.4765 14.7078C55.4001 15.3062 54.0618 15.1502 53.1519 14.3202C52.9687 14.0846 52.7785 13.8491 52.5959 13.6229L52.5958 13.6228L52.5952 13.6221C52.3682 13.3409 52.1529 13.0742 51.9772 12.84C51.5051 12.3204 51.5051 11.5271 51.9772 11.0074C55.8007 7.28112 59.8117 3.75232 63.9948 0.434776C65.0271 -0.144928 66.2869 -0.144928 67.3193 0.434776L67.9889 2.24387C68.2838 2.47456 68.4718 2.81557 68.5095 3.18807C68.5472 3.56058 68.4313 3.93234 68.1886 4.21743C67.8787 4.54411 67.5986 4.85288 67.3271 5.15225L67.3249 5.15461L67.3246 5.15504C67.2162 5.27456 67.1091 5.39258 67.0021 5.50964ZM11.4957 24.9398C11.6485 29.2981 15.6896 27.6887 16.3474 25.9853C17.0053 24.282 15.6308 22.3201 14.5148 22.3201C13.3988 22.3201 11.437 23.0367 11.4957 24.9398ZM15.6896 55.5652C14.4443 53.1335 15.3841 51.4419 15.9832 51.1012C19.1668 49.2686 22.1036 51.3244 21.7864 54.3905C21.4693 57.4566 16.9348 57.9969 15.6896 55.5652ZM25.6396 60.0175C25.9215 59.7238 26.0625 59.5358 26.0155 59.5241C25.9685 59.5123 25.8393 59.7003 25.6396 60.0175ZM39.3018 64.8692C41.7217 62.9073 43.8245 62.5197 46.1153 64.8692C48.3825 67.1716 47.1138 70.7428 42.4501 70.7428C37.7864 70.7428 37.6102 66.2436 39.3018 64.8692ZM64.3472 17.5977C63.9778 18.8964 64.6608 20.2623 65.9213 20.746C66.6852 20.9505 67.5007 20.782 68.1209 20.2914C68.7411 19.8008 69.0928 19.0459 69.0696 18.2556C68.8699 16.1528 65.2165 15.5419 64.3472 17.5977ZM69.6453 43.9471C70.7613 44.9221 71.4779 49.0572 67.8714 49.3156L67.8832 49.3274C64.2767 49.5976 62.8905 45.3568 64.3354 43.9471C65.857 42.6211 68.1237 42.6211 69.6453 43.9471Z" fill="#7E1F00"/>
<path fill-rule="evenodd" clip-rule="evenodd" d="M72.4411 54.7781L75.8361 55.5535C81.9918 37.9911 76.5762 16.9868 67.8127 5.56837L56.5939 13.7915C63.8409 23.1285 64.5428 35.9791 58.356 46.0498C47.9361 64.1761 26.4971 52.3817 23.3488 37.8267C21.5144 29.2709 24.4486 20.3919 31.0199 14.6139L18.0978 7.56543C18.0978 7.56543 -6.73619 28.0176 6.62058 54.9661C9.53542 60.9513 13.6594 66.2672 18.7321 70.5784C21.8922 67.6298 26.4384 63.295 27.7659 61.8618C27.9656 61.5329 28.0948 61.3567 28.1418 61.3684C28.1888 61.3802 28.0361 61.5564 27.7659 61.8618C26.7438 63.483 23.9362 68.8633 21.8217 72.9513C36.6704 83.2303 55.7716 82.4197 67.7892 69.1334C69.6874 67.0304 71.3497 64.7259 72.7466 62.2612L64.8288 55.3655L73.8156 60.3229C74.2972 59.3361 74.7554 58.3494 75.1548 57.3391L72.4411 54.7781ZM13.6455 26.7724C13.575 24.8693 15.5486 24.1527 16.6646 24.1527C17.8393 24.1527 19.155 26.1263 18.4972 27.8297C17.8393 29.533 13.7982 31.1307 13.6455 26.7724ZM18.1213 52.9338C17.5339 53.2745 16.5941 54.9661 17.8393 57.3978C19.0845 59.8295 23.6073 59.3009 23.9362 56.2231C24.2651 53.1453 21.3635 51.1012 18.133 52.9338H18.1213ZM41.4398 66.7017C43.8715 64.7399 45.9743 64.3523 48.265 66.7017H48.2768C50.5675 69.0042 49.2401 72.5754 44.5881 72.5754C39.9361 72.5754 39.7482 68.0762 41.4398 66.7017ZM66.497 19.4303C66.1216 20.7295 66.8065 22.0993 68.0711 22.5786C68.8338 22.784 69.6487 22.6154 70.2673 22.1242C70.8859 21.633 71.2348 20.8775 71.2077 20.0881C71.0315 17.9854 67.3663 17.3745 66.5087 19.4303H66.497ZM66.5675 45.7914C68.0891 44.4654 70.3557 44.4654 71.8773 45.7914C72.9345 46.7782 73.6864 50.9133 70.0917 51.1717C66.497 51.4301 65.1108 47.1893 66.5675 45.7914Z" fill="url(#paint0_linear_0_19085)"/>
<g style="mix-blend-mode:multiply" opacity="0.5">
<path fill-rule="evenodd" clip-rule="evenodd" d="M60.0007 42.925C61.892 39.5535 65.2752 34.6314 68.7995 34.1145C74.309 33.3274 78.679 37.2393 75.8714 55.53C81.9565 38.1556 76.7524 17.4332 68.1416 5.96779C68.7172 5.41566 69.2576 4.81655 69.7392 4.24092C69.9788 3.95451 70.0926 3.58357 70.055 3.21209C70.0175 2.8406 69.8316 2.49999 69.5395 2.26736L67.2605 0.458267C66.759 0.0578079 66.047 0.0578079 65.5454 0.458267C61.3624 3.77581 57.3513 7.30462 53.5279 11.0309C53.0502 11.5484 53.0502 12.346 53.5279 12.8635C53.7418 13.1598 54.025 13.508 54.3208 13.8717C54.4472 14.0271 54.576 14.1854 54.7026 14.3437C55.1323 14.8991 55.9094 15.0454 56.5117 14.6843L57.0051 14.3672C63.1395 22.6268 64.2876 33.5722 60.0007 42.925ZM68.0829 22.5786C66.8182 22.0993 66.1333 20.7295 66.5087 19.4303C67.3663 17.3745 71.0315 17.9854 71.2194 20.0881C71.2466 20.8775 70.8977 21.633 70.2791 22.1242C69.6605 22.6154 68.8456 22.784 68.0829 22.5786Z" fill="url(#paint1_linear_0_19085)"/>
</g>
<g style="mix-blend-mode:multiply" opacity="0.5">
<path fill-rule="evenodd" clip-rule="evenodd" d="M16.7468 7.54195L17.4869 8.08232C13.6807 11.6065 -5.40874 30.6373 6.7263 54.9896C7.3959 56.3523 8.12424 57.6445 8.88782 58.9015C8.72335 58.4081 4.99943 46.696 8.88782 38.8605C12.0714 32.5874 23.6543 42.8898 28.5177 47.5888C26.0239 44.8383 24.2696 41.4994 23.4193 37.8854C21.6369 29.6821 24.2592 21.1429 30.3385 15.354L31.5133 15.9061C32.105 16.1688 32.7999 15.9828 33.1814 15.4597L34.2857 13.956C34.7407 13.3837 34.6629 12.5542 34.1094 12.0764C30.1279 8.48657 25.9428 5.12909 21.575 2.02068C21.0231 1.61102 20.2525 1.6765 19.7776 2.17339L16.5941 5.47441C16.318 5.75859 16.1767 6.14734 16.2059 6.54249C16.2351 6.93764 16.4319 7.30142 16.7468 7.54195ZM16.6763 24.1058C17.7923 24.1058 19.1668 26.0676 18.5089 27.7827V27.8297C17.8393 29.533 13.81 31.1307 13.6573 26.7254C13.5868 24.8223 15.5603 24.1058 16.6763 24.1058Z" fill="url(#paint2_linear_0_19085)"/>
</g>
<path d="M16.5941 5.52139L19.7776 2.22038C20.2525 1.72348 21.0231 1.65801 21.575 2.06766C25.9428 5.17607 30.1279 8.53355 34.1094 12.1234C34.6343 12.5963 34.7108 13.3918 34.2857 13.956L33.1814 15.4597C32.7999 15.9828 32.1051 16.1687 31.5133 15.9061C26.3349 13.6397 21.396 10.8613 16.7703 7.61242C16.4443 7.37565 16.2375 7.00874 16.2036 6.60724C16.1698 6.20574 16.3123 5.80939 16.5941 5.52139Z" fill="url(#paint3_linear_0_19085)"/>
<path d="M56.5117 14.6843C59.1784 13.0397 66.1211 8.56396 69.704 4.26442C69.9435 3.978 70.0574 3.60706 70.0198 3.23558C69.9822 2.86409 69.7964 2.52348 69.5043 2.29086L67.1783 0.481762C66.6767 0.0813022 65.9648 0.0813022 65.4632 0.481762C61.2801 3.79931 57.2691 7.32811 53.4456 11.0544C52.968 11.5719 52.968 12.3695 53.4456 12.887C53.8098 13.3099 54.2562 13.8385 54.6204 14.3672C55.0642 14.9623 55.898 15.1021 56.5117 14.6843V14.6843Z" fill="url(#paint4_linear_0_19085)"/>
<g style="mix-blend-mode:screen" opacity="0.74">
<path d="M20.5882 68.8633L18.7674 70.5784C15.0996 67.4875 11.9298 63.8502 9.36946 59.7943C12.7335 63.2544 16.4999 66.2991 20.5882 68.8633Z" fill="url(#paint5_linear_0_19085)"/>
</g>
<g style="mix-blend-mode:screen" opacity="0.74">
<path d="M67.8244 69.1687C55.8068 82.455 36.7056 83.2655 21.8569 72.9866L23.1844 70.4374C30.2328 74.4198 39.4897 77.4858 49.381 75.4653C58.3809 73.6426 66.5515 68.962 72.6761 62.1203L72.7818 62.2142C71.39 64.7076 69.7275 67.0398 67.8244 69.1687Z" fill="url(#paint6_linear_0_19085)"/>
</g>
<g style="mix-blend-mode:multiply" opacity="0.3">
<path d="M27.4252 69.3332C27.4252 69.3332 33.2989 62.6372 37.7159 60.9338C37.7159 60.9455 31.5603 67.6298 27.4252 69.3332Z" fill="url(#paint7_linear_0_19085)"/>
</g>
<g style="mix-blend-mode:multiply" opacity="0.3">
<path d="M30.2446 71.0718C30.2446 71.0718 34.4384 65.3273 36.0125 64.6694C36.0125 64.6694 32.2064 69.8735 30.2446 71.0718Z" fill="url(#paint8_linear_0_19085)"/>
</g>
<g style="mix-blend-mode:multiply" opacity="0.3">
<path d="M61.0579 53.7444C61.0579 53.7444 58.309 51.7591 58.1798 50.7723C58.1798 50.7723 60.6703 52.1937 61.0579 53.7444Z" fill="url(#paint9_linear_0_19085)"/>
</g>
<g style="mix-blend-mode:multiply" opacity="0.3">
<path d="M68.0124 37.6622C68.0124 37.6622 70.679 30.4023 73.8861 28.6167C72.0985 31.7391 70.1375 34.759 68.0124 37.6622V37.6622Z" fill="url(#paint10_linear_0_19085)"/>
</g>
<g style="mix-blend-mode:multiply" opacity="0.3">
<path d="M8.7351 33.5976C6.16243 32.9515 13.3283 40.8693 13.3283 40.8693C13.3283 40.8693 9.79237 33.8561 8.7351 33.5976Z" fill="url(#paint11_linear_0_19085)"/>
</g>
<g style="mix-blend-mode:multiply" opacity="0.3">
<path d="M11.8834 21.7915C12.7989 20.2584 14.1147 19.0035 15.6895 18.1616C15.6895 18.1616 13.3988 21.0749 11.8834 21.7915Z" fill="url(#paint12_linear_0_19085)"/>
</g>
<g style="mix-blend-mode:multiply" opacity="0.3">
<path d="M14.9847 22.3201C16.5403 22.0608 18.1281 22.0608 19.6837 22.3201C18.1389 22.6877 16.5295 22.6877 14.9847 22.3201Z" fill="url(#paint13_linear_0_19085)"/>
</g>
<defs>
<linearGradient id="paint0_linear_0_19085" x1="188.56" y1="32.5458" x2="78.7995" y2="267.464" gradientUnits="userSpaceOnUse">
<stop stop-color="#F56B45"/>
<stop offset="0.45" stop-color="#FA9B3E"/>
<stop offset="1" stop-color="#FFD336"/>
</linearGradient>
<linearGradient id="paint1_linear_0_19085" x1="67.2053" y1="117.194" x2="7.23512" y2="83.8566" gradientUnits="userSpaceOnUse">
<stop stop-color="#722A12" stop-opacity="0.01"/>
<stop offset="1" stop-color="#722A12"/>
</linearGradient>
<linearGradient id="paint2_linear_0_19085" x1="20.375" y1="122.545" x2="-47.2755" y2="76.7648" gradientUnits="userSpaceOnUse">
<stop stop-color="#722A12" stop-opacity="0.01"/>
<stop offset="1" stop-color="#722A12"/>
</linearGradient>
<linearGradient id="paint3_linear_0_19085" x1="61.2268" y1="6.95747" x2="43.4607" y2="55.1295" gradientUnits="userSpaceOnUse">
<stop stop-color="#F56B45"/>
<stop offset="0.45" stop-color="#FA9B3E"/>
<stop offset="1" stop-color="#FFD336"/>
</linearGradient>
<linearGradient id="paint4_linear_0_19085" x1="94.6285" y1="5.52762" x2="74.572" y2="53.9352" gradientUnits="userSpaceOnUse">
<stop stop-color="#F56B45"/>
<stop offset="0.45" stop-color="#FA9B3E"/>
<stop offset="1" stop-color="#FFD336"/>
</linearGradient>
<linearGradient id="paint5_linear_0_19085" x1="97.2311" y1="59.2892" x2="97.2311" y2="217.409" gradientUnits="userSpaceOnUse">
<stop/>
<stop offset="0.01" stop-color="#020103"/>
<stop offset="0.05" stop-color="#1E1730"/>
<stop offset="0.09" stop-color="#382B59"/>
<stop offset="0.14" stop-color="#4F3D7F"/>
<stop offset="0.19" stop-color="#644D9F"/>
<stop offset="0.25" stop-color="#755ABB"/>
<stop offset="0.32" stop-color="#8365D1"/>
<stop offset="0.4" stop-color="#8D6DE2"/>
<stop offset="0.49" stop-color="#9573ED"/>
<stop offset="0.63" stop-color="#9976F4"/>
<stop offset="1" stop-color="#9A77F6"/>
</linearGradient>
<linearGradient id="paint6_linear_0_19085" x1="127.292" y1="64.6107" x2="127.292" y2="120.763" gradientUnits="userSpaceOnUse">
<stop/>
<stop offset="0.01" stop-color="#020203"/>
<stop offset="0.13" stop-color="#251D3C"/>
<stop offset="0.24" stop-color="#44356D"/>
<stop offset="0.36" stop-color="#5F4997"/>
<stop offset="0.49" stop-color="#745ABA"/>
<stop offset="0.61" stop-color="#8567D4"/>
<stop offset="0.73" stop-color="#9170E7"/>
<stop offset="0.86" stop-color="#9875F2"/>
<stop offset="1" stop-color="#9A77F6"/>
</linearGradient>
<linearGradient id="paint7_linear_0_19085" x1="37.7087" y1="57.8912" x2="37.7087" y2="66.2788" gradientUnits="userSpaceOnUse">
<stop stop-color="white"/>
<stop offset="0.09" stop-color="#F9FAFD"/>
<stop offset="0.22" stop-color="#E7EBF7"/>
<stop offset="0.36" stop-color="#CAD3EE"/>
<stop offset="0.52" stop-color="#A1B2E1"/>
<stop offset="0.7" stop-color="#6D87D1"/>
<stop offset="0.88" stop-color="#2F54BD"/>
<stop offset="1" stop-color="#002EAE"/>
</linearGradient>
<linearGradient id="paint8_linear_0_19085" x1="36.0184" y1="62.3552" x2="36.0184" y2="68.7575" gradientUnits="userSpaceOnUse">
<stop stop-color="white"/>
<stop offset="0.09" stop-color="#F9FAFD"/>
<stop offset="0.22" stop-color="#E7EBF7"/>
<stop offset="0.36" stop-color="#CAD3EE"/>
<stop offset="0.52" stop-color="#A1B2E1"/>
<stop offset="0.7" stop-color="#6D87D1"/>
<stop offset="0.88" stop-color="#2F54BD"/>
<stop offset="1" stop-color="#002EAE"/>
</linearGradient>
<linearGradient id="paint9_linear_0_19085" x1="61.0638" y1="49.6915" x2="61.0638" y2="52.6636" gradientUnits="userSpaceOnUse">
<stop stop-color="white"/>
<stop offset="0.09" stop-color="#F9FAFD"/>
<stop offset="0.22" stop-color="#E7EBF7"/>
<stop offset="0.36" stop-color="#CAD3EE"/>
<stop offset="0.52" stop-color="#A1B2E1"/>
<stop offset="0.7" stop-color="#6D87D1"/>
<stop offset="0.88" stop-color="#2F54BD"/>
<stop offset="1" stop-color="#002EAE"/>
</linearGradient>
<linearGradient id="paint10_linear_0_19085" x1="73.8978" y1="25.3275" x2="73.8978" y2="34.3729" gradientUnits="userSpaceOnUse">
<stop stop-color="white"/>
<stop offset="0.09" stop-color="#F9FAFD"/>
<stop offset="0.22" stop-color="#E7EBF7"/>
<stop offset="0.36" stop-color="#CAD3EE"/>
<stop offset="0.52" stop-color="#A1B2E1"/>
<stop offset="0.7" stop-color="#6D87D1"/>
<stop offset="0.88" stop-color="#2F54BD"/>
<stop offset="1" stop-color="#002EAE"/>
</linearGradient>
<linearGradient id="paint11_linear_0_19085" x1="13.3302" y1="30.9075" x2="13.3302" y2="38.2143" gradientUnits="userSpaceOnUse">
<stop stop-color="white"/>
<stop offset="0.09" stop-color="#F9FAFD"/>
<stop offset="0.22" stop-color="#E7EBF7"/>
<stop offset="0.36" stop-color="#CAD3EE"/>
<stop offset="0.52" stop-color="#A1B2E1"/>
<stop offset="0.7" stop-color="#6D87D1"/>
<stop offset="0.88" stop-color="#2F54BD"/>
<stop offset="1" stop-color="#002EAE"/>
</linearGradient>
<linearGradient id="paint12_linear_0_19085" x1="15.6895" y1="16.8459" x2="15.6895" y2="20.4758" gradientUnits="userSpaceOnUse">
<stop stop-color="white"/>
<stop offset="0.09" stop-color="#F9FAFD"/>
<stop offset="0.22" stop-color="#E7EBF7"/>
<stop offset="0.36" stop-color="#CAD3EE"/>
<stop offset="0.52" stop-color="#A1B2E1"/>
<stop offset="0.7" stop-color="#6D87D1"/>
<stop offset="0.88" stop-color="#2F54BD"/>
<stop offset="1" stop-color="#002EAE"/>
</linearGradient>
<linearGradient id="paint13_linear_0_19085" x1="18.2857" y1="21.9325" x2="18.2857" y2="22.4259" gradientUnits="userSpaceOnUse">
<stop stop-color="white"/>
<stop offset="0.09" stop-color="#F9FAFD"/>
<stop offset="0.22" stop-color="#E7EBF7"/>
<stop offset="0.36" stop-color="#CAD3EE"/>
<stop offset="0.52" stop-color="#A1B2E1"/>
<stop offset="0.7" stop-color="#6D87D1"/>
<stop offset="0.88" stop-color="#2F54BD"/>
<stop offset="1" stop-color="#002EAE"/>
</linearGradient>
</defs>
</svg>
