<svg width="283" height="80" viewBox="0 0 283 80" fill="none" xmlns="http://www.w3.org/2000/svg">
<path d="M22.5333 39.3667C22.4222 39.3889 22.3278 39.3556 22.25 39.2667C22.1722 39.1778 22.1556 39.0778 22.2 38.9667L22.9 36.1L21.7667 35.8333C21.5889 35.7889 21.5 35.6778 21.5 35.5L21.4667 32.5333C21.4667 32.3778 21.5333 32.2778 21.6667 32.2333L21.7333 32.2C21.6889 32.1111 21.6444 32.0444 21.6 32C21.5556 31.9778 21.5222 31.9389 21.5 31.8833C21.4778 31.8278 21.4667 31.7778 21.4667 31.7333L21.4333 28.9333C21.4333 28.7111 21.5444 28.6 21.7667 28.6L27.8 28.4667C27.9778 28.4667 28.0889 28.5556 28.1333 28.7333C28.1778 28.8444 28.2111 28.9111 28.2333 28.9333C28.2778 28.9556 28.3444 28.9667 28.4333 28.9667C28.5667 28.9667 28.7056 28.9222 28.85 28.8333C28.9944 28.7444 29.1222 28.6444 29.2333 28.5333C29.3 28.4667 29.3778 28.4333 29.4667 28.4333L30.1667 28.4C30.3889 28.4 30.5 28.5111 30.5 28.7333L30.6 35.1667C30.6 35.3444 30.5 35.4556 30.3 35.5L28.8667 35.7C28.8 35.7222 28.7389 35.7056 28.6833 35.65C28.6278 35.5944 28.5778 35.5444 28.5333 35.5C28.4889 35.4111 28.4389 35.3278 28.3833 35.25C28.3278 35.1722 28.2778 35.0778 28.2333 34.9667H28.1667C28.1889 35.0556 28.2056 35.1333 28.2167 35.2C28.2278 35.2667 28.2444 35.3444 28.2667 35.4333C28.3111 35.6556 28.2111 35.7889 27.9667 35.8333L27.4 35.9L26.0667 42.0333C25.6889 42.7222 25.4167 43.4333 25.25 44.1667C25.0833 44.9 25 45.6333 25 46.3667V46.6667L22.8667 56.3333C22.8222 56.5556 22.6889 56.6444 22.4667 56.6L17.9 55.6333C17.7667 55.5889 17.6778 55.5111 17.6333 55.4L15.3667 47.8667L14.3667 51.3333C14.3222 51.4444 14.25 51.5222 14.15 51.5667C14.05 51.6111 13.9444 51.5889 13.8333 51.5C13.7889 51.4778 13.7611 51.4611 13.75 51.45C13.7389 51.4389 13.7111 51.4222 13.6667 51.4C13.7111 51.5778 13.7611 51.7667 13.8167 51.9667C13.8722 52.1667 13.9444 52.3556 14.0333 52.5333L13.0333 56.1C12.9889 56.2556 12.8667 56.3333 12.6667 56.3333L8.66667 55.9667C8.51111 55.9444 8.40556 55.8778 8.35 55.7667C8.29445 55.6556 8.32222 55.5444 8.43333 55.4333C8.7 55.1444 8.83333 54.7556 8.83333 54.2667C8.83333 53.8222 8.70555 53.3889 8.45 52.9667C8.19444 52.5444 7.87778 52.2111 7.5 51.9667C7.38889 51.9222 7.33333 51.8444 7.33333 51.7333L6.13333 45.7C6.13333 45.5444 6.13889 45.4444 6.15 45.4C6.16111 45.3556 6.17778 45.3 6.2 45.2333C6.22222 45.1889 6.23889 45.1167 6.25 45.0167C6.26111 44.9167 6.27778 44.8333 6.3 44.7667C6.36667 44.7 6.42778 44.6389 6.48333 44.5833C6.53889 44.5278 6.6 44.4556 6.66667 44.3667C6.55556 44.3444 6.41111 44.3111 6.23333 44.2667H6.26667C6.24444 44.2667 6.21111 44.2556 6.16667 44.2333C5.98889 44.2333 5.87778 44.1444 5.83333 43.9667L4.56667 37.3667L2.73333 36.8C2.57778 36.7556 2.5 36.6444 2.5 36.4667C2.47778 36.2889 2.46667 36.1222 2.46667 35.9667C2.46667 35.7889 2.45556 35.6111 2.43333 35.4333C2.36667 35.5889 2.3 35.7333 2.23333 35.8667C2.16667 36 2.1 36.1333 2.03333 36.2667C1.94444 36.4444 1.81111 36.5111 1.63333 36.4667L0.366667 36.0667C0.211111 36.0222 0.133333 35.9111 0.133333 35.7333L0 28.8333C0 28.6111 0.111111 28.5 0.333333 28.5L9.4 28.7333C9.62222 28.7333 9.73333 28.8556 9.73333 29.1L9.63333 30.7333C9.63333 30.7778 9.61667 30.8222 9.58333 30.8667C9.55 30.9111 9.52222 30.9444 9.5 30.9667C9.12222 31.2778 8.78889 31.5778 8.5 31.8667C8.58889 31.8667 8.68889 31.8556 8.8 31.8333C8.91111 31.8111 9.02222 31.7778 9.13333 31.7333C9.24444 31.6889 9.33889 31.7111 9.41667 31.8C9.49444 31.8889 9.53333 31.9889 9.53333 32.1L9.33333 36.0667C9.33333 36.1778 9.29444 36.2611 9.21667 36.3167C9.13889 36.3722 9.04444 36.3889 8.93333 36.3667L7.5 36.0667L9.6 44.4C9.55556 44.5111 9.51667 44.6111 9.48333 44.7C9.45 44.7889 9.41111 44.8778 9.36667 44.9667C9.47778 44.9222 9.57222 44.9222 9.65 44.9667C9.72778 45.0111 9.78889 45.0889 9.83333 45.2L10.8333 49.1L13.0667 40.3C13.1778 40.1889 13.2611 40.1278 13.3167 40.1167C13.3722 40.1056 13.4222 40.1 13.4667 40.1C13.6667 40.1667 13.8667 40.2 14.0667 40.2C14.4444 40.2 14.8056 40.0889 15.15 39.8667C15.4944 39.6444 15.7444 39.3444 15.9 38.9667C15.9889 38.7222 16.1333 38.6667 16.3333 38.8C16.6444 38.9556 16.8889 39.1333 17.0667 39.3333H17.0333C17.4111 39.7111 17.6889 40.1889 17.8667 40.7667L18.2667 42.6333C18.3111 42.7222 18.2778 42.8222 18.1667 42.9333C18.1444 42.9556 18.1333 42.9722 18.1333 42.9833C18.1333 42.9944 18.1222 43.0111 18.1 43.0333L18.1667 42.9667C18.0778 43.1 18 43.2333 17.9333 43.3667C17.8667 43.5 17.7889 43.6222 17.7 43.7333V43.7667C17.7667 43.7222 17.8889 43.6556 18.0667 43.5667C18.1778 43.5222 18.2778 43.5222 18.3667 43.5667C18.4556 43.6111 18.5111 43.6889 18.5333 43.8L19.6667 48.9L21.9667 39.9C22.0556 39.8111 22.1444 39.7278 22.2333 39.65C22.3222 39.5722 22.4222 39.4778 22.5333 39.3667Z" fill="#23130C"/>
<path d="M45.1667 28.6C45.2778 28.6 45.3778 28.6667 45.4667 28.8H45.5C45.5667 28.8444 45.6611 28.8833 45.7833 28.9167C45.9056 28.95 46 28.9889 46.0667 29.0333C46.1111 29.0778 46.1556 29.1 46.2 29.1C46.2222 29.0556 46.2556 28.9778 46.3 28.8667C46.3444 28.7333 46.4444 28.6667 46.6 28.6667L51.2 28.8C51.3778 28.8 51.4889 28.8889 51.5333 29.0667L51.6667 29.9C51.6667 29.9444 51.6611 30 51.65 30.0667C51.6389 30.1333 51.6222 30.1778 51.6 30.2C51.4 30.4444 51.3 30.6333 51.3 30.7667C51.3 30.8333 51.3444 30.9556 51.4333 31.1333L51.5667 31.2667C51.6556 31.3778 51.7278 31.4889 51.7833 31.6C51.8389 31.7111 51.8889 31.8333 51.9333 31.9667C51.9556 31.9889 51.9667 32.0111 51.9667 32.0333C51.9667 32.0556 51.9778 32.0778 52 32.1L52.6 35.6333C52.6222 35.7889 52.5667 35.9 52.4333 35.9667C52.4333 35.9889 52.4222 36.0111 52.4 36.0333L52.2 36.2333L52.4 36.4333C52.4667 36.5 52.5 36.5778 52.5 36.6667V38.7C52.5 38.9222 52.3889 39.0333 52.1667 39.0333L48.7333 39.1667C48.5111 39.1667 48.4 39.0556 48.4 38.8333L48.3667 35.9333L46.3 36.1C46.1889 36.1 46.1 36.0667 46.0333 36C45.7 35.7111 45.3556 35.5667 45 35.5667H44.9V35.9C44.9 36.1222 44.8 36.2333 44.6 36.2333L40.0667 36.6L39.4333 40.5L44.2333 40.2C44.4778 40.2 44.6 40.3222 44.6 40.5667C44.6222 40.5222 44.6389 40.4833 44.65 40.45C44.6611 40.4167 44.6778 40.3778 44.7 40.3333C44.7444 40.2 44.8333 40.1333 44.9667 40.1333L46.1 40.0667C46.1889 40.0667 46.2722 40.0944 46.35 40.15C46.4278 40.2056 46.4667 40.2778 46.4667 40.3667L46.7 43.9C46.7 43.9889 46.6722 44.0722 46.6167 44.15C46.5611 44.2278 46.4889 44.2667 46.4 44.2667L44 44.4333C43.8 44.4111 43.6333 44.3444 43.5 44.2333L43.4333 44.3333C43.3889 44.4222 43.3111 44.4667 43.2 44.4667L39 44.7333L39.1667 48.6667L45.7333 48.2667C45.8444 48.3333 45.9778 48.4056 46.1333 48.4833C46.2889 48.5611 46.4333 48.6444 46.5667 48.7333L46.6 48.6667C46.5556 48.5556 46.5611 48.4556 46.6167 48.3667C46.6722 48.2778 46.7667 48.2222 46.9 48.2L48.3 48.1333L48.4 45.7333C48.4 45.5111 48.5111 45.4 48.7333 45.4L52.1 45.3667C52.3222 45.3667 52.4333 45.4889 52.4333 45.7333L52.0667 52.2333C52 52.3222 51.9444 52.4111 51.9 52.5C51.8556 52.5889 51.8111 52.6778 51.7667 52.7667L51.8667 52.8333C51.9111 52.8556 51.9444 52.8944 51.9667 52.95C51.9889 53.0056 52 53.0556 52 53.1L51.9 55.3333C51.9 55.5556 51.7889 55.6667 51.5667 55.6667L46.0667 55.9333C45.9778 55.9333 45.9 55.9 45.8333 55.8333L45.7667 55.7667C45.7222 55.7222 45.6833 55.6889 45.65 55.6667C45.6167 55.6444 45.5778 55.6111 45.5333 55.5667L45.4333 55.7667C45.3889 55.9 45.2889 55.9667 45.1333 55.9667L36.8333 56.3C36.6556 56.3 36.5444 56.2222 36.5 56.0667C36.3667 55.6889 36.1222 55.5 35.7667 55.5C35.5444 55.5 35.3333 55.5611 35.1333 55.6833C34.9333 55.8056 34.8 55.9667 34.7333 56.1667C34.6889 56.3222 34.5889 56.4 34.4333 56.4L31.2333 56.5667C30.9444 56.5667 30.8222 56.4333 30.8667 56.1667L31.1333 54.4667C31.1556 54.3556 31.2222 54.2722 31.3333 54.2167C31.4444 54.1611 31.5444 54.1667 31.6333 54.2333C31.7444 54.1667 31.8 54.0556 31.8 53.9C31.8 53.8333 31.7833 53.7611 31.75 53.6833C31.7167 53.6056 31.6667 53.5556 31.6 53.5333C31.5333 53.5111 31.4722 53.4667 31.4167 53.4C31.3611 53.3333 31.3444 53.2556 31.3667 53.1667L32.2 48.3667C32.2444 48.1444 32.3667 48.0556 32.5667 48.1L33.4667 48.2333C33.5111 48.2333 33.5611 48.2556 33.6167 48.3C33.6722 48.3444 33.7111 48.3889 33.7333 48.4333C33.8222 48.6333 33.9667 48.7333 34.1667 48.7333C34.2778 48.7333 34.3667 48.6778 34.4333 48.5667C34.5 48.4778 34.6 48.4333 34.7333 48.4333L35.4667 48.5667L35.5 47.5667C35.5 47.4333 35.5667 47.3333 35.7 47.2667L35.8 47.1667C35.7778 47.1444 35.7556 47.1333 35.7333 47.1333C35.5778 47.0889 35.5 46.9889 35.5 46.8333L35.5667 44.4333L34.1333 44.0667C33.9556 44.0222 33.8667 43.9111 33.8667 43.7333L33.7667 40.5333C33.7667 40.3111 33.8778 40.2 34.1 40.2L35.4333 40.1667L35.4 38.6333C35.4 38.4778 35.4667 38.3778 35.6 38.3333C35.6222 38.3333 35.6389 38.3278 35.65 38.3167C35.6611 38.3056 35.6778 38.3 35.7 38.3C35.5 38.3 35.4 38.1778 35.4 37.9333L35.3667 35.9H34.8667C34.6444 35.9 34.5333 35.8 34.5333 35.6C34.4889 35.3778 34.3556 35.2667 34.1333 35.2667C33.9778 35.2667 33.8889 35.3222 33.8667 35.4333V35.4C33.8 35.6 33.7667 35.6889 33.7667 35.6667C33.7222 35.8 33.6222 35.8667 33.4667 35.8667L32.5 35.8333C32.2778 35.8333 32.1667 35.7222 32.1667 35.5V32.7333C32.3222 32.5111 32.4 32.2778 32.4 32.0333C32.4 31.7889 32.3222 31.5556 32.1667 31.3333L32.2 28.5333C32.2 28.3111 32.3111 28.2 32.5333 28.2L36.7333 28.3333C36.9111 28.4444 37.0778 28.5556 37.2333 28.6667C37.3889 28.7778 37.5222 28.9222 37.6333 29.1H37.8C37.9111 29.1 38.0167 29.0667 38.1167 29C38.2167 28.9333 38.3222 28.8556 38.4333 28.7667L38.5333 28.6667C38.5778 28.4889 38.7 28.4 38.9 28.4L45.1667 28.6Z" fill="#23130C"/>
<path fill-rule="evenodd" clip-rule="evenodd" d="M58.3 46.4C58.2333 46.2889 58.1222 46.2333 57.9667 46.2333L54.3333 46.4667C54.1333 46.4667 54.0333 46.5778 54.0333 46.8L54.1 48.9333C54.1 49.0889 54.1667 49.1889 54.3 49.2333C54.4333 49.3 54.5722 49.3667 54.7167 49.4333C54.8611 49.5 54.9889 49.5778 55.1 49.6667C54.9889 49.7556 54.8667 49.8389 54.7333 49.9167C54.6 49.9944 54.4667 50.0778 54.3333 50.1667C54.2222 50.2111 54.1667 50.3111 54.1667 50.4667L54.4 55.8C54.4 56.0222 54.5222 56.1333 54.7667 56.1333L55.8667 56.0667C56.0222 56.0667 56.1222 55.9889 56.1667 55.8333L56.2333 55.5C56.2555 55.3889 56.2889 55.2667 56.3333 55.1333L56.4667 55.4667L56.6 55.8C56.6444 55.9556 56.7555 56.0333 56.9333 56.0333L58.1667 55.9667C58.3667 55.9667 58.4667 55.8556 58.4667 55.6333L58.4333 54.8667C59.4555 55.6444 60.4222 56.0333 61.3333 56.0333H61.3667C62.1222 56.1889 62.8889 56.2667 63.6667 56.2667C63.9111 56.2667 64.1222 56.2611 64.3 56.25C64.4778 56.2389 64.6555 56.2222 64.8333 56.2C65.1222 56.1111 65.4278 56.0111 65.75 55.9C66.0722 55.7889 66.4444 55.6556 66.8667 55.5C67.0222 55.4556 67.1 55.3667 67.1 55.2333C67.1 55.1667 67.1055 55.1 67.1167 55.0333C67.1278 54.9667 67.1333 54.9 67.1333 54.8333C67.1555 54.8778 67.1722 54.9167 67.1833 54.95C67.1944 54.9833 67.2222 55.0222 67.2667 55.0667C67.3111 55.1333 67.3722 55.1778 67.45 55.2C67.5278 55.2222 67.6 55.2222 67.6667 55.2C67.7333 55.1778 67.8111 55.1556 67.9 55.1333C67.9889 55.1111 68.0555 55.0778 68.1 55.0333C68.1444 55.0111 68.1889 54.9944 68.2333 54.9833C68.2778 54.9722 68.3222 54.9444 68.3667 54.9C69.1667 54.5667 69.8444 54.1056 70.4 53.5167C70.9555 52.9278 71.4111 52.2222 71.7667 51.4L71.9333 51.1C71.8444 50.7444 71.8 50.4333 71.8 50.1667C71.8 49.3222 72.0667 48.5333 72.6 47.8C72.5555 47.1556 72.4889 46.6333 72.4 46.2333C72.3333 45.9667 72.2555 45.6889 72.1667 45.4C72.0778 45.1111 71.9778 44.8222 71.8667 44.5333C71.7778 44.2889 71.6111 44.2444 71.3667 44.4C71.2555 44.4667 71.15 44.5333 71.05 44.6C70.95 44.6667 70.8333 44.7222 70.7 44.7667L70.6667 44.7333C70.7778 44.5778 70.8889 44.4278 71 44.2833C71.1111 44.1389 71.2333 43.9889 71.3667 43.8333C71.4555 43.7 71.4667 43.5778 71.4 43.4667C71.2222 43.1111 71.0111 42.7889 70.7667 42.5C70.5222 42.2111 70.2444 41.9444 69.9333 41.7C69.4 41.2556 68.7389 40.8778 67.95 40.5667C67.1611 40.2556 66.2667 40 65.2667 39.8C65.0444 39.7556 64.9111 39.8556 64.8667 40.1L64.8333 40.3L64.7667 40.3667L64.6667 40.4667L64.5667 40.4333V40.2C64.5667 40.1556 64.5722 40.1111 64.5833 40.0667C64.5944 40.0222 64.6 39.9778 64.6 39.9333C64.6 39.7556 64.5111 39.6444 64.3333 39.6C63.3333 39.4222 62.5222 39.2278 61.9 39.0167C61.2778 38.8056 60.8333 38.6 60.5667 38.4C60.5222 38.3778 60.4944 38.3611 60.4833 38.35C60.4722 38.3389 60.4444 38.2833 60.4 38.1833C60.3555 38.0833 60.2444 38.0667 60.0667 38.1333C59.8 38.2444 59.5222 38.3111 59.2333 38.3333V38.2667L59.2667 38.2333C59.4 38.1222 59.5333 38.0222 59.6667 37.9333C59.8 37.8444 59.9555 37.7556 60.1333 37.6667C60.2444 37.6222 60.3 37.5444 60.3 37.4333L60.3667 37.1667C60.3889 37.0778 60.4333 36.9444 60.5 36.7667C60.6778 36.2333 61.2 35.8444 62.0667 35.6H62.0333C62.5444 35.4889 62.9889 35.4333 63.3667 35.4333H63.6333C63.7444 35.4333 63.8555 35.4389 63.9667 35.45C64.0778 35.4611 64.1889 35.4778 64.3 35.5C64.4555 35.5 64.5667 35.4444 64.6333 35.3333C64.6778 35.2889 64.7055 35.2389 64.7167 35.1833C64.7278 35.1278 64.7555 35.0778 64.8 35.0333C64.8444 35.0778 64.8722 35.1333 64.8833 35.2C64.8944 35.2667 64.9222 35.3222 64.9667 35.3667C65.0111 35.5 65.1111 35.5667 65.2667 35.5667C65.8444 35.5889 66.3222 35.7444 66.7 36.0333C67.2111 36.4111 67.6667 37.1333 68.0667 38.2C68.1555 38.4222 68.2889 38.5 68.4667 38.4333L69.8667 38C69.9778 37.9556 70.0555 37.8667 70.1 37.7333C70.1 37.6667 70.1222 37.5667 70.1667 37.4333C70.1889 37.4778 70.2055 37.5056 70.2167 37.5167C70.2278 37.5278 70.2444 37.5556 70.2667 37.6C70.3555 37.7556 70.4889 37.8111 70.6667 37.7667L71.4 37.5333C71.5555 37.4889 71.6333 37.3889 71.6333 37.2333L71.9667 32.3C71.9667 32.1889 71.9333 32.1 71.8667 32.0333C71.8444 31.9444 71.7778 31.9 71.6667 31.9C71.5111 31.7667 71.4333 31.6222 71.4333 31.4667C71.4333 31.1778 71.6 30.9222 71.9333 30.7C72.0222 30.6556 72.0667 30.5778 72.0667 30.4667L72.1667 29.2C72.1667 28.9556 72.0667 28.8333 71.8667 28.8333L68.5333 28.6333C68.2889 28.6333 68.1667 28.7444 68.1667 28.9667V29.6333C66.7444 28.7889 65.0889 28.3333 63.2 28.2667C63.0444 28.2667 62.9444 28.3444 62.9 28.5L62.7 29C62.6778 28.9556 62.6611 28.9278 62.65 28.9167C62.6389 28.9056 62.6222 28.8778 62.6 28.8333L62.6333 28.9C62.5889 28.8556 62.5611 28.8111 62.55 28.7667C62.5389 28.7222 62.5333 28.6778 62.5333 28.6333C62.5333 28.4111 62.4222 28.3 62.2 28.3H61.8333C61.7222 28.3 61.6111 28.3111 61.5 28.3333H61.5333C58.9111 28.6889 57.0333 29.6 55.9 31.0667C55.7889 31.1778 55.7667 31.3111 55.8333 31.4667L56.0667 31.9L55.7333 31.7667C55.6667 31.7444 55.5944 31.7444 55.5167 31.7667C55.4389 31.7889 55.3778 31.8333 55.3333 31.9C54.6889 33.0556 54.3667 34.4333 54.3667 36.0333V36.2667C54.3667 38.4444 55.1 40.0444 56.5667 41.0667C57.9889 42.0222 59.9111 42.6889 62.3333 43.0667C64.6444 43.4667 66.0778 44.1889 66.6333 45.2333V45.1667C66.7667 45.5667 66.8333 45.9667 66.8333 46.3667C66.8333 46.8111 66.7222 47.2222 66.5 47.6L66.5333 47.5667C66.0889 48.2333 65.4889 48.6556 64.7333 48.8333C64.0667 49.0111 63.4555 49.1 62.9 49.1C62.3222 49.0333 61.7778 48.9333 61.2667 48.8C61.0444 48.7556 60.9111 48.8333 60.8667 49.0333C60.8444 49.1222 60.8111 49.2778 60.7667 49.5V48.9C60.7667 48.7444 60.7 48.6444 60.5667 48.6C60.3889 48.5111 60.2222 48.4111 60.0667 48.3C59.9111 48.1889 59.7444 48.0778 59.5667 47.9667C59.1 47.5889 58.6778 47.0667 58.3 46.4ZM71.7093 31.942C71.6922 31.9362 71.678 31.9333 71.6667 31.9333C71.6444 31.9333 71.6222 31.9222 71.6 31.9H71.6667C71.6889 31.9222 71.7111 31.9333 71.7333 31.9333H71.7C71.7031 31.9364 71.7062 31.9393 71.7093 31.942ZM71.7333 31.9512C71.7248 31.9476 71.7168 31.9445 71.7093 31.942C71.7179 31.9494 71.7265 31.9552 71.7352 31.9592C71.7376 31.9642 71.7426 31.9667 71.75 31.9667C71.7611 31.9667 71.7667 31.9778 71.7667 32C71.7889 32.0222 71.8055 32.05 71.8167 32.0833C71.8278 32.1167 71.8444 32.1444 71.8667 32.1667V32.0333C71.8444 32.0111 71.8111 32 71.7667 32V31.9667C71.7548 31.9607 71.7437 31.9556 71.7334 31.9512C71.7334 31.9512 71.7334 31.9512 71.7333 31.9512ZM71.7667 31.9667C71.7575 31.9667 71.7482 31.9648 71.739 31.961C71.7444 31.9648 71.7536 31.9667 71.7667 31.9667Z" fill="#23130C"/>
<path d="M90.5 28C90.7222 28 90.8333 28.1 90.8333 28.3L90.9333 29.6667C90.8222 29.8444 90.7111 30.0278 90.6 30.2167C90.4889 30.4056 90.4333 30.5889 90.4333 30.7667H90.6C90.8444 30.6778 90.9889 30.7667 91.0333 31.0333L91.6333 38.5C91.6333 38.7444 91.5222 38.8667 91.3 38.8667H90.7667C90.6111 38.8667 90.5111 38.7889 90.4667 38.6333C90.3111 38.3 90.1111 38.0556 89.8667 37.9C89.8667 37.9889 89.8778 38.0778 89.9 38.1667C89.9222 38.2556 89.9444 38.3444 89.9667 38.4333C90.0111 38.7 89.9 38.8333 89.6333 38.8333L88.3333 38.8C88.1111 38.8 88 38.6889 88 38.4667L88.0333 35.7667L87.5667 35.8C87.5 35.8 87.4333 35.7833 87.3667 35.75C87.3 35.7167 87.2556 35.6667 87.2333 35.6C87.2111 35.5778 87.2 35.5556 87.2 35.5333C87.2 35.5111 87.1889 35.4889 87.1667 35.4667C87.1444 35.4889 87.1333 35.5222 87.1333 35.5667C87.0889 35.7444 86.9889 35.8333 86.8333 35.8333L85.2 35.9333L85.3333 41C85.3333 41.0889 85.3 41.1667 85.2333 41.2333C84.9444 41.5222 84.7111 41.8778 84.5333 42.3H84.7667C84.8111 42.3 84.8611 42.2944 84.9167 42.2833C84.9722 42.2722 85.0222 42.2667 85.0667 42.2667C85.2889 42.2667 85.4 42.3778 85.4 42.6L85.5667 49L88.4667 48.4333C88.7333 48.3889 88.8667 48.5 88.8667 48.7667L88.8333 49.7C88.8333 49.7889 88.8 49.8667 88.7333 49.9333C88.5556 50.0889 88.4056 50.2722 88.2833 50.4833C88.1611 50.6944 88.0444 50.9222 87.9333 51.1667C88 51.1667 88.0667 51.1556 88.1333 51.1333C88.2 51.1111 88.2778 51.0889 88.3667 51.0667C88.6333 51.0222 88.7667 51.1333 88.7667 51.4L88.6667 55.6C88.6667 55.8222 88.5556 55.9333 88.3333 55.9333L84.7333 56.0667C84.5111 56.0667 84.4 55.9556 84.4 55.7333V55.5667C84.2 55.6333 84.0444 55.7667 83.9333 55.9667C83.8667 56.0778 83.7778 56.1333 83.6667 56.1333L77.9667 56.3667C77.7444 56.3667 77.6333 56.2556 77.6333 56.0333L77.6667 53.4C77.8222 53.0889 77.9 52.8333 77.9 52.6333C77.9 52.3889 77.8222 52.1444 77.6667 51.9L77.7333 48.9667C77.7333 48.7444 77.8556 48.6333 78.1 48.6333L81.5667 48.8667L81.4667 46.7333C81.4667 46.4889 81.5778 46.3667 81.8 46.3667C81.8889 46.3667 82.0222 46.3333 82.2 46.2667C82.2667 46.2667 82.3222 46.2444 82.3667 46.2L82.3 46.2333C82.3444 46.1889 82.3889 46.1667 82.4333 46.1667C82.3444 45.9889 82.2278 45.8444 82.0833 45.7333C81.9389 45.6222 81.7778 45.5111 81.6 45.4C81.4667 45.3556 81.4 45.2556 81.4 45.1L81.0333 36.7L80.1667 36.4667C80.0111 36.4222 79.9333 36.3111 79.9333 36.1333V35.7667V35.4L79.8667 35.4667V35.4333C79.7778 35.5444 79.7 35.6444 79.6333 35.7333C79.5667 35.8222 79.5 35.9222 79.4333 36.0333C79.3444 36.1667 79.2222 36.2111 79.0667 36.1667L78.3667 36L78.4667 38.5333C78.4667 38.7556 78.3667 38.8667 78.1667 38.8667L74.8667 39.0333C74.6222 39.0333 74.5 38.9222 74.5 38.7L74.2333 32.0667C74.2333 31.9778 74.2667 31.9 74.3333 31.8333C74.3556 31.8111 74.3833 31.7889 74.4167 31.7667C74.45 31.7444 74.4778 31.7222 74.5 31.7C74.6111 31.6333 74.7278 31.5667 74.85 31.5C74.9722 31.4333 75.0889 31.3444 75.2 31.2333C75.0222 31.1444 74.8611 31.0667 74.7167 31C74.5722 30.9333 74.4444 30.8556 74.3333 30.7667C74.2222 30.7222 74.1667 30.6222 74.1667 30.4667L74.1333 29.1C74.1333 28.8778 74.2444 28.7667 74.4667 28.7667L90.5 28Z" fill="#23130C"/>
<path fill-rule="evenodd" clip-rule="evenodd" d="M203.2 54.9667C203.111 54.8778 203.089 54.7667 203.133 54.6333L203.1 54.6C202.967 54.7778 202.811 54.7889 202.633 54.6333C202.167 54.2333 201.678 53.7111 201.167 53.0667L201.3 55.5667C201.3 55.8111 201.189 55.9333 200.967 55.9333H197.1C196.922 55.9333 196.811 55.8444 196.767 55.6667C196.722 55.8444 196.611 55.9333 196.433 55.9333H194.233C194.011 55.9333 193.9 55.8222 193.9 55.6L193.833 50.8333C193.833 50.7444 193.867 50.6667 193.933 50.6L193.967 50.5667C193.922 50.5444 193.889 50.5056 193.867 50.45C193.844 50.3944 193.833 50.3444 193.833 50.3V49.2667C193.833 49.0889 193.933 48.9778 194.133 48.9333L197.2 48.5V47.2667C197.2 47.1556 197.239 47.0611 197.317 46.9833C197.394 46.9056 197.489 46.8889 197.6 46.9333L197.633 46.9C197.589 46.8778 197.55 46.8556 197.517 46.8333C197.483 46.8111 197.444 46.7889 197.4 46.7667C197.267 46.7222 197.2 46.6222 197.2 46.4667L197.267 39.6C197.444 39.2222 197.622 38.85 197.8 38.4833C197.978 38.1167 198.156 37.7444 198.333 37.3667C198.222 37.4111 198.122 37.4556 198.033 37.5C197.944 37.5444 197.844 37.5889 197.733 37.6333C197.622 37.6778 197.517 37.6722 197.417 37.6167C197.317 37.5611 197.267 37.4667 197.267 37.3333L197.3 35.5333L196.967 35.6C196.878 35.6222 196.8 35.6056 196.733 35.55C196.667 35.4944 196.622 35.4333 196.6 35.3667C196.511 35.1667 196.367 35.0667 196.167 35.0667C196.011 35.0667 195.922 35.1222 195.9 35.2333C195.856 35.3222 195.806 35.3944 195.75 35.45C195.694 35.5056 195.661 35.55 195.65 35.5833C195.639 35.6167 195.622 35.6444 195.6 35.6667C195.578 35.7111 195.544 35.7556 195.5 35.8C195.456 35.8444 195.411 35.8667 195.367 35.8667L194.233 36.0667C194.122 36.0889 194.028 36.0667 193.95 36C193.872 35.9333 193.833 35.8444 193.833 35.7333L193.867 31.2333C193.867 31.1222 193.9 31.0333 193.967 30.9667C194.167 30.7667 194.267 30.5889 194.267 30.4333C194.267 30.3222 194.178 30.1778 194 30C193.933 29.9333 193.9 29.8444 193.9 29.7333V28.5667C193.9 28.4556 193.933 28.3667 194 28.3C194.067 28.2333 194.156 28.2111 194.267 28.2333L200.567 28.8C200.767 28.8 200.867 28.9 200.867 29.1L201.033 31.3L201.567 30.5667C201.656 30.4556 201.744 30.3556 201.833 30.2667L202.1 30C202.256 29.8889 202.4 29.9 202.533 30.0333L202.567 30C202.478 29.8444 202.522 29.7111 202.7 29.6C202.856 29.4222 203.044 29.2444 203.267 29.0667C203.489 28.8889 203.767 28.7111 204.1 28.5333C204.567 28.2667 205.156 28.1333 205.867 28.1333C206.222 28.1333 206.589 28.1667 206.967 28.2333C207.011 28.2333 207.067 28.2278 207.133 28.2167C207.2 28.2056 207.267 28.2 207.333 28.2C208.267 28.2 209.156 28.4444 210 28.9333H209.967C210.7 29.2667 211.3 29.6667 211.767 30.1333C211.878 30.2444 211.9 30.3778 211.833 30.5333C211.722 30.7556 211.667 30.9333 211.667 31.0667H211.733C211.822 31.0667 211.978 31.0444 212.2 31C212.244 30.9778 212.3 30.9889 212.367 31.0333C212.433 31.0778 212.489 31.1222 212.533 31.1667C212.689 31.3889 212.811 31.6056 212.9 31.8167C212.989 32.0278 213.056 32.2333 213.1 32.4333C213.211 32.8111 213.294 33.1944 213.35 33.5833C213.406 33.9722 213.433 34.3556 213.433 34.7333C213.433 35.4444 213.322 35.9778 213.1 36.3333C212.767 37.4222 212.222 38.2556 211.467 38.8333C211.356 38.9444 211.267 39.0111 211.2 39.0333C211.111 39.0778 211.022 39.0778 210.933 39.0333C210.911 39.0111 210.889 39 210.867 39C210.844 39 210.822 38.9889 210.8 38.9667C210.867 39.1667 210.822 39.3111 210.667 39.4C210.511 39.4889 210.35 39.5778 210.183 39.6667C210.017 39.7556 209.833 39.8556 209.633 39.9667C212.189 40.2333 213.733 41.6 214.267 44.0667L214.233 44C214.5 44.6667 214.633 45.4333 214.633 46.3C214.633 47.1444 214.578 47.9944 214.467 48.85C214.356 49.7056 214.144 50.5444 213.833 51.3667C213.567 51.9889 213.322 52.4778 213.1 52.8333C213.078 52.8778 213.033 52.9167 212.967 52.95C212.9 52.9833 212.844 53 212.8 53C212.6 53.0222 212.411 53.0889 212.233 53.2C212.056 53.3111 211.9 53.4556 211.767 53.6333L211.867 53.6667C211.978 53.7111 212.039 53.7889 212.05 53.9C212.061 54.0111 212.022 54.1111 211.933 54.2C211.667 54.4667 211.383 54.7056 211.083 54.9167C210.783 55.1278 210.467 55.3 210.133 55.4333C209.2 55.8556 208.111 56.0667 206.867 56.0667C205.622 56.0667 204.5 55.7778 203.5 55.2H203.567C203.389 55.1333 203.267 55.0556 203.2 54.9667ZM205.4 42.9333C204.556 43.1111 203.761 43.4333 203.017 43.9C202.272 44.3667 201.644 45.0111 201.133 45.8333V46.6667C201.578 47.4222 202.194 48.1111 202.983 48.7333C203.772 49.3556 204.733 49.7222 205.867 49.8333C206.289 49.8111 206.678 49.7667 207.033 49.7C207.389 49.6333 207.717 49.5333 208.017 49.4C208.317 49.2667 208.594 49.0778 208.85 48.8333C209.106 48.5889 209.344 48.2667 209.567 47.8667C209.767 47.5111 209.889 47.0889 209.933 46.6C209.933 46.4 210.044 46.3 210.267 46.3H210.3C210.456 46.3 210.533 46.1889 210.533 45.9667C210.533 45.7667 210.444 45.6667 210.267 45.6667H210.133C209.956 45.6667 209.844 45.5778 209.8 45.4C209.733 45.0667 209.633 44.7667 209.5 44.5C209.189 43.9 208.789 43.4611 208.3 43.1833C207.811 42.9056 207.267 42.7667 206.667 42.7667C206.333 42.7667 205.911 42.8222 205.4 42.9333ZM203.233 34.5333C203.233 34.5556 203.256 34.5667 203.3 34.5667C203.456 34.6111 203.567 34.6 203.633 34.5333C203.767 34.4222 203.906 34.3167 204.05 34.2167C204.194 34.1167 204.367 34.0111 204.567 33.9C205.033 33.6333 205.489 33.5 205.933 33.5C206.111 33.5 206.333 33.5333 206.6 33.6C207.356 33.6889 207.789 33.9778 207.9 34.4667C207.989 34.6889 208.05 34.9056 208.083 35.1167C208.117 35.3278 208.144 35.5222 208.167 35.7C208.167 35.9 208.256 36 208.433 36L208.467 36.0667C208.422 36.0889 208.389 36.1 208.367 36.1C208.344 36.1 208.322 36.1111 208.3 36.1333C208.256 36.1556 208.211 36.1889 208.167 36.2333C208.122 36.2778 208.1 36.3222 208.1 36.3667C207.989 36.9222 207.644 37.4556 207.067 37.9667C206.733 38.2778 206.383 38.55 206.017 38.7833C205.65 39.0167 205.267 39.2111 204.867 39.3667H204.9C204.189 39.6333 203.472 39.9833 202.75 40.4167C202.028 40.85 201.456 41.3556 201.033 41.9333L201.067 40.3667V40.4C201.111 39.8 201.189 39.2444 201.3 38.7333C201.411 38.2222 201.533 37.7778 201.667 37.4C201.8 36.8444 202.122 36.2333 202.633 35.5667C202.722 35.4556 202.806 35.3556 202.883 35.2667C202.961 35.1778 203.056 35.0778 203.167 34.9667C203.3 34.8333 203.311 34.7 203.2 34.5667L203.233 34.5333Z" fill="#23130C"/>
<path fill-rule="evenodd" clip-rule="evenodd" d="M231.333 40.0167C231.4 39.9389 231.411 39.8444 231.367 39.7333L230 33.7667C229.978 33.6556 229.922 33.5778 229.833 33.5333C229.744 33.4889 229.644 33.4889 229.533 33.5333C228.956 33.8444 228.378 34.1 227.8 34.3C228.067 33.9222 228.339 33.5611 228.617 33.2167C228.894 32.8722 229.189 32.5333 229.5 32.2C229.611 32.0889 229.644 31.9889 229.6 31.9L229 29.2333C228.956 29.0556 228.844 28.9667 228.667 28.9667L219.467 28.5667C219.244 28.5667 219.133 28.6778 219.133 28.9L219.167 30.4C219.167 30.4889 219.2 30.5667 219.267 30.6333C219.556 30.9 219.7 31.2556 219.7 31.7C219.7 32.1222 219.556 32.5111 219.267 32.8667L219.333 35.3667C219.333 35.5444 219.433 35.6556 219.633 35.7L222.633 36.1333L222.2 37.5667L222.333 37.9C222.289 37.9222 222.25 37.9444 222.217 37.9667C222.183 37.9889 222.144 38.0111 222.1 38.0333L220.733 42.6333L218.8 42.4667C218.689 42.4444 218.6 42.4667 218.533 42.5333C218.467 42.6 218.433 42.6889 218.433 42.8L218.367 46.4667C218.367 46.6444 218.456 46.7556 218.633 46.8L219.733 46.9667L219.233 48.7L216.633 48.2333C216.411 48.1889 216.278 48.2889 216.233 48.5333L216.067 50.5667C216.289 50.8556 216.4 51.1556 216.4 51.4667C216.4 51.8444 216.233 52.1778 215.9 52.4667L215.667 55.8333C215.667 56.0778 215.789 56.2 216.033 56.2L219.1 56.0333C219.411 55.8556 219.722 55.7667 220.033 55.7667C220.256 55.7667 220.489 55.8333 220.733 55.9667L224.5 55.7667C224.7 55.7667 224.8 55.6667 224.8 55.4667L225.133 48.9333C225.133 48.6889 225.022 48.5667 224.8 48.5667H222.833L223.3 46.6L229.567 46.9333L230 48.8333L228.267 48.7667C228.044 48.7667 227.933 48.8667 227.933 49.0667L227.867 50.3333C227.867 50.4889 227.911 50.5889 228 50.6333C228.244 50.8111 228.367 51.0444 228.367 51.3333C228.367 51.6667 228.233 51.9111 227.967 52.0667C227.856 52.1333 227.8 52.2222 227.8 52.3333L227.667 55.5C227.667 55.7222 227.767 55.8333 227.967 55.8333L230.033 55.9667C230.233 55.8333 230.422 55.7667 230.6 55.7667C230.822 55.7667 231.078 55.8556 231.367 56.0333L237.033 56.4C237.278 56.4 237.4 56.2889 237.4 56.0667L237.533 52.8667C237.489 52.7556 237.456 52.65 237.433 52.55C237.411 52.45 237.4 52.3444 237.4 52.2333C237.4 52.0111 237.478 51.7222 237.633 51.3667L237.733 49.2C237.733 48.9778 237.633 48.8667 237.433 48.8667L236.8 48.8333C236.756 48.8333 236.706 48.8389 236.65 48.85C236.594 48.8611 236.556 48.8889 236.533 48.9333C236.267 49.2444 235.994 49.5556 235.717 49.8667C235.439 50.1778 235.178 50.4889 234.933 50.8L235 49.9333C235.022 49.6444 235.056 49.3444 235.1 49.0333C235.144 48.7889 235.044 48.6667 234.8 48.6667L233.367 48.5667L231.833 41.7333C231.833 41.6889 231.811 41.6444 231.767 41.6L231.667 41.5C231.467 41.3889 231.317 41.2167 231.217 40.9833C231.117 40.75 231.067 40.5111 231.067 40.2667V40.1333C231.178 40.1333 231.267 40.0944 231.333 40.0167ZM228.533 42.5667L224.267 42.6667L225.033 39.9V39.7667C225.033 39.7 225.022 39.6556 225 39.6333C224.889 39.4111 224.833 39.2111 224.833 39.0333C224.833 38.7889 224.889 38.5667 225 38.3667C225.111 38.1667 225.267 38.0222 225.467 37.9333C225.556 37.8889 225.622 37.8222 225.667 37.7333L226.133 35.9667L226.433 36L228.533 42.5667Z" fill="#23130C"/>
<path fill-rule="evenodd" clip-rule="evenodd" d="M255.467 43.4L255.6 35.8333L258.367 36C258.611 36 258.733 35.9 258.733 35.7L258.833 33.9667C258.722 33.7444 258.622 33.5278 258.533 33.3167C258.444 33.1056 258.4 32.9 258.4 32.7V32.4C258.444 32.3778 258.478 32.3667 258.5 32.3667C258.522 32.3667 258.544 32.3556 258.567 32.3333L258.767 32.2C258.922 32.1556 259 32.0667 259 31.9333L259.2 29.2C259.2 28.9556 259.089 28.8333 258.867 28.8333L255.033 28.8C254.989 28.8 254.939 28.8111 254.883 28.8333C254.828 28.8556 254.789 28.8889 254.767 28.9333C254.656 29.1111 254.489 29.2556 254.267 29.3667C254.044 29.4778 253.822 29.5333 253.6 29.5333C253.422 29.5333 253.272 29.5 253.15 29.4333C253.028 29.3667 252.944 29.2444 252.9 29.0667C252.856 28.8889 252.744 28.8 252.567 28.8H250.567C250.344 28.8 250.233 28.9111 250.233 29.1333L250.3 30.9V31.1C250.411 31.2333 250.511 31.3667 250.6 31.5C250.689 31.6333 250.733 31.7556 250.733 31.8667V31.9C250.711 31.9222 250.689 31.9389 250.667 31.95C250.644 31.9611 250.589 31.9778 250.5 32C250.411 32.0222 250.367 32.1222 250.367 32.3L250.5 35.4333C250.5 35.6111 250.578 35.7222 250.733 35.7667L252.933 36.4667L252.9 37.7667C252.9 37.9889 253.011 38.1 253.233 38.1H253.5C253.433 38.1444 253.361 38.1944 253.283 38.25C253.206 38.3056 253.133 38.3556 253.067 38.4C252.956 38.4667 252.9 38.5556 252.9 38.6667L252.833 48.4333C252.389 48.1667 252.028 47.55 251.75 46.5833C251.472 45.6167 251.178 44.4111 250.867 42.9667C250.822 42.5667 250.761 42.1722 250.683 41.7833C250.606 41.3944 250.511 40.9778 250.4 40.5333C250.311 40.1556 250.222 39.7667 250.133 39.3667C250.044 38.9667 249.967 38.5667 249.9 38.1667C249.789 37.5 249.667 36.9 249.533 36.3667C249.4 35.8333 249.256 35.3111 249.1 34.8C249.033 34.5556 248.967 34.3444 248.9 34.1667C248.833 33.9889 248.778 33.7889 248.733 33.5667C248.222 32.2778 247.533 31.1333 246.667 30.1333L246.7 30.1667C245.789 29.0778 244.678 28.5333 243.367 28.5333H243.233L239.3 29C239.1 29.0444 239 29.1556 239 29.3333L239.033 30.5667C239.033 30.7889 239.144 30.9 239.367 30.9H239.467C239.333 31.0333 239.233 31.1222 239.167 31.1667C239.122 31.1889 239.089 31.2278 239.067 31.2833C239.044 31.3389 239.033 31.3889 239.033 31.4333L239.167 35.3333C239.167 35.5111 239.244 35.6222 239.4 35.6667L240.933 36.1667C240.978 36.1889 241.033 36.1889 241.1 36.1667C241.167 36.1444 241.222 36.1111 241.267 36.0667L241.5 35.8333C241.5 35.8778 241.494 35.9056 241.483 35.9167C241.472 35.9278 241.467 35.9556 241.467 36C241.422 36.2 241.5 36.3444 241.7 36.4333L242.767 36.7667L242.633 48.5333L241.067 48.3C240.933 48.2778 240.828 48.3056 240.75 48.3833C240.672 48.4611 240.644 48.5556 240.667 48.6667C240.622 48.5556 240.589 48.4833 240.567 48.45C240.544 48.4167 240.511 48.3778 240.467 48.3333C240.4 48.2222 240.311 48.1667 240.2 48.1667L239.733 48.1C239.489 48.0556 239.367 48.1556 239.367 48.4L239.167 50.9667C239.167 51.2111 239.278 51.3333 239.5 51.3333H239.767H240.067C239.867 51.6222 239.589 51.8556 239.233 52.0333C239.122 52.1 239.067 52.1889 239.067 52.3L238.833 55.8333C238.833 56.0778 238.956 56.2 239.2 56.2L241.4 56.0667C241.422 56.0444 241.456 56.0056 241.5 55.95C241.544 55.8944 241.578 55.8556 241.6 55.8333C241.644 55.7444 241.694 55.65 241.75 55.55C241.806 55.45 241.867 55.3444 241.933 55.2333L242 55.2667V55.3C242 55.3444 241.994 55.3944 241.983 55.45C241.972 55.5056 241.967 55.5556 241.967 55.6C241.967 55.6444 241.989 55.7111 242.033 55.8C242.033 55.8667 242.067 55.9111 242.133 55.9333C242.2 56 242.289 56.0333 242.4 56.0333L247.3 55.7667C247.5 55.7667 247.6 55.6556 247.6 55.4333L247.7 53.3C247.7 53.0778 247.589 52.9667 247.367 52.9667H247.333C247.378 52.9 247.444 52.8333 247.533 52.7667C247.622 52.7 247.689 52.6333 247.733 52.5667L247.933 48.8C247.933 48.6 247.844 48.4778 247.667 48.4333L246.833 48.3C246.611 48.2556 246.478 48.3444 246.433 48.5667C246.389 48.7444 246.35 48.9167 246.317 49.0833C246.283 49.25 246.244 49.4 246.2 49.5333H246.167C246.189 49.4444 246.2 49.2889 246.2 49.0667V48.7667C246.2 48.6556 246.189 48.5444 246.167 48.4333C246.122 48.3 246.022 48.2111 245.867 48.1667L245.033 48.0667L245.233 44.1333C245.233 44.0444 245.2 43.9667 245.133 43.9C244.978 43.7667 244.839 43.6111 244.717 43.4333C244.594 43.2556 244.478 43.0667 244.367 42.8667C244.5 42.9111 244.667 42.9444 244.867 42.9667C244.978 43.0111 245.078 43 245.167 42.9333C245.256 42.8667 245.3 42.7778 245.3 42.6667L245.633 36.0667C245.922 36.2667 246.2 36.6389 246.467 37.1833C246.733 37.7278 246.956 38.3889 247.133 39.1667C247.133 39.3222 247.2 39.4222 247.333 39.4667C247.467 39.5111 247.589 39.4778 247.7 39.3667L247.733 39.3333L247.767 39.3667L247.4 39.7333C247.356 39.7778 247.328 39.8278 247.317 39.8833C247.306 39.9389 247.3 39.9889 247.3 40.0333C247.322 40.1444 247.344 40.2444 247.367 40.3333C247.389 40.4222 247.411 40.5222 247.433 40.6333L247.6 41.4667C247.8 42.0444 247.95 42.6111 248.05 43.1667C248.15 43.7222 248.222 44.2667 248.267 44.8C248.356 45.8222 248.533 46.8778 248.8 47.9667C249.067 49.0556 249.4 50.0556 249.8 50.9667V50.9333L249.833 51.0333C249.878 51.1667 249.95 51.25 250.05 51.2833C250.15 51.3167 250.256 51.2778 250.367 51.1667L250.4 51.1333L250.5 51.1667C250.456 51.2778 250.422 51.3722 250.4 51.45C250.378 51.5278 250.344 51.6111 250.3 51.7C250.256 51.8111 250.256 51.9111 250.3 52C250.411 52.2444 250.544 52.4778 250.7 52.7C250.856 52.9222 251.022 53.1444 251.2 53.3667C251.356 53.5667 251.511 53.7556 251.667 53.9333C251.822 54.1111 251.989 54.2889 252.167 54.4667C252.344 54.6444 252.511 54.6333 252.667 54.4333C252.711 54.3667 252.756 54.3056 252.8 54.25C252.844 54.1944 252.889 54.1333 252.933 54.0667C252.978 54.0222 253.017 53.9667 253.05 53.9C253.083 53.8333 253.122 53.7778 253.167 53.7333C253.144 53.8444 253.139 53.9444 253.15 54.0333C253.161 54.1222 253.167 54.2222 253.167 54.3333C253.167 54.4667 253.172 54.6 253.183 54.7333C253.194 54.8667 253.2 55 253.2 55.1333C253.2 55.2889 253.256 55.3889 253.367 55.4333C253.878 55.7222 254.478 55.8667 255.167 55.8667L258.833 55.4333C259.033 55.3889 259.133 55.2778 259.133 55.1L259.1 52.0667C259.1 52.0222 259.089 51.9722 259.067 51.9167C259.044 51.8611 259.011 51.8222 258.967 51.8C258.789 51.6889 258.622 51.5778 258.467 51.4667C258.311 51.3556 258.178 51.2333 258.067 51.1C258.178 50.9 258.317 50.7167 258.483 50.55L259 50.0333C259.067 49.9667 259.1 49.8889 259.1 49.8V48.8C259.1 48.5778 258.989 48.4667 258.767 48.4667L255.367 48.5L255.433 44.2333C255.433 44.0556 255.344 43.9444 255.167 43.9C255.1 43.9 255.056 43.8889 255.033 43.8667C255.078 43.8 255.139 43.7278 255.217 43.65L255.467 43.4ZM242.067 55.8333L242.1 55.8667C242.122 55.8889 242.15 55.9056 242.183 55.9167C242.217 55.9278 242.256 55.9444 242.3 55.9667C242.256 55.9667 242.222 55.9611 242.2 55.95C242.178 55.9389 242.156 55.9333 242.133 55.9333C242.089 55.8889 242.067 55.8556 242.067 55.8333ZM242.067 55.8333C242.044 55.8111 242.033 55.7889 242.033 55.7667V55.8C242.033 55.8222 242.044 55.8333 242.067 55.8333Z" fill="#23130C"/>
<path fill-rule="evenodd" clip-rule="evenodd" d="M281.567 42.4C281.567 42.3333 281.578 42.2778 281.6 42.2333L281.633 42.1L281.467 40.5667C281.422 40.3667 281.311 40.2667 281.133 40.2667L275.867 40.5C275.822 40.5222 275.778 40.55 275.733 40.5833C275.689 40.6167 275.644 40.6444 275.6 40.6667L275.333 40.8C275 41.1333 274.644 41.3 274.267 41.3C274 41.3 273.744 41.2611 273.5 41.1833C273.256 41.1056 273.011 41.0222 272.767 40.9333C272.722 40.7333 272.611 40.6333 272.433 40.6333L270.2 40.7333C270.089 40.7333 270 40.7667 269.933 40.8333C269.867 40.9 269.844 40.9889 269.867 41.1L270.233 45.1C270.233 45.1667 270.267 45.2333 270.333 45.3C270.4 45.3667 270.467 45.4 270.533 45.4L272.7 45.6C272.878 45.6444 272.989 45.5667 273.033 45.3667H273.067C273.111 45.5444 273.211 45.6333 273.367 45.6333L276.533 45.9C276.444 46.0111 276.356 46.1111 276.267 46.2L275.967 46.5C275.767 46.7444 275.522 46.9889 275.233 47.2333C274.944 47.4778 274.633 47.7222 274.3 47.9667L274.167 48.2667C274.056 48.5333 273.944 48.7333 273.833 48.8667C273.732 48.8329 273.65 48.7992 273.587 48.7655C273.592 48.7663 273.596 48.7667 273.6 48.7667L273.533 48.7333C273.489 48.5556 273.356 48.4889 273.133 48.5333C272.498 48.7305 271.798 48.8305 271.033 48.8333C270.278 48.7222 269.55 48.5333 268.85 48.2667C268.15 48 267.522 47.5444 266.967 46.9L266.867 46.8C266.8 46.7333 266.722 46.7 266.633 46.7C266.5 46.7 266.4 46.7222 266.333 46.7667C266.222 46.7222 266.144 46.6278 266.1 46.4833C266.056 46.3389 266.022 46.1778 266 46V45.7667C266.022 45.7222 266.011 45.6333 265.967 45.5C265.9 45.3667 265.867 45.2889 265.867 45.2667C265.822 45.1778 265.783 45.0889 265.75 45C265.717 44.9111 265.678 44.8222 265.633 44.7333C265.5 44.3778 265.394 44.0167 265.317 43.65C265.239 43.2833 265.2 42.9 265.2 42.5V42.2667C265.2 41.5333 265.294 40.85 265.483 40.2167C265.672 39.5833 265.922 39.0222 266.233 38.5333C266.544 38.0444 266.972 37.6 267.517 37.2C268.061 36.8 268.589 36.4778 269.1 36.2333C269.144 36.1889 269.189 36.1611 269.233 36.15C269.278 36.1389 269.311 36.1222 269.333 36.1C269.489 36.0556 269.567 35.9556 269.567 35.8C269.567 35.5556 269.578 35.3111 269.6 35.0667C269.622 34.8222 269.656 34.5667 269.7 34.3C269.878 34.4778 270.039 34.6722 270.183 34.8833C270.328 35.0944 270.467 35.3 270.6 35.5C270.667 35.5889 270.767 35.6333 270.9 35.6333C271.011 35.6111 271.133 35.5944 271.267 35.5833C271.4 35.5722 271.533 35.5556 271.667 35.5333H271.967C272.967 35.5333 273.839 35.75 274.583 36.1833C275.328 36.6167 276.1 37.2333 276.9 38.0333C276.967 38.1 277.044 38.1333 277.133 38.1333L279.467 38.1667C279.689 38.1667 279.8 38.0667 279.8 37.8667L279.867 36.8667C279.867 36.7556 279.822 36.6556 279.733 36.5667C279.556 36.4556 279.4 36.3333 279.267 36.2C279.133 36.0667 279.044 35.9111 279 35.7333C279.089 35.6667 279.178 35.5889 279.267 35.5L279.533 35.2333C279.578 35.1889 279.65 35.1222 279.75 35.0333C279.85 34.9444 279.922 34.8778 279.967 34.8333L280.3 29.2667C280.3 29.1778 280.272 29.0944 280.217 29.0167C280.161 28.9389 280.089 28.9 280 28.9L276.767 28.6C276.656 28.5778 276.567 28.6056 276.5 28.6833C276.433 28.7611 276.4 28.8556 276.4 28.9667L276.467 30.0333C275 28.9889 273.544 28.3667 272.1 28.1667C271.167 28.2111 270.306 28.3389 269.517 28.55C268.728 28.7611 267.989 29.0222 267.3 29.3333C267.056 29.4222 266.767 29.5778 266.433 29.8C266.367 29.9333 266.211 30.1333 265.967 30.4C265.878 30.5111 265.778 30.6167 265.667 30.7167C265.556 30.8167 265.433 30.8667 265.3 30.8667H265.233C265.144 30.8667 265.067 30.9 265 30.9667C264.8 31.1667 264.594 31.4 264.383 31.6667C264.172 31.9333 263.967 32.2222 263.767 32.5333C263.3 33.2667 262.889 34.05 262.533 34.8833C262.178 35.7167 261.878 36.6 261.633 37.5333V37.5C261.478 37.9444 261.356 38.4389 261.267 38.9833C261.178 39.5278 261.111 40.1222 261.067 40.7667C261.2 41.0556 261.289 41.2222 261.333 41.2667C261.378 41.3111 261.417 41.3611 261.45 41.4167C261.483 41.4722 261.322 41.7889 260.967 42.3667C260.967 43.4111 261.033 44.4111 261.167 45.3667C261.344 46.7667 261.706 48.0278 262.25 49.15C262.794 50.2722 263.4 51.3111 264.067 52.2667L264.033 52.2333C264.589 53.2333 265.3 54.0444 266.167 54.6667C266.211 54.7111 266.3 54.7333 266.433 54.7333C266.5 54.7556 266.611 54.7667 266.767 54.7667C266.811 54.7667 266.839 54.7722 266.85 54.7833C266.861 54.7944 266.889 54.8 266.933 54.8H267.133C267.378 54.8 267.578 54.8722 267.733 55.0167C267.889 55.1611 267.989 55.3556 268.033 55.6C268.033 55.7111 268.111 55.7889 268.267 55.8333C268.489 55.9222 268.689 55.9944 268.867 56.05C269.044 56.1056 269.189 56.1444 269.3 56.1667C269.9 56.3222 270.6 56.4 271.4 56.4C272.044 56.4 272.678 56.3278 273.3 56.1833C273.922 56.0389 274.489 55.8111 275 55.5C275.311 55.3 275.611 55.0944 275.9 54.8833C276.189 54.6722 276.467 54.4444 276.733 54.2L276.633 55.6333C276.611 55.7444 276.644 55.8389 276.733 55.9167C276.822 55.9944 276.922 56.0222 277.033 56L280.133 55.3333C280.311 55.2889 280.4 55.1778 280.4 55V53.3C280.244 53.0556 280.1 52.8111 279.967 52.5667C279.833 52.3222 279.744 52.0667 279.7 51.8C279.944 51.6667 280.133 51.5444 280.267 51.4333C280.311 51.4111 280.344 51.3722 280.367 51.3167C280.389 51.2611 280.4 51.2111 280.4 51.1667L280.433 45.8667L281.733 45.9C281.844 45.9 281.933 45.8667 282 45.8C282.067 45.7333 282.089 45.6444 282.067 45.5333L281.8 43.5333C281.8 43.4889 281.778 43.4389 281.733 43.3833C281.689 43.3278 281.644 43.2889 281.6 43.2667C281.489 43.2444 281.433 43.1667 281.433 43.0333C281.433 42.8778 281.467 42.7111 281.533 42.5333C281.556 42.4889 281.567 42.4444 281.567 42.4ZM266.408 46.7417C266.403 46.7472 266.4 46.7556 266.4 46.7667H266.367H266.333L266.408 46.7417ZM266.408 46.7417C266.414 46.7361 266.422 46.7333 266.433 46.7333L266.408 46.7417ZM273.533 48.7333C273.551 48.7513 273.569 48.762 273.587 48.7655C273.567 48.7548 273.549 48.744 273.533 48.7333Z" fill="#23130C"/>
<path fill-rule="evenodd" clip-rule="evenodd" d="M169.002 5.50964C177.343 17.4215 182.253 37.6387 175.686 54.7077C175.686 54.7077 177.86 55.5065 177.836 55.5535C177.829 55.5684 177.549 55.6815 177.168 55.8357C176.348 56.1675 175.057 56.6896 174.993 56.8339C174.764 57.4083 175.093 57.9827 175.422 58.5571C175.766 59.1574 176.11 59.7578 175.816 60.3582C174.874 60.5161 173.949 60.764 173.055 61.0982C172.98 61.2477 172.953 61.1412 172.925 61.0279C172.895 60.9096 172.863 60.7838 172.773 60.9338C171.404 63.3215 169.781 65.5547 167.933 67.5945C156.397 80.3522 138.412 82.0321 123.857 72.9866C123.857 72.9866 124.456 67.2421 123.751 66.737C123.505 66.5725 120.767 70.6136 120.767 70.6136C114.796 66.0836 109.995 60.1908 106.764 53.4272C94.9466 29.5918 113.014 10.8312 117.337 6.82535C117.278 6.78252 117.219 6.7397 117.159 6.69674L117.159 6.69669C116.957 6.5511 116.752 6.40391 116.562 6.24973C116.246 6.01324 116.047 5.65237 116.015 5.25897C115.984 4.86558 116.123 4.47765 116.397 4.19394L119.581 0.892921C120.057 0.402153 120.821 0.332321 121.378 0.728462C125.75 3.82845 129.943 7.174 133.936 10.749C134.44 11.2254 134.506 12.004 134.089 12.5581L132.985 14.0617C132.606 14.5888 131.908 14.7756 131.317 14.5081L130.142 13.9795C124.232 19.7796 121.712 28.2073 123.469 36.2995C126.618 50.8545 148.057 62.6489 158.476 44.5227C166.335 30.8957 161.355 19.5008 158.476 14.7078C157.4 15.3062 156.062 15.1502 155.152 14.3202C154.969 14.0846 154.779 13.8491 154.596 13.6229L154.596 13.6228L154.595 13.6221C154.368 13.3409 154.153 13.0742 153.977 12.84C153.505 12.3204 153.505 11.5271 153.977 11.0074C157.801 7.28112 161.812 3.75232 165.995 0.434776C167.027 -0.144928 168.287 -0.144928 169.319 0.434776L169.989 2.24387C170.284 2.47456 170.472 2.81557 170.51 3.18807C170.547 3.56058 170.431 3.93234 170.189 4.21743C169.879 4.54411 169.599 4.85288 169.327 5.15225L169.325 5.15461L169.325 5.15504C169.216 5.27456 169.109 5.39258 169.002 5.50964ZM113.496 24.9398C113.648 29.2981 117.69 27.6887 118.347 25.9853C119.005 24.282 117.631 22.3201 116.515 22.3201C115.399 22.3201 113.437 23.0367 113.496 24.9398ZM117.69 55.5652C116.444 53.1335 117.384 51.4419 117.983 51.1012C121.167 49.2686 124.104 51.3244 123.786 54.3905C123.469 57.4566 118.935 57.9969 117.69 55.5652ZM127.64 60.0175C127.922 59.7238 128.062 59.5358 128.015 59.5241C127.969 59.5123 127.839 59.7003 127.64 60.0175ZM141.302 64.8692C143.722 62.9073 145.825 62.5197 148.115 64.8692C150.383 67.1716 149.114 70.7428 144.45 70.7428C139.786 70.7428 139.61 66.2436 141.302 64.8692ZM166.347 17.5977C165.978 18.8964 166.661 20.2623 167.921 20.746C168.685 20.9505 169.501 20.782 170.121 20.2914C170.741 19.8008 171.093 19.0459 171.07 18.2556C170.87 16.1528 167.217 15.5419 166.347 17.5977ZM171.645 43.9471C172.761 44.9221 173.478 49.0572 169.871 49.3156L169.883 49.3274C166.277 49.5976 164.891 45.3568 166.335 43.9471C167.857 42.6211 170.124 42.6211 171.645 43.9471Z" fill="#7E1F00"/>
<path fill-rule="evenodd" clip-rule="evenodd" d="M174.441 54.7781L177.836 55.5535C183.992 37.9911 178.576 16.9868 169.813 5.56837L158.594 13.7915C165.841 23.1285 166.543 35.9791 160.356 46.0498C149.936 64.1761 128.497 52.3817 125.349 37.8267C123.514 29.2709 126.449 20.3919 133.02 14.6139L120.098 7.56543C120.098 7.56543 95.2638 28.0176 108.621 54.9661C111.535 60.9513 115.659 66.2672 120.732 70.5784C123.892 67.6298 128.438 63.295 129.766 61.8618C129.966 61.5329 130.095 61.3567 130.142 61.3684C130.189 61.3802 130.036 61.5564 129.766 61.8618C128.744 63.483 125.936 68.8633 123.822 72.9513C138.67 83.2303 157.772 82.4197 169.789 69.1334C171.687 67.0304 173.35 64.7259 174.747 62.2612L166.829 55.3655L175.816 60.3229C176.297 59.3361 176.755 58.3494 177.155 57.3391L174.441 54.7781ZM115.646 26.7724C115.575 24.8693 117.549 24.1527 118.665 24.1527C119.839 24.1527 121.155 26.1263 120.497 27.8297C119.839 29.533 115.798 31.1307 115.646 26.7724ZM120.121 52.9338C119.534 53.2745 118.594 54.9661 119.839 57.3978C121.085 59.8295 125.607 59.3009 125.936 56.2231C126.265 53.1453 123.364 51.1012 120.133 52.9338H120.121ZM143.44 66.7017C145.872 64.7399 147.974 64.3523 150.265 66.7017H150.277C152.568 69.0042 151.24 72.5754 146.588 72.5754C141.936 72.5754 141.748 68.0762 143.44 66.7017ZM168.497 19.4303C168.122 20.7295 168.806 22.0993 170.071 22.5786C170.834 22.784 171.649 22.6154 172.267 22.1242C172.886 21.633 173.235 20.8775 173.208 20.0881C173.031 17.9854 169.366 17.3745 168.509 19.4303H168.497ZM168.567 45.7914C170.089 44.4654 172.356 44.4654 173.877 45.7914C174.935 46.7782 175.686 50.9133 172.092 51.1717C168.497 51.4301 167.111 47.1893 168.567 45.7914Z" fill="url(#paint0_linear_0_19064)"/>
<g style="mix-blend-mode:multiply" opacity="0.5">
<path fill-rule="evenodd" clip-rule="evenodd" d="M162.001 42.925C163.892 39.5535 167.275 34.6314 170.799 34.1145C176.309 33.3274 180.679 37.2393 177.871 55.53C183.957 38.1556 178.752 17.4332 170.142 5.96779C170.717 5.41566 171.258 4.81655 171.739 4.24092C171.979 3.95451 172.093 3.58357 172.055 3.21209C172.017 2.8406 171.832 2.49999 171.54 2.26736L169.261 0.458267C168.759 0.0578079 168.047 0.0578079 167.545 0.458267C163.362 3.77581 159.351 7.30462 155.528 11.0309C155.05 11.5484 155.05 12.346 155.528 12.8635C155.742 13.1598 156.025 13.508 156.321 13.8717C156.447 14.0271 156.576 14.1854 156.703 14.3437C157.132 14.8991 157.909 15.0454 158.512 14.6843L159.005 14.3672C165.14 22.6268 166.288 33.5722 162.001 42.925ZM170.083 22.5786C168.818 22.0993 168.133 20.7295 168.509 19.4303C169.366 17.3745 173.031 17.9854 173.219 20.0881C173.247 20.8775 172.898 21.633 172.279 22.1242C171.66 22.6154 170.846 22.784 170.083 22.5786Z" fill="url(#paint1_linear_0_19064)"/>
</g>
<g style="mix-blend-mode:multiply" opacity="0.5">
<path fill-rule="evenodd" clip-rule="evenodd" d="M118.747 7.54195L119.487 8.08232C115.681 11.6065 96.5913 30.6373 108.726 54.9896C109.396 56.3523 110.124 57.6445 110.888 58.9015C110.723 58.4081 106.999 46.696 110.888 38.8605C114.071 32.5874 125.654 42.8898 130.518 47.5888C128.024 44.8383 126.27 41.4994 125.419 37.8854C123.637 29.6821 126.259 21.1429 132.339 15.354L133.513 15.9061C134.105 16.1688 134.8 15.9828 135.181 15.4597L136.286 13.956C136.741 13.3837 136.663 12.5542 136.109 12.0764C132.128 8.48657 127.943 5.12909 123.575 2.02068C123.023 1.61102 122.253 1.6765 121.778 2.17339L118.594 5.47441C118.318 5.75859 118.177 6.14734 118.206 6.54249C118.235 6.93764 118.432 7.30142 118.747 7.54195ZM118.676 24.1058C119.792 24.1058 121.167 26.0676 120.509 27.7827V27.8297C119.839 29.533 115.81 31.1307 115.657 26.7254C115.587 24.8223 117.56 24.1058 118.676 24.1058Z" fill="url(#paint2_linear_0_19064)"/>
</g>
<path d="M118.594 5.52139L121.778 2.22038C122.253 1.72348 123.023 1.65801 123.575 2.06766C127.943 5.17607 132.128 8.53355 136.109 12.1234C136.634 12.5963 136.711 13.3918 136.286 13.956L135.181 15.4597C134.8 15.9828 134.105 16.1687 133.513 15.9061C128.335 13.6397 123.396 10.8613 118.77 7.61242C118.444 7.37565 118.237 7.00874 118.204 6.60724C118.17 6.20574 118.312 5.80939 118.594 5.52139Z" fill="url(#paint3_linear_0_19064)"/>
<path d="M158.512 14.6843C161.178 13.0397 168.121 8.56396 171.704 4.26442C171.944 3.978 172.057 3.60706 172.02 3.23558C171.982 2.86409 171.796 2.52349 171.504 2.29086L169.178 0.481762C168.677 0.0813026 167.965 0.0813026 167.463 0.481762C163.28 3.79931 159.269 7.32811 155.446 11.0544C154.968 11.5719 154.968 12.3695 155.446 12.887C155.81 13.3099 156.256 13.8385 156.62 14.3672C157.064 14.9623 157.898 15.1021 158.512 14.6843Z" fill="url(#paint4_linear_0_19064)"/>
<g style="mix-blend-mode:screen" opacity="0.74">
<path d="M122.588 68.8633L120.767 70.5784C117.1 67.4875 113.93 63.8502 111.369 59.7943C114.733 63.2544 118.5 66.2991 122.588 68.8633Z" fill="url(#paint5_linear_0_19064)"/>
</g>
<g style="mix-blend-mode:screen" opacity="0.74">
<path d="M169.824 69.1687C157.807 82.455 138.706 83.2655 123.857 72.9866L125.184 70.4374C132.233 74.4198 141.49 77.4858 151.381 75.4653C160.381 73.6426 168.551 68.962 174.676 62.1203L174.782 62.2142C173.39 64.7076 171.728 67.0398 169.824 69.1687Z" fill="url(#paint6_linear_0_19064)"/>
</g>
<g style="mix-blend-mode:multiply" opacity="0.3">
<path d="M129.425 69.3332C129.425 69.3332 135.299 62.6372 139.716 60.9338C139.716 60.9455 133.56 67.6298 129.425 69.3332Z" fill="url(#paint7_linear_0_19064)"/>
</g>
<g style="mix-blend-mode:multiply" opacity="0.3">
<path d="M132.245 71.0718C132.245 71.0718 136.438 65.3273 138.013 64.6694C138.013 64.6694 134.206 69.8735 132.245 71.0718Z" fill="url(#paint8_linear_0_19064)"/>
</g>
<g style="mix-blend-mode:multiply" opacity="0.3">
<path d="M163.058 53.7444C163.058 53.7444 160.309 51.7591 160.18 50.7723C160.18 50.7723 162.67 52.1937 163.058 53.7444Z" fill="url(#paint9_linear_0_19064)"/>
</g>
<g style="mix-blend-mode:multiply" opacity="0.3">
<path d="M170.012 37.6622C170.012 37.6622 172.679 30.4023 175.886 28.6167C174.098 31.7391 172.138 34.759 170.012 37.6622V37.6622Z" fill="url(#paint10_linear_0_19064)"/>
</g>
<g style="mix-blend-mode:multiply" opacity="0.3">
<path d="M110.735 33.5976C108.162 32.9515 115.328 40.8693 115.328 40.8693C115.328 40.8693 111.792 33.8561 110.735 33.5976Z" fill="url(#paint11_linear_0_19064)"/>
</g>
<g style="mix-blend-mode:multiply" opacity="0.3">
<path d="M113.883 21.7915C114.799 20.2584 116.115 19.0035 117.69 18.1616C117.69 18.1616 115.399 21.0749 113.883 21.7915Z" fill="url(#paint12_linear_0_19064)"/>
</g>
<g style="mix-blend-mode:multiply" opacity="0.3">
<path d="M116.985 22.3201C118.54 22.0608 120.128 22.0608 121.684 22.3201C120.139 22.6877 118.529 22.6877 116.985 22.3201Z" fill="url(#paint13_linear_0_19064)"/>
</g>
<defs>
<linearGradient id="paint0_linear_0_19064" x1="290.56" y1="32.5458" x2="180.8" y2="267.464" gradientUnits="userSpaceOnUse">
<stop stop-color="#F56B45"/>
<stop offset="0.45" stop-color="#FA9B3E"/>
<stop offset="1" stop-color="#FFD336"/>
</linearGradient>
<linearGradient id="paint1_linear_0_19064" x1="169.205" y1="117.194" x2="109.235" y2="83.8566" gradientUnits="userSpaceOnUse">
<stop stop-color="#722A12" stop-opacity="0.01"/>
<stop offset="1" stop-color="#722A12"/>
</linearGradient>
<linearGradient id="paint2_linear_0_19064" x1="122.375" y1="122.545" x2="54.7245" y2="76.7648" gradientUnits="userSpaceOnUse">
<stop stop-color="#722A12" stop-opacity="0.01"/>
<stop offset="1" stop-color="#722A12"/>
</linearGradient>
<linearGradient id="paint3_linear_0_19064" x1="163.227" y1="6.95747" x2="145.461" y2="55.1295" gradientUnits="userSpaceOnUse">
<stop stop-color="#F56B45"/>
<stop offset="0.45" stop-color="#FA9B3E"/>
<stop offset="1" stop-color="#FFD336"/>
</linearGradient>
<linearGradient id="paint4_linear_0_19064" x1="196.628" y1="5.52762" x2="176.572" y2="53.9352" gradientUnits="userSpaceOnUse">
<stop stop-color="#F56B45"/>
<stop offset="0.45" stop-color="#FA9B3E"/>
<stop offset="1" stop-color="#FFD336"/>
</linearGradient>
<linearGradient id="paint5_linear_0_19064" x1="199.231" y1="59.2892" x2="199.231" y2="217.409" gradientUnits="userSpaceOnUse">
<stop/>
<stop offset="0.01" stop-color="#020103"/>
<stop offset="0.05" stop-color="#1E1730"/>
<stop offset="0.09" stop-color="#382B59"/>
<stop offset="0.14" stop-color="#4F3D7F"/>
<stop offset="0.19" stop-color="#644D9F"/>
<stop offset="0.25" stop-color="#755ABB"/>
<stop offset="0.32" stop-color="#8365D1"/>
<stop offset="0.4" stop-color="#8D6DE2"/>
<stop offset="0.49" stop-color="#9573ED"/>
<stop offset="0.63" stop-color="#9976F4"/>
<stop offset="1" stop-color="#9A77F6"/>
</linearGradient>
<linearGradient id="paint6_linear_0_19064" x1="229.292" y1="64.6107" x2="229.292" y2="120.763" gradientUnits="userSpaceOnUse">
<stop/>
<stop offset="0.01" stop-color="#020203"/>
<stop offset="0.13" stop-color="#251D3C"/>
<stop offset="0.24" stop-color="#44356D"/>
<stop offset="0.36" stop-color="#5F4997"/>
<stop offset="0.49" stop-color="#745ABA"/>
<stop offset="0.61" stop-color="#8567D4"/>
<stop offset="0.73" stop-color="#9170E7"/>
<stop offset="0.86" stop-color="#9875F2"/>
<stop offset="1" stop-color="#9A77F6"/>
</linearGradient>
<linearGradient id="paint7_linear_0_19064" x1="139.709" y1="57.8912" x2="139.709" y2="66.2788" gradientUnits="userSpaceOnUse">
<stop stop-color="white"/>
<stop offset="0.09" stop-color="#F9FAFD"/>
<stop offset="0.22" stop-color="#E7EBF7"/>
<stop offset="0.36" stop-color="#CAD3EE"/>
<stop offset="0.52" stop-color="#A1B2E1"/>
<stop offset="0.7" stop-color="#6D87D1"/>
<stop offset="0.88" stop-color="#2F54BD"/>
<stop offset="1" stop-color="#002EAE"/>
</linearGradient>
<linearGradient id="paint8_linear_0_19064" x1="138.018" y1="62.3552" x2="138.018" y2="68.7575" gradientUnits="userSpaceOnUse">
<stop stop-color="white"/>
<stop offset="0.09" stop-color="#F9FAFD"/>
<stop offset="0.22" stop-color="#E7EBF7"/>
<stop offset="0.36" stop-color="#CAD3EE"/>
<stop offset="0.52" stop-color="#A1B2E1"/>
<stop offset="0.7" stop-color="#6D87D1"/>
<stop offset="0.88" stop-color="#2F54BD"/>
<stop offset="1" stop-color="#002EAE"/>
</linearGradient>
<linearGradient id="paint9_linear_0_19064" x1="163.064" y1="49.6915" x2="163.064" y2="52.6636" gradientUnits="userSpaceOnUse">
<stop stop-color="white"/>
<stop offset="0.09" stop-color="#F9FAFD"/>
<stop offset="0.22" stop-color="#E7EBF7"/>
<stop offset="0.36" stop-color="#CAD3EE"/>
<stop offset="0.52" stop-color="#A1B2E1"/>
<stop offset="0.7" stop-color="#6D87D1"/>
<stop offset="0.88" stop-color="#2F54BD"/>
<stop offset="1" stop-color="#002EAE"/>
</linearGradient>
<linearGradient id="paint10_linear_0_19064" x1="175.898" y1="25.3275" x2="175.898" y2="34.3729" gradientUnits="userSpaceOnUse">
<stop stop-color="white"/>
<stop offset="0.09" stop-color="#F9FAFD"/>
<stop offset="0.22" stop-color="#E7EBF7"/>
<stop offset="0.36" stop-color="#CAD3EE"/>
<stop offset="0.52" stop-color="#A1B2E1"/>
<stop offset="0.7" stop-color="#6D87D1"/>
<stop offset="0.88" stop-color="#2F54BD"/>
<stop offset="1" stop-color="#002EAE"/>
</linearGradient>
<linearGradient id="paint11_linear_0_19064" x1="115.33" y1="30.9075" x2="115.33" y2="38.2143" gradientUnits="userSpaceOnUse">
<stop stop-color="white"/>
<stop offset="0.09" stop-color="#F9FAFD"/>
<stop offset="0.22" stop-color="#E7EBF7"/>
<stop offset="0.36" stop-color="#CAD3EE"/>
<stop offset="0.52" stop-color="#A1B2E1"/>
<stop offset="0.7" stop-color="#6D87D1"/>
<stop offset="0.88" stop-color="#2F54BD"/>
<stop offset="1" stop-color="#002EAE"/>
</linearGradient>
<linearGradient id="paint12_linear_0_19064" x1="117.69" y1="16.8459" x2="117.69" y2="20.4758" gradientUnits="userSpaceOnUse">
<stop stop-color="white"/>
<stop offset="0.09" stop-color="#F9FAFD"/>
<stop offset="0.22" stop-color="#E7EBF7"/>
<stop offset="0.36" stop-color="#CAD3EE"/>
<stop offset="0.52" stop-color="#A1B2E1"/>
<stop offset="0.7" stop-color="#6D87D1"/>
<stop offset="0.88" stop-color="#2F54BD"/>
<stop offset="1" stop-color="#002EAE"/>
</linearGradient>
<linearGradient id="paint13_linear_0_19064" x1="120.286" y1="21.9325" x2="120.286" y2="22.4259" gradientUnits="userSpaceOnUse">
<stop stop-color="white"/>
<stop offset="0.09" stop-color="#F9FAFD"/>
<stop offset="0.22" stop-color="#E7EBF7"/>
<stop offset="0.36" stop-color="#CAD3EE"/>
<stop offset="0.52" stop-color="#A1B2E1"/>
<stop offset="0.7" stop-color="#6D87D1"/>
<stop offset="0.88" stop-color="#2F54BD"/>
<stop offset="1" stop-color="#002EAE"/>
</linearGradient>
</defs>
</svg>
