<svg width="268" height="77" viewBox="0 0 268 77" fill="none" xmlns="http://www.w3.org/2000/svg">
<path fill-rule="evenodd" clip-rule="evenodd" d="M57.3361 12.7477C60.6836 12.1472 64.0623 11.7367 67.4561 11.5183C66.3084 11.1258 65.2295 10.5554 64.2589 9.82797C64.2328 9.53742 64.249 9.2446 64.3072 8.95872C65.2224 6.84367 66.412 4.85815 67.8453 3.05327C70.104 4.24802 77.4025 9.01606 81.4153 11.8224C81.5766 12.1492 81.6597 12.509 81.6579 12.8734C79.1998 17.8676 76.466 22.7215 73.469 27.4125C71.3212 26.3777 69.3473 25.0154 67.6181 23.3744C67.4957 23.0233 67.4118 22.66 67.368 22.2908C68.0072 21.4009 68.7774 20.6126 69.6523 19.9528C66.0584 21.1172 62.0356 22.3205 59.4471 22.9696C59.0257 22.844 58.6607 22.5766 58.414 22.2127C57.5665 19.657 56.9595 17.0277 56.6008 14.3591C56.5894 13.7453 56.8495 13.1577 57.3117 12.7534L57.3361 12.7477Z" fill="url(#paint0_linear_0_17431)"/>
<path fill-rule="evenodd" clip-rule="evenodd" d="M57.3361 12.7477C59.6274 12.2616 63.679 11.5923 67.6053 11.0119C66.4626 10.4204 65.3598 9.75488 64.304 9.01951C65.1674 6.85904 66.3621 4.84617 67.8452 3.05327C72.5301 5.73055 77.0623 8.66628 81.4209 11.8469C81.4768 11.958 81.5051 12.0809 81.5036 12.2053C78.9753 16.9651 76.1869 21.5822 73.1511 26.0357C71.0417 25.093 69.0909 23.8298 67.3679 22.2908C67.9842 21.1458 68.6759 20.0429 69.4385 18.9896C67.151 19.7151 64.7863 20.4412 62.7 21.0344C63.4492 20.5611 64.1908 20.0553 65.049 19.4967C64.2641 19.8152 63.4755 20.1174 62.7508 20.4735C62.5089 20.596 62.2776 20.7384 62.0593 20.8992C61.8776 21.0401 61.7066 21.1943 61.5478 21.3605C60.7817 21.5374 60.0859 21.7581 59.4521 21.913C59.0415 21.8044 58.6811 21.5571 58.4321 21.2131C58.2428 20.6905 58.034 20.0093 57.8327 19.2491C58.6395 18.8963 59.4239 18.4945 60.1817 18.0461C59.392 18.3963 58.5603 18.6431 57.7074 18.7804C57.2787 17.1437 56.9578 15.4806 56.7468 13.8019C56.7882 13.535 57.0396 12.8762 57.353 12.7095L57.3361 12.7477Z" fill="url(#paint1_radial_0_17431)"/>
<g style="mix-blend-mode:multiply" opacity="0.5">
<path fill-rule="evenodd" clip-rule="evenodd" d="M66.9395 4.22345L71.551 5.23544C71.2156 5.03752 70.9111 4.84823 70.6217 4.66831C70.388 4.52301 70.1641 4.38383 69.9417 4.25115C69.3066 4.14032 68.6697 4.02136 68.0391 3.89236L67.3012 3.74521L66.9395 4.22345ZM65.1748 16.8974C62.9526 18.5372 60.5398 20.3176 58.5081 21.3929L58.4635 21.386C58.5769 21.5042 58.7021 21.6105 58.8372 21.7031C60.9242 20.5699 62.922 19.2796 64.8133 17.8434C65.0468 17.6802 65.2781 17.5183 65.5084 17.357L65.5094 17.3563L65.5094 17.3563L65.5095 17.3563C66.6346 16.5684 67.7347 15.7981 68.9433 14.985C69.0213 14.9325 69.1062 14.8755 69.1973 14.8145C70.8071 13.7359 74.3235 11.3798 74.8373 9.83995C75.0987 9.07594 74.7946 8.391 73.3408 8.00582C72.4407 7.78877 71.442 7.60923 70.4258 7.42655C69.3896 7.24026 68.3352 7.05071 67.3489 6.81482L67.0382 6.73428L67.0382 6.73427L67.0381 6.73424C66.5281 6.60221 66.0161 6.46964 65.5196 6.32755C65.4196 6.49533 65.3246 6.6662 65.2326 6.83169L65.2325 6.83182C65.1936 6.90182 65.1552 6.97087 65.1171 7.0383C65.6816 7.24931 66.2583 7.42565 66.8443 7.56633C67.698 7.75545 68.5802 7.91088 69.4522 8.06451C69.7814 8.1225 70.1091 8.18024 70.4333 8.23944C73.6869 8.83552 74.9952 9.40874 72.1304 11.8722C70.9618 12.8372 69.734 13.7282 68.4543 14.5401C67.4706 15.2034 66.3493 16.0307 65.1748 16.8974ZM57.7996 19.2911C60.1553 18.1992 62.3687 16.8236 64.3907 15.195C65.3916 14.4514 66.2588 13.5432 66.9553 12.5092C67.2364 12.0987 67.2595 11.5641 67.0148 11.131L67.5866 11.0419C66.4495 10.44 65.353 9.76444 64.3041 9.01947L64.3555 8.8703C65.4091 9.28466 66.4314 9.77417 67.4148 10.335C67.7905 10.5792 68.0525 10.9639 68.142 11.4028C68.1783 11.6094 68.1717 11.8212 68.1226 12.0252C68.0649 12.2464 67.9749 12.458 67.8556 12.6532C67.0213 13.7539 66.0177 14.7155 64.8822 15.5021C63.1409 16.8092 61.318 18.0039 59.4245 19.079C58.8917 19.3736 58.4083 19.6225 57.9563 19.8212L57.8416 19.3243L57.7996 19.2911ZM57.3463 17.3277C58.5703 16.6139 59.6806 15.7212 60.6406 14.6793C61.3897 13.8713 61.6957 13.2258 61.6449 12.6711C61.6327 12.4327 61.5786 12.1983 61.485 11.9786L62.6084 11.7879C62.7473 12.0341 62.831 12.3076 62.8535 12.5894C62.9595 13.9036 60.6269 15.8838 59.3223 16.7771C58.6791 17.2259 58.0798 17.6045 57.5037 17.9349L57.3664 17.3402L57.3463 17.3277ZM62.7239 21.0632C63.168 20.7805 63.6191 20.4819 64.0901 20.1701C64.6511 19.7988 65.2404 19.4087 65.8797 19.0046C69.0041 16.9961 72.168 15.0471 75.4047 13.2272C76.2407 12.7577 77.2104 12.2764 78.1883 11.7911C78.8192 11.4779 79.4535 11.1631 80.0575 10.8487L80.5721 11.219C79.831 11.6239 79.0473 12.0083 78.2775 12.3859C77.4083 12.8122 76.5569 13.2298 75.8046 13.6583C72.447 15.549 69.154 17.5707 65.9167 19.6482L64.5169 20.5377L62.7239 21.0632ZM79.8588 15.1937C77.6308 15.9011 75.5135 16.9185 73.5692 18.2161C72.2357 19.1145 70.8226 19.8889 69.3477 20.5294C68.8939 20.72 68.4582 20.915 68.0325 21.1162C68.2394 20.7853 68.4732 20.4224 68.7233 20.0557L69.1365 19.8745C70.5904 19.2434 71.9829 18.4795 73.2965 17.5926C75.4177 16.1812 77.7648 15.143 80.2362 14.5231L79.8588 15.1937ZM73.9761 20.9454C75.2086 20.4463 76.3301 19.9128 77.3946 19.3925L77.3983 19.4087L77.9519 18.4228C76.5138 19.0723 75.1045 19.698 73.7554 20.2498C72.4384 20.782 71.0921 21.361 69.7368 21.9438L69.7368 21.9438L69.7367 21.9438L69.7367 21.9438L69.7367 21.9438L69.7365 21.9439L69.7363 21.944L69.7361 21.9441L69.7359 21.9442C69.104 22.2159 68.4701 22.4885 67.8363 22.7576L68.3742 23.1912C70.023 22.5485 71.6723 21.8797 73.2754 21.2295L73.9761 20.9454ZM75.7365 22.1007C74.4675 22.6045 73.1729 23.0409 71.8579 23.4081C71.2311 23.5528 70.6156 23.7466 70.0002 23.9404C69.8634 23.9834 69.7267 24.0265 69.5898 24.069L69.0268 23.6755C69.87 23.3865 70.7596 23.1125 71.7093 22.876C73.236 22.4507 74.7369 21.938 76.2048 21.3405L75.7365 22.1007ZM70.8173 24.8497C72.0316 24.4578 73.2785 24.1699 74.615 23.8614L74.6231 23.8595L75.1221 23.0835L75.0569 23.0986C73.4171 23.4494 71.8029 23.9109 70.2255 24.48C70.4179 24.6072 70.6185 24.7325 70.8173 24.8497ZM73.4452 25.5988L72.6303 25.7869L71.9908 25.4712L72.4228 25.3715C72.9249 25.204 73.4227 25.0548 73.9304 24.9118C73.8949 24.9641 73.8602 25.0155 73.8263 25.0658L73.826 25.0662C73.6947 25.2606 73.5738 25.4396 73.4534 25.5969L73.4452 25.5988ZM58.7781 12.7838C58.7668 12.6781 58.7428 12.5741 58.7066 12.4742L58.711 12.456L58.1161 12.5934C58.3079 13.3128 57.871 14.0229 57.1952 14.814L56.8968 15.1574L57.0134 15.6626C57.2178 15.4695 57.4121 15.2702 57.5901 15.0746C58.1537 14.4953 58.5593 13.7813 58.768 13.0006C58.7808 12.9291 58.7842 12.8562 58.7781 12.7838Z" fill="#B7805C"/>
</g>
<g style="mix-blend-mode:multiply">
<path fill-rule="evenodd" clip-rule="evenodd" d="M73.3127 17.5889C72.0037 18.4894 70.6143 19.2669 69.1621 19.9115L68.749 20.0927C68.964 19.7599 69.2016 19.4133 69.4573 19.0711C67.8023 19.599 66.111 20.1182 64.5118 20.5904L65.9003 19.652C69.1376 17.5746 72.4344 15.5692 75.7883 13.6621C77.2006 12.8641 78.9578 12.0723 80.5332 11.2366C80.8398 11.449 81.13 11.6652 81.4059 11.8933C81.4611 12.0017 81.4888 12.1219 81.4867 12.2436C81.1232 12.9368 80.7031 13.7202 80.2355 14.5576C77.7641 15.1775 75.417 16.2157 73.2958 17.6271L73.3127 17.5889Z" fill="url(#paint2_radial_0_17431)"/>
</g>
<g style="mix-blend-mode:multiply">
<path fill-rule="evenodd" clip-rule="evenodd" d="M72.1628 11.8647C70.9943 12.8297 69.7665 13.7207 68.4868 14.5326C65.6419 16.4508 61.6462 19.7417 58.5405 21.3854C58.5011 21.342 58.4646 21.296 58.4315 21.2476C58.2866 20.8434 58.1274 20.3395 57.9631 19.7768C58.4151 19.578 58.8985 19.3292 59.4313 19.0345C61.3248 17.9595 63.1477 16.7647 64.889 15.4576C66.0245 14.6711 67.0281 13.7095 67.8623 12.6087C67.9817 12.4136 68.0716 12.202 68.1294 11.9807C68.1785 11.7768 68.1851 11.5649 68.1488 11.3584C68.0593 10.9194 67.7973 10.5347 67.4216 10.2906C66.4397 9.73056 65.4178 9.24371 64.3642 8.83399C64.6019 8.21181 64.8841 7.60751 65.2086 7.0258C65.7697 7.23881 66.3438 7.4158 66.9275 7.5557C68.0628 7.82563 69.2928 8.02221 70.5165 8.22882C73.762 8.82678 75.0785 9.39812 72.2136 11.8616L72.1628 11.8647Z" fill="url(#paint3_radial_0_17431)"/>
</g>
<g style="mix-blend-mode:multiply">
<path fill-rule="evenodd" clip-rule="evenodd" d="M74.0087 20.9379C75.2412 20.4389 76.3464 19.9091 77.4271 19.385C77.0234 20.0531 76.626 20.7113 76.2467 21.3738C74.7789 21.9713 73.2779 22.484 71.7513 22.9093C70.7978 23.1295 69.912 23.4198 69.0688 23.7088L68.4162 23.2245C70.3063 22.4878 72.197 21.7166 74.0181 20.9787L74.0087 20.9379Z" fill="url(#paint4_radial_0_17431)"/>
</g>
<g style="mix-blend-mode:screen">
<path fill-rule="evenodd" clip-rule="evenodd" d="M73.8532 22.793C74.4901 22.5773 75.1314 22.3435 75.769 22.0933L75.1421 23.0961L75.0769 23.1112C74.4331 23.2598 73.8056 23.4047 73.2025 23.5439C73.6844 23.4079 74.1555 23.2361 74.6118 23.0298C74.7025 22.9789 74.7421 22.8691 74.7046 22.7721C74.6671 22.675 74.5639 22.6204 74.4626 22.6438L73.8532 22.793ZM75.1577 20.4495C75.937 20.1066 76.7105 19.7392 77.4271 19.385C77.0234 20.0531 76.6259 20.7113 76.2467 21.3737C75.0067 21.8402 73.662 22.3738 72.4139 22.7306C73.4154 22.4569 74.361 22.0091 75.2073 21.4078C75.3515 21.2887 75.5865 20.6337 75.3859 20.5084L75.1577 20.4495ZM74.2524 17.7924C76.0077 16.6883 77.8973 15.8137 79.875 15.19C79.2594 16.2417 78.6551 17.3424 77.99 18.4398C76.898 18.9151 75.8141 19.3884 74.7734 19.826C75.6167 19.4768 76.4225 19.0436 77.1788 18.5327C77.6899 18.1292 78.0172 17.5372 78.0872 16.89C78.0608 16.7759 78.0176 16.5885 77.9085 16.5622C77.138 16.4226 75.4786 17.1918 74.2524 17.7924ZM79.3547 14.126C79.4559 13.768 79.3335 13.3842 79.0437 13.1509C78.8183 13.0432 78.564 13.0116 78.319 13.0607C76.8395 13.4374 75.4067 13.9783 74.0474 14.6733C74.6298 14.3329 75.2059 14.0026 75.792 13.6785C77.2044 12.8804 78.9616 12.0886 80.537 11.2529C80.8435 11.4653 81.1338 11.6815 81.4096 11.9096C81.4648 12.018 81.4926 12.1383 81.4905 12.2599C81.1269 12.9531 80.7069 13.7365 80.2393 14.5739C78.536 14.9946 76.8907 15.6223 75.3401 16.443C76.4744 15.7919 77.6411 15.1989 78.8356 14.6663C79.0609 14.5691 79.2406 14.3894 79.3378 14.1642L79.3547 14.126ZM80.0141 10.8845C78.4914 11.7252 76.7549 12.4951 75.4083 13.2436C74.3301 13.8529 73.2619 14.4685 72.1974 15.1004C73.7396 13.9721 75.4096 12.84 76.8746 11.8238C78.3397 10.8077 77.6068 9.93858 76.4665 9.05198C74.012 6.99978 71.178 5.44986 68.1255 4.4903L71.4092 5.21674L71.5709 5.24805C74.2171 6.89397 77.5554 9.08376 80.0611 10.8651L80.0141 10.8845ZM69.8382 4.24936L68.0427 3.90873L67.323 3.76596C67.4947 3.53418 67.6782 3.31137 67.8728 3.09842C68.3574 3.33837 69.0865 3.74499 69.9636 4.2719L69.8564 4.25374L69.8382 4.24936Z" fill="url(#paint5_linear_0_17431)"/>
</g>
<g style="mix-blend-mode:screen" opacity="0.75">
<path fill-rule="evenodd" clip-rule="evenodd" d="M67.3971 4.49545C66.8699 5.3723 66.2311 6.24917 65.5816 7.15425C65.1177 7.33858 64.5335 8.45171 64.2865 8.9807C65.1588 6.83276 66.3594 4.83316 67.8453 3.05331C72.5301 5.73059 77.0623 8.66632 81.4209 11.8469C78.7653 10.3834 75.5042 8.52759 72.6982 6.74695C71.3102 5.86603 69.8576 5.07725 68.5154 4.13427C68.2333 3.93776 68.0085 3.66982 67.8641 3.35789C67.7893 3.76542 67.6302 4.15287 67.3971 4.49545Z" fill="#CA9E67"/>
</g>
<g style="mix-blend-mode:screen" opacity="0.75">
<path fill-rule="evenodd" clip-rule="evenodd" d="M57.4195 12.9601C56.8415 13.9517 57.0678 15.6757 57.2917 17.0914C57.05 16.0175 56.8652 14.9316 56.7381 13.8383C56.7794 13.5713 57.0308 12.9126 57.3442 12.7458C59.6355 12.2597 63.6872 11.5903 67.6134 11.01C64.4789 11.8662 61.2937 12.5242 58.0765 12.9801C57.8599 12.986 57.6433 12.9787 57.4276 12.9582L57.4195 12.9601Z" fill="#CA9E67"/>
</g>
<g style="mix-blend-mode:multiply" opacity="0.5">
<path fill-rule="evenodd" clip-rule="evenodd" d="M74.8473 10.0693C74.4862 11.0709 73.5785 12.0098 72.02 13.2535C71.4224 13.7391 70.7992 14.1923 70.1532 14.6113C69.5783 14.9842 68.9464 15.2589 68.3697 15.6237C67.198 16.349 66.0502 17.1031 64.8923 17.851C66.2671 16.89 67.6337 15.9309 69.0223 14.9925C70.4108 14.0541 74.0161 11.7115 74.8247 10.0831L74.8473 10.0693Z" fill="#683C11"/>
</g>
<g style="mix-blend-mode:screen">
<path fill-rule="evenodd" clip-rule="evenodd" d="M78.9103 17.5923C78.1505 19.6555 75.4744 24.0148 73.3737 27.0741C71.5909 26.3517 69.9696 25.2821 68.6042 23.9275C70.0677 24.8761 71.6009 25.7126 73.1906 26.4298C75.2468 23.6983 77.1205 20.5112 78.8777 17.5998L78.9103 17.5923Z" fill="url(#paint6_radial_0_17431)"/>
</g>
<path fill-rule="evenodd" clip-rule="evenodd" d="M176.838 58.0816C180.236 57.9527 183.639 58.0165 187.03 58.2726C185.948 57.7242 184.959 57.0092 184.099 56.1537C184.114 55.8624 184.171 55.5747 184.268 55.2996C185.469 53.3325 186.923 51.5319 188.594 49.9441C190.664 51.4416 197.228 57.1789 200.811 60.5165C200.925 60.8625 200.958 61.2303 200.905 61.591C197.776 66.1945 194.393 70.6207 190.773 74.8489C188.79 73.5253 187.025 71.9015 185.541 70.0358C185.468 69.6711 185.436 69.2997 185.444 68.928C186.201 68.1356 187.073 67.4623 188.031 66.9306C184.31 67.5835 180.159 68.2153 177.505 68.4978C177.106 68.3147 176.781 67.9991 176.588 67.6045C176.104 64.9557 175.869 62.2675 175.885 59.575C175.959 58.9655 176.299 58.4198 176.813 58.0838L176.838 58.0816Z" fill="url(#paint7_linear_0_17431)"/>
<path fill-rule="evenodd" clip-rule="evenodd" d="M176.838 58.0816C179.174 57.9191 183.28 57.8201 187.248 57.7918C186.199 57.0471 185.2 56.2345 184.257 55.3594C185.412 53.3401 186.875 51.5131 188.594 49.9441C192.86 53.2473 196.94 56.7852 200.813 60.5414C200.853 60.6593 200.864 60.785 200.845 60.9079C197.679 65.2695 194.275 69.4536 190.649 73.4413C188.692 72.2142 186.936 70.6917 185.444 68.928C186.213 67.8798 187.052 66.884 187.953 65.947C185.587 66.3471 183.145 66.7371 180.996 67.0341C181.804 66.6697 182.608 66.272 183.536 65.8383C182.715 66.0445 181.892 66.234 181.124 66.4858C180.868 66.5734 180.619 66.6822 180.38 66.811C180.181 66.9253 179.99 67.0542 179.81 67.1967C179.026 67.2652 178.307 67.3869 177.657 67.4521C177.266 67.2875 176.943 66.9924 176.745 66.6171C176.63 66.0732 176.518 65.3696 176.425 64.5888C177.273 64.3517 178.105 64.063 178.918 63.7244C178.087 63.9613 177.229 64.0899 176.366 64.1072C176.169 62.4268 176.083 60.7352 176.107 59.0435C176.185 58.7849 176.526 58.1676 176.86 58.0461L176.838 58.0816Z" fill="url(#paint8_radial_0_17431)"/>
<g style="mix-blend-mode:multiply" opacity="0.5">
<path fill-rule="evenodd" clip-rule="evenodd" d="M187.534 50.9768L191.96 52.6208C191.655 52.3781 191.38 52.1483 191.118 51.9298C190.907 51.7534 190.705 51.5844 190.503 51.4221C189.889 51.224 189.275 51.0175 188.669 50.802L187.959 50.5536L187.534 50.9768ZM184.022 63.2819C181.594 64.5964 178.957 66.0237 176.795 66.8058L176.752 66.7928C176.848 66.9256 176.957 67.0482 177.078 67.1588C179.302 66.327 181.46 65.3273 183.533 64.1684C183.787 64.0392 184.038 63.911 184.289 63.7834L184.29 63.7829L184.29 63.7829L184.29 63.7828C185.514 63.1592 186.71 62.5495 188.02 61.9125C188.105 61.8714 188.197 61.8268 188.296 61.7791C190.04 60.935 193.85 59.0912 194.573 57.6378C194.938 56.9176 194.732 56.1971 193.346 55.6133C192.485 55.2731 191.521 54.9563 190.54 54.634C189.54 54.3053 188.522 53.9708 187.579 53.6L187.282 53.477L187.282 53.477L187.282 53.4769C186.795 53.2752 186.307 53.0726 185.835 52.8628C185.713 53.0151 185.595 53.1711 185.48 53.3221L185.48 53.3223C185.432 53.3862 185.384 53.4492 185.337 53.5107C185.867 53.7982 186.414 54.0531 186.974 54.2739C187.793 54.58 188.645 54.8567 189.487 55.1302C189.805 55.2335 190.122 55.3362 190.435 55.44C193.574 56.4831 194.789 57.2328 191.61 59.2736C190.318 60.0665 188.978 60.778 187.598 61.4039C186.532 61.9238 185.306 62.5871 184.022 63.2819ZM176.386 64.6258C178.871 63.8724 181.254 62.8183 183.483 61.4869C184.577 60.8898 185.563 60.1112 186.396 59.1841C186.732 58.8167 186.829 58.2906 186.647 57.8277L187.226 57.819C186.183 57.0647 185.192 56.2431 184.257 55.3594L184.328 55.2188C185.314 55.7758 186.258 56.4028 187.154 57.0951C187.492 57.3892 187.698 57.8066 187.725 58.2537C187.733 58.4633 187.697 58.6722 187.62 58.8673C187.532 59.0784 187.413 59.2754 187.268 59.452C186.288 60.426 185.161 61.2385 183.927 61.8594C182.021 62.9114 180.049 63.8408 178.024 64.6419C177.456 64.8595 176.943 65.0387 176.467 65.1726L176.423 64.6645L176.386 64.6258ZM176.21 62.6184C177.522 62.0819 178.745 61.3525 179.841 60.4543C180.695 59.7584 181.088 59.1617 181.115 58.6054C181.136 58.3676 181.115 58.128 181.053 57.8974L182.192 57.8649C182.295 58.1281 182.34 58.4106 182.323 58.6928C182.245 60.0089 179.66 61.6452 178.244 62.3482C177.544 62.7031 176.898 62.9947 176.282 63.2417L176.228 62.6336L176.21 62.6184ZM181.016 67.066C181.495 66.8479 181.983 66.615 182.493 66.3718C183.1 66.0821 183.738 65.7778 184.427 65.4666C187.801 63.9125 191.205 62.4228 194.663 61.0711C195.557 60.7226 196.584 60.3809 197.62 60.0363C198.288 59.8141 198.96 59.5906 199.602 59.3633L200.06 59.8016C199.27 60.0994 198.44 60.371 197.625 60.6378C196.705 60.939 195.804 61.234 195 61.5537C191.411 62.9587 187.869 64.5024 184.374 66.1091L182.864 66.7952L181.016 67.066ZM198.801 63.6384C196.496 64.0287 194.258 64.7416 192.152 65.756C190.706 66.4601 189.199 67.0302 187.649 67.4593C187.173 67.5848 186.715 67.7173 186.265 67.8573C186.516 67.5584 186.798 67.2316 187.097 66.9033L187.531 66.7813C189.059 66.3587 190.544 65.7961 191.968 65.1006C194.265 63.9981 196.734 63.2967 199.268 63.0268L198.801 63.6384ZM192.175 68.5153C193.465 68.1927 194.649 67.8204 195.776 67.4533L195.777 67.4699L196.463 66.5707C194.948 67.0137 193.466 67.4372 192.053 67.7958C190.675 68.1396 189.261 68.5255 187.838 68.914L187.838 68.914L187.838 68.9141L187.838 68.9141L187.838 68.9141L187.837 68.9141L187.837 68.9142L187.837 68.9142L187.837 68.9143C187.173 69.0954 186.508 69.2772 185.842 69.4554L186.315 69.9597C188.037 69.5527 189.763 69.1199 191.441 68.6992L192.175 68.5153ZM193.757 69.9045C192.43 70.2267 191.088 70.4786 189.734 70.6593C189.093 70.7153 188.457 70.8216 187.821 70.9278C187.679 70.9514 187.538 70.9751 187.396 70.9981L186.894 70.5301C187.769 70.3612 188.688 70.2137 189.661 70.1117C191.232 69.903 192.79 69.6042 194.327 69.2167L193.757 69.9045ZM188.503 71.942C189.76 71.7229 191.035 71.6114 192.402 71.4919L192.41 71.4911L193.012 70.7922L192.945 70.798C191.273 70.9172 189.61 71.1496 187.969 71.4936C188.141 71.6463 188.323 71.7983 188.503 71.942ZM191.001 73.0496L190.168 73.1225L189.579 72.7208L190.02 72.6822C190.541 72.5863 191.055 72.5077 191.577 72.4368C191.535 72.4837 191.493 72.5297 191.453 72.5748L191.452 72.5751C191.295 72.7494 191.151 72.9099 191.01 73.0488L191.001 73.0496ZM178.26 58.318C178.264 58.2118 178.255 58.1055 178.233 58.0015L178.24 57.9841L177.631 58.0373C177.721 58.7764 177.19 59.4189 176.41 60.1081L176.067 60.4068L176.112 60.9232C176.342 60.7604 176.562 60.5901 176.765 60.4212C177.404 59.926 177.905 59.2753 178.22 58.5313C178.243 58.4623 178.256 58.3906 178.26 58.318Z" fill="#B7805C"/>
</g>
<g style="mix-blend-mode:multiply">
<path fill-rule="evenodd" clip-rule="evenodd" d="M191.985 65.0991C190.563 65.8086 189.079 66.3852 187.551 66.8215L187.117 66.9434C187.376 66.6438 187.66 66.3336 187.961 66.0303C186.248 66.3228 184.501 66.6015 182.852 66.8465L184.358 66.1105C187.852 64.5038 191.396 62.9768 194.983 61.5551C196.493 60.9614 198.343 60.4218 200.019 59.8135C200.293 60.0665 200.551 60.321 200.792 60.5852C200.832 60.7003 200.842 60.8232 200.823 60.9434C200.367 61.5792 199.842 62.2966 199.262 63.0608C196.729 63.3307 194.26 64.0321 191.963 65.1346L191.985 65.0991Z" fill="url(#paint9_radial_0_17431)"/>
</g>
<g style="mix-blend-mode:multiply">
<path fill-rule="evenodd" clip-rule="evenodd" d="M191.643 59.2707C190.351 60.0636 189.012 60.7751 187.631 61.401C184.547 62.9046 180.132 65.6074 176.828 66.8029C176.795 66.7544 176.765 66.7037 176.739 66.6512C176.652 66.2308 176.565 65.7097 176.48 65.1295C176.956 64.9956 177.469 64.8164 178.037 64.5988C180.062 63.7978 182.034 62.8684 183.94 61.8163C185.174 61.1954 186.301 60.3829 187.281 59.4089C187.426 59.2323 187.545 59.0353 187.633 58.8242C187.71 58.6291 187.746 58.4202 187.738 58.2106C187.711 57.7635 187.505 57.3461 187.167 57.052C186.272 56.3608 185.328 55.7365 184.342 55.1841C184.664 54.601 185.028 54.0419 185.43 53.511C185.956 53.8 186.5 54.0552 187.058 54.275C188.145 54.7003 189.336 55.0661 190.519 55.4411C193.649 56.4849 194.874 57.2339 191.694 59.2746L191.643 59.2707Z" fill="url(#paint10_radial_0_17431)"/>
</g>
<g style="mix-blend-mode:multiply">
<path fill-rule="evenodd" clip-rule="evenodd" d="M192.208 68.5124C193.498 68.1897 194.666 67.8189 195.809 67.4503C195.317 68.0558 194.831 68.6522 194.364 69.2554C192.827 69.6429 191.269 69.9417 189.698 70.1504C188.723 70.2357 187.806 70.3999 186.931 70.5688L186.352 69.9983C188.326 69.5319 190.306 69.0313 192.212 68.554L192.208 68.5124Z" fill="url(#paint11_radial_0_17431)"/>
</g>
<g style="mix-blend-mode:screen">
<path fill-rule="evenodd" clip-rule="evenodd" d="M191.796 70.3278C192.457 70.2028 193.124 70.0605 193.79 69.9015L193.03 70.8073L192.963 70.8131C192.305 70.8707 191.664 70.9269 191.047 70.9808C191.543 70.9132 192.034 70.8086 192.514 70.6678C192.611 70.6301 192.666 70.5268 192.642 70.4255C192.618 70.3242 192.524 70.2557 192.42 70.2648L191.796 70.3278ZM193.414 68.1887C194.233 67.9575 195.05 67.7014 195.809 67.4503C195.317 68.0558 194.831 68.6522 194.364 69.2554C193.071 69.5448 191.665 69.886 190.379 70.0656C191.409 69.934 192.408 69.6222 193.33 69.1445C193.489 69.0466 193.813 68.4307 193.632 68.2787L193.414 68.1887ZM192.887 65.4314C194.779 64.5823 196.772 63.9792 198.817 63.6368C198.061 64.5927 197.31 65.5985 196.498 66.5927C195.351 66.9113 194.212 67.2292 193.12 67.5177C194.004 67.2893 194.862 66.9724 195.682 66.5718C196.244 66.2433 196.651 65.7026 196.81 65.0714C196.8 64.9548 196.783 64.7632 196.679 64.722C195.935 64.4765 194.185 65.0073 192.887 65.4314ZM198.45 62.5107C198.6 62.1703 198.532 61.7732 198.278 61.5018C198.07 61.3638 197.822 61.2971 197.573 61.3117C196.055 61.4788 194.561 61.815 193.118 62.3141C193.742 62.0581 194.359 61.8111 194.984 61.5717C196.494 60.978 198.344 60.4385 200.021 59.8302C200.295 60.0832 200.552 60.3376 200.793 60.6019C200.833 60.7169 200.844 60.8399 200.825 60.9601C200.368 61.5959 199.843 62.3133 199.264 63.0774C197.518 63.2569 195.802 63.6495 194.152 64.2464C195.366 63.7596 196.604 63.3347 197.861 62.9735C198.097 62.9086 198.3 62.7558 198.428 62.5462L198.45 62.5107ZM199.554 59.3926C197.929 60.0132 196.103 60.5339 194.665 61.0877C193.512 61.5411 192.369 62.002 191.227 62.4796C192.911 61.5769 194.722 60.6882 196.315 59.8859C197.907 59.0835 197.302 58.1208 196.296 57.0842C194.151 54.7103 191.56 52.7811 188.671 51.406L191.822 52.5824L191.978 52.6359C194.369 54.6341 197.37 57.2672 199.603 59.3799L199.554 59.3926ZM190.401 51.4058L188.67 50.8186L187.977 50.5771C188.18 50.3714 188.392 50.1763 188.615 49.9925C189.061 50.2976 189.727 50.8017 190.522 51.4456L190.418 51.4127L190.401 51.4058Z" fill="url(#paint12_linear_0_17431)"/>
</g>
<g style="mix-blend-mode:screen" opacity="0.75">
<path fill-rule="evenodd" clip-rule="evenodd" d="M187.949 51.3098C187.305 52.1048 186.55 52.8842 185.781 53.6901C185.296 53.8081 184.563 54.829 184.245 55.3185C185.407 53.3129 186.875 51.4998 188.594 49.9441C192.86 53.2473 196.94 56.7852 200.813 60.5415C198.387 58.7226 195.416 56.431 192.885 54.2772C191.633 53.2117 190.305 52.2284 189.107 51.1078C188.855 50.8739 188.67 50.5773 188.57 50.2483C188.439 50.6415 188.228 51.003 187.949 51.3098Z" fill="#CA9E67"/>
</g>
<g style="mix-blend-mode:screen" opacity="0.75">
<path fill-rule="evenodd" clip-rule="evenodd" d="M176.891 58.3035C176.18 59.205 176.164 60.9437 176.189 62.3768C176.099 61.2797 176.067 60.1787 176.094 59.0783C176.172 58.8196 176.512 58.2023 176.846 58.0808C179.183 57.9183 183.288 57.8193 187.257 57.7911C184.034 58.2027 180.788 58.411 177.538 58.4147C177.323 58.3904 177.11 58.353 176.899 58.3028L176.891 58.3035Z" fill="#CA9E67"/>
</g>
<g style="mix-blend-mode:multiply" opacity="0.5">
<path fill-rule="evenodd" clip-rule="evenodd" d="M194.551 57.8663C194.054 58.8079 193.025 59.6114 191.308 60.626C190.649 61.0237 189.969 61.3858 189.27 61.7108C188.649 62.0001 187.985 62.1841 187.363 62.4651C186.102 63.0203 184.861 63.6073 183.61 64.1868C185.105 63.4265 186.592 62.6669 188.098 61.9309C189.603 61.1948 193.499 59.3768 194.527 57.8768L194.551 57.8663Z" fill="#683C11"/>
</g>
<g style="mix-blend-mode:screen">
<path fill-rule="evenodd" clip-rule="evenodd" d="M197.528 65.8816C196.488 67.819 193.231 71.7634 190.725 74.5006C189.06 73.5371 187.604 72.2523 186.44 70.7209C187.757 71.8639 189.159 72.9056 190.634 73.8371C193.05 71.4183 195.349 68.523 197.494 65.8845L197.528 65.8816Z" fill="url(#paint13_radial_0_17431)"/>
</g>
<path fill-rule="evenodd" clip-rule="evenodd" d="M4.12332 43.0315C7.38529 42.0857 10.6983 41.3258 14.0463 40.7554C12.8668 40.4815 11.7369 40.0263 10.6971 39.4061C10.6407 39.1199 10.6263 38.827 10.6543 38.5366C11.3387 36.3375 12.3121 34.239 13.5491 32.2959C15.9209 33.2478 23.6794 37.2263 27.9645 39.5975C28.1591 39.9056 28.2793 40.2547 28.3157 40.6173C26.3921 45.8415 24.1796 50.9549 21.6883 55.9339C19.4461 55.1278 17.3429 53.9785 15.4539 52.5271C15.2955 52.1908 15.1741 51.8383 15.0919 51.4757C15.6343 50.5263 16.3153 49.663 17.1122 48.9142C13.6665 50.4455 9.78247 52.0658 7.28323 52.9795C6.85091 52.8986 6.45989 52.6708 6.1764 52.3348C5.06632 49.8817 4.18779 47.3302 3.55226 44.7137C3.48178 44.096 3.69123 43.479 4.12332 43.0315Z" fill="url(#paint14_linear_0_17431)"/>
<path fill-rule="evenodd" clip-rule="evenodd" d="M4.12329 43.0314C6.35187 42.3083 10.3125 41.2187 14.1576 40.2307C12.9561 39.7485 11.7876 39.1879 10.6597 38.5523C11.2943 36.3305 12.269 34.2201 13.5491 32.2958C18.4892 34.4684 23.3045 36.9139 27.9726 39.6212C28.0398 39.7259 28.0809 39.8451 28.0924 39.969C26.0745 44.9673 23.783 49.8509 21.2282 54.5977C19.0339 53.8793 16.9641 52.8262 15.0919 51.4756C15.5797 50.2743 16.1473 49.1069 16.791 47.9812C13.3398 49.4968 9.67184 51.025 7.16988 51.9307C6.75005 51.8657 6.36572 51.6575 6.0821 51.3414C5.02984 49.0304 4.20125 46.6241 3.60767 44.1551C3.62094 43.8853 3.80219 43.2039 4.09658 43.0052L4.12329 43.0314Z" fill="url(#paint15_radial_0_17431)"/>
<g style="mix-blend-mode:multiply" opacity="0.5">
<path fill-rule="evenodd" clip-rule="evenodd" d="M12.7937 33.5198C13.2377 33.1901 13.6764 32.871 14.1495 32.549C14.1016 32.5298 14.0551 32.511 14.0098 32.4927C13.8416 32.4248 13.6912 32.3641 13.5573 32.3196C13.2803 32.7049 13.0254 33.1057 12.7937 33.5198ZM12.8777 34.9852L12.8778 34.9852L12.8778 34.9852L12.8778 34.9851C13.7144 34.3531 14.5694 33.7073 15.4249 33.1179C15.2016 33.0091 14.9838 32.9161 14.7872 32.8334C13.9676 33.472 13.1484 34.1495 12.3408 34.8174L12.3408 34.8174L11.9391 35.1494L11.566 35.9676C11.9963 35.6511 12.4343 35.3202 12.8774 34.9854L12.8775 34.9854L12.8777 34.9852ZM10.7606 38.1511L10.7328 38.1734L10.7566 38.1653L10.7606 38.1511ZM10.7606 38.1511L11.6963 37.3996C13.2661 36.1251 14.8858 34.8157 16.5967 33.6429L15.943 33.3375C14.7015 34.2566 13.5323 35.2812 12.371 36.2989L12.371 36.2989C11.9032 36.7088 11.4367 37.1176 10.9672 37.5179C10.8894 37.7433 10.8164 37.9585 10.7606 38.1511ZM3.73245 44.4659L3.76154 44.4477L3.77226 44.4788L3.73245 44.4659ZM3.76154 44.4477L3.67426 44.1942C3.67931 44.1132 3.69002 44.0327 3.70632 43.9532L4.27435 43.5984C4.88712 43.2194 5.47616 42.8486 6.04393 42.4674C6.22769 42.4136 6.41923 42.3628 6.61587 42.3106L6.61589 42.3106L6.6159 42.3106C6.96978 42.2166 7.34018 42.1183 7.71138 41.9905C6.64107 42.6597 5.58386 43.3156 4.51083 43.9768L3.76154 44.4477ZM13.7435 37.3318C13.05 37.9446 12.3517 38.5615 11.6338 39.1454L10.9956 38.8081C11.7255 38.2296 12.4579 37.6325 13.2137 37.0009C13.521 36.7529 13.8266 36.5027 14.1324 36.2524C14.7776 35.7243 15.4237 35.1954 16.0883 34.6846C16.4323 34.4247 16.7633 34.1781 17.0918 33.95L17.5995 34.1908C17.5248 34.2459 17.4494 34.3012 17.3735 34.3569C17.0833 34.5699 16.7843 34.7893 16.4805 35.0271C15.5538 35.7324 14.6528 36.5285 13.7436 37.3318L13.7436 37.3318L13.7435 37.3318ZM4.20135 46.4445L4.22974 46.4241L4.23299 46.4336L4.20135 46.4445ZM4.22974 46.4241L4.00433 45.7695L4.25965 45.5844L4.2597 45.5843C4.82379 45.1751 5.38559 44.7674 6.00919 44.3452C7.37559 43.3795 8.71255 42.3797 10.0255 41.3617L11.118 41.0651C9.61204 42.4217 8.0328 43.6946 6.38738 44.8782L4.22974 46.4241ZM18.1926 35.0654C16.2818 36.5013 14.4474 38.0361 12.6971 39.6636L12.3729 39.5188L14.2049 38.0037C14.7134 37.5829 15.2021 37.1368 15.6906 36.6908C16.4327 36.0134 17.1747 35.3361 17.9858 34.7475L18.2933 34.5355L18.6788 34.73L18.1926 35.0654ZM25.4169 46.1784C25.3539 45.9752 25.3285 45.7621 25.3421 45.5498C25.3553 45.352 25.4131 45.1598 25.5112 44.9875C25.6528 44.7432 25.8299 44.5213 26.0367 44.3291C26.1573 44.2168 26.2833 44.1203 26.4094 44.0239C26.0988 44.7409 25.7673 45.4741 25.3962 46.2209L25.4169 46.1784ZM23.0546 51.0718L23.0965 51.0805L23.0567 51.0677L23.0566 51.0679L23.0546 51.0718ZM21.8926 50.7965C22.2792 50.9023 22.6681 50.9909 23.0546 51.0718C22.9229 51.3283 22.7912 51.5847 22.6752 51.8357C20.9346 51.5862 18.9452 51.0508 18.4437 50.0828C18.0892 49.2059 18.1406 48.2171 18.5843 47.3815C20.2325 43.2768 22.2261 39.8667 25.9302 38.5205L26.8748 39.0795C23.0666 40.3289 21.1849 43.5501 19.6298 47.4371C19.3174 48.0841 19.3316 48.8409 19.6681 49.4755C19.983 50.0303 20.6724 50.465 21.8926 50.7965ZM21.7151 53.7758C20.7358 53.7327 19.682 53.6534 18.5301 53.546L18.4669 53.5678C19.0091 53.8321 19.5301 54.086 20.0744 54.2788L21.4188 54.3288L21.7233 53.7995L21.7151 53.7758ZM16.299 46.3467C15.7039 47.1883 15.0389 48.1866 14.5129 49.0487L13.2613 49.5769C13.6429 48.9509 14.17 48.2061 14.6982 47.4598C15.0387 46.9787 15.3797 46.497 15.6823 46.0462C16.1413 45.4019 16.5579 44.7886 16.9549 44.2041L16.9549 44.2041C18.89 41.3555 20.3591 39.1928 24.0019 37.4689L24.494 37.7416C20.4054 39.8947 19.2756 41.7003 17.7864 44.0803L17.7864 44.0803C17.3494 44.7786 16.8816 45.5263 16.299 46.3467ZM6.943 51.9912L6.96071 51.9713L6.99319 51.9828L6.943 51.9912ZM6.96071 51.9713C7.43057 51.4424 7.92842 50.9391 8.45212 50.4635C8.73623 50.2023 9.0251 49.9408 9.31427 49.679L9.31429 49.679L9.31431 49.679L9.31435 49.679C10.0581 49.0058 10.8038 48.3308 11.4754 47.6539C12.5971 46.5159 13.5641 45.1401 14.5375 43.7552C15.4534 42.4522 16.3749 41.1411 17.4362 40.0127C18.7689 38.575 20.3129 37.3486 22.015 36.3756L21.4354 36.08C19.8185 37.0443 18.3484 38.2354 17.0699 39.617C16.1532 40.5782 15.3483 41.607 14.5671 42.6277C13.3138 44.2388 11.9664 45.7746 10.532 47.2271C9.92305 47.8223 9.26486 48.426 8.60215 49.0339L8.60211 49.0339L8.60208 49.0339L8.60206 49.034L8.60205 49.034L8.60204 49.034C7.74465 49.8205 6.8797 50.6138 6.10394 51.4047C6.34087 51.6586 6.63451 51.8527 6.96071 51.9713ZM7.59353 46.2879C6.69851 47.1653 5.82285 48.0238 4.97325 48.8404L4.99103 48.7636L4.70248 47.9256C5.88021 46.8745 7.0394 45.821 8.19314 44.7517C8.95942 44.0055 9.71158 43.2641 10.4637 42.5228L10.4638 42.5227L10.4639 42.5226C11.0907 41.9049 11.7174 41.2872 12.3523 40.6667L13.823 40.3636C11.6996 42.2624 9.59801 44.3228 7.59353 46.2879ZM13.9752 40.2405C15.8953 38.4882 17.9527 36.8926 20.1278 35.4691L19.5403 35.1762C17.2713 36.5336 15.1498 38.1236 13.2102 39.9203L13.9594 40.2459L13.9752 40.2405ZM25.9349 41.7465C26.4708 41.4096 27.0543 41.155 27.6658 40.9914L27.4643 41.4853C26.9795 41.6239 26.5179 41.8335 26.0945 42.1072C25.6349 42.4111 25.2067 42.76 24.8162 43.1487C24.1095 43.8412 23.5584 44.676 23.1996 45.5978C22.6327 47.1636 23.2458 47.9164 24.3565 48.4182L24.1258 48.9045C23.5937 48.6879 23.1103 48.3673 22.7039 47.9615C22.6532 47.898 22.6066 47.8313 22.5644 47.7619C22.2471 47.0242 22.2827 46.1821 22.6613 45.4736C23.0874 44.498 23.705 43.6178 24.4776 42.885C24.9255 42.4594 25.4135 42.0781 25.9349 41.7465Z" fill="#B7805C"/>
</g>
<g style="mix-blend-mode:multiply">
<path fill-rule="evenodd" clip-rule="evenodd" d="M6.10882 51.3676C7.49783 50.0051 9.16449 48.6265 10.5369 47.19C11.9713 45.7376 13.3187 44.2018 14.572 42.5906C15.3848 41.5591 16.1897 40.5303 17.0748 39.58C18.3309 38.2174 19.7774 37.0432 21.3693 36.0939L21.4485 36.0667L20.1589 35.4053L20.0798 35.4326C17.9351 36.8539 15.9045 38.4401 14.0063 40.1767L14.1391 40.2283L13.8622 40.3236L13.5187 40.6365L13.2013 40.9226C10.3505 43.5136 7.56562 46.3473 5.01249 48.8004C5.32441 49.6829 5.68159 50.5486 6.08262 51.3943L6.10882 51.3676Z" fill="url(#paint16_radial_0_17431)"/>
</g>
<g style="mix-blend-mode:multiply">
<path fill-rule="evenodd" clip-rule="evenodd" d="M19.6795 47.3757C19.3671 48.0227 19.3813 48.7796 19.7177 49.4142C20.001 49.9798 20.6904 50.4145 21.9423 50.7351C22.3428 50.8448 22.7458 50.9359 23.1461 51.0192C23.4678 50.3602 23.8103 49.6586 24.1838 48.8933C23.6518 48.6767 23.1683 48.3561 22.7619 47.9503C22.6917 47.8923 22.6256 47.8293 22.5643 47.7619C22.2368 47.0187 22.2695 46.1661 22.6531 45.4499C23.0926 44.443 23.736 43.538 24.5428 42.7918C24.9907 42.3662 25.4787 41.9849 26.0001 41.6533C26.536 41.3164 27.1195 41.0618 27.731 40.8982L28.1238 39.9317C28.1132 39.8105 28.073 39.6938 28.0068 39.5917L26.9585 38.9888C23.1716 40.2485 21.2978 43.467 19.7452 47.3354L19.6795 47.3757Z" fill="url(#paint17_radial_0_17431)"/>
</g>
<g style="mix-blend-mode:multiply">
<path fill-rule="evenodd" clip-rule="evenodd" d="M23.1998 45.6243C22.6329 47.1901 23.2406 47.9271 24.3568 48.4447C24.7145 47.6849 25.0827 46.9037 25.435 46.128C25.3719 45.9248 25.3466 45.7118 25.3601 45.4994C25.3733 45.3016 25.4311 45.1094 25.5293 44.9371C25.6709 44.6929 25.8479 44.471 26.0547 44.2787C26.1753 44.1664 26.3014 44.07 26.4274 43.9735C26.8002 43.1288 27.1547 42.3082 27.4754 41.5434C26.9907 41.6821 26.5291 41.8917 26.1057 42.1653C25.646 42.4693 25.2178 42.8181 24.8273 43.2068C24.1207 43.8993 23.5696 44.7342 23.2107 45.6559L23.1998 45.6243Z" fill="url(#paint18_radial_0_17431)"/>
</g>
<g style="mix-blend-mode:screen">
<path fill-rule="evenodd" clip-rule="evenodd" d="M3.97379 43.1625C3.82034 43.4005 3.71338 43.6654 3.65857 43.9431L4.2266 43.5884C4.80526 43.2388 5.35475 42.8816 5.89633 42.5271L6.00707 42.4889C5.30303 42.7314 4.65112 42.8939 4.11839 43.0685L3.98468 43.1942L3.97379 43.1625ZM4.01715 45.7298C4.6687 45.2578 5.33608 44.7804 6.022 44.3055L7.56167 43.2005L6.69925 43.7539C6.46788 43.9043 4.59648 45.1766 4.47731 45.1645C4.35814 45.1525 4.35414 45.0124 4.33211 44.9227C4.30181 44.7641 4.29666 44.6018 4.31687 44.4416C4.31829 44.3601 4.34739 44.2815 4.39938 44.2186C4.62157 44.0286 4.8578 43.8556 5.10605 43.7012L5.94397 43.0766L4.48707 43.9851L3.70869 44.4742C3.8339 44.8378 3.9097 45.2892 4.03297 45.7243L4.01715 45.7298ZM6.37128 44.8573L4.20625 46.4075C4.37775 46.9055 4.55741 47.4273 4.73435 47.9412C5.91208 46.8901 7.07127 45.8366 8.22501 44.7672L8.85947 44.1685L7.80703 45.0438C7.12213 45.6245 6.45084 46.2447 5.76322 46.8175C5.59005 46.9769 5.39432 47.1098 5.18235 47.2121C5.12028 47.2375 5.04891 47.2188 5.00729 47.1663C4.91998 47.0153 4.86268 46.8488 4.83852 46.6761C4.82014 46.5354 4.83788 46.3924 4.89006 46.2604C4.93661 46.119 5.01713 45.9911 5.12456 45.8879C5.52596 45.5374 5.94071 45.2001 6.35546 44.8627L6.37128 44.8573ZM7.89262 45.9605L4.99916 48.7873C5.31109 49.6698 5.66827 50.5356 6.06929 51.3813C7.45831 50.0187 9.12496 48.6401 10.4974 47.2036C11.6476 46.0471 12.6501 44.9237 13.6411 43.7159L12.2474 45.142C10.9375 46.4773 9.79293 47.6761 8.36061 48.9387C7.82563 49.5334 7.15208 49.9871 6.39973 50.2594C6.27134 50.2751 6.14229 50.2361 6.04417 50.1519C5.66947 49.7472 5.51852 49.1839 5.64069 48.646C5.68508 48.5101 5.7518 48.3825 5.83811 48.2685C6.47171 47.4484 7.15415 46.6671 7.88173 45.9289L7.89262 45.9605ZM8.45209 50.4635C7.92376 50.9306 7.42074 51.4256 6.94518 51.9463C7.01689 51.9647 7.09103 51.972 7.16498 51.9679C8.82621 51.3959 10.9843 50.4936 13.2635 49.532C13.7559 48.7522 14.4318 47.7855 15.0607 46.8881C14.7733 47.2612 14.478 47.637 14.1587 47.9945C13.7459 48.4344 13.2897 48.8315 12.7971 49.1797C12.2823 49.5347 11.7373 49.8437 11.1683 50.103C10.5987 50.3477 10.0117 50.5498 9.41218 50.7077C9.10317 50.8106 8.77877 50.8594 8.4532 50.8522C8.32612 50.8429 8.54455 50.4494 8.78178 50.0847L8.39893 50.4376L8.45209 50.4635Z" fill="url(#paint19_linear_0_17431)"/>
</g>
<g style="mix-blend-mode:screen" opacity="0.75">
<path fill-rule="evenodd" clip-rule="evenodd" d="M13.254 33.777C12.5308 35.3259 11.4759 37.0421 10.644 38.5578C11.283 36.3331 12.263 34.2207 13.5492 32.2958C18.4893 34.4684 23.3046 36.9139 27.9727 39.6212C25.7997 38.7069 23.2704 37.6058 20.8333 36.4642C20.5863 36.2136 20.2922 36.0143 19.9678 35.8779C19.9282 35.8915 19.7005 35.8726 19.5284 35.8611C19.2547 35.7343 19.0314 35.6255 18.7735 35.4932L17.7102 34.9751C17.6119 34.8587 17.5037 34.751 17.387 34.653C17.2634 34.6356 17.138 34.6342 17.0139 34.6489C16.097 34.2218 15.244 33.8258 14.3582 33.3349C14.0615 33.163 13.8112 32.9213 13.6291 32.6309C13.6034 33.0432 13.4882 33.445 13.2913 33.8084L13.254 33.777Z" fill="#CA9E67"/>
</g>
<g style="mix-blend-mode:screen" opacity="0.75">
<path fill-rule="evenodd" clip-rule="evenodd" d="M4.19682 43.2449C3.72544 44.2915 4.13071 45.9824 4.50127 47.367C4.14866 46.3243 3.85138 45.2636 3.61069 44.1895C3.62395 43.9197 3.8052 43.2382 4.09959 43.0396C6.32818 42.3165 10.2888 41.2268 14.1339 40.2389C11.1052 41.4184 8.00527 42.406 4.85247 43.196C4.63769 43.2245 4.42138 43.2399 4.20473 43.2422L4.19682 43.2449Z" fill="#CA9E67"/>
</g>
<g style="mix-blend-mode:multiply" opacity="0.5">
<path fill-rule="evenodd" clip-rule="evenodd" d="M17.452 40.0072C15.2627 42.3351 13.6683 45.4397 11.4912 47.6485C11.0379 48.1052 10.5554 48.5543 10.0705 49.0219C10.462 48.7456 10.8508 48.4614 11.2129 48.151C12.0632 47.5072 12.8396 46.7713 13.5278 45.9568C13.7342 45.6823 14.1875 44.6861 14.5626 44.0795C14.8253 43.6637 15.1176 43.2675 15.4375 42.8939C15.6858 42.5873 16.0329 42.3617 16.2706 42.0499C17.3006 40.5824 18.4596 39.2097 19.7338 37.9481C18.9278 38.5899 18.1689 39.2886 17.4629 40.0388L17.452 40.0072Z" fill="#683C11"/>
</g>
<g style="mix-blend-mode:screen" opacity="0.5">
<path fill-rule="evenodd" clip-rule="evenodd" d="M19.5624 44.5687C18.7226 46.37 18.1933 47.9937 18.2677 48.8523C18.3095 48.3365 18.4341 47.8308 18.6369 47.3546C19.4938 44.9056 20.8199 42.6468 22.541 40.7045C21.2156 41.6874 20.1852 43.0148 19.5621 44.5423L19.5624 44.5687Z" fill="#CA9E67"/>
</g>
<g style="mix-blend-mode:screen">
<path fill-rule="evenodd" clip-rule="evenodd" d="M26.0753 45.598C25.5271 47.7322 23.3282 52.3449 21.5581 55.6073C19.7172 55.0739 18.0026 54.1756 16.5164 52.966C18.0713 53.7563 19.6839 54.4279 21.3403 54.9749C23.1004 52.0431 24.6314 48.6773 26.0753 45.598L26.0753 45.598Z" fill="url(#paint20_radial_0_17431)"/>
</g>
<path fill-rule="evenodd" clip-rule="evenodd" d="M119.651 26.7229C122.804 27.9859 125.882 29.4268 128.872 31.0386C128.111 30.0965 127.501 29.0422 127.063 27.9133C127.195 27.6531 127.364 27.4134 127.565 27.2018C129.458 25.8903 131.517 24.8359 133.688 24.0663C134.971 26.2766 138.636 34.1883 140.552 38.695C140.516 39.0576 140.396 39.4068 140.201 39.7149C135.469 42.6473 130.578 45.3145 125.549 47.7042C124.278 45.6887 123.329 43.4882 122.734 41.1814C122.816 40.8189 122.937 40.4663 123.096 40.13C124.108 39.7159 125.176 39.4548 126.265 39.3553C122.607 38.4406 118.549 37.3262 116.017 36.5075C115.726 36.1776 115.558 35.7574 115.541 35.3181C116.177 32.7015 117.055 30.1501 118.165 27.697C118.49 27.1668 119.035 26.8095 119.651 26.7229Z" fill="url(#paint21_linear_0_17431)"/>
<path fill-rule="evenodd" clip-rule="evenodd" d="M119.651 26.723C121.853 27.5252 125.644 29.1049 129.283 30.6937C128.633 29.574 128.057 28.4128 127.56 27.2176C129.427 25.8575 131.495 24.7945 133.688 24.0663C136.244 28.8198 138.532 33.7115 140.544 38.7188C140.533 38.8427 140.492 38.9619 140.424 39.0666C135.757 41.763 130.945 44.2006 126.009 46.3682C124.722 44.4512 123.74 42.3469 123.096 40.13C124.22 39.4837 125.386 38.9133 126.586 38.4225C122.933 37.492 119.102 36.4381 116.573 35.6114C116.282 35.3017 116.107 34.901 116.079 34.4773C116.672 32.0084 117.501 29.602 118.553 27.2911C118.73 27.0866 119.292 26.6612 119.646 26.6859L119.651 26.723Z" fill="url(#paint22_radial_0_17431)"/>
<g style="mix-blend-mode:multiply" opacity="0.5">
<path fill-rule="evenodd" clip-rule="evenodd" d="M132.339 24.5657C132.892 24.5792 133.434 24.5979 134.006 24.6353C133.98 24.5908 133.954 24.5473 133.93 24.505C133.839 24.3479 133.758 24.2074 133.68 24.09C133.225 24.2231 132.777 24.3819 132.339 24.5657ZM131.503 25.7721L131.504 25.7721L131.504 25.7721L131.504 25.7721C132.552 25.7892 133.623 25.8066 134.66 25.8689C134.551 25.6457 134.437 25.4383 134.333 25.2521C133.294 25.2507 132.231 25.2802 131.184 25.3093L131.184 25.3093L130.663 25.3236L129.865 25.7387C130.399 25.7542 130.948 25.7631 131.503 25.7721L131.503 25.7721L131.503 25.7721ZM127.886 26.9635L127.85 26.964L127.874 26.9721L127.886 26.9635ZM127.886 26.9635L129.086 26.9473C131.108 26.9094 133.19 26.8748 135.26 27.0041L134.933 26.3608C133.389 26.3208 131.837 26.4084 130.295 26.4953L130.295 26.4953C129.674 26.5303 129.055 26.5653 128.439 26.5917C128.239 26.7213 128.049 26.846 127.886 26.9635ZM118.46 27.6126L118.494 27.6162L118.483 27.6473L118.46 27.6126ZM118.494 27.6162L118.581 27.3627C118.635 27.302 118.693 27.2451 118.755 27.1925L119.421 27.2627C120.137 27.3413 120.83 27.4117 121.512 27.4609C121.69 27.5316 121.872 27.6095 122.059 27.6894L122.059 27.6894L122.059 27.6894C122.396 27.8333 122.748 27.9838 123.119 28.1117C121.864 27.98 120.627 27.846 119.374 27.7065L118.494 27.6162ZM130.741 28.1543C129.817 28.2102 128.887 28.2664 127.962 28.2846L127.667 27.6258C128.598 27.6193 129.543 27.5997 130.527 27.5673C130.922 27.5611 131.317 27.5521 131.712 27.5431C132.546 27.5242 133.38 27.5052 134.218 27.5119C134.65 27.5189 135.062 27.5283 135.462 27.5508L135.713 28.0531C135.621 28.0505 135.527 28.0477 135.433 28.0449C135.073 28.0341 134.703 28.0229 134.317 28.0232C133.152 28.0085 131.952 28.0811 130.741 28.1543L130.741 28.1543L130.741 28.1543ZM117.611 29.4604L117.646 29.4619L117.643 29.4713L117.611 29.4604ZM117.646 29.4619L117.872 28.8073L118.187 28.8186L118.187 28.8186C118.883 28.8433 119.577 28.868 120.328 28.9192C122 28.9995 123.669 29.0348 125.33 29.0409L126.374 29.4798C124.352 29.6216 122.324 29.6524 120.298 29.5721L117.646 29.4619ZM135.642 29.1075C133.253 29.0625 130.862 29.1427 128.481 29.3476L128.315 29.0339L130.691 28.9678C131.351 28.9493 132.01 28.8986 132.67 28.848C133.672 28.771 134.674 28.6941 135.675 28.7297L136.048 28.7519L136.232 29.1425L135.642 29.1075ZM134.493 42.3124C134.569 42.1134 134.68 41.9299 134.821 41.7709C134.953 41.6232 135.117 41.5073 135.301 41.432C135.563 41.3267 135.839 41.2608 136.12 41.2366C136.284 41.2224 136.443 41.224 136.602 41.2256C135.916 41.5995 135.203 41.9731 134.451 42.3331L134.493 42.3124ZM129.619 44.714L129.647 44.7467L129.623 44.7121L129.623 44.7122L129.619 44.714ZM128.873 43.7817C129.112 44.1031 129.364 44.4123 129.619 44.714C129.357 44.835 129.096 44.9561 128.85 45.0825C127.632 43.8142 126.394 42.1675 126.595 41.0959C126.855 40.1867 127.504 39.4392 128.368 39.0538C132.194 36.834 135.865 35.3742 139.612 36.5939L140.013 37.616C136.242 36.2559 132.777 37.6358 129.158 39.7413C128.514 40.0588 128.059 40.664 127.933 41.3712C127.84 42.0022 128.115 42.7692 128.873 43.7817ZM126.899 46.0201C126.154 45.3833 125.372 44.672 124.53 43.8782L124.467 43.8564C124.732 44.3985 124.986 44.9194 125.296 45.4064L126.325 46.2735L126.891 46.0438L126.899 46.0201ZM127.205 36.8314C126.218 37.1283 125.079 37.5055 124.134 37.861L122.822 37.5067C123.508 37.2483 124.382 36.9859 125.258 36.7231C125.822 36.5536 126.388 36.3839 126.904 36.2149C127.662 35.9898 128.368 35.763 129.041 35.5469L129.041 35.5469C132.319 34.4935 134.808 33.6938 138.74 34.578L138.96 35.0959C134.413 34.2753 132.411 35.0026 129.772 35.9612L129.772 35.9612C128.998 36.2425 128.169 36.5436 127.205 36.8314ZM116.357 35.5193L116.383 35.5144L116.402 35.5435L116.357 35.5193ZM116.383 35.5144C117.079 35.387 117.781 35.2969 118.487 35.2445C118.871 35.2136 119.26 35.1854 119.649 35.1571L119.649 35.1571L119.649 35.1571L119.649 35.1571C120.65 35.0846 121.653 35.0118 122.599 34.8918C124.183 34.6857 125.792 34.1969 127.412 33.7049C128.936 33.2419 130.469 32.7761 132 32.5403C133.936 32.2279 135.907 32.212 137.848 32.4933L137.573 31.9035C135.705 31.6679 133.813 31.7014 131.955 32.003C130.641 32.1961 129.374 32.5112 128.13 32.8346C126.15 33.3325 124.143 33.7132 122.118 33.9747C121.272 34.0688 120.382 34.1393 119.485 34.2103L119.485 34.2103L119.485 34.2103L119.485 34.2103L119.485 34.2103L119.485 34.2103C118.325 34.3022 117.155 34.3949 116.057 34.5405C116.087 34.8865 116.199 35.2202 116.383 35.5144ZM120.381 31.4255C119.135 31.5659 117.917 31.7033 116.745 31.8237L116.806 31.7741L117.094 30.9361C118.67 30.8329 120.232 30.7164 121.799 30.5841C122.862 30.4678 123.912 30.3467 124.961 30.2256L124.961 30.2256L124.961 30.2256C125.835 30.1247 126.709 30.0238 127.592 29.9257L128.937 30.5923C126.095 30.7813 123.17 31.111 120.381 31.4255ZM129.133 30.589C131.725 30.3903 134.328 30.3997 136.919 30.617L136.636 30.0245C134.012 29.6972 131.362 29.644 128.727 29.8657L129.117 30.5836L129.133 30.589ZM137.63 39.139C138.26 39.2033 138.876 39.362 139.459 39.6095L138.996 39.8746C138.529 39.6854 138.036 39.5664 137.534 39.5214C136.984 39.4779 136.432 39.4892 135.885 39.5551C134.902 39.6657 133.954 39.9843 133.103 40.4897C131.693 41.3746 131.712 42.3453 132.279 43.4246L131.798 43.6656C131.512 43.1674 131.328 42.6172 131.258 42.0472C131.257 41.9659 131.261 41.8847 131.271 41.804C131.475 41.0273 132.021 40.3857 132.756 40.0605C133.692 39.554 134.721 39.2406 135.781 39.1389C136.396 39.0792 137.015 39.0792 137.63 39.139Z" fill="#B7805C"/>
</g>
<g style="mix-blend-mode:multiply">
<path fill-rule="evenodd" clip-rule="evenodd" d="M116.084 34.5144C118.017 34.2958 120.179 34.2356 122.145 33.9486C124.169 33.6871 126.177 33.3064 128.156 32.8085C129.432 32.496 130.7 32.1809 131.982 31.9769C133.811 31.6765 135.674 31.6418 137.512 31.8738L137.592 31.9011L136.983 30.586L136.903 30.5588C134.338 30.3584 131.762 30.3581 129.197 30.558L129.27 30.6804L128.993 30.585L128.529 30.62L128.103 30.6501C124.261 30.9368 120.322 31.4552 116.8 31.8164C116.503 32.7038 116.251 33.606 116.046 34.5193L116.084 34.5144Z" fill="url(#paint23_radial_0_17431)"/>
</g>
<g style="mix-blend-mode:multiply">
<path fill-rule="evenodd" clip-rule="evenodd" d="M129.235 39.7237C128.59 40.0412 128.136 40.6463 128.01 41.3535C127.885 41.9737 128.161 42.7406 128.95 43.764C129.198 44.097 129.459 44.417 129.724 44.729C130.383 44.4078 131.085 44.0658 131.85 43.6927C131.564 43.1944 131.381 42.6442 131.31 42.0742C131.291 41.9852 131.277 41.8949 131.27 41.8041C131.47 41.0168 132.021 40.365 132.764 40.0368C133.73 39.514 134.794 39.1969 135.889 39.1057C136.504 39.046 137.124 39.046 137.739 39.1057C138.369 39.1701 138.985 39.3287 139.568 39.5763L140.472 39.0565C140.538 38.9545 140.579 38.8378 140.589 38.7166L140.134 37.5961C136.375 36.2573 132.917 37.6399 129.312 39.7324L129.235 39.7237Z" fill="url(#paint24_radial_0_17431)"/>
</g>
<g style="mix-blend-mode:multiply">
<path fill-rule="evenodd" clip-rule="evenodd" d="M133.087 40.5107C131.677 41.3956 131.702 42.3504 132.263 43.4455C133.012 43.067 133.783 42.6781 134.539 42.2837C134.614 42.0848 134.725 41.9013 134.867 41.7423C134.999 41.5946 135.163 41.4787 135.346 41.4034C135.608 41.2981 135.884 41.2322 136.165 41.208C136.33 41.1938 136.488 41.1954 136.647 41.197C137.461 40.7609 138.245 40.3325 138.969 39.9272C138.502 39.7381 138.009 39.619 137.507 39.574C136.957 39.5305 136.405 39.5418 135.858 39.6077C134.875 39.7183 133.927 40.0369 133.076 40.5423L133.087 40.5107Z" fill="url(#paint25_radial_0_17431)"/>
</g>
<g style="mix-blend-mode:screen">
<path fill-rule="evenodd" clip-rule="evenodd" d="M119.453 26.7341C119.185 26.8272 118.938 26.9701 118.724 27.1552L119.39 27.2254C120.061 27.3061 120.714 27.363 121.359 27.417L121.47 27.4552C120.766 27.2127 120.152 26.9395 119.624 26.7491L119.442 26.7658L119.453 26.7341ZM117.906 28.7838C118.71 28.8131 119.53 28.8478 120.363 28.8958L122.257 28.973L121.236 28.8781C120.961 28.8542 118.703 28.7046 118.617 28.6217C118.53 28.5389 118.614 28.426 118.651 28.3418C118.725 28.1982 118.821 28.0671 118.936 27.9533C118.987 27.8899 119.058 27.8459 119.138 27.8284C119.43 27.8154 119.723 27.8246 120.013 27.8557L121.058 27.8794L119.351 27.6983L118.436 27.6045C118.311 27.9682 118.093 28.3706 117.922 28.7893L117.906 28.7838ZM120.299 29.5457L117.638 29.4343C117.467 29.9324 117.287 30.4541 117.11 30.968C118.685 30.8648 120.247 30.7483 121.815 30.616L122.683 30.5348L121.315 30.5766C120.418 30.6125 119.507 30.688 118.613 30.716C118.378 30.735 118.142 30.7192 117.912 30.6693C117.847 30.6511 117.803 30.5924 117.802 30.5254C117.826 30.3527 117.884 30.1862 117.971 30.0353C118.043 29.9131 118.145 29.8113 118.267 29.7394C118.391 29.6566 118.533 29.6054 118.682 29.5902C119.214 29.5612 119.748 29.5507 120.283 29.5402L120.299 29.5457ZM120.818 31.3517L116.798 31.7978C116.5 32.6852 116.249 33.5874 116.044 34.5007C117.977 34.2821 120.14 34.2219 122.105 33.9349C123.724 33.7317 125.205 33.4636 126.73 33.122L124.754 33.3877C122.899 33.6335 121.259 33.8735 119.353 33.9866C118.566 34.1259 117.756 34.0687 116.995 33.8201C116.884 33.7534 116.807 33.6432 116.781 33.5165C116.735 32.9669 116.963 32.43 117.39 32.0814C117.509 32.0017 117.64 31.9422 117.778 31.9055C118.782 31.6493 119.801 31.4538 120.829 31.32L120.818 31.3517ZM118.487 35.2445C117.783 35.2873 117.082 35.3677 116.386 35.4852C116.431 35.5439 116.485 35.5953 116.546 35.6375C118.207 36.2095 120.464 36.8272 122.852 37.4726C123.72 37.1614 124.848 36.8157 125.896 36.4957C125.439 36.6128 124.975 36.7271 124.504 36.8123C123.908 36.9048 123.304 36.9368 122.701 36.9078C122.077 36.8707 121.457 36.7786 120.849 36.6327C120.25 36.4748 119.663 36.2727 119.093 36.028C118.786 35.9188 118.5 35.7576 118.248 35.5515C118.154 35.4659 118.568 35.2903 118.98 35.149L118.461 35.1914L118.487 35.2445Z" fill="url(#paint26_linear_0_17431)"/>
</g>
<g style="mix-blend-mode:screen" opacity="0.75">
<path fill-rule="evenodd" clip-rule="evenodd" d="M132.544 25.0518C131.02 25.8271 129.132 26.53 127.544 27.2122C129.417 25.8526 131.49 24.7914 133.688 24.0663C136.244 28.8198 138.533 33.7115 140.544 38.7188C139.395 36.6605 138.08 34.2357 136.862 31.8356C136.822 31.4861 136.713 31.148 136.541 30.8407C136.501 30.8271 136.334 30.6721 136.205 30.5571C136.067 30.2886 135.958 30.0654 135.837 29.8024L135.318 28.7394C135.312 28.5872 135.293 28.4357 135.261 28.2867C135.175 28.1968 135.077 28.1184 134.97 28.0537C134.51 27.1526 134.082 26.3153 133.686 25.3832C133.558 25.0651 133.51 24.7206 133.545 24.3796C133.271 24.6887 132.933 24.9343 132.554 25.0995L132.544 25.0518Z" fill="#CA9E67"/>
</g>
<g style="mix-blend-mode:screen" opacity="0.75">
<path fill-rule="evenodd" clip-rule="evenodd" d="M119.578 26.9364C118.562 27.4709 117.84 29.0529 117.28 30.3721C117.644 29.3334 118.063 28.3145 118.534 27.3199C118.711 27.1155 119.273 26.6901 119.627 26.7148C121.829 27.517 125.621 29.0968 129.259 30.6856C126.146 29.7504 123.095 28.6201 120.124 27.3015C119.938 27.1918 119.758 27.0708 119.586 26.9391L119.578 26.9364Z" fill="#CA9E67"/>
</g>
<g style="mix-blend-mode:multiply" opacity="0.5">
<path fill-rule="evenodd" clip-rule="evenodd" d="M132.016 32.5457C128.858 33.0323 125.69 34.4972 122.615 34.8973C121.976 34.9781 121.319 35.035 120.649 35.1049C121.128 35.1283 121.609 35.1437 122.086 35.122C123.152 35.1382 124.217 35.0362 125.261 34.8181C125.593 34.7289 126.563 34.223 127.232 33.9758C127.695 33.8099 128.169 33.6777 128.651 33.5802C129.036 33.4915 129.448 33.5274 129.828 33.4281C131.543 32.9058 133.301 32.5376 135.082 32.328C134.052 32.3375 133.024 32.4208 132.005 32.5774L132.016 32.5457Z" fill="#683C11"/>
</g>
<g style="mix-blend-mode:screen" opacity="0.5">
<path fill-rule="evenodd" clip-rule="evenodd" d="M130.871 37.4395C129.1 38.3419 127.683 39.2955 127.213 40.018C127.564 39.6372 127.974 39.3154 128.426 39.065C130.609 37.6628 133.045 36.6992 135.597 36.2283C133.948 36.1868 132.318 36.5985 130.887 37.4185L130.871 37.4395Z" fill="#CA9E67"/>
</g>
<g style="mix-blend-mode:screen">
<path fill-rule="evenodd" clip-rule="evenodd" d="M135.369 42.2604C133.624 43.6047 129.051 45.8857 125.648 47.3667C124.525 45.813 123.727 44.0495 123.301 42.1814C124.04 43.7614 124.897 45.2834 125.865 46.7343C129.057 45.5076 132.336 43.798 135.369 42.2604V42.2604Z" fill="url(#paint27_radial_0_17431)"/>
</g>
<path fill-rule="evenodd" clip-rule="evenodd" d="M238.046 33.9857C241.12 32.5413 244.273 31.2725 247.491 30.1854C246.283 30.0993 245.096 29.8265 243.972 29.3766C243.871 29.1027 243.811 28.8156 243.793 28.5244C244.125 26.2454 244.759 24.0204 245.676 21.9078C248.168 22.4769 256.453 25.1927 261.056 26.8644C261.297 27.1383 261.47 27.4643 261.563 27.8167C260.48 33.2775 259.095 38.6741 257.413 43.9815C255.072 43.5361 252.815 42.73 250.723 41.5919C250.513 41.2846 250.338 40.9553 250.2 40.6101C250.588 39.5876 251.125 38.6283 251.795 37.764C248.631 39.8155 245.049 42.0235 242.723 43.3169C242.284 43.3046 241.862 43.1408 241.529 42.8533C240.049 40.604 238.782 38.2214 237.745 35.7365C237.579 35.1374 237.689 34.4952 238.046 33.9857Z" fill="url(#paint28_linear_0_17431)"/>
<path fill-rule="evenodd" clip-rule="evenodd" d="M238.046 33.9857C240.134 32.9228 243.875 31.2271 247.519 29.6497C246.256 29.3615 245.015 28.9905 243.801 28.5392C244.081 26.2455 244.713 24.0085 245.676 21.9078C250.895 23.2808 256.034 24.9429 261.068 26.8866C261.151 26.9795 261.21 27.0909 261.241 27.2114C260.03 32.4638 258.53 37.6458 256.75 42.7338C254.47 42.3675 252.261 41.6511 250.201 40.6101C250.494 39.3472 250.872 38.1054 251.332 36.8929C248.16 38.9297 244.777 41.0129 242.447 42.2989C242.022 42.3003 241.61 42.1548 241.281 41.887C239.88 39.769 238.685 37.5219 237.713 35.1763C237.683 34.9076 237.756 34.2063 238.016 33.964L238.046 33.9857Z" fill="url(#paint29_radial_0_17431)"/>
<g style="mix-blend-mode:multiply" opacity="0.5">
<path fill-rule="evenodd" clip-rule="evenodd" d="M245.122 23.2349C245.509 22.8398 245.892 22.456 246.309 22.0639C246.259 22.0525 246.21 22.0412 246.162 22.0302C245.985 21.9894 245.827 21.953 245.688 21.93C245.475 22.3539 245.286 22.7896 245.122 23.2349ZM245.434 24.6691L245.434 24.669L245.434 24.669L245.434 24.669C246.161 23.9139 246.905 23.1423 247.658 22.4263C247.42 22.3538 247.19 22.296 246.983 22.2451C246.274 23.004 245.571 23.8013 244.877 24.5873L244.877 24.5874L244.533 24.9781L244.292 25.8446C244.667 25.4647 245.048 25.0693 245.434 24.6693L245.434 24.6693L245.434 24.6691ZM243.838 28.1272L243.814 28.1536L243.836 28.1418L243.838 28.1272ZM243.838 28.1272L244.645 27.2385C245.996 25.7342 247.391 24.1875 248.897 22.7616L248.204 22.5621C247.121 23.6642 246.127 24.8591 245.139 26.0458L245.139 26.0459C244.741 26.5239 244.344 27.0007 243.943 27.4695C243.901 27.7042 243.863 27.9282 243.838 28.1272ZM237.884 35.4637L237.91 35.4411L237.926 35.4702L237.884 35.4637ZM237.91 35.4411L237.784 35.2044C237.777 35.1236 237.775 35.0424 237.778 34.9614L238.284 34.5221C238.83 34.0519 239.354 33.5935 239.855 33.1282C240.028 33.0463 240.209 32.9661 240.395 32.8838L240.395 32.8838L240.395 32.8838C240.73 32.7357 241.08 32.5806 241.427 32.3963C240.475 33.2247 239.533 34.0379 238.577 34.8589L237.91 35.4411ZM246.656 26.8514C246.067 27.5651 245.474 28.2836 244.856 28.9727L244.173 28.7393C244.803 28.0538 245.433 27.3495 246.081 26.6074C246.346 26.3144 246.608 26.0195 246.871 25.7244C247.426 25.1019 247.981 24.4784 248.558 23.87C248.857 23.5594 249.145 23.264 249.434 22.9874L249.973 23.1458C249.908 23.2119 249.842 23.2783 249.776 23.3452C249.523 23.601 249.262 23.8645 248.999 24.1469C248.194 24.9885 247.429 25.9157 246.656 26.8513L246.656 26.8513L246.656 26.8514ZM238.657 37.3446L238.682 37.32L238.687 37.3289L238.657 37.3446ZM238.682 37.32L238.357 36.7087L238.58 36.4859L238.58 36.4859C239.073 35.9934 239.564 35.5029 240.114 34.9883C241.313 33.8208 242.477 32.6242 243.614 31.4133L244.647 30.9494C243.372 32.5248 242.011 34.0292 240.571 35.4556L238.682 37.32ZM250.696 23.9169C249.033 25.634 247.462 27.4369 245.987 29.3182L245.645 29.2258L247.217 27.4428C247.653 26.9476 248.066 26.4306 248.479 25.9136C249.106 25.1285 249.733 24.3435 250.442 23.6353L250.712 23.3778L251.124 23.5095L250.696 23.9169ZM259.57 33.7629C259.476 33.572 259.417 33.3656 259.397 33.1537C259.38 32.9563 259.407 32.7574 259.477 32.5719C259.578 32.3085 259.718 32.0616 259.893 31.8394C259.994 31.7096 260.104 31.5946 260.213 31.4796C260.018 32.2365 259.806 33.0125 259.556 33.8081L259.57 33.7629ZM258.002 38.9656L258.045 38.9677L258.003 38.9612L258.003 38.9614L258.002 38.9656ZM256.811 38.8754C257.21 38.9195 257.608 38.9462 258.002 38.9656C257.912 39.2395 257.822 39.5134 257.747 39.7795C255.989 39.8053 253.94 39.5878 253.293 38.7101C252.806 37.8995 252.702 36.9148 253.009 36.02C253.995 31.708 255.431 28.028 258.879 26.119L259.899 26.5234C256.333 28.3531 254.979 31.829 254.051 35.9114C253.843 36.5993 253.976 37.3446 254.407 37.9187C254.805 38.4174 255.554 38.7389 256.811 38.8754ZM257.102 41.8458C256.128 41.9565 255.075 42.043 253.92 42.1171L253.861 42.1485C254.438 42.3247 254.992 42.494 255.56 42.5994L256.896 42.4384L257.114 41.868L257.102 41.8458ZM250.59 35.3555C250.134 36.2798 249.634 37.3699 249.249 38.3036L248.095 39.0211C248.374 38.3431 248.779 37.525 249.183 36.7053C249.445 36.1769 249.706 35.6478 249.934 35.1551C250.287 34.447 250.602 33.776 250.903 33.1367L250.903 33.1367C252.369 30.0205 253.481 27.6546 256.81 25.382L257.338 25.5744C253.637 28.3405 252.803 30.3006 251.705 32.8843L251.705 32.8843C251.383 33.6423 251.037 34.454 250.59 35.3555ZM242.233 42.3941L242.247 42.3716L242.281 42.3779L242.233 42.3941ZM242.247 42.3716C242.628 41.7758 243.041 41.2008 243.484 40.6491C243.724 40.3467 243.968 40.0432 244.213 39.7395L244.213 39.7394L244.213 39.7394L244.213 39.7394C244.842 38.9581 245.473 38.1748 246.031 37.4012C246.961 36.1017 247.7 34.5916 248.445 33.0715C249.146 31.6412 249.851 30.2022 250.723 28.9215C251.814 27.2931 253.147 25.8402 254.676 24.613L254.058 24.4117C252.611 25.617 251.346 27.0235 250.299 28.5881C249.544 29.6808 248.91 30.8229 248.298 31.9532C247.312 33.7405 246.222 35.4682 245.032 37.1272C244.524 37.8103 243.968 38.5096 243.409 39.2136L243.409 39.2137L243.409 39.2137L243.409 39.2137L243.409 39.2138L243.409 39.2138C242.685 40.1247 241.955 41.0436 241.312 41.946C241.586 42.1598 241.906 42.3056 242.247 42.3716ZM241.983 36.6592C241.236 37.6659 240.506 38.6508 239.794 39.5903L239.8 39.5116L239.384 38.729C240.382 37.5067 241.363 36.2848 242.335 35.0481C242.975 34.1912 243.602 33.3414 244.229 32.4915L244.229 32.4914L244.229 32.4913C244.751 31.7831 245.274 31.075 245.804 30.3628L247.209 29.8334C245.409 32.041 243.655 34.4047 241.983 36.6592ZM247.34 29.688C248.962 27.6569 250.745 25.7591 252.67 24.0128L252.044 23.8154C250.016 25.5111 248.169 27.4134 246.534 29.4914L247.325 29.6958L247.34 29.688ZM259.388 29.3046C259.865 28.8879 260.401 28.5452 260.98 28.2879L260.858 28.8073C260.401 29.0201 259.978 29.2993 259.602 29.6359C259.196 30.0079 258.827 30.4195 258.502 30.8645C257.913 31.659 257.499 32.5698 257.289 33.5363C256.974 35.1716 257.697 35.8191 258.873 36.141L258.721 36.6574C258.162 36.5267 257.634 36.2857 257.169 35.9485C257.109 35.8937 257.053 35.8351 257 35.7732C256.571 35.0942 256.475 34.2569 256.738 33.4979C257.006 32.4676 257.478 31.5016 258.127 30.657C258.503 30.1666 258.925 29.7136 259.388 29.3046Z" fill="#B7805C"/>
</g>
<g style="mix-blend-mode:multiply">
<path fill-rule="evenodd" clip-rule="evenodd" d="M241.311 41.9086C242.47 40.3455 243.9 38.7232 245.031 37.0897C246.221 35.4308 247.311 33.7031 248.297 31.9157C248.939 30.7698 249.573 29.6277 250.298 28.5507C251.326 27.0083 252.571 25.6223 253.994 24.4357L254.068 24.3964L252.691 23.9449L252.617 23.9842C250.721 25.7235 248.964 27.6078 247.361 29.6201L247.5 29.6502L247.241 29.7877L246.951 30.1504L246.682 30.4827C244.272 33.4877 241.965 36.7222 239.827 39.5445C240.273 40.3673 240.761 41.1666 241.289 41.9391L241.311 41.9086Z" fill="url(#paint30_radial_0_17431)"/>
</g>
<g style="mix-blend-mode:multiply">
<path fill-rule="evenodd" clip-rule="evenodd" d="M254.09 35.843C253.883 36.5309 254.015 37.2762 254.447 37.8503C254.815 38.3647 255.564 38.6862 256.851 38.807C257.263 38.8527 257.676 38.8797 258.084 38.8993C258.299 38.198 258.527 37.4516 258.776 36.6372C258.217 36.5065 257.689 36.2655 257.225 35.9283C257.146 35.882 257.071 35.8301 257 35.7731C256.56 35.0903 256.459 34.2431 256.726 33.4757C257.003 32.4124 257.496 31.4179 258.177 30.5547C258.552 30.0642 258.975 29.6113 259.438 29.2023C259.914 28.7856 260.451 28.4429 261.029 28.1856L261.266 27.1696C261.237 27.0516 261.179 26.9426 261.097 26.8521L259.968 26.4206C256.424 28.2572 255.077 31.7292 254.149 35.7929L254.09 35.843Z" fill="url(#paint31_radial_0_17431)"/>
</g>
<g style="mix-blend-mode:multiply">
<path fill-rule="evenodd" clip-rule="evenodd" d="M257.293 33.5623C256.978 35.1976 257.694 35.8304 258.877 36.1671C259.112 35.3606 259.353 34.5315 259.58 33.7102C259.486 33.5194 259.427 33.3129 259.407 33.1011C259.39 32.9037 259.417 32.7047 259.487 32.5192C259.588 32.2558 259.728 32.009 259.902 31.7867C260.004 31.657 260.113 31.542 260.223 31.427C260.459 30.5344 260.681 29.6684 260.878 28.8628C260.421 29.0756 259.998 29.3549 259.622 29.6914C259.216 30.0635 258.847 30.4751 258.523 30.9201C257.933 31.7145 257.519 32.6253 257.309 33.5919L257.293 33.5623Z" fill="url(#paint32_radial_0_17431)"/>
</g>
<g style="mix-blend-mode:screen">
<path fill-rule="evenodd" clip-rule="evenodd" d="M237.919 34.1386C237.804 34.3976 237.74 34.676 237.73 34.9589L238.235 34.5196C238.752 34.0838 239.239 33.645 239.718 33.2102L239.822 33.1552C239.164 33.5048 238.546 33.7673 238.047 34.0231L237.935 34.1681L237.919 34.1386ZM238.363 36.6674C238.933 36.0993 239.517 35.5234 240.121 34.947L241.468 33.6148L240.703 34.2963C240.498 34.4811 238.849 36.0304 238.729 36.0372C238.61 36.0439 238.584 35.9062 238.548 35.821C238.493 35.6691 238.463 35.5096 238.458 35.3482C238.446 35.2675 238.463 35.1853 238.504 35.1151C238.694 34.8927 238.9 34.6849 239.121 34.4935L239.851 33.7455L238.554 34.8707L237.862 35.4755C238.043 35.8151 238.188 36.2491 238.378 36.6596L238.363 36.6674ZM240.552 35.4374L238.656 37.3072C238.903 37.7723 239.162 38.2595 239.418 38.7394C240.416 37.517 241.396 36.2951 242.369 35.0585L242.902 34.3679L241.999 35.397C241.414 36.0777 240.848 36.7953 240.258 37.4687C240.112 37.6531 239.939 37.8151 239.746 37.9492C239.689 37.984 239.615 37.9767 239.566 37.9313C239.456 37.7959 239.373 37.6404 239.323 37.4736C239.282 37.3376 239.278 37.1935 239.308 37.055C239.332 36.908 239.392 36.7691 239.482 36.6503C239.823 36.2414 240.18 35.8433 240.537 35.4452L240.552 35.4374ZM242.227 36.2891L239.811 39.5337C240.258 40.3565 240.746 41.1557 241.274 41.9283C242.433 40.3652 243.863 38.7429 244.994 37.1094C245.949 35.7871 246.764 34.5208 247.554 33.1728L246.4 34.7994C245.315 36.3232 244.372 37.6863 243.155 39.1573C242.72 39.8285 242.126 40.3819 241.425 40.7685C241.301 40.8041 241.167 40.7858 241.057 40.718C240.624 40.3769 240.386 39.8441 240.423 39.2938C240.446 39.1526 240.492 39.0162 240.559 38.8901C241.056 37.9809 241.608 37.1025 242.211 36.2596L242.227 36.2891ZM243.484 40.6491C243.035 41.1931 242.616 41.7607 242.228 42.3493C242.301 42.3564 242.376 42.3519 242.448 42.3363C243.999 41.5114 245.99 40.2827 248.091 38.9763C248.455 38.1292 248.971 37.0686 249.452 36.0838C249.227 36.4973 248.994 36.9147 248.734 37.3178C248.395 37.8168 248.007 38.2804 247.575 38.7013C247.122 39.1325 246.632 39.523 246.111 39.8681C245.586 40.1989 245.038 40.4903 244.471 40.7401C244.181 40.89 243.869 40.9891 243.546 41.0329C243.419 41.0435 243.573 40.6207 243.75 40.2234L243.428 40.6318L243.484 40.6491Z" fill="url(#paint33_linear_0_17431)"/>
</g>
<g style="mix-blend-mode:screen" opacity="0.75">
<path fill-rule="evenodd" clip-rule="evenodd" d="M245.616 23.4168C245.145 25.0598 244.371 26.9199 243.787 28.547C244.07 26.2498 244.707 24.0101 245.676 21.9077C250.896 23.2807 256.034 24.9429 261.068 26.8865C258.779 26.3234 256.109 25.6316 253.523 24.8852C253.24 24.6764 252.918 24.5256 252.576 24.4416C252.539 24.4612 252.312 24.4782 252.14 24.4938C251.85 24.4113 251.612 24.3388 251.337 24.2485L250.205 23.903C250.09 23.8035 249.966 23.714 249.836 23.6355C249.711 23.6376 249.587 23.6558 249.467 23.6898C248.494 23.4113 247.59 23.1537 246.638 22.8074C246.318 22.6841 246.033 22.4845 245.808 22.2261C245.847 22.6374 245.796 23.0523 245.658 23.4419L245.616 23.4168Z" fill="#CA9E67"/>
</g>
<g style="mix-blend-mode:screen" opacity="0.75">
<path fill-rule="evenodd" clip-rule="evenodd" d="M238.152 34.185C237.85 35.2925 238.515 36.8992 239.098 38.2088C238.586 37.234 238.127 36.2329 237.721 35.2097C237.692 34.9411 237.764 34.2397 238.024 33.9975C240.112 32.9346 243.853 31.2388 247.497 29.6615C244.69 31.3003 241.782 32.7607 238.792 34.0342C238.584 34.0959 238.373 34.145 238.159 34.1811L238.152 34.185Z" fill="#CA9E67"/>
</g>
<g style="mix-blend-mode:multiply" opacity="0.5">
<path fill-rule="evenodd" clip-rule="evenodd" d="M250.737 28.9136C248.939 31.5553 247.85 34.8711 246.045 37.3933C245.669 37.9153 245.263 38.4343 244.857 38.9721C245.201 38.6379 245.54 38.2964 245.849 37.9332C246.588 37.1643 247.24 36.316 247.792 35.4038C247.953 35.1005 248.245 34.0456 248.521 33.3877C248.715 32.936 248.942 32.499 249.199 32.08C249.397 31.7383 249.704 31.4612 249.89 31.116C250.678 29.5054 251.608 27.9683 252.669 26.523C251.973 27.2829 251.333 28.0917 250.753 28.9432L250.737 28.9136Z" fill="#683C11"/>
</g>
<g style="mix-blend-mode:screen" opacity="0.5">
<path fill-rule="evenodd" clip-rule="evenodd" d="M253.535 33.0887C252.988 34.9992 252.719 36.6857 252.927 37.5222C252.887 37.0062 252.931 36.4872 253.057 35.9851C253.52 33.4322 254.477 30.9938 255.873 28.8061C254.718 29.9843 253.908 31.4566 253.531 33.0627L253.535 33.0887Z" fill="#CA9E67"/>
</g>
<g style="mix-blend-mode:screen">
<path fill-rule="evenodd" clip-rule="evenodd" d="M260.129 33.0865C259.922 35.2802 258.471 40.1801 257.233 43.6792C255.332 43.4403 253.498 42.8214 251.841 41.8591C253.5 42.3965 255.198 42.8074 256.919 43.0886C258.199 39.9176 259.185 36.3538 260.129 33.0865V33.0865Z" fill="url(#paint34_radial_0_17431)"/>
</g>
<defs>
<linearGradient id="paint0_linear_0_17431" x1="60.1525" y1="30.4869" x2="54.5344" y2="6.15207" gradientUnits="userSpaceOnUse">
<stop stop-color="#692705"/>
<stop offset="1" stop-color="#823B00"/>
</linearGradient>
<radialGradient id="paint1_radial_0_17431" cx="0" cy="0" r="1" gradientUnits="userSpaceOnUse" gradientTransform="translate(77.5427 -2.09768) rotate(167) scale(27.2714 26.0381)">
<stop stop-color="#BD8A60"/>
<stop offset="1" stop-color="#A85021"/>
</radialGradient>
<radialGradient id="paint2_radial_0_17431" cx="0" cy="0" r="1" gradientUnits="userSpaceOnUse" gradientTransform="translate(66.5549 25.276) rotate(167) scale(23.988 7.77709)">
<stop stop-color="#CFA04D"/>
<stop offset="1" stop-color="white"/>
</radialGradient>
<radialGradient id="paint3_radial_0_17431" cx="0" cy="0" r="1" gradientUnits="userSpaceOnUse" gradientTransform="translate(58.7878 4.20041) rotate(167) scale(26.0622 18.3987)">
<stop stop-color="#CFA04D"/>
<stop offset="1" stop-color="white"/>
</radialGradient>
<radialGradient id="paint4_radial_0_17431" cx="0" cy="0" r="1" gradientUnits="userSpaceOnUse" gradientTransform="translate(72.12 28.299) rotate(167) scale(15.8498 3.83401)">
<stop stop-color="#CFA04D"/>
<stop offset="1" stop-color="white"/>
</radialGradient>
<linearGradient id="paint5_linear_0_17431" x1="89.8133" y1="28.3064" x2="68.9747" y2="33.1173" gradientUnits="userSpaceOnUse">
<stop stop-color="#CA9E67"/>
<stop offset="0.65"/>
</linearGradient>
<radialGradient id="paint6_radial_0_17431" cx="0" cy="0" r="1" gradientUnits="userSpaceOnUse" gradientTransform="translate(73.4195 27.4582) rotate(167) scale(17.6982 12.3369)">
<stop stop-color="#B0670B"/>
<stop offset="1"/>
</radialGradient>
<linearGradient id="paint7_linear_0_17431" x1="177.158" y1="76.0401" x2="174.981" y2="51.1602" gradientUnits="userSpaceOnUse">
<stop stop-color="#692705"/>
<stop offset="1" stop-color="#823B00"/>
</linearGradient>
<radialGradient id="paint8_radial_0_17431" cx="0" cy="0" r="1" gradientUnits="userSpaceOnUse" gradientTransform="translate(198.914 46.1929) rotate(175) scale(27.2714 26.0381)">
<stop stop-color="#BD8A60"/>
<stop offset="1" stop-color="#A85021"/>
</radialGradient>
<radialGradient id="paint9_radial_0_17431" cx="0" cy="0" r="1" gradientUnits="userSpaceOnUse" gradientTransform="translate(184.223 71.7709) rotate(175) scale(23.988 7.77709)">
<stop stop-color="#CFA04D"/>
<stop offset="1" stop-color="white"/>
</radialGradient>
<radialGradient id="paint10_radial_0_17431" cx="0" cy="0" r="1" gradientUnits="userSpaceOnUse" gradientTransform="translate(179.465 49.8195) rotate(175) scale(26.0622 18.3987)">
<stop stop-color="#CFA04D"/>
<stop offset="1" stop-color="white"/>
</radialGradient>
<radialGradient id="paint11_radial_0_17431" cx="0" cy="0" r="1" gradientUnits="userSpaceOnUse" gradientTransform="translate(189.313 75.5389) rotate(175) scale(15.8498 3.83401)">
<stop stop-color="#CFA04D"/>
<stop offset="1" stop-color="white"/>
</radialGradient>
<linearGradient id="paint12_linear_0_17431" x1="206.833" y1="78.0087" x2="185.528" y2="79.8727" gradientUnits="userSpaceOnUse">
<stop stop-color="#CA9E67"/>
<stop offset="0.65"/>
</linearGradient>
<radialGradient id="paint13_radial_0_17431" cx="0" cy="0" r="1" gradientUnits="userSpaceOnUse" gradientTransform="translate(190.717 74.8874) rotate(175) scale(17.6982 12.3369)">
<stop stop-color="#B0670B"/>
<stop offset="1"/>
</radialGradient>
<linearGradient id="paint14_linear_0_17431" x1="32.3795" y1="52.2526" x2="24.2485" y2="28.6383" gradientUnits="userSpaceOnUse">
<stop stop-color="#692705"/>
<stop offset="1" stop-color="#823B00"/>
</linearGradient>
<radialGradient id="paint15_radial_0_17431" cx="0" cy="0" r="1" gradientUnits="userSpaceOnUse" gradientTransform="translate(0.543153 33.7732) rotate(-19) scale(27.2863 26.0381)">
<stop stop-color="#BD8A60"/>
<stop offset="1" stop-color="#A85021"/>
</radialGradient>
<radialGradient id="paint16_radial_0_17431" cx="0" cy="0" r="1" gradientUnits="userSpaceOnUse" gradientTransform="translate(5.79733 30.1102) rotate(-19) scale(26.9985 14.4483)">
<stop stop-color="#CFA04D"/>
<stop offset="1" stop-color="white"/>
</radialGradient>
<radialGradient id="paint17_radial_0_17431" cx="0" cy="0" r="1" gradientUnits="userSpaceOnUse" gradientTransform="translate(33.1267 48.6791) rotate(-19) scale(19.1591 17.5163)">
<stop stop-color="#CFA04D"/>
<stop offset="1" stop-color="white"/>
</radialGradient>
<radialGradient id="paint18_radial_0_17431" cx="0" cy="0" r="1" gradientUnits="userSpaceOnUse" gradientTransform="translate(34.0724 51.5282) rotate(-19) scale(14.3066 13.1105)">
<stop stop-color="#CFA04D"/>
<stop offset="1" stop-color="white"/>
</radialGradient>
<linearGradient id="paint19_linear_0_17431" x1="1.77767" y1="59.5272" x2="22.369" y2="52.4371" gradientUnits="userSpaceOnUse">
<stop stop-color="#CA9E67"/>
<stop offset="0.65"/>
</linearGradient>
<radialGradient id="paint20_radial_0_17431" cx="0" cy="0" r="1" gradientUnits="userSpaceOnUse" gradientTransform="translate(21.8107 56.0067) rotate(-19) scale(16.7747 11.7239)">
<stop stop-color="#B0670B"/>
<stop offset="1"/>
</radialGradient>
<linearGradient id="paint21_linear_0_17431" x1="136.24" y1="51.3855" x2="144.371" y2="27.7713" gradientUnits="userSpaceOnUse">
<stop stop-color="#692705"/>
<stop offset="1" stop-color="#823B00"/>
</linearGradient>
<radialGradient id="paint22_radial_0_17431" cx="0" cy="0" r="1" gradientUnits="userSpaceOnUse" gradientTransform="translate(122.53 17.2232) rotate(19) scale(27.2863 26.0381)">
<stop stop-color="#BD8A60"/>
<stop offset="1" stop-color="#A85021"/>
</radialGradient>
<radialGradient id="paint23_radial_0_17431" cx="0" cy="0" r="1" gradientUnits="userSpaceOnUse" gradientTransform="translate(128.925 17.5715) rotate(19) scale(26.9985 14.4483)">
<stop stop-color="#CFA04D"/>
<stop offset="1" stop-color="white"/>
</radialGradient>
<radialGradient id="paint24_radial_0_17431" cx="0" cy="0" r="1" gradientUnits="userSpaceOnUse" gradientTransform="translate(139.029 49.0297) rotate(19) scale(19.1591 17.5163)">
<stop stop-color="#CFA04D"/>
<stop offset="1" stop-color="white"/>
</radialGradient>
<radialGradient id="paint25_radial_0_17431" cx="0" cy="0" r="1" gradientUnits="userSpaceOnUse" gradientTransform="translate(138.02 51.8569) rotate(19) scale(14.3066 13.1105)">
<stop stop-color="#CFA04D"/>
<stop offset="1" stop-color="white"/>
</radialGradient>
<linearGradient id="paint26_linear_0_17431" x1="107.647" y1="38.2776" x2="128.238" y2="45.3678" gradientUnits="userSpaceOnUse">
<stop stop-color="#CA9E67"/>
<stop offset="0.65"/>
</linearGradient>
<radialGradient id="paint27_radial_0_17431" cx="0" cy="0" r="1" gradientUnits="userSpaceOnUse" gradientTransform="translate(125.601 47.8369) rotate(19) scale(16.7747 11.7239)">
<stop stop-color="#B0670B"/>
<stop offset="1"/>
</radialGradient>
<linearGradient id="paint28_linear_0_17431" x1="267.397" y1="38.673" x2="255.672" y2="16.6215" gradientUnits="userSpaceOnUse">
<stop stop-color="#692705"/>
<stop offset="1" stop-color="#823B00"/>
</linearGradient>
<radialGradient id="paint29_radial_0_17431" cx="0" cy="0" r="1" gradientUnits="userSpaceOnUse" gradientTransform="translate(233.062 25.4015) rotate(-28) scale(27.2863 26.0381)">
<stop stop-color="#BD8A60"/>
<stop offset="1" stop-color="#A85021"/>
</radialGradient>
<radialGradient id="paint30_radial_0_17431" cx="0" cy="0" r="1" gradientUnits="userSpaceOnUse" gradientTransform="translate(237.678 20.9617) rotate(-28) scale(26.9985 14.4483)">
<stop stop-color="#CFA04D"/>
<stop offset="1" stop-color="white"/>
</radialGradient>
<radialGradient id="paint31_radial_0_17431" cx="0" cy="0" r="1" gradientUnits="userSpaceOnUse" gradientTransform="translate(267.576 35.0267) rotate(-28) scale(19.1591 17.5163)">
<stop stop-color="#CFA04D"/>
<stop offset="1" stop-color="white"/>
</radialGradient>
<radialGradient id="paint32_radial_0_17431" cx="0" cy="0" r="1" gradientUnits="userSpaceOnUse" gradientTransform="translate(268.956 37.6928) rotate(-28) scale(14.3066 13.1105)">
<stop stop-color="#CFA04D"/>
<stop offset="1" stop-color="white"/>
</radialGradient>
<linearGradient id="paint33_linear_0_17431" x1="238.31" y1="50.6453" x2="257.538" y2="40.4213" gradientUnits="userSpaceOnUse">
<stop stop-color="#CA9E67"/>
<stop offset="0.65"/>
</linearGradient>
<radialGradient id="paint34_radial_0_17431" cx="0" cy="0" r="1" gradientUnits="userSpaceOnUse" gradientTransform="translate(257.545 44.0342) rotate(-28) scale(16.7747 11.7239)">
<stop stop-color="#B0670B"/>
<stop offset="1"/>
</radialGradient>
</defs>
</svg>
