<svg width="272" height="83" viewBox="0 0 272 83" fill="none" xmlns="http://www.w3.org/2000/svg">
<path fill-rule="evenodd" clip-rule="evenodd" d="M66.3607 65.3585C69.106 63.3513 71.9629 61.5012 74.9175 59.8172C73.7139 59.9676 72.4941 59.9279 71.3029 59.6995C71.152 59.4498 71.0383 59.1795 70.9652 58.8971C70.8606 56.5949 71.0594 54.2888 71.5564 52.0383C74.1103 52.122 82.7603 53.208 87.5972 53.9712C87.8855 54.1942 88.1178 54.4812 88.276 54.8095C88.256 60.3758 87.9267 65.9369 87.2894 71.4669C84.9053 71.4784 82.534 71.1192 80.2605 70.4023C79.9965 70.1405 79.7619 69.8507 79.5606 69.5381C79.7451 68.458 80.0917 67.4119 80.5889 66.4353C77.8691 69.0574 74.7809 71.9024 72.739 73.6205C72.3052 73.6923 71.8599 73.6119 71.4786 73.3931C69.5965 71.4675 67.8983 69.3704 66.4062 67.1291C66.1268 66.5825 66.103 65.9403 66.3412 65.3743L66.3607 65.3585Z" fill="url(#paint0_linear_0_17115)"/>
<path fill-rule="evenodd" clip-rule="evenodd" d="M66.3607 65.3585C68.207 63.9172 71.5551 61.5394 74.8296 59.2967C73.5433 59.266 72.2603 59.1512 70.989 58.9531C70.8179 56.6328 71.0094 54.2999 71.5564 52.0383C76.9408 52.3909 82.3013 53.0428 87.613 53.9908C87.712 54.0662 87.7913 54.1642 87.8445 54.2767C87.6586 59.6631 87.1765 65.0352 86.4002 70.3688C84.091 70.4462 81.7839 70.166 79.5606 69.5381C79.6125 68.2388 79.7508 66.9444 79.9745 65.6633C78.2365 67.3182 76.4295 69.0074 74.8144 70.4552C75.2802 69.7014 75.725 68.9216 76.2515 68.0434C75.6857 68.6737 75.1094 69.291 74.6141 69.9288C74.4504 70.1449 74.3049 70.3743 74.1792 70.6145C74.0777 70.8208 73.9916 71.0343 73.9217 71.2534C73.3107 71.7481 72.782 72.2516 72.2803 72.6686C71.8636 72.751 71.4313 72.6868 71.0567 72.4867C70.6574 72.1 70.1712 71.5792 69.6571 70.9842C70.2275 70.3134 70.7564 69.6085 71.2409 68.8732C70.6846 69.5342 70.0453 70.1206 69.3389 70.6179C68.2361 69.3348 67.2187 67.9807 66.2932 66.5644C66.2133 66.3063 66.1505 65.604 66.3591 65.3167L66.3607 65.3585Z" fill="url(#paint1_radial_0_17115)"/>
<g style="mix-blend-mode:multiply" opacity="0.5">
<path fill-rule="evenodd" clip-rule="evenodd" d="M71.2553 53.4872L75.8437 52.3752C75.4555 52.3444 75.0988 52.3077 74.7598 52.2729C74.4861 52.2447 74.2238 52.2178 73.9658 52.196C73.3464 52.3748 72.7218 52.5471 72.0984 52.7076L71.3707 52.8988L71.2553 53.4872ZM75.2251 65.6521C73.9466 68.1 72.5585 70.7579 71.2037 72.6151L71.1607 72.6285C71.3144 72.685 71.4735 72.7256 71.6355 72.7496C73.0146 70.8162 74.2446 68.7807 75.3149 66.6608C75.4532 66.4118 75.5901 66.1648 75.7264 65.9189L75.727 65.9179L75.727 65.9179L75.727 65.9178C76.3929 64.7165 77.044 63.5418 77.7738 62.2812C77.8209 62.1998 77.8723 62.1114 77.9274 62.0166C78.9014 60.3415 81.0291 56.6824 80.8158 55.0731C80.7159 54.2719 80.1423 53.7895 78.6668 54.0806C77.7627 54.2801 76.7863 54.5566 75.7929 54.8378C74.7798 55.1247 73.7491 55.4165 72.7592 55.6368L72.4447 55.7006L72.4446 55.7006L72.4446 55.7007C71.9283 55.8056 71.41 55.9109 70.9014 56.0008C70.8851 56.1954 70.8746 56.3907 70.8645 56.5798L70.8644 56.5799C70.8601 56.6599 70.8559 56.7388 70.8513 56.816C71.4511 56.7583 72.0468 56.6639 72.6351 56.5335C73.4854 56.3292 74.3464 56.0822 75.1975 55.838C75.5188 55.7459 75.8386 55.6541 76.1559 55.5652C79.3416 54.6747 80.7688 54.6163 79.2738 58.0863C78.6465 59.4659 77.9336 60.805 77.1393 62.0957C76.5459 63.1231 75.9008 64.3582 75.2251 65.6521ZM69.6456 71.0366C71.2842 69.0225 72.6707 66.8159 73.7741 64.4657C74.3477 63.3586 74.729 62.1621 74.9017 60.9274C74.9744 60.4353 74.7608 59.9447 74.3511 59.6627L74.8259 59.332C73.54 59.2894 72.2583 59.1629 70.989 58.9531L70.9698 58.7965C72.0984 58.7071 73.2319 58.6989 74.3616 58.7719C74.8063 58.8267 75.2104 59.0575 75.4833 59.4128C75.6065 59.5826 75.6934 59.7759 75.7387 59.9807C75.7838 60.2049 75.7957 60.4345 75.774 60.6622C75.5067 62.0173 75.0262 63.3215 74.3504 64.5262C73.3584 66.4644 72.2437 68.3373 71.0131 70.1336C70.6633 70.632 70.338 71.0676 70.0189 71.4444L69.6979 71.048L69.6456 71.0366ZM68.3775 69.4706C69.1647 68.2925 69.7713 67.0034 70.1774 65.6461C70.4965 64.5915 70.4885 63.8772 70.1997 63.4009C70.0842 63.192 69.9328 63.005 69.7524 62.8486L70.6785 62.1847C70.9113 62.3451 71.1064 62.5543 71.2502 62.7977C71.9216 63.9324 70.6931 66.7347 69.9121 68.1095C69.5308 68.7949 69.1581 69.3979 68.7851 69.9474L68.401 69.473L68.3775 69.4706ZM74.8484 70.4707C75.1236 70.0219 75.3982 69.5558 75.6848 69.0691C76.0263 68.4894 76.3849 67.8805 76.7823 67.237C78.7101 64.0621 80.6994 60.9234 82.8107 57.8689C83.3563 57.0804 84.0169 56.2227 84.6831 55.3578C85.1128 54.7998 85.5449 54.2388 85.9499 53.6914L86.5749 53.7986C86.0862 54.4874 85.5503 55.1765 85.0239 55.8533C84.4297 56.6175 83.8475 57.3661 83.3592 58.081C81.1702 61.2522 79.0967 64.5129 77.0977 67.7992L76.2295 69.2124L74.8484 70.4707ZM87.6761 57.6838C85.9837 59.2962 84.5267 61.1389 83.348 63.1575C82.5433 64.5495 81.6127 65.8649 80.5678 67.0872C80.2434 67.4575 79.9373 67.8237 79.643 68.1912C79.6838 67.803 79.7349 67.3744 79.799 66.9352L80.0909 66.5912C81.121 65.3866 82.0377 64.0896 82.8296 62.7166C84.1173 60.5181 85.7718 58.5561 87.7213 56.9156L87.6761 57.6838ZM84.9102 65.4321C85.7991 64.4433 86.5733 63.4721 87.3019 62.5378L87.3124 62.5508L87.3777 61.422C86.3699 62.6362 85.3776 63.8164 84.4069 64.9037C83.4564 65.9594 82.5002 67.0699 81.5376 68.1879L81.5375 68.1879L81.5375 68.1879L81.5375 68.188L81.5375 68.188L81.5374 68.1881L81.5372 68.1883L81.5371 68.1884L81.537 68.1886C81.0881 68.7098 80.6379 69.2327 80.1862 69.7524L80.8597 69.9064C82.0599 68.606 83.249 67.2818 84.4049 65.9946L84.9102 65.4321ZM86.9988 65.6989C86.0791 66.7079 85.1068 67.6677 84.0859 68.5742C83.586 68.979 83.1177 69.423 82.6495 69.8669C82.5455 69.9656 82.4414 70.0642 82.3371 70.1625L81.6586 70.0556C82.2897 69.4262 82.9691 68.7899 83.7191 68.1611C84.9048 67.1096 86.0291 65.9908 87.0864 64.8103L86.9988 65.6989ZM83.7825 70.326C84.7021 69.4415 85.6966 68.6362 86.7627 67.7729L86.7692 67.7677L86.8775 66.8515L86.8255 66.8936C85.5054 67.9278 84.2569 69.0502 83.0886 70.2532C83.3173 70.2832 83.5526 70.3079 83.7825 70.326ZM86.4729 69.8473L85.8229 70.3737L85.1098 70.3702L85.4543 70.0912C85.8322 69.7206 86.2142 69.3683 86.6079 69.0172C86.5989 69.0797 86.5902 69.1411 86.5817 69.2012L86.5817 69.2017C86.5489 69.434 86.5187 69.6479 86.4794 69.842L86.4729 69.8473ZM67.6724 64.7589C67.616 64.6689 67.5488 64.586 67.4725 64.512L67.4685 64.4937L66.9939 64.878C67.4818 65.4405 67.4003 66.2703 67.1397 67.2775L67.0221 67.717L67.3483 68.1199C67.4474 67.8568 67.5347 67.5925 67.609 67.3386C67.8616 66.5709 67.913 65.7514 67.7585 64.9582C67.7386 64.8883 67.7097 64.8213 67.6724 64.7589Z" fill="#B7805C"/>
</g>
<g style="mix-blend-mode:multiply">
<path fill-rule="evenodd" clip-rule="evenodd" d="M82.8426 62.706C82.0608 64.0892 81.1528 65.3971 80.1302 66.6131L79.8383 66.9571C79.8857 66.5637 79.9473 66.148 80.0271 65.7283C78.7711 66.9283 77.4785 68.1364 76.2481 69.2619L77.0848 67.8097C79.0837 64.5234 81.1677 61.2757 83.3462 58.0915C84.2658 56.7551 85.498 55.2731 86.5476 53.8314C86.9163 53.8879 87.2719 53.955 87.6198 54.039C87.717 54.1123 87.7947 54.2082 87.8461 54.3184C87.8232 55.1009 87.7891 55.9892 87.7359 56.9468C85.7864 58.5874 84.1319 60.5494 82.8441 62.7478L82.8426 62.706Z" fill="url(#paint2_radial_0_17115)"/>
</g>
<g style="mix-blend-mode:multiply">
<path fill-rule="evenodd" clip-rule="evenodd" d="M79.2998 58.0653C78.6725 59.4449 77.9596 60.7839 77.1653 62.0746C75.4492 65.0458 73.3005 69.7553 71.2298 72.5941C71.1753 72.5724 71.1223 72.5469 71.0713 72.518C70.7639 72.2182 70.3999 71.8351 70.0056 71.4013C70.3247 71.0246 70.65 70.589 70.9998 70.0906C72.2304 68.2943 73.3451 66.4214 74.3371 64.4832C75.0129 63.2785 75.4934 61.9743 75.7607 60.6192C75.7824 60.3915 75.7705 60.1619 75.7254 59.9377C75.6801 59.7329 75.5932 59.5396 75.47 59.3698C75.1971 59.0145 74.793 58.7836 74.3483 58.7289C73.2203 58.656 72.0884 58.6664 70.9618 58.76C70.9027 58.0966 70.8915 57.4297 70.9281 56.7646C71.5258 56.7101 72.1194 56.6175 72.7054 56.4874C73.8441 56.2323 75.0358 55.8698 76.2262 55.5191C79.4053 54.6338 80.8391 54.5702 79.344 58.0402L79.2998 58.0653Z" fill="url(#paint3_radial_0_17115)"/>
</g>
<g style="mix-blend-mode:multiply">
<path fill-rule="evenodd" clip-rule="evenodd" d="M84.9362 65.411C85.8251 64.4222 86.5863 63.4616 87.3279 62.5167C87.2579 63.2942 87.1892 64.06 87.1387 64.8217C86.0814 66.0022 84.9571 67.121 83.7714 68.1725C83.0109 68.7883 82.342 69.4376 81.7109 70.067L80.912 69.9178C82.2879 68.4271 83.6492 66.9051 84.9625 65.4435L84.9362 65.411Z" fill="url(#paint4_radial_0_17115)"/>
</g>
<g style="mix-blend-mode:screen">
<path fill-rule="evenodd" clip-rule="evenodd" d="M85.6097 67.1465C86.0876 66.6735 86.5615 66.1821 87.0248 65.6778L86.901 66.854L86.849 66.8961C86.3355 67.3119 85.835 67.7172 85.354 68.1067C85.7275 67.7732 86.0756 67.4122 86.3952 67.0268C86.4545 66.9413 86.442 66.8252 86.3657 66.7545C86.2895 66.6837 86.1728 66.6798 86.0919 66.7453L85.6097 67.1465ZM85.7548 64.4684C86.3049 63.8185 86.8391 63.1492 87.3279 62.5168C87.2579 63.2942 87.1892 64.06 87.1387 64.8217C86.2287 65.7845 85.254 66.8536 84.2886 67.7214C85.0688 67.0363 85.7224 66.2194 86.2194 65.3079C86.2968 65.1376 86.221 64.4459 85.9857 64.4212L85.7548 64.4684ZM83.7764 62.477C84.8699 60.7152 86.1849 59.1007 87.6891 57.6732C87.5969 58.8884 87.5362 60.1425 87.4195 61.4205C86.6463 62.3263 85.8796 63.2269 85.1361 64.0764C85.7409 63.3929 86.2753 62.6502 86.7311 61.8596C87.0136 61.2728 87.0483 60.5973 86.8274 59.9849C86.7537 59.8939 86.6327 59.7444 86.5231 59.7686C85.7694 59.9809 84.6152 61.3997 83.7764 62.477ZM86.755 56.945C86.689 56.5788 86.4108 56.2875 86.048 56.2048C85.7982 56.2069 85.5558 56.29 85.3572 56.4415C84.1925 57.4287 83.1418 58.5429 82.2247 59.7635C82.599 59.2023 82.9719 58.6528 83.3567 58.1045C84.2763 56.7681 85.5085 55.2861 86.5581 53.8444C86.9268 53.9009 87.2824 53.968 87.6303 54.0521C87.7275 54.1253 87.8051 54.2212 87.8566 54.3315C87.8337 55.1139 87.7996 56.0022 87.7464 56.9598C86.3999 58.0845 85.1963 59.37 84.1624 60.7873C84.8965 59.7049 85.6851 58.6605 86.5253 57.6581C86.6852 57.472 86.7679 57.2318 86.7565 56.9867L86.755 56.945ZM85.9267 53.7425C84.9266 55.1656 83.7034 56.6188 82.8212 57.8818C82.1192 58.9022 81.429 59.9238 80.7492 60.9583C81.6407 59.2682 82.6454 57.5185 83.5167 55.963C84.388 54.4075 83.3484 53.9476 81.9348 53.6506C78.8291 52.8821 75.6024 52.7314 72.4382 53.207L75.7081 52.4205L75.8672 52.3777C78.967 52.697 82.9274 53.2018 85.9604 53.7044L85.9267 53.7425ZM73.872 52.2397L72.1089 52.7206L71.3995 52.9078C71.4522 52.6242 71.5194 52.3435 71.601 52.0668C72.1417 52.07 72.9753 52.1159 73.9945 52.205L73.8902 52.2357L73.872 52.2397Z" fill="url(#paint5_linear_0_17115)"/>
</g>
<g style="mix-blend-mode:screen" opacity="0.75">
<path fill-rule="evenodd" clip-rule="evenodd" d="M71.7858 53.531C71.6963 54.5502 71.5066 55.6184 71.3196 56.7166C70.9835 57.0856 70.9463 58.3422 70.9562 58.9259C70.7987 56.6129 71.0012 54.2894 71.5564 52.0383C76.9408 52.391 82.3013 53.0428 87.613 53.9908C84.5846 53.8395 80.84 53.6011 77.5374 53.2308C75.9037 53.0475 74.2524 52.9753 72.6327 52.7161C72.2929 52.6632 71.9735 52.5209 71.7069 52.3038C71.8183 52.7029 71.8452 53.1209 71.7858 53.531Z" fill="#CA9E67"/>
</g>
<g style="mix-blend-mode:screen" opacity="0.75">
<path fill-rule="evenodd" clip-rule="evenodd" d="M66.5287 65.5129C66.4439 66.6575 67.4031 68.1078 68.2249 69.2821C67.5369 68.4229 66.8948 67.5279 66.3012 66.6009C66.2214 66.3428 66.1585 65.6405 66.3671 65.3533C68.2135 63.9119 71.5616 61.5342 74.8361 59.2914C72.3942 61.435 69.8197 63.4228 67.128 65.2428C66.9359 65.3431 66.738 65.4315 66.5352 65.5076L66.5287 65.5129Z" fill="#CA9E67"/>
</g>
<g style="mix-blend-mode:multiply" opacity="0.5">
<path fill-rule="evenodd" clip-rule="evenodd" d="M80.9254 55.2748C81.0399 56.3332 80.6357 57.5751 79.7801 59.3761C79.4559 60.0745 79.0944 60.755 78.6974 61.4148C78.3442 62.002 77.8967 62.5259 77.5382 63.1066C76.8031 64.2721 76.102 65.4531 75.3892 66.6328C76.2035 65.1665 77.0114 63.7054 77.8481 62.2532C78.6847 60.8011 80.8982 57.1151 80.9112 55.2971L80.9254 55.2748Z" fill="#683C11"/>
</g>
<g style="mix-blend-mode:screen">
<path fill-rule="evenodd" clip-rule="evenodd" d="M87.8751 60.2552C88.0967 62.4427 87.6024 67.5339 87.0554 71.2045C85.1364 71.3367 83.2103 71.0861 81.3893 70.4672C83.1205 70.6782 84.8652 70.758 86.6085 70.7057C87.2591 67.3493 87.5461 63.6633 87.8491 60.2763L87.8751 60.2552Z" fill="url(#paint6_radial_0_17115)"/>
</g>
<path fill-rule="evenodd" clip-rule="evenodd" d="M181.566 7.50142C184.949 7.8468 188.31 8.38354 191.633 9.10907C190.638 8.41544 189.758 7.56974 189.025 6.60295C189.08 6.31645 189.177 6.03946 189.311 5.78067C190.774 3.99983 192.465 2.41911 194.34 1.07922C196.182 2.85029 201.884 9.44534 204.967 13.2491C205.032 13.6076 205.013 13.9764 204.911 14.3262C201.172 18.4494 197.206 22.3617 193.032 26.045C191.252 24.4582 189.731 22.6046 188.521 20.5505C188.5 20.1793 188.519 19.8069 188.579 19.44C189.439 18.7607 190.396 18.2153 191.419 17.8222C187.643 17.9509 183.445 17.9987 180.778 17.9092C180.407 17.6723 180.13 17.3146 179.993 16.8969C179.883 14.2065 180.024 11.5118 180.415 8.8477C180.573 8.25452 180.985 7.76138 181.541 7.5001L181.566 7.50142Z" fill="url(#paint7_linear_0_17115)"/>
<path fill-rule="evenodd" clip-rule="evenodd" d="M181.566 7.50147C183.903 7.66578 187.982 8.13912 191.916 8.66346C190.98 7.77993 190.104 6.8362 189.292 5.8383C190.717 3.9995 192.42 2.39391 194.34 1.07928C198.106 4.94416 201.653 9.01541 204.966 13.2742C204.989 13.3964 204.983 13.5224 204.947 13.6416C201.205 17.52 197.252 21.1897 193.106 24.6339C191.338 23.1463 189.811 21.3943 188.579 19.44C189.487 18.5092 190.456 17.6397 191.479 16.8374C189.08 16.9043 186.607 16.9505 184.438 16.9457C185.289 16.6972 186.141 16.4153 187.12 16.115C186.278 16.2048 185.436 16.2779 184.641 16.4205C184.375 16.4715 184.114 16.5446 183.859 16.639C183.646 16.7244 183.439 16.8255 183.241 16.9415C182.455 16.9004 181.726 16.9207 181.074 16.8949C180.709 16.6774 180.431 16.3403 180.286 15.941C180.248 15.3865 180.235 14.6741 180.251 13.8879C181.124 13.7711 181.989 13.6011 182.841 13.3789C181.985 13.4979 181.118 13.5059 180.26 13.4027C180.299 11.7113 180.449 10.0242 180.709 8.35243C180.822 8.10719 181.246 7.54328 181.593 7.46938L181.566 7.50147Z" fill="url(#paint8_radial_0_17115)"/>
<g style="mix-blend-mode:multiply" opacity="0.5">
<path fill-rule="evenodd" clip-rule="evenodd" d="M193.147 1.95448L197.301 4.19837C197.033 3.91567 196.793 3.64979 196.564 3.39707C196.379 3.19298 196.202 2.99747 196.025 2.80863C195.445 2.52706 194.866 2.23714 194.295 1.9393L193.626 1.59447L193.147 1.95448ZM187.957 13.6511C185.369 14.6148 182.559 15.6611 180.31 16.1348L180.269 16.1159C180.345 16.2608 180.436 16.3974 180.54 16.5237C182.859 16.0096 185.135 15.32 187.349 14.4608C187.618 14.3683 187.885 14.2763 188.151 14.1848L188.152 14.1844L188.152 14.1844L188.152 14.1844C189.451 13.7372 190.721 13.2999 192.107 12.8514C192.196 12.8225 192.294 12.7912 192.398 12.7576C194.243 12.1645 198.272 10.8689 199.191 9.53033C199.653 8.86798 199.549 8.12576 198.258 7.35478C197.452 6.89804 196.542 6.45016 195.615 5.99447C194.671 5.52976 193.709 5.05693 192.826 4.55832L192.55 4.39527L192.55 4.39524L192.55 4.3952C192.096 4.1277 191.64 3.85913 191.202 3.5857C191.06 3.71942 190.921 3.85748 190.787 3.9912L190.787 3.9913C190.73 4.04786 190.674 4.10364 190.619 4.15799C191.104 4.5164 191.61 4.84489 192.134 5.14162C192.903 5.55875 193.708 5.95132 194.504 6.33935C194.804 6.48583 195.103 6.63166 195.398 6.77792C198.362 8.24773 199.461 9.15938 196.028 10.7377C194.639 11.3432 193.213 11.8613 191.759 12.289C190.631 12.6554 189.325 13.1417 187.957 13.6511ZM180.208 13.9191C182.773 13.5188 185.28 12.8067 187.673 11.7985C188.84 11.3596 189.924 10.7256 190.878 9.9236C191.262 9.60648 191.431 9.09901 191.315 8.61525L191.89 8.6872C190.962 7.79519 190.095 6.84353 189.292 5.8383L189.382 5.70909C190.281 6.39779 191.129 7.15014 191.919 7.96033C192.213 8.29859 192.359 8.74057 192.324 9.18721C192.302 9.39578 192.237 9.59758 192.134 9.78008C192.017 9.97687 191.872 10.1555 191.704 10.3101C190.599 11.1383 189.369 11.786 188.061 12.2291C186.026 13.0057 183.945 13.6516 181.828 14.1631C181.235 14.2995 180.702 14.4055 180.212 14.472L180.239 13.9626L180.208 13.9191ZM180.313 11.9068C181.687 11.5581 183 11.006 184.21 10.2691C185.153 9.69889 185.625 9.16266 185.729 8.61552C185.783 8.38296 185.796 8.14271 185.766 7.90579L186.899 8.03212C186.964 8.30709 186.969 8.59306 186.913 8.87016C186.653 10.1626 183.865 11.4231 182.365 11.9222C181.623 12.1764 180.942 12.3752 180.297 12.5339L180.329 11.9244L180.313 11.9068ZM184.453 16.9799C184.958 16.8306 185.474 16.6679 186.013 16.498C186.654 16.2957 187.328 16.0832 188.054 15.8709C191.611 14.8014 195.19 13.8 198.802 12.9428C199.736 12.7219 200.8 12.5266 201.874 12.3295C202.567 12.2024 203.263 12.0747 203.931 11.9389L204.323 12.4367C203.499 12.6216 202.64 12.7751 201.796 12.9259C200.843 13.0961 199.909 13.2629 199.068 13.4674C195.319 14.3594 191.597 15.3951 187.912 16.4998L186.321 16.969L184.453 16.9799ZM202.542 16.0608C200.205 16.1267 197.89 16.5211 195.663 17.2325C194.133 17.7285 192.562 18.0834 190.967 18.2926C190.479 18.3507 190.006 18.418 189.541 18.4941C189.831 18.233 190.156 17.9486 190.498 17.6651L190.945 17.6048C192.516 17.3989 194.066 17.0485 195.573 16.558C198.001 15.7859 200.543 15.4349 203.09 15.5202L202.542 16.0608ZM195.302 19.9682C196.624 19.8282 197.849 19.6245 199.016 19.4177L199.015 19.4344L199.819 18.6392C198.257 18.8672 196.73 19.0802 195.281 19.2387C193.869 19.3873 192.415 19.5728 190.952 19.7594L190.952 19.7594L190.951 19.7594L190.951 19.7594L190.951 19.7594L190.951 19.7595L190.951 19.7595L190.951 19.7595L190.951 19.7595C190.268 19.8466 189.584 19.9339 188.9 20.0179L189.298 20.5829C191.06 20.4196 192.83 20.2313 194.55 20.0482L195.302 19.9682ZM196.676 21.564C195.317 21.6985 193.952 21.7611 192.587 21.7516C191.944 21.718 191.299 21.7346 190.654 21.7512C190.511 21.7549 190.368 21.7586 190.224 21.7618L189.792 21.2284C190.682 21.1829 191.613 21.1647 192.591 21.1992C194.175 21.2112 195.76 21.1321 197.335 20.9623L196.676 21.564ZM191.189 22.8506C192.464 22.8085 193.742 22.8755 195.112 22.9473L195.121 22.9477L195.814 22.3394L195.747 22.3359C194.074 22.2211 192.395 22.2198 190.722 22.3321C190.872 22.5074 191.03 22.6832 191.189 22.8506ZM193.509 24.295L192.674 24.2512L192.146 23.7715L192.589 23.7947C193.117 23.7721 193.637 23.7659 194.165 23.7684C194.116 23.8089 194.069 23.8487 194.022 23.8877L194.022 23.888C193.842 24.0387 193.676 24.1775 193.517 24.2954L193.509 24.295ZM182.942 7.93362C182.96 7.82891 182.966 7.72237 182.959 7.61632L182.968 7.60006L182.358 7.56811C182.344 8.31255 181.729 8.87474 180.861 9.44885L180.48 9.69678L180.452 10.2145C180.702 10.0852 180.944 9.94717 181.169 9.80826C181.87 9.40677 182.457 8.83214 182.873 8.13929C182.905 8.07404 182.928 8.0049 182.942 7.93362Z" fill="#B7805C"/>
</g>
<g style="mix-blend-mode:multiply">
<path fill-rule="evenodd" clip-rule="evenodd" d="M195.589 16.5588C194.083 17.0635 192.533 17.428 190.959 17.6474L190.512 17.7077C190.811 17.447 191.135 17.1793 191.475 16.9208C189.738 16.9722 187.969 17.0051 186.302 17.0181L187.895 16.4988C191.58 15.3941 195.302 14.3752 199.051 13.4665C200.629 13.0887 202.536 12.8119 204.281 12.4428C204.517 12.7315 204.737 13.0193 204.939 13.3145C204.962 13.434 204.956 13.5572 204.92 13.6736C204.38 14.2397 203.76 14.877 203.08 15.5531C200.533 15.4678 197.991 15.8188 195.563 16.5908L195.589 16.5588Z" fill="url(#paint9_radial_0_17115)"/>
</g>
<g style="mix-blend-mode:multiply">
<path fill-rule="evenodd" clip-rule="evenodd" d="M196.062 10.7394C194.673 11.3448 193.247 11.8629 191.793 12.2906C188.529 13.3504 183.781 15.4124 180.343 16.1365C180.317 16.0839 180.295 16.0295 180.276 15.9739C180.248 15.5454 180.234 15.0172 180.231 14.431C180.721 14.3645 181.254 14.2585 181.847 14.1221C183.964 13.6107 186.045 12.9647 188.079 12.1881C189.388 11.7451 190.618 11.0973 191.723 10.2692C191.891 10.1145 192.036 9.93588 192.153 9.73909C192.256 9.55659 192.321 9.35479 192.343 9.14622C192.378 8.69958 192.232 8.2576 191.938 7.91934C191.149 7.11037 190.301 6.3607 189.401 5.67645C189.801 5.14389 190.239 4.64079 190.711 4.17104C191.191 4.53047 191.695 4.85886 192.217 5.15423C193.234 5.72663 194.362 6.25463 195.482 6.79053C198.436 8.25991 199.544 9.17199 196.112 10.7503L196.062 10.7394Z" fill="url(#paint10_radial_0_17115)"/>
</g>
<g style="mix-blend-mode:multiply">
<path fill-rule="evenodd" clip-rule="evenodd" d="M195.335 19.9698C196.657 19.8298 197.866 19.6252 199.049 19.4193C198.477 19.9503 197.914 20.4734 197.366 21.0057C195.791 21.1754 194.207 21.2546 192.622 21.2426C191.645 21.1914 190.713 21.2263 189.823 21.2718L189.329 20.6263C191.349 20.4391 193.379 20.219 195.333 20.0116L195.335 19.9698Z" fill="url(#paint11_radial_0_17115)"/>
</g>
<g style="mix-blend-mode:screen">
<path fill-rule="evenodd" clip-rule="evenodd" d="M194.674 21.7102C195.346 21.6785 196.027 21.6304 196.709 21.5657L195.83 22.3569L195.763 22.3534C195.103 22.3188 194.46 22.2851 193.842 22.2527C194.343 22.2548 194.843 22.2195 195.338 22.1469C195.44 22.1231 195.508 22.0284 195.499 21.9248C195.489 21.8212 195.405 21.7402 195.301 21.7347L194.674 21.7102ZM196.574 19.8171C197.418 19.7023 198.263 19.5623 199.049 19.4193C198.477 19.9503 197.914 20.4734 197.366 21.0057C196.046 21.1123 194.606 21.2545 193.308 21.2535C194.346 21.2664 195.379 21.0967 196.358 20.7519C196.529 20.6771 196.936 20.1124 196.778 19.9366L196.574 19.8171ZM196.437 17.0134C198.428 16.4358 200.486 16.116 202.559 16.0616C201.677 16.9029 200.793 17.7943 199.851 18.666C198.67 18.8218 197.498 18.978 196.377 19.1118C197.284 19.0086 198.178 18.8142 199.046 18.5316C199.648 18.2846 200.126 17.8058 200.371 17.2029C200.378 17.086 200.388 16.894 200.29 16.8386C199.588 16.492 197.781 16.7741 196.437 17.0134ZM202.352 14.8954C202.548 14.5791 202.536 14.1765 202.322 13.8723C202.135 13.7067 201.899 13.6062 201.65 13.5859C200.124 13.5402 198.597 13.6652 197.099 13.9586C197.753 13.7919 198.398 13.6332 199.05 13.4832C200.628 13.1054 202.535 12.8286 204.28 12.4595C204.516 12.7482 204.736 13.036 204.938 13.3312C204.961 13.4507 204.955 13.5739 204.919 13.6903C204.379 14.2564 203.759 14.8937 203.079 15.5698C201.325 15.5046 199.571 15.6545 197.854 16.016C199.124 15.7028 200.409 15.4544 201.704 15.2717C201.947 15.2403 202.169 15.1172 202.325 14.9274L202.352 14.8954ZM203.879 11.9612C202.184 12.3496 200.302 12.611 198.802 12.9594C197.597 13.2479 196.401 13.5452 195.203 13.8593C196.997 13.1997 198.914 12.5718 200.602 11.9988C202.291 11.4259 201.826 10.3884 200.974 9.22182C199.18 6.57259 196.883 4.30154 194.214 2.53778L197.17 4.14118L197.317 4.21586C199.407 6.52741 202.012 9.55252 203.93 11.9555L203.879 11.9612ZM195.926 2.77825L194.294 1.95592L193.642 1.62031C193.871 1.44483 194.109 1.28123 194.354 1.13017C194.754 1.4944 195.343 2.08622 196.041 2.83447L195.943 2.78747L195.926 2.77825Z" fill="url(#paint12_linear_0_17115)"/>
</g>
<g style="mix-blend-mode:screen" opacity="0.75">
<path fill-rule="evenodd" clip-rule="evenodd" d="M193.512 2.34194C192.763 3.03951 191.908 3.70634 191.034 4.39734C190.537 4.44666 189.669 5.35563 189.286 5.79605C190.716 3.97177 192.421 2.38055 194.34 1.07921C198.106 4.94409 201.653 9.01535 204.966 13.2741C202.817 11.1353 200.194 8.45251 197.987 5.9674C196.896 4.73803 195.717 3.57943 194.686 2.30302C194.469 2.03636 194.327 1.71684 194.274 1.37718C194.09 1.74831 193.83 2.0769 193.512 2.34194Z" fill="#CA9E67"/>
</g>
<g style="mix-blend-mode:screen" opacity="0.75">
<path fill-rule="evenodd" clip-rule="evenodd" d="M181.588 7.72867C180.759 8.5225 180.501 10.2421 180.326 11.6647C180.39 10.5658 180.511 9.47103 180.691 8.38496C180.804 8.13972 181.227 7.57581 181.574 7.50191C183.911 7.66623 187.99 8.13956 191.924 8.6639C188.675 8.623 185.432 8.37753 182.214 7.92893C182.004 7.87494 181.798 7.8082 181.596 7.72911L181.588 7.72867Z" fill="#CA9E67"/>
</g>
<g style="mix-blend-mode:multiply" opacity="0.5">
<path fill-rule="evenodd" clip-rule="evenodd" d="M199.137 9.75354C198.514 10.6168 197.383 11.2691 195.542 12.0351C194.833 12.3371 194.109 12.601 193.373 12.8256C192.717 13.0257 192.034 13.1155 191.379 13.3073C190.053 13.6815 188.742 14.09 187.423 14.4898C189.009 13.945 190.587 13.3997 192.181 12.8804C193.774 12.3611 197.885 11.1029 199.112 9.76058L199.137 9.75354Z" fill="#683C11"/>
</g>
<g style="mix-blend-mode:screen">
<path fill-rule="evenodd" clip-rule="evenodd" d="M200.969 18.105C199.67 19.8789 195.896 23.3316 193.034 25.6934C191.519 24.5076 190.255 23.0325 189.316 21.3541C190.461 22.6693 191.705 23.896 193.035 25.0236C195.765 22.9647 198.444 20.4175 200.936 18.1032L200.969 18.105Z" fill="url(#paint13_radial_0_17115)"/>
</g>
<path fill-rule="evenodd" clip-rule="evenodd" d="M6.06056 59.3615C9.29373 60.4015 12.4653 61.6241 15.5598 63.0235C14.7351 62.1368 14.053 61.1276 13.5377 60.032C13.6511 59.7632 13.8029 59.5123 13.9885 59.2871C15.7856 57.8468 17.7661 56.6513 19.8781 55.7322C21.3121 57.8476 25.5195 65.4844 27.746 69.8464C27.7351 70.2107 27.6395 70.5674 27.4669 70.8883C22.9509 74.1437 18.2572 77.1456 13.4077 79.8803C11.9996 77.9583 10.8986 75.8294 10.1442 73.5698C10.2008 73.2024 10.2973 72.8422 10.432 72.4956C11.4126 72.0119 12.4598 71.677 13.5393 71.5018C9.82635 70.8445 5.70026 70.0159 3.1174 69.3758C2.80421 69.067 2.6074 68.6595 2.5603 68.2224C3.01176 65.5679 3.71017 62.9614 4.64643 60.4368C4.93344 59.8853 5.45212 59.4909 6.06056 59.3615Z" fill="url(#paint14_linear_0_17115)"/>
<path fill-rule="evenodd" clip-rule="evenodd" d="M6.06057 59.3615C8.31253 60.0082 12.2053 61.3196 15.9456 62.6507C15.219 61.5791 14.5638 60.4609 13.9842 59.3033C15.7527 57.8162 17.7409 56.6116 19.8782 55.7322C22.7588 60.2958 25.3834 65.0159 27.7396 69.8707C27.7367 69.995 27.7041 70.1169 27.6443 70.226C23.1764 73.2414 18.5458 76.0087 13.7734 78.5154C12.356 76.6928 11.2289 74.6622 10.432 72.4956C11.5082 71.7725 12.6316 71.1221 13.7946 70.5488C10.086 69.8753 6.19055 69.0912 3.60986 68.443C3.29818 68.1543 3.09599 67.7668 3.03761 67.3462C3.45752 64.8419 4.11622 62.3835 5.00472 60.0048C5.16662 59.7885 5.69792 59.3249 6.05306 59.3249L6.06057 59.3615Z" fill="url(#paint15_radial_0_17115)"/>
<g style="mix-blend-mode:multiply" opacity="0.5">
<path fill-rule="evenodd" clip-rule="evenodd" d="M18.5674 56.3245C19.1198 56.2994 19.662 56.2802 20.2343 56.2778C20.2053 56.2351 20.1773 56.1935 20.15 56.153C20.0485 56.0027 19.9577 55.8682 19.8716 55.7564C19.4265 55.921 18.9911 56.1107 18.5674 56.3245ZM17.8176 57.5863L17.8177 57.5863L17.8177 57.5863L17.8177 57.5863C18.8648 57.5302 19.9347 57.4729 20.9736 57.4627C20.8493 57.2476 20.7207 57.0487 20.6039 56.8702C19.5674 56.9413 18.5094 57.0449 17.4664 57.147L17.4663 57.147L16.9477 57.1976L16.1808 57.6673C16.7145 57.6455 17.2627 57.6161 17.8173 57.5864L17.8174 57.5864L17.8176 57.5863ZM14.2922 59.0271L14.2566 59.0301L14.2808 59.0366L14.2922 59.0271ZM14.2922 59.0271L15.4881 58.9273C17.5022 58.7485 19.5772 58.5687 21.6514 58.5532L21.2802 57.9344C19.737 58.0022 18.1947 58.1978 16.6629 58.392L16.6629 58.392C16.0459 58.4703 15.4305 58.5484 14.8175 58.6177C14.6269 58.761 14.4461 58.8986 14.2922 59.0271ZM4.9343 60.3323L4.96865 60.3334L4.96014 60.3651L4.9343 60.3323ZM4.96865 60.3334L5.03804 60.0744C5.08751 60.0101 5.14141 59.9493 5.19937 59.8926L5.86866 59.9161C6.58861 59.9445 7.28432 59.9665 7.96819 59.9679C8.15061 60.0261 8.33784 60.0911 8.53004 60.1578L8.53007 60.1578L8.53007 60.1578C8.87597 60.2778 9.23802 60.4034 9.61723 60.505C8.35569 60.4613 7.11248 60.4138 5.85311 60.362L4.96865 60.3334ZM17.2232 60.0159C16.3056 60.1361 15.3817 60.2571 14.46 60.3397L14.1196 59.7032C15.0482 59.6317 15.9892 59.5463 16.969 59.4453C17.3624 59.4115 17.7557 59.375 18.1492 59.3385C18.9794 59.2615 19.8108 59.1843 20.6474 59.1325C21.078 59.1093 21.4903 59.09 21.8902 59.0846L22.1764 59.5681C22.0837 59.572 21.9903 59.5757 21.8961 59.5795C21.5365 59.5938 21.1659 59.6085 20.7811 59.6357C19.6184 59.7023 18.4262 59.8584 17.2233 60.0159L17.2233 60.0159L17.2232 60.0159ZM4.21665 62.2347L4.25157 62.2338L4.24898 62.2434L4.21665 62.2347ZM4.25157 62.2338L4.43076 61.565L4.74595 61.5543L4.74602 61.5543C5.44254 61.5304 6.13623 61.5066 6.88932 61.5053C8.56212 61.4688 10.2296 61.3876 11.8874 61.2778L12.9589 61.6428C10.9519 61.9253 8.93079 62.0975 6.9048 62.1587L4.25157 62.2338ZM22.179 60.6249C19.792 60.7467 17.4129 60.9934 15.0518 61.3639L14.864 61.0626L17.23 60.8309C17.8869 60.7664 18.5414 60.6698 19.1959 60.5733C20.1899 60.4267 21.1838 60.2801 22.1854 60.2457L22.5588 60.2419L22.7697 60.6187L22.179 60.6249ZM21.954 73.8777C22.0154 73.674 22.1134 73.4832 22.2434 73.3147C22.365 73.1582 22.5204 73.0311 22.6981 72.9432C22.9521 72.8199 23.2229 72.7349 23.5019 72.6911C23.6647 72.6655 23.8231 72.656 23.9815 72.6465C23.3231 73.0674 22.6383 73.4898 21.913 73.9014L21.954 73.8777ZM17.2592 76.6135L17.289 76.6442L17.2632 76.6113L17.263 76.6114L17.2592 76.6135ZM16.4498 75.7355C16.7111 76.0395 16.9839 76.3304 17.2592 76.6135C17.0065 76.7525 16.754 76.8915 16.5174 77.0348C15.214 75.8545 13.864 74.2982 13.9896 73.2152C14.186 72.2901 14.7816 71.4991 15.6167 71.0544C19.2784 68.5731 22.8381 66.8608 26.6617 67.8161L27.1322 68.8078C23.2764 67.714 19.9152 69.3323 16.4524 71.6851C15.8316 72.0468 15.4202 72.6822 15.3442 73.3964C15.2951 74.0325 15.6236 74.7784 16.4498 75.7355ZM14.6366 78.1062C13.8488 77.5229 13.0196 76.8679 12.1247 76.1347L12.06 76.1174C12.3618 76.6397 12.6517 77.1416 12.9951 77.6058L14.0818 78.399L14.6301 78.1304L14.6366 78.1062ZM14.3007 68.9186C13.3368 69.2836 12.2272 69.7393 11.309 70.1598L9.97606 69.8979C10.6425 69.5923 11.496 69.2696 12.3512 68.9463C12.9025 68.7378 13.4545 68.5291 13.9575 68.3246C14.6984 68.0471 15.3867 67.7716 16.0426 67.5091L16.0427 67.5091C19.2398 66.2296 21.6671 65.2582 25.6511 65.866L25.9066 66.3673C21.313 65.8659 19.3667 66.731 16.8012 67.8714L16.8012 67.8714C16.0485 68.206 15.2425 68.5642 14.3007 68.9186ZM3.3879 68.3663L3.41374 68.3597L3.43422 68.3874L3.3879 68.3663ZM3.41374 68.3597C4.09898 68.184 4.79317 68.0451 5.49331 67.9436C5.87492 67.886 6.26062 67.8307 6.64672 67.7754L6.64674 67.7754L6.64676 67.7754L6.64682 67.7754C7.63984 67.6332 8.63547 67.4906 9.57081 67.305C11.1371 66.9888 12.7082 66.3889 14.2896 65.7852C15.7775 65.217 17.2746 64.6454 18.7855 64.3033C20.6943 63.8567 22.6601 63.7033 24.6153 63.8486L24.3001 63.2794C22.4204 63.1746 20.5355 63.34 18.703 63.7705C17.4056 64.0548 16.163 64.4576 14.9446 64.8669C13.0046 65.5018 11.0288 66.0216 9.02743 66.4236C8.18971 66.5765 7.30644 66.709 6.41711 66.8424L6.41706 66.8424L6.41702 66.8424L6.41699 66.8424L6.41697 66.8424L6.41696 66.8424C5.26637 67.0149 4.10563 67.189 3.02028 67.4108C3.0747 67.7538 3.2096 68.079 3.41374 68.3597ZM7.11646 64.0018C5.8838 64.2287 4.67779 64.4508 3.51679 64.6527L3.57451 64.5989L3.8039 63.7428C5.36803 63.5301 6.91816 63.3049 8.47262 63.0635C9.52516 62.8734 10.5633 62.6794 11.6014 62.4854L11.6015 62.4854L11.6017 62.4853C12.4667 62.3237 13.3317 62.1621 14.205 62.0026L15.5937 62.5738C12.7716 62.9606 9.87714 63.4935 7.11646 64.0018ZM15.7888 62.5569C18.3604 62.1779 20.9584 62.0056 23.5577 62.0417L23.2344 61.4703C20.5942 61.3269 17.9463 61.4587 15.3336 61.8636L15.7726 62.5525L15.7888 62.5569ZM24.8617 70.4933C25.4944 70.5135 26.1204 70.6288 26.7189 70.8351L26.2756 71.1318C25.7962 70.9757 25.2964 70.8914 24.7923 70.8815C24.2413 70.8764 23.6912 70.9262 23.1501 71.0301C22.177 71.209 21.2533 71.593 20.4404 72.1564C19.0948 73.1376 19.1821 74.1045 19.8224 75.1417L19.3592 75.4158C19.0392 74.9387 18.8177 74.4026 18.7076 73.8389C18.7011 73.7579 18.6998 73.6766 18.7036 73.5954C18.8531 72.8064 19.3535 72.1282 20.0635 71.7525C20.9623 71.182 21.9666 70.7976 23.0169 70.6222C23.6262 70.5197 24.244 70.4766 24.8617 70.4933Z" fill="#B7805C"/>
</g>
<g style="mix-blend-mode:multiply">
<path fill-rule="evenodd" clip-rule="evenodd" d="M3.04508 67.3829C4.95857 67.03 7.11118 66.819 9.05223 66.3956C11.0536 65.9936 13.0294 65.4738 14.9694 64.8389C16.2201 64.4383 17.4627 64.0355 18.7278 63.7426C20.5312 63.3153 22.387 63.1507 24.2376 63.2539L24.3184 63.2756L23.6191 62.0062L23.5383 61.9846C20.9655 61.9636 18.395 62.1431 15.8503 62.5214L15.9315 62.6384L15.6487 62.5626L15.1889 62.6298L14.7658 62.6896C10.9535 63.2435 7.06019 64.0354 3.57175 64.6415C3.33689 65.5475 3.14887 66.465 3.00842 67.3903L3.04508 67.3829Z" fill="url(#paint16_radial_0_17115)"/>
</g>
<g style="mix-blend-mode:multiply">
<path fill-rule="evenodd" clip-rule="evenodd" d="M16.5279 71.6621C15.9071 72.0238 15.4956 72.6592 15.4197 73.3734C15.3382 74.0008 15.6667 74.7466 16.5253 75.7125C16.796 76.0274 17.0792 76.3283 17.3645 76.6212C17.9997 76.2547 18.6759 75.8646 19.4136 75.439C19.0936 74.9619 18.8721 74.4258 18.762 73.8621C18.7362 73.7747 18.7167 73.6856 18.7036 73.5954C18.8477 72.7961 19.3516 72.1076 20.07 71.7283C20.9975 71.1393 22.037 70.7488 23.1231 70.5814C23.7324 70.4789 24.3502 70.4358 24.9679 70.4525C25.6006 70.4728 26.2266 70.588 26.8251 70.7943L27.6912 70.2127C27.7502 70.1063 27.7821 69.987 27.7843 69.8654L27.2524 68.7794C23.4084 67.7061 20.0553 69.3266 16.6049 71.6654L16.5279 71.6621Z" fill="url(#paint17_radial_0_17115)"/>
</g>
<g style="mix-blend-mode:multiply">
<path fill-rule="evenodd" clip-rule="evenodd" d="M20.4258 72.1785C19.0802 73.1596 19.1719 74.1104 19.8078 75.1637C20.5293 74.7338 21.2713 74.2921 21.9971 73.846C22.0585 73.6423 22.1566 73.4515 22.2865 73.283C22.4081 73.1264 22.5635 72.9994 22.7412 72.9114C22.9952 72.7881 23.2661 72.7031 23.545 72.6594C23.7078 72.6337 23.8662 72.6242 24.0247 72.6148C24.8061 72.123 25.5589 71.6409 26.2524 71.1861C25.773 71.03 25.2731 70.9457 24.769 70.9358C24.218 70.9307 23.6679 70.9805 23.1268 71.0844C22.1538 71.2633 21.2301 71.6473 20.4171 72.2108L20.4258 72.1785Z" fill="url(#paint18_radial_0_17115)"/>
</g>
<g style="mix-blend-mode:screen">
<path fill-rule="evenodd" clip-rule="evenodd" d="M5.86331 59.3866C5.60301 59.4981 5.36622 59.6579 5.16547 59.8575L5.83477 59.881C6.50998 59.9148 7.16528 59.9259 7.8125 59.9348L7.92564 59.9652C7.2064 59.7724 6.57504 59.5427 6.03575 59.3895L5.85465 59.4189L5.86331 59.3866ZM4.46368 61.5392C5.26776 61.5122 6.088 61.4896 6.92224 61.4795L8.81655 61.4244L7.79211 61.4009C7.5162 61.3962 5.25332 61.4045 5.16125 61.3279C5.06917 61.2513 5.1442 61.1329 5.17609 61.0462C5.23964 60.8978 5.32617 60.7603 5.43249 60.6388C5.47925 60.572 5.54733 60.5231 5.62557 60.5001C5.91603 60.4668 6.2086 60.4555 6.50079 60.4663L7.5447 60.4171L5.82889 60.3555L4.91008 60.3257C4.81053 60.6972 4.62094 61.1139 4.47984 61.5435L4.46368 61.5392ZM6.90323 62.1322L4.24149 62.2067C4.10516 62.7155 3.96233 63.2486 3.82167 63.7735C5.3858 63.5607 6.93593 63.3355 8.49039 63.0942L9.35117 62.9526L7.98921 63.0897C7.09668 63.1882 6.19333 63.327 5.30296 63.4174C5.07029 63.4526 4.83367 63.4534 4.60076 63.4196C4.53511 63.406 4.48639 63.3506 4.48126 63.2838C4.49331 63.1098 4.53887 62.9397 4.61543 62.783C4.67886 62.6561 4.77355 62.5474 4.89061 62.4672C5.0083 62.376 5.14658 62.315 5.29335 62.2895C5.82209 62.2234 6.35458 62.1757 6.88707 62.1279L6.90323 62.1322ZM7.54754 63.8976L3.56804 64.6231C3.33318 65.5291 3.14515 66.4466 3.00471 67.372C4.9182 67.0191 7.07081 66.8082 9.01186 66.3848C10.6122 66.0691 12.0714 65.6984 13.5684 65.2512L11.6155 65.6542C9.78287 66.0287 8.16362 66.3825 6.27019 66.6283C5.49406 66.8222 4.68198 66.8217 3.906 66.6267C3.79078 66.5679 3.7056 66.4634 3.67134 66.3388C3.58698 65.7937 3.77686 65.2423 4.17891 64.8647C4.2917 64.7769 4.41835 64.7084 4.55366 64.6622C5.53757 64.3365 6.54023 64.0704 7.5562 63.8653L7.54754 63.8976ZM5.49333 67.9436C4.79412 68.0354 4.10032 68.1645 3.4149 68.3302C3.46403 68.3856 3.52142 68.4331 3.58505 68.471C5.28213 68.9258 7.57578 69.3845 10.0031 69.8618C10.8474 69.4907 11.9483 69.0673 12.9715 68.6749C12.5246 68.8235 12.0696 68.9699 11.605 69.0878C11.0168 69.2217 10.4165 69.2957 9.8134 69.3089C9.18815 69.3154 8.56353 69.2668 7.94678 69.1637C7.33771 69.0479 6.73805 68.8872 6.15272 68.6829C5.83904 68.5954 5.54276 68.4545 5.27689 68.2665C5.17674 68.1877 5.5779 67.9836 5.97848 67.8139L5.46374 67.8924L5.49333 67.9436Z" fill="url(#paint19_linear_0_17115)"/>
</g>
<g style="mix-blend-mode:screen" opacity="0.75">
<path fill-rule="evenodd" clip-rule="evenodd" d="M18.8052 56.795C17.3395 57.6747 15.5053 58.5076 13.968 59.2989C15.7418 57.812 17.7355 56.6087 19.8781 55.7321C22.7588 60.2957 25.3834 65.0159 27.7396 69.8706C26.4493 67.8976 24.9681 65.5704 23.5861 63.2611C23.5214 62.9152 23.389 62.5855 23.1964 62.291C23.156 62.2802 22.9777 62.1372 22.8415 62.0315C22.6855 61.7733 22.5612 61.5582 22.4214 61.3043L21.8296 60.2801C21.8131 60.1287 21.7837 59.9789 21.7417 59.8324C21.649 59.7488 21.5458 59.6775 21.4348 59.6203C20.9135 58.7536 20.4277 57.9482 19.9679 57.0459C19.818 56.7375 19.7456 56.3972 19.7571 56.0546C19.5052 56.3821 19.185 56.6507 18.8186 56.8419L18.8052 56.795Z" fill="#CA9E67"/>
</g>
<g style="mix-blend-mode:screen" opacity="0.75">
<path fill-rule="evenodd" clip-rule="evenodd" d="M6.00212 59.5795C5.02607 60.1836 4.41648 61.8121 3.94946 63.1672C4.24022 62.1055 4.58687 61.06 4.98796 60.0349C5.14986 59.8186 5.68116 59.355 6.0363 59.355C8.28826 60.0017 12.181 61.3131 15.9213 62.6442C12.7508 61.9284 9.62854 61.0138 6.57302 59.9056C6.379 59.8092 6.19105 59.701 6.0102 59.5817L6.00212 59.5795Z" fill="#CA9E67"/>
</g>
<g style="mix-blend-mode:multiply" opacity="0.5">
<path fill-rule="evenodd" clip-rule="evenodd" d="M18.8016 64.3076C15.685 65.0133 12.6271 66.6955 9.58698 67.3092C8.95579 67.4344 8.30468 67.5369 7.64117 67.6535C8.12027 67.6433 8.60153 67.6251 9.07529 67.5703C10.1402 67.512 11.1953 67.336 12.2214 67.0456C12.546 66.9335 13.4789 66.3611 14.1291 66.0679C14.5793 65.8701 15.0433 65.7052 15.5173 65.5743C15.8947 65.459 16.3085 65.466 16.68 65.3405C18.3545 64.6998 20.0829 64.2098 21.8448 63.8765C20.8177 63.9579 19.7978 64.1127 18.793 64.3399L18.8016 64.3076Z" fill="#683C11"/>
</g>
<g style="mix-blend-mode:screen" opacity="0.5">
<path fill-rule="evenodd" clip-rule="evenodd" d="M18.0005 69.2693C16.297 70.293 14.9503 71.3431 14.5319 72.0966C14.8549 71.6924 15.241 71.3428 15.6754 71.0613C17.7553 69.5103 20.1178 68.3792 22.6308 67.7313C20.9823 67.805 19.3858 68.3294 18.0151 69.2472L18.0005 69.2693Z" fill="#CA9E67"/>
</g>
<g style="mix-blend-mode:screen">
<path fill-rule="evenodd" clip-rule="evenodd" d="M22.8244 73.7647C21.1765 75.2275 16.7742 77.8219 13.4824 79.5367C12.2545 78.0651 11.3353 76.3616 10.7796 74.5277C11.6268 76.0524 12.5882 77.5109 13.6555 78.8906C16.7541 77.4443 19.9055 75.5101 22.8244 73.7647L22.8244 73.7647Z" fill="url(#paint20_radial_0_17115)"/>
</g>
<path fill-rule="evenodd" clip-rule="evenodd" d="M114.368 24.353C117.109 22.3486 119.963 20.5014 122.914 18.8204C121.712 18.9664 120.494 18.9251 119.305 18.6979C119.154 18.4482 119.04 18.1779 118.967 17.8955C118.858 15.595 119.055 13.2901 119.553 11.0411C122.107 11.1244 130.759 12.2093 135.596 12.972C135.885 13.1949 136.117 13.4819 136.275 13.8102C136.254 19.3772 135.924 24.939 135.286 30.4697C132.903 30.4792 130.534 30.1185 128.263 29.4007C127.999 29.1389 127.764 28.8491 127.563 28.5365C127.748 27.4589 128.092 26.4147 128.585 25.4385C125.871 28.056 122.775 30.907 120.739 32.6203C120.305 32.6922 119.86 32.6119 119.479 32.3931C117.597 30.4676 115.898 28.3705 114.406 26.1291C114.129 25.5727 114.115 24.9213 114.368 24.353Z" fill="url(#paint21_linear_0_17115)"/>
<path fill-rule="evenodd" clip-rule="evenodd" d="M114.368 24.353C116.214 22.9113 119.563 20.5328 122.839 18.2893C121.545 18.2471 120.255 18.1199 118.978 17.9085C118.814 15.6036 119.008 13.2871 119.553 11.0411C124.938 11.393 130.3 12.0441 135.612 12.9915C135.711 13.0669 135.791 13.1649 135.844 13.2774C135.657 18.6644 135.174 24.0373 134.397 29.3716C132.089 29.447 129.784 29.1653 127.563 28.5365C127.61 27.2408 127.744 25.9497 127.964 24.6717C125.239 27.2762 122.315 29.9669 120.274 31.6737C119.857 31.7561 119.425 31.6919 119.05 31.4919C117.271 29.6802 115.67 27.7023 114.267 25.5853C114.188 25.3272 114.125 24.6249 114.333 24.3376L114.368 24.353Z" fill="url(#paint22_radial_0_17115)"/>
<g style="mix-blend-mode:multiply" opacity="0.5">
<path fill-rule="evenodd" clip-rule="evenodd" d="M119.262 12.4496C119.566 11.9879 119.869 11.538 120.204 11.0735C120.152 11.0719 120.102 11.0702 120.053 11.0685C119.872 11.0622 119.71 11.0565 119.569 11.0605C119.44 11.5174 119.338 11.9811 119.262 12.4496ZM119.842 13.7978L119.842 13.7978L119.842 13.7978L119.842 13.7977C120.412 12.9177 120.995 12.0184 121.597 11.1719C121.35 11.146 121.113 11.1332 120.9 11.1227C120.349 12.0031 119.811 12.9199 119.28 13.8238L119.28 13.8238L119.016 14.2732L118.945 15.1696C119.241 14.725 119.54 14.2643 119.842 13.7981L119.842 13.798L119.842 13.7978ZM118.935 17.4969L118.917 17.5274L118.936 17.5116L118.935 17.4969ZM118.935 17.4969L119.558 16.4706C120.597 14.7361 121.671 12.9517 122.878 11.2645L122.159 11.2011C121.307 12.4894 120.558 13.8521 119.815 15.2056L119.815 15.2056C119.516 15.7508 119.217 16.2945 118.913 16.8312C118.917 17.0696 118.922 17.2968 118.935 17.4969ZM114.491 25.8347L114.512 25.8075L114.533 25.8331L114.491 25.8347ZM114.512 25.8075L114.343 25.5992C114.32 25.5214 114.303 25.442 114.291 25.3618L114.703 24.8341C115.15 24.2684 115.576 23.7185 115.979 23.1661C116.134 23.0527 116.296 22.9394 116.463 22.8231L116.463 22.8231L116.463 22.8231C116.764 22.6138 117.078 22.3947 117.383 22.1476C116.606 23.1426 115.837 24.1204 115.055 25.1088L114.512 25.8075ZM121.458 15.7068C121.016 16.5198 120.571 17.3383 120.096 18.1326L119.381 18.0339C119.869 17.2406 120.353 16.4291 120.847 15.577C121.051 15.2389 121.253 14.8993 121.454 14.5595C121.88 13.8425 122.306 13.1246 122.756 12.4173C122.99 12.0553 123.217 11.7104 123.448 11.3837L124.007 11.4364C123.956 11.5137 123.904 11.5914 123.852 11.6698C123.652 11.9691 123.446 12.2776 123.242 12.605C122.612 13.5847 122.038 14.641 121.458 15.7067L121.458 15.7068L121.458 15.7068ZM115.608 27.5335L115.628 27.5047L115.634 27.5125L115.608 27.5335ZM115.628 27.5047L115.192 26.9666L115.369 26.7053L115.369 26.7053C115.759 26.1277 116.147 25.5526 116.589 24.9425C117.543 23.5677 118.457 22.171 119.343 20.7653L120.268 20.113C119.317 21.9027 118.268 23.639 117.127 25.314L115.628 27.5047ZM124.864 12.0554C123.559 14.0582 122.36 16.1279 121.272 18.2559L120.918 18.2307L122.122 16.1803C122.455 15.611 122.762 15.0247 123.069 14.4385C123.534 13.5481 124 12.6579 124.561 11.8274L124.777 11.523L125.206 11.5739L124.864 12.0554ZM135.453 20.0273C135.325 19.8579 135.228 19.6664 135.168 19.4622C135.113 19.2718 135.101 19.0714 135.135 18.876C135.184 18.598 135.275 18.329 135.403 18.0775C135.478 17.9308 135.563 17.797 135.649 17.6633C135.602 18.4433 135.542 19.2457 135.448 20.0744L135.453 20.0273ZM134.907 25.4336L134.949 25.4274L134.908 25.429L134.908 25.4292L134.907 25.4336ZM133.721 25.5723C134.12 25.5395 134.516 25.4897 134.907 25.4336C134.871 25.7196 134.835 26.0056 134.812 26.2812C133.091 26.642 131.038 26.8194 130.236 26.0812C129.603 25.3785 129.313 24.4317 129.444 23.4947C129.589 19.0739 130.296 15.1876 133.316 12.6557L134.395 12.8579C131.244 15.3345 130.578 19.005 130.446 23.1894C130.373 23.9042 130.646 24.6105 131.179 25.0918C131.664 25.5054 132.461 25.6781 133.721 25.5723ZM134.573 28.4326C133.638 28.7271 132.621 29.013 131.502 29.306L131.45 29.3481C132.05 29.411 132.626 29.4714 133.203 29.4665L134.484 29.0536L134.589 28.4521L134.573 28.4326ZM126.943 23.304C126.671 24.2984 126.388 25.4639 126.188 26.4539L125.193 27.3783C125.338 26.6595 125.578 25.7794 125.819 24.8975C125.975 24.3289 126.13 23.7597 126.26 23.2325C126.471 22.4701 126.653 21.7513 126.826 21.0663L126.826 21.0663C127.67 17.7277 128.311 15.1929 131.145 12.327L131.7 12.415C128.595 15.8366 128.151 17.9197 127.565 20.6655L127.565 20.6655C127.394 21.4711 127.21 22.3338 126.943 23.304ZM120.082 31.808L120.091 31.7832L120.126 31.7829L120.082 31.808ZM120.091 31.7832C120.352 31.1256 120.648 30.4824 120.977 29.8563C121.155 29.5136 121.337 29.1691 121.519 28.8243L121.519 28.8243L121.519 28.8242L121.519 28.8242C121.988 27.9372 122.458 27.0479 122.857 26.1821C123.522 24.7291 123.96 23.1055 124.401 21.4712C124.816 19.9336 125.234 18.3864 125.845 16.963C126.606 15.1562 127.637 13.4757 128.904 11.9792L128.258 11.8997C127.068 13.3588 126.094 14.981 125.366 16.7165C124.833 17.9332 124.428 19.1753 124.043 20.4016C123.417 22.3442 122.676 24.2482 121.825 26.1037C121.456 26.8713 121.044 27.6637 120.629 28.4616L120.629 28.4616L120.629 28.4617L120.629 28.4617L120.629 28.4617L120.629 28.4617C120.092 29.494 119.551 30.5354 119.092 31.5438C119.402 31.7014 119.744 31.7834 120.091 31.7832ZM118.742 26.2262C118.201 27.3568 117.672 28.463 117.153 29.521L117.143 29.4427L116.586 28.7539C117.333 27.3634 118.062 25.9769 118.78 24.5775C119.245 23.6142 119.698 22.6603 120.152 21.7065L120.152 21.7063L120.152 21.7062C120.529 20.9114 120.907 20.1166 121.291 19.3163L122.57 18.5286C121.224 21.0391 119.954 23.694 118.742 26.2262ZM122.671 18.3608C123.876 16.0575 125.263 13.8545 126.82 11.7728L126.168 11.6985C124.5 13.7502 123.05 15.9698 121.842 18.3215L122.658 18.3713L122.671 18.3608ZM134.424 15.6856C134.813 15.1856 135.274 14.7469 135.792 14.3839L135.772 14.917C135.364 15.2131 135.002 15.5679 134.698 15.9699C134.37 16.4127 134.087 16.887 133.853 17.3858C133.425 18.2782 133.193 19.2512 133.171 20.2401C133.174 21.9054 134.007 22.4031 135.223 22.4947L135.172 23.0306C134.598 23.009 134.034 22.8731 133.514 22.6308C133.444 22.5885 133.378 22.5418 133.314 22.491C132.764 21.9063 132.509 21.1028 132.623 20.3075C132.689 19.245 132.969 18.2066 133.444 17.2538C133.719 16.7007 134.048 16.1755 134.424 15.6856Z" fill="#B7805C"/>
</g>
<g style="mix-blend-mode:multiply">
<path fill-rule="evenodd" clip-rule="evenodd" d="M119.084 31.5073C119.924 29.7518 121.018 27.8864 121.817 26.0671C122.668 24.2117 123.409 22.3077 124.035 20.365C124.446 19.1177 124.851 17.8757 125.357 16.68C126.072 14.9699 127.029 13.3718 128.201 11.9353L128.266 11.8826L126.828 11.7022L126.763 11.7549C125.234 13.824 123.868 16.0091 122.678 18.2902L122.821 18.2932L122.593 18.4775L122.377 18.889L122.177 19.2664C120.384 22.6762 118.736 26.2914 117.176 29.4699C117.771 30.1924 118.403 30.8838 119.069 31.5414L119.084 31.5073Z" fill="url(#paint23_radial_0_17115)"/>
</g>
<g style="mix-blend-mode:multiply">
<path fill-rule="evenodd" clip-rule="evenodd" d="M130.471 23.1148C130.399 23.8296 130.671 24.536 131.204 25.0172C131.664 25.4519 132.461 25.6246 133.747 25.4977C134.161 25.4638 134.57 25.4116 134.975 25.3529C135.052 24.6236 135.134 23.8472 135.223 23.0003C134.649 22.9787 134.085 22.8428 133.564 22.6005C133.479 22.57 133.395 22.5334 133.314 22.491C132.752 21.9046 132.492 21.0923 132.607 20.2881C132.676 19.1916 132.971 18.121 133.474 17.144C133.749 16.5908 134.077 16.0656 134.454 15.5757C134.842 15.0758 135.303 14.637 135.822 14.2741L135.86 13.2315C135.809 13.1213 135.731 13.0254 135.634 12.9521L134.443 12.7441C131.315 15.2231 130.655 18.8883 130.519 23.0544L130.471 23.1148Z" fill="url(#paint24_radial_0_17115)"/>
</g>
<g style="mix-blend-mode:multiply">
<path fill-rule="evenodd" clip-rule="evenodd" d="M133.18 20.2649C133.183 21.9302 134.006 22.4149 135.232 22.5196C135.308 21.6832 135.387 20.8232 135.453 19.9738C135.324 19.8044 135.228 19.6129 135.168 19.4088C135.112 19.2184 135.101 19.018 135.134 18.8225C135.184 18.5446 135.274 18.2755 135.403 18.0241C135.478 17.8773 135.563 17.7436 135.649 17.6098C135.71 16.6886 135.763 15.7962 135.802 14.9678C135.394 15.2639 135.032 15.6187 134.728 16.0207C134.4 16.4635 134.117 16.9378 133.883 17.4367C133.456 18.329 133.223 19.302 133.201 20.2909L133.18 20.2649Z" fill="url(#paint25_radial_0_17115)"/>
</g>
<g style="mix-blend-mode:screen">
<path fill-rule="evenodd" clip-rule="evenodd" d="M114.272 24.5273C114.209 24.8034 114.199 25.0889 114.243 25.3686L114.655 24.841C115.079 24.3146 115.473 23.791 115.861 23.2726L115.952 23.1989C115.373 23.6675 114.816 24.0432 114.376 24.3895L114.293 24.5533L114.272 24.5273ZM115.191 26.9249C115.641 26.2585 116.105 25.5817 116.587 24.9008L117.656 23.3359L117.035 24.1508C116.869 24.3713 115.546 26.2069 115.43 26.2363C115.314 26.2658 115.262 26.1355 115.211 26.0588C115.128 25.9201 115.067 25.7693 115.032 25.6119C115.005 25.5348 115.006 25.451 115.033 25.3741C115.177 25.1196 115.34 24.8762 115.52 24.6462L116.094 23.7727L115.035 25.1247L114.471 25.8505C114.713 26.1494 114.939 26.5476 115.204 26.9143L115.191 26.9249ZM117.104 25.2998L115.6 27.497C115.932 27.9064 116.279 28.3352 116.621 28.7576C117.368 27.3671 118.097 25.9807 118.815 24.5812L119.207 23.8016L118.517 24.9841C118.072 25.764 117.654 26.5764 117.203 27.3499C117.095 27.5588 116.957 27.7507 116.793 27.9193C116.743 27.9644 116.669 27.9712 116.612 27.9361C116.479 27.8241 116.368 27.6873 116.286 27.5332C116.221 27.4073 116.188 27.2668 116.192 27.125C116.188 26.9761 116.22 26.8284 116.285 26.6947C116.543 26.2281 116.817 25.7692 117.091 25.3104L117.104 25.2998ZM118.911 25.8162L117.159 29.4622C117.754 30.1847 118.386 30.8761 119.052 31.5336C119.891 29.7782 120.986 27.9127 121.784 26.0935C122.469 24.6133 123.027 23.2148 123.545 21.7409L122.723 23.5576C121.949 25.2604 121.284 26.7784 120.37 28.4547C120.07 29.1966 119.593 29.8532 118.979 30.3664C118.863 30.4251 118.729 30.4326 118.608 30.387C118.117 30.1349 117.783 29.6572 117.714 29.11C117.709 28.9671 117.728 28.8244 117.77 28.6877C118.085 27.7003 118.459 26.7327 118.89 25.7902L118.911 25.8162ZM120.977 29.8563C120.64 30.4759 120.337 31.1131 120.068 31.765C120.142 31.7578 120.214 31.7393 120.282 31.7101C121.648 30.6045 123.367 29.0185 125.18 27.3353C125.376 26.4342 125.68 25.2946 125.964 24.2362C125.822 24.6851 125.673 25.1392 125.495 25.5844C125.258 26.139 124.965 26.6681 124.621 27.1638C124.259 27.6734 123.852 28.1502 123.406 28.5885C122.955 29.0133 122.472 29.404 121.963 29.7574C121.708 29.9597 121.42 30.1166 121.111 30.2212C120.989 30.2559 121.059 29.8114 121.157 29.3876L120.918 29.8501L120.977 29.8563Z" fill="url(#paint26_linear_0_17115)"/>
</g>
<g style="mix-blend-mode:screen" opacity="0.75">
<path fill-rule="evenodd" clip-rule="evenodd" d="M119.782 12.5339C119.632 14.2367 119.228 16.2102 118.965 17.919C118.804 15.6099 119.003 13.2898 119.553 11.0411C124.938 11.393 130.3 12.0441 135.612 12.9915C133.258 12.8755 130.504 12.706 127.824 12.4667C127.506 12.3157 127.161 12.2291 126.81 12.2118C126.777 12.2381 126.557 12.2983 126.391 12.3463C126.091 12.3208 125.844 12.2949 125.556 12.2588L124.38 12.1355C124.247 12.0598 124.109 11.9956 123.966 11.9435C123.844 11.9694 123.725 12.0109 123.614 12.0672C122.606 11.9794 121.669 11.899 120.669 11.7407C120.331 11.6807 120.013 11.5392 119.743 11.3285C119.86 11.7248 119.889 12.1418 119.828 12.5506L119.782 12.5339Z" fill="#CA9E67"/>
</g>
<g style="mix-blend-mode:screen" opacity="0.75">
<path fill-rule="evenodd" clip-rule="evenodd" d="M114.51 24.5285C114.425 25.6732 115.384 27.1236 116.206 28.2979C115.518 27.4387 114.875 26.5437 114.282 25.6166C114.202 25.3585 114.139 24.6562 114.348 24.3689C116.195 22.9271 119.544 20.5486 122.819 18.3051C120.377 20.4494 117.801 22.4377 115.109 24.2583C114.917 24.3586 114.719 24.4471 114.516 24.5232L114.51 24.5285Z" fill="#CA9E67"/>
</g>
<g style="mix-blend-mode:multiply" opacity="0.5">
<path fill-rule="evenodd" clip-rule="evenodd" d="M125.858 16.9525C124.597 19.8887 124.161 23.3514 122.87 26.1716C122.6 26.7558 122.301 27.3428 122.005 27.9481C122.278 27.5546 122.546 27.1545 122.781 26.739C123.359 25.8432 123.837 24.8862 124.205 23.8853C124.305 23.5569 124.391 22.4657 124.536 21.7673C124.64 21.2868 124.78 20.8145 124.952 20.3541C125.081 19.981 125.33 19.6503 125.447 19.276C125.912 17.5447 126.532 15.8584 127.298 14.2371C126.76 15.1159 126.286 16.032 125.879 16.9784L125.858 16.9525Z" fill="#683C11"/>
</g>
<g style="mix-blend-mode:screen" opacity="0.5">
<path fill-rule="evenodd" clip-rule="evenodd" d="M129.401 20.517C129.228 22.4969 129.286 24.2037 129.65 24.9851C129.513 24.4861 129.457 23.9683 129.484 23.4514C129.452 20.8571 129.926 18.281 130.879 15.8671C129.969 17.2441 129.455 18.8439 129.392 20.4923L129.401 20.517Z" fill="#CA9E67"/>
</g>
<g style="mix-blend-mode:screen">
<path fill-rule="evenodd" clip-rule="evenodd" d="M135.874 19.2567C136.088 21.4497 135.6 26.5363 135.052 30.2074C133.14 30.3357 131.221 30.0781 129.411 29.4497C131.143 29.6605 132.888 29.74 134.631 29.6875C135.282 26.3306 135.57 22.6442 135.874 19.2567V19.2567Z" fill="url(#paint27_radial_0_17115)"/>
</g>
<path fill-rule="evenodd" clip-rule="evenodd" d="M247.489 25.1957C250.342 27.0371 253.089 29.0389 255.716 31.1915C255.149 30.1216 254.752 28.9702 254.537 27.7786C254.717 27.5483 254.928 27.3452 255.166 27.1758C257.274 26.2496 259.497 25.6075 261.775 25.2663C262.612 27.6808 264.7 36.1464 265.721 40.936C265.617 41.285 265.432 41.6048 265.182 41.8701C259.977 43.8457 254.667 45.5306 249.275 46.9169C248.412 44.6959 247.9 42.3547 247.756 39.9768C247.906 39.6365 248.092 39.3136 248.312 39.0137C249.384 38.8003 250.482 38.7478 251.57 38.858C248.154 37.2621 244.383 35.3939 242.054 34.107C241.831 33.7277 241.747 33.2832 241.814 32.8488C242.937 30.4016 244.287 28.0647 245.844 25.8684C246.264 25.4099 246.867 25.1632 247.489 25.1957Z" fill="url(#paint28_linear_0_17115)"/>
<path fill-rule="evenodd" clip-rule="evenodd" d="M247.489 25.1957C249.496 26.4032 252.917 28.6775 256.185 30.9313C255.761 29.7081 255.418 28.4584 255.157 27.1902C257.25 26.2116 259.483 25.5626 261.775 25.2663C263.376 30.4199 264.69 35.6585 265.709 40.9577C265.674 41.0771 265.611 41.1864 265.525 41.2763C260.429 43.0326 255.24 44.5071 249.981 45.6932C249.084 43.5658 248.521 41.3127 248.312 39.0137C249.538 38.5937 250.792 38.2562 252.064 38.0035C248.656 36.3932 245.096 34.6275 242.771 33.3335C242.545 32.974 242.45 32.5473 242.502 32.1259C243.556 29.8156 244.828 27.6115 246.302 25.5438C246.515 25.3768 247.148 25.0665 247.491 25.1584L247.489 25.1957Z" fill="url(#paint29_radial_0_17115)"/>
<g style="mix-blend-mode:multiply" opacity="0.5">
<path fill-rule="evenodd" clip-rule="evenodd" d="M260.355 25.4992C260.895 25.618 261.424 25.7397 261.978 25.8855C261.961 25.8368 261.944 25.7893 261.928 25.7432C261.869 25.5716 261.816 25.4183 261.762 25.2881C261.29 25.3318 260.82 25.4023 260.355 25.4992ZM259.305 26.524L259.305 26.524L259.305 26.524L259.305 26.524C260.331 26.7408 261.379 26.9623 262.385 27.2213C262.321 26.9814 262.248 26.756 262.181 26.5534C261.162 26.3538 260.113 26.18 259.079 26.0087L259.079 26.0087L258.565 25.9233L257.703 26.1786C258.224 26.2956 258.761 26.4091 259.304 26.5239L259.304 26.5239L259.305 26.524ZM255.526 27.0032L255.491 26.9969L255.513 27.0094L255.526 27.0032ZM255.526 27.0032L256.707 27.2163C258.699 27.5649 260.75 27.9283 262.757 28.4501L262.559 27.7563C261.051 27.4224 259.511 27.2122 257.981 27.0034L257.981 27.0034C257.364 26.9193 256.75 26.8354 256.14 26.7437C255.919 26.8328 255.708 26.9189 255.526 27.0032ZM246.15 25.8419L246.182 25.8518L246.166 25.8803L246.15 25.8419ZM246.182 25.8518L246.316 25.6196C246.381 25.5703 246.449 25.5256 246.519 25.4858L247.16 25.6817C247.848 25.8955 248.514 26.0968 249.174 26.2752C249.335 26.3786 249.5 26.4898 249.668 26.604L249.668 26.604L249.668 26.604C249.971 26.8094 250.288 27.0245 250.628 27.2208C249.421 26.852 248.232 26.4844 247.029 26.1084L246.182 25.8518ZM258.102 28.7169C257.184 28.5955 256.26 28.4733 255.349 28.3145L255.185 27.6116C256.1 27.7829 257.031 27.9439 258.004 28.0999C258.392 28.1691 258.782 28.2357 259.171 28.3022C259.993 28.4427 260.816 28.5834 261.638 28.7498C262.06 28.8389 262.463 28.9269 262.851 29.0252L263.002 29.5663C262.911 29.5461 262.82 29.5255 262.728 29.5048C262.377 29.4255 262.015 29.3438 261.637 29.2705C260.496 29.0339 259.304 28.8761 258.102 28.7169L258.102 28.7169L258.102 28.7169ZM244.964 27.4938L244.998 27.5019L244.993 27.5105L244.964 27.4938ZM244.998 27.5019L245.344 26.9023L245.651 26.9735L245.651 26.9735C246.33 27.1307 247.007 27.2873 247.734 27.4809C249.36 27.8786 250.991 28.2317 252.621 28.5548L253.561 29.1847C251.55 28.9381 249.553 28.5813 247.58 28.1161L244.998 27.5019ZM262.731 30.5878C260.394 30.0877 258.032 29.7102 255.655 29.457L255.552 29.1173L257.897 29.5059C258.548 29.6136 259.206 29.6898 259.863 29.7659C260.861 29.8815 261.859 29.9972 262.835 30.2232L263.197 30.3162L263.303 30.7347L262.731 30.5878ZM259.083 43.3308C259.195 43.1499 259.34 42.991 259.509 42.8619C259.667 42.7421 259.85 42.6597 260.044 42.6207C260.321 42.5673 260.605 42.5554 260.886 42.5853C261.05 42.6026 261.205 42.6345 261.361 42.6663C260.616 42.9024 259.845 43.1332 259.038 43.3431L259.083 43.3308ZM253.841 44.7583L253.861 44.7957L253.845 44.7572L253.845 44.7573L253.841 44.7583ZM253.286 43.7007C253.46 44.0619 253.648 44.4135 253.841 44.7583C253.561 44.8271 253.281 44.896 253.015 44.9732C252.061 43.4958 251.16 41.6432 251.562 40.6296C251.991 39.7867 252.771 39.1769 253.693 38.9634C257.872 37.5144 261.754 36.7818 265.2 38.6942L265.397 39.7738C261.956 37.7194 258.291 38.4126 254.337 39.789C253.644 39.9777 253.082 40.485 252.823 41.1552C252.611 41.7568 252.736 42.5623 253.286 43.7007ZM250.921 45.5213C250.311 44.754 249.68 43.9067 249.005 42.9669L248.947 42.9334C249.103 43.516 249.253 44.0758 249.465 44.6131L250.309 45.6606L250.908 45.5431L250.921 45.5213ZM252.974 36.5599C251.949 36.6629 250.759 36.816 249.763 36.9845L248.544 36.3865C249.267 36.2637 250.175 36.173 251.084 36.082C251.671 36.0234 252.258 35.9646 252.797 35.8972C253.584 35.821 254.32 35.733 255.022 35.6492L255.022 35.6492C258.441 35.2408 261.037 34.9307 264.728 36.549L264.845 37.0993C260.538 35.4261 258.434 35.758 255.661 36.1955L255.661 36.1955C254.847 36.3238 253.976 36.4613 252.974 36.5599ZM242.576 33.2019L242.603 33.2022L242.616 33.2343L242.576 33.2019ZM242.603 33.2022C243.31 33.2099 244.017 33.2554 244.72 33.3386C245.103 33.3816 245.49 33.4281 245.877 33.4746L245.877 33.4746L245.877 33.4746L245.877 33.4746C246.873 33.5943 247.872 33.7143 248.823 33.777C250.418 33.877 252.091 33.7042 253.775 33.5303C255.359 33.3666 256.953 33.202 258.501 33.2626C260.46 33.3252 262.399 33.6859 264.25 34.3322L264.093 33.7008C262.304 33.1131 260.441 32.7851 258.559 32.7266C257.232 32.6654 255.928 32.7329 254.645 32.8129C252.607 32.924 250.564 32.9147 248.527 32.785C247.678 32.7159 246.79 32.6153 245.897 32.5139L245.897 32.5139L245.897 32.5139L245.897 32.5139L245.897 32.5139L245.897 32.5139C244.741 32.3828 243.574 32.2505 242.469 32.1839C242.432 32.5293 242.479 32.8782 242.603 33.2022ZM247.308 29.9512C246.058 29.8513 244.836 29.7537 243.662 29.6482L243.732 29.6112L244.175 28.8437C245.741 29.043 247.296 29.2266 248.86 29.3958C249.926 29.4846 250.979 29.5659 252.032 29.6472L252.032 29.6472L252.032 29.6472C252.91 29.715 253.787 29.7827 254.672 29.8548L255.866 30.7659C253.039 30.4091 250.106 30.1747 247.308 29.9512ZM256.058 30.8C258.64 31.0995 261.195 31.6055 263.696 32.3132L263.532 31.6776C261.018 30.8557 258.427 30.2977 255.798 30.0126L256.044 30.7917L256.058 30.8ZM262.768 40.8142C263.374 40.9976 263.949 41.2709 264.474 41.6251L263.969 41.797C263.546 41.5221 263.085 41.3113 262.601 41.1713C262.07 41.0238 261.525 40.9295 260.976 40.8898C259.99 40.8107 258.998 40.9426 258.067 41.2764C256.513 41.8759 256.347 42.8325 256.697 44L256.179 44.1448C255.993 43.6012 255.918 43.026 255.958 42.4531C255.972 42.3732 255.992 42.2943 256.017 42.2169C256.365 41.4934 257.024 40.9679 257.807 40.7887C258.823 40.4702 259.893 40.3589 260.953 40.4613C261.568 40.52 262.176 40.6382 262.768 40.8142Z" fill="#B7805C"/>
</g>
<g style="mix-blend-mode:multiply">
<path fill-rule="evenodd" clip-rule="evenodd" d="M242.5 32.1632C244.439 32.3176 246.573 32.671 248.558 32.7644C250.595 32.894 252.638 32.9033 254.676 32.7922C255.988 32.7289 257.293 32.6614 258.59 32.7059C260.443 32.76 262.278 33.0813 264.039 33.66L264.111 33.7018L263.764 32.2947L263.692 32.2529C261.212 31.5667 258.683 31.0748 256.127 30.7816L256.175 30.9157L255.922 30.7692L255.46 30.7152L255.036 30.6634C251.21 30.2118 247.245 29.969 243.718 29.6516C243.257 30.4659 242.838 31.3035 242.462 32.161L242.5 32.1632Z" fill="url(#paint30_radial_0_17115)"/>
</g>
<g style="mix-blend-mode:multiply">
<path fill-rule="evenodd" clip-rule="evenodd" d="M254.416 39.7862C253.722 39.9749 253.161 40.4822 252.902 41.1524C252.661 41.7373 252.786 42.5428 253.365 43.6979C253.545 44.0722 253.74 44.4362 253.94 44.7929C254.649 44.6033 255.403 44.4015 256.225 44.1813C256.04 43.6377 255.965 43.0625 256.004 42.4896C256.002 42.3985 256.006 42.3073 256.017 42.2168C256.363 41.482 257.028 40.9474 257.82 40.767C258.868 40.4381 259.973 40.33 261.066 40.4493C261.681 40.5081 262.289 40.6263 262.881 40.8023C263.487 40.9856 264.062 41.259 264.587 41.6131L265.574 41.2755C265.658 41.188 265.72 41.0811 265.754 40.9642L265.521 39.7775C262.086 37.7459 258.427 38.4433 254.489 39.8094L254.416 39.7862Z" fill="url(#paint31_radial_0_17115)"/>
</g>
<g style="mix-blend-mode:multiply">
<path fill-rule="evenodd" clip-rule="evenodd" d="M258.047 41.294C256.493 41.8934 256.336 42.8356 256.678 44.0176C257.486 43.789 258.317 43.5544 259.133 43.3114C259.245 43.1305 259.389 42.9716 259.559 42.8425C259.717 42.7227 259.9 42.6402 260.094 42.6013C260.371 42.5479 260.655 42.5359 260.936 42.5658C261.099 42.5832 261.255 42.615 261.41 42.6469C262.293 42.3741 263.144 42.1033 263.932 41.8435C263.509 41.5687 263.048 41.3578 262.564 41.2178C262.033 41.0703 261.489 40.976 260.939 40.9363C259.953 40.8573 258.961 40.9891 258.03 41.3229L258.047 41.294Z" fill="url(#paint32_radial_0_17115)"/>
</g>
<g style="mix-blend-mode:screen">
<path fill-rule="evenodd" clip-rule="evenodd" d="M247.292 25.1689C247.011 25.2092 246.741 25.3022 246.496 25.4431L247.136 25.639C247.78 25.8464 248.41 26.0268 249.032 26.2029L249.134 26.2615C248.489 25.8892 247.939 25.5038 247.457 25.2163L247.275 25.1978L247.292 25.1689ZM245.383 26.8858C246.166 27.0679 246.964 27.2584 247.773 27.4645L249.617 27.9016L248.633 27.6138C248.368 27.5378 246.18 26.9601 246.111 26.8623C246.042 26.7645 246.145 26.6695 246.198 26.5941C246.298 26.4672 246.417 26.3568 246.551 26.2669C246.614 26.2145 246.692 26.1849 246.774 26.1829C247.063 26.2259 247.348 26.2907 247.628 26.3768L248.649 26.5994L247.008 26.0959L246.128 25.8293C245.935 26.1624 245.645 26.5157 245.397 26.8942L245.383 26.8858ZM247.585 28.0901L244.995 27.4732C244.732 27.9293 244.456 28.4072 244.184 28.8779C245.75 29.0772 247.306 29.2609 248.87 29.4301L249.738 29.5161L248.387 29.2961C247.499 29.1601 246.591 29.0604 245.707 28.9173C245.473 28.8911 245.244 28.8306 245.028 28.7377C244.968 28.7075 244.936 28.6414 244.948 28.5755C245.005 28.4106 245.093 28.2581 245.207 28.1266C245.301 28.0204 245.421 27.94 245.555 27.8928C245.692 27.8351 245.841 27.812 245.99 27.8253C246.518 27.8984 247.044 27.99 247.571 28.0817L247.585 28.0901ZM247.751 29.9621L243.719 29.6329C243.258 30.4473 242.839 31.2848 242.464 32.1423C244.403 32.2967 246.537 32.6501 248.522 32.7435C250.149 32.8528 251.655 32.8724 253.216 32.8279L251.226 32.7117C249.359 32.5991 247.703 32.5218 245.81 32.2691C245.01 32.2556 244.226 32.0449 243.527 31.6557C243.431 31.5691 243.376 31.4461 243.375 31.3168C243.435 30.7685 243.761 30.285 244.247 30.0244C244.378 29.9687 244.518 29.9354 244.661 29.9257C245.696 29.8658 246.733 29.8683 247.768 29.9331L247.751 29.9621ZM244.72 33.3385C244.02 33.2463 243.317 33.1914 242.612 33.174C242.645 33.2403 242.688 33.301 242.74 33.3541C244.261 34.2326 246.358 35.2693 248.579 36.3586C249.491 36.2187 250.664 36.0946 251.754 35.9804C251.283 36.0083 250.806 36.032 250.327 36.0256C249.724 36.0026 249.125 35.9188 248.539 35.7755C247.933 35.6199 247.343 35.4113 246.774 35.152C246.215 34.8826 245.678 34.5722 245.165 34.2234C244.885 34.0576 244.635 33.8448 244.427 33.5944C244.351 33.4924 244.791 33.399 245.222 33.3388L244.704 33.2814L244.72 33.3385Z" fill="url(#paint33_linear_0_17115)"/>
</g>
<g style="mix-blend-mode:screen" opacity="0.75">
<path fill-rule="evenodd" clip-rule="evenodd" d="M260.463 26.0153C258.82 26.4857 256.833 26.8155 255.143 27.1819C257.241 26.2047 259.478 25.5585 261.775 25.2663C263.376 30.42 264.69 35.6586 265.709 40.9578C264.973 38.718 264.145 36.0867 263.408 33.4984C263.435 33.1476 263.392 32.7949 263.282 32.4606C263.246 32.4396 263.111 32.2554 263.007 32.118C262.923 31.8282 262.859 31.5883 262.789 31.3069L262.483 30.1645C262.506 30.0139 262.516 29.8616 262.514 29.7093C262.446 29.6045 262.364 29.5089 262.272 29.4249C261.993 28.4528 261.732 27.5491 261.521 26.5586C261.456 26.2219 261.475 25.8745 261.574 25.5465C261.246 25.7976 260.867 25.9742 260.464 26.064L260.463 26.0153Z" fill="#CA9E67"/>
</g>
<g style="mix-blend-mode:screen" opacity="0.75">
<path fill-rule="evenodd" clip-rule="evenodd" d="M247.376 25.3913C246.277 25.7222 245.266 27.1374 244.464 28.3254C245.02 27.3752 245.626 26.455 246.278 25.5687C246.491 25.4016 247.124 25.0914 247.467 25.1832C249.475 26.3907 252.895 28.665 256.164 30.9188C253.287 29.4068 250.507 27.7152 247.843 25.854C247.68 25.7107 247.527 25.5575 247.383 25.3955L247.376 25.3913Z" fill="#CA9E67"/>
</g>
<g style="mix-blend-mode:multiply" opacity="0.5">
<path fill-rule="evenodd" clip-rule="evenodd" d="M258.515 33.2709C255.322 33.1459 251.933 33.9794 248.838 33.7854C248.196 33.7429 247.54 33.6734 246.869 33.6142C247.335 33.7285 247.804 33.8354 248.276 33.9051C249.32 34.1244 250.384 34.2275 251.451 34.2126C251.793 34.1883 252.842 33.8769 253.546 33.7619C254.033 33.6874 254.523 33.6481 255.015 33.6444C255.409 33.6307 255.807 33.7446 256.199 33.7195C257.982 33.534 259.778 33.5081 261.566 33.6422C260.553 33.4549 259.528 33.3405 258.499 33.2999L258.515 33.2709Z" fill="#683C11"/>
</g>
<g style="mix-blend-mode:screen" opacity="0.5">
<path fill-rule="evenodd" clip-rule="evenodd" d="M256.457 37.8562C254.547 38.4042 252.974 39.07 252.375 39.6895C252.792 39.3826 253.255 39.1449 253.748 38.9855C256.158 38.0255 258.733 37.5445 261.328 37.5691C259.717 37.2136 258.039 37.3069 256.477 37.8387L256.457 37.8562Z" fill="#CA9E67"/>
</g>
<g style="mix-blend-mode:screen">
<path fill-rule="evenodd" clip-rule="evenodd" d="M259.953 43.447C257.983 44.4334 253.059 45.8001 249.436 46.6045C248.631 44.8652 248.184 42.9818 248.122 41.0666C248.545 42.7586 249.096 44.4162 249.77 46.0252C253.138 45.4302 256.682 44.3775 259.953 43.447V43.447Z" fill="url(#paint34_radial_0_17115)"/>
</g>
<defs>
<linearGradient id="paint0_linear_0_17115" x1="76.6684" y1="80.0677" x2="60.9511" y2="60.6586" gradientUnits="userSpaceOnUse">
<stop stop-color="#692705"/>
<stop offset="1" stop-color="#823B00"/>
</linearGradient>
<radialGradient id="paint1_radial_0_17115" cx="0" cy="0" r="1" gradientUnits="userSpaceOnUse" gradientTransform="translate(78.0144 43.1576) rotate(141) scale(27.2714 26.0381)">
<stop stop-color="#BD8A60"/>
<stop offset="1" stop-color="#A85021"/>
</radialGradient>
<radialGradient id="paint2_radial_0_17115" cx="0" cy="0" r="1" gradientUnits="userSpaceOnUse" gradientTransform="translate(80.1385 72.5776) rotate(141) scale(23.988 7.77709)">
<stop stop-color="#CFA04D"/>
<stop offset="1" stop-color="white"/>
</radialGradient>
<radialGradient id="paint3_radial_0_17115" cx="0" cy="0" r="1" gradientUnits="userSpaceOnUse" gradientTransform="translate(63.9186 57.0399) rotate(141) scale(26.0622 18.3987)">
<stop stop-color="#CFA04D"/>
<stop offset="1" stop-color="white"/>
</radialGradient>
<radialGradient id="paint4_radial_0_17115" cx="0" cy="0" r="1" gradientUnits="userSpaceOnUse" gradientTransform="translate(86.4655 72.855) rotate(141) scale(15.8498 3.83401)">
<stop stop-color="#CFA04D"/>
<stop offset="1" stop-color="white"/>
</radialGradient>
<linearGradient id="paint5_linear_0_17115" x1="102.371" y1="65.1055" x2="85.7508" y2="78.5646" gradientUnits="userSpaceOnUse">
<stop stop-color="#CA9E67"/>
<stop offset="0.65"/>
</linearGradient>
<radialGradient id="paint6_radial_0_17115" cx="0" cy="0" r="1" gradientUnits="userSpaceOnUse" gradientTransform="translate(87.265 71.5297) rotate(141) scale(17.6982 12.3369)">
<stop stop-color="#B0670B"/>
<stop offset="1"/>
</radialGradient>
<linearGradient id="paint7_linear_0_17115" x1="179.384" y1="25.3297" x2="180.691" y2="0.389007" gradientUnits="userSpaceOnUse">
<stop stop-color="#692705"/>
<stop offset="1" stop-color="#823B00"/>
</linearGradient>
<radialGradient id="paint8_radial_0_17115" cx="0" cy="0" r="1" gradientUnits="userSpaceOnUse" gradientTransform="translate(205.082 -1.19915) rotate(-177) scale(27.2714 26.0381)">
<stop stop-color="#BD8A60"/>
<stop offset="1" stop-color="#A85021"/>
</radialGradient>
<radialGradient id="paint9_radial_0_17115" cx="0" cy="0" r="1" gradientUnits="userSpaceOnUse" gradientTransform="translate(186.975 22.0854) rotate(-177) scale(23.988 7.77709)">
<stop stop-color="#CFA04D"/>
<stop offset="1" stop-color="white"/>
</radialGradient>
<radialGradient id="paint10_radial_0_17115" cx="0" cy="0" r="1" gradientUnits="userSpaceOnUse" gradientTransform="translate(185.318 -0.314691) rotate(-177) scale(26.0622 18.3987)">
<stop stop-color="#CFA04D"/>
<stop offset="1" stop-color="white"/>
</radialGradient>
<radialGradient id="paint11_radial_0_17115" cx="0" cy="0" r="1" gradientUnits="userSpaceOnUse" gradientTransform="translate(191.491 26.5251) rotate(-177) scale(15.8498 3.83401)">
<stop stop-color="#CFA04D"/>
<stop offset="1" stop-color="white"/>
</radialGradient>
<linearGradient id="paint12_linear_0_17115" x1="208.497" y1="31.4092" x2="187.139" y2="30.2899" gradientUnits="userSpaceOnUse">
<stop stop-color="#CA9E67"/>
<stop offset="0.65"/>
</linearGradient>
<radialGradient id="paint13_radial_0_17115" cx="0" cy="0" r="1" gradientUnits="userSpaceOnUse" gradientTransform="translate(192.972 26.0753) rotate(-177) scale(17.6982 12.3369)">
<stop stop-color="#B0670B"/>
<stop offset="1"/>
</radialGradient>
<linearGradient id="paint14_linear_0_17115" x1="24.3296" y1="82.8068" x2="30.7936" y2="58.6829" gradientUnits="userSpaceOnUse">
<stop stop-color="#692705"/>
<stop offset="1" stop-color="#823B00"/>
</linearGradient>
<radialGradient id="paint15_radial_0_17115" cx="0" cy="0" r="1" gradientUnits="userSpaceOnUse" gradientTransform="translate(8.26964 49.6841) rotate(15) scale(27.2863 26.0381)">
<stop stop-color="#BD8A60"/>
<stop offset="1" stop-color="#A85021"/>
</radialGradient>
<radialGradient id="paint16_radial_0_17115" cx="0" cy="0" r="1" gradientUnits="userSpaceOnUse" gradientTransform="translate(14.6738 49.5855) rotate(15) scale(26.9985 14.4483)">
<stop stop-color="#CFA04D"/>
<stop offset="1" stop-color="white"/>
</radialGradient>
<radialGradient id="paint17_radial_0_17115" cx="0" cy="0" r="1" gradientUnits="userSpaceOnUse" gradientTransform="translate(26.9473 80.2622) rotate(15) scale(19.1591 17.5163)">
<stop stop-color="#CFA04D"/>
<stop offset="1" stop-color="white"/>
</radialGradient>
<radialGradient id="paint18_radial_0_17115" cx="0" cy="0" r="1" gradientUnits="userSpaceOnUse" gradientTransform="translate(26.1381 83.1529) rotate(15) scale(14.3066 13.1105)">
<stop stop-color="#CFA04D"/>
<stop offset="1" stop-color="white"/>
</radialGradient>
<linearGradient id="paint19_linear_0_17115" x1="-5.10838" y1="71.7255" x2="15.9274" y2="77.362" gradientUnits="userSpaceOnUse">
<stop stop-color="#CA9E67"/>
<stop offset="0.65"/>
</linearGradient>
<radialGradient id="paint20_radial_0_17115" cx="0" cy="0" r="1" gradientUnits="userSpaceOnUse" gradientTransform="translate(13.4684 80.0091) rotate(15) scale(16.7747 11.7239)">
<stop stop-color="#B0670B"/>
<stop offset="1"/>
</radialGradient>
<linearGradient id="paint21_linear_0_17115" x1="144.073" y1="23.3538" x2="128.356" y2="3.94469" gradientUnits="userSpaceOnUse">
<stop stop-color="#692705"/>
<stop offset="1" stop-color="#823B00"/>
</linearGradient>
<radialGradient id="paint22_radial_0_17115" cx="0" cy="0" r="1" gradientUnits="userSpaceOnUse" gradientTransform="translate(107.837 16.8776) rotate(-39) scale(27.2863 26.0381)">
<stop stop-color="#BD8A60"/>
<stop offset="1" stop-color="#A85021"/>
</radialGradient>
<radialGradient id="paint23_radial_0_17115" cx="0" cy="0" r="1" gradientUnits="userSpaceOnUse" gradientTransform="translate(111.521 11.6384) rotate(-39) scale(26.9985 14.4483)">
<stop stop-color="#CFA04D"/>
<stop offset="1" stop-color="white"/>
</radialGradient>
<radialGradient id="paint24_radial_0_17115" cx="0" cy="0" r="1" gradientUnits="userSpaceOnUse" gradientTransform="translate(143.553 19.7404) rotate(-39) scale(19.1591 17.5163)">
<stop stop-color="#CFA04D"/>
<stop offset="1" stop-color="white"/>
</radialGradient>
<radialGradient id="paint25_radial_0_17115" cx="0" cy="0" r="1" gradientUnits="userSpaceOnUse" gradientTransform="translate(145.416 22.0942) rotate(-39) scale(14.3066 13.1105)">
<stop stop-color="#CFA04D"/>
<stop offset="1" stop-color="white"/>
</radialGradient>
<linearGradient id="paint26_linear_0_17115" x1="117.805" y1="40.6562" x2="134.73" y2="26.951" gradientUnits="userSpaceOnUse">
<stop stop-color="#CA9E67"/>
<stop offset="0.65"/>
</linearGradient>
<radialGradient id="paint27_radial_0_17115" cx="0" cy="0" r="1" gradientUnits="userSpaceOnUse" gradientTransform="translate(135.426 30.4963) rotate(-39) scale(16.7747 11.7239)">
<stop stop-color="#B0670B"/>
<stop offset="1"/>
</radialGradient>
<linearGradient id="paint28_linear_0_17115" x1="259.067" y1="52.5706" x2="271.555" y2="30.9417" gradientUnits="userSpaceOnUse">
<stop stop-color="#692705"/>
<stop offset="1" stop-color="#823B00"/>
</linearGradient>
<radialGradient id="paint29_radial_0_17115" cx="0" cy="0" r="1" gradientUnits="userSpaceOnUse" gradientTransform="translate(252.127 16.4198) rotate(30) scale(27.2863 26.0381)">
<stop stop-color="#BD8A60"/>
<stop offset="1" stop-color="#A85021"/>
</radialGradient>
<radialGradient id="paint30_radial_0_17115" cx="0" cy="0" r="1" gradientUnits="userSpaceOnUse" gradientTransform="translate(258.339 17.982) rotate(30) scale(26.9985 14.4483)">
<stop stop-color="#CFA04D"/>
<stop offset="1" stop-color="white"/>
</radialGradient>
<radialGradient id="paint31_radial_0_17115" cx="0" cy="0" r="1" gradientUnits="userSpaceOnUse" gradientTransform="translate(262.254 50.7901) rotate(30) scale(19.1591 17.5163)">
<stop stop-color="#CFA04D"/>
<stop offset="1" stop-color="white"/>
</radialGradient>
<radialGradient id="paint32_radial_0_17115" cx="0" cy="0" r="1" gradientUnits="userSpaceOnUse" gradientTransform="translate(260.724 53.373) rotate(30) scale(14.3066 13.1105)">
<stop stop-color="#CFA04D"/>
<stop offset="1" stop-color="white"/>
</radialGradient>
<linearGradient id="paint33_linear_0_17115" x1="233.5" y1="34.2476" x2="252.36" y2="45.1365" gradientUnits="userSpaceOnUse">
<stop stop-color="#CA9E67"/>
<stop offset="0.65"/>
</linearGradient>
<radialGradient id="paint34_radial_0_17115" cx="0" cy="0" r="1" gradientUnits="userSpaceOnUse" gradientTransform="translate(249.3 47.0571) rotate(30) scale(16.7747 11.7239)">
<stop stop-color="#B0670B"/>
<stop offset="1"/>
</radialGradient>
</defs>
</svg>
