<svg width="1600" height="471" viewBox="0 0 1600 471" fill="none" xmlns="http://www.w3.org/2000/svg">
<path fill-rule="evenodd" clip-rule="evenodd" d="M1565 83H15H11V87V455V459H15H1542.01C1542.26 457.65 1542.55 456.316 1542.89 455H15V87H1565.23C1565.08 85.6873 1565 84.3526 1565 83ZM1585 114.632C1586.29 115.245 1587.63 115.782 1589 116.236V411.2C1587.65 411.474 1586.32 411.794 1585 412.157V114.632Z" fill="white"/>
<mask id="path-2-inside-1_67_175" fill="white">
<path fill-rule="evenodd" clip-rule="evenodd" d="M1565 71H4H0V75V467V471H4H1565C1565 469.647 1565.08 468.313 1565.23 467H4V75H1565.23C1565.08 73.6873 1565 72.3526 1565 71ZM1596 105.774C1597.31 105.923 1598.65 106 1600 106V436C1598.65 436 1597.31 436.077 1596 436.226V105.774Z"/>
</mask>
<path d="M1565 71H1569V67H1565V71ZM0 71V67H-4V71H0ZM0 471H-4V475H0V471ZM1565 471V475H1569V471H1565ZM1565.23 467L1569.2 467.452L1569.71 463H1565.23V467ZM4 467H0V471H4V467ZM4 75V71H0V75H4ZM1565.23 75V79H1569.71L1569.2 74.548L1565.23 75ZM1596 105.774L1596.45 101.8L1592 101.293V105.774H1596ZM1600 106H1604V102H1600V106ZM1600 436V440H1604V436H1600ZM1596 436.226H1592V440.707L1596.45 440.2L1596 436.226ZM1565 67H4V75H1565V67ZM4 67H0V75H4V67ZM-4 71V75H4V71H-4ZM-4 75V467H4V75H-4ZM-4 467V471H4V467H-4ZM0 475H4V467H0V475ZM4 475H1565V467H4V475ZM1561.25 466.548C1561.09 468.01 1561 469.496 1561 471H1569C1569 469.799 1569.07 468.615 1569.2 467.452L1561.25 466.548ZM4 471H1565.23V463H4V471ZM0 75V467H8V75H0ZM1565.23 71H4V79H1565.23V71ZM1561 71C1561 72.5041 1561.09 73.9897 1561.25 75.452L1569.2 74.548C1569.07 73.3849 1569 72.2011 1569 71H1561ZM1595.55 109.748C1597.01 109.915 1598.5 110 1600 110V102C1598.8 102 1597.61 101.932 1596.45 101.8L1595.55 109.748ZM1604 436V106H1596V436H1604ZM1600 432C1598.5 432 1597.01 432.085 1595.55 432.252L1596.45 440.2C1597.61 440.068 1598.8 440 1600 440V432ZM1600 436.226V105.774H1592V436.226H1600Z" fill="#E7532C" mask="url(#path-2-inside-1_67_175)"/>
<path d="M12 82H11V83V459V460H12H1588H1589V459V83V82H1588H12Z" stroke="#E3D9CC" stroke-width="2"/>
<path fill-rule="evenodd" clip-rule="evenodd" d="M486 54H1114V94H486V54Z" fill="white"/>
<path d="M499.358 81.44V57.76H526.638V81.44H519.278V75.84C519.278 74.5067 519.145 73.68 518.878 73.36C518.665 73.04 517.918 72.88 516.638 72.88V100H521.198V116H504.798V100H509.358V72.88H508.638C507.678 72.88 507.092 73.1467 506.878 73.68C506.772 73.9467 506.718 74.6667 506.718 75.84V81.44H499.358ZM560.777 68.72V105.12C560.777 108.32 559.871 111.013 558.057 113.2C556.297 115.333 553.124 116.4 548.537 116.4C544.004 116.4 540.831 115.307 539.017 113.12C537.204 110.933 536.297 108.267 536.297 105.12V68.72C536.297 64.6133 537.337 61.6533 539.417 59.84C541.337 58.08 544.377 57.2 548.537 57.2C552.751 57.2 555.844 58.08 557.817 59.84C559.791 61.6 560.777 64.56 560.777 68.72ZM553.337 94.96V77.76C553.337 76.0533 553.124 74.8533 552.697 74.16C552.111 73.3067 551.017 72.88 549.417 72.88H547.657C546.057 72.88 544.991 73.28 544.457 74.08C543.977 74.8267 543.737 76.0533 543.737 77.76V94.96C543.737 96.6133 543.951 97.7867 544.377 98.48C544.964 99.3867 546.057 99.84 547.657 99.84H549.417C551.017 99.84 552.111 99.3867 552.697 98.48C553.124 97.7867 553.337 96.6133 553.337 94.96ZM571.172 57.76H585.972V72.88H582.532V95.68C582.532 97.9733 582.852 99.3067 583.492 99.68C583.866 99.8933 585.386 100 588.052 100C589.279 100 590.052 99.5467 590.372 98.64C590.479 98.32 590.532 97.3333 590.532 95.68V72.88H587.092V57.76H601.892V72.88H597.892V103.2C597.892 112.107 594.106 116.56 586.532 116.56C578.959 116.56 575.172 112.107 575.172 103.2V72.88H571.172V57.76ZM611.195 57.76H625.675C633.888 57.76 637.995 61.9467 637.995 70.32V76.88C637.995 79.7067 637.728 81.6267 637.195 82.64C636.501 83.8133 634.928 84.9333 632.475 86V88.08C634.928 88.2933 636.528 89.2 637.275 90.8C637.755 91.8133 637.995 93.7333 637.995 96.56C637.995 98.5867 637.701 99.7333 637.115 100H643.035V116H635.435C632.768 116 631.008 115.44 630.155 114.32C629.461 113.413 629.115 111.573 629.115 108.8V94.32C629.115 90.16 627.435 88.08 624.075 88.08H622.635V100H627.595V116H611.195V100H615.275V72.88H611.195V57.76ZM622.635 83.92H625.915C627.355 83.92 628.261 83.8667 628.635 83.76C629.061 83.6533 629.275 83.2533 629.275 82.56C629.275 82.1333 629.248 81.6 629.195 80.96C629.248 79.2533 629.088 76.9867 628.715 74.16C628.395 73.3067 627.381 72.88 625.675 72.88H622.635V83.92ZM650.469 72.88V57.76H662.629L673.269 90.8V72.88H668.229V57.76H685.029V72.88H680.469V116H673.269L662.629 82.32V100H667.349V116H650.469V100H655.429V72.88H650.469ZM704.017 91.2L701.937 100H705.937V116H690.977V100H694.737L700.897 72.88H697.857V57.76H717.297V72.88H714.257L720.337 100H724.097V116H709.137V100H713.137L711.137 91.2H704.017ZM704.897 87.04H710.337L707.617 74.56L704.897 87.04ZM730.782 57.76H744.462L752.462 96.16L760.382 57.76H774.062V72.88H770.062V100H774.062V116H758.942V100H762.782V79.92L754.542 116H750.382L742.062 79.84V100H745.902V116H730.782V100H734.782V72.88H730.782V57.76ZM782.422 57.76H809.942V81.2H802.502V76.88C802.502 75.28 802.369 74.2667 802.102 73.84C801.729 73.2 800.849 72.88 799.462 72.88H794.822V83.92H802.822V88.08H794.822V100H799.462C800.796 100 801.622 99.76 801.942 99.28C802.316 98.8 802.502 97.84 802.502 96.4V90.8H809.942V116H782.422V100H787.382V72.88H782.422V57.76ZM820.313 72.88V57.76H832.473L843.113 90.8V72.88H838.073V57.76H854.873V72.88H850.313V116H843.113L832.473 82.32V100H837.193V116H820.313V100H825.273V72.88H820.313ZM861.78 81.44V57.76H889.06V81.44H881.7V75.84C881.7 74.5067 881.567 73.68 881.3 73.36C881.087 73.04 880.34 72.88 879.06 72.88V100H883.62V116H867.22V100H871.78V72.88H871.06C870.1 72.88 869.514 73.1467 869.3 73.68C869.194 73.9467 869.14 74.6667 869.14 75.84V81.44H861.78ZM927.718 81.44V57.76H954.998V81.44H947.638V75.84C947.638 74.5067 947.504 73.68 947.238 73.36C947.024 73.04 946.278 72.88 944.998 72.88V100H949.558V116H933.158V100H937.718V72.88H936.998C936.038 72.88 935.451 73.1467 935.238 73.68C935.131 73.9467 935.078 74.6667 935.078 75.84V81.44H927.718ZM974.017 91.2L971.937 100H975.937V116H960.977V100H964.737L970.897 72.88H967.857V57.76H987.297V72.88H984.257L990.337 100H994.097V116H979.137V100H983.137L981.137 91.2H974.017ZM974.897 87.04H980.337L977.617 74.56L974.897 87.04ZM1000.78 116V100H1005.74V72.88H1000.78V57.76H1017.34C1020.86 57.76 1023.69 58.48 1025.82 59.92C1028.33 61.6267 1029.58 64.1867 1029.58 67.6V78.16C1029.58 80.24 1029.18 81.76 1028.38 82.72C1027.63 83.68 1026.25 84.5333 1024.22 85.28V86.56C1026.62 87.3067 1028.17 88.3467 1028.86 89.68C1029.34 90.64 1029.58 92.5067 1029.58 95.28V104.56C1029.58 107.493 1028.38 110.133 1025.98 112.48C1023.63 114.827 1020.99 116 1018.06 116H1000.78ZM1013.02 88.08V100H1019.42C1020.38 100 1020.99 99.6267 1021.26 98.88C1021.31 98.6133 1021.34 97.8133 1021.34 96.48V91.84C1021.34 90.3467 1021.29 89.44 1021.18 89.12C1020.91 88.4267 1020.19 88.08 1019.02 88.08H1013.02ZM1013.02 72.88V83.92H1018.7C1019.87 83.92 1020.65 83.5467 1021.02 82.8C1021.23 82.32 1021.34 81.4133 1021.34 80.08V75.6C1021.34 74.48 1021.21 73.76 1020.94 73.44C1020.73 73.0667 1020.11 72.88 1019.1 72.88H1013.02ZM1039.22 57.76H1057.78V72.88H1051.62V100H1054.74C1056.23 100 1057.14 99.7067 1057.46 99.12C1057.67 98.7467 1057.78 97.7067 1057.78 96V90.8H1065.06V116H1039.22V100H1044.18V72.88H1039.22V57.76ZM1075.39 57.76H1102.91V81.2H1095.47V76.88C1095.47 75.28 1095.34 74.2667 1095.07 73.84C1094.7 73.2 1093.82 72.88 1092.43 72.88H1087.79V83.92H1095.79V88.08H1087.79V100H1092.43C1093.76 100 1094.59 99.76 1094.91 99.28C1095.28 98.8 1095.47 97.84 1095.47 96.4V90.8H1102.91V116H1075.39V100H1080.35V72.88H1075.39V57.76Z" fill="#2D1509"/>
<path fill-rule="evenodd" clip-rule="evenodd" d="M1096.45 79L1089.07 82.7082L1090.48 74.8541L1084.51 69.2918L1092.76 68.1459L1096.45 61L1100.14 68.1459L1108.39 69.2918L1102.42 74.8541L1103.83 82.7082L1096.45 79Z" fill="#E3D9CC"/>
<path fill-rule="evenodd" clip-rule="evenodd" d="M506.551 79L499.174 82.7082L500.583 74.8541L494.614 69.2918L502.862 68.1459L506.551 61L510.24 68.1459L518.488 69.2918L512.519 74.8541L513.928 82.7082L506.551 79Z" fill="#E3D9CC"/>
<path d="M846.391 32.1079C842.366 33.9618 837.388 34.5511 832.558 34.7798C827.272 35.0273 823.543 34.8309 821.187 34.8444C820.363 34.8516 819.642 34.3107 819.448 33.5394C819.17 32.4396 819.071 31.3049 819.155 30.1759C819.196 29.6465 819.282 29.121 819.409 28.6045C819.609 27.8255 820.342 27.2836 821.176 27.2995C825.559 27.3882 839.836 27.5336 844.574 25.8599C849.047 24.2831 853.818 20.6129 855.702 15.2932C856.013 14.4101 856.24 13.5013 856.378 12.5782C856.96 21.4766 854.198 28.3865 846.391 32.1079Z" fill="#E3D9CC"/>
<path d="M855.358 21.622C853.681 25.9084 850.302 29.0943 845.924 31.1823C841.768 33.0928 836.569 33.5583 832.507 33.752C831.132 33.8166 829.782 33.8543 828.379 33.8704C826.501 33.8893 824.863 33.8704 823.546 33.8381C822.643 33.8247 821.869 33.8085 821.184 33.8139C820.345 33.8139 819.507 32.9098 819.253 32.5519C819.303 32.8694 819.364 33.1977 819.451 33.5395C819.645 34.3108 820.365 34.8517 821.19 34.8445C822.867 34.8445 825.248 34.9333 828.39 34.8983C829.653 34.8848 831.043 34.8499 832.56 34.7799C837.391 34.5512 842.369 33.9727 846.394 32.108C852.093 29.393 854.592 25.7577 855.719 21.0274C855.579 20.9762 855.417 21.4713 855.358 21.622Z" fill="white"/>
<path d="M855.585 18.0405C853.703 23.3602 849.069 27.0788 844.608 28.6529C839.856 30.3266 825.601 30.184 821.209 30.0952C820.375 30.0763 819.64 30.6195 819.443 31.4002C819.354 31.755 819.286 32.1144 819.239 32.4765C819.124 31.713 819.096 30.9398 819.155 30.1705C819.195 29.6418 819.28 29.1172 819.409 28.6018C819.608 27.8223 820.342 27.2799 821.176 27.2968C825.556 27.3856 839.836 27.5282 844.574 25.8572C849.047 24.2804 853.815 20.6102 855.702 15.2905C856.014 14.4077 856.239 13.4988 856.376 12.5756C856.281 13.7003 855.889 17.1768 855.585 18.0405Z" fill="white"/>
<path d="M851.99 25.4294C850.227 27.3814 848.002 28.8959 845.502 29.845C844.234 30.2713 842.922 30.5654 841.589 30.7222C840.267 30.8863 838.945 31.0209 837.62 31.1016C834.97 31.2899 832.309 31.333 829.665 31.3438C828.34 31.3438 827.014 31.3312 825.687 31.3061C824.362 31.2765 823.037 31.2415 821.715 31.1769L825.687 31.1393L829.665 31.0612C832.311 30.9966 834.953 30.8702 837.592 30.6818C838.911 30.5903 840.222 30.4477 841.527 30.2755C842.818 30.1084 844.088 29.8172 845.318 29.4064C847.769 28.4713 850.028 27.1247 851.99 25.4294V25.4294Z" fill="white"/>
<path fill-rule="evenodd" clip-rule="evenodd" d="M823.798 35.3495C824.736 35.3648 825.819 35.3825 827.032 35.3825C828.647 35.3825 830.503 35.3529 832.577 35.2642C836.792 35.0677 842.193 34.578 846.601 32.5492C854.044 29 857.496 22.2758 856.859 12.5621C856.844 12.3177 856.639 12.124 856.385 12.1143C856.131 12.1045 855.91 12.2819 855.875 12.5244C855.743 13.4184 855.524 14.2986 855.221 15.1533C853.295 20.5833 848.367 24.0221 844.393 25.4267C839.733 27.0708 825.444 26.9228 821.176 26.8367C820.111 26.821 819.175 27.5133 818.917 28.5076C818.784 29.048 818.695 29.5978 818.652 30.1517C818.565 31.3257 818.667 32.5055 818.954 33.6497C819.199 34.643 820.129 35.3382 821.19 35.3207C821.838 35.3153 822.624 35.3287 823.515 35.3449C823.608 35.3464 823.702 35.3479 823.798 35.3495ZM823.532 34.3923C822.738 34.3681 822.039 34.3681 821.424 34.3681L821.433 34.3708H821.184C820.592 34.3752 820.075 33.9859 819.937 33.4317C819.671 32.3759 819.577 31.2866 819.658 30.2028C819.696 29.6996 819.776 29.2001 819.898 28.7094C820.047 28.1495 820.575 27.7611 821.176 27.7704C825.489 27.8538 839.931 28.0018 844.753 26.2985C848.778 24.8859 853.754 21.4551 855.934 16.0736C855.624 23.5835 852.409 28.7202 846.176 31.68C841.924 33.6335 836.653 34.1098 832.533 34.3035C828.762 34.4811 825.74 34.43 823.532 34.3923Z" fill="#E3D9CC"/>
<path d="M756.615 32.1079C760.64 33.9618 765.618 34.5511 770.448 34.7798C775.734 35.0273 779.463 34.8309 781.819 34.8444C782.644 34.8508 783.365 34.3105 783.561 33.5394C783.833 32.4387 783.927 31.3042 783.84 30.1759C783.8 29.6463 783.715 29.1208 783.586 28.6045C783.386 27.8255 782.653 27.2836 781.819 27.2995C777.439 27.3882 763.159 27.5336 758.421 25.8599C753.948 24.2831 749.18 20.6129 747.293 15.2932C746.981 14.4104 746.756 13.5015 746.619 12.5782C746.046 21.4766 748.808 28.3865 756.615 32.1079Z" fill="#E3D9CC"/>
<path d="M747.648 21.622C749.325 25.9084 752.707 29.0943 757.085 31.1823C761.241 33.0928 766.437 33.5583 770.502 33.752C771.877 33.8166 773.227 33.8543 774.633 33.8704C776.511 33.8893 778.149 33.8704 779.463 33.8381C780.366 33.8247 781.14 33.8085 781.825 33.8139C782.663 33.8139 783.502 32.9098 783.756 32.5519C783.709 32.8694 783.645 33.1977 783.561 33.5395C783.365 34.3106 782.644 34.8509 781.819 34.8445C780.142 34.8445 777.761 34.9333 774.619 34.8983C773.355 34.8848 771.966 34.8499 770.448 34.7799C765.618 34.5512 760.64 33.9727 756.615 32.108C750.916 29.393 748.417 25.7577 747.29 21.0274C747.427 20.9762 747.589 21.4713 747.648 21.622Z" fill="white"/>
<path d="M747.422 18.0405C749.306 23.3602 753.937 27.0788 758.387 28.6529C763.139 30.3266 777.394 30.184 781.789 30.0952C782.622 30.0776 783.356 30.6205 783.552 31.4002C783.642 31.7548 783.711 32.1142 783.756 32.4765C783.872 31.7131 783.9 30.9398 783.84 30.1705C783.8 29.6418 783.715 29.1172 783.586 28.6018C783.388 27.8217 782.653 27.2789 781.819 27.2968C777.439 27.3856 763.159 27.5282 758.421 25.8572C753.948 24.2804 749.18 20.6102 747.296 15.2905C746.982 14.4082 746.755 13.4991 746.619 12.5756C746.726 13.7003 747.117 17.1768 747.422 18.0405Z" fill="white"/>
<path d="M751.016 25.4294C752.977 27.1236 755.234 28.47 757.683 29.4064C758.917 29.8181 760.192 30.1093 761.487 30.2755C762.792 30.4477 764.103 30.5903 765.423 30.6818C768.058 30.8702 770.7 30.9966 773.35 31.0612L777.322 31.1393L781.297 31.1769C779.972 31.2415 778.647 31.2765 777.322 31.3061C775.997 31.3357 774.672 31.3491 773.344 31.3438C770.694 31.3438 768.033 31.2899 765.389 31.1016C764.064 31.0209 762.742 30.8863 761.42 30.7222C760.087 30.5654 758.775 30.2713 757.507 29.845C755.006 28.8963 752.78 27.3817 751.016 25.4294Z" fill="white"/>
<path fill-rule="evenodd" clip-rule="evenodd" d="M770.426 35.2534C772.506 35.353 774.359 35.3826 775.975 35.3826C777.311 35.3826 778.485 35.361 779.497 35.3314C780.391 35.3072 781.16 35.3072 781.822 35.3072H781.836C782.887 35.3134 783.804 34.6207 784.047 33.6363C784.335 32.4923 784.437 31.3123 784.349 30.1383C784.304 29.5828 784.21 29.032 784.069 28.4915C783.811 27.4976 782.875 26.8063 781.811 26.8232C777.543 26.9093 763.254 27.0573 758.594 25.4133C754.622 24.0194 749.691 20.5753 747.765 15.1399C747.468 14.2856 747.253 13.4064 747.125 12.5137C747.09 12.2712 746.87 12.0938 746.616 12.1035C746.361 12.1133 746.156 12.3069 746.141 12.5514C745.501 22.2651 748.956 28.9893 756.403 32.5384C760.811 34.5673 766.214 35.057 770.426 35.2534ZM770.474 34.3036C766.354 34.1018 761.082 33.6336 756.833 31.6801C750.597 28.7068 747.385 23.5808 747.072 16.0709C749.247 21.4524 754.22 24.8724 758.253 26.2958C763.075 27.9991 777.52 27.8511 781.833 27.7677C782.434 27.7567 782.962 28.1461 783.108 28.7068C783.23 29.1974 783.31 29.6969 783.348 30.2001C783.431 31.2839 783.336 32.3734 783.069 33.4291C782.931 33.9832 782.414 34.3726 781.822 34.3681C781.151 34.3655 780.374 34.3762 779.474 34.3924C777.266 34.43 774.244 34.4812 770.474 34.3036Z" fill="#E3D9CC"/>
<path d="M816.429 35.579C819.258 32.9242 823.037 31.4167 826.987 31.368C829.825 31.3827 832.598 32.1842 834.976 33.6767C837.382 30.2405 838.307 27.2188 838.746 26.0752C841.961 17.6908 839.426 14.1336 837.279 14.0287C834.372 13.8887 826.763 23.3199 823.895 25.6232C824.122 23.9549 823.977 22.9728 823.177 22.5207C822.26 16.41 819.247 11.6392 816.916 9.64269C814.585 7.64614 812.553 4.57059 811.734 3.11488C810.915 1.65918 809.056 -0.625287 806.68 0.693191C803.688 2.24658 800.084 2.24658 797.092 0.693191C794.716 -0.63605 792.86 1.6511 792.039 3.11488C791.217 4.57866 789.19 7.64614 786.856 9.64269C784.522 11.6392 781.512 16.41 780.595 22.5207C779.796 22.9728 779.65 23.9549 779.877 25.6232C777.014 23.3118 769.403 13.8941 766.493 14.0287C764.347 14.1336 761.811 17.6908 765.026 26.0752C765.501 27.313 766.538 30.7222 769.389 34.4866C771.25 33.7047 773.256 33.2929 775.287 33.2757H775.301C777.591 31.9951 780.186 31.3064 782.834 31.2765C786.879 31.2765 790.47 34.8317 793.391 37.4148C796.312 39.998 813.838 38.0707 816.429 35.579Z" fill="white"/>
<path d="M782.658 22.8732C781.394 23.3521 781.85 25.0043 781.85 25.0043L780.383 25.3783C780.383 25.3783 780.05 23.5674 780.791 23.3252C781.401 23.1309 782.025 22.9798 782.658 22.8732Z" fill="#E3D9CC"/>
<path d="M787.659 22.1763C786.468 22.3557 785.288 22.5853 784.12 22.8651C783.536 23.0023 782.954 23.1342 782.378 23.3064C782.099 23.3844 781.803 23.4705 781.517 23.5566C781.378 23.5997 781.238 23.6427 781.095 23.6912L780.891 23.7638C780.821 23.788 780.763 23.8149 780.704 23.8392L780.492 23.3844L780.726 23.3064L780.953 23.2445C781.101 23.2041 781.249 23.1719 781.397 23.1369C781.694 23.0669 781.987 23.0023 782.283 22.9431C782.876 22.8247 783.47 22.7171 784.067 22.6202C785.26 22.4265 786.457 22.2758 787.659 22.1763Z" fill="#E3D9CC"/>
<path d="M787.373 22.8866C786.219 23.0723 785.07 23.2902 783.935 23.5458C783.376 23.675 782.8 23.8149 782.239 23.9575C781.959 24.0302 781.68 24.1082 781.4 24.1889C781.263 24.2293 781.121 24.2697 780.989 24.3154L780.791 24.3827C780.721 24.4069 780.665 24.4311 780.612 24.4526L780.397 24.0006C780.478 23.971 780.559 23.9441 780.631 23.9252L780.849 23.866C780.995 23.8284 781.129 23.7988 781.283 23.7665C781.562 23.7046 781.861 23.6454 782.149 23.5916C782.728 23.4839 783.306 23.3898 783.885 23.301C785.042 23.1261 786.208 22.9888 787.373 22.8866Z" fill="#E3D9CC"/>
<path d="M787.085 23.597C785.967 23.7827 784.849 23.9899 783.748 24.2294C783.189 24.3478 782.644 24.4715 782.096 24.6088C781.817 24.6734 781.551 24.746 781.28 24.8213C781.148 24.859 781 24.8967 780.88 24.9397L780.69 25.0016C780.632 25.0212 780.575 25.0436 780.52 25.0689L780.304 24.6142C780.385 24.5872 780.464 24.5603 780.534 24.5415L780.749 24.4877C780.891 24.4527 781.028 24.4258 781.171 24.3962C781.45 24.3424 781.73 24.2886 782.009 24.2428C782.568 24.146 783.127 24.0563 783.687 23.9738C784.823 23.8231 785.956 23.6975 787.085 23.597Z" fill="#E3D9CC"/>
<path d="M821.117 22.8732C822.38 23.3521 821.925 25.0043 821.925 25.0043L823.395 25.3783C823.395 25.3783 823.725 23.5674 822.984 23.3252C822.374 23.1309 821.75 22.9798 821.117 22.8732Z" fill="#E3D9CC"/>
<path d="M816.116 22.1763C817.318 22.2758 818.517 22.4265 819.708 22.6202C820.303 22.7171 820.897 22.8247 821.492 22.9431C821.788 23.0023 822.084 23.0669 822.38 23.1369C822.529 23.1719 822.674 23.2041 822.825 23.2445L823.048 23.3064L823.286 23.3844L823.071 23.8392C823.015 23.8149 822.956 23.788 822.886 23.7638L822.68 23.6912C822.543 23.6427 822.4 23.5997 822.257 23.5566C821.978 23.4705 821.698 23.3844 821.397 23.3064C820.821 23.1476 820.239 23.0023 819.655 22.8651C818.487 22.5906 817.307 22.361 816.116 22.1763Z" fill="#E3D9CC"/>
<path d="M816.404 22.8866C817.571 22.9906 818.73 23.1324 819.882 23.3117C820.46 23.4005 821.039 23.4947 821.615 23.6023C821.894 23.6562 822.193 23.7154 822.481 23.7772C822.626 23.8095 822.761 23.8391 822.914 23.8768L823.135 23.936C823.205 23.9548 823.286 23.9817 823.367 24.0113L823.152 24.4634L822.976 24.3934C822.912 24.3692 822.844 24.3477 822.775 24.3262C822.64 24.2804 822.495 24.2401 822.364 24.1997C822.084 24.119 821.805 24.0409 821.525 23.9683C820.966 23.8203 820.407 23.6858 819.828 23.5566C818.701 23.2947 817.56 23.0714 816.404 22.8866Z" fill="#E3D9CC"/>
<path d="M816.689 23.597C817.819 23.6993 818.947 23.8276 820.074 23.9818C820.633 24.0608 821.192 24.1504 821.751 24.2509C822.031 24.2966 822.311 24.3505 822.59 24.4043C822.733 24.4339 822.87 24.4608 823.012 24.4958L823.227 24.5496C823.297 24.5684 823.378 24.5953 823.459 24.6222L823.244 25.077C823.191 25.0554 823.141 25.0312 823.074 25.0097L822.881 24.9478C822.749 24.9048 822.615 24.8671 822.481 24.8294C822.202 24.7541 821.939 24.6814 821.665 24.6168C821.106 24.4796 820.566 24.3478 820.013 24.2374C818.923 23.9899 817.807 23.7827 816.689 23.597Z" fill="#E3D9CC"/>
<path d="M781.123 22.2059C780.961 22.2489 780.796 22.2866 780.631 22.3216L780.598 22.5207C779.815 22.9647 779.661 23.9172 779.868 25.5263C780.161 25.4513 780.459 25.3982 780.76 25.3675C780.559 23.7531 780.833 23.4006 781.056 23.2741L781.434 23.0615L781.495 22.6445C781.529 22.4265 781.565 22.2085 781.604 21.9933C781.456 22.0867 781.294 22.1584 781.123 22.2059Z" fill="white"/>
<path d="M793.467 3.03149C793.277 3.46251 793.056 3.88055 792.807 4.2827C792.565 4.68991 792.312 5.08904 792.047 5.4801C791.521 6.26849 790.965 7.03536 790.395 7.79147C790.115 8.17087 789.816 8.54488 789.52 8.91621C789.369 9.10187 789.221 9.28754 789.062 9.4732C788.902 9.65886 788.74 9.82838 788.581 10.0114C787.932 10.7083 787.29 11.3971 786.694 12.1155C786.097 12.8276 785.557 13.5823 785.079 14.3731C784.612 15.1689 784.205 15.9963 783.863 16.8486C783.513 17.7043 783.223 18.5815 782.951 19.4694C782.68 20.3574 782.44 21.2534 782.199 22.1602L781.571 22.023C781.763 21.1027 781.998 20.1932 782.253 19.2837C782.507 18.3743 782.812 17.4809 783.172 16.593C783.348 16.1517 783.544 15.7158 783.754 15.2826C783.963 14.8494 784.198 14.435 784.45 14.0233C784.957 13.2068 785.534 12.4319 786.174 11.7065C786.8 10.98 787.482 10.3046 788.148 9.63195C788.486 9.29561 788.802 8.96195 789.112 8.60677C789.422 8.25159 789.73 7.89372 790.034 7.53046C790.644 6.80934 791.245 6.08014 791.829 5.34018C792.428 4.60697 792.976 3.83566 793.467 3.03149Z" fill="#E3D9CC"/>
<path d="M793.478 0.849238C793.795 0.56996 794.179 0.37113 794.596 0.270723C794.811 0.221915 795.033 0.203782 795.253 0.216907C795.473 0.230789 795.689 0.274265 795.896 0.346064C796.286 0.490301 796.644 0.704927 796.95 0.978395C797.095 1.10913 797.233 1.24746 797.363 1.39277L797.545 1.60804C797.601 1.6753 797.657 1.74257 797.716 1.80715C797.944 2.07154 798.191 2.31973 798.456 2.54981C798.72 2.78329 799 2.99906 799.295 3.19559C799.591 3.39541 799.904 3.57007 800.231 3.7176C800.562 3.87212 800.916 3.97736 801.279 4.02973C800.904 4.06464 800.525 4.03271 800.161 3.93555C799.791 3.83978 799.432 3.70722 799.091 3.54001C798.405 3.20025 797.78 2.75694 797.24 2.22691C797.173 2.15964 797.109 2.09237 797.045 2.02241C796.98 1.95245 796.925 1.89595 796.863 1.83406C796.744 1.7148 796.618 1.60163 796.486 1.49502C796.239 1.28681 795.955 1.12441 795.647 1.01607C795.362 0.915765 795.053 0.893414 794.755 0.951488C794.444 1.01852 794.152 1.14879 793.897 1.33358L793.478 0.849238Z" fill="#E3D9CC"/>
<path d="M795.957 0.0743408C796.268 0.106114 796.567 0.207481 796.83 0.370326C797.061 0.521404 797.278 0.692528 797.478 0.881572C797.861 1.23675 798.202 1.58924 798.596 1.89599C798.987 2.20538 799.409 2.47584 799.857 2.70322C800.315 2.93942 800.789 3.1453 801.277 3.31941C800.751 3.25674 800.233 3.14316 799.731 2.98037C799.22 2.81454 798.731 2.58861 798.277 2.30768C797.834 2.02306 797.411 1.70834 797.014 1.36591C796.821 1.20446 796.631 1.05916 796.455 0.932697C796.278 0.820146 796.084 0.734814 795.879 0.679764L795.957 0.0743408Z" fill="#E3D9CC"/>
<path d="M795.779 3.80103C796.191 4.16501 796.518 4.61003 796.737 5.10605C796.957 5.6101 797.083 6.1475 797.109 6.6936C797.137 7.23619 797.084 7.77987 796.953 8.30807C796.82 8.83942 796.624 9.35414 796.368 9.84181C796.104 10.3312 795.772 10.7838 795.382 11.1872C794.995 11.5677 794.586 11.927 794.157 12.2635C793.742 12.5892 793.358 12.9494 793.008 13.3398C792.664 13.7476 792.382 14.2006 792.17 14.6852C792.286 14.1605 792.499 13.6601 792.799 13.208C793.111 12.7607 793.474 12.3483 793.881 11.9783C794.269 11.6016 794.672 11.2518 795.015 10.8643C795.367 10.4879 795.665 10.0691 795.904 9.61847C796.148 9.16597 796.34 8.68967 796.477 8.19774C796.615 7.70695 796.691 7.20192 796.704 6.6936C796.737 5.65734 796.411 4.63984 795.779 3.80103Z" fill="#E3D9CC"/>
<path d="M795.519 5.01453C795.632 5.21839 795.725 5.43186 795.798 5.65224C796.024 6.33855 796.002 7.07806 795.737 7.75104C795.564 8.19253 795.316 8.60348 795.004 8.96727C794.706 9.3307 794.359 9.6546 793.973 9.93056C794.236 9.54578 794.518 9.18522 794.755 8.80044C795.001 8.42857 795.207 8.03371 795.37 7.62188C795.536 7.21624 795.63 6.78712 795.65 6.35184V6.1877V6.02357C795.65 5.91055 795.633 5.80292 795.625 5.68991C795.6 5.4585 795.563 5.23517 795.519 5.01453Z" fill="#E3D9CC"/>
<path d="M795.809 4.6217C796.307 5.25173 796.56 6.02937 796.525 6.82006C796.493 7.61426 796.268 8.39016 795.868 9.08569C795.472 9.76294 794.983 10.3856 794.414 10.9369C793.862 11.4882 793.257 11.989 792.609 12.433C793.109 11.8384 793.623 11.2679 794.11 10.6813C794.596 10.106 795.031 9.49316 795.412 8.84891C795.776 8.21046 796.016 7.51401 796.122 6.79316C796.217 6.05544 796.109 5.30676 795.809 4.6217Z" fill="#E3D9CC"/>
<path d="M780.469 22.2355C780.867 22.0783 781.279 21.9559 781.699 21.8695C781.903 21.8265 782.104 21.7808 782.306 21.7431L782.915 21.6381C783.723 21.5036 784.536 21.4014 785.347 21.2991C786.968 21.1054 788.595 20.9547 790.222 20.8255C791.848 20.6964 793.475 20.5968 795.105 20.5322C796.734 20.4677 798.367 20.4381 799.996 20.4488C798.367 20.5026 796.743 20.6076 795.119 20.734C793.495 20.8605 791.876 21.0031 790.258 21.1995C788.64 21.396 787.03 21.5924 785.428 21.8426L784.226 22.0391C783.829 22.1117 783.429 22.179 783.032 22.257L782.44 22.3727L781.853 22.4992C781.474 22.5772 781.101 22.6779 780.735 22.8006L780.469 22.2355Z" fill="#E3D9CC"/>
<path d="M816.429 35.579C819.258 32.9242 823.037 31.4167 826.987 31.368C829.831 31.3823 832.611 32.1868 834.992 33.6847C837.259 30.515 838.959 26.382 839.202 20.7421C839.378 16.6764 838.305 15.5274 836.966 15.6915C835.412 15.8853 833.405 17.9276 831.037 20.4515C826.632 25.1496 813.838 38.0707 816.429 35.579Z" fill="#E3D9CC"/>
<path d="M769.389 34.4866C771.251 33.7048 773.258 33.293 775.29 33.2757H775.304C777.594 31.9951 780.189 31.3064 782.837 31.2765C782.988 31.2765 783.139 31.2765 783.29 31.2765C778.538 27.1919 774.845 22.6902 772.738 20.4408C770.37 17.9168 768.363 15.8665 766.809 15.6808C765.473 15.5167 764.4 16.6656 764.573 20.7314C764.841 26.8717 766.823 31.22 769.389 34.4866Z" fill="#E3D9CC"/>
<path d="M769.084 34.6131C769.283 34.5243 769.481 34.4409 769.683 34.3628C767.128 31.1339 765.163 26.8287 764.9 20.726C764.771 17.8065 765.314 16.6898 765.789 16.2701C766.055 16.0386 766.417 15.9392 766.77 16.001C768.193 16.1786 770.124 18.1294 772.497 20.6614C772.981 21.178 773.546 21.8104 774.2 22.545C776.29 24.8832 779.245 28.1956 782.795 31.2819H782.837C783.172 31.2819 783.505 31.298 783.835 31.3196C780 28.0906 776.847 24.5496 774.692 22.1386C774.035 21.4041 773.467 20.7717 772.978 20.2551C770.429 17.5374 768.506 15.5974 766.851 15.3929C766.309 15.3082 765.756 15.469 765.353 15.8288C764.514 16.5795 764.14 18.1967 764.252 20.7664C764.489 26.2179 766.071 30.7518 769.084 34.6131Z" fill="#E3D9CC"/>
<path d="M818.325 33.4586C823.076 29.8288 826.99 25.4428 829.578 22.5422C830.232 21.8103 830.797 21.178 831.28 20.6586C833.656 18.1266 835.585 16.1758 837.011 15.9982C837.362 15.9364 837.724 16.0359 837.989 16.2673C838.464 16.6898 839.006 17.8037 838.88 20.7232C838.637 26.3173 836.971 30.3912 834.73 33.5178C834.909 33.6228 835.087 33.7304 835.264 33.8434C837.908 30.149 839.305 25.8518 839.526 20.7474C839.638 18.1777 839.277 16.5606 838.425 15.8099C838.022 15.4501 837.469 15.2893 836.927 15.374C835.28 15.5785 833.349 17.5266 830.8 20.2362C830.31 20.7582 829.743 21.3905 829.086 22.1197C824.083 27.7219 813.668 39.3756 801.889 39.3756C799.796 39.3611 797.719 39.0194 795.739 38.3639C795.89 38.633 796.019 38.8832 796.162 39.1496C798.014 39.7012 799.941 39.9877 801.88 39.9999C807.11 40.0134 812.642 37.8069 818.325 33.4586Z" fill="#E3D9CC"/>
<path d="M785.928 33.4586C781.176 29.8288 777.263 25.4428 774.675 22.5422C774.021 21.8103 773.456 21.178 772.973 20.6586C770.597 18.1266 768.668 16.1758 767.242 15.9982C766.891 15.9364 766.529 16.0359 766.264 16.2673C765.789 16.6898 765.247 17.8037 765.372 20.7232C765.616 26.3173 767.281 30.3912 769.523 33.5178C769.344 33.6228 769.165 33.7304 768.989 33.8434C766.345 30.149 764.948 25.8518 764.727 20.7474C764.615 18.1777 764.975 16.5606 765.828 15.8099C766.231 15.4501 766.784 15.2893 767.326 15.374C768.973 15.5785 770.904 17.5266 773.453 20.2362C773.942 20.7582 774.51 21.3905 775.167 22.1197C780.17 27.7219 790.585 39.3756 802.364 39.3756C804.457 39.3611 806.534 39.0194 808.513 38.3639C808.362 38.633 808.234 38.8832 808.091 39.1496C806.239 39.7012 804.312 39.9877 802.372 39.9999C797.143 40.0134 791.611 37.8069 785.928 33.4586Z" fill="#E3D9CC"/>
<path d="M794.068 36.1414C795.207 36.5884 796.377 36.958 797.57 37.2473C796.227 36.8423 794.918 36.3367 793.657 35.7351C793.797 35.867 793.934 36.0015 794.068 36.1414Z" fill="#E3D9CC"/>
<path d="M782.529 28.6179C782.859 28.9166 783.2 29.2072 783.533 29.5032C783.865 29.7992 784.215 30.0817 784.556 30.3696L785.61 31.2038L786.239 31.6773C786.73 31.7924 787.216 31.9325 787.692 32.0971C787.468 31.9303 787.245 31.7634 787.024 31.5939L785.99 30.7625L784.981 29.9041L783.986 29.0269C783.332 28.435 782.689 27.8322 782.029 27.2268C781.369 26.6214 780.749 26.0052 780.095 25.4025L779.636 25.8438C780.262 26.4707 780.891 27.095 781.54 27.7058C781.872 28.0053 782.201 28.3094 782.529 28.6179Z" fill="#E3D9CC"/>
<path d="M768.592 31.968C769.059 32.7473 769.593 33.4872 770.189 34.1798L770.314 34.1341C770.026 33.7606 769.76 33.3726 769.515 32.9717C767.189 29.0405 766.421 24.5469 766.421 24.5469L766.591 21.1135C766.77 20.5069 767.029 19.9247 767.36 19.3806C767.578 19.0362 767.799 18.3043 768.137 18.3043C769.283 18.3635 772.522 21.9019 773.193 22.4239C772.836 22.0041 768.939 17.2038 767.139 17.0181C765.987 16.897 765.266 17.8253 765.417 21.4821C765.552 25.1774 766.644 28.7817 768.592 31.968V31.968Z" fill="white"/>
<path d="M780.014 25.9057L779.734 25.3379C782.44 24.1513 795.608 23.4248 801.878 23.4248V24.0491C794.951 24.0491 782.426 24.8455 780.014 25.9057Z" fill="#E3D9CC"/>
<path d="M801.889 29.9526C799.094 29.9526 782.445 28.4726 779.653 25.8464L780.106 25.3998C782.622 27.7596 798.482 29.3283 801.889 29.3283V29.9526Z" fill="#E3D9CC"/>
<path d="M781.993 20.9869C783.01 20.7502 784.033 20.5618 785.067 20.4057C786.102 20.2497 787.125 20.1367 788.156 20.0371C790.218 19.8485 792.291 19.7927 794.361 19.8703C792.294 19.8982 790.232 20.0591 788.187 20.3519C787.166 20.4936 786.152 20.6667 785.146 20.8712C784.139 21.0757 783.141 21.3125 782.163 21.5951L781.993 20.9869Z" fill="#E3D9CC"/>
<path d="M782.065 20.1393C783.817 19.671 785.615 19.3815 787.429 19.2756C789.232 19.1438 791.03 19.1276 792.83 19.1007C791.035 19.2299 789.241 19.3509 787.463 19.585C785.694 19.7938 783.952 20.1807 782.267 20.7394L782.065 20.1393Z" fill="#E3D9CC"/>
<path d="M782.451 19.2084C783.96 18.8263 785.502 18.5733 787.058 18.4523C788.601 18.3304 790.15 18.2891 791.698 18.3285C790.157 18.3917 788.621 18.5363 787.097 18.7617C785.582 18.9849 784.091 19.337 782.641 19.8138L782.451 19.2084Z" fill="#E3D9CC"/>
<path d="M782.828 18.28C784.101 17.9547 785.403 17.7475 786.717 17.6612C788.019 17.569 789.325 17.5403 790.63 17.5751C789.334 17.6446 788.043 17.7767 786.761 17.9706C785.492 18.1608 784.245 18.4653 783.035 18.8801L782.828 18.28Z" fill="#E3D9CC"/>
<path d="M783.203 17.3517C784.235 17.0813 785.294 16.9154 786.362 16.8566C787.418 16.7866 788.472 16.7866 789.523 16.8055C788.475 16.8916 787.429 16.9938 786.401 17.166C785.38 17.3216 784.379 17.5777 783.413 17.9302L783.203 17.3517Z" fill="#E3D9CC"/>
<path d="M783.578 16.4234C784.428 16.1949 785.303 16.0639 786.185 16.0333C787.055 15.9902 787.916 16.0118 788.777 16.0333C787.918 16.1113 787.063 16.1974 786.222 16.34C785.39 16.4706 784.576 16.6945 783.798 17.0073L783.578 16.4234Z" fill="#E3D9CC"/>
<path d="M783.949 15.5086C784.653 15.3126 785.381 15.2112 786.113 15.2072C786.828 15.1911 787.533 15.2341 788.24 15.2718C787.536 15.3364 786.842 15.401 786.144 15.5167C785.467 15.6201 784.809 15.8129 784.187 16.0898L783.949 15.5086Z" fill="#E3D9CC"/>
<path d="M784.321 14.5694C784.93 14.3858 785.568 14.3066 786.205 14.3353C786.826 14.3488 787.429 14.4215 788.033 14.4807C787.427 14.5237 786.817 14.5587 786.227 14.6475C785.652 14.7185 785.094 14.8851 784.578 15.1399L784.321 14.5694Z" fill="#E3D9CC"/>
<path d="M784.679 13.6492C784.924 13.5627 785.183 13.5154 785.445 13.5093C785.682 13.4998 785.921 13.5052 786.157 13.5255C786.619 13.5612 787.077 13.6259 787.53 13.7192C787.075 13.7291 786.621 13.7677 786.171 13.8349C785.953 13.8674 785.736 13.9132 785.523 13.9721C785.331 14.0196 785.147 14.0968 784.981 14.2008L784.679 13.6492Z" fill="#E3D9CC"/>
<path d="M785.417 12.7586C785.608 12.7256 785.802 12.7147 785.995 12.7263C786.175 12.7365 786.353 12.7581 786.529 12.7909C786.869 12.8567 787.204 12.9467 787.53 13.0599C787.192 13.0516 786.854 13.0678 786.518 13.1084C786.357 13.1281 786.197 13.1578 786.04 13.1972C785.897 13.2325 785.759 13.2849 785.629 13.3532L785.417 12.7586Z" fill="#E3D9CC"/>
<path d="M785.981 12.0967C786.175 12.0621 786.372 12.0494 786.568 12.059C786.75 12.0688 786.931 12.0886 787.111 12.1182C787.29 12.1478 787.46 12.1855 787.631 12.2258C787.801 12.2662 787.969 12.3173 788.136 12.3631C787.963 12.3631 787.79 12.3631 787.617 12.3819C787.443 12.4007 787.273 12.4088 787.105 12.4303C786.94 12.4516 786.777 12.4831 786.616 12.5245C786.469 12.5621 786.327 12.6163 786.194 12.686L785.981 12.0967Z" fill="#E3D9CC"/>
<path d="M786.546 11.432C786.742 11.3964 786.942 11.3828 787.141 11.3916C787.329 11.3983 787.515 11.4163 787.7 11.4454C787.879 11.4724 788.058 11.5073 788.232 11.5477C788.405 11.5881 788.578 11.6338 788.751 11.6688C788.573 11.6849 788.394 11.6876 788.22 11.7011C788.047 11.7145 787.868 11.7334 787.698 11.7576C787.53 11.7806 787.364 11.8139 787.2 11.8571C787.049 11.8957 786.902 11.9507 786.764 12.0213L786.546 11.432Z" fill="#E3D9CC"/>
<path d="M787.111 10.7702C787.309 10.7341 787.51 10.7188 787.712 10.7244C787.899 10.7286 788.085 10.7439 788.271 10.7702C788.457 10.7971 788.639 10.8293 788.816 10.867C788.995 10.902 789.168 10.9451 789.347 10.9773C789.165 10.9989 788.983 11.0042 788.805 11.0204C788.626 11.0365 788.447 11.0554 788.273 11.0823C788.102 11.1084 787.932 11.1434 787.765 11.1872C787.609 11.2284 787.459 11.2862 787.318 11.3594L787.111 10.7702Z" fill="#E3D9CC"/>
<path d="M788.855 10.0947C788.664 10.0715 788.472 10.058 788.279 10.0543H788.086C787.966 10.1183 787.839 10.1714 787.709 10.2131L787.882 10.6893C788.189 10.5439 788.517 10.445 788.855 10.396C789.034 10.3691 789.215 10.3449 789.397 10.3288C789.579 10.3126 789.766 10.2965 789.956 10.275C789.774 10.2454 789.596 10.205 789.414 10.1727C789.232 10.1404 789.048 10.127 788.855 10.0947Z" fill="#E3D9CC"/>
<path d="M788.902 9.38708C788.751 9.5642 788.58 9.72562 788.394 9.86873L788.452 10.0329C788.768 9.88422 789.106 9.78261 789.453 9.7315C789.816 9.66693 790.194 9.63733 790.571 9.59427C790.199 9.53508 789.83 9.45974 789.453 9.41937C789.266 9.40054 789.087 9.38978 788.902 9.38708Z" fill="#E3D9CC"/>
<path d="M789.414 8.71972C789.283 8.91346 789.134 9.10719 788.995 9.28747L789.025 9.3682C789.349 9.21668 789.693 9.11152 790.048 9.05607C790.42 8.98611 790.803 8.94844 791.183 8.9C790.803 8.84619 790.426 8.77623 790.034 8.74394C789.828 8.72357 789.621 8.71548 789.414 8.71972Z" fill="#E3D9CC"/>
<path d="M789.844 8.05511C789.738 8.21387 789.632 8.378 789.523 8.54483L789.582 8.70628C789.913 8.54979 790.266 8.43927 790.63 8.378C791.004 8.30266 791.396 8.25961 791.784 8.20849C791.396 8.15467 791.01 8.09547 790.61 8.06587C790.356 8.0447 790.1 8.04111 789.844 8.05511Z" fill="#E3D9CC"/>
<path d="M792.072 5.07106C792.034 5.15764 791.989 5.2413 791.938 5.3213C791.882 5.40561 791.826 5.48633 791.77 5.56347L791.854 5.73299C792.284 5.4377 792.735 5.17243 793.204 4.93921C792.83 4.97688 792.452 5.01455 792.072 5.07106Z" fill="#E3D9CC"/>
<path d="M791.709 5.65228C791.594 5.81373 791.474 5.96979 791.354 6.12317L791.438 6.31421C791.674 6.16258 791.924 6.03113 792.184 5.92136C792.463 5.80297 792.726 5.70072 793.003 5.59308C792.571 5.59171 792.139 5.61147 791.709 5.65228Z" fill="#E3D9CC"/>
<path d="M791.812 6.21458C791.625 6.21394 791.439 6.22292 791.253 6.24149L790.915 6.65318L791.013 6.89266C791.278 6.7404 791.559 6.61591 791.851 6.52133C792.156 6.41908 792.472 6.33567 792.788 6.25226C792.489 6.23342 792.148 6.21189 791.812 6.21458Z" fill="#E3D9CC"/>
<path d="M791.519 6.81192C791.273 6.8022 791.026 6.80849 790.781 6.83076L790.501 7.17787L790.613 7.47116C790.912 7.31696 791.229 7.19944 791.558 7.12136C791.899 7.03257 792.254 6.97068 792.606 6.90072C792.243 6.86574 791.885 6.82538 791.519 6.81192Z" fill="#E3D9CC"/>
<path d="M791.225 7.40929C790.921 7.38375 790.615 7.38375 790.311 7.40929C790.238 7.50078 790.169 7.59227 790.099 7.67837C790.092 7.68974 790.085 7.70054 790.076 7.71066L790.197 8.03893C790.527 7.88242 790.879 7.77189 791.242 7.71066C791.619 7.63801 792.008 7.59227 792.396 7.54383C792.011 7.50078 791.622 7.4362 791.225 7.40929Z" fill="#E3D9CC"/>
<path d="M780.315 25.642C781.771 25.4429 783.23 25.2796 784.693 25.1523C786.156 25.0249 787.619 24.9298 789.084 24.867C790.549 24.7971 792.013 24.7621 793.481 24.754H794.579C794.946 24.754 795.312 24.754 795.678 24.754C796.41 24.7675 797.143 24.789 797.872 24.8455C797.143 24.8159 796.41 24.8213 795.678 24.8321L794.579 24.8563L793.484 24.8966C792.023 24.9558 790.564 25.0455 789.106 25.1657C787.649 25.2859 786.196 25.4321 784.746 25.6043C783.298 25.7873 781.856 25.9972 780.419 26.2447L780.315 25.642Z" fill="#E3D9CC"/>
<path d="M780.439 25.6232C783.192 25.3864 785.948 25.311 788.701 25.3245C790.08 25.3245 791.456 25.3496 792.83 25.3998C794.205 25.4456 795.577 25.5048 796.95 25.5909C795.575 25.5586 794.2 25.5469 792.827 25.5559C791.453 25.5649 790.08 25.5909 788.707 25.6339C785.965 25.7281 783.223 25.903 780.511 26.242L780.439 25.6232Z" fill="#E3D9CC"/>
<path d="M780.567 25.6043C781.864 25.5827 783.155 25.6043 784.447 25.6473C785.738 25.6904 787.027 25.7469 788.313 25.8222C789.598 25.8976 790.887 25.9783 792.17 26.0671C793.453 26.1559 794.739 26.2581 796.027 26.3362C794.739 26.32 793.45 26.2689 792.162 26.2339C790.873 26.1989 789.587 26.164 788.301 26.1424C787.016 26.1209 785.727 26.1128 784.441 26.1236C783.155 26.1344 781.87 26.164 780.592 26.2393L780.567 25.6043Z" fill="#E3D9CC"/>
<path d="M780.71 25.5881C783.119 25.8169 785.512 26.0994 787.907 26.3658C789.104 26.5003 790.303 26.6348 791.502 26.7586C792.701 26.8824 793.897 27.0062 795.102 27.0573C793.897 27.0573 792.69 26.9846 791.488 26.9147C790.286 26.8447 789.078 26.7586 787.877 26.6779C785.47 26.5138 783.063 26.3335 780.662 26.2097L780.71 25.5881Z" fill="#E3D9CC"/>
<path d="M780.877 25.5828C781.945 25.8787 783.046 26.1209 784.148 26.3416C785.249 26.5622 786.359 26.7721 787.468 26.9577C788.578 27.1434 789.705 27.3183 790.823 27.469C791.939 27.6308 793.063 27.7377 794.191 27.7892C793.06 27.7896 791.931 27.7348 790.806 27.6251C789.688 27.5246 788.563 27.4053 787.432 27.2672C786.314 27.13 785.196 26.9766 784.078 26.8017C782.96 26.6268 781.842 26.4384 780.724 26.1828L780.877 25.5828Z" fill="#E3D9CC"/>
<path d="M780.995 25.9729C781.658 26.4911 782.376 26.942 783.136 27.3183C783.903 27.7046 784.696 28.0426 785.509 28.33C786.325 28.6206 787.154 28.8771 787.997 29.0996C788.206 29.1534 788.416 29.2099 788.628 29.2583C788.841 29.3068 789.053 29.3606 789.266 29.4063C789.691 29.4978 790.118 29.5839 790.552 29.6431C790.115 29.6108 789.682 29.5489 789.249 29.4817C789.034 29.4494 788.818 29.4117 788.603 29.374C788.388 29.3364 788.173 29.2933 787.958 29.2503C787.099 29.078 786.247 28.8709 785.406 28.6233C784.558 28.3823 783.729 28.0866 782.923 27.738C782.102 27.3937 781.321 26.9671 780.592 26.4653L780.995 25.9729Z" fill="#E3D9CC"/>
<path d="M781.118 26.0591C781.853 26.65 782.642 27.1768 783.474 27.6332C784.313 28.1014 785.171 28.5211 786.051 28.9113C786.932 29.3015 787.832 29.6593 788.743 29.9876C789.654 30.3159 790.577 30.6092 791.519 30.8513C790.563 30.6603 789.621 30.4127 788.69 30.1356C787.759 29.8585 786.834 29.5463 785.925 29.2019C785.017 28.8575 784.117 28.4754 783.239 28.0449C782.356 27.6191 781.514 27.1184 780.724 26.5488L781.118 26.0591Z" fill="#E3D9CC"/>
<path d="M781.244 26.1478C782.055 26.8137 782.911 27.4267 783.807 27.9829C784.701 28.548 785.626 29.0754 786.574 29.5678C787.522 30.0602 788.483 30.523 789.464 30.9455C790.447 31.3728 791.455 31.743 792.483 32.0541C791.439 31.792 790.412 31.4695 789.408 31.0881C788.399 30.7141 787.407 30.297 786.431 29.8476C785.456 29.3983 784.494 28.9112 783.555 28.3812C782.609 27.8553 781.7 27.2692 780.835 26.6268L781.244 26.1478Z" fill="#E3D9CC"/>
<path d="M781.369 26.2367C782.247 26.9874 783.175 27.6924 784.125 28.3651C785.076 29.0378 786.06 29.6755 787.066 30.2782C788.072 30.881 789.104 31.4406 790.166 31.9492C791.225 32.4655 792.321 32.9061 793.447 33.2677C792.301 32.956 791.18 32.5639 790.093 32.0945C789.003 31.6317 787.941 31.1097 786.898 30.55C785.856 29.9903 784.841 29.3903 783.846 28.7553C782.851 28.1202 781.889 27.4449 780.944 26.7157L781.369 26.2367Z" fill="#E3D9CC"/>
<path d="M781.495 26.3228C783.389 28.0246 785.406 29.5954 787.53 31.0235C788.597 31.7312 789.705 32.3807 790.848 32.969C791.993 33.5596 793.186 34.0617 794.414 34.4704C793.167 34.1107 791.952 33.6554 790.781 33.1089C789.605 32.5639 788.463 31.9548 787.359 31.2845C785.158 29.9307 783.057 28.4301 781.073 26.7936L781.495 26.3228Z" fill="#E3D9CC"/>
<path d="M792.106 34.4489C793.166 34.9345 794.259 35.349 795.379 35.6893C793.96 35.2041 792.588 34.5999 791.278 33.8838C791.561 34.056 791.835 34.247 792.106 34.4489Z" fill="#E3D9CC"/>
<path d="M787.782 32.0514L788.061 32.2316C788.615 32.441 789.156 32.6799 789.682 32.9474C789.095 32.5886 788.522 32.2047 787.963 31.7957C786.831 30.9885 785.749 30.1167 784.701 29.2099C783.653 28.3031 782.647 27.3533 781.626 26.4115L781.19 26.8743C782.25 27.7676 783.301 28.6906 784.397 29.5651C785.492 30.4396 786.619 31.2764 787.782 32.0514Z" fill="#E3D9CC"/>
<path d="M766.588 21.213C767.061 22.3943 767.527 23.5728 768.047 24.7299C768.557 25.8941 769.151 27.0225 769.825 28.1068C769.059 27.077 768.367 25.9982 767.754 24.8778C767.133 23.7558 766.566 22.6095 765.996 21.4713L766.588 21.213Z" fill="white"/>
<path d="M766.594 20.3331C767.366 22.3954 768.336 24.3835 769.493 26.2717C768.145 24.4792 766.974 22.5695 765.996 20.5672L766.594 20.3331Z" fill="white"/>
<path d="M766.982 19.7949C767.639 21.5498 768.446 23.2491 769.395 24.8751C768.253 23.3447 767.247 21.7245 766.387 20.0317L766.982 19.7949Z" fill="white"/>
<path d="M767.371 19.2568C767.94 20.7765 768.628 22.2526 769.428 23.6724C768.434 22.3502 767.546 20.9568 766.773 19.5044L767.371 19.2568Z" fill="white"/>
<path d="M767.76 18.7159C768.279 20.0897 768.9 21.426 769.618 22.7144C768.71 21.5248 767.892 20.274 767.17 18.9716L767.76 18.7159Z" fill="white"/>
<path d="M768.128 18.2316C768.626 19.4971 769.219 20.7256 769.903 21.9072C769.03 20.8275 768.24 19.6871 767.542 18.4953L768.128 18.2316Z" fill="white"/>
<path d="M768.483 17.8119C769.032 19.0642 769.682 20.2733 770.426 21.4283C769.499 20.3798 768.658 19.2633 767.91 18.089L768.483 17.8119Z" fill="white"/>
<path d="M769.375 18.5571C769.263 18.4683 769.157 18.3715 769.056 18.2881L768.606 18.2396C768.886 18.6809 769.207 19.1061 769.532 19.5204C769.998 20.1205 770.49 20.699 770.974 21.2856C770.58 20.6398 770.177 20.0021 769.803 19.3509C769.646 19.0854 769.504 18.8208 769.375 18.5571Z" fill="white"/>
<path d="M766.566 21.9879C766.888 23.4566 767.394 24.8824 768.073 26.234C768.759 27.5989 769.539 28.9185 770.407 30.184C769.451 28.9713 768.578 27.6994 767.796 26.3766C766.999 25.0398 766.374 23.6149 765.934 22.1332L766.566 21.9879Z" fill="white"/>
<path d="M766.53 22.7333C766.682 23.701 766.928 24.6531 767.262 25.5774C767.601 26.508 768.009 27.4144 768.481 28.2897C768.947 29.1696 769.473 30.028 770.029 30.8648C770.585 31.7016 771.175 32.5169 771.81 33.3026C771.133 32.5519 770.496 31.7635 769.895 30.9509C769.294 30.1383 768.718 29.3068 768.196 28.4404C767.665 27.576 767.198 26.6769 766.798 25.7496C766.399 24.8116 766.093 23.8395 765.884 22.8463L766.53 22.7333Z" fill="white"/>
<path d="M771.058 33.8972L771.212 33.8569C770.354 32.7682 769.587 31.6166 768.917 30.4127C767.702 28.2455 766.882 25.8937 766.493 23.4597L765.853 23.562C766.361 26.031 767.307 28.3975 768.648 30.558C769.36 31.73 770.165 32.8465 771.058 33.8972V33.8972Z" fill="white"/>
<path d="M769.051 32.5357C769.411 33.0981 769.797 33.6416 770.2 34.1744L770.446 34.091C770.052 33.534 769.677 32.9608 769.328 32.3769C768.574 31.1204 767.947 29.7966 767.458 28.4242C766.969 27.0558 766.632 25.6416 766.451 24.2051L765.808 24.2858C766.049 25.7568 766.448 27.1997 766.999 28.591C767.549 29.9665 768.236 31.2876 769.051 32.5357V32.5357Z" fill="white"/>
<path d="M822.654 22.2059C822.819 22.2489 822.981 22.2866 823.149 22.3216C823.149 22.3888 823.171 22.4534 823.18 22.5207C823.963 22.9647 824.119 23.9172 823.909 25.5263C823.617 25.4511 823.319 25.398 823.018 25.3675C823.219 23.7531 822.948 23.4006 822.721 23.2741L822.344 23.0615L822.283 22.6445C822.249 22.4265 822.213 22.2085 822.174 21.9933C822.322 22.0867 822.484 22.1584 822.654 22.2059Z" fill="white"/>
<path d="M810.311 3.03149C810.802 3.83381 811.35 4.60332 811.949 5.33479C812.533 6.07476 813.134 6.80395 813.743 7.52508C814.048 7.88564 814.355 8.24621 814.666 8.60139C814.976 8.95657 815.295 9.29023 815.63 9.62657C816.295 10.2993 816.977 10.972 817.606 11.7012C818.244 12.4273 818.82 13.2021 819.328 14.0179C819.58 14.4305 819.813 14.8503 820.027 15.2772C820.234 15.7104 820.429 16.1463 820.605 16.5876C820.96 17.4702 821.265 18.3689 821.525 19.2784C821.785 20.1878 822.014 21.0973 822.21 22.0176L821.578 22.1548C821.341 21.2561 821.103 20.3574 820.826 19.464C820.55 18.5707 820.267 17.6989 819.915 16.8432C819.572 15.9909 819.166 15.1635 818.699 14.3677C818.222 13.5763 817.682 12.8216 817.084 12.1102C816.488 11.3917 815.845 10.7029 815.2 10.006C815.037 9.82838 814.875 9.65617 814.716 9.46782C814.557 9.27946 814.409 9.09649 814.26 8.91083C813.96 8.5395 813.668 8.16459 813.383 7.78609C812.824 7.02998 812.265 6.26311 811.731 5.47471C811.468 5.08186 811.215 4.68273 810.97 4.27732C810.722 3.87691 810.501 3.46068 810.311 3.03149Z" fill="#E3D9CC"/>
<path d="M809.889 1.33359C809.634 1.14881 809.342 1.01853 809.031 0.951503C808.733 0.893571 808.424 0.915919 808.139 1.01608C807.831 1.12504 807.547 1.28738 807.3 1.49504C807.169 1.60165 807.043 1.71481 806.923 1.83408C806.862 1.89596 806.808 1.95247 806.744 2.02243L806.546 2.22693C806.006 2.75755 805.381 3.20095 804.695 3.54002C804.354 3.70811 803.995 3.84071 803.625 3.93557C803.261 4.03273 802.882 4.06465 802.507 4.02974C802.87 3.97737 803.224 3.87213 803.555 3.71762C803.882 3.57008 804.195 3.39542 804.491 3.19561C804.786 2.99973 805.066 2.78393 805.33 2.54982C805.595 2.31975 805.842 2.07155 806.07 1.80717C806.129 1.74259 806.185 1.67532 806.241 1.60805L806.425 1.39279C806.554 1.24618 806.692 1.10776 806.839 0.978411C807.144 0.703814 807.502 0.489045 807.893 0.34608C808.099 0.274287 808.314 0.230807 808.533 0.216923C808.754 0.203522 808.975 0.221658 809.19 0.270738C809.607 0.371146 809.991 0.569976 810.308 0.849254L809.889 1.33359Z" fill="#E3D9CC"/>
<path d="M807.91 0.690506C807.711 0.746378 807.522 0.83171 807.351 0.943439C807.163 1.06991 806.976 1.21252 806.792 1.37665C806.394 1.71908 805.972 2.0338 805.528 2.31842C805.075 2.59986 804.586 2.82582 804.075 2.99112C803.573 3.1542 803.055 3.2678 802.529 3.33015C803.016 3.15604 803.491 2.95017 803.949 2.71397C804.397 2.48722 804.819 2.21672 805.21 1.90673C805.601 1.59999 805.942 1.2475 806.328 0.892314C806.527 0.70327 806.744 0.532146 806.976 0.381068C807.239 0.218223 807.537 0.116856 807.848 0.085083L807.91 0.690506Z" fill="#E3D9CC"/>
<path d="M807.999 3.80103C807.363 4.6417 807.037 5.66236 807.071 6.70168C807.083 7.21022 807.16 7.71541 807.3 8.20582C807.432 8.69761 807.62 9.17403 807.859 9.62654C808.098 10.0772 808.397 10.496 808.748 10.8724C809.092 11.2598 809.495 11.6096 809.886 11.9864C810.291 12.3571 810.653 12.7694 810.965 13.216C811.267 13.667 811.48 14.1678 811.594 14.6933C811.382 14.2087 811.1 13.7557 810.755 13.3479C810.406 12.9567 810.022 12.5965 809.606 12.2716C809.178 11.9344 808.77 11.5751 808.382 11.1953C807.991 10.7919 807.659 10.3393 807.395 9.84988C807.139 9.36221 806.943 8.84749 806.811 8.31614C806.679 7.78794 806.626 7.24426 806.655 6.70168C806.681 6.15558 806.807 5.61817 807.026 5.11412C807.249 4.61429 807.581 4.16645 807.999 3.80103V3.80103Z" fill="#E3D9CC"/>
<path d="M808.259 5.01453C808.22 5.24324 808.178 5.46658 808.153 5.68991C808.153 5.80292 808.125 5.91055 808.128 6.02357V6.1877V6.35184C808.148 6.78712 808.242 7.21624 808.407 7.62188C808.57 8.03371 808.776 8.42857 809.022 8.80044C809.26 9.18522 809.542 9.54578 809.808 9.93056C809.42 9.65466 809.073 9.33077 808.773 8.96727C808.461 8.60348 808.214 8.19253 808.041 7.75104C807.864 7.30276 807.794 6.82167 807.837 6.34377C807.857 6.10856 807.906 5.87646 807.982 5.65224C808.053 5.43151 808.146 5.21793 808.259 5.01453V5.01453Z" fill="#E3D9CC"/>
<path d="M807.971 4.6217C807.669 5.30618 807.56 6.05519 807.655 6.79316C807.761 7.51401 808.002 8.21046 808.365 8.84891C808.746 9.49316 809.182 10.106 809.668 10.6813C810.154 11.2679 810.669 11.8384 811.169 12.433C810.52 11.989 809.916 11.4882 809.363 10.9369C808.794 10.3856 808.305 9.76294 807.91 9.08569C807.511 8.38967 807.287 7.61406 807.253 6.82006C807.217 6.02889 807.472 5.25084 807.971 4.6217V4.6217Z" fill="#E3D9CC"/>
<path d="M823.046 22.8032C822.68 22.681 822.306 22.5803 821.928 22.5018L821.341 22.3754L820.748 22.2597C820.354 22.1816 819.951 22.1144 819.554 22.0417L818.355 21.8453C816.751 21.595 815.138 21.3852 813.522 21.2022C811.907 21.0192 810.286 20.8578 808.662 20.7367C807.038 20.6156 805.414 20.5053 803.784 20.4515C805.413 20.4407 807.043 20.4685 808.676 20.5349C810.305 20.5995 811.932 20.7044 813.559 20.8282C815.186 20.952 816.812 21.0973 818.436 21.3018C819.247 21.404 820.058 21.5063 820.868 21.6408L821.475 21.7457C821.676 21.7834 821.88 21.8291 822.081 21.8722C822.502 21.9581 822.914 22.0806 823.311 22.2381L823.046 22.8032Z" fill="#E3D9CC"/>
<path d="M824.127 25.8438C823.504 26.4707 822.872 27.095 822.224 27.7058C821.905 28.0125 821.578 28.3166 821.248 28.618C820.919 28.9193 820.58 29.2072 820.245 29.5032C819.909 29.7992 819.563 30.0817 819.222 30.3696L818.168 31.2038L817.092 32.011C816.729 32.2801 816.357 32.525 815.991 32.7833C814.508 33.7967 812.941 34.6913 811.306 35.4579C809.675 36.2221 807.966 36.8218 806.207 37.2473C807.928 36.7247 809.592 36.0435 811.177 35.213C812.753 34.3844 814.261 33.4417 815.689 32.3931C816.041 32.124 816.399 31.8549 816.748 31.5859L817.782 30.7544L818.791 29.8961L819.786 29.0189C820.441 28.4269 821.086 27.8242 821.729 27.2188C822.372 26.6133 823.012 25.9971 823.663 25.3944L824.127 25.8438Z" fill="#E3D9CC"/>
<path d="M823.764 25.9057C821.349 24.8455 808.829 24.0491 801.889 24.0491V23.4248C808.158 23.4248 821.327 24.1513 824.032 25.3379L823.764 25.9057Z" fill="#E3D9CC"/>
<path d="M801.889 29.9526V29.3283C805.296 29.3283 821.176 27.7596 823.672 25.3998L824.125 25.8464C821.332 28.4726 804.692 29.9526 801.889 29.9526Z" fill="#E3D9CC"/>
<path d="M821.785 20.9869C820.768 20.7502 819.747 20.5618 818.71 20.4057C817.673 20.2497 816.653 20.1367 815.636 20.0371C813.573 19.8485 811.5 19.7927 809.43 19.8703C811.493 19.8987 813.551 20.0596 815.591 20.3519C816.612 20.4936 817.626 20.6667 818.632 20.8712C819.638 21.0757 820.636 21.3125 821.615 21.5951L821.785 20.9869Z" fill="#E3D9CC"/>
<path d="M821.712 20.1393C819.961 19.671 818.163 19.3815 816.348 19.2756C814.548 19.1438 812.748 19.1276 810.948 19.1007C812.743 19.2299 814.54 19.3509 816.315 19.585C818.084 19.7938 819.826 20.1807 821.511 20.7394L821.712 20.1393Z" fill="#E3D9CC"/>
<path d="M821.327 19.2084C819.817 18.8263 818.276 18.5733 816.72 18.4523C815.177 18.3304 813.628 18.2891 812.08 18.3285C813.621 18.3917 815.157 18.5363 816.681 18.7617C818.196 18.9849 819.687 19.337 821.137 19.8138L821.327 19.2084Z" fill="#E3D9CC"/>
<path d="M820.949 18.28C819.678 17.9517 818.377 17.7418 817.064 17.653C815.762 17.561 814.456 17.5323 813.151 17.5669C814.446 17.6365 815.737 17.7685 817.019 17.9625C818.288 18.152 819.536 18.4565 820.745 18.872L820.949 18.28Z" fill="#E3D9CC"/>
<path d="M820.575 17.3517C819.543 17.0813 818.484 16.9154 817.416 16.8566C816.36 16.7866 815.306 16.7866 814.255 16.8055C815.303 16.8916 816.348 16.9938 817.377 17.166C818.399 17.3251 819.401 17.5848 820.368 17.941L820.575 17.3517Z" fill="#E3D9CC"/>
<path d="M820.2 16.4234C819.35 16.1947 818.475 16.0638 817.592 16.0333C816.726 15.9902 815.862 16.0118 815.001 16.0333C815.859 16.1113 816.717 16.1974 817.556 16.34C818.388 16.4702 819.202 16.6942 819.979 17.0073L820.2 16.4234Z" fill="#E3D9CC"/>
<path d="M819.828 15.5086C819.126 15.3128 818.399 15.2114 817.668 15.2072C816.952 15.1911 816.245 15.2341 815.538 15.2718C816.242 15.3364 816.935 15.401 817.634 15.5167C818.311 15.6197 818.969 15.8125 819.591 16.0898L819.828 15.5086Z" fill="#E3D9CC"/>
<path d="M819.459 14.5694C818.85 14.3858 818.211 14.3066 817.573 14.3353C816.955 14.3488 816.351 14.4214 815.745 14.4806C816.351 14.5237 816.961 14.5587 817.55 14.6475C818.126 14.7185 818.684 14.8851 819.199 15.1399L819.459 14.5694Z" fill="#E3D9CC"/>
<path d="M819.099 13.6492C818.853 13.5627 818.595 13.5154 818.333 13.5093C818.095 13.4998 817.857 13.5052 817.62 13.5255C817.159 13.5612 816.7 13.6259 816.248 13.7192C816.704 13.7291 817.158 13.7677 817.609 13.8349C817.827 13.8676 818.043 13.9135 818.255 13.9721C818.447 14.0196 818.63 14.0968 818.797 14.2008L819.099 13.6492Z" fill="#E3D9CC"/>
<path d="M818.361 12.7586C818.17 12.7256 817.976 12.7147 817.782 12.7263C817.603 12.7365 817.425 12.7581 817.248 12.7909C816.908 12.8567 816.574 12.9467 816.248 13.0599C816.586 13.0516 816.924 13.0678 817.26 13.1084C817.421 13.1279 817.581 13.1575 817.738 13.1972C817.881 13.2325 818.019 13.2849 818.149 13.3532L818.361 12.7586Z" fill="#E3D9CC"/>
<path d="M817.796 12.0967C817.603 12.0621 817.406 12.0494 817.209 12.059C817.028 12.0688 816.847 12.0886 816.667 12.1182C816.491 12.1478 816.318 12.1855 816.147 12.2258C815.977 12.2662 815.809 12.3173 815.641 12.3631C815.817 12.3631 815.991 12.3631 816.161 12.3819C816.332 12.4007 816.505 12.4088 816.673 12.4303C816.838 12.4516 817.001 12.4831 817.162 12.5245C817.309 12.5621 817.45 12.6163 817.584 12.686L817.796 12.0967Z" fill="#E3D9CC"/>
<path d="M817.232 11.432C817.036 11.3964 816.838 11.3828 816.639 11.3916C816.452 11.3984 816.265 11.4164 816.08 11.4455C815.901 11.4724 815.725 11.5073 815.549 11.5477C815.373 11.5881 815.202 11.6338 815.032 11.6688C815.208 11.6849 815.387 11.6876 815.563 11.7011C815.739 11.7145 815.912 11.7334 816.083 11.7576C816.252 11.7806 816.419 11.8139 816.583 11.8571C816.734 11.8957 816.879 11.9507 817.016 12.0213L817.232 11.432Z" fill="#E3D9CC"/>
<path d="M816.667 10.7702C816.469 10.7341 816.268 10.7188 816.066 10.7244C815.879 10.7287 815.692 10.744 815.507 10.7702C815.321 10.7971 815.139 10.8293 814.962 10.867C814.783 10.902 814.61 10.9451 814.431 10.9773C814.613 10.9989 814.794 11.0042 814.973 11.0204C815.152 11.0365 815.331 11.0554 815.504 11.0823C815.676 11.1081 815.846 11.1432 816.013 11.1872C816.168 11.2284 816.318 11.2862 816.46 11.3594L816.667 10.7702Z" fill="#E3D9CC"/>
<path d="M814.917 10.0947C815.108 10.0716 815.301 10.0581 815.493 10.0543H815.689C815.808 10.1188 815.933 10.1719 816.063 10.2131L815.89 10.6893C815.581 10.5452 815.251 10.4481 814.912 10.4014C814.733 10.3745 814.554 10.3503 814.369 10.3342C814.185 10.318 814.003 10.3019 813.81 10.2803C813.992 10.2507 814.171 10.2104 814.355 10.1781C814.54 10.1458 814.73 10.127 814.917 10.0947Z" fill="#E3D9CC"/>
<path d="M814.878 9.38708C815.029 9.56414 815.198 9.72556 815.384 9.86873L815.325 10.0329C815.01 9.88422 814.672 9.78261 814.325 9.7315C813.961 9.66693 813.584 9.63733 813.207 9.59427C813.578 9.53508 813.947 9.45974 814.325 9.41937C814.509 9.40144 814.694 9.39067 814.878 9.38708Z" fill="#E3D9CC"/>
<path d="M814.372 8.71972C814.504 8.91345 814.652 9.10719 814.791 9.28747L814.761 9.36819C814.436 9.21431 814.089 9.10733 813.732 9.05068C813.363 8.98072 812.977 8.94305 812.597 8.89462C812.977 8.8408 813.355 8.77084 813.746 8.73855C813.954 8.71981 814.163 8.71352 814.372 8.71972Z" fill="#E3D9CC"/>
<path d="M813.933 8.05508C814.04 8.21383 814.146 8.37797 814.255 8.5448L814.196 8.70625C813.866 8.54973 813.514 8.4392 813.151 8.37797C812.773 8.30263 812.385 8.25958 811.996 8.20845C812.382 8.15464 812.771 8.09544 813.167 8.06584C813.422 8.04472 813.678 8.04112 813.933 8.05508Z" fill="#E3D9CC"/>
<path d="M811.708 5.07106C811.745 5.15814 811.79 5.24189 811.843 5.3213C811.896 5.40471 811.952 5.48544 812.007 5.56347L811.926 5.73299C811.496 5.4377 811.044 5.17243 810.574 4.93921C810.937 4.97688 811.325 5.01455 811.708 5.07106Z" fill="#E3D9CC"/>
<path d="M812.069 5.65229C812.184 5.81374 812.304 5.96981 812.427 6.12318L812.34 6.31422C812.105 6.1626 811.856 6.03114 811.597 5.92137C811.331 5.80298 811.052 5.70073 810.775 5.5931C811.207 5.59159 811.639 5.61135 812.069 5.65229Z" fill="#E3D9CC"/>
<path d="M811.966 6.21458C812.152 6.21409 812.339 6.22307 812.525 6.24149C812.634 6.37872 812.748 6.51057 812.86 6.65318L812.762 6.89266C812.497 6.7399 812.216 6.61539 811.924 6.52133C811.619 6.41908 811.303 6.33567 810.99 6.25226C811.306 6.23342 811.63 6.21189 811.966 6.21458Z" fill="#E3D9CC"/>
<path d="M812.259 6.81194C812.506 6.80219 812.754 6.80848 813 6.83078L813.279 7.17789L813.167 7.47118C812.869 7.31698 812.552 7.19946 812.223 7.12138C811.882 7.03259 811.53 6.9707 811.177 6.90074C811.535 6.86576 811.893 6.8254 812.259 6.81194Z" fill="#E3D9CC"/>
<path d="M812.555 7.40929C812.859 7.38375 813.165 7.38375 813.469 7.40929L813.679 7.67837L813.701 7.71066L813.581 8.03893C813.251 7.88242 812.899 7.77189 812.536 7.71066C812.158 7.63801 811.77 7.59227 811.381 7.54383C811.775 7.50078 812.156 7.4362 812.555 7.40929Z" fill="#E3D9CC"/>
<path d="M823.359 26.2555C821.925 26.0079 820.48 25.798 819.032 25.6151C817.584 25.4321 816.13 25.2949 814.674 25.1765C813.218 25.0581 811.756 24.9693 810.294 24.9074L809.198 24.867L808.1 24.8428C807.37 24.8428 806.638 24.8267 805.906 24.8563C806.635 24.7998 807.367 24.7782 808.1 24.7648C808.466 24.7648 808.832 24.7648 809.198 24.7648H810.297C811.764 24.7648 813.229 24.8078 814.694 24.8778C816.158 24.9477 817.623 25.0365 819.085 25.163C820.547 25.2895 822.006 25.4536 823.462 25.6527L823.359 26.2555Z" fill="#E3D9CC"/>
<path d="M823.269 26.242C820.555 25.9057 817.816 25.7281 815.071 25.6339C813.698 25.5891 812.324 25.563 810.951 25.5559C809.577 25.5487 808.203 25.5604 806.828 25.5908C808.2 25.5047 809.576 25.4455 810.948 25.3998C812.321 25.3541 813.699 25.3272 815.077 25.3245C817.83 25.3245 820.586 25.3864 823.342 25.6231L823.269 26.242Z" fill="#E3D9CC"/>
<path d="M823.185 26.2286C821.908 26.1533 820.622 26.1264 819.336 26.1129C818.051 26.0995 816.765 26.1129 815.479 26.1318C814.193 26.1506 812.902 26.1856 811.616 26.2232C810.33 26.2609 809.039 26.3094 807.753 26.3255C809.039 26.2582 810.322 26.1533 811.608 26.0564C812.894 25.9596 814.179 25.8842 815.465 25.8116C816.751 25.7389 818.042 25.677 819.331 25.6367C820.619 25.5963 821.914 25.5721 823.211 25.5936L823.185 26.2286Z" fill="#E3D9CC"/>
<path d="M823.116 26.2097C820.715 26.3335 818.308 26.5138 815.901 26.6779C814.699 26.7586 813.495 26.842 812.29 26.9147C811.085 26.9873 809.88 27.06 808.676 27.0573C809.88 27.0062 811.079 26.8797 812.279 26.7586C813.478 26.6375 814.674 26.4895 815.87 26.3658C818.269 26.0967 820.661 25.8276 823.068 25.5881L823.116 26.2097Z" fill="#E3D9CC"/>
<path d="M823.068 26.1828C821.95 26.4519 820.832 26.6268 819.714 26.8017C818.596 26.9766 817.478 27.13 816.36 27.2672C815.241 27.4044 814.123 27.5363 812.989 27.6251C811.863 27.7348 810.732 27.7896 809.601 27.7892C810.724 27.7372 811.843 27.6304 812.955 27.469C814.073 27.3183 815.191 27.1479 816.309 26.9577C817.427 26.7721 818.529 26.5649 819.63 26.3416C820.731 26.1182 821.833 25.8787 822.9 25.5828L823.068 26.1828Z" fill="#E3D9CC"/>
<path d="M823.185 26.4626C822.457 26.9644 821.676 27.391 820.854 27.7354C820.049 28.0843 819.219 28.3801 818.372 28.6206C817.534 28.8682 816.678 29.0754 815.82 29.2476C815.605 29.2906 815.392 29.3337 815.174 29.3713C814.956 29.409 814.744 29.4467 814.529 29.479C814.095 29.5462 813.662 29.6081 813.226 29.6404C813.659 29.5812 814.087 29.4951 814.512 29.4036C814.724 29.3579 814.937 29.3095 815.149 29.2556C815.362 29.2018 815.571 29.1507 815.781 29.0969C816.62 28.8736 817.458 28.6179 818.269 28.3273C819.082 28.0399 819.874 27.7019 820.642 27.3156C821.403 26.9399 822.121 26.489 822.786 25.9702L823.185 26.4626Z" fill="#E3D9CC"/>
<path d="M823.068 26.5407C822.277 27.1097 821.435 27.6103 820.552 28.0368C819.675 28.4673 818.777 28.844 817.869 29.1938C816.961 29.5436 816.035 29.8477 815.102 30.1275C814.168 30.4074 813.229 30.6657 812.276 30.8433C813.215 30.6011 814.14 30.3051 815.051 29.9796C815.963 29.654 816.86 29.2961 817.74 28.9032C818.621 28.5104 819.485 28.096 820.318 27.6251C821.151 27.17 821.94 26.6432 822.674 26.051L823.068 26.5407Z" fill="#E3D9CC"/>
<path d="M822.956 26.6268C822.091 27.2692 821.183 27.8553 820.237 28.3812C819.297 28.9193 818.339 29.3956 817.36 29.8476C816.382 30.2997 815.404 30.7141 814.383 31.0881C813.38 31.4695 812.353 31.792 811.309 32.0541C812.337 31.743 813.345 31.3728 814.327 30.9455C815.311 30.5239 816.276 30.0647 817.22 29.5678C818.165 29.0754 819.09 28.548 819.985 27.9829C820.881 27.4267 821.737 26.8137 822.548 26.1478L822.956 26.6268Z" fill="#E3D9CC"/>
<path d="M822.83 26.7103C821.894 27.4395 820.924 28.1122 819.929 28.7499C818.934 29.3876 817.916 29.9849 816.877 30.5446C815.837 31.1043 814.772 31.6209 813.682 32.0891C812.595 32.5585 811.474 32.9506 810.328 33.2623C811.453 32.9025 812.55 32.4636 813.609 31.9492C814.671 31.4406 815.703 30.8729 816.709 30.2782C817.715 29.6836 818.696 29.0378 819.649 28.3651C820.603 27.6924 821.528 26.9874 822.406 26.2367L822.83 26.7103Z" fill="#E3D9CC"/>
<path d="M822.71 26.7936C820.727 28.4307 818.626 29.9314 816.424 31.2845C815.321 31.9554 814.178 32.5645 813.003 33.1089C811.831 33.655 810.616 34.1103 809.369 34.4704C810.596 34.0612 811.788 33.5591 812.933 32.969C814.075 32.3818 815.182 31.7323 816.248 31.0235C818.372 29.5954 820.389 28.0246 822.283 26.3228L822.71 26.7936Z" fill="#E3D9CC"/>
<path d="M822.593 26.8744C821.533 27.7677 820.482 28.6907 819.39 29.5652C818.297 30.4397 817.17 31.2792 815.996 32.0541C813.668 33.6263 811.107 34.8518 808.399 35.6894C811.058 34.7617 813.556 33.4527 815.809 31.8066C816.941 30.9994 818.023 30.1276 819.071 29.2208C820.119 28.314 821.125 27.3641 822.146 26.4224L822.593 26.8744Z" fill="#E3D9CC"/>
<path d="M801.889 2.18116C803.624 2.22532 805.339 1.80922 806.845 0.978382C807.4 0.641276 808.076 0.543666 808.709 0.709305C810.087 1.08063 811.085 2.63052 811.451 3.27899C812.309 4.79659 814.378 7.89904 816.703 9.89021C819.132 11.9675 821.975 16.6952 822.853 22.5799L822.875 22.7279L823.009 22.8032C823.63 23.153 823.795 23.9629 823.568 25.5962L823.462 26.3873L824.097 25.8761C825.011 25.1415 826.224 23.7854 827.627 22.2139C830.503 19.0065 834.417 14.6206 836.991 14.6206C837.862 14.6156 838.676 15.0386 839.149 15.7426C839.934 16.8189 840.887 19.5985 838.444 25.9676C838.389 26.1156 838.324 26.2932 838.252 26.5057C837.371 28.9751 836.167 31.3261 834.668 33.5017C834.867 33.6174 835.062 33.7358 835.255 33.8596C836.786 31.6452 838 29.2422 838.864 26.7156C838.936 26.5138 838.998 26.3416 839.054 26.1963C841.597 19.5608 840.538 16.5849 839.68 15.3982C839.082 14.531 838.072 14.0105 836.991 14.0125C834.112 14.0125 830.249 18.3339 827.143 21.8157C826.062 23.0266 825.095 24.1109 824.306 24.859C824.373 23.8203 824.236 22.8759 823.468 22.3566C822.537 16.383 819.619 11.5666 817.123 9.44086C814.864 7.51157 812.846 4.48446 812.01 2.99915C811.605 2.28072 810.487 0.577458 808.874 0.128099C808.079 -0.0881139 807.226 0.0250205 806.52 0.440228C805.117 1.20705 803.525 1.59472 801.911 1.56228H801.866C800.253 1.59445 798.661 1.2068 797.257 0.440228C796.553 0.0128192 795.695 -0.110205 794.892 0.101191C793.28 0.537096 792.162 2.25381 791.759 2.97224C790.92 4.45755 788.902 7.48467 786.644 9.41395C784.148 11.5504 781.23 16.3669 780.299 22.3296C779.541 22.849 779.404 23.7907 779.46 24.8294C778.678 24.076 777.71 22.9701 776.626 21.7377C773.481 18.1536 769.579 13.7084 766.597 13.7084H766.493C765.635 13.7461 764.816 14.2466 764.212 15.113C762.695 17.3141 762.885 21.3448 764.735 26.1748C764.791 26.3201 764.855 26.4923 764.928 26.6941C765.885 29.5231 767.288 32.1939 769.087 34.613C769.3 34.5188 769.518 34.43 769.736 34.3439C767.945 31.9392 766.532 29.2935 765.543 26.4923C765.467 26.2878 765.403 26.1102 765.347 25.9541C762.832 19.3644 764.092 16.4153 764.755 15.4601C765.23 14.774 765.873 14.3623 766.527 14.3354H766.625C769.302 14.3354 773.258 18.8397 776.156 22.1386C777.554 23.7531 778.781 25.1307 779.687 25.8572L780.321 26.3685L780.215 25.5774C779.994 23.9441 780.156 23.1342 780.774 22.7844L780.908 22.709L780.93 22.5611C781.814 16.6763 784.659 11.9487 787.08 9.87138C789.405 7.8829 791.477 4.77775 792.332 3.26016C792.698 2.61168 793.699 1.0618 795.074 0.69047C795.707 0.526175 796.383 0.623703 796.939 0.959547C798.441 1.796 800.154 2.21861 801.889 2.18116Z" fill="#E3D9CC"/>
<path d="M835.652 18.3096C835.99 18.2908 836.211 19.0361 836.429 19.3859C836.76 19.93 837.019 20.5122 837.198 21.1188L837.368 24.5522C837.368 24.5522 836.6 29.0458 834.274 32.977C834.232 33.0496 834.187 33.1223 834.137 33.2003L834.313 33.2945C834.632 32.8698 834.927 32.4288 835.196 31.9733C837.144 28.7886 838.236 25.1862 838.372 21.4928C838.523 17.8333 837.813 16.9185 836.65 17.0288C834.85 17.2145 830.953 22.0148 830.596 22.4346C831.266 21.9072 834.506 18.3688 835.652 18.3096Z" fill="white"/>
<path d="M837.796 21.4606C837.237 22.5988 836.656 23.745 836.035 24.8671C835.422 25.9874 834.729 27.0662 833.964 28.096C834.638 27.0117 835.232 25.8833 835.741 24.7191C836.261 23.5621 836.728 22.3835 837.201 21.2023L837.796 21.4606Z" fill="white"/>
<path d="M837.793 20.5699C836.816 22.5718 835.645 24.4807 834.296 26.2717C835.454 24.3833 836.425 22.3941 837.195 20.3304L837.793 20.5699Z" fill="white"/>
<path d="M837.402 20.0371C836.542 21.7293 835.537 23.3494 834.397 24.8805C835.344 23.2539 836.15 21.5547 836.806 19.8003L837.402 20.0371Z" fill="white"/>
<path d="M837.011 19.5044C836.239 20.9567 835.353 22.3501 834.361 23.6724C835.161 22.2526 835.849 20.7765 836.418 19.2568L837.011 19.5044Z" fill="white"/>
<path d="M836.622 18.9716C835.898 20.2734 835.079 21.5242 834.171 22.7144C834.888 21.426 835.51 20.0897 836.029 18.7159L836.622 18.9716Z" fill="white"/>
<path d="M836.247 18.4953C835.549 19.6871 834.759 20.8275 833.885 21.9072C834.571 20.7262 835.165 19.4976 835.66 18.2316L836.247 18.4953Z" fill="white"/>
<path d="M835.89 18.0837C835.142 19.2579 834.301 20.3744 833.374 21.4229C834.118 20.2696 834.768 19.0623 835.317 17.8119L835.89 18.0837Z" fill="white"/>
<path d="M834.417 18.5571C834.531 18.4683 834.635 18.3715 834.738 18.2881C834.886 18.2692 835.037 18.2531 835.185 18.2396C834.906 18.6809 834.584 19.1061 834.26 19.5204C833.793 20.1205 833.301 20.699 832.82 21.2856C833.212 20.6398 833.617 20.0021 833.989 19.3509C834.136 19.0854 834.279 18.8208 834.417 18.5571Z" fill="white"/>
<path d="M837.852 22.1332C837.416 23.6143 836.796 25.0391 836.004 26.3766C835.223 27.7 834.35 28.972 833.393 30.184C834.258 28.9182 835.034 27.5986 835.716 26.234C836.391 24.8819 836.893 23.4562 837.212 21.9879L837.852 22.1332Z" fill="white"/>
<path d="M832.667 32.4981C833.092 31.9922 833.505 31.4783 833.894 30.9509C834.498 30.1436 835.071 29.3068 835.593 28.4404C836.124 27.576 836.591 26.6768 836.991 25.7496C837.39 24.8116 837.696 23.8395 837.905 22.8463L837.268 22.7413C837.116 23.7093 836.871 24.6615 836.535 25.5855C836.196 26.5161 835.789 27.4224 835.317 28.2978C834.85 29.1777 834.324 30.036 833.768 30.8728C833.407 31.411 833.025 31.9492 832.628 32.4873L832.667 32.4981Z" fill="white"/>
<path d="M833.55 32.8937C834.128 32.1455 834.664 31.3677 835.154 30.5635C836.496 28.403 837.441 26.0365 837.95 23.5675L837.31 23.4652C836.92 25.8994 836.099 28.2512 834.883 30.4182C834.426 31.2405 833.924 32.039 833.38 32.8103L833.55 32.8937Z" fill="white"/>
<path d="M834.252 33.2676C834.417 33.0281 834.581 32.7913 834.741 32.5465C835.554 31.2926 836.24 29.9662 836.79 28.5857C837.342 27.1947 837.741 25.7517 837.98 24.2804L837.338 24.1997C837.157 25.6377 836.821 27.0536 836.334 28.4242C835.844 29.8004 835.217 31.1278 834.461 32.3877C834.313 32.638 834.157 32.8828 834 33.1277L834.252 33.2676Z" fill="white"/>
</svg>
