<svg width="1920" height="436" viewBox="0 0 1920 436" fill="none" xmlns="http://www.w3.org/2000/svg">
<g clip-path="url(#clip0_327_2)">
<path fill-rule="evenodd" clip-rule="evenodd" d="M-21.0642 435L-4.12232 368.731L8.08991 360.86L16.7003 318.739L33.8726 161.945L35.9828 156.887L73.8807 133.334L83.3885 135.348L82.9277 159.264V178.5L85.6927 130.448L104.429 94.1479L131.534 90L135.56 109.126L138.447 109.999L131.68 242.731H135.912L138.35 408.209L140.727 412.102L172.706 427.869L176.163 435H-21.0642Z" fill="url(#paint0_linear_327_2)"/>
<g style="mix-blend-mode:soft-light">
<path fill-rule="evenodd" clip-rule="evenodd" d="M131.534 90L113.064 114.754V135.493H116.52L135.56 109.126L131.534 90Z" fill="#FFCF9D"/>
</g>
<g style="mix-blend-mode:soft-light">
<path fill-rule="evenodd" clip-rule="evenodd" d="M135.912 242.731L98.3778 291.086L63.3662 402.593L110.044 322.668L124.318 308.806L56.017 417.717L51.6997 435L98.3778 432.405L138.35 408.209L135.912 242.731Z" fill="#FFCF9D"/>
</g>
<path fill-rule="evenodd" clip-rule="evenodd" d="M140.727 412.102L98.3779 434.175L172.706 427.869L140.727 412.102Z" fill="#CF7F6C"/>
<path fill-rule="evenodd" clip-rule="evenodd" d="M-4.12231 368.731L59.4856 333.001L38.7357 360.86L-4.12231 368.731Z" fill="#CF7F6C"/>
<path fill-rule="evenodd" clip-rule="evenodd" d="M113.064 114.754L85.6926 130.448L104.429 94.1479L131.534 90L113.064 114.754Z" fill="#CF7F6C"/>
<path fill-rule="evenodd" clip-rule="evenodd" d="M135.56 109.126L116.521 135.493H119.334L138.447 109.999L135.56 109.126Z" fill="#CF7F6C"/>
<path fill-rule="evenodd" clip-rule="evenodd" d="M58.0425 158.682L35.9829 156.887L73.8808 133.334L83.3887 135.348L58.0425 158.682Z" fill="#CF7F6C"/>
<path fill-rule="evenodd" clip-rule="evenodd" d="M131.68 242.731L98.3779 259.25V291.086L135.912 242.731H131.68Z" fill="#CF7F6C"/>
<path fill-rule="evenodd" clip-rule="evenodd" d="M8.08984 360.86L43.9261 333.002L57.3147 306.647L77.5552 338.872L59.4855 333.002L8.08984 360.86Z" fill="#4E223B"/>
<path opacity="0.5" fill-rule="evenodd" clip-rule="evenodd" d="M85.6927 130.448L84.2859 149.307L86.5537 184.625L113.064 158.682L119.334 135.493H113.064V114.754L85.6927 130.448Z" fill="#4E223B"/>
<path fill-rule="evenodd" clip-rule="evenodd" d="M91.344 259.25L98.3778 251.172L121.711 225.242L124.318 224.672L98.3778 259.25V291.086L84.2859 299.976L91.344 259.25Z" fill="#4E223B"/>
<path fill-rule="evenodd" clip-rule="evenodd" d="M38.7357 360.86L23.1763 412.102L38.7357 379.101L23.1763 435H-21.0642L-4.12232 368.731L38.7357 360.86Z" fill="#4E223B"/>
<path opacity="0.5" fill-rule="evenodd" clip-rule="evenodd" d="M87.6938 202.247L108.613 191.853L107.207 199.288L87.997 207.11L87.6938 202.247Z" fill="#4E223B"/>
<path opacity="0.5" fill-rule="evenodd" clip-rule="evenodd" d="M88.8701 220.633H103.144L89.1248 224.672L88.8701 220.633Z" fill="#4E223B"/>
<path opacity="0.5" fill-rule="evenodd" clip-rule="evenodd" d="M57.3148 169.052L31.3987 184.625L22.376 266.915L51.6999 249.887L57.3148 169.052Z" fill="#4E223B"/>
<g style="mix-blend-mode:soft-light">
<path fill-rule="evenodd" clip-rule="evenodd" d="M138.447 110L119.334 135.493L98.3779 245.702V251.172L121.711 225.242L124.318 224.672L98.3779 259.25L131.68 242.731L138.447 110Z" fill="#FFCF9D"/>
</g>
<g style="mix-blend-mode:soft-light">
<path fill-rule="evenodd" clip-rule="evenodd" d="M83.3885 135.348L91.344 259.25L77.5552 338.872L57.3147 306.647V216.74L49.1045 287.193L58.0423 158.682L83.3885 135.348Z" fill="#FFCF9D"/>
</g>
<path fill-rule="evenodd" clip-rule="evenodd" d="M49.1045 287.193L13.7776 333.001L56.8539 282.875L57.3147 216.74L49.1045 287.193Z" fill="#4E223B"/>
<g style="mix-blend-mode:soft-light">
<path fill-rule="evenodd" clip-rule="evenodd" d="M-21.0642 435L-9.72515 390.647L3.53003 388.767L-0.738793 416.274L2.7175 422.035L16.3244 364.972L28.9611 362.655L8.08991 435H-21.0642Z" fill="#8B90A1"/>
</g>
<g style="mix-blend-mode:soft-light">
<path fill-rule="evenodd" clip-rule="evenodd" d="M113.064 114.754V135.493H119.334L105.715 207.11H101.81L110.578 149.683L101.81 154.365L88.87 217.977L84.2859 149.307L85.6927 130.448L113.064 114.754Z" fill="#8B90A1"/>
</g>
<g style="mix-blend-mode:soft-light">
<path fill-rule="evenodd" clip-rule="evenodd" d="M58.0425 158.682L54.6711 207.11L43.9263 242.731L35.5463 247.146L33.5453 207.11L28.9369 259.25L22.376 269.037L33.6665 163.861L40.2032 164.455L58.0425 158.682Z" fill="#8B90A1"/>
</g>
<g style="mix-blend-mode:soft-light">
<path fill-rule="evenodd" clip-rule="evenodd" d="M59.4855 333.001L59.6796 398.834L42.8226 435H23.1763L38.7356 379.101V360.86L59.4855 333.001Z" fill="#FFCF9D"/>
</g>
<path fill-rule="evenodd" clip-rule="evenodd" d="M50.6689 158.088L63.1358 153.989L57.6664 164.104L50.6689 158.088Z" fill="#A15556"/>
<path fill-rule="evenodd" clip-rule="evenodd" d="M109.644 116.718L115.502 111.491L113.064 118.962L109.644 116.718Z" fill="#A15556"/>
<path fill-rule="evenodd" clip-rule="evenodd" d="M28.9609 362.655L38.7356 365.639L43.2955 354.735L28.9609 362.655Z" fill="#A15556"/>
<g style="mix-blend-mode:color-dodge" opacity="0.15">
<path fill-rule="evenodd" clip-rule="evenodd" d="M134.578 185.886L105.327 209.148H88.1304L57.2057 233.174H55.4109L52.3548 235.551L25.2017 242.731V239.65L52.5609 234.193L55.7262 230.457L57.1087 231.767L87.997 207.11L106.152 203.132L134.893 179.579L134.578 185.886Z" fill="#B89C7E"/>
</g>
<g style="mix-blend-mode:color-dodge" opacity="0.15">
<path fill-rule="evenodd" clip-rule="evenodd" d="M135.56 166.493L109.644 186.468H87.6938L55.2046 199.482H29.7615L30.7438 187.572H55.811L87.6938 181.095L112.567 171.065L136.506 148.021L135.56 166.493Z" fill="#B85E3D"/>
</g>
<g style="mix-blend-mode:color-dodge" opacity="0.15">
<path fill-rule="evenodd" clip-rule="evenodd" d="M134.372 189.815L104.745 212.204L88.4213 211.161L57.1449 241.057L54.6709 239.505L52.3182 241.057L24.6921 244.95V247.473L52.015 245.46L54.295 242.731H57.1328L88.87 212.75L104.187 215.163L113.282 208.857L133.802 201.18L134.372 189.815Z" fill="#B89C7E"/>
</g>
<g style="mix-blend-mode:color-dodge" opacity="0.15">
<path fill-rule="evenodd" clip-rule="evenodd" d="M137.78 369.119L57.8484 414.806L52.9126 413.351L27.6756 418.845L-18.9419 426.704L-20.0576 431.07L27.0692 421.028L52.1728 414.94L57.3148 417.426L101.689 392.066L137.913 378.519L137.78 369.119Z" fill="#B85E3D"/>
</g>
<g style="mix-blend-mode:color-dodge" opacity="0.15">
<path fill-rule="evenodd" clip-rule="evenodd" d="M138.022 386.062L106.37 393.4L55.3138 420.531L50.475 418.566L26.4871 423.139L10.9035 425.273L-20.3608 431.604L-21.0642 435L8.19906 434.636L25.0682 428.305L46.1819 427.796L53.3006 428.596L138.35 400.095L137.913 398.834L53.3249 427.335L55.047 422.144L108.104 395.886L138.083 389.944L138.022 386.062Z" fill="#B89C7E"/>
</g>
<g style="mix-blend-mode:soft-light" opacity="0.5">
<path fill-rule="evenodd" clip-rule="evenodd" d="M135.912 242.731L105.861 283.882L85.9839 345.688L92.3265 343.517L107.74 296.411L98.378 331.134L109.183 317.308L129.485 294.215L135.912 242.731Z" fill="#C47A5F"/>
</g>
<g style="mix-blend-mode:soft-light" opacity="0.5">
<path fill-rule="evenodd" clip-rule="evenodd" d="M120.85 319.612L88.6519 371.472H95.0308L137.561 354.735L136.858 306.647L120.85 319.612Z" fill="#C47A5F"/>
</g>
<g style="mix-blend-mode:soft-light" opacity="0.5">
<path fill-rule="evenodd" clip-rule="evenodd" d="M137.27 317.016L107.304 348.708L89.3674 364.547L124.318 308.806L136.628 291.086L137.27 317.016Z" fill="#C47A5F"/>
</g>
<g style="mix-blend-mode:soft-light" opacity="0.69">
<path fill-rule="evenodd" clip-rule="evenodd" d="M57.6665 164.104L59.6918 255.854L64.4457 259.25V205.291L70.2304 199.482L73.5291 297.563L85.9838 263.858L75.9424 142.212L63.1359 153.989L57.6665 164.104Z" fill="#C47A5F"/>
</g>
<path fill-rule="evenodd" clip-rule="evenodd" d="M82.0908 391.205V388.609L88.6517 384.001L91.344 384.874L82.0908 391.205Z" fill="#D6794F"/>
<path fill-rule="evenodd" clip-rule="evenodd" d="M88.6519 378.094L91.3441 374.347H95.0308L93.9151 376.227L90.4467 378.094H88.6519Z" fill="#D6794F"/>
<path d="M122.572 411.544H120.122V412.636H122.572V411.544Z" fill="#D6794F"/>
<path fill-rule="evenodd" clip-rule="evenodd" d="M96.2192 325.227V321.043H98.3779L97.4684 327.811L96.2192 325.227Z" fill="#D6794F"/>
<path fill-rule="evenodd" clip-rule="evenodd" d="M41.428 370.284L44.7873 365.639L43.2956 369.119L41.428 370.284Z" fill="#D6794F"/>
<path fill-rule="evenodd" clip-rule="evenodd" d="M49.8685 356.13L49.1045 353.971L49.8685 352.564L50.9478 356.13H49.8685Z" fill="#D6794F"/>
<path fill-rule="evenodd" clip-rule="evenodd" d="M63.4754 306.647L62.1777 302.754L62.8326 299.297L64.2394 306.647H63.4754Z" fill="#D6794F"/>
<path fill-rule="evenodd" clip-rule="evenodd" d="M81.1936 297.563L81.9576 296.047L82.9278 296.811L82.0668 299.297L81.1936 297.563Z" fill="#D6794F"/>
<path fill-rule="evenodd" clip-rule="evenodd" d="M138.35 118.962L134.372 127.501V143.704L136.506 148.022L138.35 118.962Z" fill="#D6794F"/>
<path fill-rule="evenodd" clip-rule="evenodd" d="M131.534 146.008L129.703 148.022V153.989L131.534 146.008Z" fill="#D6794F"/>
<path fill-rule="evenodd" clip-rule="evenodd" d="M119.334 106.349L124.318 103.729V99.6663L119.334 106.349Z" fill="#D6794F"/>
<path fill-rule="evenodd" clip-rule="evenodd" d="M56.5871 179.579L57.6664 189.815L55.2046 199.482L56.5871 179.579Z" fill="#D6794F"/>
<path fill-rule="evenodd" clip-rule="evenodd" d="M83.1338 229.341L80.0535 233.598L81.5936 240.087L83.1338 238.571V229.341Z" fill="#D6794F"/>
<path fill-rule="evenodd" clip-rule="evenodd" d="M134.893 173.758L124.318 188.251L134.893 179.579V173.758Z" fill="#D6794F"/>
<path fill-rule="evenodd" clip-rule="evenodd" d="M118.412 193.09H115.502L110.602 199.482L118.412 193.09Z" fill="#D6794F"/>
<path fill-rule="evenodd" clip-rule="evenodd" d="M104.308 388.246L109.389 381.624L126.028 374.347L133.28 371.691L104.308 388.246Z" fill="#D6794F"/>
<path fill-rule="evenodd" clip-rule="evenodd" d="M137.913 378.519L111.912 388.246L107.837 389.774L117.151 390.902L138.022 386.063L137.913 378.519Z" fill="#D6794F"/>
<g style="mix-blend-mode:multiply" opacity="0.46">
<path fill-rule="evenodd" clip-rule="evenodd" d="M133.802 201.18L113.282 208.857L104.187 215.163L88.8701 212.75L57.1328 242.731H54.295L52.0151 245.46L24.6922 247.473L24.2556 249.268L51.6998 246.673L54.5133 243.968L57.3147 244.405L88.8701 217.977H103.144L113.319 210.154L133.584 205.352L133.802 201.18Z" fill="#DE895F"/>
</g>
<path fill-rule="evenodd" clip-rule="evenodd" d="M152.32 434.139C152.32 434.139 159.318 393.667 160.664 388.949C162.022 384.231 183.233 344.281 183.233 344.281L190 338.859L184.809 347.131C184.809 347.131 169.02 383.297 163.829 398.53C158.639 413.763 152.32 434.127 152.32 434.127V434.139Z" fill="url(#paint1_linear_327_2)"/>
<path fill-rule="evenodd" clip-rule="evenodd" d="M154.127 435C154.127 435 170.596 414.018 176.235 402.957C181.875 391.896 184.809 371.666 184.809 371.666C184.809 371.666 173.749 394.152 167.892 404.995C162.034 415.837 152.32 434.151 152.32 434.151L154.127 435.012V435Z" fill="url(#paint2_linear_327_2)"/>
<path fill-rule="evenodd" clip-rule="evenodd" d="M150.283 435C150.283 435 153.218 396.19 152.308 387.615C151.411 379.04 148.925 361.43 148.925 361.43C148.925 361.43 156.953 385.735 157.05 396.299C157.147 406.862 154.115 435.012 154.115 435.012H150.283V435Z" fill="url(#paint3_linear_327_2)"/>
<path fill-rule="evenodd" clip-rule="evenodd" d="M157.062 435C157.062 435 167.443 421.683 171.166 418.979L161.125 435H157.062Z" fill="url(#paint4_linear_327_2)"/>
<path fill-rule="evenodd" clip-rule="evenodd" d="M150.283 435C150.283 435 141.272 417.402 140.023 405.443C140.023 405.443 153.218 427.335 154.115 435H150.283Z" fill="url(#paint5_linear_327_2)"/>
<path fill-rule="evenodd" clip-rule="evenodd" d="M179.752 350.866L177.242 357.707L176.672 359.514V361.418L177.667 363.807L184.81 347.143L190 338.871L183.233 344.281L179.752 350.866Z" fill="#814A10"/>
<path fill-rule="evenodd" clip-rule="evenodd" d="M175.01 362.97V364.547L172.561 367.943V366.936L173.216 364.547L175.01 362.97Z" fill="#814A10"/>
<path fill-rule="evenodd" clip-rule="evenodd" d="M180.407 380.556L174.719 391.872L177.569 388.258V393.085L179.777 394.031C179.777 394.031 183.536 382.242 184.822 371.678L180.407 380.568V380.556Z" fill="#814A10"/>
<path fill-rule="evenodd" clip-rule="evenodd" d="M176.163 394.019L175.011 394.698V396.323V398.809L176.163 394.019Z" fill="#814A10"/>
<path fill-rule="evenodd" clip-rule="evenodd" d="M148.937 361.418L150.817 375.39L151.095 377.415H152.32L152.999 379.95L155.68 386.038C155.68 386.038 151.629 366.803 148.937 361.406V361.418Z" fill="#814A10"/>
<path fill-rule="evenodd" clip-rule="evenodd" d="M153 382.849V386.511L154.127 388.246L155.68 390.902L153 382.849Z" fill="#814A10"/>
</g>
<g clip-path="url(#clip1_327_2)">
<path fill-rule="evenodd" clip-rule="evenodd" d="M1864.25 436.712L1861.62 425.975L1845.06 374.337L1831.86 361.756L1842.92 363.723L1834.49 301L1853.96 381.878L1874.96 368.62L1856.98 388.599L1866.56 418.803L1887.6 389.152L1881.79 355.117L1892.09 383.272L1935.2 339.503L1881.69 411.426L1899.83 415.053L1879.49 419.09L1872.27 425.975L1869.58 435.954L1864.25 436.712Z" fill="url(#paint6_linear_327_2)"/>
<path fill-rule="evenodd" clip-rule="evenodd" d="M1910.15 364.952L1918.28 362.268L1921.31 358.19L1914.17 360.854L1910.15 364.952Z" fill="#B57C15"/>
<path fill-rule="evenodd" clip-rule="evenodd" d="M1902.02 373.21L1916.26 364.953L1917.39 363.457L1902.02 373.21Z" fill="#B57C15"/>
<path fill-rule="evenodd" clip-rule="evenodd" d="M1840.34 344.564L1846.19 349.605L1841.78 331.306L1838.33 329.544L1840.34 344.564Z" fill="#B57C15"/>
<path fill-rule="evenodd" clip-rule="evenodd" d="M1831.86 361.756L1838.33 367.924L1840.01 363.19L1831.86 361.756Z" fill="#B57C15"/>
<path fill-rule="evenodd" clip-rule="evenodd" d="M1852.32 375.096L1850.76 383.231L1853.96 381.878L1852.32 375.096Z" fill="#B57C15"/>
<path fill-rule="evenodd" clip-rule="evenodd" d="M1858.15 392.288L1853.96 400.812L1854.99 405.32L1858.54 393.538L1858.15 392.288Z" fill="#B57C15"/>
<path fill-rule="evenodd" clip-rule="evenodd" d="M1883.99 367.924L1885.4 364.953L1881.79 355.117L1883.99 367.924Z" fill="#B57C15"/>
<path fill-rule="evenodd" clip-rule="evenodd" d="M1889.92 413.065L1885.4 417.922L1899.83 415.053L1889.92 413.065Z" fill="#B57C15"/>
<path fill-rule="evenodd" clip-rule="evenodd" d="M1675.36 78.6201C1675.36 78.6201 1891.25 69.0713 1955.68 35.4045C1955.68 35.4045 1742.48 30.6096 1675.36 78.6201Z" fill="url(#paint7_linear_327_2)"/>
<path fill-rule="evenodd" clip-rule="evenodd" d="M1568.51 181.977L1808.18 157.756L1763.31 156.035L2000.54 125.544L1975.94 124.479L2088 102.431C2088 102.431 1996.38 74.4603 1826.41 87.3287C1656.44 100.197 1568.51 181.956 1568.51 181.956V181.977Z" fill="url(#paint8_linear_327_2)"/>
<path fill-rule="evenodd" clip-rule="evenodd" d="M1961.84 96.2423L1922.79 133.167L1918.85 134.212L1898.62 163.494L1893.65 167.777L1850.21 204.455L1813.07 211.873C1813.07 211.873 1781.24 251.462 1767.59 283.387C1767.59 283.387 1761.52 345.557 1774.12 368.015L1785.78 373.691L1802.87 434.713H1744.45C1744.45 434.713 1736.81 301.214 1738.76 286.543C1738.76 286.461 1738.76 286.379 1738.8 286.297C1739.71 280.477 1754.36 261.687 1770.53 242.425L1764.8 249.187L1770.53 233.84L1756.66 203.759L1717.93 147.941L1693.45 130.319L1670.64 87.6771H1672.77L1695.92 128.393L1720.6 145.359V137.696L1705.99 78.2102L1707.61 76.1406L1715.47 107.963L1717.79 80.5052L1720.6 82.124L1717.09 111.488L1724.95 142.122L1723.74 149.478L1762.46 204.025L1763.31 210.644L1775.33 230.479L1779.93 231.34C1797.8 210.521 1814.71 191.976 1814.71 191.976L1816.1 188.247L1805.54 167.736L1802.27 163.248L1763.06 93.6604H1765.85L1793.92 142.122L1796.34 137.675L1817.54 96.7751H1821.28L1796.67 145.913L1805.82 161.342L1821.28 184.518L1832.75 171.895L1844.87 137.962L1840.28 128.966L1844.87 103.004L1840.28 96.4062L1842.41 95.2178L1846.41 102.492L1842.06 129.315L1848.65 137.614L1874.67 74.6243H1877.42L1850.72 141.773L1845.53 145.564L1834.43 176.383L1825.65 186.69L1821.6 196.116L1811.9 205.808L1850.17 198.431L1888.05 168.781L1893.04 123.434L1898.58 96.0989L1899.85 96.4267L1894.18 123.905L1892.4 166.014L1896.4 162.449L1917.41 132.675L1914.19 114.91L1917.41 81.6732L1919.26 81.2019L1915.57 115.483L1919.26 130.872L1923.55 128.618L1959.95 95.0538L1961.8 96.2013L1961.84 96.2423Z" fill="url(#paint9_linear_327_2)"/>
<path fill-rule="evenodd" clip-rule="evenodd" d="M1568.51 181.977C1568.51 181.977 1687.75 149.232 1743.75 139.909L1709.28 129.725C1709.28 129.725 1792.03 113.516 1873.29 114.807C1873.29 114.807 1799.32 131.63 1760.62 145.032C1760.62 145.032 1872.1 125.626 1939.92 123.536L1931 129.11L2000.58 125.545L1946.02 123.188C1946.02 123.188 2045.24 94.1932 2088.04 102.431C2088.04 102.431 1981.83 47.8015 1871.47 49.9736L1955.73 35.4045C1955.73 35.4045 1852.71 -57.9732 1675.4 78.6201L1696.82 74.235L1628.75 103.967L1656.48 100.197C1656.48 100.197 1611.06 120.688 1568.55 181.977H1568.51Z" fill="url(#paint10_linear_327_2)"/>
<path fill-rule="evenodd" clip-rule="evenodd" d="M1628.71 103.967L1646.46 105.668L1656.44 100.197L1748.28 80.0544C1748.28 80.0544 1665.48 89.2959 1628.71 103.947V103.967Z" fill="url(#paint11_linear_327_2)"/>
<g style="mix-blend-mode:soft-light">
<path fill-rule="evenodd" clip-rule="evenodd" d="M1760.62 145.052C1760.62 145.052 1834.12 122.287 1873.29 114.828C1912.47 107.369 2032.59 100.668 2032.59 100.668C2032.59 100.668 1915.67 122.86 1760.62 145.032V145.052Z" fill="#C7A631"/>
</g>
<path fill-rule="evenodd" clip-rule="evenodd" d="M1901.26 1C1901.26 1 1924.55 5.3441 1933.93 21.4501L1901.26 1Z" fill="#927431"/>
<path fill-rule="evenodd" clip-rule="evenodd" d="M1638.97 166.916C1638.97 166.916 1671.48 150.933 1701.37 155.564C1701.37 155.564 1658.69 156.978 1638.97 166.916Z" fill="#657431"/>
<path fill-rule="evenodd" clip-rule="evenodd" d="M1629.72 117.123C1629.72 117.123 1581.45 119.295 1579.5 140.216C1579.5 140.216 1614.12 119.336 1629.72 117.123Z" fill="#655931"/>
<path fill-rule="evenodd" clip-rule="evenodd" d="M1711.51 53.2112C1711.51 53.2112 1733.18 23.5607 1744.28 26.327L1711.51 53.2112Z" fill="#655931"/>
<path opacity="0.5" fill-rule="evenodd" clip-rule="evenodd" d="M1955.68 35.4249L1805.7 53.2111L1828.25 44.318L1675.36 78.6405L1692.12 76.4685C1692.12 76.4685 1818.2 50.3219 1871.43 49.9941L1955.68 35.4249V35.4249Z" fill="#4E3B18"/>
<path opacity="0.5" fill-rule="evenodd" clip-rule="evenodd" d="M1709.28 129.745L1663.27 125.77L1787.66 115.012L1727.89 100.689L1916.26 109.316L1873.27 114.828C1873.27 114.828 1770.59 117.123 1709.25 129.745H1709.28Z" fill="#4E3B18"/>
<path opacity="0.7" fill-rule="evenodd" clip-rule="evenodd" d="M1766.71 434.734L1750.87 384.469L1764.09 434.734H1744.49C1744.49 434.734 1736.85 301.235 1738.8 286.563L1741.02 292.096L1749.41 342.729L1743.2 328.283L1758.57 385.064L1756.66 374.142L1751.63 351.151L1802.93 434.713H1766.75L1766.71 434.734Z" fill="#4E223B"/>
<path fill-rule="evenodd" clip-rule="evenodd" d="M1768.17 347.79L1756.64 296.05L1757.58 258.265L1760.62 300.354L1768.17 347.79Z" fill="#4E223B"/>
<path fill-rule="evenodd" clip-rule="evenodd" d="M1770.57 233.84L1762.4 258.265V294.923L1760.45 254.699L1770.57 233.84Z" fill="#4E223B"/>
<path fill-rule="evenodd" clip-rule="evenodd" d="M1779.93 231.401L1767.61 283.387L1773.77 238.553L1775.35 230.541L1779.93 231.401Z" fill="#4E223B"/>
<path fill-rule="evenodd" clip-rule="evenodd" d="M1814.71 192.038L1789.65 220.193L1783.95 238.676L1774.55 269.166L1813.09 211.894L1787.79 246.114L1782.86 253.593L1790.91 222.201L1802.89 207.775L1789.98 235.151L1814.71 192.038Z" fill="#4E223B"/>
<path fill-rule="evenodd" clip-rule="evenodd" d="M1749.41 342.75L1764.25 371.765L1785.8 373.711L1774.14 368.015L1749.41 342.75Z" fill="#9F5E3B"/>
<path fill-rule="evenodd" clip-rule="evenodd" d="M1756.64 296.05L1757.44 263.675L1749.41 305.886L1774.14 368.015L1767.27 340.659L1756.64 296.05Z" fill="#9F5E3B"/>
<path fill-rule="evenodd" clip-rule="evenodd" d="M1782.86 253.593L1789.98 235.151L1816.1 188.309L1811.96 205.849L1813.09 211.894L1782.86 253.593Z" fill="#9F5E3B"/>
<path fill-rule="evenodd" clip-rule="evenodd" d="M1850.23 204.476V198.472L1893.67 167.777L1850.23 204.476Z" fill="#9F5E3B"/>
</g>
<g clip-path="url(#clip2_327_2)">
<path fill-rule="evenodd" clip-rule="evenodd" d="M1467.62 434.65L1464.41 416.8L1446.05 409.83L1430.53 430.89L1423.97 428.61L1415 434.65H1467.62Z" fill="url(#paint12_linear_327_2)"/>
<g style="mix-blend-mode:soft-light">
<path fill-rule="evenodd" clip-rule="evenodd" d="M1446.05 409.83L1448.84 432.74L1467.62 434.65L1464.41 416.8L1446.05 409.83Z" fill="#FFCF9D"/>
</g>
<path fill-rule="evenodd" clip-rule="evenodd" d="M1446.05 409.83L1464.41 416.8L1459.83 410.24L1446.05 409.83Z" fill="#CF7F6C"/>
<path fill-rule="evenodd" clip-rule="evenodd" d="M1423.97 428.61L1424.63 429.32L1427.81 432.74L1437.55 434.46L1430.53 430.89L1423.97 428.61Z" fill="#CF7F6C"/>
<path fill-rule="evenodd" clip-rule="evenodd" d="M1438.47 420.12L1447.87 424.73L1448.7 431.53L1436.91 422.24L1438.47 420.12Z" fill="#4E223B"/>
<path fill-rule="evenodd" clip-rule="evenodd" d="M1442.54 414.6L1446.9 416.8L1446.63 414.6L1443.49 413.31L1442.54 414.6Z" fill="#4E223B"/>
<g style="mix-blend-mode:color-dodge" opacity="0.15">
<path fill-rule="evenodd" clip-rule="evenodd" d="M1465.85 424.8L1442.54 414.6L1438.47 420.12L1447.87 424.73L1466.36 427.68L1465.85 424.8Z" fill="#B89C7E"/>
</g>
<path fill-rule="evenodd" clip-rule="evenodd" d="M1443.49 413.31L1447.2 419.2L1457.99 414.36L1446.05 409.83L1443.49 413.31Z" fill="#B26860"/>
<path fill-rule="evenodd" clip-rule="evenodd" d="M1446.05 417.39H1451.23L1447.2 419.2L1446.05 417.39Z" fill="#C8938D"/>
<path fill-rule="evenodd" clip-rule="evenodd" d="M1459.58 426.83L1461 428.61H1466.53L1466.36 427.68L1459.58 426.83Z" fill="#D6794F"/>
<path fill-rule="evenodd" clip-rule="evenodd" d="M1458.83 421.73L1459.58 421.39L1463.05 423.58L1458.83 421.73Z" fill="#D6794F"/>
<path fill-rule="evenodd" clip-rule="evenodd" d="M1476.09 434.52L1487.51 394.74L1513.59 390L1551.69 409.3L1554.44 412.26L1566.49 433.57L1476.09 434.52Z" fill="url(#paint13_linear_327_2)"/>
<g style="mix-blend-mode:soft-light">
<path fill-rule="evenodd" clip-rule="evenodd" d="M1487.51 394.74L1495.2 430.55L1495.94 401.7L1510.92 434.46L1566.49 433.57L1554.44 412.26L1504.53 408.81L1487.51 394.74Z" fill="#FFCF9D"/>
</g>
<path fill-rule="evenodd" clip-rule="evenodd" d="M1487.51 394.74L1504.53 408.81L1554.44 412.26L1551.69 409.3L1513.59 390L1487.51 394.74Z" fill="#CF7F6C"/>
<path fill-rule="evenodd" clip-rule="evenodd" d="M1495.45 420.84L1508.66 429.53L1503.94 419.2L1495.71 410.71L1495.45 420.84Z" fill="#4E223B"/>
<g style="mix-blend-mode:color-dodge" opacity="0.15">
<path fill-rule="evenodd" clip-rule="evenodd" d="M1560.03 422.13L1508.66 429.53L1495.32 425.83H1494.18L1479.2 423.68L1478.05 427.68H1494.58L1495.45 428.61L1509.58 431.53L1561.53 424.8L1560.03 422.13Z" fill="#B89C7E"/>
</g>
<g style="mix-blend-mode:multiply" opacity="0.46">
<path fill-rule="evenodd" clip-rule="evenodd" d="M1561.53 424.8L1509.58 431.53L1495.45 428.61L1478.05 427.68L1476.95 431.53L1495.2 430.55L1510.92 434.46L1564.72 430.43L1561.53 424.8Z" fill="#DE895F"/>
</g>
<path fill-rule="evenodd" clip-rule="evenodd" d="M1495.94 401.7L1513.11 409.4L1503.94 419.2L1495.94 401.7Z" fill="#B26860"/>
<path fill-rule="evenodd" clip-rule="evenodd" d="M1509.58 407.82L1517.41 409.7L1512.13 410.45L1509.58 407.82Z" fill="#C8938D"/>
<path fill-rule="evenodd" clip-rule="evenodd" d="M1557 416.77L1552.23 421.14V426L1561.53 424.8L1557 416.77Z" fill="#D6794F"/>
<path fill-rule="evenodd" clip-rule="evenodd" d="M1520.98 427.75L1525.44 424.36L1538.09 422.44L1541.5 424.8L1520.98 427.75Z" fill="#D6794F"/>
<path fill-rule="evenodd" clip-rule="evenodd" d="M1518.47 428.11L1517.41 426.83L1514.57 427.75L1513.5 428.83L1518.47 428.11Z" fill="#D6794F"/>
<path fill-rule="evenodd" clip-rule="evenodd" d="M1521.29 418.29L1522.88 416.77L1525.38 418.61L1521.29 418.29Z" fill="#D6794F"/>
</g>
<g clip-path="url(#clip3_327_2)">
<path fill-rule="evenodd" clip-rule="evenodd" d="M1630 434.241L1650.04 365.941L1712.44 328H1716.4L1706.68 352.151L1712.73 388.079L1714.64 397.884L1713.69 374.005L1730.87 360.824L1738.51 363.162L1778.92 420.231L1776.69 425.747L1783.69 423.492L1806.92 439.579H1731.51L1650.04 437.912L1630 434.241Z" fill="url(#paint14_linear_327_2)"/>
<g style="mix-blend-mode:soft-light">
<path fill-rule="evenodd" clip-rule="evenodd" d="M1706.68 352.151L1673.12 391.256L1682.34 383.706L1660.79 434.828L1722.79 439.579L1712.73 388.079L1706.68 352.151Z" fill="#FFCF9D"/>
</g>
<g style="mix-blend-mode:soft-light">
<path fill-rule="evenodd" clip-rule="evenodd" d="M1738.51 363.162L1727.84 385.761L1726.1 439.474L1737.19 439.579L1736.4 405.581L1740.54 431.053L1767.53 427.907L1778.92 420.231L1738.51 363.162Z" fill="#FFCF9D"/>
</g>
<g style="mix-blend-mode:soft-light">
<path fill-rule="evenodd" clip-rule="evenodd" d="M1783.69 423.492L1751.28 436.894L1767.49 433.843L1751.28 439.579H1806.92L1783.69 423.492Z" fill="#FFCF9D"/>
</g>
<path fill-rule="evenodd" clip-rule="evenodd" d="M1650.04 365.941L1674.47 369.077L1695.56 365.102L1706.68 352.151L1716.4 328H1712.44L1650.04 365.941Z" fill="#CF7F6C"/>
<path fill-rule="evenodd" clip-rule="evenodd" d="M1730.87 360.824L1713.69 374.005L1727.84 385.761L1738.51 363.162L1730.87 360.824Z" fill="#CF7F6C"/>
<path fill-rule="evenodd" clip-rule="evenodd" d="M1723.31 381.996L1731.08 378.903L1727.19 396.887L1723.31 381.996Z" fill="#B26860"/>
<path fill-rule="evenodd" clip-rule="evenodd" d="M1674.47 369.076L1673.12 391.256L1695.56 365.102L1674.47 369.076Z" fill="#B26860"/>
<path fill-rule="evenodd" clip-rule="evenodd" d="M1673.12 391.256L1630 434.241L1675.56 397.947L1682.34 383.706L1673.12 391.256Z" fill="#4E223B"/>
<path fill-rule="evenodd" clip-rule="evenodd" d="M1714.42 392.221L1727.19 402.875L1726.1 439.474L1721.86 434.828L1714.64 397.884L1714.42 392.221Z" fill="#4E223B"/>
<path opacity="0.5" fill-rule="evenodd" clip-rule="evenodd" d="M1713.91 379.542L1727.19 396.887L1725.13 389.001L1713.69 376.826L1713.91 379.542Z" fill="#4E223B"/>
<g style="mix-blend-mode:soft-light">
<path fill-rule="evenodd" clip-rule="evenodd" d="M1650.04 365.941L1633.81 421.258L1639.57 418.417L1656.17 381.818L1659.07 380.832L1650.04 404.511L1659.07 403.788L1673.12 378.179L1674.47 369.076L1650.04 365.941Z" fill="#8B90A1"/>
</g>
<g style="mix-blend-mode:soft-light">
<path fill-rule="evenodd" clip-rule="evenodd" d="M1713.69 374.005L1714.42 392.221L1727.19 402.876V396.888L1723.31 381.996L1713.69 374.005Z" fill="#8B90A1"/>
</g>
<g style="mix-blend-mode:soft-light" opacity="0.5">
<path fill-rule="evenodd" clip-rule="evenodd" d="M1706.68 352.151L1721.22 431.536L1706.68 374.498L1702.18 378.892V410.017L1684.34 427.907L1682.34 383.706L1706.68 352.151Z" fill="#C47A5F"/>
</g>
<g style="mix-blend-mode:soft-light" opacity="0.5">
<path fill-rule="evenodd" clip-rule="evenodd" d="M1738.51 363.162L1747.64 376.071L1735.71 369.077L1738.51 363.162Z" fill="#C47A5F"/>
</g>
<g style="mix-blend-mode:soft-light" opacity="0.5">
<path fill-rule="evenodd" clip-rule="evenodd" d="M1740.54 431.053L1735.71 388.876L1752.51 421.259H1757.61L1746.66 396.887L1767.53 427.907L1740.54 431.053Z" fill="#C47A5F"/>
</g>
<path fill-rule="evenodd" clip-rule="evenodd" d="M1716.4 328L1720.81 369.077L1713.69 374.005L1714.64 397.884L1711.54 382.321L1706.68 352.151L1716.4 328Z" fill="#B26860"/>
<path fill-rule="evenodd" clip-rule="evenodd" d="M1713.69 374.005L1711.99 383.706L1714.64 397.884L1713.69 374.005Z" fill="url(#paint15_linear_327_2)"/>
<path fill-rule="evenodd" clip-rule="evenodd" d="M1701.78 357.866L1711.59 339.955L1707.19 354.909L1701.78 357.866Z" fill="#C8938D"/>
<path fill-rule="evenodd" clip-rule="evenodd" d="M1691.79 366.119L1697.42 362.942L1694.76 367.598L1691.79 366.119Z" fill="#C8938D"/>
<path fill-rule="evenodd" clip-rule="evenodd" d="M1728.67 379.867L1733.86 373.009L1730.45 381.818L1728.67 379.867Z" fill="#C8938D"/>
<g style="mix-blend-mode:color-dodge" opacity="0.15">
<path fill-rule="evenodd" clip-rule="evenodd" d="M1755.29 386.852L1737.94 415.051L1736.58 413.509L1726.78 416.634L1718.15 415.848L1666.8 420.556L1653.1 415.848L1643.03 421.259H1633.81L1632.8 424.709L1640.78 423.492L1651.89 417.693L1665.05 424.709L1718.46 417.431L1726.82 419.612L1735.71 415.848L1738.51 418.564L1758.82 391.843L1755.29 386.852Z" fill="#B89C7E"/>
</g>
<g style="mix-blend-mode:color-dodge" opacity="0.15">
<path fill-rule="evenodd" clip-rule="evenodd" d="M1753.82 384.796L1736.62 406.976L1727.01 408.979L1717.7 412.313L1668.79 415.847L1655.11 414.243L1646.45 417.85L1634.58 418.626L1635 417.211L1647.56 416.623L1658.57 411.485L1669.46 414.243L1717.12 411.233L1726.93 407.049L1735.71 405.581L1752.82 383.38L1753.82 384.796Z" fill="#B89C7E"/>
</g>
<g style="mix-blend-mode:multiply" opacity="0.46">
<path fill-rule="evenodd" clip-rule="evenodd" d="M1752.82 383.381L1749.14 378.179L1735.71 402.875L1727.16 404.071L1716.55 408.245L1670.81 411.045L1660.79 409.965L1655.35 408.979L1651.18 413.132H1636.2L1635 417.211L1647.56 416.624L1658.57 411.485L1669.46 414.243L1717.12 411.233L1726.93 407.049L1735.71 405.581L1752.82 383.381Z" fill="#DE895F"/>
</g>
<path fill-rule="evenodd" clip-rule="evenodd" d="M1717.98 342.765L1714.64 354.909L1718.46 347.233L1717.98 342.765Z" fill="#D6794F"/>
<path fill-rule="evenodd" clip-rule="evenodd" d="M1702.18 384.209L1699.1 385.939V393.93L1702.18 387.324V384.209Z" fill="#D6794F"/>
<path fill-rule="evenodd" clip-rule="evenodd" d="M1673.73 407.29L1675.5 402.875L1676.07 404.239L1674.47 407.29H1673.73Z" fill="#D6794F"/>
<path fill-rule="evenodd" clip-rule="evenodd" d="M1675.33 407.29L1676.52 405.78L1677.15 406.535L1676.07 407.647L1675.33 407.29Z" fill="#D6794F"/>
<path fill-rule="evenodd" clip-rule="evenodd" d="M1701.78 404.417V403.463H1702.7V405.088L1701.78 404.417Z" fill="#D6794F"/>
<path fill-rule="evenodd" clip-rule="evenodd" d="M1681.46 414.935H1689.7L1694.55 413.991L1681.46 414.935Z" fill="#D6794F"/>
<path fill-rule="evenodd" clip-rule="evenodd" d="M1695.56 417.913L1696.2 416.802L1697.91 415.848L1700.64 417.211L1695.56 417.913Z" fill="#D6794F"/>
<path fill-rule="evenodd" clip-rule="evenodd" d="M1701.78 415.848L1702.7 415.365H1703.89L1702.84 416.498L1701.78 415.848Z" fill="#D6794F"/>
<path fill-rule="evenodd" clip-rule="evenodd" d="M1706.23 430.435L1707.03 429.48L1708.17 429.952L1707.89 433.423L1705.09 432.71L1706.23 430.435Z" fill="#D6794F"/>
<path fill-rule="evenodd" clip-rule="evenodd" d="M1762.08 396.447L1761.09 403.463L1764.05 406.818L1769.41 410.94L1771.65 409.964L1762.08 396.447Z" fill="#D6794F"/>
<path fill-rule="evenodd" clip-rule="evenodd" d="M1759.6 401.376L1758.82 402.875V405.088L1759.6 405.78V401.376Z" fill="#D6794F"/>
<path fill-rule="evenodd" clip-rule="evenodd" d="M1676.55 359.377L1676.15 360.625L1677.24 361.453H1678.15L1676.55 359.377Z" fill="#D6794F"/>
<path fill-rule="evenodd" clip-rule="evenodd" d="M1756.3 414.464L1753.5 416.886L1754.53 417.914L1756.3 414.464Z" fill="#D6794F"/>
<path fill-rule="evenodd" clip-rule="evenodd" d="M1773.75 418.627L1774.89 417.914V416.498L1773.75 418.627Z" fill="#D6794F"/>
<path opacity="0.5" fill-rule="evenodd" clip-rule="evenodd" d="M1711.99 383.706L1706.63 438.342L1722.79 439.579L1711.99 383.706Z" fill="#4E223B"/>
</g>
<g clip-path="url(#clip4_327_2)">
<path fill-rule="evenodd" clip-rule="evenodd" d="M357.04 377.44L296.01 351.45L290.96 378.72L297.46 416.25L283.93 414.63L268 428.98L269.56 434.67H436.23L426.19 410.39L385.86 387.22L376.28 391.84L372.82 399.17L357.04 377.44Z" fill="url(#paint16_linear_327_2)"/>
<g style="mix-blend-mode:soft-light">
<path fill-rule="evenodd" clip-rule="evenodd" d="M296.01 351.45L321.34 408.35L315.38 379.09L331.11 418.02L353.13 429.07L383.7 428.26L372.82 399.17L357.04 377.44L320.62 348L296.01 351.45Z" fill="#FFCF9D"/>
</g>
<g style="mix-blend-mode:soft-light">
<path fill-rule="evenodd" clip-rule="evenodd" d="M283.93 414.63L268 428.98L312.59 431.52L297.46 416.25L283.93 414.63Z" fill="#FFCF9D"/>
</g>
<g style="mix-blend-mode:soft-light">
<path fill-rule="evenodd" clip-rule="evenodd" d="M376.28 391.84L397.45 432.65L404.56 433.19L401.12 418.89L411.21 431.52L435.05 431.82L426.19 410.39L385.86 387.22L376.28 391.84Z" fill="#FFCF9D"/>
</g>
<path fill-rule="evenodd" clip-rule="evenodd" d="M376.28 391.84L387.22 410.2L426.19 410.39L385.86 387.22L376.28 391.84Z" fill="#CF7F6C"/>
<path fill-rule="evenodd" clip-rule="evenodd" d="M283.93 414.63L285.72 430.09L312.59 431.52L297.46 416.25L283.93 414.63Z" fill="#CF7F6C"/>
<path fill-rule="evenodd" clip-rule="evenodd" d="M296.01 351.45L302.57 366.19L357.04 377.44L320.62 348L296.01 351.45Z" fill="#CF7F6C"/>
<path opacity="0.5" fill-rule="evenodd" clip-rule="evenodd" d="M302.57 366.19L291.6 382.43L293.44 393.06L303.97 369.32L302.57 366.19Z" fill="#4E223B"/>
<path opacity="0.5" fill-rule="evenodd" clip-rule="evenodd" d="M305.56 372.92L294.17 397.27L296.45 410.39L314.53 393.06L305.56 372.92Z" fill="#4E223B"/>
<path fill-rule="evenodd" clip-rule="evenodd" d="M331.11 418.02L312.59 431.52L289.12 435.03L370.05 434.32L353.13 429.07L331.11 418.02Z" fill="#4E223B"/>
<path fill-rule="evenodd" clip-rule="evenodd" d="M321.34 408.35L311.02 429.07L327.3 408.58L315.38 379.09L321.34 408.35Z" fill="#4E223B"/>
<path fill-rule="evenodd" clip-rule="evenodd" d="M383.7 428.26L382.83 434.67H396.71L397.45 432.65L379.07 397.21L374.66 404.08L383.7 428.26Z" fill="#4E223B"/>
<path fill-rule="evenodd" clip-rule="evenodd" d="M300.37 362.24L311.02 367.8L307.82 377.98L300.37 362.24Z" fill="#B26860"/>
<path fill-rule="evenodd" clip-rule="evenodd" d="M384.21 406.92L394.95 410.2L390.1 418.89L384.21 406.92Z" fill="#B26860"/>
<path fill-rule="evenodd" clip-rule="evenodd" d="M307.94 366.19L316.92 369.15H310.6L307.94 366.19Z" fill="#C8938D"/>
<path fill-rule="evenodd" clip-rule="evenodd" d="M394.95 410.2L401.24 410.27L393.65 412.52L394.95 410.2Z" fill="#C8938D"/>
<path fill-rule="evenodd" clip-rule="evenodd" d="M283 429.83L285.55 428.58L296.01 430.64L283 429.83Z" fill="#C8938D"/>
<path fill-rule="evenodd" clip-rule="evenodd" d="M329.35 371.72L341.73 372.92L357.04 377.44L329.35 371.72Z" fill="#C8938D"/>
<g style="mix-blend-mode:soft-light" opacity="0.5">
<path fill-rule="evenodd" clip-rule="evenodd" d="M324.72 370.76L343.19 414.63L360.07 416.7L339.85 384.06L344.05 382.82L364.86 414.63L379.38 416.7L372.82 399.17L357.04 377.44L324.72 370.76Z" fill="#C47A5F"/>
</g>
<g style="mix-blend-mode:soft-light" opacity="0.5">
<path fill-rule="evenodd" clip-rule="evenodd" d="M426.19 410.39L425.95 431.71L435.05 431.82L426.19 410.39Z" fill="#C47A5F"/>
</g>
<g style="mix-blend-mode:soft-light" opacity="0.5">
<path fill-rule="evenodd" clip-rule="evenodd" d="M411.21 431.52L397.45 411.4L401.24 410.27L407.76 410.39L415.96 431.58L411.21 431.52Z" fill="#C47A5F"/>
</g>
<g style="mix-blend-mode:soft-light">
<path fill-rule="evenodd" clip-rule="evenodd" d="M297.46 416.25L290.96 378.72L300.89 408.35L306.58 411.4L302.57 366.19L321.34 408.35L311.02 429.07L297.46 416.25Z" fill="#8B90A1"/>
</g>
<path fill-rule="evenodd" clip-rule="evenodd" d="M331.11 418.02L361.63 428.84L353.13 429.07L331.11 418.02Z" fill="#7C4760"/>
<g style="mix-blend-mode:color-dodge" opacity="0.15">
<path fill-rule="evenodd" clip-rule="evenodd" d="M367.6 391.98L318.84 387.64L317.6 389.98L312.17 387.76L293.44 393.06L294.17 398.81L314.53 393.06L318.37 393.73L320.17 390.94L368.73 393.53L367.6 391.98Z" fill="#B89C7E"/>
</g>
<g style="mix-blend-mode:color-dodge" opacity="0.15">
<path fill-rule="evenodd" clip-rule="evenodd" d="M371.4 397.21H322.7L319.38 398.72L316.57 397.63L295.54 405.15L295.35 404.08L316.11 396.6L319.16 397.63L321.94 395.52H370.17L371.4 397.21Z" fill="#B89C7E"/>
</g>
<g style="mix-blend-mode:multiply" opacity="0.46">
<path fill-rule="evenodd" clip-rule="evenodd" d="M294.17 398.81L295.35 404.08L316.11 396.6L319.16 397.63L321.94 395.52H370.17L368.73 393.53L320.17 390.94L318.37 393.73L314.53 393.06L294.17 398.81Z" fill="#DE895F"/>
</g>
<g style="mix-blend-mode:color-dodge" opacity="0.15">
<path fill-rule="evenodd" clip-rule="evenodd" d="M379.38 416.7L329.58 412.91L314.53 421.11L305.69 424.56L284.68 421.11L274.56 423.08L272.63 424.81L284.7 421.89L307.02 425.9L315.82 421.89L329.74 414.63L380.2 418.89L379.38 416.7Z" fill="#B89C7E"/>
</g>
<g style="mix-blend-mode:color-dodge" opacity="0.15">
<path fill-rule="evenodd" clip-rule="evenodd" d="M431 423.08L407.89 427.36L411.21 431.52L432.86 426.53L431 423.08Z" fill="#B89C7E"/>
</g>
<path fill-rule="evenodd" clip-rule="evenodd" d="M358.7 379.72L360.07 388.03L367.6 391.98L358.7 379.72Z" fill="#D6794F"/>
<path fill-rule="evenodd" clip-rule="evenodd" d="M334.43 397.3L341.73 398.81L346.37 397.21L334.43 397.3Z" fill="#D6794F"/>
<path fill-rule="evenodd" clip-rule="evenodd" d="M348.84 395.52L351.06 393.73L359.89 393.06L361.63 395.52H348.84Z" fill="#D6794F"/>
<path fill-rule="evenodd" clip-rule="evenodd" d="M332.17 410.2V406.92L333.38 410.39L332.17 412.52V410.2Z" fill="#D6794F"/>
<path fill-rule="evenodd" clip-rule="evenodd" d="M341.95 406.92L346.37 411.36L348.84 410.39L350.15 409.14L341.95 406.92Z" fill="#D6794F"/>
<path fill-rule="evenodd" clip-rule="evenodd" d="M346.37 405.15L347.42 406.92L350.15 406.03L346.37 405.15Z" fill="#D6794F"/>
<path fill-rule="evenodd" clip-rule="evenodd" d="M333.38 375.45L334.43 377.98H337.32L336.01 374.58L333.38 375.45Z" fill="#D6794F"/>
<path fill-rule="evenodd" clip-rule="evenodd" d="M395.88 418.02V421.11L398.73 423.08L395.88 418.02Z" fill="#D6794F"/>
<path fill-rule="evenodd" clip-rule="evenodd" d="M416.79 413.28H420.38L422.73 418.02H419.76L416.79 413.28Z" fill="#D6794F"/>
<path fill-rule="evenodd" clip-rule="evenodd" d="M413.82 411.36L416.79 415.94H415.3L412.15 412.52L413.82 411.36Z" fill="#D6794F"/>
</g>
<defs>
<linearGradient id="paint0_linear_327_2" x1="77.5553" y1="436.455" x2="77.5553" y2="141.497" gradientUnits="userSpaceOnUse">
<stop stop-color="#4F2C3B"/>
<stop offset="0.97" stop-color="#723747"/>
</linearGradient>
<linearGradient id="paint1_linear_327_2" x1="171.154" y1="434.139" x2="171.154" y2="338.872" gradientUnits="userSpaceOnUse">
<stop stop-color="#5B5902"/>
<stop offset="0.97" stop-color="#927F10"/>
</linearGradient>
<linearGradient id="paint2_linear_327_2" x1="168.559" y1="435" x2="168.559" y2="371.666" gradientUnits="userSpaceOnUse">
<stop stop-color="#797E18"/>
<stop offset="0.97" stop-color="#927F10"/>
</linearGradient>
<linearGradient id="paint3_linear_327_2" x1="153" y1="435" x2="153" y2="361.418" gradientUnits="userSpaceOnUse">
<stop stop-color="#797E18"/>
<stop offset="0.97" stop-color="#A17F10"/>
</linearGradient>
<linearGradient id="paint4_linear_327_2" x1="157.062" y1="426.995" x2="171.154" y2="426.995" gradientUnits="userSpaceOnUse">
<stop stop-color="#797E18"/>
<stop offset="0.97" stop-color="#927F10"/>
</linearGradient>
<linearGradient id="paint5_linear_327_2" x1="140.023" y1="420.216" x2="154.127" y2="420.216" gradientUnits="userSpaceOnUse">
<stop stop-color="#797E18"/>
<stop offset="0.97" stop-color="#927F10"/>
</linearGradient>
<linearGradient id="paint6_linear_327_2" x1="1883.53" y1="437.286" x2="1883.53" y2="321.266" gradientUnits="userSpaceOnUse">
<stop offset="0.03" stop-color="#9C5E3B"/>
<stop offset="1" stop-color="#742747"/>
</linearGradient>
<linearGradient id="paint7_linear_327_2" x1="1818.04" y1="70.4654" x2="1816.29" y2="40.1889" gradientUnits="userSpaceOnUse">
<stop stop-color="#424227"/>
<stop offset="0.95" stop-color="#362E18"/>
</linearGradient>
<linearGradient id="paint8_linear_327_2" x1="1831.48" y1="166.815" x2="1826.87" y2="87.1142" gradientUnits="userSpaceOnUse">
<stop stop-color="#424243"/>
<stop offset="0.95" stop-color="#362E18"/>
</linearGradient>
<linearGradient id="paint9_linear_327_2" x1="1816.25" y1="436.25" x2="1816.25" y2="128.413" gradientUnits="userSpaceOnUse">
<stop offset="0.02" stop-color="#974C31"/>
<stop offset="1" stop-color="#4F2C3B"/>
</linearGradient>
<linearGradient id="paint10_linear_327_2" x1="1831.48" y1="166.815" x2="1822.19" y2="6.00208" gradientUnits="userSpaceOnUse">
<stop offset="0.01" stop-color="#5B592E"/>
<stop offset="0.96" stop-color="#816A1F"/>
</linearGradient>
<linearGradient id="paint11_linear_327_2" x1="1690.23" y1="103.154" x2="1689.1" y2="83.4745" gradientUnits="userSpaceOnUse">
<stop stop-color="#424227"/>
<stop offset="0.95" stop-color="#362E18"/>
</linearGradient>
<linearGradient id="paint12_linear_327_2" x1="1441.31" y1="434.75" x2="1441.31" y2="413.53" gradientUnits="userSpaceOnUse">
<stop stop-color="#4F2C3B"/>
<stop offset="0.97" stop-color="#723747"/>
</linearGradient>
<linearGradient id="paint13_linear_327_2" x1="1521.29" y1="434.7" x2="1521.29" y2="396.64" gradientUnits="userSpaceOnUse">
<stop stop-color="#4F2C3B"/>
<stop offset="0.97" stop-color="#723747"/>
</linearGradient>
<linearGradient id="paint14_linear_327_2" x1="1718.46" y1="440.051" x2="1718.46" y2="344.653" gradientUnits="userSpaceOnUse">
<stop stop-color="#4F2C3B"/>
<stop offset="0.97" stop-color="#723747"/>
</linearGradient>
<linearGradient id="paint15_linear_327_2" x1="1713.32" y1="397.978" x2="1713.32" y2="377.571" gradientUnits="userSpaceOnUse">
<stop stop-color="#4F2C3B"/>
<stop offset="0.97" stop-color="#723747"/>
</linearGradient>
<linearGradient id="paint16_linear_327_2" x1="352.11" y1="435.02" x2="352.11" y2="363.87" gradientUnits="userSpaceOnUse">
<stop stop-color="#4F2C3B"/>
<stop offset="0.97" stop-color="#723747"/>
</linearGradient>
<clipPath id="clip0_327_2">
<rect width="240" height="345" fill="white" transform="translate(-50 90)"/>
</clipPath>
<clipPath id="clip1_327_2">
<rect width="519.535" height="434" fill="white" transform="translate(1568.51)"/>
</clipPath>
<clipPath id="clip2_327_2">
<rect width="151.49" height="44.65" fill="white" transform="translate(1415 390)"/>
</clipPath>
<clipPath id="clip3_327_2">
<rect width="176.92" height="106" fill="white" transform="translate(1630 328)"/>
</clipPath>
<clipPath id="clip4_327_2">
<rect width="168.23" height="87.03" fill="white" transform="translate(268 348)"/>
</clipPath>
</defs>
</svg>
