<svg width="280" height="80" viewBox="0 0 280 80" fill="none" xmlns="http://www.w3.org/2000/svg">
<path fill-rule="evenodd" clip-rule="evenodd" d="M6.72833 1.69798C50.6021 0.566414 95.7962 -0.0220023 139.721 0.000629082C183.518 0.000629082 229.042 0.589045 272.992 1.74325C274.338 1.99219 277.461 4.02902 278.02 5.27374C278.273 6.45058 278.477 7.71793 278.68 9.00792C278.73 9.30213 272.738 8.89477 267.381 10.5016C269.996 10.4337 278.908 10.6374 278.934 11.0221C279.67 16.861 279.975 23.6957 280 30.802C279.645 30.7114 274.11 30.4851 269.565 32.2277C271.088 32.273 279.467 32.454 280 32.5672C279.924 47.4587 278.629 63.3912 277.182 74.2316C276.42 75.4084 273.627 77.5131 272.307 78.011C189.637 80.7268 76.0428 80.591 7.69314 78.0337C6.11897 77.4226 3.45303 75.2274 2.86906 74.2995C1.7519 66.9217 0.888647 57.7559 0.406239 48.1829C0.380849 47.6623 2.18353 46.4855 6.90606 45.535C4.87486 45.3992 0.279289 45.6934 0.279289 45.2408C0.10156 40.805 0 36.3693 0 32.024C0 31.5714 3.65615 31.2998 4.46863 31.2998C3.14835 30.9151 0 29.8288 0 29.4214C0.10156 20.5047 0.634748 12.0405 1.72651 5.20585C2.41204 4.05165 5.15415 2.26377 6.70294 1.72061L6.72833 1.69798Z" fill="url(#paint0_linear_0_18518)"/>
<path fill-rule="evenodd" clip-rule="evenodd" d="M1.68397 44.5055C6.24684 44.5055 10.6323 44.7559 14.9923 45.2112C14.0544 45.2112 13.1418 45.2112 12.2039 45.2567C8.75641 45.5299 3.96541 46.3039 1.91212 47.4649C2.64725 56.0245 3.73726 64.1061 5.00472 70.8445C5.63845 71.6868 8.40152 73.6901 9.97317 74.2592C96.1859 75.9211 182.728 75.9211 268.941 74.2592C270.284 73.8267 273.124 71.8917 273.909 70.8445C275.912 60.236 277.458 46.1901 277.864 32.3035C273.859 32.2352 269.879 32.2807 265.924 32.3945C266.634 32.1896 267.344 31.9847 268.054 31.7799C272.084 30.5961 274.416 30.1863 277.94 30.1408C278.067 23.4707 277.94 16.8916 277.433 10.8133C270.842 10.4719 264.86 10.654 259.181 11.1776C265.823 9.44745 270.766 8.24091 277.205 8.17261C277.103 7.14819 276.977 6.14653 276.875 5.16764C276.394 3.93833 273.453 1.95778 272.11 1.70737C183.768 -0.569124 95.2733 -0.569124 6.90592 1.70737C5.38496 2.25373 2.74864 4.02939 2.14026 5.16764C1.25304 12.202 0.923498 20.1242 1.02489 28.2513C3.73726 30.7099 13.5221 30.7099 19.4031 31.962C13.5474 32.0075 7.53965 32.2807 1.10094 32.6677C1.22769 36.6288 1.43048 40.6127 1.73467 44.5282H1.68397V44.5055Z" fill="url(#paint1_radial_0_18518)"/>
<g style="mix-blend-mode:multiply" opacity="0.5">
<path fill-rule="evenodd" clip-rule="evenodd" d="M248.241 2.57147C247.354 3.66377 245.554 4.80159 242.739 5.71185H242.764C239.721 6.69037 234.548 7.73716 227.854 9.07979C222.833 10.0811 217.001 11.2644 210.687 12.6753L210.383 12.7436C204.475 14.0862 198.262 15.4743 192.05 16.4984C187.358 17.2721 182.642 17.8182 178.078 17.9775C173.463 18.1368 168.974 17.8865 164.74 17.0218C159.719 15.9977 154.546 14.0179 150.286 11.6513C145.95 9.23908 142.527 6.41729 141.132 3.82307C140.954 3.52724 140.828 3.20865 140.752 2.89006C140.498 1.9798 140.549 1.00128 140.853 0H144.302C143.034 4.00512 146.736 6.9862 152.01 10.1266C155.789 12.3567 160.708 14.8144 165.145 15.7702C168.898 16.5894 172.879 16.8397 176.987 16.6804C181.121 16.5211 185.381 15.975 189.666 15.224C195.872 14.1284 202.211 12.4497 208.535 10.7749C213.245 9.52765 217.947 8.28253 222.58 7.28204C223.32 7.1215 224.039 6.96616 224.738 6.81541C229.882 5.70541 233.875 4.84388 236.197 3.98236C239.468 2.77628 239.519 1.775 238.124 0.955767C239.924 0.989902 241.718 1.02973 243.512 1.06955C245.306 1.10937 247.1 1.1492 248.901 1.18333C248.825 1.63846 248.622 2.11634 248.241 2.57147ZM276.591 10.7865C276.87 10.8093 277.149 10.832 277.428 10.832L277.605 10.8093C277.681 11.8788 277.757 12.9484 277.833 14.0407C259.424 12.1064 237.186 16.2708 213.679 21.4365C185.431 27.649 171.459 29.5378 143.135 20.7083C134.793 18.1141 119.325 11.8333 118.234 6.03044C117.854 4.02788 118.462 2.04807 119.857 0.0227564H126.019C124.802 1.86602 124.624 3.57275 124.929 5.27948C125.385 7.73716 127.921 10.2176 133.094 12.9939C147.015 20.4352 162.381 23.8942 178.052 23.9625C189.132 24.0043 199.482 22.1399 210.287 20.1936L210.288 20.1933L210.289 20.1931L210.308 20.1898L210.317 20.188L210.323 20.1871L210.329 20.1859L210.337 20.1845L210.357 20.1809L210.357 20.1809C211.275 20.0155 212.196 19.8496 213.121 19.6843C219.608 18.52 225.486 17.2641 231.075 16.0699C240.998 13.9497 250.011 12.024 259.906 11.1506C260.061 11.1399 260.222 11.1241 260.386 11.1081L260.386 11.108C260.57 11.09 260.758 11.0716 260.945 11.0596C261.3 11.0141 261.655 10.9913 262.01 10.9686L263.076 10.9003C263.194 10.8927 263.312 10.8826 263.43 10.8725L263.431 10.8725C263.667 10.8523 263.904 10.832 264.141 10.832C264.318 10.832 264.496 10.8207 264.673 10.8093C264.851 10.7979 265.028 10.7865 265.206 10.7865L265.277 10.7822C265.63 10.761 265.963 10.741 266.296 10.741C266.651 10.6955 267.031 10.6955 267.386 10.6955H267.412C267.767 10.6727 268.147 10.6727 268.502 10.6727H268.527H269.618H269.643H270.759H270.784H271.9H271.925H273.066C273.447 10.6955 273.852 10.6955 274.233 10.6955C274.613 10.7182 275.019 10.741 275.399 10.741H275.425C275.612 10.741 275.799 10.752 275.989 10.7632C276.185 10.7748 276.385 10.7865 276.591 10.7865ZM178.23 11.0368C179.954 10.8775 181.704 10.65 183.428 10.3086L183.377 10.3314C185.127 9.99004 186.826 9.53492 188.423 8.9205C189.539 8.51088 190.579 7.94197 191.517 7.28204C192.506 6.59935 193.368 5.80287 194.103 4.96089C194.661 4.32371 195.168 3.52724 195.422 2.70801C195.65 1.95705 195.701 1.18333 195.422 0.455127V0.364102C194.615 0.356481 193.811 0.346308 193.009 0.336147C191.414 0.315967 189.823 0.295833 188.221 0.295833C189.666 1.79775 189.641 3.57275 186.877 5.5298C183.428 7.96473 176.303 8.82947 171.84 8.69293C167.123 8.55639 162.812 7.23652 160.201 3.82307C159.465 2.8673 158.781 1.68397 158.806 0.523396C158.806 0.404278 158.825 0.28516 158.847 0.150932L158.847 0.15067L158.857 0.0910255H156.955V0.341345C156.93 1.18333 157.132 2.02532 157.487 2.82179C157.842 3.59551 158.299 4.32371 158.806 4.98364C159.339 5.66633 159.972 6.30351 160.682 6.89518C161.443 7.53236 162.28 8.10127 163.167 8.62466C164.004 9.10255 164.866 9.55767 165.779 9.92177C166.743 10.2859 167.732 10.6045 168.771 10.7638C170.293 11.0141 171.865 11.1506 173.463 11.1961C175.06 11.2416 176.658 11.1734 178.23 11.0368ZM277.96 22.3468C255.174 21.6581 237.35 24.1695 220.8 26.5015L220.799 26.5016C217.661 26.9437 214.57 27.3794 211.499 27.7855C169.101 33.3381 155.155 33.8842 112.681 18.9105C104.795 16.1115 98.5062 12.5388 95.0323 9.80799C92.0908 7.48684 91.6598 4.23268 94.5759 1.775C95.1084 1.34263 95.793 0.796473 96.6044 0.227564C95.5648 0.227564 94.5251 0.238942 93.4855 0.25032C92.4458 0.261698 91.4062 0.273076 90.3665 0.273076L90.3663 0.273219C90.1636 0.432466 89.9608 0.591713 89.7833 0.75096C88.9212 1.47916 88.2365 2.36666 87.7801 3.27692C87.3236 4.20993 87.1208 5.18845 87.1715 6.14422C87.2222 7.05447 87.5519 7.96473 88.0844 8.80671C88.6422 9.71697 89.4283 10.5362 90.3158 11.2644C94.1955 14.3365 101.828 17.6362 110.424 20.6855C122.824 25.0775 137.328 28.9689 145.214 30.7666C160.981 34.3715 168.445 33.7604 184.244 32.4669L184.721 32.4278C194.017 31.6777 202.858 30.5188 211.875 29.3368L211.904 29.333C231.075 26.807 251.056 24.19 277.986 25.1458V22.3923L277.96 22.3468ZM275.12 32.314H276.388L276.464 32.2913H277.96C277.935 33.2926 277.91 34.2938 277.859 35.2724C252.336 34.7043 227.622 37.4035 202.657 40.1302L202.547 40.1422C200.706 40.3438 198.821 40.5588 196.904 40.7775C184.751 42.1637 171.324 43.6954 159.694 42.8502C147.164 41.9339 132.92 37.3177 120.362 33.2477C117.952 32.4664 115.603 31.7052 113.34 30.9942C111.19 30.3195 109.042 29.6422 106.895 28.9651L106.89 28.9635L106.889 28.9632L106.889 28.9629L106.888 28.9626L106.887 28.9625C100.203 26.8541 93.5259 24.7483 86.7911 22.7336C86.3521 22.6019 85.8788 22.4606 85.3751 22.3101C75.174 19.2635 52.4698 12.4828 47.5887 6.28076C46.194 4.50576 45.8897 2.66249 47.3097 0.819229C48.8565 0.796473 50.4033 0.768027 51.9501 0.739582C53.4969 0.711136 55.0437 0.682691 56.5905 0.659935C51.8233 3.93685 53.5984 7.30479 65.5924 12.3112C72.8368 15.3477 81.5653 17.9181 86.9698 19.5095C87.8836 19.7786 88.7024 20.0198 89.403 20.2304C95.7597 22.1414 103.103 24.6402 110.788 27.2557L110.789 27.2557C127.814 33.0495 146.522 39.4158 159.922 41.2345C170.151 42.6427 182.138 41.0909 193.251 39.6523L193.251 39.6522L193.254 39.6519C196.327 39.254 199.334 38.8648 202.218 38.5493C207.421 37.976 212.615 37.3538 217.81 36.7315L217.81 36.7314C233.855 34.8092 249.905 32.8864 266.245 32.4051C266.676 32.3596 267.082 32.3596 267.513 32.3596C267.944 32.3368 268.35 32.3368 268.781 32.3368H270.049C270.886 32.314 271.748 32.314 272.585 32.314H273.852H275.12ZM277.605 39.0727C269.266 39.202 260.993 39.6015 252.678 40.003L252.673 40.0033L252.67 40.0034L252.668 40.0035L252.666 40.0036L252.663 40.0037L252.661 40.0038L252.658 40.004C250.741 40.0966 248.821 40.1893 246.898 40.2788C234.798 40.8627 223.326 42.7529 211.912 44.6336C192.636 47.8098 173.525 50.9588 151.833 47.7429C140.402 46.0418 131.124 43.3273 120.019 40.0783C116.713 39.1111 113.246 38.0966 109.511 37.0474C89.6819 31.4721 69.6242 26.1698 49.4144 21.5048C45.0645 20.4986 40.1765 19.6031 35.167 18.6853C25.1078 16.8423 14.5582 14.9095 6.89011 11.8106C4.22759 10.741 2.52864 9.67146 1.64114 8.64742C1.51435 9.99004 1.38756 11.3782 1.31149 12.7663C1.89471 13.0394 2.50329 13.3125 3.11186 13.5628C11.2817 16.8705 22.3301 18.8918 32.8884 20.8233C38.0927 21.7754 43.178 22.7058 47.7408 23.7576C68.7367 28.6275 89.5551 34.1118 110.145 39.9147C127.185 44.7163 139.179 47.9249 151.478 49.4496C163.776 50.9743 176.277 50.7695 194.23 48.7214C199.777 48.0874 205.307 47.3531 210.836 46.6187C222.772 45.0336 234.708 43.4484 246.821 42.873C257.015 42.3723 267.209 42.2358 277.402 42.1903C277.478 41.1663 277.529 40.1422 277.58 39.0954L277.605 39.0727ZM65.7445 41.3711C41.3508 34.4531 23.9049 33.4746 1.05792 34.5897V34.5442H1.08327C1.07456 34.3174 1.06286 34.0934 1.05124 33.8711C1.02905 33.4464 1.0072 33.0281 1.0072 32.6099C1.15935 32.6099 1.31149 32.5985 1.46363 32.5871L1.46379 32.5871C1.61588 32.5757 1.76797 32.5644 1.92007 32.5644C2.35114 32.5416 2.78222 32.5188 3.18793 32.4961H3.23865C3.66972 32.4733 4.07544 32.4506 4.48116 32.4278L5.69831 32.3596H5.77439C5.89359 32.3524 6.01529 32.3431 6.1387 32.3336L6.13908 32.3335C6.40932 32.3127 6.68775 32.2913 6.96618 32.2913H6.99154C7.12677 32.2837 7.262 32.2736 7.39723 32.2635C7.66772 32.2432 7.93821 32.223 8.20869 32.223H8.23405C8.43684 32.223 8.63963 32.2116 8.84242 32.2003L8.84263 32.2003L8.84283 32.2002C9.04562 32.1889 9.24841 32.1775 9.4512 32.1775C9.85692 32.1547 10.2626 32.132 10.6684 32.132C11.0741 32.1092 11.4798 32.0865 11.8855 32.0865L11.9529 32.0827L11.9531 32.0827C12.3337 32.0612 12.6942 32.041 13.0773 32.041H13.1027L13.1741 32.0369C13.5532 32.0156 13.9111 31.9954 14.2691 31.9954H14.3198C14.7002 31.9727 15.1059 31.9727 15.4863 31.9727C15.8666 31.9499 16.2723 31.9499 16.6527 31.9499H16.7034H17.8445H17.8952H19.0616C34.3521 31.8362 48.5776 33.2926 66.5053 38.39C75.5578 40.9615 82.9875 42.782 92.4458 44.1018C101.143 45.3079 109.308 47.0602 117.854 48.9034C132.384 52.0666 146.837 55.1842 161.976 55.5255C174.214 55.8063 187.549 54.0372 200.398 52.3325L200.398 52.3325L200.398 52.3324C205.253 51.6884 210.038 51.0535 214.668 50.5419L215.043 50.5009C235.076 48.3072 254.998 46.1257 277.149 45.8996L276.921 48.6986C254.885 48.9489 234.98 51.1336 214.973 53.3409C212.495 53.6122 209.977 53.8979 207.429 54.1869C192.452 55.886 176.466 57.6994 161.925 57.3688C144.752 56.9875 130.98 54.2913 116.735 51.5025C108.873 49.9633 100.867 48.3959 92.0655 47.1739C82.455 45.8313 74.9239 43.9881 65.7445 41.3711ZM2.70615 44.5342H4.1008C4.55723 44.5342 5.03902 44.5342 5.49545 44.5797C5.95189 44.5797 6.43368 44.6025 6.89011 44.6252C7.19824 44.6252 7.51793 44.646 7.83357 44.6665C7.98549 44.6763 8.13646 44.6861 8.28476 44.6935C8.7412 44.7163 9.19763 44.739 9.65406 44.7845C9.8823 44.7959 10.1105 44.813 10.3388 44.83C10.567 44.8471 10.7952 44.8642 11.0234 44.8756C11.2516 44.8983 11.4798 44.9154 11.7079 44.9324C11.9362 44.9495 12.1644 44.9666 12.3927 44.9893C12.8491 45.0348 13.3055 45.0804 13.762 45.1031C13.9395 45.1259 14.117 45.1429 14.2945 45.16C14.472 45.1771 14.6495 45.1941 14.827 45.2169C23.3528 46.0866 31.6487 47.6484 40.4062 49.297C48.605 50.8405 57.2085 52.4602 66.7842 53.6595C93.0291 56.9592 121.734 60.5547 146.381 62.2387C162.356 63.331 179.396 61.8063 195.295 60.2133C200.863 59.656 206.467 59.0175 212.061 58.3802L212.062 58.3801L212.062 58.3801L212.063 58.38L212.063 58.38L212.063 58.3799L212.077 58.3783C213.102 58.2616 214.126 58.1449 215.15 58.0287C235.081 55.7531 254.555 53.5457 276.363 53.4547C276.464 52.5444 276.566 51.6342 276.642 50.7239C254.581 50.7922 234.954 53.0223 214.846 55.3207C211.288 55.7271 207.551 56.1828 203.7 56.6525L203.699 56.6526C184.904 58.9448 163.377 61.5702 146.584 60.4181C130.25 59.2836 112.113 56.6809 94.0851 54.0941L94.0846 54.094C84.9929 52.7894 75.9293 51.4888 67.1392 50.3826C61.3558 49.6587 55.3412 48.7787 49.1867 47.8783C33.6727 45.6085 17.2695 43.2087 1.43828 42.8502C1.46363 43.1233 1.48265 43.4021 1.50167 43.6808C1.52069 43.9596 1.53971 44.2384 1.56506 44.5114H2.65543L2.70615 44.5342ZM16.7795 56.322C11.8855 56.1399 7.21975 56.2082 2.75686 56.4585L2.7315 56.5041C2.69576 56.1512 2.65443 55.7884 2.61275 55.4226L2.61275 55.4225C2.56572 55.0097 2.51826 54.5931 2.47793 54.1829C10.8966 54.0009 20.0506 54.2739 30.5739 55.48C30.9185 55.5187 31.263 55.5575 31.6073 55.5963L31.6074 55.5963L31.6076 55.5963L31.6077 55.5963L31.6078 55.5964C35.3166 56.0144 39.0077 56.4304 42.7201 56.6178C47.2091 56.8448 52.574 57.4176 58.2105 58.0194C66.1374 58.8657 74.6016 59.7694 81.9225 59.8492C96.6186 60.0037 109.376 61.7212 121.653 63.374C134.691 65.1291 147.186 66.8112 160.885 66.4713C175.162 66.1072 189.336 64.4688 203.486 62.7165C205.831 62.4248 208.198 62.1273 210.585 61.8272L210.585 61.8272C231.661 59.1781 254.248 56.3389 276.16 55.6848C276.058 56.6861 275.932 57.6874 275.805 58.6887C253.582 59.2567 231.251 61.6138 209.173 63.9444C207.368 64.1349 205.566 64.3252 203.765 64.5143L203.126 64.5807C189.112 66.0381 175.047 67.5008 160.86 67.8595C147.192 68.2008 136.669 67.0403 122.697 65.4701C118.031 64.9467 112.96 64.3778 107.052 63.7861C98.6077 62.9441 90.1637 62.489 81.745 62.2614C70.9018 61.9566 59.5402 60.6007 48.2118 59.2488L48.2117 59.2488C37.5518 57.9767 26.9213 56.7081 16.7795 56.322ZM22.8591 66.5068H22.8592H22.8593H22.8594H22.8595C26.773 66.7218 30.8502 66.9458 35.3918 67.0858C43.6606 67.3458 51.8902 67.219 60.1495 67.0918L60.1714 67.0915C61.3016 67.0741 62.4323 67.0567 63.5638 67.0403C82.8861 66.7444 98.7598 67.7912 117.93 69.7938C130.634 71.1136 143.516 72.4335 156.321 72.5473C173.098 72.7001 190.966 71.0401 208.048 69.4531L208.048 69.4531L208.049 69.4531L208.05 69.453C211.312 69.1499 214.545 68.8495 217.737 68.5649C236.653 66.881 255.113 65.2425 274.993 64.4233C275.094 63.7931 275.186 63.1556 275.279 62.5109L275.28 62.5065L275.28 62.5031C275.352 62.0096 275.424 61.5118 275.501 61.0098C258.622 61.8178 240.88 63.7003 223.321 65.5633L223.321 65.5633C199.834 68.0553 176.674 70.5125 156.346 70.3172C143.642 70.2034 130.812 69.2704 118.209 67.9505C115.136 67.6317 112.153 67.3088 109.23 66.9924C93.7961 65.3218 80.0429 63.8332 63.6906 64.0819C54.283 64.2185 44.9769 64.1957 35.5693 64.1274C32.1859 64.0946 29.013 64.0429 25.9506 63.993H25.9503H25.95H25.9496H25.9495H25.9494H25.9493C18.3858 63.8698 11.496 63.7576 3.77115 63.9681C3.87258 64.6281 3.97401 65.2653 4.07544 65.9024V65.9252C10.7414 65.8411 16.5904 66.1625 22.8591 66.5068ZM20.9441 74.4812L20.9381 74.4816H20.9634L20.9441 74.4812ZM105.302 75.4374C74.8248 72.1379 47.6688 72.9113 20.9441 74.4812C17.3109 74.4142 13.7021 74.3472 10.0937 74.2802L10.0821 74.28L9.90763 74.2768C9.04548 73.9809 7.77762 73.2072 6.73797 72.4335C31.791 70.8633 56.6159 69.68 81.1872 71.3412C90.9573 71.9984 100.715 73.0847 110.469 74.1705L110.47 74.1707L110.472 74.1709C114.564 74.6264 118.656 75.0819 122.748 75.5056L105.302 75.4374ZM237.186 74.8229C248.723 73.8672 260.21 73.0024 272.027 72.5473C272.863 71.9556 273.573 71.3412 273.903 70.8633C274.03 70.1806 274.157 69.4752 274.283 68.747C260.337 68.7925 246.086 70.0668 231.227 71.9329C221.489 73.1617 211.448 74.2995 201.305 75.2325C213.274 75.1188 225.217 74.9822 237.16 74.8002L237.186 74.8229Z" fill="#B7805C"/>
</g>
<g style="mix-blend-mode:multiply" opacity="0.65">
<path fill-rule="evenodd" clip-rule="evenodd" d="M87.0105 23.426C77.6847 20.6635 52.9512 13.6113 47.8322 7.18794C46.4384 5.43612 46.109 3.61693 47.5534 1.79773C34.097 2.04478 20.6152 2.33675 7.15874 2.67364C5.63824 3.21266 3.0027 4.96448 2.3945 6.08744C2.24245 7.2104 2.11574 8.35582 2.01437 9.5237C2.90133 10.5568 4.59923 11.59 7.26011 12.6455C18.7399 17.2272 36.6818 19.2261 49.7582 22.2132C69.9808 26.8398 90.0008 32.0503 109.818 37.5528C126.087 42.0671 137.263 45.9301 152.113 48.1087C186.629 53.162 214.581 42.2917 247.119 40.742C257.383 40.2479 267.545 39.7089 277.808 39.5517C277.884 38.3164 277.935 37.0587 277.986 35.8235C252.441 35.262 227.708 37.9346 202.721 40.6297C189.214 42.0896 173.324 44.2681 159.893 43.3024C144.992 42.2243 127.608 35.9582 113.569 31.6011C104.724 28.8611 95.9308 26.0762 87.0358 23.4484L87.0105 23.426Z" fill="url(#paint2_radial_0_18518)"/>
</g>
<g style="mix-blend-mode:multiply">
<path fill-rule="evenodd" clip-rule="evenodd" d="M160.525 3.89365C163.124 7.45491 167.414 8.83193 172.107 8.97438C176.548 9.11683 183.639 8.21464 187.071 5.67428C189.821 3.63249 189.846 1.78063 188.408 0.213676C178.668 0.118709 168.928 0.0474835 159.188 0C159.163 0.166192 159.137 0.308643 159.137 0.451093C159.112 1.66192 159.793 2.89649 160.525 3.89365Z" fill="url(#paint3_radial_0_18518)"/>
</g>
<g style="mix-blend-mode:multiply" opacity="0.7">
<path fill-rule="evenodd" clip-rule="evenodd" d="M160.642 7.50621C159.934 6.93357 159.302 6.31689 158.771 5.65615C158.265 5.01744 157.809 4.31266 157.455 3.56383C157.101 2.79297 156.899 1.97806 156.924 1.16316C156.924 1.07506 156.924 1.00899 156.924 0.920889C152.7 0.920889 148.502 0.898865 144.278 0.898865C143.014 4.75315 146.706 7.66038 151.967 10.6998C155.736 12.8802 160.642 15.2368 165.068 16.1618C168.811 16.9547 172.782 17.175 176.88 17.0428C181.027 16.8886 185.276 16.3601 189.526 15.6332C200.35 13.7832 211.529 10.1932 222.354 7.9467C228.526 6.64725 233.306 5.7002 235.936 4.75315C239.174 3.58585 239.224 2.61677 237.858 1.82389C223.67 1.5596 209.506 1.36138 195.317 1.20721V1.29531C195.596 2.00009 195.545 2.74892 195.317 3.47573C195.064 4.26861 194.559 5.03947 194.002 5.65615C193.269 6.47106 192.409 7.24192 191.422 7.90265C190.487 8.54136 189.45 9.09197 188.337 9.48841C186.743 10.0831 185.049 10.5236 183.304 10.8539C181.584 11.1843 179.839 11.4045 178.119 11.5587C176.551 11.6909 174.957 11.7569 173.364 11.7129C171.771 11.6688 170.202 11.5367 168.685 11.2944C167.648 11.1403 166.662 10.8319 165.701 10.4795C164.79 10.1271 163.93 9.68663 163.095 9.22412C162.21 8.71756 161.376 8.16694 160.617 7.55026L160.642 7.50621Z" fill="url(#paint4_radial_0_18518)"/>
</g>
<g style="mix-blend-mode:multiply">
<path fill-rule="evenodd" clip-rule="evenodd" d="M67.1241 54.073C47.2915 51.6549 31.6235 47.4843 15.0922 45.8427C14.178 45.8427 13.2384 45.8427 12.3243 45.8871C8.8707 46.1533 4.07127 46.9075 2.01437 48.0389C2.21752 50.2351 2.42067 52.387 2.64922 54.4944C11.08 54.2948 20.2471 54.5832 30.7855 55.7589C34.8232 56.2026 38.8862 56.6685 42.9492 56.8681C53.7669 57.4227 69.6381 59.8851 82.208 60.0182C112.554 60.351 134.646 67.1171 161.284 66.4738C175.606 66.1188 189.801 64.5216 203.946 62.8134C227.029 60.0404 252.296 56.6685 276.724 55.9586C276.801 55.2487 276.877 54.5388 276.978 53.8289C255.165 53.9177 235.637 56.0695 215.678 58.2879C209.075 59.02 202.422 59.752 195.794 60.4176C179.898 61.9926 162.808 63.4789 146.81 62.3919C122.127 60.7281 93.3812 57.2231 67.0987 54.0286L67.1241 54.073Z" fill="url(#paint5_radial_0_18518)"/>
</g>
<g style="mix-blend-mode:screen" opacity="0.4">
<path fill-rule="evenodd" clip-rule="evenodd" d="M96.6069 43.7069C92.2301 42.9084 87.726 42.5757 83.3238 41.8659C80.4483 41.4 77.6237 40.8455 74.8246 40.2022C69.9897 39.071 65.3584 37.4517 60.4472 36.5201C56.8084 35.8325 53.0677 35.4554 49.3525 35.0562C54.7726 36.01 60.3963 37.2743 66.4781 38.9601C75.5625 41.4666 83.0184 43.2633 92.51 44.5276C101.264 45.7032 109.457 47.4112 118.008 49.2079C126.329 50.9602 134.624 52.6904 143.022 53.9326C142.869 53.9104 142.691 53.866 142.538 53.8438C140.172 53.4224 137.78 52.9566 135.438 52.4686C131.901 51.7366 128.339 51.049 124.853 50.2061C120.043 49.0526 115.412 47.4999 110.577 46.4574C108.185 45.9472 105.64 45.9694 103.248 45.5036C100.984 45.06 98.8971 44.1284 96.6069 43.7069Z" fill="#CA9E67"/>
</g>
<g style="mix-blend-mode:screen" opacity="0.3">
<path fill-rule="evenodd" clip-rule="evenodd" d="M132.278 32.9404C119.76 28.8896 108.177 25.7035 95.6835 22.4719C115.739 28.9351 142.673 39.2898 160.351 41.7021C173.375 43.4772 189.257 40.4732 202.535 39.0167C209.237 38.2885 215.913 37.4692 222.59 36.6727C214.143 37.0368 205.089 37.3099 197.3 38.1974C192.773 38.7209 188.448 40.0408 183.946 40.6325C179.647 41.2014 175.272 41.6338 170.922 41.7249C167.862 41.7931 164.751 41.6566 161.767 41.1104C158.024 40.4277 154.584 38.9484 150.892 38.0609C147.832 37.3099 144.595 37.0595 141.585 36.2175C138.373 35.33 135.414 33.9418 132.278 32.9177V32.9404Z" fill="#CA9E67"/>
</g>
<g style="mix-blend-mode:screen" opacity="0.5">
<path fill-rule="evenodd" clip-rule="evenodd" d="M62.236 49.376C56.607 48.7823 50.9527 48.2114 45.3237 47.6404C52.9304 48.7594 60.3596 49.8784 67.4339 50.769C93.6517 54.0575 122.304 59.1272 146.873 60.8399C157.725 61.5935 170.53 60.7486 183.309 59.4469C181.991 59.5154 180.698 59.6067 179.379 59.6752C175.728 59.9036 172.077 60.1776 168.4 60.3603C165.205 60.5202 162.036 60.6344 158.841 60.6572C151.057 60.7029 146.569 59.8808 139.089 58.9901C133.511 58.3279 128.009 57.1861 122.43 56.5466C119.692 56.2269 116.903 56.2954 114.19 55.9301C111.984 55.6332 109.93 54.9024 107.724 54.5827C103.185 53.8976 98.5707 53.5779 94.032 52.9157C89.6201 52.2991 85.1321 51.9565 80.7203 51.3856C74.5842 50.5863 68.372 50.0154 62.2106 49.3532L62.236 49.376Z" fill="#CA9E67"/>
</g>
<g style="mix-blend-mode:screen" opacity="0.5">
<path fill-rule="evenodd" clip-rule="evenodd" d="M219.134 26.7354C215.578 27.4275 212.046 28.0958 208.489 28.764C209.599 28.6208 210.709 28.4538 211.869 28.3106C231.066 25.6614 251.045 21.7474 277.986 22.6066C277.986 22.4157 277.986 22.2247 277.986 22.0338C271.276 20.8405 266.886 20.6018 259.167 21.2224C257.805 21.3417 256.443 21.4849 255.056 21.4133C252.861 21.3178 250.742 20.5302 248.547 20.6973C241.964 21.2224 226.5 25.2796 219.134 26.7115V26.7354Z" fill="#CA9E67"/>
</g>
<g style="mix-blend-mode:multiply" opacity="0.5">
<path fill-rule="evenodd" clip-rule="evenodd" d="M50.8244 26.0194C52.6983 26.6661 55.6359 28.2048 56.193 28.3609C58.3708 28.9184 64.4737 29.7658 68.5508 30.6355C74.7044 31.9513 80.782 33.4677 86.885 34.9395C92.1016 36.2106 97.2929 37.5264 102.51 38.8421C107.979 40.2024 113.399 41.6296 118.894 42.9231C119.223 42.99 119.527 43.0792 119.856 43.1461C116.868 42.3432 113.703 41.4735 110.385 40.5592C89.8225 34.8726 69.032 29.4982 48.0641 24.726C40.2645 22.9642 30.9708 21.537 22.1583 19.7753C25.1211 20.5558 28.084 21.3586 31.0974 22.0276C36.2381 23.1649 41.48 23.9677 46.646 25.0159C48.0641 25.3058 49.5076 25.5734 50.8497 26.0417L50.8244 26.0194Z" fill="#683C11"/>
</g>
<g style="mix-blend-mode:multiply" opacity="0.5">
<path fill-rule="evenodd" clip-rule="evenodd" d="M152.086 62.6396C164.322 63.1107 174.034 62.9761 185.48 62.348C189.074 62.1461 192.464 61.7871 196.67 61.675C201.921 61.5404 207.657 60.7552 213.086 59.9477C217.318 59.342 221.397 58.2428 225.603 57.5474C229.273 56.9193 232.995 56.4706 236.717 55.9771C237.38 55.8874 238.042 55.7976 238.705 55.7303C230.854 56.4706 223.13 57.3231 215.304 58.1979C208.677 58.9382 201.998 59.6785 195.345 60.3515C181.325 61.7423 166.412 63.0658 152.112 62.6396H152.086Z" fill="#683C11"/>
</g>
<g style="mix-blend-mode:multiply" opacity="0.5">
<path fill-rule="evenodd" clip-rule="evenodd" d="M145.036 8.0899C149.168 12.0839 154.754 15.416 163.401 17.6982C170.569 19.6153 175.237 20.2543 182.889 19.4099C187.481 18.9078 191.97 17.9493 196.434 16.9679C201.178 15.9181 205.769 14.5487 210.437 13.3619C212.81 12.7457 215.182 12.1295 217.554 11.5133C215.564 11.9241 213.498 12.3806 211.381 12.8598L211.075 12.9283C205.132 14.252 198.882 15.667 192.633 16.694C187.914 17.47 183.17 18.0177 178.578 18.1775C173.936 18.3372 169.421 18.0862 165.161 17.2189C160.111 16.2147 154.907 14.2064 150.622 11.8328C148.505 10.646 146.592 9.39079 145.036 8.0899H145.036Z" fill="#683C11"/>
</g>
<g style="mix-blend-mode:multiply" opacity="0.5">
<path fill-rule="evenodd" clip-rule="evenodd" d="M263.717 65.3815C265.392 55.2821 266.331 44.9115 266.712 34.7895C266.712 34.1568 266.763 33.5242 266.788 32.8916H266.61L266.788 32.8464C267.016 25.7519 266.94 18.5445 266.331 11.4274H265.747C263.742 11.4952 261.788 11.6308 259.859 11.8115C260.519 11.6308 261.153 11.4726 261.788 11.3145C179.119 9.37139 96.349 9.41658 13.6804 11.4274C13.0966 18.07 12.995 24.8256 13.1727 31.4908C15.5332 31.7619 17.843 32.033 19.772 32.4397C17.6145 32.4397 15.4317 32.5075 13.2235 32.5753C13.2235 33.3209 13.2742 34.0665 13.2996 34.812C13.4265 38.3367 13.6296 41.9065 13.9088 45.4763C14.4164 45.5215 14.9241 45.5667 15.4063 45.6119C14.8987 45.6119 14.4164 45.6119 13.9088 45.6119C14.4164 52.2319 15.1779 58.8519 16.2693 65.3815C98.7349 66.8953 181.277 66.8953 263.742 65.3815H263.717Z" fill="url(#paint6_linear_0_18518)"/>
</g>
<g style="mix-blend-mode:screen">
<path fill-rule="evenodd" clip-rule="evenodd" d="M3.02158 67.4391C3.07236 69.4754 3.2501 71.5117 3.5548 73.5245C4.64663 74.9757 6.09394 76.2864 8.07447 77.363C37.1223 78.2524 104.943 80.5695 145.036 77.7375C99.9154 77.0119 54.6932 76.2864 9.59796 75.3267C7.61743 74.5778 6.11933 73.4075 4.69741 72.0734C4.06263 70.5286 3.50401 68.9839 3.02158 67.4157L3.02158 67.4391Z" fill="url(#paint7_radial_0_18518)"/>
</g>
<g style="mix-blend-mode:screen" opacity="0.5">
<path fill-rule="evenodd" clip-rule="evenodd" d="M5.46665 4.18276C22.1188 3.7513 38.1872 3.39175 54.8394 3.12808C58.1901 3.84718 63.2924 4.78201 64.8408 4.80598C68.5723 4.85392 81.823 3.29587 88.8291 2.67265C150.64 2.04943 211.969 2.5528 273.602 4.18276C274.44 4.32658 275.861 5.16553 276.978 6.07639C276.242 4.78201 273.577 2.93632 272.333 2.69662C183.868 0.299614 95.2513 0.299614 6.76126 2.69662C5.26358 3.2719 2.67437 5.09362 2.01437 6.29212C3.08052 5.40523 4.50205 4.54231 5.46665 4.18276Z" fill="#CA9E67"/>
</g>
<g style="mix-blend-mode:screen" opacity="0.5">
<path fill-rule="evenodd" clip-rule="evenodd" d="M262.878 65.618C180.927 67.149 98.0656 67.149 16.1151 65.618C17.2287 67.7753 62.7596 69.2135 139.496 69.2135C216.233 69.2135 261.612 68.332 262.878 65.618Z" fill="#CA9E67"/>
</g>
<g style="mix-blend-mode:multiply" opacity="0.5">
<path fill-rule="evenodd" clip-rule="evenodd" d="M14.1372 31.881C14.2134 29.7072 14.3403 27.5562 14.4926 25.3824C14.7718 21.5611 15.1779 17.7168 15.7617 13.9641C55.2558 12.3624 98.5318 12.1564 139.93 12.1564C181.226 12.1564 223.74 12.4768 264.123 13.987C264.681 17.7626 265.087 21.6068 265.367 25.4282C265.646 29.2724 265.824 33.1166 265.9 36.938C265.976 40.7593 265.976 44.6493 265.9 48.5393C266.28 44.0544 266.56 39.5466 266.712 35.1074C266.712 34.4667 266.763 33.826 266.788 33.1853H266.61L266.788 33.1395C267.016 25.9545 266.94 18.655 266.331 11.4471H265.747C263.742 11.5157 261.788 11.653 259.859 11.8361C260.519 11.653 261.153 11.4929 261.788 11.3327C179.119 9.3648 96.349 9.41057 13.6804 11.4471C13.0966 18.1745 12.995 25.0163 13.1727 31.7666C13.5027 31.8123 13.8326 31.8352 14.1626 31.881H14.1372ZM14.1118 32.8192C13.8073 32.8192 13.5027 32.8192 13.1727 32.8421C13.1727 33.5972 13.2235 34.3523 13.2489 35.1074C13.3758 38.677 13.5788 42.2924 13.858 45.9079H13.9342C13.9088 42.9103 13.9342 39.9127 14.0103 36.938C14.0357 35.565 14.0865 34.1921 14.1372 32.8192H14.1118Z" fill="#683C11"/>
</g>
<defs>
<linearGradient id="paint0_linear_0_18518" x1="279.924" y1="79.9573" x2="279.924" y2="0.000629084" gradientUnits="userSpaceOnUse">
<stop stop-color="#692705"/>
<stop offset="1" stop-color="#823B00"/>
</linearGradient>
<radialGradient id="paint1_radial_0_18518" cx="0" cy="0" r="1" gradientUnits="userSpaceOnUse" gradientTransform="translate(8.45222 -9.08321) scale(305.762 83.3523)">
<stop stop-color="#BD8A60"/>
<stop offset="1" stop-color="#A85021"/>
</radialGradient>
<radialGradient id="paint2_radial_0_18518" cx="0" cy="0" r="1" gradientUnits="userSpaceOnUse" gradientTransform="translate(45.5007 -57.7192) scale(327.516 56.5386)">
<stop stop-color="#CFA04D"/>
<stop offset="1" stop-color="white"/>
</radialGradient>
<radialGradient id="paint3_radial_0_18518" cx="0" cy="0" r="1" gradientUnits="userSpaceOnUse" gradientTransform="translate(177.962 -17.3077) scale(53.7472 15.989)">
<stop stop-color="#CFA04D"/>
<stop offset="1" stop-color="white"/>
</radialGradient>
<radialGradient id="paint4_radial_0_18518" cx="0" cy="0" r="1" gradientUnits="userSpaceOnUse" gradientTransform="translate(192.788 -13.2849) scale(98.9926 16.9174)">
<stop stop-color="#CFA04D"/>
<stop offset="1" stop-color="white"/>
</radialGradient>
<radialGradient id="paint5_radial_0_18518" cx="0" cy="0" r="1" gradientUnits="userSpaceOnUse" gradientTransform="translate(162.808 98.1746) scale(298.377 22.4346)">
<stop stop-color="#CFA04D"/>
<stop offset="1" stop-color="white"/>
</radialGradient>
<linearGradient id="paint6_linear_0_18518" x1="266.892" y1="66.5338" x2="266.892" y2="9.89105" gradientUnits="userSpaceOnUse">
<stop stop-color="#C99365"/>
<stop offset="1" stop-color="#692705"/>
</linearGradient>
<radialGradient id="paint7_radial_0_18518" cx="0" cy="0" r="1" gradientUnits="userSpaceOnUse" gradientTransform="translate(25.2137 83.5888) scale(150.368 12.3728)">
<stop stop-color="#B0670B"/>
<stop offset="1"/>
</radialGradient>
</defs>
</svg>
