<svg width="339" height="27" viewBox="0 0 339 27" fill="none" xmlns="http://www.w3.org/2000/svg">
<mask id="path-1-inside-1_0_15468" fill="white">
<path fill-rule="evenodd" clip-rule="evenodd" d="M19.1865 19L28.1865 13.5L19.1865 8L10.1865 13.5L19.1865 19Z"/>
</mask>
<path d="M28.1865 13.5L28.708 14.3533L30.1043 13.5L28.708 12.6467L28.1865 13.5ZM19.1865 19L18.6651 19.8533L19.1865 20.1719L19.708 19.8533L19.1865 19ZM19.1865 8L19.708 7.14672L19.1865 6.82805L18.6651 7.14672L19.1865 8ZM10.1865 13.5L9.66507 12.6467L8.2688 13.5L9.66507 14.3533L10.1865 13.5ZM27.6651 12.6467L18.6651 18.1467L19.708 19.8533L28.708 14.3533L27.6651 12.6467ZM18.6651 8.85328L27.6651 14.3533L28.708 12.6467L19.708 7.14672L18.6651 8.85328ZM18.6651 7.14672L9.66507 12.6467L10.708 14.3533L19.708 8.85328L18.6651 7.14672ZM9.66507 14.3533L18.6651 19.8533L19.708 18.1467L10.708 12.6467L9.66507 14.3533Z" fill="white" mask="url(#path-1-inside-1_0_15468)"/>
<circle cx="19.1865" cy="13.5" r="1.5" transform="rotate(90 19.1865 13.5)" fill="#64331F"/>
<path fill-rule="evenodd" clip-rule="evenodd" d="M22.1651 1.25L22.2971 5.02128L25.6292 3.25L25.7612 7.02128L29.0933 5.25L29.2253 9.02128L32.5574 7.25L32.6894 11.0213L36.0215 9.25L36.1865 13.9641L32.7224 11.9641L31.8564 11.4641L29.2583 9.9641L28.3923 9.4641L25.7942 7.9641L24.9282 7.4641L22.3301 5.9641L21.4641 5.4641L18 3.4641L22.1651 1.25Z" fill="#CD9E8F"/>
<path fill-rule="evenodd" clip-rule="evenodd" d="M22.1651 25.7141L22.2971 21.9428L25.6292 23.7141L25.7612 19.9428L29.0933 21.7141L29.2253 17.9428L32.5574 19.7141L32.6894 15.9428L36.0215 17.7141L36.1865 13L32.7224 15L31.8564 15.5L29.2583 17L28.3923 17.5L25.7942 19L24.9282 19.5L22.3301 21L21.4641 21.5L18 23.5L22.1651 25.7141Z" fill="#CD9E8F"/>
<path fill-rule="evenodd" clip-rule="evenodd" d="M16.0215 1.25L15.8894 5.02128L12.5574 3.25L12.4253 7.02128L9.09326 5.25L8.96121 9.02128L5.62916 7.25L5.4971 11.0213L2.16505 9.25L1.99999 13.9641L5.46409 11.9641L6.33012 11.4641L8.92819 9.9641L9.79422 9.4641L12.3923 7.9641L13.2583 7.4641L15.8564 5.9641L16.7224 5.4641L20.1865 3.4641L16.0215 1.25Z" fill="#CD9E8F"/>
<path fill-rule="evenodd" clip-rule="evenodd" d="M16.0215 25.7141L15.8894 21.9428L12.5574 23.7141L12.4253 19.9428L9.09326 21.7141L8.96121 17.9428L5.62916 19.7141L5.4971 15.9428L2.16505 17.7141L1.99999 13L5.46409 15L6.33012 15.5L8.92819 17L9.79422 17.5L12.3923 19L13.2583 19.5L15.8564 21L16.7224 21.5L20.1865 23.5L16.0215 25.7141Z" fill="#CD9E8F"/>
<mask id="path-8-inside-2_0_15468" fill="white">
<path fill-rule="evenodd" clip-rule="evenodd" d="M53.1865 19L62.1865 13.5L53.1865 8L44.1865 13.5L53.1865 19Z"/>
</mask>
<path d="M62.1865 13.5L62.708 14.3533L64.1043 13.5L62.708 12.6467L62.1865 13.5ZM53.1865 19L52.6651 19.8533L53.1865 20.1719L53.708 19.8533L53.1865 19ZM53.1865 8L53.708 7.14672L53.1865 6.82805L52.6651 7.14672L53.1865 8ZM44.1865 13.5L43.6651 12.6467L42.2688 13.5L43.6651 14.3533L44.1865 13.5ZM61.6651 12.6467L52.6651 18.1467L53.708 19.8533L62.708 14.3533L61.6651 12.6467ZM52.6651 8.85328L61.6651 14.3533L62.708 12.6467L53.708 7.14672L52.6651 8.85328ZM52.6651 7.14672L43.6651 12.6467L44.708 14.3533L53.708 8.85328L52.6651 7.14672ZM43.6651 14.3533L52.6651 19.8533L53.708 18.1467L44.708 12.6467L43.6651 14.3533Z" fill="white" mask="url(#path-8-inside-2_0_15468)"/>
<circle cx="53.1865" cy="13.5" r="1.5" transform="rotate(90 53.1865 13.5)" fill="#64331F"/>
<path fill-rule="evenodd" clip-rule="evenodd" d="M56.1651 1.25L56.2971 5.02128L59.6292 3.25L59.7612 7.02128L63.0933 5.25L63.2253 9.02128L66.5574 7.25L66.6894 11.0213L70.0215 9.25L70.1865 13.9641L66.7224 11.9641L65.8564 11.4641L63.2583 9.9641L62.3923 9.4641L59.7942 7.9641L58.9282 7.4641L56.3301 5.9641L55.4641 5.4641L52 3.4641L56.1651 1.25Z" fill="#CD9E8F"/>
<path fill-rule="evenodd" clip-rule="evenodd" d="M56.1651 25.7141L56.2971 21.9428L59.6292 23.7141L59.7612 19.9428L63.0933 21.7141L63.2253 17.9428L66.5574 19.7141L66.6894 15.9428L70.0215 17.7141L70.1865 13L66.7224 15L65.8564 15.5L63.2583 17L62.3923 17.5L59.7942 19L58.9282 19.5L56.3301 21L55.4641 21.5L52 23.5L56.1651 25.7141Z" fill="#CD9E8F"/>
<path fill-rule="evenodd" clip-rule="evenodd" d="M50.0215 1.25L49.8894 5.02128L46.5574 3.25L46.4253 7.02128L43.0933 5.25L42.9612 9.02128L39.6292 7.25L39.4971 11.0213L36.1651 9.25L36 13.9641L39.4641 11.9641L40.3301 11.4641L42.9282 9.9641L43.7942 9.4641L46.3923 7.9641L47.2583 7.4641L49.8564 5.9641L50.7224 5.4641L54.1865 3.4641L50.0215 1.25Z" fill="#CD9E8F"/>
<path fill-rule="evenodd" clip-rule="evenodd" d="M50.0215 25.7141L49.8894 21.9428L46.5574 23.7141L46.4253 19.9428L43.0933 21.7141L42.9612 17.9428L39.6292 19.7141L39.4971 15.9428L36.1651 17.7141L36 13L39.4641 15L40.3301 15.5L42.9282 17L43.7942 17.5L46.3923 19L47.2583 19.5L49.8564 21L50.7224 21.5L54.1865 23.5L50.0215 25.7141Z" fill="#CD9E8F"/>
<mask id="path-15-inside-3_0_15468" fill="white">
<path fill-rule="evenodd" clip-rule="evenodd" d="M87.1865 19L96.1865 13.5L87.1865 8L78.1865 13.5L87.1865 19Z"/>
</mask>
<path d="M96.1865 13.5L96.708 14.3533L98.1043 13.5L96.708 12.6467L96.1865 13.5ZM87.1865 19L86.6651 19.8533L87.1865 20.1719L87.708 19.8533L87.1865 19ZM87.1865 8L87.708 7.14672L87.1865 6.82805L86.6651 7.14672L87.1865 8ZM78.1865 13.5L77.6651 12.6467L76.2688 13.5L77.6651 14.3533L78.1865 13.5ZM95.6651 12.6467L86.6651 18.1467L87.708 19.8533L96.708 14.3533L95.6651 12.6467ZM86.6651 8.85328L95.6651 14.3533L96.708 12.6467L87.708 7.14672L86.6651 8.85328ZM86.6651 7.14672L77.6651 12.6467L78.708 14.3533L87.708 8.85328L86.6651 7.14672ZM77.6651 14.3533L86.6651 19.8533L87.708 18.1467L78.708 12.6467L77.6651 14.3533Z" fill="white" mask="url(#path-15-inside-3_0_15468)"/>
<circle cx="87.1865" cy="13.5" r="1.5" transform="rotate(90 87.1865 13.5)" fill="#64331F"/>
<path fill-rule="evenodd" clip-rule="evenodd" d="M90.1651 1.25L90.2971 5.02128L93.6292 3.25L93.7612 7.02128L97.0933 5.25L97.2253 9.02128L100.557 7.25L100.689 11.0213L104.021 9.25L104.187 13.9641L100.722 11.9641L99.8564 11.4641L97.2583 9.9641L96.3923 9.4641L93.7942 7.9641L92.9282 7.4641L90.3301 5.9641L89.4641 5.4641L86 3.4641L90.1651 1.25Z" fill="#CD9E8F"/>
<path fill-rule="evenodd" clip-rule="evenodd" d="M90.1651 25.7141L90.2971 21.9428L93.6292 23.7141L93.7612 19.9428L97.0933 21.7141L97.2253 17.9428L100.557 19.7141L100.689 15.9428L104.021 17.7141L104.187 13L100.722 15L99.8564 15.5L97.2583 17L96.3923 17.5L93.7942 19L92.9282 19.5L90.3301 21L89.4641 21.5L86 23.5L90.1651 25.7141Z" fill="#CD9E8F"/>
<path fill-rule="evenodd" clip-rule="evenodd" d="M84.0215 1.25L83.8894 5.02128L80.5574 3.25L80.4253 7.02128L77.0933 5.25L76.9612 9.02128L73.6292 7.25L73.4971 11.0213L70.1651 9.25L70 13.9641L73.4641 11.9641L74.3301 11.4641L76.9282 9.9641L77.7942 9.4641L80.3923 7.9641L81.2583 7.4641L83.8564 5.9641L84.7224 5.4641L88.1865 3.4641L84.0215 1.25Z" fill="#CD9E8F"/>
<path fill-rule="evenodd" clip-rule="evenodd" d="M84.0215 25.7141L83.8894 21.9428L80.5574 23.7141L80.4253 19.9428L77.0933 21.7141L76.9612 17.9428L73.6292 19.7141L73.4971 15.9428L70.1651 17.7141L70 13L73.4641 15L74.3301 15.5L76.9282 17L77.7942 17.5L80.3923 19L81.2583 19.5L83.8564 21L84.7224 21.5L88.1865 23.5L84.0215 25.7141Z" fill="#CD9E8F"/>
<mask id="path-22-inside-4_0_15468" fill="white">
<path fill-rule="evenodd" clip-rule="evenodd" d="M135.183 19L144.183 13.5L135.183 8L126.183 13.5L135.183 19Z"/>
</mask>
<path d="M144.183 13.5L144.704 14.3533L146.101 13.5L144.704 12.6467L144.183 13.5ZM135.183 19L134.662 19.8533L135.183 20.1719L135.704 19.8533L135.183 19ZM135.183 8L135.704 7.14672L135.183 6.82805L134.662 7.14672L135.183 8ZM126.183 13.5L125.662 12.6467L124.265 13.5L125.662 14.3533L126.183 13.5ZM143.662 12.6467L134.662 18.1467L135.704 19.8533L144.704 14.3533L143.662 12.6467ZM134.662 8.85328L143.662 14.3533L144.704 12.6467L135.704 7.14672L134.662 8.85328ZM134.662 7.14672L125.662 12.6467L126.704 14.3533L135.704 8.85328L134.662 7.14672ZM125.662 14.3533L134.662 19.8533L135.704 18.1467L126.704 12.6467L125.662 14.3533Z" fill="white" mask="url(#path-22-inside-4_0_15468)"/>
<circle cx="135.183" cy="13.5" r="1.5" transform="rotate(90 135.183 13.5)" fill="#64331F"/>
<path fill-rule="evenodd" clip-rule="evenodd" d="M138.162 1.25L138.294 5.02128L141.626 3.25L141.758 7.02128L145.09 5.25L145.222 9.02128L148.554 7.25L148.686 11.0213L152.018 9.25L152.183 13.9641L148.719 11.9641L147.853 11.4641L145.255 9.9641L144.389 9.4641L141.791 7.9641L140.925 7.4641L138.327 5.9641L137.461 5.4641L133.997 3.4641L138.162 1.25Z" fill="#CD9E8F"/>
<path fill-rule="evenodd" clip-rule="evenodd" d="M138.162 25.7141L138.294 21.9428L141.626 23.7141L141.758 19.9428L145.09 21.7141L145.222 17.9428L148.554 19.7141L148.686 15.9428L152.018 17.7141L152.183 13L148.719 15L147.853 15.5L145.255 17L144.389 17.5L141.791 19L140.925 19.5L138.327 21L137.461 21.5L133.997 23.5L138.162 25.7141Z" fill="#CD9E8F"/>
<path fill-rule="evenodd" clip-rule="evenodd" d="M132.018 1.25L131.886 5.02128L128.554 3.25L128.422 7.02128L125.09 5.25L124.958 9.02128L121.626 7.25L121.494 11.0213L118.162 9.25L117.997 13.9641L121.461 11.9641L122.327 11.4641L124.925 9.9641L125.791 9.4641L128.389 7.9641L129.255 7.4641L131.853 5.9641L132.719 5.4641L136.183 3.4641L132.018 1.25Z" fill="#CD9E8F"/>
<path fill-rule="evenodd" clip-rule="evenodd" d="M132.018 25.7141L131.886 21.9428L128.554 23.7141L128.422 19.9428L125.09 21.7141L124.958 17.9428L121.626 19.7141L121.494 15.9428L118.162 17.7141L117.997 13L121.461 15L122.327 15.5L124.925 17L125.791 17.5L128.389 19L129.255 19.5L131.853 21L132.719 21.5L136.183 23.5L132.018 25.7141Z" fill="#CD9E8F"/>
<mask id="path-29-inside-5_0_15468" fill="white">
<path fill-rule="evenodd" clip-rule="evenodd" d="M169.183 19L178.183 13.5L169.183 8L160.183 13.5L169.183 19Z"/>
</mask>
<path d="M178.183 13.5L178.704 14.3533L180.101 13.5L178.704 12.6467L178.183 13.5ZM169.183 19L168.662 19.8533L169.183 20.1719L169.704 19.8533L169.183 19ZM169.183 8L169.704 7.14672L169.183 6.82805L168.662 7.14672L169.183 8ZM160.183 13.5L159.662 12.6467L158.265 13.5L159.662 14.3533L160.183 13.5ZM177.662 12.6467L168.662 18.1467L169.704 19.8533L178.704 14.3533L177.662 12.6467ZM168.662 8.85328L177.662 14.3533L178.704 12.6467L169.704 7.14672L168.662 8.85328ZM168.662 7.14672L159.662 12.6467L160.704 14.3533L169.704 8.85328L168.662 7.14672ZM159.662 14.3533L168.662 19.8533L169.704 18.1467L160.704 12.6467L159.662 14.3533Z" fill="white" mask="url(#path-29-inside-5_0_15468)"/>
<circle cx="169.183" cy="13.5" r="1.5" transform="rotate(90 169.183 13.5)" fill="#64331F"/>
<path fill-rule="evenodd" clip-rule="evenodd" d="M172.162 1.25L172.294 5.02128L175.626 3.25L175.758 7.02128L179.09 5.25L179.222 9.02128L182.554 7.25L182.686 11.0213L186.018 9.25L186.183 13.9641L182.719 11.9641L181.853 11.4641L179.255 9.9641L178.389 9.4641L175.791 7.9641L174.925 7.4641L172.327 5.9641L171.461 5.4641L167.997 3.4641L172.162 1.25Z" fill="#CD9E8F"/>
<path fill-rule="evenodd" clip-rule="evenodd" d="M172.162 25.7141L172.294 21.9428L175.626 23.7141L175.758 19.9428L179.09 21.7141L179.222 17.9428L182.554 19.7141L182.686 15.9428L186.018 17.7141L186.183 13L182.719 15L181.853 15.5L179.255 17L178.389 17.5L175.791 19L174.925 19.5L172.327 21L171.461 21.5L167.997 23.5L172.162 25.7141Z" fill="#CD9E8F"/>
<path fill-rule="evenodd" clip-rule="evenodd" d="M166.018 1.25L165.886 5.02128L162.554 3.25L162.422 7.02128L159.09 5.25L158.958 9.02128L155.626 7.25L155.494 11.0213L152.162 9.25L151.997 13.9641L155.461 11.9641L156.327 11.4641L158.925 9.9641L159.791 9.4641L162.389 7.9641L163.255 7.4641L165.853 5.9641L166.719 5.4641L170.183 3.4641L166.018 1.25Z" fill="#CD9E8F"/>
<path fill-rule="evenodd" clip-rule="evenodd" d="M166.018 25.7141L165.886 21.9428L162.554 23.7141L162.422 19.9428L159.09 21.7141L158.958 17.9428L155.626 19.7141L155.494 15.9428L152.162 17.7141L151.997 13L155.461 15L156.327 15.5L158.925 17L159.791 17.5L162.389 19L163.255 19.5L165.853 21L166.719 21.5L170.183 23.5L166.018 25.7141Z" fill="#CD9E8F"/>
<mask id="path-36-inside-6_0_15468" fill="white">
<path fill-rule="evenodd" clip-rule="evenodd" d="M203.183 19L212.183 13.5L203.183 8L194.183 13.5L203.183 19Z"/>
</mask>
<path d="M212.183 13.5L212.704 14.3533L214.101 13.5L212.704 12.6467L212.183 13.5ZM203.183 19L202.662 19.8533L203.183 20.1719L203.704 19.8533L203.183 19ZM203.183 8L203.704 7.14672L203.183 6.82805L202.662 7.14672L203.183 8ZM194.183 13.5L193.662 12.6467L192.265 13.5L193.662 14.3533L194.183 13.5ZM211.662 12.6467L202.662 18.1467L203.704 19.8533L212.704 14.3533L211.662 12.6467ZM202.662 8.85328L211.662 14.3533L212.704 12.6467L203.704 7.14672L202.662 8.85328ZM202.662 7.14672L193.662 12.6467L194.704 14.3533L203.704 8.85328L202.662 7.14672ZM193.662 14.3533L202.662 19.8533L203.704 18.1467L194.704 12.6467L193.662 14.3533Z" fill="white" mask="url(#path-36-inside-6_0_15468)"/>
<circle cx="203.183" cy="13.5" r="1.5" transform="rotate(90 203.183 13.5)" fill="#64331F"/>
<path fill-rule="evenodd" clip-rule="evenodd" d="M206.162 1.25L206.294 5.02128L209.626 3.25L209.758 7.02128L213.09 5.25L213.222 9.02128L216.554 7.25L216.686 11.0213L220.018 9.25L220.183 13.9641L216.719 11.9641L215.853 11.4641L213.255 9.9641L212.389 9.4641L209.791 7.9641L208.925 7.4641L206.327 5.9641L205.461 5.4641L201.997 3.4641L206.162 1.25Z" fill="#CD9E8F"/>
<path fill-rule="evenodd" clip-rule="evenodd" d="M206.162 25.7141L206.294 21.9428L209.626 23.7141L209.758 19.9428L213.09 21.7141L213.222 17.9428L216.554 19.7141L216.686 15.9428L220.018 17.7141L220.183 13L216.719 15L215.853 15.5L213.255 17L212.389 17.5L209.791 19L208.925 19.5L206.327 21L205.461 21.5L201.997 23.5L206.162 25.7141Z" fill="#CD9E8F"/>
<path fill-rule="evenodd" clip-rule="evenodd" d="M200.018 1.25L199.886 5.02128L196.554 3.25L196.422 7.02128L193.09 5.25L192.958 9.02128L189.626 7.25L189.494 11.0213L186.162 9.25L185.997 13.9641L189.461 11.9641L190.327 11.4641L192.925 9.9641L193.791 9.4641L196.389 7.9641L197.255 7.4641L199.853 5.9641L200.719 5.4641L204.183 3.4641L200.018 1.25Z" fill="#CD9E8F"/>
<path fill-rule="evenodd" clip-rule="evenodd" d="M200.018 25.7141L199.886 21.9428L196.554 23.7141L196.422 19.9428L193.09 21.7141L192.958 17.9428L189.626 19.7141L189.494 15.9428L186.162 17.7141L185.997 13L189.461 15L190.327 15.5L192.925 17L193.791 17.5L196.389 19L197.255 19.5L199.853 21L200.719 21.5L204.183 23.5L200.018 25.7141Z" fill="#CD9E8F"/>
<mask id="path-43-inside-7_0_15468" fill="white">
<path fill-rule="evenodd" clip-rule="evenodd" d="M251.18 19L260.18 13.5L251.18 8L242.18 13.5L251.18 19Z"/>
</mask>
<path d="M260.18 13.5L260.701 14.3533L262.097 13.5L260.701 12.6467L260.18 13.5ZM251.18 19L250.658 19.8533L251.18 20.1719L251.701 19.8533L251.18 19ZM251.18 8L251.701 7.14672L251.18 6.82805L250.658 7.14672L251.18 8ZM242.18 13.5L241.658 12.6467L240.262 13.5L241.658 14.3533L242.18 13.5ZM259.658 12.6467L250.658 18.1467L251.701 19.8533L260.701 14.3533L259.658 12.6467ZM250.658 8.85328L259.658 14.3533L260.701 12.6467L251.701 7.14672L250.658 8.85328ZM250.658 7.14672L241.658 12.6467L242.701 14.3533L251.701 8.85328L250.658 7.14672ZM241.658 14.3533L250.658 19.8533L251.701 18.1467L242.701 12.6467L241.658 14.3533Z" fill="white" mask="url(#path-43-inside-7_0_15468)"/>
<circle cx="251.18" cy="13.5" r="1.5" transform="rotate(90 251.18 13.5)" fill="#64331F"/>
<path fill-rule="evenodd" clip-rule="evenodd" d="M254.158 1.25L254.29 5.02128L257.622 3.25L257.754 7.02128L261.086 5.25L261.218 9.02128L264.55 7.25L264.682 11.0213L268.015 9.25L268.18 13.9641L264.715 11.9641L263.849 11.4641L261.251 9.9641L260.385 9.4641L257.787 7.9641L256.921 7.4641L254.323 5.9641L253.457 5.4641L249.993 3.4641L254.158 1.25Z" fill="#CD9E8F"/>
<path fill-rule="evenodd" clip-rule="evenodd" d="M254.158 25.7141L254.29 21.9428L257.622 23.7141L257.754 19.9428L261.086 21.7141L261.218 17.9428L264.55 19.7141L264.682 15.9428L268.015 17.7141L268.18 13L264.715 15L263.849 15.5L261.251 17L260.385 17.5L257.787 19L256.921 19.5L254.323 21L253.457 21.5L249.993 23.5L254.158 25.7141Z" fill="#CD9E8F"/>
<path fill-rule="evenodd" clip-rule="evenodd" d="M248.015 1.25L247.882 5.02128L244.55 3.25L244.418 7.02128L241.086 5.25L240.954 9.02128L237.622 7.25L237.49 11.0213L234.158 9.25L233.993 13.9641L237.457 11.9641L238.323 11.4641L240.921 9.9641L241.787 9.4641L244.385 7.9641L245.251 7.4641L247.849 5.9641L248.715 5.4641L252.18 3.4641L248.015 1.25Z" fill="#CD9E8F"/>
<path fill-rule="evenodd" clip-rule="evenodd" d="M248.015 25.7141L247.882 21.9428L244.55 23.7141L244.418 19.9428L241.086 21.7141L240.954 17.9428L237.622 19.7141L237.49 15.9428L234.158 17.7141L233.993 13L237.457 15L238.323 15.5L240.921 17L241.787 17.5L244.385 19L245.251 19.5L247.849 21L248.715 21.5L252.18 23.5L248.015 25.7141Z" fill="#CD9E8F"/>
<mask id="path-50-inside-8_0_15468" fill="white">
<path fill-rule="evenodd" clip-rule="evenodd" d="M285.18 19L294.18 13.5L285.18 8L276.18 13.5L285.18 19Z"/>
</mask>
<path d="M294.18 13.5L294.701 14.3533L296.097 13.5L294.701 12.6467L294.18 13.5ZM285.18 19L284.658 19.8533L285.18 20.1719L285.701 19.8533L285.18 19ZM285.18 8L285.701 7.14672L285.18 6.82805L284.658 7.14672L285.18 8ZM276.18 13.5L275.658 12.6467L274.262 13.5L275.658 14.3533L276.18 13.5ZM293.658 12.6467L284.658 18.1467L285.701 19.8533L294.701 14.3533L293.658 12.6467ZM284.658 8.85328L293.658 14.3533L294.701 12.6467L285.701 7.14672L284.658 8.85328ZM284.658 7.14672L275.658 12.6467L276.701 14.3533L285.701 8.85328L284.658 7.14672ZM275.658 14.3533L284.658 19.8533L285.701 18.1467L276.701 12.6467L275.658 14.3533Z" fill="white" mask="url(#path-50-inside-8_0_15468)"/>
<circle cx="285.18" cy="13.5" r="1.5" transform="rotate(90 285.18 13.5)" fill="#64331F"/>
<path fill-rule="evenodd" clip-rule="evenodd" d="M288.158 1.25L288.29 5.02128L291.622 3.25L291.754 7.02128L295.086 5.25L295.218 9.02128L298.55 7.25L298.682 11.0213L302.015 9.25L302.18 13.9641L298.715 11.9641L297.849 11.4641L295.251 9.9641L294.385 9.4641L291.787 7.9641L290.921 7.4641L288.323 5.9641L287.457 5.4641L283.993 3.4641L288.158 1.25Z" fill="#CD9E8F"/>
<path fill-rule="evenodd" clip-rule="evenodd" d="M288.158 25.7141L288.29 21.9428L291.622 23.7141L291.754 19.9428L295.086 21.7141L295.218 17.9428L298.55 19.7141L298.682 15.9428L302.015 17.7141L302.18 13L298.715 15L297.849 15.5L295.251 17L294.385 17.5L291.787 19L290.921 19.5L288.323 21L287.457 21.5L283.993 23.5L288.158 25.7141Z" fill="#CD9E8F"/>
<path fill-rule="evenodd" clip-rule="evenodd" d="M282.015 1.25L281.882 5.02128L278.55 3.25L278.418 7.02128L275.086 5.25L274.954 9.02128L271.622 7.25L271.49 11.0213L268.158 9.25L267.993 13.9641L271.457 11.9641L272.323 11.4641L274.921 9.9641L275.787 9.4641L278.385 7.9641L279.251 7.4641L281.849 5.9641L282.715 5.4641L286.18 3.4641L282.015 1.25Z" fill="#CD9E8F"/>
<path fill-rule="evenodd" clip-rule="evenodd" d="M282.015 25.7141L281.882 21.9428L278.55 23.7141L278.418 19.9428L275.086 21.7141L274.954 17.9428L271.622 19.7141L271.49 15.9428L268.158 17.7141L267.993 13L271.457 15L272.323 15.5L274.921 17L275.787 17.5L278.385 19L279.251 19.5L281.849 21L282.715 21.5L286.18 23.5L282.015 25.7141Z" fill="#CD9E8F"/>
<mask id="path-57-inside-9_0_15468" fill="white">
<path fill-rule="evenodd" clip-rule="evenodd" d="M319.18 19L328.18 13.5L319.18 8L310.18 13.5L319.18 19Z"/>
</mask>
<path d="M328.18 13.5L328.701 14.3533L330.097 13.5L328.701 12.6467L328.18 13.5ZM319.18 19L318.658 19.8533L319.18 20.1719L319.701 19.8533L319.18 19ZM319.18 8L319.701 7.14672L319.18 6.82805L318.658 7.14672L319.18 8ZM310.18 13.5L309.658 12.6467L308.262 13.5L309.658 14.3533L310.18 13.5ZM327.658 12.6467L318.658 18.1467L319.701 19.8533L328.701 14.3533L327.658 12.6467ZM318.658 8.85328L327.658 14.3533L328.701 12.6467L319.701 7.14672L318.658 8.85328ZM318.658 7.14672L309.658 12.6467L310.701 14.3533L319.701 8.85328L318.658 7.14672ZM309.658 14.3533L318.658 19.8533L319.701 18.1467L310.701 12.6467L309.658 14.3533Z" fill="white" mask="url(#path-57-inside-9_0_15468)"/>
<circle cx="319.18" cy="13.5" r="1.5" transform="rotate(90 319.18 13.5)" fill="#64331F"/>
<path fill-rule="evenodd" clip-rule="evenodd" d="M322.158 1.25L322.29 5.02128L325.622 3.25L325.754 7.02128L329.086 5.25L329.218 9.02128L332.55 7.25L332.682 11.0213L336.015 9.25L336.18 13.9641L332.715 11.9641L331.849 11.4641L329.251 9.9641L328.385 9.4641L325.787 7.9641L324.921 7.4641L322.323 5.9641L321.457 5.4641L317.993 3.4641L322.158 1.25Z" fill="#CD9E8F"/>
<path fill-rule="evenodd" clip-rule="evenodd" d="M322.158 25.7141L322.29 21.9428L325.622 23.7141L325.754 19.9428L329.086 21.7141L329.218 17.9428L332.55 19.7141L332.682 15.9428L336.015 17.7141L336.18 13L332.715 15L331.849 15.5L329.251 17L328.385 17.5L325.787 19L324.921 19.5L322.323 21L321.457 21.5L317.993 23.5L322.158 25.7141Z" fill="#CD9E8F"/>
<path fill-rule="evenodd" clip-rule="evenodd" d="M316.015 1.25L315.882 5.02128L312.55 3.25L312.418 7.02128L309.086 5.25L308.954 9.02128L305.622 7.25L305.49 11.0213L302.158 9.25L301.993 13.9641L305.457 11.9641L306.323 11.4641L308.921 9.9641L309.787 9.4641L312.385 7.9641L313.251 7.4641L315.849 5.9641L316.715 5.4641L320.18 3.4641L316.015 1.25Z" fill="#CD9E8F"/>
<path fill-rule="evenodd" clip-rule="evenodd" d="M316.015 25.7141L315.882 21.9428L312.55 23.7141L312.418 19.9428L309.086 21.7141L308.954 17.9428L305.622 19.7141L305.49 15.9428L302.158 17.7141L301.993 13L305.457 15L306.323 15.5L308.921 17L309.787 17.5L312.385 19L313.251 19.5L315.849 21L316.715 21.5L320.18 23.5L316.015 25.7141Z" fill="#CD9E8F"/>
</svg>
