<svg width="1600" height="420" viewBox="0 0 1600 420" fill="none" xmlns="http://www.w3.org/2000/svg">
<path fill-rule="evenodd" clip-rule="evenodd" d="M1565 32H15H11V36V404V408H15H1542.01C1542.26 406.65 1542.55 405.316 1542.89 404H15V36H1565.23C1565.08 34.6873 1565 33.3526 1565 32ZM1585 63.6318C1586.29 64.2455 1587.63 64.7823 1589 65.2365V360.2C1587.65 360.474 1586.32 360.794 1585 361.157V63.6318Z" fill="white"/>
<mask id="path-2-inside-1_0_19124" fill="white">
<path fill-rule="evenodd" clip-rule="evenodd" d="M1565 20H4H0V24V416V420H4H1565C1565 418.647 1565.08 417.313 1565.23 416H4V24H1565.23C1565.08 22.6873 1565 21.3526 1565 20ZM1596 54.7739C1597.31 54.9233 1598.65 55 1600 55V385C1598.65 385 1597.31 385.077 1596 385.226V54.7739Z"/>
</mask>
<path d="M1565 20H1569V16H1565V20ZM0 20V16H-4V20H0ZM0 420H-4V424H0V420ZM1565 420V424H1569V420H1565ZM1565.23 416L1569.2 416.452L1569.71 412H1565.23V416ZM4 416H0V420H4V416ZM4 24V20H0V24H4ZM1565.23 24V28H1569.71L1569.2 23.548L1565.23 24ZM1596 54.7739L1596.45 50.7996L1592 50.293V54.7739H1596ZM1600 55H1604V51H1600V55ZM1600 385V389H1604V385H1600ZM1596 385.226H1592V389.707L1596.45 389.2L1596 385.226ZM1565 16H4V24H1565V16ZM4 16H0V24H4V16ZM-4 20V24H4V20H-4ZM-4 24V416H4V24H-4ZM-4 416V420H4V416H-4ZM0 424H4V416H0V424ZM4 424H1565V416H4V424ZM1561.25 415.548C1561.09 417.01 1561 418.496 1561 420H1569C1569 418.799 1569.07 417.615 1569.2 416.452L1561.25 415.548ZM4 420H1565.23V412H4V420ZM0 24V416H8V24H0ZM1565.23 20H4V28H1565.23V20ZM1561 20C1561 21.5041 1561.09 22.9897 1561.25 24.452L1569.2 23.548C1569.07 22.3849 1569 21.2011 1569 20H1561ZM1595.55 58.7483C1597.01 58.9147 1598.5 59 1600 59V51C1598.8 51 1597.61 50.9319 1596.45 50.7996L1595.55 58.7483ZM1604 385V55H1596V385H1604ZM1600 381C1598.5 381 1597.01 381.085 1595.55 381.252L1596.45 389.2C1597.61 389.068 1598.8 389 1600 389V381ZM1600 385.226V54.7739H1592V385.226H1600Z" fill="#E7532C" mask="url(#path-2-inside-1_0_19124)"/>
<path d="M12 31H11V32V408V409H12H1588H1589V408V32V31H1588H12Z" stroke="#E3D9CC" stroke-width="2"/>
<path fill-rule="evenodd" clip-rule="evenodd" d="M465 0H1139V40H465V0Z" fill="white"/>
</svg>
