<svg width="200" height="200" viewBox="0 0 200 200" fill="none" xmlns="http://www.w3.org/2000/svg">
<g clip-path="url(#clip0_71_195)">
<path fill-rule="evenodd" clip-rule="evenodd" d="M149.962 149.789C166.399 135.408 182.558 115.171 178.667 93.6771C174.82 72.4264 148.684 66.0956 132.268 52.0599C113.746 36.2226 102.202 6.25424 77.865 7.49034C53.2874 8.73852 38.4691 35.4418 27.3419 57.3886C18.2081 75.4037 17.7214 96.0513 23.091 115.525C27.7609 132.462 39.4183 146.207 54.3744 155.429C67.9193 163.78 83.8203 163.7 99.7039 162.763C117.66 161.704 136.426 161.632 149.962 149.789Z" fill="white"/>
<path d="M40.0671 70.8554C40.0671 70.8554 44.5219 74.8792 46.0266 77.0685C47.5313 79.2664 51.4367 84.7863 51.4367 84.7863L60.7352 99.2076L71.6737 116.461L72.9839 115.463L78.394 114.22C78.394 114.22 83.5167 120.214 85.6891 124.381C87.8616 128.549 90.4483 133.418 90.4483 133.418L84.2352 136.545L87.6165 144.018L90.1524 149.623C90.1524 149.623 97.2109 148.363 108.285 142.657C119.367 136.951 136.172 127.686 136.172 127.686L136.062 125.869L137.051 125.531L135.36 121.718L133.974 118.582L138.792 124.043L139.976 122.42C139.976 122.42 142.968 123.519 146.071 121.955C149.173 120.391 154.389 115.962 154.389 115.962L158.133 111.431L159.714 108.861L153.89 107.754L135.242 86.9504L127.372 74.9975L122.046 77.6096L128.369 71.8275L119.806 52.9684L113.179 40.297L107.456 30.4067L63.8122 55.2085L40.084 70.8385L40.0671 70.8554Z" fill="#CEA593"/>
<path d="M49.3572 66.5442C47.303 67.8798 45.2151 69.4352 43.3554 71.0159C45.139 70.8976 46.9057 70.644 48.6471 70.2298C47.6243 71.0159 46.4746 71.6246 45.2574 72.0388C45.4011 71.988 48.2244 75.4961 48.4865 76.0033C48.8669 76.7472 51.4367 81.6078 52.3919 81.4049C54.0487 81.0584 55.6464 80.4413 57.1172 79.596C55.8492 80.5596 54.5897 81.5233 53.3302 82.487C52.9751 85.1075 55.6379 86.9756 57.4723 88.886C61.5383 93.1211 62.5104 100.019 67.4386 103.206C70.5663 101.532 73.694 99.8499 76.8217 98.1761C74.1167 100.425 71.1665 102.36 68.0388 103.958C70.0422 107.314 72.0879 110.662 74.5985 113.662C80.1185 107.661 86.3147 102.284 93.035 97.6689C91.5726 100.467 88.9014 103.443 86.6021 105.607C84.9453 107.162 82.9587 108.43 81.5048 110.18C82.1726 109.487 82.8319 108.793 83.4997 108.092C82.1472 109.478 80.7947 110.856 79.4507 112.242C79.3746 112.318 79.2985 112.403 79.2985 112.504C79.2985 112.631 79.3915 112.733 79.4845 112.817C81.2005 114.389 83.3476 115.903 84.5818 117.855C84.9622 118.464 87.8109 124.821 87.4305 125.1C88.1237 124.635 88.8168 124.161 89.5015 123.688C86.4668 125.751 91.1161 129.884 92.0037 131.626C92.0882 131.786 95.7907 129.555 96.3317 129.377C96.4585 129.58 96.5938 129.783 96.7206 129.977C101.277 127.881 105.622 125.336 109.671 122.386C107.583 124.483 105.495 126.613 103.187 128.481C101.285 130.028 99.5102 130.417 97.3208 131.38C98.0308 132.826 98.9522 134.17 100.051 135.345C99.4341 134.026 98.4873 132.86 97.3292 131.972C97.101 131.795 96.8474 131.626 96.56 131.6C96.2557 131.575 95.9598 131.702 95.6808 131.837C94.8778 132.217 85.9596 137.602 86.0019 137.653C88.3942 140.738 90.2792 144.06 91.6148 147.754C91.7839 146.774 91.953 145.793 92.122 144.813C92.5701 145.599 93.0265 146.385 93.4746 147.171C93.6605 146.402 93.838 145.633 94.024 144.872C94.2692 145.489 94.6834 146.038 95.2075 146.444C95.4188 146.182 95.6386 145.912 95.8499 145.649C96.0021 146.013 96.5853 145.996 96.8558 145.709C97.1263 145.421 97.1771 144.99 97.2109 144.593C97.5406 144.999 98.1745 145.125 98.631 144.872C98.8593 144.745 99.0452 144.542 99.2735 144.407C99.8398 144.06 100.558 144.187 101.209 144.322C101.192 143.807 101.175 143.291 101.159 142.775C101.657 143.536 102.824 143.147 103.61 142.691C110.567 138.608 118.327 136.579 125.098 131.921C128.268 129.74 131.353 127.238 135.073 126.241C134.278 125.04 133.627 123.756 133.129 122.403C133.974 122.623 134.811 122.834 135.648 123.054C134.05 119.056 132.883 114.888 132.165 110.636C133.898 114.778 135.935 120.18 139.824 122.733C139.84 121.913 139.967 121.101 140.069 120.281C139.562 124.271 151.971 117.703 152.782 116.908C154.862 114.897 157.17 112.758 158.81 110.374C157.77 110.129 154.473 109.326 153.425 109.563C151.574 109.977 150.204 113.181 148.716 114.432C147.093 115.793 145.107 116.241 143.34 117.331C147.313 114.88 149.046 111.465 151.962 108.142C151.464 108.709 143.146 99.6977 142.216 98.7763C142.013 98.5734 141.793 98.3621 141.506 98.3114C141.125 98.2438 140.77 98.5058 140.466 98.751C138.674 100.213 136.958 101.76 135.318 103.383C136.941 101.718 138.539 100.019 140.103 98.2945C140.187 98.2015 140.28 98.0916 140.28 97.9648C140.28 97.7366 140.035 97.6098 139.832 97.5168C138.37 96.8321 138.378 95.6233 137.693 94.4229C136.654 92.597 135.048 90.9233 133.78 89.2495C131.345 86.0373 129.088 82.115 126.239 79.2747C124.303 77.3474 121.041 78.2181 119.477 80.678C121.328 77.7616 123.686 75.4454 126.248 73.163C125.014 72.174 124.709 69.5028 123.982 68.0827C122.816 65.7834 121.658 63.4756 120.423 61.2102C120.018 60.4663 119.603 59.714 119.384 58.894C117.718 59.8746 116.112 60.965 114.599 62.1654C114.971 61.7174 119.282 56.2904 119.122 55.9861C116.89 51.7003 114.658 47.4061 112.427 43.1203C111.81 43.7543 110.618 43.6866 110.178 44.4643C110.018 44.7517 110.001 45.0899 109.975 45.4111C109.882 46.5776 109.612 47.7357 109.181 48.8178C109.248 47.7273 109.324 46.6368 109.392 45.5464C109.451 44.6926 109.51 43.8303 109.823 43.0442C110.187 42.1312 110.905 41.4888 111.852 41.269C111.581 40.6266 107.583 33.8978 107.532 33.9232C106.814 34.3205 106.095 34.7262 105.377 35.1235C105.233 35.1996 105.089 35.2841 105.005 35.4194C104.819 35.7237 105.022 36.1126 105.199 36.4169C105.935 37.6595 106.416 39.0627 106.602 40.4998C105.571 39.0543 104.599 37.5158 103.458 36.1633C100.787 37.6595 97.6082 38.0314 94.7679 39.3755C91.2514 41.0323 87.9123 43.0442 84.5818 45.0392C83.5505 45.6562 82.4685 46.324 81.9105 47.3976C81.3526 48.4627 81.5809 50.035 82.6882 50.5169C82.1726 49.7476 81.6654 48.9784 81.1498 48.2091C80.7778 47.6597 59.4926 59.9676 57.5145 61.4553C57.3539 61.5737 57.1933 61.7089 57.1426 61.8949C57.1088 62.0386 57.1426 62.1823 57.1764 62.326C57.5906 63.9152 58.0048 65.5044 58.419 67.1021C58.1063 65.9102 56.3057 63.7123 55.0293 63.4503C53.364 63.1122 51.3437 65.3945 53.3894 66.3075C52.5948 64.9296 50.9717 65.4791 49.3572 66.5273V66.5442Z" fill="#EEC3AE"/>
<g style="mix-blend-mode:color-dodge">
<path d="M71.5046 115.378C71.5046 115.378 91.0992 97.8972 98.8255 91.3037C106.56 84.7017 124.54 69.3338 124.54 69.3338L114.515 47.5498L47.6243 79.4523L60.7268 99.2244L71.5046 115.387V115.378Z" fill="url(#paint0_linear_71_195)"/>
</g>
<g style="mix-blend-mode:color-dodge">
<path d="M84.2352 136.537L89.4931 147.645C89.4931 147.645 113.661 137.661 123.653 132.108C133.644 126.554 136.848 125.168 136.442 124.466C136.037 123.756 133.416 116.79 133.416 116.79L136.662 121.989L149.494 113.612L153.89 107.762L144.135 97.8467L107.854 123.57L97.2109 130.442L96.3318 129.377L84.2352 136.537H84.2352Z" fill="url(#paint1_linear_71_195)"/>
</g>
<g style="mix-blend-mode:color-dodge">
<path d="M117.068 80.0271L127.364 75.0059L137.296 89.3003L117.38 107.441L110.559 84.2706L117.068 80.0271V80.0271Z" fill="url(#paint2_linear_71_195)"/>
</g>
<g style="mix-blend-mode:color-dodge">
<path d="M142.292 121.549L154.617 107.813L159.714 108.87L156.984 113.519L149.68 119.639C149.68 119.639 143.535 125.32 142.3 121.558L142.292 121.549Z" fill="url(#paint3_linear_71_195)"/>
</g>
<g style="mix-blend-mode:color-dodge">
<path d="M50.921 83.9071L110.102 35.0137L107.448 30.4236L67.3287 53.1797L47.5313 65.8257L40.0671 70.8554C40.0671 70.8554 44.3444 74.9805 50.9295 83.9071H50.921Z" fill="url(#paint4_linear_71_195)"/>
</g>
<g style="mix-blend-mode:color-burn">
<path d="M74.2942 113.13C78.935 112.285 81.7415 109.63 85.4863 106.799C84.1591 108.608 82.8319 110.417 81.5048 112.234C81.1159 112.767 80.7102 113.325 80.5749 113.967C80.4397 114.618 80.6426 115.387 81.2174 115.708C82.3332 115.134 83.4406 114.559 84.5564 113.984C81.5978 115.514 81.8514 121.592 85.5032 118.853C86.2048 118.329 86.9064 117.796 87.608 117.272C86.6528 118.151 85.7737 119.115 84.996 120.146C84.8185 120.383 84.6409 120.637 84.5902 120.932C84.531 121.296 84.6917 121.668 84.8523 121.998C85.3848 123.113 86.0019 124.187 86.6866 125.218C87.7179 124.483 88.7492 123.739 89.7805 123.003C88.6985 123.883 87.8109 124.982 87.1938 126.224C88.0053 128.583 89.1042 130.84 90.4568 132.936C90.1355 132.387 98.8001 128.693 99.806 128.059C102.452 126.376 105.081 124.677 107.718 122.987C111.742 120.408 115.757 117.822 119.789 115.252L113.652 82.2505L85.2918 102.919L74.3026 113.13H74.2942Z" fill="url(#paint5_linear_71_195)"/>
</g>
<g style="mix-blend-mode:color-burn">
<path d="M132.157 110.636C132.157 110.636 133.069 115.81 134.498 118.278C135.927 120.746 139.494 123.637 139.494 123.637L139.815 122.724C139.815 122.724 143.492 123.206 145.36 122.361C147.229 121.516 148.869 119.859 148.869 119.859L149.993 112.842L153.89 107.754L142.765 96.2742L131.996 106.993L132.173 110.628L132.157 110.636Z" fill="url(#paint6_linear_71_195)"/>
</g>
<g style="mix-blend-mode:color-burn">
<path d="M55.8239 61.0158C55.8239 61.0158 79.1041 51.5397 92.68 47.6935C106.247 43.8473 123.94 60.9566 123.94 60.9566L114.599 42.7822L107.439 30.4236C107.439 30.4236 60.0167 54.8196 55.8239 61.0243V61.0158Z" fill="url(#paint7_linear_71_195)"/>
</g>
<g style="mix-blend-mode:color-burn">
<path d="M107.372 88.9454L128.361 71.836L121.024 55.0986C121.024 55.0986 121.396 62.6643 111.057 77.3813C100.711 92.0984 107.38 88.9454 107.38 88.9454H107.372Z" fill="url(#paint8_linear_71_195)"/>
</g>
<g style="mix-blend-mode:color-burn">
<path d="M87.6165 144.01C87.6165 144.01 99.1129 140.654 114.895 134.111C130.677 127.568 136.434 124.466 136.434 124.466L137.355 126.055L136.062 125.861L136.806 127.551C136.806 127.551 119.882 137.822 112.756 141.009C105.639 144.187 97.0756 147.729 97.0756 147.729L90.1525 149.614L87.6165 144.01V144.01Z" fill="url(#paint9_linear_71_195)"/>
</g>
<g style="mix-blend-mode:color-burn">
<path d="M89.4677 130.916C89.4677 130.916 94.5397 128.684 107.879 119.546C121.218 110.408 129.375 103.324 129.375 103.324C129.375 103.324 122.765 111.87 117.702 115.742C112.638 119.622 108.733 123.063 108.733 123.063L97.2024 130.442C96.3233 129.377 90.4399 133.418 90.4399 133.418C90.4399 133.418 88.6562 131.152 89.4677 130.916V130.916Z" fill="url(#paint10_linear_71_195)"/>
</g>
<path d="M78.4278 114.085C79.3323 115.531 80.4143 116.841 81.4287 118.21C82.5868 119.766 83.5674 121.431 84.5142 123.122C86.3062 126.334 87.9377 129.614 89.9158 132.716C89.9834 132.818 90.1609 132.716 90.1017 132.598C88.2167 129.293 86.5598 125.852 84.6832 122.538C83.8294 121.042 82.9503 119.554 81.9275 118.16C80.8624 116.714 79.7127 115.336 78.7575 113.815C78.6138 113.586 78.2926 113.857 78.4363 114.085H78.4278Z" fill="#BB8774"/>
<path d="M40.0502 71.109C41.259 72.2587 42.5016 73.3238 43.5921 74.5917C44.6487 75.8259 45.6209 77.1362 46.5592 78.4633C48.6302 81.3966 50.6421 84.3721 52.637 87.3477C56.6946 93.3917 60.6422 99.5119 64.5223 105.674C66.7455 109.199 68.9433 112.741 71.1158 116.3C71.4032 116.765 72.1893 116.41 71.8935 115.945C64.1334 103.476 56.255 91.0755 47.7426 79.0973C46.6691 77.5842 45.5786 76.0795 44.3698 74.6678C43.1863 73.2815 41.8592 71.8022 40.2784 70.8639C40.1263 70.7709 39.898 70.9738 40.0502 71.1175V71.109Z" fill="#BB8774"/>
<path d="M84.2014 137.002C85.1312 139.2 86.2302 141.339 87.1854 143.528C87.6757 144.644 88.166 145.76 88.6478 146.884C89.0705 147.873 89.4424 148.946 90.051 149.842C90.1271 149.952 90.3131 149.859 90.2877 149.733C90.0679 148.676 89.5438 147.662 89.1127 146.672C88.6309 145.557 88.1321 144.441 87.6334 143.325C86.6528 141.161 85.7061 138.921 84.4973 136.867C84.3958 136.689 84.1253 136.808 84.2098 136.994L84.2014 137.002Z" fill="#BB8774"/>
<path d="M159.79 108.202C157.575 108.329 155.462 107.652 153.585 106.511C153.23 106.291 152.892 106.773 153.214 107.035C154.87 108.413 156.967 109.047 159.089 109.081C156.823 112.834 153.695 115.784 150.145 118.354C148.505 119.546 146.831 120.78 145.073 121.795C144.38 122.2 143.619 122.555 142.816 122.665C141.928 122.784 141.32 122.513 140.584 122.065C140.525 122.031 140.458 121.989 140.424 121.93C140.398 121.888 140.39 121.837 140.382 121.786C140.305 121.431 140.238 121.068 140.162 120.713C139.993 121.279 139.815 121.837 139.646 122.403C139.604 122.547 139.19 123.409 139.35 123.536C138.184 122.598 137.102 121.541 136.138 120.391C135.656 119.817 135.2 119.225 134.777 118.599C134.422 118.084 134.211 117.458 133.923 116.9C133.703 116.469 133.34 115.979 133.222 115.505C133.94 118.236 134.591 121.144 135.842 123.68C136.028 124.052 136.163 124.449 136.341 124.829C135.758 124.905 135.183 124.981 134.6 125.058C134.574 125.058 134.54 125.058 134.515 125.049C134.49 125.032 134.498 124.99 134.515 124.981C134.845 125.522 135.166 126.055 135.496 126.596C135.597 126.757 135.969 127.179 135.96 127.365C135.96 127.594 135.8 127.61 135.589 127.737C134.802 128.211 134.008 128.684 133.222 129.149C131.734 130.037 130.238 130.916 128.741 131.786C125.791 133.494 122.824 135.168 119.832 136.782C113.762 140.045 107.558 143.038 101.184 145.675C97.5828 147.163 93.8972 148.524 90.1271 149.538C89.8481 149.614 89.9073 150.054 90.1947 149.995C97.2616 148.532 103.999 145.54 110.499 142.463C117.118 139.327 123.551 135.802 129.883 132.116C131.649 131.093 133.399 130.053 135.157 129.005C135.69 128.684 136.73 128.329 136.992 127.712C137.169 127.298 136.941 126.943 136.831 126.554C136.738 126.224 136.662 126.351 136.924 126.156C137.102 126.021 137.448 125.962 137.66 125.886C137.448 125.176 137.178 124.483 136.857 123.815C136.518 123.113 136.197 122.065 135.682 121.49C136.316 122.2 137.042 122.809 137.778 123.401C138.437 123.925 139.097 124.204 139.841 124.593C139.908 124.44 140.382 122.978 140.255 122.885C141.438 123.781 142.892 123.781 144.329 123.181C146.248 122.378 147.998 120.975 149.689 119.791C153.898 116.833 157.685 113.46 160.221 108.92C160.416 108.582 160.187 108.21 159.799 108.236L159.79 108.202Z" fill="#864B35"/>
<path d="M107.498 30.6096C113.441 40.8888 118.868 51.4722 123.771 62.2923C125.183 65.3947 126.408 68.59 127.871 71.6585C128.167 72.284 129.08 71.8614 128.843 71.2189C127.82 68.4125 126.493 65.6905 125.267 62.9686C124.05 60.2889 122.799 57.6177 121.505 54.9718C118.893 49.6294 116.138 44.363 113.213 39.1897C111.531 36.2141 109.806 33.2724 108.039 30.356C107.845 30.0348 107.304 30.2631 107.498 30.6012V30.6096Z" fill="#9B654F"/>
<path d="M117.465 83.1126C117.465 82.1321 117.169 81.1599 116.763 80.2808C116.679 80.1033 116.4 80.2301 116.484 80.4076C116.898 81.2867 117.093 82.1659 117.228 83.1211C117.245 83.2563 117.465 83.2563 117.465 83.1211V83.1126Z" fill="#9B654F"/>
<path d="M121.624 78.1084C122.926 77.2292 124.008 75.9782 125.191 74.9469C126.29 73.9832 127.659 73.1294 128.598 72.0136C128.733 71.853 128.513 71.5909 128.336 71.6924C127.034 72.4278 125.91 73.7212 124.819 74.7355C123.703 75.7837 122.418 76.7897 121.556 78.0577C121.531 78.0999 121.582 78.1422 121.624 78.1168V78.1084Z" fill="#9B654F"/>
<path d="M122.866 77.4744C124.464 76.7812 126.104 75.9275 127.592 75.023C127.727 74.9384 127.643 74.7102 127.482 74.7863C125.884 75.5133 124.261 76.4009 122.782 77.3392C122.706 77.3899 122.782 77.5082 122.866 77.4744Z" fill="#BB8774"/>
<path d="M126.848 75.2173C128.082 77.6265 129.68 79.8666 131.218 82.0813C132.884 84.482 134.6 86.8405 136.375 89.1651C139.866 93.7299 143.56 98.1678 147.508 102.352C149.469 104.432 151.481 106.46 153.636 108.337C154.507 109.098 155.521 107.635 154.676 106.875C146.544 99.5119 139.629 90.7966 133.069 82.0475C131.252 79.6214 129.561 77.0686 127.609 74.7439C127.296 74.3635 126.628 74.7524 126.856 75.2173H126.848Z" fill="#BB8774"/>
<path d="M44.0654 71.557C43.6005 71.8191 43.1863 72.1572 42.7383 72.4193C42.3325 72.656 42.789 73.197 43.0849 72.8419C43.423 72.4362 43.8288 72.0811 44.1584 71.6669C44.2092 71.6078 44.1331 71.5063 44.0654 71.5486V71.557Z" fill="#7F4128"/>
<path d="M105.766 39.9165C105.368 38.6992 104.633 37.6257 104.117 36.4676C103.618 35.3518 103.061 34.3374 102.35 33.3399C102.207 33.137 101.869 33.2131 101.784 33.4329C101.708 33.6527 101.691 33.7034 101.674 33.9232C101.657 34.1091 101.886 34.2444 102.029 34.1176C102.198 33.9739 102.232 33.9316 102.367 33.7457C102.19 33.7457 102.021 33.7626 101.843 33.7626C102.477 34.7431 103.17 35.6899 103.83 36.6451C104.548 37.6849 104.971 38.9021 105.622 39.9841C105.673 40.0687 105.799 40.0179 105.766 39.9165V39.9165Z" fill="#7F4128"/>
<path d="M51.7241 65.0819C51.4029 64.5239 51.0901 63.9407 50.7182 63.4166C50.5491 63.1799 50.2025 63.4673 50.3716 63.704C50.7182 64.2196 51.1577 64.7015 51.555 65.1833C51.6227 65.2678 51.7833 65.1833 51.7241 65.0819V65.0819Z" fill="#7F4128"/>
<path d="M56.7791 64.1688C56.5678 63.4672 56.1705 62.8501 55.8831 62.1823C55.6548 61.6498 55.435 61.0411 54.9194 60.7537C54.7588 60.6607 54.5221 60.7622 54.5559 60.9819C54.6658 61.5737 55.1307 61.971 55.4942 62.4359C55.9422 63.0107 56.2212 63.6785 56.6185 64.2872C56.6861 64.3886 56.8214 64.2872 56.7876 64.1773L56.7791 64.1688Z" fill="#7F4128"/>
<path d="M67.2104 104.127C66.475 104.322 65.6804 104.66 65.1055 105.176C64.7082 105.522 65.2662 106.165 65.6212 105.801C65.8917 105.531 66.1368 105.252 66.4158 104.99C66.6863 104.736 66.9906 104.525 67.2949 104.322C67.3795 104.263 67.3118 104.111 67.2104 104.136V104.127Z" fill="#7F4128"/>
<path d="M119.857 56.8908C120.043 56.5273 120.423 56.2652 120.728 56.0201C120.973 55.8257 121.26 55.6143 121.311 55.2847C121.319 55.1917 121.252 55.1325 121.167 55.1156C120.795 55.0395 120.44 55.3777 120.263 55.6735C120.026 56.0455 119.933 56.4597 119.764 56.8485C119.739 56.9077 119.823 56.933 119.849 56.8823L119.857 56.8908Z" fill="#7F4128"/>
<path d="M110.432 44.2447C110.635 44.0587 110.812 43.822 110.888 43.56C110.947 43.3402 110.981 43.0021 110.821 42.8161C110.787 42.7823 110.744 42.7992 110.728 42.8414C110.677 43.0528 110.728 43.2895 110.694 43.5092C110.652 43.7713 110.567 43.9995 110.398 44.2109C110.381 44.2278 110.415 44.2531 110.423 44.2362L110.432 44.2447Z" fill="#9B654F"/>
<path d="M110.821 42.6048C111.125 42.8415 111.7 43.1205 112.055 42.8077C112.224 42.6555 112.198 42.4442 112.275 42.2498C112.461 41.7595 113.069 41.7341 113.509 41.6073C113.914 41.489 113.821 40.8381 113.407 40.948C112.942 41.0748 112.562 41.2692 112.275 41.6665C112.165 41.8187 112.122 41.9455 112.055 42.1145C112.038 42.1822 112.029 42.2498 112.029 42.3259C111.835 42.4696 111.649 42.6217 111.455 42.7654C111.294 42.7908 110.981 42.6133 110.846 42.5541C110.821 42.5457 110.804 42.5795 110.829 42.5879L110.821 42.6048Z" fill="#7F4128"/>
<path d="M52.3412 82.7575C52.096 82.8843 51.8847 82.9351 51.6734 83.1295C51.4367 83.3408 51.1915 83.5268 50.9887 83.7719C50.6928 84.1185 51.2507 84.6342 51.5804 84.3214C51.8086 84.1016 51.9861 83.848 52.1806 83.6029C52.3581 83.3831 52.4004 83.1718 52.5102 82.9182C52.5525 82.8252 52.4342 82.7153 52.3412 82.766V82.7575Z" fill="#7F4128"/>
<g style="mix-blend-mode:multiply">
<path d="M54.4967 74.3974L55.5365 75.4456C55.5196 74.2199 55.5618 72.9857 55.6295 71.76L53.0259 73.3746L53.8881 74.7694L54.4883 74.3974H54.4967Z" fill="#664137"/>
<path d="M62.3075 67.6265L61.0734 68.3957L61.327 68.8099C61.6566 68.4126 61.9779 68.0238 62.3075 67.6349V67.6265Z" fill="#664137"/>
<path d="M62.1385 71.3457L60.8705 70.0608C60.0843 71.0076 59.3151 71.9543 58.5374 72.9011L58.6473 73.2308C58.6811 73.3322 58.7149 73.4252 58.7572 73.5266C59.8814 72.7996 61.0142 72.0727 62.1385 71.3372V71.3457Z" fill="#664137"/>
<path d="M62.5273 69.4184L63.0007 70.7793C63.6093 70.382 64.2179 69.9847 64.8266 69.5874L64.4124 68.2434L65.0041 67.8799L64.1419 66.4851L63.5248 66.8655C62.8739 67.6432 62.2314 68.4209 61.5805 69.1986L61.944 69.7819L62.5358 69.4184H62.5273Z" fill="#664137"/>
<path d="M63.1444 71.2106L63.1697 71.2697C63.3473 71.7769 63.8629 73.0111 64.1165 73.5183L64.0658 73.5521C63.6854 73.0534 63.0345 72.2588 62.4597 71.6586C61.2762 72.4278 60.1012 73.1886 58.9178 73.9494C59.2728 74.9384 59.6447 75.9528 59.78 76.2064L59.7293 76.2402C59.501 75.9613 58.6388 74.93 58.1654 74.4312C57.5653 74.8116 56.9735 75.192 56.3733 75.5724C56.2719 75.6992 56.1705 75.826 56.0775 75.9528L59.7039 79.6046L62.1976 78.0661L61.2931 75.192C60.4563 76.1641 59.5518 77.094 58.8163 78.1422C58.6473 78.3789 58.2584 78.1591 58.419 77.914C59.2221 76.7728 60.2196 75.7668 61.1156 74.6933C60.9804 74.3213 60.8113 73.8649 60.6929 73.6113L60.7352 73.5859C60.8958 73.7719 61.1579 74.0593 61.4115 74.3298C61.4453 74.2875 61.4791 74.2453 61.5129 74.203C61.6904 73.9748 62.0116 74.296 61.8341 74.5242C61.8003 74.5665 61.7581 74.6172 61.7242 74.6595C61.7581 74.6933 61.7919 74.7271 61.8257 74.7609L64.0489 76.9165L66.5933 75.3442L64.9618 70.0271C64.3616 70.4244 63.753 70.8132 63.1444 71.2106V71.2106Z" fill="#664137"/>
<path d="M60.5492 69.7397L59.9237 69.1057L57.692 70.492L58.3599 72.4109C59.0868 71.5233 59.8138 70.6357 60.5492 69.7482V69.7397Z" fill="#664137"/>
<path d="M56.0352 75.268C56.4833 74.6932 56.9482 74.1353 57.3793 73.6027V73.6027L56.8045 72.9518L57.43 72.563L56.5678 71.1682L56.0944 71.4641C56.0099 72.7321 55.9845 74.0085 55.993 75.2849L56.0268 75.2596L56.0352 75.268Z" fill="#664137"/>
<path d="M67.2273 66.4937L67.5739 67.8039C68.1825 67.4066 68.7912 67.0178 69.3998 66.6204L69.18 65.8005L69.814 66.3584C70.6424 65.8258 71.4708 65.2933 72.2992 64.7692L70.0507 62.825L65.9255 65.3778L66.7877 66.7642L67.2273 66.4937Z" fill="#664137"/>
<path d="M72.2485 71.8445L71.3778 70.4413L70.541 70.9569L70.3127 70.0862L72.5106 68.7253L73.1868 69.317L72.1724 69.951L72.9924 71.2782C74.2857 70.1708 75.6044 69.0972 76.9401 68.0406L76.4667 67.2798L75.7143 67.7447L72.6289 65.0735C71.8005 65.5976 70.9721 66.1301 70.1437 66.6627L71.3102 67.6855L69.907 68.5562L69.5097 67.0769C68.901 67.4742 68.2924 67.8631 67.6838 68.2604L68.6897 72.1066L67.9627 72.563L68.8334 73.9663L72.2485 71.853V71.8445Z" fill="#664137"/>
<path d="M75.2241 70.0017L77.3458 68.6915L77.1852 68.4294C76.5259 68.9451 75.875 69.4692 75.2241 70.0017Z" fill="#664137"/>
<path d="M74.6154 61.9119L75.241 62.9263C76.6019 62.081 77.9714 61.2526 79.3577 60.441L76.2131 59.0125L73.1361 60.9229L73.9983 62.3092L74.6154 61.9204V61.9119Z" fill="#664137"/>
<path d="M79.7043 58.759L80.3721 59.841C80.9807 59.4859 81.5893 59.1393 82.198 58.7928L81.4879 57.6516L82.198 57.212L81.3442 55.8257L78.1151 57.8291L78.9688 59.2154L79.6958 58.759H79.7043Z" fill="#664137"/>
<path d="M82.0289 64.7691L82.9757 65.2002L85.2834 63.7717L84.7086 62.8418C83.8125 63.4758 82.9165 64.1267 82.0289 64.7691Z" fill="#664137"/>
<path d="M77.3458 67.7278C78.3687 66.9332 79.4 66.147 80.4397 65.3693L80.203 64.9889L79.3746 65.5046L77.7009 62.7995L81.5471 64.5493C82.5107 63.8393 83.4829 63.1461 84.455 62.4529L82.4262 59.1731C81.8176 59.5197 81.2005 59.8663 80.5919 60.2213L81.2681 61.3202L79.8311 60.6693C78.3602 61.5315 76.9063 62.4107 75.4608 63.3067L77.5318 66.6542L76.8978 67.043L77.3289 67.7362L77.3458 67.7278Z" fill="#664137"/>
<path d="M77.5825 68.1167L77.7769 68.421L81.0737 66.3753L80.6848 65.7498C79.6451 66.5275 78.6138 67.3051 77.5825 68.1082V68.1167Z" fill="#664137"/>
<path d="M84.4972 57.5164C84.6663 57.4234 84.8354 57.3389 85.0044 57.2459L84.2352 55.9948L85.1566 55.42L85.9681 56.7303C86.7373 56.3245 87.515 55.9187 88.3012 55.5299L87.3798 54.0421L88.2843 53.4842L89.1381 54.8536L90.7188 53.8731L88.9944 51.0835L81.7922 55.5468L83.3899 58.125C83.7618 57.9222 84.1337 57.7024 84.5141 57.4995L84.4972 57.5164Z" fill="#664137"/>
<path d="M90.1271 58.4885L88.5294 55.9187C87.7517 56.3075 86.974 56.7133 86.1964 57.1191L87.9715 59.9847C88.6901 59.486 89.4001 58.9872 90.1186 58.4885H90.1271Z" fill="#664137"/>
<path d="M87.3629 60.9653L88.0391 62.0642L92.0291 59.5959L91.2176 58.2856C89.9327 59.1817 88.6478 60.0777 87.3544 60.9738L87.3629 60.9653Z" fill="#664137"/>
<path d="M90.9555 51.8357L92.1136 53.7038C93.3731 53.129 94.6411 52.5626 95.926 52.0385C96.205 51.9202 96.4839 51.8188 96.7713 51.7089L96.1289 50.6691L94.0917 51.9287L93.1787 50.4493L94.8947 49.3842L95.4864 50.3394L97.3461 49.1898L95.8753 46.8145L89.4086 50.8213L90.2877 52.2414L90.964 51.8188L90.9555 51.8357Z" fill="#664137"/>
<path d="M97.1602 53.0529L97.7773 54.0504L96.0612 55.1155L94.9792 53.3657L96.9657 52.1399C96.2641 52.402 95.5625 52.681 94.8778 52.9768C94.0325 53.3403 93.1956 53.7122 92.3587 54.0926L93.8465 56.5018L93.1702 56.9245L94.0578 58.3531L100.525 54.3462L99.0199 51.9202L97.1602 53.0698V53.0529Z" fill="#664137"/>
<path d="M102.917 46.3157C103.153 46.5439 103.365 46.8229 103.551 47.1187C103.982 47.8119 104.236 48.5051 104.227 49.1221C105.098 48.8263 105.968 48.5135 106.831 48.1838C106.831 47.3554 106.569 46.4763 106.019 45.5887C105.833 45.2928 105.622 45.0223 105.385 44.7856C104.582 45.3182 103.745 45.8169 102.917 46.3157V46.3157Z" fill="#664137"/>
<path d="M100.212 48.074C99.9751 48.2431 99.7553 47.8543 99.9836 47.6852C100.237 47.4992 100.508 47.3132 100.77 47.1357L100.153 46.1382L100.558 45.8847C101.252 45.4535 101.953 45.5803 102.553 46.0114C103.39 45.5043 104.227 45.0055 105.047 44.473C103.686 43.3571 101.725 43.205 99.6877 44.473L96.4163 46.5017L97.2954 47.9134L97.9632 47.4992L99.8737 50.5931C100.711 50.3057 101.556 50.0267 102.393 49.7478L101.015 47.5246C100.744 47.7021 100.482 47.8881 100.22 48.0825L100.212 48.074Z" fill="#664137"/>
<path d="M104.151 49.6378C104.041 49.9929 103.813 50.3056 103.441 50.5423L103.035 50.7959L102.638 50.1535C101.801 50.4324 100.964 50.7198 100.119 51.0073L100.829 52.1569L100.161 52.5711L101.049 53.9997L104.278 51.9963C105.766 51.0749 106.602 49.9337 106.788 48.6826C105.909 49.0123 105.03 49.3335 104.143 49.6378H104.151Z" fill="#664137"/>
</g>
<path d="M71.3356 116.748C72.6036 115.75 73.7109 114.542 74.9028 113.443C76.1286 112.31 77.3627 111.186 78.6054 110.07C81.0483 107.872 83.5674 105.759 85.9428 103.493C86.0357 103.409 85.9174 103.273 85.8244 103.35C83.1363 105.319 80.651 107.568 78.1996 109.825C77.0077 110.924 75.8327 112.039 74.6661 113.164C73.5081 114.296 72.2485 115.378 71.2172 116.638C71.1581 116.706 71.2595 116.79 71.3271 116.739L71.3356 116.748Z" fill="#9B654F"/>
<path d="M71.3778 116.477C72.6205 115.919 73.8377 115.378 75.1564 115.015C76.2807 114.702 77.498 114.668 78.6054 114.322C78.6561 114.305 78.6392 114.229 78.5884 114.229C77.3881 114.094 75.9848 114.542 74.8437 114.888C73.6433 115.252 72.4091 115.733 71.3356 116.393C71.2849 116.427 71.3187 116.503 71.3694 116.477H71.3778Z" fill="#BB8774"/>
<path d="M78.3856 114.339C78.9519 112.75 80.558 111.499 81.7246 110.34C83.0095 109.073 84.362 107.872 85.63 106.596C85.7145 106.511 85.6046 106.384 85.5116 106.452C83.914 107.652 82.4685 109.073 81.0652 110.484C80.017 111.549 78.5208 112.733 78.0728 114.221C78.0136 114.423 78.3095 114.542 78.3856 114.339Z" fill="#9B654F"/>
<path d="M97.2785 130.417C101.353 128.05 105.377 125.573 109.181 122.775C109.274 122.707 109.164 122.581 109.071 122.64C105.148 125.201 101.201 127.737 97.0925 130.011C96.8474 130.146 97.0334 130.552 97.2701 130.408L97.2785 130.417Z" fill="#C29F90"/>
<path d="M84.2605 136.985C88.4702 134.905 92.5447 132.395 96.4078 129.724C96.6276 129.571 96.3656 129.267 96.1458 129.411C92.1981 131.947 88.1659 134.314 84.1422 136.723C83.9816 136.816 84.0915 137.078 84.2605 136.985Z" fill="#C29F90"/>
<path d="M149.401 114.018C150.28 112.893 151.312 111.845 152.225 110.738C152.681 110.18 153.137 109.622 153.585 109.064C153.983 108.565 154.456 108.092 154.701 107.5C154.811 107.221 154.473 107.027 154.253 107.179C153.729 107.551 153.383 108.134 152.994 108.641C152.554 109.208 152.123 109.783 151.7 110.366C150.855 111.532 150.128 112.784 149.291 113.942C149.241 114.009 149.35 114.085 149.401 114.018Z" fill="#7D513F"/>
<path d="M96.4755 129.563C96.6784 130.222 97.194 130.806 97.5828 131.372C98.0309 132.023 98.4535 132.708 98.9861 133.291C99.0706 133.384 99.2397 133.291 99.1805 133.172C98.8424 132.496 98.3775 131.879 97.9548 131.262C97.5406 130.662 97.1602 129.935 96.5854 129.478C96.5262 129.428 96.4586 129.504 96.4755 129.571V129.563Z" fill="#C29F90"/>
<path d="M93.4915 108.379C93.4915 108.379 93.5675 108.438 93.6014 108.464C93.5844 108.438 93.5591 108.405 93.5422 108.379C93.5253 108.379 93.5084 108.379 93.4915 108.379Z" fill="#664137"/>
<path fill-rule="evenodd" clip-rule="evenodd" d="M117.296 66.1047C117.296 66.1047 117.22 66.0793 117.194 66.1047C117.144 66.0793 117.093 66.0624 117.042 66.0455C116.856 65.9948 116.696 66.0455 116.586 66.13C116.569 65.9779 116.349 65.9187 116.231 66.0202C115.902 66.3171 115.649 66.6897 115.397 67.0602L115.397 67.0602C115.312 67.1853 115.228 67.3102 115.14 67.4318C114.718 68.0151 114.278 68.5984 113.83 69.1648C113.069 70.1369 112.283 71.0836 111.471 72.0135C110.694 72.9011 109.891 73.7633 109.071 74.6171C108.881 74.814 108.682 75.0428 108.476 75.2806C107.93 75.9104 107.329 76.6042 106.679 76.9417C105.852 77.3701 104.931 76.903 104.143 76.503L104.143 76.5029C104.045 76.4531 103.949 76.4043 103.855 76.3584C103.12 75.995 102.393 75.5892 101.708 75.1327C101.006 74.6593 100.322 74.1522 99.6708 73.6111L99.4953 73.464C98.4513 72.589 97.4553 71.7542 96.6868 70.5933C96.0105 69.579 95.1314 68.666 94.1424 67.9559C93.5422 67.5248 92.8406 67.0937 92.0713 67.0853C91.1905 67.0738 90.7315 67.5693 90.2492 68.09C90.0187 68.3389 89.7829 68.5935 89.4931 68.8013C89.2761 68.958 89.042 69.0994 88.8061 69.2418L88.8061 69.2419C88.5456 69.3991 88.2831 69.5577 88.0391 69.7396C87.8904 69.8483 87.7417 69.9586 87.5927 70.0691L87.5927 70.0692L87.5924 70.0693C86.6409 70.7754 85.6734 71.4932 84.548 71.8951C84.0645 72.0665 83.5674 72.2037 83.0696 72.341L83.0695 72.341C82.6099 72.4678 82.1497 72.5947 81.6992 72.7489C81.4997 72.8165 81.3002 72.8815 81.1007 72.9464L81.1007 72.9464L81.1006 72.9464C80.8014 73.0438 80.5022 73.1412 80.203 73.2477C80.0526 73.3006 79.9031 73.3361 79.7558 73.371L79.7558 73.371C79.4559 73.4422 79.1648 73.5113 78.8928 73.721C77.8615 74.5156 77.2782 75.9442 77.3374 77.2376C77.38 78.1645 77.9429 78.8464 78.5079 79.5307C78.8395 79.9322 79.1717 80.3347 79.3999 80.7879C79.6972 81.3858 80.0152 81.9727 80.3332 82.5597C80.802 83.425 81.2709 84.2905 81.6739 85.1921C82.1641 86.2741 82.1557 87.2462 82.0796 88.4127C82.0035 89.5539 81.9275 90.6951 81.8598 91.8363C81.8514 91.9969 82.0881 91.9885 82.105 91.8363C82.1388 91.4052 82.1726 90.9741 82.198 90.5345C82.2233 90.5345 82.2571 90.5345 82.2825 90.5176C83.5167 89.8498 84.7086 89.089 85.8836 88.2775C85.5285 88.641 85.1989 89.0467 84.9706 89.444C84.5818 90.1372 84.5395 90.7797 85.3933 91.0417C86.8811 91.4897 88.9521 90.9065 90.6512 90.3316C90.2049 90.4878 89.7521 90.6309 89.3042 90.7725L89.1212 90.8304C87.9208 91.1939 86.6951 91.4982 85.4778 91.794C85.3426 91.8266 85.206 91.8613 85.0681 91.8962L85.0678 91.8963C83.9904 92.1695 82.8433 92.4604 81.8091 91.9208C81.7967 91.9208 81.7889 91.9163 81.7789 91.9106L81.7789 91.9105C81.7753 91.9084 81.7714 91.9062 81.7668 91.9039V91.887C81.7922 91.7518 81.6147 91.718 81.564 91.8363C81.1392 92.9441 80.0496 93.5349 79.0635 94.0695L79.0195 94.0933C77.7347 94.7949 76.4836 95.5388 75.2663 96.3419C74.0913 97.1196 72.9332 97.9311 71.8259 98.8018C71.344 99.1822 70.7016 99.757 71.0143 100.442C71.3778 101.245 72.7303 101.194 73.4404 101.126C74.4033 101.041 75.3618 100.866 76.3125 100.692C76.6722 100.627 77.0308 100.561 77.3881 100.501C77.9534 100.408 78.5225 100.322 79.093 100.235C81.235 99.9077 83.3964 99.5779 85.4525 98.937C85.9174 98.7933 86.3739 98.6327 86.8303 98.4636C86.8303 98.4636 86.8472 98.4805 86.8557 98.4805C86.8726 98.5144 86.9064 98.5397 86.9402 98.5482C87.398 98.9144 87.9042 99.2365 88.4112 99.5591L88.4116 99.5594C88.6066 99.6835 88.8018 99.8077 88.9944 99.9345C88.5801 100.619 88.4364 101.481 88.8845 102.192C89.0451 102.445 89.2564 102.648 89.4846 102.851C89.7309 103.071 90.0056 103.295 90.2868 103.525L90.2869 103.525L90.2871 103.525C90.9131 104.036 91.5715 104.573 92.0206 105.15C92.2137 105.4 92.3225 105.71 92.4273 106.009L92.4433 106.055C92.7729 106.984 93.1195 107.737 93.5337 108.388C93.5676 108.388 93.5929 108.362 93.6098 108.337C93.6352 108.413 93.6605 108.481 93.6944 108.557L93.5929 108.481C94.2861 109.529 95.1737 110.324 96.5093 111.169L96.5619 111.202C97.6528 111.89 99.0324 112.761 100.33 112.927C100.372 112.951 100.414 112.977 100.456 113.002C100.562 113.065 100.67 113.129 100.778 113.189C102.296 114.067 103.857 114.87 105.415 115.671L105.415 115.671L105.416 115.671C106.019 115.981 106.621 116.291 107.22 116.604C107.334 116.663 107.45 116.725 107.566 116.786C107.682 116.847 107.799 116.909 107.913 116.968L107.913 116.968C108.023 117.035 108.132 117.103 108.234 117.162C108.69 117.424 109.164 117.644 109.646 117.847C110.728 118.371 111.835 118.844 112.985 119.216C113.872 119.495 114.743 119.673 115.622 119.757C115.707 119.783 115.8 119.808 115.884 119.825C116.307 119.926 116.924 119.994 117.363 119.8C117.938 119.774 118.513 119.723 119.105 119.631C119.181 119.622 119.164 119.478 119.088 119.487H119.029C119.139 119.402 119.189 119.259 119.105 119.115C119.096 119.098 119.088 119.09 119.071 119.073C118.882 118.513 118.575 117.997 118.273 117.491L118.209 117.382C118.141 117.268 118.076 117.152 118.01 117.035C117.945 116.919 117.879 116.803 117.811 116.689C118.31 115.421 118.462 113.967 118.598 112.623C118.758 111.093 118.775 109.554 118.691 108.024C118.521 105.066 117.972 101.98 116.839 99.2244C116.797 99.1314 116.712 99.0807 116.628 99.0807C116.619 98.6665 116.577 98.2523 116.476 97.8888C116.459 97.669 116.434 97.4492 116.408 97.2295C116.121 94.5836 115.275 91.9631 114.21 89.5201C113.982 88.996 114.067 88.7255 114.396 88.3029C114.474 88.1991 114.552 88.0961 114.63 87.9933C114.934 87.5934 115.235 87.1965 115.504 86.7728C116.036 85.9444 116.518 85.0737 116.932 84.1777C117.752 82.3941 118.336 80.5005 118.631 78.5647C118.953 76.4345 118.902 74.279 118.733 72.1318C118.71 71.8387 118.693 71.5353 118.675 71.2261L118.675 71.2257L118.675 71.2253C118.574 69.448 118.461 67.4763 117.287 66.13L117.296 66.1047ZM79.2393 74.3128C79.2393 74.3128 79.2647 74.2874 79.2816 74.279C79.5825 74.2065 79.8723 74.079 80.1609 73.9521C80.3101 73.8864 80.4589 73.8209 80.6088 73.7633C81.1075 73.5689 81.6062 73.3914 82.105 73.2223C82.4677 73.1035 82.8396 73.002 83.2122 72.9004C83.8471 72.7272 84.4839 72.5535 85.0805 72.2924C85.8381 71.9659 86.515 71.4678 87.1813 70.9774L87.1813 70.9774L87.1815 70.9773L87.1817 70.9771L87.1818 70.9771L87.182 70.9769C87.3779 70.8328 87.5728 70.6893 87.7686 70.5511C87.955 70.4172 88.1443 70.2853 88.3342 70.1529C88.6957 69.901 89.0594 69.6476 89.4086 69.3761C89.1042 69.9171 88.7577 70.4158 88.3096 70.8977C87.5066 71.7514 86.5683 72.4531 85.5708 73.0617C84.5902 73.6619 83.5758 74.2198 82.5445 74.7185C82.0035 74.9806 81.4372 75.2342 80.8539 75.3779L80.8032 75.3902C80.5738 75.446 80.3371 75.5035 80.0931 75.4878C79.5606 75.4624 78.7237 74.8284 79.2309 74.3043L79.2393 74.3128ZM80.3172 81.885C80.507 82.3013 80.6964 82.7167 80.9215 83.1126L80.9131 83.1041L80.9503 83.1684L80.9503 83.1684L80.9504 83.1686C81.1745 83.5555 82.0739 85.1087 81.9951 85.1244C82.5134 85.0142 83.0426 84.9506 83.5731 84.8869L83.5732 84.8869L83.5732 84.8869L83.5732 84.8869L83.5733 84.8869L83.5733 84.8869L83.5733 84.8869C83.856 84.853 84.1391 84.819 84.4212 84.7779L87.2614 83.9664L87.3043 83.9544C87.9585 83.7722 88.6288 83.5854 89.3071 83.5606C89.5069 83.494 89.7013 83.4222 89.8988 83.3493L90.0595 83.2901C90.4305 83.1505 90.794 82.9826 91.1571 82.8149L91.1571 82.8149C91.5633 82.6273 91.969 82.4399 92.3841 82.2926C93.6521 81.1599 94.8863 79.9849 96.0866 78.7761C96.7133 78.1456 97.3102 77.4836 97.9068 76.822C98.622 76.0288 99.3368 75.2361 100.102 74.4987C99.8821 74.3297 99.6623 74.1606 99.451 73.9915C99.3624 73.92 99.2707 73.8473 99.1774 73.7734C98.6204 73.3323 98.0052 72.8451 97.6505 72.2586C97.6843 72.3432 97.5659 72.4023 97.5068 72.3263C97.3068 72.0709 97.1109 71.8125 96.9153 71.5544C95.9776 70.3175 95.0456 69.0881 93.7028 68.2349C92.5194 67.4826 91.2852 67.5333 90.6681 68.9619C90.2877 69.841 89.8312 70.6441 89.2987 71.4387C89.0617 71.7971 88.8413 72.1608 88.6215 72.5234C88.2142 73.1956 87.8089 73.8643 87.3037 74.4903C86.4486 75.5391 85.3778 76.4031 84.3266 77.2513L84.176 77.3728L84.1218 77.4148C83.5053 77.8918 82.8779 78.3773 82.1388 78.6155C83.4913 77.4996 84.7593 76.2824 85.9258 74.9721L86.0214 74.866L86.0214 74.866C86.5237 74.3085 87.0351 73.7408 87.4643 73.1209C87.6431 72.8615 87.7986 72.5498 87.9555 72.2353C88.1771 71.7911 88.4016 71.3412 88.6985 71.0245C87.2361 72.5799 85.1312 73.6788 83.3561 74.5326C83.2163 74.6001 83.0647 74.6777 82.904 74.76L82.9039 74.7601L82.9037 74.7602L82.9034 74.7603L82.9034 74.7604C81.898 75.2753 80.5396 75.971 79.5267 75.5047C79.1633 75.3441 78.935 74.9383 78.935 74.5664C78.9012 74.5917 78.8674 74.6255 78.842 74.6593C78.487 75.0651 78.2503 75.53 78.1235 76.0203C77.946 76.7388 77.9967 77.5165 78.301 78.2351C78.5297 78.7948 78.8613 79.3074 79.1919 79.8186C79.3257 80.0254 79.4593 80.232 79.5859 80.4414C79.8694 80.9032 80.0935 81.3946 80.3172 81.885ZM86.9825 86.7644C86.1047 87.4322 85.2028 88.0651 84.3009 88.6979C83.6046 89.1864 82.9083 89.6749 82.2233 90.1795C82.2487 89.8372 82.274 89.4927 82.2994 89.1483L82.2995 89.1474L82.2999 89.142C82.3251 88.7996 82.3503 88.4572 82.3755 88.1169C82.4431 87.1448 82.4769 86.2741 82.105 85.3611C82.1008 85.3527 82.0965 85.3421 82.0923 85.3315C82.0881 85.321 82.0838 85.3104 82.0796 85.302C82.46 85.3273 82.8489 85.3273 83.2462 85.302C83.3561 86.7306 83.2462 88.0831 83.0433 89.5117C83.0797 89.2692 84.2941 88.3485 85.1653 87.6881C85.509 87.4276 85.7993 87.2075 85.9427 87.0856C86.2308 86.8424 86.5239 86.6107 86.8149 86.3804L86.815 86.3804L86.815 86.3804L86.815 86.3804L86.815 86.3804L86.815 86.3804L86.815 86.3804L86.815 86.3803L86.815 86.3803C87.7281 85.6581 88.6216 84.9514 89.2818 83.9579C89.6199 83.848 89.9496 83.7297 90.2877 83.6029C90.4117 83.5556 90.5399 83.5084 90.67 83.4604L90.6706 83.4602L90.6709 83.4601L90.671 83.46L90.6715 83.4599L90.6715 83.4598C90.9134 83.3707 91.162 83.279 91.4035 83.1802C89.9665 84.4228 88.4872 85.6232 86.974 86.7728L86.9825 86.7644ZM81.5302 99.2075C82.8658 98.9708 84.1929 98.6496 85.4947 98.2354L85.5285 98.2269C86.2048 98.0072 86.8726 97.762 87.5319 97.4915C89.3832 96.7223 91.1499 95.8009 92.942 94.8541C93.6098 94.4991 94.2776 94.1272 94.9453 93.7552L94.9454 93.7552C97.2616 92.4534 99.5271 91.0248 101.674 89.4271C103.661 87.9478 105.52 86.291 107.152 84.4228C108.225 83.1887 109.189 81.8615 110.111 80.509C109.654 81.1092 109.172 81.6924 108.673 82.2588C106.941 84.2115 104.954 85.936 102.9 87.5421L102.744 87.6636L102.744 87.6636C98.1887 91.2232 93.238 95.0915 87.3122 95.8939C88.5041 95.2091 89.696 94.5244 90.9809 94.0511C91.3074 93.9301 91.6394 93.8232 91.9709 93.7165L91.9709 93.7165L91.971 93.7165L91.971 93.7164L91.971 93.7164L91.9711 93.7164L91.9711 93.7164L91.9711 93.7164L91.9712 93.7164L91.9712 93.7164L91.9713 93.7164L91.9713 93.7164L91.9713 93.7163L91.9714 93.7163C92.5666 93.5247 93.1606 93.3334 93.7197 93.062C94.5904 92.6309 95.4019 91.9716 95.7316 91.0586C95.6809 90.6613 95.3174 90.357 94.9285 90.264C94.5558 90.1668 94.1675 90.2249 93.786 90.282L93.7366 90.2894C93.3234 90.3529 92.9126 90.419 92.5029 90.4848C92.15 90.5415 91.7979 90.5981 91.4458 90.6529C94.0156 89.7315 96.4839 88.548 98.6902 87.0349C96.9911 88.1507 95.1737 89.0806 93.3055 89.8582C91.2514 90.7036 89.1212 91.3798 86.9571 91.9039C85.9681 92.1491 84.9622 92.3604 83.9562 92.4788C83.187 92.5717 82.4093 92.5464 81.7415 92.1068C81.5217 92.9352 80.9046 93.527 80.1945 93.9919C79.5998 94.3794 78.9811 94.7308 78.3627 95.0821L78.3626 95.0821L78.3626 95.0821L78.3626 95.0821L78.3625 95.0821L78.3625 95.0822L78.3625 95.0822L78.3624 95.0822L78.3624 95.0822L78.3624 95.0822L78.3623 95.0822L78.3623 95.0823L78.3623 95.0823C77.8205 95.39 77.279 95.6976 76.7541 96.0291C75.5199 96.8068 74.3111 97.6268 73.1446 98.5059C73.088 98.5488 72.9894 98.6135 72.8682 98.693L72.8681 98.6931L72.8676 98.6935L72.8674 98.6936C72.3909 99.0063 71.5672 99.547 71.5807 99.8838C71.5976 100.163 72.0118 100.442 72.2401 100.509C72.426 100.56 72.6796 100.56 72.8656 100.56C73.1699 100.56 73.4742 100.535 73.7701 100.492C75.7609 100.233 77.7467 99.8791 79.7276 99.5261L79.7287 99.5259L79.7295 99.5258L79.7302 99.5256L79.731 99.5255L79.7318 99.5254L79.7326 99.5252C80.3323 99.4183 80.9314 99.3116 81.5302 99.2075ZM111.835 89.368C111.759 89.4187 111.683 89.4703 111.607 89.522C111.455 89.6253 111.302 89.7286 111.15 89.8244C111.074 89.6469 110.998 89.4609 110.93 89.2834C110.896 88.818 110.797 88.3286 110.722 87.9584L110.722 87.9582C110.688 87.7906 110.659 87.6475 110.643 87.5421C110.554 86.9323 110.458 86.329 110.361 85.7207L110.322 85.471C110.334 85.515 110.348 85.559 110.362 85.6025L110.362 85.6027L110.362 85.6028C110.385 85.6763 110.407 85.7486 110.423 85.8176C110.77 87.0011 111.209 88.2014 111.784 89.3003C111.801 89.3257 111.818 89.3511 111.843 89.368H111.835ZM105.664 89.9766C105.766 89.9259 105.884 89.8667 105.994 89.909L106.002 89.9174C106.121 89.9681 106.163 90.1288 106.121 90.2556C106.028 90.5261 105.639 90.805 105.368 90.8557C105.165 90.8895 104.734 90.9403 104.591 90.7881C104.478 90.8958 104.371 91.0112 104.263 91.1272C104.177 91.2207 104.089 91.3146 103.999 91.4052C105.089 91.7518 106.154 91.7602 107.228 91.5235C107.372 91.4813 107.524 91.4306 107.668 91.3798C108.597 91.0671 109.468 90.6698 110.33 90.2471C110.347 90.1879 110.356 90.1288 110.364 90.0527C110.398 89.7145 110.347 89.3933 110.288 89.0636C109.662 87.5167 109.223 85.8092 109.088 84.1692C108.302 85.1075 107.473 86.0036 106.602 86.8658C106.653 86.9334 106.67 87.0349 106.602 87.111C106.155 87.6276 105.654 88.1007 105.152 88.5745C104.857 88.8526 104.562 89.131 104.278 89.4187C104.015 89.6813 103.76 89.9545 103.504 90.2282L103.504 90.2283L103.504 90.2285C103.076 90.686 102.647 91.1448 102.181 91.5574C102.19 91.5827 102.198 91.6165 102.181 91.6419C102.038 91.8786 101.607 91.8448 101.37 91.8025C101.209 91.7771 101.049 91.718 100.913 91.6334C100.896 91.6165 100.871 91.5996 100.846 91.5827C100.82 91.5617 100.578 91.7068 100.377 91.828C100.254 91.9021 100.146 91.9672 100.11 91.98C100.02 92.0133 99.9321 92.0225 99.8439 92.0318C99.7756 92.0389 99.7071 92.0461 99.637 92.0645C99.1538 92.1958 99.3273 92.3649 99.5366 92.569C99.624 92.654 99.7175 92.7452 99.7722 92.8422C99.8737 93.0282 99.8398 93.2649 99.7976 93.4762C99.7553 93.7129 99.7109 93.9475 99.6666 94.182C99.6222 94.4166 99.5778 94.6512 99.5355 94.8879C99.8314 94.3892 100.212 93.9412 100.66 93.5692C101.184 93.1381 101.793 92.8084 102.443 92.614C102.364 92.0369 102.664 91.8033 103.022 91.5252L103.022 91.5252C103.12 91.449 103.223 91.3694 103.323 91.2784C103.641 90.9925 103.939 90.6816 104.236 90.3713L104.236 90.3712L104.236 90.3711L104.236 90.3711L104.236 90.371L104.236 90.3709L104.236 90.3708L104.236 90.3707L104.236 90.3707L104.236 90.3706L104.236 90.3705C104.396 90.2039 104.555 90.0375 104.717 89.8752C105.639 88.9368 106.746 88.1 108.116 88.1592C107.959 88.2864 107.768 88.337 107.576 88.3879C107.385 88.4384 107.194 88.4892 107.034 88.6156C106.698 88.871 106.318 89.0811 105.942 89.2887L105.942 89.2888L105.875 89.3257C105.943 89.3764 105.994 89.4525 106.028 89.537C105.791 89.7145 105.58 89.909 105.377 90.1288L105.377 90.1286C105.47 90.0779 105.563 90.0273 105.664 89.9766ZM103.602 91.8786H103.492C103.5 91.8701 103.509 91.8638 103.517 91.8574C103.525 91.8511 103.534 91.8448 103.542 91.8363C103.559 91.8532 103.585 91.8701 103.602 91.8786ZM99.0274 93.1725L99.0273 93.1724L99.0272 93.1721C99.0025 93.132 98.978 93.0922 98.9523 93.0536V93.062C98.8162 92.8687 98.7105 92.6694 98.6043 92.4691C98.5851 92.4329 98.5659 92.3967 98.5465 92.3604C98.1238 92.6225 97.7012 92.8845 97.2701 93.1381C97.2954 93.1508 97.3229 93.1656 97.3504 93.1804C97.3778 93.1952 97.4053 93.21 97.4307 93.2226C97.5018 93.2474 97.5718 93.2732 97.6415 93.299L97.6416 93.299L97.6416 93.2991L97.6417 93.2991L97.6417 93.2991L97.6418 93.2991C97.7625 93.3437 97.8823 93.388 98.0055 93.4255C98.0749 93.448 98.1449 93.4719 98.2153 93.496C98.4364 93.5717 98.6623 93.6491 98.8931 93.6876C98.9945 93.7045 99.096 93.7214 99.1974 93.7214C99.193 93.717 99.1887 93.7132 99.1844 93.7095C99.1723 93.699 99.1614 93.6895 99.1551 93.6707C99.096 93.5777 99.096 93.4593 99.1551 93.3663C99.1081 93.3036 99.0675 93.2377 99.0274 93.1725ZM91.7924 96.1475C91.7924 96.1475 91.7417 96.2066 91.7078 96.232C91.7247 96.2066 91.7417 96.1813 91.7586 96.1644L91.7839 96.1475H91.7924ZM88.9183 98.1678C88.3942 98.1847 87.9039 98.3115 87.4136 98.4467L87.3967 98.4552C88.2101 98.8432 89.0037 99.4091 89.7369 99.9319L89.7369 99.9319C89.8342 100.001 89.9305 100.07 90.0257 100.137C90.5159 100.484 90.9978 100.839 91.4712 101.211C91.5406 101.264 91.6119 101.317 91.6838 101.371L91.6845 101.371L91.6852 101.372L91.6859 101.372L91.6862 101.372C92.0246 101.624 92.3758 101.884 92.6123 102.225C92.9411 101.905 93.2987 101.609 93.6556 101.314C93.996 101.033 94.3359 100.751 94.6496 100.45C95.3934 99.7401 96.0866 98.9962 96.7544 98.2185C97.8026 96.9928 98.6902 95.6234 99.1889 94.0849C99.0368 94.0849 98.8846 94.0764 98.7325 94.0595C98.6141 94.0764 98.4873 94.0595 98.369 94.0172C98.1915 93.9919 98.0224 93.9665 97.8618 93.9327C97.5152 93.8735 96.9657 93.7636 96.56 93.5439C95.3596 94.2455 94.1339 94.9133 92.8997 95.5642C92.743 95.7657 92.5418 95.9227 92.3379 96.0819C92.2338 96.1631 92.129 96.2449 92.0291 96.3334C91.674 96.6462 91.3444 96.9336 90.9555 97.2041C90.9217 97.2548 90.8879 97.314 90.8541 97.3731L90.8541 97.3732C90.655 97.7357 90.5456 98.1162 90.4354 98.4995L90.4354 98.4999C90.4145 98.5723 90.3937 98.6447 90.3722 98.7172C90.3722 98.7595 90.3638 98.8018 90.3384 98.8356C90.33 98.8778 90.3215 98.9117 90.3046 98.9539C90.3046 98.9624 90.9978 99.5964 91.0738 99.664C91.412 99.9683 91.8093 100.23 92.1981 100.467C90.9132 99.8246 89.8819 99.2582 88.9183 98.1678ZM107.363 115.142C107.321 115.066 107.279 114.99 107.245 114.914C107.321 115.015 107.397 115.116 107.473 115.209C107.449 115.192 107.426 115.178 107.399 115.163C107.388 115.156 107.376 115.149 107.363 115.142ZM117.786 119.436C117.761 119.478 117.693 119.563 117.693 119.563V119.571C117.921 119.571 118.15 119.563 118.378 119.546C118.202 119.523 118.026 119.486 117.843 119.448L117.786 119.436ZM114.608 94.6766C114.946 96.2404 115.199 97.8127 115.428 99.3935C115.47 99.6724 115.512 99.9514 115.563 100.239C115.563 100.729 115.597 101.219 115.664 101.71C115.673 101.777 115.723 101.836 115.783 101.862C115.757 102.547 115.715 103.231 115.673 103.916C115.661 104.111 115.65 104.31 115.639 104.51C115.529 106.577 115.407 108.874 113.627 110.222C113.568 110.273 113.627 110.366 113.695 110.332C115.199 109.495 116.07 107.551 116.357 105.902C116.274 106.388 116.219 106.882 116.165 107.373C116.138 107.625 116.11 107.876 116.078 108.126C116.012 108.681 115.828 109.133 115.625 109.634L115.625 109.634L115.589 109.722C115.572 109.764 115.555 109.807 115.537 109.85C115.022 111.127 114.185 112.259 113.162 113.172C113.128 113.198 113.171 113.248 113.204 113.231C113.737 112.927 114.193 112.538 114.591 112.099C115.089 111.701 115.402 111.194 115.715 110.619C115.788 110.484 115.858 110.347 115.927 110.21C116.066 109.936 116.205 109.661 116.374 109.402C116.827 108.719 116.991 108.797 117.671 109.122L117.727 109.149C117.761 109.165 117.794 109.182 117.828 109.208C117.862 109.241 117.879 109.292 117.896 109.343C118.158 110.205 118.259 111.101 118.217 111.997C118.15 113.274 117.702 114.618 117.068 115.725C117.042 115.767 117.017 115.81 117.017 115.86C117.017 116.037 117.199 116.331 117.348 116.57L117.396 116.649C117.403 116.659 117.409 116.67 117.416 116.68C117.421 116.689 117.426 116.697 117.431 116.706C117.465 116.756 117.49 116.799 117.507 116.841L118.116 118.109C118.158 118.202 118.192 118.329 118.116 118.379C118.082 118.405 118.04 118.405 117.997 118.396C117.81 118.388 117.624 118.381 117.438 118.373C116.323 118.33 115.231 118.288 114.151 117.991C112.925 117.652 111.751 117.188 110.576 116.723L110.576 116.723L110.576 116.723L110.575 116.723L110.575 116.723C109.95 116.477 109.324 116.232 108.758 115.869C108.166 115.488 107.634 115.024 107.22 114.474C107.152 114.39 106.298 113.299 106.349 113.265C106.848 112.952 107.355 112.64 107.921 112.479C108.351 112.363 108.784 112.276 109.215 112.189C110.26 111.979 111.293 111.771 112.232 111.16C111.801 111.439 111.294 111.6 110.787 111.701C110.385 111.781 109.99 111.793 109.597 111.805C109.279 111.815 108.961 111.825 108.64 111.87C108.31 111.87 107.98 111.854 107.651 111.82C105.546 111.608 103.644 110.958 101.835 109.884C101.539 109.706 101.243 109.529 100.939 109.351C101.363 109.657 101.778 109.978 102.194 110.298L102.194 110.298L102.194 110.298L102.194 110.298C102.731 110.712 103.268 111.126 103.821 111.507C103.509 111.473 103.187 111.422 102.883 111.355C102.564 111.232 102.251 111.096 101.94 110.96L101.94 110.96L101.94 110.96L101.939 110.96C101.607 110.815 101.275 110.67 100.939 110.543L100.802 110.472L100.802 110.472C100.491 110.309 100.177 110.145 99.8821 109.968C99.0368 109.47 98.2084 108.946 97.3969 108.379C95.9852 107.399 94.6496 106.317 93.3647 105.167C93.7596 105.347 94.3156 105.365 94.8106 105.382H94.8106H94.8107H94.8107C95.0149 105.388 95.2087 105.395 95.3765 105.412C96.0369 105.48 96.7029 105.473 97.3684 105.465C98.1169 105.457 98.8648 105.449 99.6032 105.547C99.2328 105.496 98.8544 105.448 98.4712 105.398L98.4707 105.398L98.4702 105.398L98.4699 105.398L98.4699 105.398C96.5703 105.154 94.5523 104.894 92.8152 104.254C92.2658 104.051 91.7163 103.781 91.226 103.459C90.9494 103.275 90.7085 103.055 90.4676 102.835C90.3773 102.752 90.2869 102.67 90.1947 102.589C90.0933 102.369 89.9918 102.149 89.8819 101.938C90.2084 102.089 90.5442 102.222 90.8798 102.355C91.3872 102.555 91.894 102.755 92.3672 103.02C92.4264 103.054 92.4855 103.079 92.5447 103.071C92.588 103.071 92.6251 103.04 92.6614 103.01L92.68 102.995C92.971 102.753 93.2529 102.497 93.5348 102.241L93.5349 102.24L93.5349 102.24L93.535 102.24C94.0636 101.76 94.5923 101.279 95.1821 100.898C96.1542 100.273 96.9996 99.3766 97.7773 98.5228C98.3943 97.8465 98.9523 97.128 99.4764 96.3841C99.5384 96.2949 99.6028 96.2035 99.6686 96.1102L99.6686 96.1101C99.9704 95.6821 100.3 95.2146 100.55 94.7358C100.575 94.7358 100.601 94.7104 100.626 94.685C101.209 93.9412 101.708 93.341 102.646 93.0282C103.348 92.7963 104.081 92.7362 104.812 92.6762C105.094 92.6531 105.376 92.63 105.656 92.5971C107.397 92.3858 109.02 91.8786 110.575 91.0671C110.685 91.0079 110.584 90.8557 110.482 90.9065C110.085 91.0755 109.696 91.2277 109.299 91.3629C109.73 91.177 110.161 90.9741 110.575 90.7627C110.657 90.7197 110.741 90.6767 110.827 90.6325L110.829 90.6318L110.829 90.6317C110.912 90.5894 110.996 90.546 111.083 90.5007C111.184 90.5007 111.294 90.45 111.336 90.3654C111.911 90.0611 112.494 89.7145 112.993 89.3003C113.027 89.3257 113.078 89.3426 113.12 89.3342C113.051 89.4824 112.993 89.6364 112.935 89.7912L112.935 89.7913L112.935 89.7913L112.935 89.7914C112.894 89.9013 112.853 90.0115 112.807 90.1203C112.596 90.6275 112.368 91.1262 112.131 91.625C111.87 92.1597 111.585 92.6796 111.299 93.2008C111.056 93.6435 110.813 94.0871 110.584 94.5413C110.559 94.6005 110.635 94.6597 110.677 94.609C111.074 94.1778 111.438 93.696 111.759 93.1888C111.793 93.2142 111.835 93.2142 111.86 93.1888C112.165 92.8761 112.427 92.5379 112.672 92.1744C112.266 93.1381 111.615 93.975 110.964 94.7949C110.661 95.1167 110.413 95.4806 110.169 95.839C109.625 96.6386 109.1 97.4108 108.014 97.6268C106.738 97.8888 105.487 97.1111 104.523 96.3588C104.857 96.7476 105.191 97.1385 105.525 97.5294C105.858 97.9204 106.192 98.3114 106.526 98.7003C106.831 99.0554 106.983 99.3512 107.008 99.6471C107.034 100.011 106.856 100.366 106.501 100.797C106.273 101.067 104.87 102.369 104.447 102.065C106.704 103.713 108.631 105.801 110.094 108.185C110.212 108.388 110.339 108.608 110.313 108.836C110.288 109.03 110.161 109.199 110.026 109.351C109.316 110.154 108.42 110.797 107.431 111.203C109.477 111.591 111.691 111.034 113.297 109.706C113.686 109.385 114.041 109.022 114.286 108.582C114.65 107.923 114.726 107.145 114.777 106.393C115.098 101.507 114.422 96.5617 112.807 91.9377C112.82 91.9166 112.832 91.8976 112.845 91.8786C112.858 91.8596 112.87 91.8405 112.883 91.8194C112.941 91.7222 112.997 91.6238 113.053 91.5256C113.143 91.3675 113.232 91.2098 113.331 91.0586C113.387 90.9675 113.461 90.888 113.532 90.8105L113.532 90.8105L113.555 90.7857L113.576 90.7627C113.717 91.3501 113.889 91.9323 114.062 92.5155C114.274 93.2334 114.488 93.9528 114.641 94.685L114.608 94.6766ZM106.509 112.504C106.501 112.547 106.484 112.589 106.467 112.631V112.64C106.493 112.597 106.518 112.555 106.56 112.521V112.504H106.509ZM112.806 87.8038L112.806 87.8036C112.786 87.7508 112.76 87.6829 112.731 87.6012C112.275 86.477 110.711 82.8505 110.415 83.0027C111.37 82.5124 112.241 81.8446 112.976 81.0584C113.543 83.2985 113.5 85.6824 112.849 87.8971H112.841C112.834 87.8752 112.822 87.8439 112.806 87.8038ZM116.391 66.7803L116.417 66.6626C116.413 66.6515 116.408 66.642 116.403 66.6334C116.397 66.6224 116.391 66.6129 116.391 66.6034C116.03 67.3257 115.472 68.0086 114.946 68.6521C114.783 68.8522 114.623 69.0484 114.472 69.2408C113.661 70.2806 112.824 71.3034 111.936 72.284C110.22 74.1944 108.386 75.9781 106.366 77.5673C106.383 77.7955 106.383 78.0153 106.349 78.2435C106.594 78.0575 106.864 77.9054 107.135 77.7532C109.409 76.4683 111.59 75.0313 113.661 73.4336C113.264 74.9552 112.655 76.4007 111.894 77.7701C112.909 76.1471 113.872 74.4903 114.65 72.7405C115.512 70.7996 115.944 68.8262 116.391 66.7803Z" fill="#664137"/>
<path d="M93.8465 96.3335C94.0578 96.2152 94.2438 96.1475 94.472 96.1053C94.6496 96.0715 94.6918 96.2152 94.8863 96.0715C95.03 95.97 95.1652 95.8686 95.3089 95.7671C95.2328 95.9362 95.1483 96.1053 95.0891 96.2743C95.5456 96.604 96.2134 96.0884 96.4163 95.6742C96.4501 95.6065 96.4416 95.522 96.4163 95.4628C96.7206 95.3867 97.0249 95.3107 97.3208 95.2177C97.2954 95.3445 97.2785 95.4882 97.2532 95.5981C97.1771 95.877 97.0756 96.1475 96.9742 96.4265C96.9319 96.5448 97.1179 96.604 97.1771 96.5026C97.3208 96.249 97.4222 95.9785 97.5068 95.6995C97.5575 95.5389 97.642 95.3107 97.6589 95.1078C97.997 94.9894 98.3352 94.8626 98.6395 94.6936C98.9692 94.5161 98.6733 94.0173 98.3436 94.1948C97.2954 94.7612 96.0866 94.9387 94.9708 95.3276C94.396 95.522 93.8211 95.7756 93.3478 96.156C92.7983 96.5956 92.6715 96.9844 92.4264 97.593C92.7645 96.9675 93.2717 96.6547 93.8719 96.3251L93.8465 96.3335Z" fill="#664137"/>
<path d="M104.7 101.549C105.36 101.591 106.188 101.067 106.425 100.45C106.484 100.298 106.273 100.23 106.18 100.315C105.935 100.535 105.749 100.797 105.461 100.974C105.208 101.135 104.92 101.219 104.65 101.346C104.54 101.397 104.607 101.541 104.7 101.549Z" fill="#664137"/>
<path d="M40.6335 70.8554C44.97 68.1081 49.2135 65.234 53.5331 62.4614C57.7935 59.731 62.0708 57.0429 66.3904 54.4224C74.962 49.2152 83.6773 44.2362 92.5194 39.5109C97.5744 36.8058 102.68 34.1938 107.82 31.6578C108.809 31.1675 108.107 29.6037 107.118 30.094C88.8845 39.1051 71.2088 49.2321 54.2263 60.4326C49.4502 63.5772 44.691 66.7894 40.1601 70.2722C39.7628 70.5765 40.2446 71.1006 40.6419 70.8554H40.6335Z" fill="#DABEB3"/>
<path d="M109.181 120.535C110.018 117.948 111.057 115.471 112.122 112.978C112.139 112.936 112.08 112.902 112.063 112.944C110.829 115.353 109.891 117.94 109.096 120.518C109.079 120.577 109.164 120.594 109.181 120.543V120.535Z" fill="#EEC4AF"/>
<path d="M110.296 120.239C110.854 117.83 111.657 115.531 112.469 113.206C112.477 113.172 112.427 113.147 112.41 113.181C111.429 115.429 110.77 117.838 110.22 120.222C110.212 120.273 110.28 120.29 110.296 120.239V120.239Z" fill="#EEC4AF"/>
<path d="M111.04 121.034C111.674 118.261 112.469 115.539 113.171 112.792C113.179 112.75 113.12 112.733 113.103 112.775C112.207 115.463 111.564 118.253 110.956 121.017C110.947 121.076 111.032 121.093 111.04 121.042V121.034Z" fill="#EEC4AF"/>
<path d="M115.47 94.4314C115.225 94.964 114.98 95.4965 114.751 96.0291C114.751 96.046 114.768 96.0544 114.777 96.046C115.03 95.5219 115.275 94.9893 115.521 94.4568C115.529 94.4314 115.487 94.406 115.478 94.4314H115.47Z" fill="#EEC4AF"/>
<path d="M116.704 90.881C110.373 102.031 104.176 113.443 98.7748 125.074C98.7494 125.133 98.8339 125.184 98.8677 125.125C104.87 113.739 110.677 102.259 116.789 90.9233C116.814 90.8726 116.738 90.8219 116.704 90.8726V90.881Z" fill="#EEC4AF"/>
<path d="M94.7087 115.243C96.839 115.184 98.5634 114.026 100.364 112.986C103.052 111.431 105.706 109.816 108.335 108.168C113.458 104.939 118.521 101.566 123.34 97.8972C123.374 97.8718 123.34 97.8042 123.306 97.8296C118.834 100.983 114.371 104.136 109.764 107.094C107.524 108.531 105.258 109.935 102.976 111.304C100.533 112.766 97.642 115.066 94.7087 115.15C94.6496 115.15 94.6496 115.252 94.7087 115.243V115.243Z" fill="#EEC4AF"/>
<path d="M109.062 106.621C108.876 107.39 108.893 107.018 109.012 107.804C109.012 107.838 109.062 107.847 109.088 107.821C112.198 104.93 115.352 102.048 118.361 99.0554C118.403 99.0131 118.336 98.9455 118.293 98.9877C116.712 100.408 115.191 101.896 113.644 103.358C112.925 104.043 112.207 104.727 111.488 105.412C111.074 105.801 110.668 106.198 110.254 106.587C109.865 107.356 109.485 107.373 109.121 106.638C109.13 106.596 109.071 106.587 109.062 106.621V106.621Z" fill="#EEC4AF"/>
<path d="M115.816 65.4284C115.986 69.4944 116.121 73.5858 116.366 77.6518C116.366 77.711 116.459 77.711 116.459 77.6518C116.45 73.5858 116.205 69.486 115.909 65.4284C115.909 65.3692 115.816 65.3692 115.825 65.4284H115.816Z" fill="#EEC4AF"/>
<path d="M115.707 64.414C117.135 74.9637 118.953 85.5471 121.201 95.953C121.218 96.0207 121.319 95.9953 121.311 95.9277C119.384 85.4288 117.507 74.9383 115.766 64.4056C115.766 64.3633 115.698 64.3802 115.707 64.4225V64.414Z" fill="#EEC4AF"/>
<path d="M75.9172 73.0025C92.8321 76.612 109.24 81.6163 125.639 87.0517C125.707 87.0686 125.724 86.9757 125.664 86.9503C109.586 80.8724 92.7307 76.4852 75.9257 72.9602C75.8919 72.9602 75.8834 73.0025 75.9088 73.0109L75.9172 73.0025Z" fill="#EEC4AF"/>
<path d="M89.9327 74.8284C100.144 76.2401 110.026 78.9028 119.713 82.4109C119.747 82.4278 119.764 82.3686 119.73 82.3517C110.178 78.5901 100.119 76.164 89.958 74.7607C89.9157 74.7607 89.8988 74.8199 89.9411 74.8199L89.9327 74.8284Z" fill="#EEC4AF"/>
<path d="M101.066 72.0896C101.049 75.809 100.973 79.5369 101.049 83.2563C101.049 83.2985 101.116 83.2985 101.116 83.2563C101.201 79.5369 101.133 75.809 101.116 72.0896C101.116 72.0558 101.057 72.0558 101.057 72.0896H101.066Z" fill="#EEC4AF"/>
<path d="M101.497 71.2866C100.897 74.0761 101.446 77.1362 101.607 79.9596C101.809 83.4085 101.979 86.8659 102.241 90.3063C102.241 90.3486 102.308 90.3486 102.3 90.3063C102.164 87.1448 101.953 83.9833 101.767 80.8218C101.59 77.7617 100.939 74.3297 101.581 71.3119C101.59 71.2612 101.514 71.2443 101.505 71.295L101.497 71.2866Z" fill="#EEC4AF"/>
<path d="M103.069 72.5039C102.9 77.449 103.466 82.504 104.472 87.3393C104.481 87.4069 104.582 87.3731 104.574 87.3139C103.669 82.3772 103.28 77.5082 103.111 72.5039C103.111 72.4701 103.069 72.4701 103.069 72.5039Z" fill="#EEC4AF"/>
<path d="M70.6509 96.8237C71.0397 99.4019 71.5723 102.022 72.3753 104.508C72.3922 104.558 72.4768 104.541 72.4599 104.482C71.8428 101.921 71.2257 99.385 70.7439 96.7983C70.7354 96.7307 70.6424 96.7645 70.6509 96.8237V96.8237Z" fill="#EEC4AF"/>
<path d="M71.6822 95.9277C71.9104 98.5651 72.3838 101.279 73.2629 103.781C73.2798 103.831 73.3644 103.815 73.3474 103.755C72.6881 101.143 72.1048 98.6074 71.7751 95.9277C71.7751 95.8686 71.6737 95.8601 71.6737 95.9277H71.6822Z" fill="#EEC4AF"/>
<path d="M72.6458 94.4231C72.7557 95.2261 74.2858 103.367 74.0068 103.493C74.0406 103.476 74.0152 103.417 73.9814 103.426C73.9392 103.443 73.8969 103.451 73.8546 103.468C73.8377 103.468 73.8293 103.485 73.8208 103.502C73.8208 103.544 73.8039 103.586 73.7955 103.629C73.7955 103.654 73.7955 103.671 73.8208 103.688C73.8546 103.705 73.8969 103.73 73.9307 103.747C73.9476 103.755 73.973 103.755 73.9899 103.747C74.0237 103.722 74.0575 103.696 74.0998 103.671C74.1251 103.654 74.1336 103.629 74.1336 103.595C73.6771 100.526 73.2376 97.4578 72.7473 94.3977C72.7388 94.3301 72.6374 94.3554 72.6458 94.4231V94.4231Z" fill="#EEC4AF"/>
<path d="M73.153 94.5922C73.7447 97.3733 74.3703 100.154 74.9874 102.927C75.0043 103.012 75.1395 102.978 75.1226 102.893C74.9536 101.913 74.7929 100.932 74.6154 99.9515C74.6154 99.9177 74.5563 99.9346 74.5647 99.9684C74.6661 100.712 74.9197 101.684 74.9451 102.318C74.9197 101.591 74.6323 100.678 74.4633 99.9177C74.066 98.1341 73.6771 96.342 73.2714 94.5668C73.2545 94.4907 73.1361 94.5245 73.153 94.6006V94.5922Z" fill="#EEC4AF"/>
<path d="M74.7169 93.6199C75.0973 96.6378 75.3931 99.7485 76.23 102.682C76.2469 102.758 76.3737 102.749 76.3652 102.665C76.3399 102.31 76.3145 101.946 76.3061 101.591C76.3061 101.549 76.2384 101.549 76.2384 101.591C76.2384 102.986 75.9764 101.101 75.9257 100.831C75.7566 100.019 75.6383 99.1991 75.5115 98.3707C75.2748 96.7815 75.055 95.1838 74.8014 93.5946C74.8014 93.5439 74.7169 93.5608 74.7169 93.6115L74.7169 93.6199Z" fill="#EEC4AF"/>
<path d="M76.0017 95.8516C76.0356 95.3529 76.0186 94.1102 76.137 95.3782C76.2046 96.0714 76.2891 96.773 76.3821 97.4577C76.6104 99.123 76.8893 100.788 77.2782 102.428C77.2866 102.47 77.3458 102.454 77.3373 102.411C76.8555 99.6725 76.4329 96.9505 76.1201 94.1948C76.1201 94.1356 76.0356 94.1356 76.0271 94.1948C75.9933 94.7442 75.9595 95.2937 75.9257 95.8516C75.9257 95.8939 75.9848 95.8939 75.9933 95.8516H76.0017Z" fill="#EEC4AF"/>
<path d="M79.6958 104.736C79.6366 104.77 79.5775 104.804 79.5183 104.846C79.4929 104.863 79.5183 104.905 79.5437 104.888C79.6028 104.854 79.662 104.82 79.7212 104.787C79.755 104.77 79.7212 104.711 79.6874 104.736H79.6958Z" fill="#EEC4AF"/>
<path d="M79.8818 104.947C87.1516 98.227 94.6327 91.8617 102.443 85.7669C102.486 85.7331 102.427 85.6655 102.384 85.6909C94.4467 91.532 86.8472 97.9819 79.8057 104.871C79.755 104.914 79.8311 104.99 79.8818 104.939V104.947Z" fill="#EEC4AF"/>
<path d="M92.942 112.572C99.4341 107.61 105.715 102.369 111.632 96.7308C111.666 96.697 111.615 96.6463 111.581 96.6801C105.571 102.209 99.3834 107.534 92.8998 112.496C92.849 112.53 92.8998 112.614 92.9505 112.581L92.942 112.572Z" fill="#EEC4AF"/>
</g>
<defs>
<linearGradient id="paint0_linear_71_195" x1="58.356" y1="99.7249" x2="102.481" y2="158.816" gradientUnits="userSpaceOnUse">
<stop/>
<stop offset="1" stop-color="white"/>
</linearGradient>
<linearGradient id="paint1_linear_71_195" x1="82.0348" y1="117.495" x2="90.2553" y2="166.888" gradientUnits="userSpaceOnUse">
<stop/>
<stop offset="0.13" stop-color="#040404"/>
<stop offset="0.25" stop-color="#101010"/>
<stop offset="0.38" stop-color="#242424"/>
<stop offset="0.5" stop-color="#404040"/>
<stop offset="0.63" stop-color="#646464"/>
<stop offset="0.75" stop-color="#919191"/>
<stop offset="0.88" stop-color="#C4C4C4"/>
<stop offset="1" stop-color="white"/>
</linearGradient>
<linearGradient id="paint2_linear_71_195" x1="44.0339" y1="33.5783" x2="40.6234" y2="-1.22713" gradientUnits="userSpaceOnUse">
<stop/>
<stop offset="0.13" stop-color="#040404"/>
<stop offset="0.25" stop-color="#101010"/>
<stop offset="0.38" stop-color="#242424"/>
<stop offset="0.5" stop-color="#404040"/>
<stop offset="0.63" stop-color="#646464"/>
<stop offset="0.75" stop-color="#919191"/>
<stop offset="0.88" stop-color="#C4C4C4"/>
<stop offset="1" stop-color="white"/>
</linearGradient>
<linearGradient id="paint3_linear_71_195" x1="140.424" y1="120.975" x2="157.09" y2="126.944" gradientUnits="userSpaceOnUse">
<stop/>
<stop offset="0.2" stop-color="#020202"/>
<stop offset="0.33" stop-color="#0B0B0B"/>
<stop offset="0.45" stop-color="#1B1B1B"/>
<stop offset="0.55" stop-color="#303030"/>
<stop offset="0.65" stop-color="#4C4C4C"/>
<stop offset="0.74" stop-color="#6E6E6E"/>
<stop offset="0.83" stop-color="#979797"/>
<stop offset="0.91" stop-color="#C6C6C6"/>
<stop offset="0.99" stop-color="#FAFAFA"/>
<stop offset="1" stop-color="white"/>
</linearGradient>
<linearGradient id="paint4_linear_71_195" x1="88.9963" y1="44.8604" x2="74.9187" y2="19.6943" gradientUnits="userSpaceOnUse">
<stop/>
<stop offset="1" stop-color="white"/>
</linearGradient>
<linearGradient id="paint5_linear_71_195" x1="90.2851" y1="182.481" x2="166.663" y2="129.682" gradientUnits="userSpaceOnUse">
<stop/>
<stop offset="0.12" stop-color="#383838"/>
<stop offset="0.24" stop-color="#6C6C6C"/>
<stop offset="0.37" stop-color="#999999"/>
<stop offset="0.5" stop-color="#BEBEBE"/>
<stop offset="0.62" stop-color="#DADADA"/>
<stop offset="0.75" stop-color="#EEEEEE"/>
<stop offset="0.88" stop-color="#FAFAFA"/>
<stop offset="1" stop-color="white"/>
</linearGradient>
<linearGradient id="paint6_linear_71_195" x1="160.73" y1="124.487" x2="148.245" y2="96.3328" gradientUnits="userSpaceOnUse">
<stop/>
<stop offset="0.12" stop-color="#383838"/>
<stop offset="0.24" stop-color="#6C6C6C"/>
<stop offset="0.37" stop-color="#999999"/>
<stop offset="0.5" stop-color="#BEBEBE"/>
<stop offset="0.62" stop-color="#DADADA"/>
<stop offset="0.75" stop-color="#EEEEEE"/>
<stop offset="0.88" stop-color="#FAFAFA"/>
<stop offset="1" stop-color="white"/>
</linearGradient>
<linearGradient id="paint7_linear_71_195" x1="53.1019" y1="16.9751" x2="52.4274" y2="53.6225" gradientUnits="userSpaceOnUse">
<stop/>
<stop offset="0.16" stop-color="#313131"/>
<stop offset="0.47" stop-color="#888888"/>
<stop offset="0.72" stop-color="#C8C8C8"/>
<stop offset="0.91" stop-color="#EFEFEF"/>
<stop offset="1" stop-color="white"/>
</linearGradient>
<linearGradient id="paint8_linear_71_195" x1="46.1173" y1="15.2329" x2="31.0994" y2="2.46348" gradientUnits="userSpaceOnUse">
<stop/>
<stop offset="0.16" stop-color="#313131"/>
<stop offset="0.47" stop-color="#888888"/>
<stop offset="0.72" stop-color="#C8C8C8"/>
<stop offset="0.91" stop-color="#EFEFEF"/>
<stop offset="1" stop-color="white"/>
</linearGradient>
<linearGradient id="paint9_linear_71_195" x1="147.92" y1="146.829" x2="144.626" y2="116.395" gradientUnits="userSpaceOnUse">
<stop/>
<stop offset="0.12" stop-color="#383838"/>
<stop offset="0.24" stop-color="#6C6C6C"/>
<stop offset="0.37" stop-color="#999999"/>
<stop offset="0.5" stop-color="#BEBEBE"/>
<stop offset="0.62" stop-color="#DADADA"/>
<stop offset="0.75" stop-color="#EEEEEE"/>
<stop offset="0.88" stop-color="#FAFAFA"/>
<stop offset="1" stop-color="white"/>
</linearGradient>
<linearGradient id="paint10_linear_71_195" x1="97.8406" y1="120.294" x2="107.338" y2="135.681" gradientUnits="userSpaceOnUse">
<stop stop-color="white"/>
<stop offset="0.09" stop-color="#EFEFEF"/>
<stop offset="0.28" stop-color="#C8C8C8"/>
<stop offset="0.53" stop-color="#888888"/>
<stop offset="0.84" stop-color="#313131"/>
<stop offset="1"/>
</linearGradient>
<clipPath id="clip0_71_195">
<rect width="200" height="200" fill="white"/>
</clipPath>
</defs>
</svg>
