<svg width="200" height="200" viewBox="0 0 200 200" fill="none" xmlns="http://www.w3.org/2000/svg">
<path fill-rule="evenodd" clip-rule="evenodd" d="M93.9581 15.9684C116.696 13.8723 136.301 33.0072 149.257 51.7886C162.111 70.4225 172.5 95.266 162.732 115.668C153.58 134.783 125.523 130.591 106.776 140.518C92.4149 148.122 83.721 167 67.4853 166.103C50.4737 165.163 37.691 150.509 28.4844 136.192C19.681 122.502 14.0874 105.864 18.7233 90.2757C23.0263 75.8067 40.1428 71.4701 50.889 60.8563C66.2267 45.7077 72.4685 17.9493 93.9581 15.9684Z" fill="white"/>
<path d="M112.575 65.1376L112.425 48.1068C112.426 46.4572 111.738 44.8837 110.528 43.7637C109.318 42.6437 107.695 42.0785 106.047 42.2036L86.648 43.8692C84.814 46.6398 83.433 45.229 82.7737 44.206L58.837 46.249C57.1707 46.4003 55.6377 47.2275 54.5962 48.5374C53.5548 49.8473 53.096 51.5251 53.3272 53.1789L54.5812 62.7253L60.3692 73.0775L54.8288 64.6707L56.0057 73.6968L63.0997 81.5833L56.4549 77.0321L63.0621 127.548C63.5408 130.452 66.2132 132.467 69.1432 132.134L72.0963 131.867C73.7371 129.208 74.8517 130.276 75.3756 131.6L104.028 129.042C104.489 127.372 105.141 127.817 105.743 128.89L107.67 128.719C110.622 128.512 112.943 126.107 113.041 123.154L112.861 103.932L102.736 112.739L112.833 100.85L112.577 77.0335C108.415 76.9027 111.017 75.6403 112.552 75.028L112.489 68.0803L104.146 72.8974L112.575 65.1376Z" fill="#A28768"/>
<path d="M112.715 65.4038L112.582 48.3728C112.581 46.7228 111.892 45.1499 110.68 44.0319C109.467 42.914 107.842 42.352 106.194 42.4812L86.8092 44.1438C84.9747 46.9137 83.5942 45.5039 82.9353 44.4815L58.9954 46.5503C57.3307 46.6955 55.7973 47.5183 54.7557 48.8253C53.7141 50.1322 53.2562 51.8079 53.4897 53.4584L54.7282 63.0079L60.5128 73.3543L54.9882 64.945L56.1625 73.967L63.2536 81.8482L56.6034 77.2879L63.1964 127.781C63.6742 130.683 66.3458 132.697 69.2755 132.363L72.2284 132.095C73.8697 129.437 74.971 130.512 75.6088 131.854L104.246 129.298C104.72 127.621 105.372 128.066 105.974 129.138L107.9 128.967C110.855 128.765 113.18 126.357 113.272 123.402L113.098 104.188L102.984 112.987L113.07 101.108L112.857 77.3656C108.709 77.2285 111.298 75.9734 112.846 75.3535L112.772 68.4162L104.428 73.2334L112.715 65.4038Z" fill="url(#paint0_linear_71_198)"/>
<path opacity="0.51" d="M66.312 124.404L57.7929 56.4092C57.5554 54.9323 57.9369 53.4215 58.8478 52.2315C59.7587 51.0415 61.1189 50.277 62.609 50.1175L103.355 46.6324C104.822 46.5426 106.258 47.0731 107.311 48.0941C108.364 49.1151 108.938 50.5325 108.892 51.9995L109.931 120.511C109.939 123.155 107.92 125.369 105.284 125.609L71.6722 128.692C69.0129 128.956 66.6332 127.053 66.312 124.404V124.404Z" fill="#E7C0A3"/>
<g style="mix-blend-mode:multiply" opacity="0.939442">
<path d="M108.143 70.1733L107.848 54.6457C107.468 54.7656 107.075 54.8424 106.678 54.8746C105.162 55.0281 103.649 54.5547 102.488 53.5642C101.328 52.5737 100.621 51.1522 100.531 49.6294C100.482 49.0316 100.521 48.4299 100.648 47.8442L64.9793 50.9016C65.2131 51.4455 65.3712 52.0189 65.4491 52.6056C65.6202 54.1374 65.1753 55.673 64.2128 56.8732C63.2502 58.0735 61.8492 58.8397 60.3191 59.0025C59.9182 59.0338 59.5153 59.0308 59.1147 58.9936L61.791 80.3949L63.3678 82.1468L61.8815 81.1155L67.1718 123.336C67.4874 123.243 67.8105 123.177 68.1375 123.139C70.7391 122.794 73.1384 124.609 73.5205 127.21C73.5644 127.658 73.5358 128.109 73.4359 128.547L103.697 125.916C103.545 125.528 103.448 125.121 103.411 124.707C103.333 122.067 105.333 119.833 107.962 119.623C108.333 119.595 108.706 119.604 109.075 119.651L108.859 108.387L103.178 113.385L108.861 106.669L108.195 71.449L104.533 73.5633L108.143 70.1733Z" fill="#7E5C4C"/>
</g>
<g style="mix-blend-mode:multiply" opacity="0.28">
<path d="M112.661 65.3264L112.522 48.2689C112.52 46.6163 111.829 45.0407 110.615 43.9205C109.401 42.8004 107.774 42.237 106.123 42.3657L86.7177 44.0239C84.8822 46.7974 83.4996 45.3849 82.8395 44.3607L58.8733 46.4239C57.2068 46.5687 55.6719 47.3922 54.6296 48.7008C53.5873 50.0094 53.1295 51.6876 53.3639 53.3408L54.6073 62.9056L60.4023 73.2701L54.8683 64.8457L56.0472 73.8822L63.1493 81.7783L56.4898 77.2085L63.1089 127.782C63.5883 130.689 66.2636 132.707 69.1965 132.374L72.1526 132.107C73.7948 129.445 74.8978 130.522 75.5368 131.867L104.205 129.316C104.679 127.637 105.332 128.083 105.935 129.158L107.864 128.986C110.822 128.786 113.148 126.374 113.239 123.415L113.058 104.171L102.936 112.98L113.029 101.086L112.807 77.3069C108.654 77.1681 111.246 75.9119 112.795 75.2916L112.719 68.3435L104.367 73.1652L112.661 65.3264Z" fill="url(#paint1_linear_71_198)"/>
</g>
<g style="mix-blend-mode:multiply" opacity="0.46">
<path d="M113.68 114.197C113.757 114.152 113.628 114.107 113.584 114.03L113.869 113.866C113.81 113.763 113.733 114.2 113.963 114.357C113.97 114.131 113.789 114.236 113.68 114.197Z" fill="#AA1535"/>
<path d="M105.345 138.925L105.315 138.634C105.315 138.634 105.535 138.866 105.345 138.925Z" fill="#AA1535"/>
<path d="M104.875 138.65L104.966 138.598L104.84 138.38L104.425 138.619L104.492 138.735L104.425 138.619C104.282 138.702 104.327 138.898 104.273 139.015C104.219 139.131 104.747 138.997 105.012 138.827L105.063 138.917C104.635 139.164 104.232 139.004 103.742 138.843C103.643 138.697 103.613 138.515 103.661 138.344C104.244 138.007 104.725 138.241 105.143 138.546L104.875 138.65Z" fill="#AA1535"/>
<path d="M104.45 138.213L104.501 138.302L104.277 138.483L104.45 138.213V138.213Z" fill="#AA1535"/>
<path d="M103.806 109.76C103.393 109.554 103.527 109.068 103.777 108.752C104.051 108.748 104.283 108.46 104.577 108.461C104.577 108.461 104.412 109.103 104.851 108.935C104.584 108.713 105.11 108.546 105.364 108.536L105.091 108.693C105.247 108.962 105.493 108.82 105.685 109.033L105.413 109.19L105.612 109.536C105.02 109.588 104.451 109.95 103.806 109.76Z" fill="#AA1535"/>
<path d="M100.129 129.802C99.4871 129.797 98.8759 130.116 98.6047 129.317C98.62 128.864 99.1367 128.651 99.4404 128.578L100.282 128.69L100.192 128.742L100.436 129.164L100.345 129.217L100.5 129.485C100.311 129.458 99.9815 129.665 100.129 129.802Z" fill="#AA1535"/>
<path d="M101.389 109.227C101.322 109.112 101.426 108.932 101.417 108.767C101.728 108.468 102.089 108.584 102.48 108.631C102.246 108.766 102.141 108.554 101.902 108.828L101.998 109.234C102.153 109.144 102.374 109.017 102.442 109.165C102.116 109.319 101.711 109.485 101.389 109.227Z" fill="#AA1535"/>
<path d="M96.1173 132.374L96.027 132.068L96.4807 131.806C96.4807 131.806 96.3381 131.888 96.3252 131.896L96.3991 132.024L96.8011 131.672C96.8194 131.884 97.0287 131.797 97.1249 131.844L96.8824 131.813L96.8508 131.968L96.7843 131.853L96.5173 132.229L97.3668 132.353C96.9853 132.47 96.5315 132.732 96.1173 132.374Z" fill="#AA1535"/>
<path d="M73.4535 130.697C73.1456 131.301 73.8715 131.002 73.986 131.26C73.7526 131.395 73.5347 130.957 73.3028 131.364C73.4088 131.637 73.7181 131.772 73.9948 131.664C73.6168 131.968 72.8326 131.448 72.4523 132.197C72.5435 132.237 72.6062 132.322 72.6171 132.421C72.628 132.519 72.5855 132.617 72.5054 132.678C71.928 132.636 71.5978 133.202 71.0759 133.196L71.2237 133.452C70.7126 133.46 70.2029 133.411 69.7041 133.305C69.9107 134.022 68.8453 133.255 68.7966 133.829C68.6305 133.362 68.2736 133.073 68.0123 133.309C67.3922 132.795 67.0774 132.002 67.1743 131.199C67.0397 130.697 67.4063 130.673 67.5957 130.103L67.6696 130.231C67.7531 130.046 68.0254 129.889 67.8794 129.666C68.1828 129.643 68.4603 129.483 68.6314 129.232C68.7299 128.833 69.1135 128.51 69.3558 128.66C69.44 128.6 69.4877 128.501 69.4819 128.399C69.6471 128.438 69.8213 128.383 69.9356 128.257C70.7551 128.214 71.5542 127.975 72.2649 127.56L72.0186 127.703L72.0701 128.031L72.7944 127.459C72.646 127.801 72.1441 128.04 72.2584 128.417C72.3728 128.795 72.7415 128.446 72.9822 128.443L72.7099 128.601C72.8946 128.921 73.3912 128.463 73.6648 128.817C73.1293 129.297 73.4028 129.651 73.7079 129.97L74.5037 130.091C74.058 130.032 73.6256 130.282 73.4535 130.697Z" fill="#AA1535"/>
<path d="M92.7303 128.783C92.834 128.723 92.8989 128.686 92.8898 128.521C92.8807 128.355 92.555 128.27 92.3682 128.156L92.1958 128.426C92.351 128.695 92.5439 128.311 92.5768 128.667C92.3117 129.076 91.9772 128.587 91.6737 128.54C91.5817 127.962 92.1796 128.009 92.4516 128.091C92.7236 128.173 92.9566 128.397 93.2063 128.56C93.1341 128.584 92.9116 128.918 92.7303 128.783Z" fill="#AA1535"/>
<path d="M87.4833 126.522C87.1153 126.274 86.8549 125.673 87.0551 125.421C87.2553 125.169 87.2647 125.095 87.3259 124.992C87.0911 124.934 86.9043 124.76 86.8319 124.531C86.7595 124.302 86.8116 124.05 86.9699 123.866C88.4068 123.361 89.3457 124.628 89.9153 125.135L89.5782 125.33L89.8852 125.562C89.3077 126.281 88.3939 126.646 87.4833 126.522V126.522Z" fill="#AA1535"/>
<path d="M93.1847 116.216L93.3532 116.238C93.0852 116.327 92.838 116.47 92.6271 116.658C92.701 116.786 92.7601 116.888 92.9341 116.89L93.0249 116.838C92.8822 116.92 92.4382 116.75 92.5117 117.236L92.5708 117.339C91.8436 117.127 91.5595 117.923 90.8768 117.668C90.1708 118.332 89.672 117.408 89.189 117.38C89.2856 117.068 88.9451 116.957 88.9232 116.68L89.2525 115.124C89.5773 114.947 89.8604 114.702 90.0826 114.406C89.6733 114.097 89.4072 113.636 89.3436 113.126C89.241 112.23 90.1053 112.26 90.441 111.674C90.7369 111.947 91.1887 111.771 91.535 111.622L91.7425 111.502C91.2957 112.136 92.3268 112.035 92.6653 112.233L92.9078 112.263C92.7263 112.368 92.4764 112.325 92.4021 112.555L92.974 112.618C92.8368 112.64 92.7123 112.712 92.624 112.82L92.7791 113.088C92.6422 113.031 92.5976 113.193 92.4939 113.253C92.3902 113.313 92.5974 113.432 92.6491 113.522L92.3509 113.694C92.4987 113.95 92.7356 114.001 92.5556 114.378L93.3383 114.626L93.053 114.79C93.1097 114.948 93.2659 115.046 93.4341 115.031L93.5248 114.979L93.2969 115.213L93.8539 115.369C93.6462 115.728 92.8243 115.742 93.1847 116.216Z" fill="#AA1535"/>
<path d="M91.6811 105.138L91.8067 105.356C91.3011 105.648 90.7097 106.45 89.7714 106.292C89.2217 106.268 88.9759 105.932 88.4968 105.611C88.4312 104.659 88.9019 104.217 89.593 103.647C89.9536 103.883 90.8056 103.442 91.2738 103.564L91.3516 103.519L91.0274 103.707L92.0579 104.204C91.891 104.454 91.8795 104.853 91.6811 105.138Z" fill="#AA1535"/>
<path d="M88.2442 118.079L88.2219 118.16L87.9925 118.122L88.0018 118.048L88.2442 118.079V118.079Z" fill="#AA1535"/>
<path d="M83.0741 120.023C83.105 119.953 83.152 119.891 83.2112 119.841C83.0556 119.931 83.2458 120.35 83.4034 120.174C83.3034 120.181 82.9776 120.215 83.0741 120.023Z" fill="#AA1535"/>
<path d="M80.2262 119.192L80.2854 119.295C80.3871 119.321 79.8447 119.43 79.948 119.728C78.9313 120.213 79.113 118.282 77.9568 119.274C77.6169 118.685 76.8171 118.857 76.8439 118.005C77.0191 117.446 77.5072 117.037 78.0908 116.961L78.8683 116.87C78.8251 116.918 78.8174 116.988 78.8494 117.043C78.8813 117.099 78.9456 117.127 79.0087 117.114L79.3456 117.158C78.9785 117.66 79.7673 117.409 79.8539 117.769L79.7891 117.806C79.72 118.375 80.3292 118.143 80.4231 118.635L80.6654 118.785C80.6559 118.978 80.3634 119.011 80.2262 119.192Z" fill="#AA1535"/>
<path d="M79.9701 106.592C80.1717 106.732 79.5517 106.646 79.816 106.954C79.4588 106.904 79.4232 107.351 79.1159 107.358L79.1602 107.435C78.6608 107.109 78.5262 108.313 77.7477 107.653C77.2381 108.118 77.1633 107.12 76.7634 107.266C76.4347 106.706 76.4862 105.999 76.8931 105.484C77.3583 104.943 77.1653 105.327 77.7768 104.769L78.1139 104.575C78.141 105.19 78.6846 104.006 78.8005 104.656C79.0745 104.652 79.2543 104.394 79.5781 104.566C79.4843 104.611 79.4244 104.705 79.4242 104.808C79.5424 105.013 79.7979 104.916 79.9552 104.979L79.8217 105.227L80.1823 105.463C80.0916 105.515 80.0268 105.552 80.0284 105.705L80.2615 105.809C80.3258 106.25 79.5967 106.125 79.9701 106.592Z" fill="#AA1535"/>
<path d="M79.4179 108.72L80.0065 108.721L79.6604 108.75L79.4179 108.72V108.72Z" fill="#AA1535"/>
</g>
<g style="mix-blend-mode:multiply" opacity="0.28">
<path d="M84.2673 132.15C84.8118 131.955 87.1845 133.879 88.3902 134.89L91.0743 133.101C90.9413 132.871 90.7861 132.602 90.7069 132.255C89.4163 129.331 92.2887 131.342 92.2887 131.342C92.1847 129.934 93.3635 130.209 94.5641 130.882L108.309 121.751C110.928 120.167 111.85 116.829 110.401 114.178L78.5723 61.8326L72.9687 62.3373C71.2958 62.4892 69.752 63.3181 68.7004 64.6292C67.6487 65.9402 67.1819 67.6177 67.4098 69.2671L68.6153 78.8107L74.3845 89.1327L68.8686 80.7465L70.0117 89.763L77.1035 97.6148L70.4412 93.0818L76.7184 142.55L84.9264 137.094C84.3919 135.031 83.7822 132.328 84.2673 132.15Z" fill="url(#paint2_linear_71_198)"/>
</g>
<path d="M100.807 107.771L60.0098 40.6703C59.0887 39.1245 57.5649 38.0295 55.7949 37.6414C54.025 37.2533 52.1641 37.6062 50.6478 38.6176L39.5241 46.1491C39.956 47.3163 40.5019 49.1002 39.9594 49.2086C38.8447 48.9907 37.7802 48.5766 36.8159 47.9858L36.0898 48.405L36.6285 50.0566L35.3415 48.9053L23.8695 56.6721C24.3957 59.5596 21.5097 59.7411 19.5682 59.5821L8.22211 67.3274C6.72637 68.3303 5.7336 69.9226 5.49988 71.6936C5.26616 73.4645 5.81438 75.2408 7.00312 76.5642L46.1308 123.945L50.7243 111.241L47.238 125.353L56.78 136.91C58.842 139.164 62.2863 139.522 64.8181 137.748L75.3174 130.781C74.7829 128.718 74.1862 126.007 74.6454 125.845C75.1046 125.682 77.5755 127.566 78.7812 128.577L81.4653 126.788C81.3323 126.558 81.1771 126.289 81.0979 125.942C79.8073 123.018 82.6428 124.965 82.6428 124.965C82.5388 123.557 83.7176 123.832 84.9182 124.504L98.6628 115.374C101.318 113.806 102.266 110.442 100.807 107.771V107.771Z" fill="#A28768"/>
<path d="M101.018 107.956L60.215 40.8761C59.2951 39.3328 57.7743 38.2389 56.0074 37.8495C54.2406 37.4602 52.3822 37.8095 50.866 38.8159L39.6775 46.3849C40.1093 47.552 40.6682 49.3285 40.1257 49.4369C39.0082 49.2381 37.9391 48.8374 36.971 48.2546L36.245 48.6738L36.7707 50.3329L35.4836 49.1816L24.0117 56.9484C24.5305 59.8232 21.6649 60.0099 19.7104 59.8584L8.36988 67.5834C6.88259 68.5916 5.8975 70.1828 5.66657 71.95C5.43563 73.7173 5.98124 75.4893 7.16385 76.8127L46.2526 124.216L50.8462 111.512L47.456 125.671L57.0111 137.221C59.073 139.474 62.5173 139.833 65.0491 138.058L75.5354 131.099C75.0009 129.036 74.4172 126.318 74.8764 126.155C75.3356 125.992 77.7935 127.884 78.9993 128.895L81.6834 127.106L81.316 126.26C80.0383 123.328 82.9107 125.339 82.9107 125.339C82.7994 123.919 83.9855 124.207 85.1731 124.886L98.9178 115.756C100.234 114.987 101.195 113.733 101.589 112.27C101.983 110.808 101.778 109.256 101.018 107.956Z" fill="url(#paint3_linear_71_198)"/>
<path opacity="0.274749" d="M58.2248 132.765L12.82 77.3869C11.7746 76.2294 11.2762 74.6807 11.4483 73.1243C11.6204 71.568 12.4469 70.1494 13.7231 69.2199L50.2731 44.3461C51.6514 43.495 53.3116 43.2311 54.8751 43.6147C56.4386 43.9983 57.7719 44.9966 58.5708 46.3819L96.4156 107.2C97.8078 109.524 97.0831 112.546 94.7772 114.034L65.3631 133.661C63.0779 135.202 60.0136 134.817 58.2248 132.765V132.765Z" fill="white"/>
<path d="M92.1471 113.88C91.4542 112.785 91.233 111.455 91.5326 110.186C91.8321 108.918 92.6278 107.815 93.7428 107.122C94.0649 106.893 94.4079 106.695 94.7671 106.531L58.9475 48.8609C58.6499 49.1745 58.3201 49.4564 57.9637 49.702C56.5845 50.649 54.889 51.0164 53.2509 50.7233C51.6127 50.4303 50.1664 49.5007 49.2305 48.1395C48.8872 47.6278 48.6221 47.0678 48.4438 46.4775L16.3083 68.1882C16.8389 68.545 17.3114 68.9798 17.7099 69.4781C18.7131 70.7413 19.1488 72.3627 18.916 73.9665C18.6832 75.5702 17.8021 77.0172 16.4769 77.9721C16.1203 78.2211 15.7429 78.439 15.3489 78.6233L48.1021 119.035L50.8556 111.438L48.8322 119.91L57.9342 131.124C58.1844 130.888 58.452 130.671 58.7345 130.474C60.9648 128.848 64.0603 129.187 65.8397 131.253C66.1251 131.596 66.3499 131.986 66.5048 132.405L74.8034 126.897C74.7854 126.446 74.8228 126.152 74.9672 126.103C75.1117 126.053 75.3503 126.137 75.6944 126.314L93.0976 114.748C92.7383 114.508 92.4179 114.215 92.1471 113.88Z" fill="#CEBA9A"/>
<mask id="mask0_71_198" style="mask-type:alpha" maskUnits="userSpaceOnUse" x="15" y="46" width="80" height="87">
<path d="M92.1471 113.88C91.4542 112.785 91.233 111.455 91.5326 110.186C91.8321 108.918 92.6278 107.815 93.7428 107.122C94.0649 106.893 94.4079 106.695 94.7671 106.531L58.9475 48.8609C58.6499 49.1745 58.3201 49.4564 57.9637 49.702C56.5845 50.649 54.889 51.0164 53.2509 50.7233C51.6127 50.4303 50.1664 49.5007 49.2305 48.1395C48.8872 47.6278 48.6221 47.0678 48.4438 46.4775L16.3083 68.1882C16.8389 68.545 17.3114 68.9798 17.7099 69.4781C18.7131 70.7413 19.1488 72.3627 18.916 73.9665C18.6832 75.5702 17.8021 77.0172 16.4769 77.9721C16.1203 78.2211 15.7429 78.439 15.3489 78.6233L48.1021 119.035L50.8556 111.438L48.8322 119.91L57.9342 131.124C58.1844 130.888 58.452 130.671 58.7345 130.474C60.9648 128.848 64.0603 129.187 65.8397 131.253C66.1251 131.596 66.3499 131.986 66.5048 132.405L74.8034 126.897C74.7854 126.446 74.8228 126.152 74.9672 126.103C75.1117 126.053 75.3503 126.137 75.6944 126.314L93.0976 114.748C92.7383 114.508 92.4179 114.215 92.1471 113.88Z" fill="white"/>
</mask>
<g mask="url(#mask0_71_198)">
</g>
<g style="mix-blend-mode:screen">
<path d="M39.7441 46.3805C40.176 47.5477 40.7348 49.3242 40.1924 49.4326C39.0521 49.2429 37.9597 48.8434 36.9711 48.2546L36.245 48.6738L36.7707 50.3329L35.4837 49.1816L29.267 53.3852L22.8728 95.6974L31.6847 106.379L47.9596 40.8182L39.7441 46.3805Z" fill="url(#paint4_linear_71_198)"/>
</g>
<g style="mix-blend-mode:screen">
<path d="M52.194 38.1515L34.415 109.7L34.5849 109.995L56.1869 37.9112C54.8673 37.5822 53.4731 37.6661 52.194 38.1515V38.1515Z" fill="url(#paint5_linear_71_198)"/>
</g>
<defs>
<linearGradient id="paint0_linear_71_198" x1="-35.8769" y1="43.4278" x2="67.5757" y2="201.458" gradientUnits="userSpaceOnUse">
<stop stop-color="#CF7A67"/>
<stop offset="0.38" stop-color="#C08E6E"/>
<stop offset="1" stop-color="#FFA472"/>
</linearGradient>
<linearGradient id="paint1_linear_71_198" x1="153.648" y1="116.56" x2="104.259" y2="31.017" gradientUnits="userSpaceOnUse">
<stop stop-color="white"/>
<stop offset="0.2" stop-color="#FEF8F8"/>
<stop offset="0.37" stop-color="#FDE3E4"/>
<stop offset="0.58" stop-color="#A48878"/>
<stop offset="0.82" stop-color="#733E3F"/>
<stop offset="1" stop-color="#50191B"/>
</linearGradient>
<linearGradient id="paint2_linear_71_198" x1="131.597" y1="154.212" x2="98.4467" y2="96.7948" gradientUnits="userSpaceOnUse">
<stop stop-color="#BA386F"/>
<stop offset="0.1" stop-color="#C55886"/>
<stop offset="0.32" stop-color="#D993B1"/>
<stop offset="0.51" stop-color="#EAC1D2"/>
<stop offset="0.68" stop-color="#F5E3EB"/>
<stop offset="0.82" stop-color="#FCF8FA"/>
<stop offset="1" stop-color="#440F0F"/>
</linearGradient>
<linearGradient id="paint3_linear_71_198" x1="-51.7685" y1="43.1294" x2="49.2804" y2="193.444" gradientUnits="userSpaceOnUse">
<stop stop-color="white"/>
<stop offset="0.38" stop-color="#F8D5AE"/>
<stop offset="1" stop-color="#F0D1AE"/>
</linearGradient>
<linearGradient id="paint4_linear_71_198" x1="105.134" y1="95.8421" x2="81.2537" y2="-27.9628" gradientUnits="userSpaceOnUse">
<stop stop-color="#D56262"/>
<stop offset="0.28" stop-color="#4D1D00"/>
<stop offset="0.63" stop-color="#EBA85B"/>
<stop offset="0.88" stop-color="#E89200"/>
<stop offset="0.999816" stop-color="#D1A773"/>
</linearGradient>
<linearGradient id="paint5_linear_71_198" x1="118.373" y1="96.6171" x2="91.5264" y2="-39.4255" gradientUnits="userSpaceOnUse">
<stop stop-color="#D56262"/>
<stop offset="0.28" stop-color="#4D1D00"/>
<stop offset="0.63" stop-color="#EBA85B"/>
<stop offset="0.88" stop-color="#E89200"/>
<stop offset="0.999816" stop-color="#D1A773"/>
</linearGradient>
</defs>
</svg>
