<svg width="200" height="195" viewBox="0 0 200 195" fill="none" xmlns="http://www.w3.org/2000/svg">
<path fill-rule="evenodd" clip-rule="evenodd" d="M102.312 7.78571C124.248 10.519 142.457 25.3264 155.338 43.3348C166.251 58.5912 168.424 77.9107 165.764 96.4935C163.486 112.404 154.074 125.701 142.028 136.309C130.879 146.127 117.025 150.429 102.312 152.371C84.4776 154.725 65.5414 158.354 50.553 148.383C32.9475 136.67 21.1717 117.482 18.3208 96.4935C15.052 72.4286 17.5559 45.8604 34.2345 28.2451C51.1895 10.3382 77.8726 4.74048 102.312 7.78571Z" fill="white"/>
<path d="M89.556 117.188C89.556 117.188 99.9406 110.994 110.337 101.998C120.722 93.002 127.315 86.409 127.315 86.409C127.315 86.409 134.113 80.0212 138.702 72.6192C143.302 65.2292 144.691 59.8316 144.691 59.8316C144.691 59.8316 145.693 53.4318 145.693 50.4371C145.693 47.4425 145.09 46.4403 145.09 46.4403L143.29 45.0396C143.29 45.0396 133.896 43.2404 127.701 44.4358C121.507 45.6312 115.518 48.2274 115.518 48.2274L112.318 49.8213C112.318 49.8213 107.319 40.0284 103.72 38.2292C100.122 36.43 97.1271 36.6353 97.1271 36.6353L88.3364 39.6299L85.3418 41.2238L83.3494 43.6268C83.3494 43.6268 72.9648 47.0199 67.1687 50.4251C61.3726 53.8182 56.3735 65.205 56.3735 65.205L55.5766 70.2041L55.9751 73.1988C55.9751 73.1988 49.3941 76.6643 48.9836 76.9541C44.8659 79.9246 42.4751 83.6075 40.4102 88.1116C38.3091 92.7001 37.9348 98.0856 38.8646 103.012C39.6374 107.106 42.3181 111.791 44.7814 115.148C50.7707 123.347 63.365 125.738 63.365 125.738C63.365 125.738 75.1504 126.933 89.5439 117.14L89.556 117.188Z" fill="#68382D"/>
<path d="M41.0019 90.2249C41.0019 90.2249 41.4004 100.211 48.9956 107.009C56.5909 113.796 59.3803 112.6 59.3803 112.6C59.3803 112.6 62.1817 112.999 60.9742 109.606C59.7787 106.212 59.3803 99.4141 59.3803 98.8104C59.3803 98.2066 60.1772 94.6203 60.1772 94.6203L60.781 92.2173C60.781 92.2173 59.187 87.822 57.9795 83.6198C56.7841 79.4298 55.9871 73.2231 55.9871 73.2231C55.9871 73.2231 42.4026 78.4155 41.0019 90.2129L41.0019 90.2249Z" fill="#4D251B"/>
<path d="M113.344 51.6569L114.745 56.4507L116.339 59.2522L124.127 66.0505C124.127 66.0505 131.324 56.0643 133.522 53.6614C135.719 51.2584 140.718 47.2736 140.718 47.2736C140.718 47.2736 125.528 44.0737 113.344 51.669L113.344 51.6569Z" fill="#4D251B"/>
<path d="M83.3615 43.6631L77.3722 52.8523L72.7716 57.6461C72.7716 57.6461 64.5846 63.2369 64.3794 65.4346C64.1741 67.6322 66.9755 79.0191 68.3762 83.2212C69.777 87.4234 76.7685 90.0195 84.9554 88.0151C93.1423 86.0106 102.537 81.6273 102.537 81.6273L99.9407 84.2235C99.9407 84.2235 91.3432 88.8241 83.5547 90.8165C75.7662 92.8089 71.7694 93.0142 71.7694 93.0142L65.7801 93.2195L60.781 92.2172C60.781 92.2172 57.5811 83.2212 56.7841 78.2342C55.9872 73.2351 56.3856 65.2414 56.3856 65.2414C56.3856 65.2414 57.7863 60.2422 63.1839 53.8545C68.5815 47.4668 83.3615 43.6631 83.3615 43.6631V43.6631Z" fill="#7A432F"/>
<g style="mix-blend-mode:color-dodge">
<path d="M81.9729 45.0637C81.9729 45.0637 74.3776 48.0584 69.789 50.6545C65.2005 53.2507 60.5999 57.6098 58.5109 62.5364C58.2935 63.0436 58.2694 63.7198 58.7041 64.0579C59.0784 64.3477 59.6097 64.2511 60.0686 64.1304C63.5462 63.1764 66.7823 61.655 69.789 59.6505C72.7837 57.6581 77.3843 52.659 78.785 50.6545C80.1857 48.6621 81.9849 45.0637 81.9849 45.0637L81.9729 45.0637Z" fill="url(#paint0_linear_71_197)"/>
</g>
<path opacity="0.66" d="M95.5695 39.4972C92.5024 40.1131 89.1455 42.0088 87.5636 43.4579C85.1607 45.6555 82.1661 53.6493 81.7676 55.2432C81.3691 56.8371 80.1737 61.4377 81.7676 63.2369C83.3615 65.0361 90.7636 68.8277 96.3543 69.033C99.1075 69.1296 102.187 69.0692 104.819 68.2119C105.785 67.8979 106.703 67.4874 107.62 67.0768C109.758 66.1229 111.617 65.5071 112.934 63.3939C113.839 61.9449 114.358 60.2906 114.866 58.6484C114.02 59.385 113.018 59.9404 111.943 60.2423C110.675 56.7767 110.277 52.7919 108.176 49.749C105.918 46.4887 103.382 43.4096 100.689 40.5115C99.518 39.2557 97.6102 39.0867 95.5695 39.4972V39.4972Z" fill="#4D251B"/>
<g style="mix-blend-mode:color-dodge">
<path d="M80.403 63.8287C81.5381 64.6498 82.6732 65.5192 83.7841 66.2437C86.018 67.6806 88.8436 68.381 91.3552 69.2383C100.146 72.233 111.533 66.0384 111.738 67.2338C111.943 68.4293 109.939 75.0344 104.747 78.826C99.5542 82.6176 87.7568 87.2182 81.3691 87.025C74.9813 86.8318 72.3731 79.2365 70.9844 75.6381C69.5837 72.0397 68.7868 66.8474 68.7868 66.8474C68.7868 66.8474 68.5815 63.4543 70.7792 62.0536C74.2568 59.8318 77.3963 61.6672 80.4151 63.8407L80.403 63.8287Z" fill="url(#paint1_radial_71_197)"/>
</g>
<path opacity="0.66" d="M116.411 59.0588C115.819 61.3531 114.793 63.5387 113.392 65.4466C113.127 65.8088 112.849 66.1711 112.68 66.5937C112.523 66.9922 112.487 67.4148 112.426 67.8375C112.04 70.7355 111.001 73.5249 109.456 76.0003C113.634 72.0758 117.281 67.5839 120.251 62.6935C118.971 61.5825 117.739 60.4354 116.532 59.252L116.411 59.0588V59.0588Z" fill="#4D251B"/>
<g style="mix-blend-mode:color-dodge">
<path d="M113.344 51.657C113.344 51.657 116.942 49.0608 124.731 47.2616C132.519 45.4624 137.313 46.6578 137.313 46.6578L140.706 47.2616L143.302 45.0639C143.302 45.0639 136.504 43.47 129.114 44.4602C121.724 45.4624 115.53 48.2518 115.53 48.2518L112.33 49.8457L113.332 51.6449L113.344 51.657Z" fill="url(#paint2_linear_71_197)"/>
</g>
<path d="M40.8087 87.4233C40.8087 87.4233 38.2125 90.6233 39.6132 99.8124C41.014 109.002 45.204 112.805 45.204 112.805C45.204 112.805 50.3963 119 59.5855 121.994C68.7747 124.989 79.9684 119.592 79.9684 119.592C79.9684 119.592 85.9576 117.792 93.7582 111.199C101.547 104.606 106.751 96.8178 106.751 96.8178L103.358 102.409C103.358 102.409 96.1611 111.803 90.9688 115.993C85.7765 120.183 78.9782 122.985 78.9782 122.985C78.9782 122.985 67.5913 127.778 57.5931 124.385C47.607 120.992 42.6079 111.598 40.8087 109.002C39.0095 106.405 37.0171 92.6156 40.8087 87.4233V87.4233Z" fill="#B66F56"/>
<path opacity="0.58" d="M89.7009 116.428C89.7009 116.428 93.7582 115.824 104.143 100.803C114.527 85.7812 118.561 77.2924 118.561 77.2924C118.561 77.2924 124.828 64.3237 129.972 58.2861C135.116 52.2485 144.51 44.8706 144.51 44.8706C144.51 44.8706 146.297 47.7807 145.633 54.7118C144.957 61.643 141.612 68.5741 141.612 68.5741C141.612 68.5741 137.591 75.2879 132.217 81.3254C126.844 87.363 114.552 98.5446 114.552 98.5446C114.552 98.5446 93.2752 116.476 89.7251 116.44L89.7009 116.428Z" fill="#C1694D"/>
<g style="mix-blend-mode:color-dodge">
<path d="M49.865 116.754C42.0887 110.294 37.9469 99.752 40.0963 89.7659C41.8109 94.5355 43.755 99.2932 46.7376 103.399C49.7201 107.504 53.8619 110.934 58.7765 112.214C59.2233 112.334 59.6942 112.431 60.141 112.31C61.59 111.924 61.5296 109.859 61.1553 108.41C59.7546 103.036 58.3659 97.0472 61.0587 92.1809C60.3704 93.4246 64.0171 97.8804 64.7899 98.7498C66.6253 100.803 67.9778 101.165 70.6222 101.406C75.4764 101.853 80.9344 101.913 85.5712 100.211C87.6602 99.4501 96.4026 97.4577 97.103 94.9099C94.7242 103.544 90.027 111.537 83.6271 117.804C82.8664 118.541 81.5864 118.939 80.6204 119.374C78.9541 120.111 77.2394 120.727 75.4885 121.234C72.0229 122.224 68.3883 122.743 64.7778 122.574C59.501 122.32 54.043 120.244 49.865 116.778V116.754Z" fill="url(#paint3_radial_71_197)"/>
</g>
<g style="mix-blend-mode:color-dodge">
<path d="M85.6075 41.8639C85.6075 41.8639 88.3485 41.6707 87.5637 43.4578C86.7788 45.257 83.0596 51.2463 81.0914 53.8545C79.1352 56.4506 76.1889 59.8438 72.6629 61.643C67.9536 64.0459 62.5802 67.9341 57.0981 67.7892C56.8687 67.7892 56.6392 67.7651 56.446 67.6443C56.0475 67.3786 56.0838 66.7749 56.1924 66.2919C56.6755 64.3478 57.7864 62.1743 58.9214 60.5441C56.7721 63.7078 59.332 65.1206 62.061 64.2391C65.7922 63.0437 70.8879 60.037 74.607 56.6439C78.3262 53.2507 85.5833 41.8518 85.5833 41.8518L85.6075 41.8639Z" fill="url(#paint4_linear_71_197)"/>
</g>
<path d="M59.3924 59.2522L57.1947 64.6498C57.1947 64.6498 57.5932 65.8452 59.5976 65.0483C61.59 64.2513 67.1929 60.8582 67.1929 60.8582C67.1929 60.8582 64.5967 63.6596 62.0006 65.0483C59.4044 66.449 57.6052 66.2437 57.6052 66.2437C57.6052 66.2437 58.0037 76.0366 60.2014 83.0281C62.3991 90.0196 64.3915 92.8211 64.3915 92.8211L61.0587 92.1811C61.0587 92.1811 58.5954 86.8197 57.2068 79.4298C55.806 72.0398 56.4098 65.2415 56.4098 65.2415C56.4098 65.2415 56.8083 62.44 59.4044 59.2522H59.3924Z" fill="#A27665"/>
<path d="M51.3986 118.589C51.3986 118.589 49.8046 119.592 51.1933 120.787C52.594 121.982 54.9849 123.782 57.581 124.385C60.1772 124.989 64.3793 125.979 64.3793 125.979C64.3793 125.979 68.5694 122.912 64.7778 122.55C60.9862 122.188 58.1848 121.982 58.1848 121.982L51.3865 118.589L51.3986 118.589Z" fill="#C0826B"/>
<g style="mix-blend-mode:color-burn">
<path d="M92.9612 97.4095C92.9612 97.4095 99.7595 98.6049 98.1535 102.409C96.5596 106.2 94.5551 109.799 91.162 112.6C87.7689 115.401 86.1629 116.392 86.1629 116.392C86.1629 116.392 96.7528 109.593 102.344 102.602C107.934 95.6103 113.139 85.6121 113.139 85.6121C113.139 85.6121 106.34 93.002 92.9612 97.3974V97.4095Z" fill="url(#paint5_linear_71_197)"/>
</g>
<path d="M61.0466 92.1811L65.3816 99.8126C65.3816 99.8126 70.9724 102.216 77.7707 101.008C84.569 99.8126 92.9612 97.4096 92.9612 97.4096L106.944 90.6113L113.139 86.216L119.937 74.0322L124.332 66.6422L120.251 62.6936C120.251 62.6936 117.365 68.7795 109.456 76.0004C101.559 83.2213 96.7528 86.0228 96.7528 86.0228L81.7676 91.8188L70.1754 93.0143C70.1754 93.0143 62.7009 93.3403 61.0466 92.1811V92.1811Z" fill="#A76149"/>
<path d="M103.551 82.231L107.548 89.621L113.139 86.2278L122.533 69.2502L118.536 66.0503C118.536 66.0503 117.232 69.6728 113.344 72.8486C109.456 76.0123 103.551 82.2431 103.551 82.2431L103.551 82.231Z" fill="#844938"/>
<path d="M64.3794 92.821C64.3794 92.821 66.1786 96.6126 66.7823 97.8201C67.3861 99.0156 68.5815 100.622 68.5815 100.622L65.3816 99.8246L61.0466 92.1931L64.3794 92.8331V92.821Z" fill="#C08A77"/>
<path d="M66.9755 93.2556C66.8185 93.2556 66.6857 93.2918 66.6495 93.3522C66.4925 93.5575 66.5287 93.8473 66.5649 94.1008C66.8547 95.9363 67.4827 97.7113 68.4124 99.3294C68.6177 99.6916 68.8471 100.054 69.1973 100.295C69.475 100.489 69.8132 100.585 70.1392 100.67C72.361 101.249 74.281 101.165 76.5149 100.972C77.9397 100.851 79.594 100.947 80.9827 100.597L88.5779 98.6049C88.5779 98.6049 90.1718 96.0087 89.3749 93.6058C88.5779 91.2028 85.9818 90.2126 85.9818 90.2126C85.9818 90.2126 78.1933 92.6035 75.1866 92.8088C73.6047 92.9175 72.0229 93.0262 70.4411 93.1469C69.7407 93.1952 69.0403 93.2556 68.34 93.3039C68.0743 93.328 67.3981 93.2194 66.9755 93.2435V93.2556Z" fill="#D39BB1"/>
<path d="M68.0985 94.3787C68.0985 94.3787 68.2434 96.359 69.1249 97.9771C70.0064 99.5951 71.9867 101.068 71.9867 101.068L69.8494 100.706C69.8494 100.706 67.7121 98.7257 67.1325 97.0352C66.5408 95.3447 66.6253 93.3644 66.6253 93.3644L68.3158 93.3281L68.0864 94.3907L68.0985 94.3787Z" fill="#879068"/>
<path d="M84.9313 90.5508C84.9313 90.5508 87.141 92.1688 87.4308 94.1491C87.7206 96.1295 87.4308 97.3128 87.4308 97.3128L86.7667 99.1482L88.904 98.5566C88.904 98.5566 90.1598 96.7211 89.2662 93.8593C88.3848 90.9855 85.9577 90.2126 85.9577 90.2126L84.9313 90.5508V90.5508Z" fill="#879068"/>
<path d="M78.3986 100.911C79.3284 100.73 80.234 100.464 81.1638 100.356C79.8959 100.513 78.6642 99.8124 77.6982 98.9792C77.0341 98.4117 76.4062 97.6872 76.382 96.8178C76.3579 95.9484 76.9254 95.1755 77.5896 94.6201C78.4952 93.8594 79.5699 93.3401 80.6566 92.8933C81.7072 92.4466 82.8181 91.7945 83.9894 91.9153C85.5108 92.0722 85.692 93.7628 85.9214 95.0065C86.0663 95.8155 86.1991 96.6366 86.0784 97.4457C86.3802 95.5016 86.1629 94.0646 85.3176 92.3258C85.2573 92.2051 85.1969 92.0843 85.221 91.9515C85.2573 91.6979 85.5591 91.5651 85.8127 91.6255C86.0542 91.6858 86.2474 91.879 86.4286 92.0602C86.1629 91.6738 85.8972 91.2994 85.6316 90.913C85.5229 90.756 85.4022 90.5991 85.2331 90.5387C85.1124 90.4904 84.9675 90.5025 84.8346 90.5387C83.5909 90.7319 82.2989 91.2391 81.0672 91.5409C79.4733 91.9153 77.8794 92.3137 76.2613 92.5673C73.9066 92.9296 69.3543 93.2314 69.3543 93.2314C69.3543 93.2314 68.7626 95.3687 69.8011 97.1317C70.3565 98.0977 71.0086 99.0034 71.6727 99.909C72.2282 100.658 72.3127 100.972 73.2063 101.056C74.5828 101.177 75.9473 101.237 77.3239 101.117C77.6982 101.08 78.0605 101.02 78.4227 100.96L78.3986 100.911Z" fill="#E8CAD6"/>
<g style="mix-blend-mode:multiply" opacity="0.23">
<path d="M65.4903 99.7521C65.599 99.9574 65.7077 100.175 65.7922 100.271C66.0337 100.525 66.2873 100.73 66.5891 100.911C67.4223 101.443 68.4004 101.757 69.3543 101.95C72.518 102.614 79.9442 103.049 90.667 100.622C101.39 98.1944 110.217 90.9131 110.217 90.9131L112.861 86.1313C112.861 86.1313 108.743 89.5848 103.455 92.3742C100.194 94.1009 96.8011 95.5862 93.408 97.0352C90.4134 98.3152 87.4429 99.5589 84.2188 100.054C83.1804 100.211 82.1419 100.368 81.1035 100.513C78.4228 100.887 75.73 101.225 73.0252 101.153C70.3204 101.08 67.5914 100.561 65.2005 99.3053C65.273 99.3415 65.3696 99.5348 65.4782 99.7521H65.4903Z" fill="#4D251B"/>
</g>
<g style="mix-blend-mode:color-dodge">
<path d="M97.5497 110.197C97.5497 110.197 125.926 86.2158 133.111 76.6282C140.308 67.0405 143.097 59.8437 143.701 54.4461C144.305 49.0485 143.701 45.8486 143.701 45.8486C143.701 45.8486 136.106 51.0409 130.913 57.4408C125.721 63.8285 116.93 79.6228 116.93 79.6228L104.143 100.803L97.5497 110.197H97.5497Z" fill="url(#paint6_radial_71_197)"/>
</g>
<g style="mix-blend-mode:color-burn">
<path d="M119.949 46.7301C119.949 46.7301 120.806 52.2605 122.195 55.5691C123.584 58.8777 126.47 62.621 126.47 62.621L124.332 66.642L115.155 57.0664L111.847 50.2319C111.847 50.2319 118.259 46.549 119.961 46.7301H119.949Z" fill="url(#paint7_linear_71_197)"/>
</g>
<path d="M56.4339 65.1328C57.9313 60.9668 60.3221 57.1873 63.4617 54.0599C66.8306 50.703 70.8396 48.4932 75.247 46.7786C78.0605 45.6797 80.8982 44.6413 83.7238 43.5545C83.9532 43.4579 83.8687 43.0836 83.6272 43.1681C80.9827 44.1583 78.3382 45.1846 75.6938 46.199C73.3391 47.1046 70.9966 48.0706 68.8351 49.3868C65.128 51.6448 61.9402 54.7361 59.5614 58.3707C58.1969 60.4597 57.086 62.7298 56.3011 65.0965C56.2649 65.1931 56.4219 65.2294 56.446 65.1448L56.4339 65.1328Z" fill="#A76149"/>
<path d="M116.17 58.8295C115.349 56.185 114.431 53.5889 113.187 51.1014C111.931 48.5656 110.506 46.1264 108.937 43.7718C107.488 41.6103 105.954 39.2557 103.901 37.6135C102.585 36.5629 100.931 35.9229 99.2282 36.0075C97.755 36.0799 96.2215 36.5629 94.7966 36.9372C93.2993 37.3236 91.8141 37.7704 90.353 38.3017C88.2278 39.0745 86.0905 40.0285 84.4965 41.6828C82.8302 43.4095 81.5985 45.6072 80.2702 47.5996C78.9299 49.6041 77.6741 51.6689 76.1647 53.5526C74.5466 55.5692 72.6146 57.465 70.2479 58.588C70.103 58.6604 70.1996 58.914 70.3565 58.8536C74.4379 57.1993 76.9375 53.6372 79.4733 50.2199C80.9827 48.1913 82.3713 46.0902 83.9049 44.0857C85.4625 42.0209 87.4912 40.7288 89.8941 39.8232C92.4903 38.8451 95.2072 38.0482 97.9362 37.5652C98.9867 37.372 100.412 37.5169 101.402 37.9153C102.452 38.338 103.334 39.0866 104.107 39.8957C105.785 41.6707 107.246 43.6993 108.623 45.7159C111.436 49.8456 113.875 54.3496 115.832 58.9502C115.904 59.1313 116.194 58.9985 116.145 58.8174L116.17 58.8295Z" fill="#BC9B8E"/>
<path d="M115.554 57.7669C116.918 59.3246 118.524 60.665 119.973 62.1502C121.422 63.6475 122.799 65.2052 124.248 66.7146C124.405 66.8716 124.622 66.6422 124.477 66.4731C123.113 64.8309 121.591 63.3094 120.094 61.8121C118.669 60.3993 117.256 58.8416 115.65 57.6583C115.578 57.61 115.518 57.7066 115.566 57.779L115.554 57.7669Z" fill="#BC9B8E"/>
<path d="M56.132 72.6676C49.9617 74.817 44.4916 79.0071 41.2193 84.7065C38.4903 89.4521 37.5122 94.9825 38.2246 100.392C39.6374 111.091 47.5225 121.306 57.8588 124.76C69.3181 128.588 82.1298 122.961 91.162 115.993C102.102 107.541 109.021 95.1757 115.421 83.1971C121.893 71.0858 128.39 58.419 138.883 49.2418C140.199 48.0826 141.588 46.9959 143.013 45.9816C143.315 45.7642 143.025 45.2571 142.723 45.4744C131.771 53.1542 124.634 64.9154 118.355 76.4592C111.992 88.16 106.111 100.465 96.7649 110.149C92.442 114.641 87.3825 118.396 81.7917 121.161C76.4183 123.818 70.4049 125.617 64.3552 125.351C53.0408 124.856 43.3928 115.848 39.9514 105.391C38.2488 100.259 38.0314 94.6444 39.7099 89.4762C41.6902 83.3541 46.2063 78.2946 51.7608 75.1309C53.1857 74.3219 54.683 73.6336 56.2286 73.0661C56.4581 72.9816 56.3736 72.6072 56.132 72.6918V72.6676Z" fill="#865C50"/>
<path d="M78.0967 122.755C80.4634 122.031 82.7698 120.932 84.9916 119.845C87.3463 118.698 89.6285 117.418 91.8624 116.054C96.2456 113.373 100.424 110.342 104.433 107.13C108.502 103.87 112.414 100.428 116.266 96.9266C120.094 93.4489 123.934 89.9713 127.629 86.3367C129.67 84.3322 131.65 82.2794 133.497 80.1059C135.321 77.9686 137.12 75.7226 138.484 73.2593C138.641 72.9816 138.243 72.7642 138.074 73.0178C136.565 75.131 135.079 77.2441 133.401 79.2365C131.795 81.1444 130.104 82.9677 128.353 84.7428C124.791 88.3412 121.024 91.7584 117.293 95.1878C109.709 102.167 101.957 109.05 93.2872 114.665C90.8963 116.211 88.4451 117.648 85.9214 118.976C83.3494 120.328 80.6808 121.403 78.0363 122.61C77.9639 122.647 78.0122 122.779 78.0967 122.755V122.755Z" fill="#5C362C"/>
<path d="M143.037 45.8729C146.176 45.0155 145.331 51.4999 145.174 53.2146C144.945 55.7866 144.474 58.3223 143.749 60.7977C143.037 63.2731 142.095 65.6761 140.912 67.9704C140.356 69.0571 139.752 70.1197 139.1 71.1582C138.448 72.1846 137.639 73.1989 137.168 74.3219C137.084 74.5272 137.362 74.6238 137.494 74.5151C138.34 73.863 138.98 72.8729 139.559 72.0035C140.187 71.0495 140.767 70.0594 141.298 69.0571C142.324 67.113 143.194 65.0844 143.894 63.0075C145.331 58.7329 146.031 54.1926 145.935 49.6886C145.911 48.5294 145.959 47.1045 145.186 46.1385C144.631 45.4502 143.701 45.088 142.88 45.4985C142.675 45.6072 142.819 45.9212 143.025 45.8608L143.037 45.8729Z" fill="#5C362C"/>
<path d="M112.318 50.0266C114.829 48.8191 117.293 47.5995 119.949 46.7301C122.521 45.8849 125.166 45.269 127.846 44.9068C133.389 44.146 138.907 44.5445 144.341 45.8245C144.679 45.8969 144.824 45.4019 144.486 45.3053C136.142 43.0593 126.929 43.7113 118.85 46.6697C116.568 47.5029 114.238 48.5052 112.209 49.8576C112.1 49.93 112.197 50.087 112.306 50.0387L112.318 50.0266Z" fill="#BC9B8E"/>
<path d="M60.5274 57.0302C58.861 59.3607 57.6656 61.9569 56.8566 64.71C56.8445 64.7704 56.8566 64.8549 56.929 64.8791C58.5109 65.664 60.5757 64.8187 62.0609 64.1666C64.0896 63.2731 66.1061 62.0414 67.7846 60.5803C67.8691 60.5079 67.7604 60.363 67.6638 60.4233C66.2027 61.2324 64.8744 62.2708 63.4134 63.0799C61.9523 63.8889 60.2255 64.7342 58.535 64.867C58.221 64.8911 57.738 64.9394 57.4724 64.7825C57.0739 64.553 57.3999 63.9976 57.5207 63.6474C57.7863 62.8625 58.0761 62.0897 58.4143 61.329C59.0542 59.88 59.8391 58.4551 60.6965 57.1148C60.7568 57.0182 60.6119 56.9457 60.5515 57.0302H60.5274Z" fill="#BC9B8E"/>
<path d="M66.3718 93.2799C66.1665 95.0549 66.7099 96.8541 67.5914 98.3756C68.2193 99.4744 69.2698 101.008 70.6947 101.02C70.9362 101.02 70.9724 100.694 70.755 100.622C67.9053 99.6918 66.5891 96.0572 66.734 93.2799C66.7461 93.0384 66.3959 93.0505 66.3718 93.2799V93.2799Z" fill="#755461"/>
<path d="M86.2836 90.4181C89.2421 92.1449 90.0269 95.6829 88.4572 98.6292C88.3002 98.919 88.7228 99.1605 88.8919 98.8828C90.7877 95.8278 89.5198 91.8188 86.4648 90.1162C86.2716 90.0076 86.0904 90.3095 86.2836 90.4181V90.4181Z" fill="#755461"/>
<path d="M68.014 93.4609C67.7604 94.9944 68.2917 96.7333 69.0041 98.0736C69.6683 99.3173 70.912 101.008 72.3369 101.43C72.4697 101.467 72.5663 101.298 72.4697 101.201C71.9625 100.706 71.3105 100.356 70.7912 99.8487C70.2358 99.2932 69.7528 98.6774 69.3664 97.9891C68.5332 96.5401 68.3521 95.1031 68.2192 93.473C68.2192 93.3764 68.0502 93.3281 68.026 93.4488L68.014 93.4609Z" fill="#533943"/>
<path d="M84.9675 90.5388C86.1629 91.6859 86.984 93.0504 87.2859 94.7047C87.5878 96.4194 87.1531 97.8322 86.501 99.3899C86.4044 99.6314 86.7667 99.7521 86.8995 99.5589C87.8535 98.2065 87.9501 96.1779 87.6482 94.6202C87.3342 92.9659 86.489 91.3599 85.1365 90.3335C85.0158 90.2369 84.8588 90.4422 84.9675 90.5509V90.5388Z" fill="#4F3640"/>
<path d="M56.0596 65.193C55.5645 67.4873 55.6611 69.9748 55.7577 72.3173C55.8664 74.7082 56.1199 77.1112 56.5667 79.4658C57.4482 84.2113 59.0059 88.824 61.1432 93.1469C61.747 94.3665 62.4111 95.574 63.1115 96.7453C63.7877 97.8804 64.4639 99.1604 65.4057 100.09C65.6955 100.38 66.1061 100.018 65.9491 99.6796C65.454 98.617 64.6933 97.663 64.0775 96.6608C63.4858 95.6948 62.9303 94.6926 62.399 93.6903C61.276 91.541 60.2979 89.3191 59.4889 87.0369C57.9071 82.6053 56.8807 77.9685 56.458 73.2833C56.2165 70.5906 56.3977 67.9099 56.2528 65.2172C56.2528 65.1206 56.0958 65.0843 56.0716 65.193H56.0596Z" fill="#A76149"/>
<path d="M113.344 84.8392C108.719 89.7538 102.561 92.676 96.4388 95.3446C89.9424 98.1822 83.0234 100.464 75.899 100.827C73.9549 100.923 71.9867 100.887 70.0547 100.658C69.137 100.549 68.2313 100.392 67.3378 100.138C66.4201 99.8728 65.5989 99.4018 64.6933 99.1724C64.4277 99.1 64.2465 99.426 64.4277 99.6192C65.4782 100.742 67.4223 101.092 68.8955 101.334C70.5498 101.6 72.2403 101.696 73.9187 101.696C77.5654 101.696 81.2121 101.153 84.7501 100.259C91.7899 98.472 98.6365 95.4291 104.976 91.9273C108.2 90.1523 111.424 88.0391 113.561 84.9962C113.658 84.8634 113.453 84.7064 113.344 84.8271V84.8392Z" fill="#844938"/>
<path d="M55.9751 72.4382C49.9375 74.7446 44.564 78.9105 41.4487 84.6462C38.9008 89.3314 38.0797 94.741 38.9491 99.9937C40.6759 110.487 49.1405 120.171 59.5493 122.792C65.285 124.241 71.3829 123.444 76.9254 121.596C82.5766 119.712 87.8776 116.766 92.5869 113.131C103.273 104.884 110.229 93.0264 116.737 81.4463C123.234 69.9025 129.839 57.936 140.139 49.3023C141.395 48.2517 142.699 47.2616 144.027 46.3197C144.836 45.7522 144.099 44.4119 143.254 44.9673C132.471 52.1399 125.202 63.4302 118.862 74.4427C112.426 85.6364 106.51 97.4096 97.3807 106.732C93.1423 111.067 88.2398 114.689 82.8302 117.43C77.6741 120.026 71.9625 121.886 66.1544 121.958C60.5515 122.031 55.3109 120.123 50.8673 116.742C46.7738 113.614 43.4894 109.279 41.6902 104.437C39.903 99.6556 39.5408 94.3788 41.014 89.4642C42.7769 83.6319 46.9912 78.7777 52.111 75.6019C53.4755 74.7567 54.9004 74.008 56.3735 73.3801C56.9048 73.1507 56.5305 72.233 55.9871 72.4382H55.9751Z" fill="#BC8571"/>
<path d="M60.3221 91.3719C61.747 93.0383 63.9447 93.4851 66.0337 93.6421C68.3763 93.8111 70.7792 93.63 73.1097 93.4006C77.8552 92.9417 82.5404 91.9515 87.0686 90.4422C96.0404 87.4596 104.396 82.5088 111.158 75.8675C113.042 74.02 114.793 72.0276 116.411 69.9386C118.09 67.753 119.985 65.2896 120.613 62.5486C120.746 61.9811 119.877 61.5343 119.623 62.126C118.621 64.384 117.486 66.4489 116.037 68.4533C114.684 70.3129 113.211 72.0879 111.629 73.7543C108.466 77.0991 104.891 80.0575 101.027 82.5571C93.3476 87.532 84.5932 90.7682 75.5368 92.0844C72.9769 92.4587 70.3807 92.6761 67.7846 92.7123C65.2488 92.7485 62.7251 92.4829 60.5757 91.0338C60.3704 90.8889 60.1652 91.1908 60.3221 91.3719Z" fill="#C08A77"/>
<defs>
<linearGradient id="paint0_linear_71_197" x1="91.7953" y1="73.4305" x2="108.658" y2="26.9392" gradientUnits="userSpaceOnUse">
<stop/>
<stop offset="1" stop-color="white"/>
</linearGradient>
<radialGradient id="paint1_radial_71_197" cx="0" cy="0" r="1" gradientUnits="userSpaceOnUse" gradientTransform="translate(95.8592 46.8631) scale(33.6776 20.3659)">
<stop stop-color="white"/>
<stop offset="1"/>
</radialGradient>
<linearGradient id="paint2_linear_71_197" x1="113.373" y1="38.1694" x2="107.499" y2="62.3394" gradientUnits="userSpaceOnUse">
<stop/>
<stop offset="1" stop-color="white"/>
</linearGradient>
<radialGradient id="paint3_radial_71_197" cx="0" cy="0" r="1" gradientUnits="userSpaceOnUse" gradientTransform="translate(55.9509 162.229) scale(64.9522 37.0498)">
<stop stop-color="white"/>
<stop offset="1"/>
</radialGradient>
<linearGradient id="paint4_linear_71_197" x1="73.0252" y1="77.0109" x2="127.061" y2="77.0109" gradientUnits="userSpaceOnUse">
<stop/>
<stop offset="1" stop-color="white"/>
</linearGradient>
<linearGradient id="paint5_linear_71_197" x1="127.711" y1="59.7484" x2="82.177" y2="75.1135" gradientUnits="userSpaceOnUse">
<stop/>
<stop offset="0.12" stop-color="#383838"/>
<stop offset="0.24" stop-color="#6C6C6C"/>
<stop offset="0.37" stop-color="#999999"/>
<stop offset="0.5" stop-color="#BEBEBE"/>
<stop offset="0.62" stop-color="#DADADA"/>
<stop offset="0.75" stop-color="#EEEEEE"/>
<stop offset="0.88" stop-color="#FAFAFA"/>
<stop offset="1" stop-color="white"/>
</linearGradient>
<radialGradient id="paint6_radial_71_197" cx="0" cy="0" r="1" gradientUnits="userSpaceOnUse" gradientTransform="translate(157.732 88.824) scale(46.9361 65.0645)">
<stop stop-color="white"/>
<stop offset="1"/>
</radialGradient>
<linearGradient id="paint7_linear_71_197" x1="103.086" y1="90.4587" x2="134.876" y2="80.856" gradientUnits="userSpaceOnUse">
<stop/>
<stop offset="0.12" stop-color="#383838"/>
<stop offset="0.24" stop-color="#6C6C6C"/>
<stop offset="0.37" stop-color="#999999"/>
<stop offset="0.5" stop-color="#BEBEBE"/>
<stop offset="0.62" stop-color="#DADADA"/>
<stop offset="0.75" stop-color="#EEEEEE"/>
<stop offset="0.88" stop-color="#FAFAFA"/>
<stop offset="1" stop-color="white"/>
</linearGradient>
</defs>
</svg>
