<svg width="200" height="200" viewBox="0 0 200 200" fill="none" xmlns="http://www.w3.org/2000/svg">
<g clip-path="url(#clip0_71_193)">
<path fill-rule="evenodd" clip-rule="evenodd" d="M180.393 144.729C167.146 162.664 139.715 155.106 118.451 161.677C95.5522 168.753 75.3534 192.629 53.011 184.094C29.8129 175.232 17.5934 147.441 16.1187 122.584C14.8277 100.824 33.3536 84.9138 46.0747 67.1804C56.8251 52.1947 66.0488 35.7541 83.2051 29.0649C102.26 21.6354 123.949 20.479 142.134 29.7272C161.155 39.4002 173.286 58.0234 180.034 78.3072C187.291 100.12 194.083 126.197 180.393 144.729Z" fill="white"/>
<path d="M130.262 137.722C129.738 137.54 129.202 137.479 128.677 137.495L128.739 137.262L123.629 118.889C123.629 118.889 122.857 115.858 124.28 114.125C125.703 112.391 129.957 108.842 129.957 108.842L139.203 101.088C139.657 101.533 140.205 101.898 140.856 102.114C143.108 102.884 145.557 101.676 146.318 99.4207C147.079 97.1656 145.88 94.7188 143.624 93.9583C141.496 93.2316 139.183 94.2791 138.295 96.3123L138.254 96.2701L118.574 90.5488L116.897 86.932L112.937 68.2316C113.95 67.753 114.79 66.8737 115.181 65.728C115.951 63.4755 114.742 61.0262 112.487 60.2656C110.232 59.5051 107.795 60.7067 107.025 62.9592C106.504 64.4762 106.894 66.0915 107.886 67.2116L101.523 74.2378L95.5985 79.4332L92.4698 81.6997L90.1836 81.483L71.4232 75.3622C72.0534 73.1659 70.862 70.8463 68.675 70.104C66.4225 69.3337 63.9731 70.5424 63.2126 72.7975C62.4424 75.05 63.6511 77.4994 65.9062 78.2599C66.5736 78.4908 67.2491 78.5364 67.9 78.4399L68.5711 81.0682L72.1291 97.1083C72.1291 97.1083 72.4946 98.8941 71.4497 100.344C70.4049 101.793 69.5709 102.612 69.5709 102.612L58.6826 112.218L56.6507 114.007C56.2226 113.622 55.7128 113.308 55.14 113.113C52.8875 112.342 50.4381 113.551 49.6776 115.806C48.9073 118.059 50.116 120.508 52.3711 121.269C54.4052 121.96 56.6008 121.037 57.5644 119.191L63.4069 121.183L76.7931 125.041C76.7931 125.041 78.8152 126.01 79.0962 128.461C79.3368 130.557 81.66 143.818 82.3238 147.601C81.3489 148.09 80.5459 148.948 80.1731 150.067C79.4028 152.319 80.6142 154.759 82.8666 155.529C85.1217 156.29 87.5685 155.091 88.329 152.836C88.6862 151.775 88.6071 150.67 88.1863 149.713L88.2251 149.724L94.2043 143.157L105.18 133.304L124.946 140.142C124.898 140.244 124.862 140.338 124.824 140.443C124.063 142.698 125.262 145.145 127.517 145.905C129.772 146.666 132.219 145.467 132.98 143.212C133.75 140.959 132.541 138.51 130.286 137.749L130.262 137.722Z" fill="#EC804D"/>
<g style="mix-blend-mode:color-dodge">
<path d="M78.6932 79.5711C78.6349 79.5555 78.5765 79.5399 78.5182 79.5243C77.0349 79.033 73.9976 77.4586 72.4616 78.214C69.4265 79.7033 69.9109 82.8338 70.7952 85.5609C72.0159 89.3262 74.0479 94.4967 73.8097 98.4963C73.5973 102.128 69.5724 105.134 67.061 107.274C64.8618 109.143 62.6767 111.038 60.5014 112.934C60.5014 112.934 57.6584 115.924 61.3862 117.954C64.1681 119.47 67.463 120.239 70.4875 121.122C72.2463 121.635 74.0129 122.119 75.7821 122.593C77.1236 122.952 79.807 123.359 80.5602 124.592C80.7575 124.905 80.8342 125.28 80.9135 125.645C81.7908 129.798 81.9906 134.029 82.8265 138.181C83.1848 139.955 83.4234 141.592 84.2674 143.225C84.8586 144.362 85.7596 145.51 87.0287 145.673C89.2261 145.949 91.0157 143.47 92.3884 142.119C93.8578 140.679 94.8997 138.968 96.5459 137.763C98.5255 136.324 100.474 134.846 102.408 133.343C103.042 132.845 103.672 132.358 104.303 131.871C101.646 133.117 99.1155 134.627 96.7524 136.37C94.6339 137.938 92.8512 140.003 90.657 141.425C87.4929 143.474 85.0373 142.879 84.7335 138.88C84.5024 135.932 84.4184 132.94 85.0067 130.045C86.0553 124.887 89.6385 122.013 93.2412 118.561C96.9679 114.996 101.121 111.743 105.781 109.48C110.378 107.253 115.308 105.73 120.326 104.813C122.001 104.512 128.523 102.644 129.579 103.917C129.918 104.32 129.95 104.902 129.832 105.422C129.587 106.451 128.807 107.263 128.052 108.019C127.126 108.948 126.2 109.877 125.274 110.807C128.202 108.236 131.023 105.564 134.093 103.167C135.29 102.238 137.64 99.846 136.824 98.1478C136.017 96.4522 132.499 96.2075 130.96 95.6494C128.995 94.9353 127.011 94.2892 125.021 93.6307C122.916 92.9313 120.821 92.2345 118.716 91.5351C118.716 91.5351 116.539 90.7954 116.042 89.1099C115.558 87.4173 112.363 71.7349 112.363 71.7349C108.067 66.1454 101.864 75.8816 99.3894 78.584C97.4127 80.284 94.9906 83.6463 92.1655 83.5353C91.4239 83.5033 90.7001 83.2885 89.9788 83.064C86.2117 81.9191 82.407 80.8371 78.6536 79.6022L78.6932 79.5711Z" fill="url(#paint0_radial_71_193)"/>
</g>
<path d="M83.7162 81.0838L90.4471 83.377C90.4471 83.377 93.4501 83.7961 94.7617 82.5952C97.4544 80.1284 100.278 77.5614 102.806 75.0089C104.418 73.3882 106.166 69.8973 108.875 70.0918C112.535 70.3536 113.146 76.8209 113.848 79.4888C114.608 82.37 115.323 85.2602 116.004 88.1621C116.004 88.1621 111.458 73.243 110.427 72.7374C109.395 72.2318 107.106 71.9101 105.607 73.6548C103.926 75.6112 101.985 77.3728 100.115 79.143C98.2865 80.8724 95.7516 83.6835 93.0914 83.9293C91.9277 84.0342 90.311 83.3405 89.2009 83.0118C87.3378 82.4605 85.491 81.8094 83.6968 81.0786L83.7162 81.0838Z" fill="white"/>
<path d="M118.163 91.1474L135.543 97.0546C135.543 97.0546 138.486 98.166 137.316 99.8113C136.143 101.466 132.654 103.834 132.654 103.834C132.654 103.834 136.017 100.964 135.85 99.252C135.684 97.5403 118.176 91.1403 118.176 91.1403L118.163 91.1474Z" fill="white"/>
<path d="M93.0586 84.8686C93.7487 84.6263 94.4413 84.3743 95.1314 84.132C95.2468 84.09 95.3746 84.0409 95.501 84.0748C95.6688 84.1093 95.7931 84.2676 95.8512 84.4395C96.0373 84.9895 95.6437 85.6029 95.1196 85.848C94.5955 86.0931 93.9907 86.056 93.4132 85.995C92.999 85.9466 92.4702 85.7424 92.4966 85.3327C92.5224 84.9645 92.9815 84.8062 93.3478 84.8002C93.7141 84.7941 94.1406 84.8355 94.3963 84.581L93.0631 84.8906L93.0586 84.8686Z" fill="white"/>
<path d="M76.5319 123.877C76.5319 123.877 79.7243 124.212 80.1213 126.152C80.5086 128.089 82.9608 140.791 82.9608 140.791C82.9608 140.791 84.2837 145.302 86.7989 145.403C89.3238 145.507 94.3039 140.142 94.3039 140.142C94.3039 140.142 99.6382 135.049 100.86 134.105C102.079 133.171 105.288 130.801 108.659 131.944C112.031 133.087 123.745 137.976 124.872 137.309C125.999 136.642 126.145 135.785 125.925 133.767C125.707 131.74 122.326 119.165 122.326 119.165C122.326 119.165 120.769 115.33 123.849 112.467C126.92 109.601 132.531 104.603 132.531 104.603L129.396 108.952L124.96 113.609C124.96 113.609 122.886 114.855 123.402 118.182C123.917 121.508 128.744 137.284 128.744 137.284C128.744 137.284 126.663 137.779 126.07 138.63C125.477 139.482 124.92 140.125 124.92 140.125L104.91 133.69L92.2009 144.996L88.2083 149.709C88.2083 149.709 87.2344 147.666 85.5279 147.386C83.8213 147.106 82.3096 147.576 82.3096 147.576L80.1215 134.122L78.6915 125.967L76.7886 125.019L57.5599 119.169L57.999 117.88L76.5417 123.88L76.5319 123.877Z" fill="#AF5E3B"/>
<path opacity="0.64" d="M90.4654 83.3089C88.9994 82.9474 87.5461 82.2663 86.3997 81.9174C82.8562 80.8325 79.3127 79.7476 75.7693 78.6626C79.0159 80.2723 82.2651 81.8723 85.524 83.4748C82.5112 83.6365 78.5856 83.3557 75.8139 84.7176C74.7697 85.1151 71.7037 86.4086 71.3193 87.4934C71.1807 87.8938 71.2392 88.3367 71.3223 88.7653C72.1821 92.9445 75.4109 98.0814 71.9813 101.976C70.1669 104.043 68.1595 105.974 66.189 107.884L57.3694 115.252L56.6365 113.983C56.6365 113.983 65.155 107.388 68.7818 103.807C72.3964 100.233 72.1476 97.8947 72.1476 97.8947L67.9027 78.4302C67.9027 78.4302 69.2092 78.2593 70.0202 77.6431C70.8339 77.0172 71.433 75.3648 71.433 75.3648L90.1933 81.4857C90.1933 81.4857 91.807 82.5015 93.3055 81.6527C96.3642 79.9197 99.0129 76.2951 101.457 73.8242C103.029 72.2345 104.581 70.6397 106.134 69.0448C106.479 68.6893 107.063 67.7934 107.527 67.6157C108.577 67.1988 109.737 68.4683 111.076 68.5665C111.627 68.6099 112.226 68.5516 112.661 68.2099C112.98 71.296 113.735 74.3115 114.493 77.3171C114.648 77.9423 114.804 78.5674 114.959 79.1925C114.1 77.8891 113.701 76.3444 113.179 74.8709C112.657 73.3974 111.971 71.9114 110.74 70.9459C106.844 67.9118 102.78 74.9499 100.436 77.4786L94.776 82.6198C93.5636 83.7224 92.0065 83.701 90.4699 83.331L90.4654 83.3089Z" fill="#AF5E3B"/>
<path d="M86.2801 126.614C85.2621 128.936 84.7722 131.503 84.8126 134.035C84.8482 136.275 85.0882 140.434 87.335 141.692C88.7835 142.507 90.5718 141.705 92.023 140.916C91.0648 141.42 90.1798 142.079 89.17 142.465C88.1575 142.86 86.9549 142.955 86.0343 142.385C84.1888 141.224 84.2523 137.449 84.1898 135.504C84.0998 132.146 85.2101 128.547 86.7611 125.597C86.5869 125.936 86.4225 126.277 86.2678 126.621L86.2801 126.614Z" fill="white"/>
<g style="mix-blend-mode:color-dodge">
<path d="M120.728 116.184C120.76 115.171 121.096 114.188 122.04 113.076C123.567 111.266 125.236 109.588 127.043 108.051C123.632 110.283 120.43 112.822 117.464 115.611C115.943 117.048 114.49 118.545 113.094 120.098C111.93 121.411 110.935 123.103 109.451 124.05C105.14 126.802 101.177 130.085 98.367 134.427C100.871 133.326 103.211 130.348 106.203 130.65C106.732 130.698 107.237 130.875 107.739 131.062C112.947 132.895 118.052 134.648 123.294 136.313C123.795 136.468 124.378 136.625 124.829 136.339C125.434 135.949 125.381 135.06 125.239 134.344C124.252 129.475 122.175 124.896 121.293 120.024C121.025 118.535 120.679 117.338 120.718 116.181L120.728 116.184Z" fill="url(#paint1_radial_71_193)"/>
</g>
<g style="mix-blend-mode:color-dodge">
<path d="M73.9172 97.0456C74.1459 99.2636 73.8925 101.415 72.6133 103.156C70.3198 106.271 66.9547 108.37 64.0015 110.799C62.677 111.892 59.1807 113.664 58.9257 115.471C58.5321 118.262 64.3238 118.772 66.1288 119.152C68.9799 119.749 71.7377 120.811 74.5518 121.429C76.1935 121.796 78.8136 122.478 79.99 123.803C81.1903 125.157 81.8165 128.419 81.7431 130.17C81.8375 128.185 81.9274 126.177 81.5525 124.233C80.8303 120.434 78.4575 117.819 75.0217 116.137C73.3002 115.291 70.0515 113.805 71.5811 111.402C72.0351 110.68 72.9788 110.308 73.4679 109.532C74.1323 108.491 74.4801 107.115 74.7564 105.929C75.9229 100.875 74.7656 95.5121 73.183 90.7642C72.9343 90.0203 72.6792 89.2226 72.8338 88.4514C73.1723 86.7604 77.6028 86.0513 79.119 85.6032C81.0055 85.0564 84.4157 83.7613 86.3756 84.2239C81.1137 82.9807 75.3862 84.0195 71.1606 87.3466C71.3137 87.8252 71.4985 88.302 71.671 88.7858C72.4857 91.1504 73.6192 94.1526 73.9269 97.0482L73.9172 97.0456Z" fill="url(#paint2_radial_71_193)"/>
</g>
<path d="M71.0424 103.808C68.1739 107.436 64.4468 110.303 60.8014 113.098C62.8986 111.493 65.2934 110.332 67.5336 108.932C70.1857 107.277 73.5797 104.915 73.3557 101.396C72.6943 101.532 72.269 102.147 71.8742 102.687C71.604 103.073 71.3293 103.437 71.0326 103.806L71.0424 103.808Z" fill="white"/>
<path d="M126.568 138.639C125.631 139.179 125.38 140.352 125.866 141.337C126.342 142.319 127.462 143.077 128.656 143.366C129.536 143.581 130.501 143.558 131.174 143.144C131.747 142.798 132.069 142.217 132.269 141.625C132.451 141.101 132.561 140.536 132.409 139.975C132.031 138.665 130.236 137.819 128.693 137.822C127.265 137.825 125.848 138.487 125.57 139.642L126.58 138.632L126.568 138.639Z" fill="#F1A480"/>
<path d="M128.447 138.507C127.68 138.572 126.929 138.965 126.413 139.566C125.806 140.279 125.554 141.295 125.766 142.216C126.087 141.135 127.955 140.229 128.982 140.088C129.567 140.005 130.288 139.688 130.261 139.087C129.739 138.624 129.085 138.459 128.435 138.514L128.447 138.507Z" fill="#F7C19E"/>
<path opacity="0.49" d="M126.884 143.954C126.701 144.092 126.63 144.355 126.717 144.576C126.794 144.794 127.001 144.954 127.227 145.004C127.393 145.049 127.576 145.025 127.72 144.917C127.836 144.834 127.904 144.696 127.95 144.562C127.994 144.439 128.018 144.31 127.998 144.19C127.942 143.893 127.6 143.729 127.305 143.744C127.029 143.763 126.745 143.927 126.672 144.199L126.884 143.954V143.954Z" fill="white"/>
<path d="M139.948 94.6924C138.955 95.4056 138.61 96.845 139.033 97.9897C139.465 99.137 140.555 99.9707 141.744 100.237C142.629 100.433 143.615 100.332 144.342 99.7976C144.955 99.3368 145.314 98.6202 145.57 97.8971C145.793 97.2588 145.958 96.5634 145.823 95.902C145.52 94.3516 143.745 93.4697 142.164 93.5774C140.71 93.6774 139.21 94.5677 138.84 95.9895L139.945 94.7021L139.948 94.6924Z" fill="#F1A480"/>
<path d="M145.596 96.6329C145.514 96.1628 145.353 95.7134 145.061 95.3227C143.944 93.8148 140.371 93.1908 139.582 95.3966C139.657 95.3124 139.727 95.2061 139.804 95.1122C139.563 95.5061 139.505 96.0324 139.669 96.4722C139.891 97.0838 140.472 97.5207 141.099 97.668C141.884 97.8472 142.904 97.464 143.333 96.756C143.537 96.4249 143.597 96.0036 143.452 95.6521C143.4 95.534 143.322 95.3984 143.366 95.2747C143.564 94.6506 144.424 95.6416 144.562 95.8246C144.94 96.3216 145.124 96.9545 145.126 97.5698C145.115 98.546 144.679 99.4713 144.102 100.265C144.167 100.178 144.534 100.089 144.646 99.9834C144.832 99.8351 144.957 99.6395 145.082 99.4439C145.311 99.0571 145.571 98.5537 145.618 98.1078C145.675 97.6229 145.683 97.1251 145.596 96.6329Z" fill="#F7C19E"/>
<path opacity="0.49" d="M140.382 99.6432C140.199 99.7817 140.126 100.054 140.215 100.265C140.292 100.484 140.5 100.644 140.726 100.694C140.891 100.738 141.084 100.717 141.218 100.607C141.334 100.523 141.402 100.385 141.448 100.252C141.482 100.126 141.516 99.9991 141.499 99.8695C141.443 99.5731 141.101 99.4087 140.803 99.433C140.527 99.4528 140.241 99.6262 140.17 99.8886L140.382 99.6432V99.6432Z" fill="white"/>
<path opacity="0.55" d="M111.761 60.6441C111.512 60.7546 111.433 61.0877 111.51 61.3478C111.586 61.6078 111.765 61.833 111.903 62.0575C112.397 62.8567 112.46 63.9051 112.062 64.7675C111.667 65.6201 110.822 66.248 109.889 66.3836C109.684 66.4119 109.424 66.4466 109.341 66.6429C109.277 66.803 109.364 66.9827 109.472 67.1261C110.41 68.3673 112.42 68.4475 113.645 67.4941C114.869 66.5406 115.347 64.8349 115.102 63.3002C115.058 62.9967 114.976 62.6829 114.831 62.4046C114.479 61.7371 113.758 61.3563 113.08 61.008C112.62 60.7806 111.962 60.5937 111.681 61.0187L111.761 60.6441V60.6441Z" fill="#C56638"/>
<path d="M113.624 62.3208C113.566 62.0342 113.378 61.7234 113.006 61.3632C112.211 60.5979 111.045 60.6711 110.084 61.0284C106.306 62.4125 107.18 67.3561 111.016 67.8942C112.241 68.0661 113.538 67.4654 114.192 66.4218C113.491 67.057 112.533 67.4046 111.594 67.3717C107.546 67.2353 113.844 63.3278 113.634 62.3234L113.624 62.3208Z" fill="#F1A480"/>
<path d="M110.933 60.7766C110.555 60.7898 110.164 60.8101 109.8 60.9626C109.448 61.1081 109.135 61.4202 109.088 61.7929C109.037 62.1753 109.352 62.5932 109.734 62.5703C110.053 61.9995 110.87 61.9474 111.509 62.0875C111.855 62.1592 112.298 62.2155 112.464 61.9058C112.636 61.5767 112.283 61.2217 111.946 61.0793C111.478 60.881 110.962 60.8259 110.467 60.9226L110.921 60.7838L110.933 60.7766Z" fill="#F7C19E"/>
<path opacity="0.55" d="M65.0092 71.0701C64.1711 71.9812 64.0002 73.4358 64.5823 74.5295C65.1645 75.6232 66.4447 76.2892 67.6843 76.1733C68.9143 76.0549 70.0375 75.1681 70.4648 74.001C70.6645 73.4502 70.721 72.8507 70.5939 72.2748C71.2084 73.4814 71.2636 74.9861 70.6405 76.184C70.0173 77.3819 68.6997 78.2166 67.3481 78.167C66.7698 78.1475 66.2041 77.9647 65.6604 77.7773C65.1654 77.603 64.6781 77.3995 64.2636 77.0801C63.0589 76.1321 62.8523 74.3368 63.2774 72.867C63.5443 71.9487 64.2125 70.9713 65.1739 70.9997C65.04 71.2659 64.9425 71.5524 64.874 71.8466L65.0215 71.063L65.0092 71.0701Z" fill="#C56638"/>
<path d="M67.4654 70.6135C66.908 70.5162 66.3061 70.7405 65.9594 71.1789C65.8374 71.3233 65.7438 71.5171 65.7552 71.7077C65.7764 71.9009 65.9467 72.082 66.1275 72.0679C66.2449 72.0577 66.339 71.9787 66.4402 71.9121C66.9041 71.6196 67.5931 71.7313 67.9348 72.1667C68.052 72.3127 68.1322 72.48 68.2941 72.5755C68.6446 72.784 69.1222 72.4015 69.1266 71.9963C69.1212 71.5885 68.8098 71.2342 68.447 71.0328C67.8886 70.706 67.1944 70.6138 66.5641 70.7887L67.4628 70.6232L67.4654 70.6135Z" fill="#F7C19E"/>
<g style="mix-blend-mode:multiply" opacity="0.55">
<path d="M52.0381 114.657C51.6195 115.014 51.2223 115.408 51.1648 115.778C50.7983 118.118 53.2684 119.592 55.2579 118.583C56.4988 117.957 57.1963 116.404 56.8381 115.058C57.5942 115.969 57.5887 117.311 57.177 118.42C56.7862 119.451 56.0603 120.371 55.0944 120.904C54.1285 121.437 52.9135 121.539 51.9079 121.093C51.3383 120.846 50.8545 120.435 50.4324 119.989C49.8737 119.391 49.3974 118.68 49.2693 117.875C49.0448 116.418 50.2002 114.634 51.1765 113.634C51.4919 113.313 53.1555 112.664 53.1978 113.634C53.2047 113.803 52.6001 114.193 52.0478 114.66L52.0381 114.657Z" fill="#C26137"/>
</g>
<path d="M54.1948 114.152C53.9907 114.097 53.7392 114.102 53.5853 114.249C53.1933 114.623 53.8127 114.956 53.8505 115.32C53.8762 115.535 53.8772 115.765 53.8906 115.987C53.9032 116.251 53.8004 116.557 53.9233 116.798C54.0436 117.049 54.3838 117.14 54.642 117.032C55.0843 116.859 55.2425 116.308 55.2715 115.888C55.2939 115.571 55.3092 115.242 55.1896 114.949C55.0281 114.541 54.6349 114.259 54.2046 114.154L54.1948 114.152Z" fill="#F7C19E"/>
<g style="mix-blend-mode:multiply" opacity="0.55">
<path d="M81.5087 148.893C80.7755 149.957 80.891 151.509 81.7261 152.515C82.554 153.507 84.007 153.918 85.2579 153.565C86.5063 153.222 87.5247 152.182 87.919 150.944C88.027 150.619 88.0729 150.214 87.8132 149.978C88.6356 151.303 88.1051 153.088 87.1422 154.31C86.7332 154.825 86.2516 155.3 85.6393 155.564C84.6852 155.975 83.5652 155.8 82.6205 155.359C81.3344 154.754 80.2525 153.62 79.9242 152.24C79.5959 150.86 80.1307 149.253 81.3516 148.507C81.2162 149.013 81.0807 149.518 80.9453 150.024L81.5016 148.881L81.5087 148.893Z" fill="#C26137"/>
</g>
<path d="M84.7297 147.526C83.4539 147.466 82.2281 148.502 82.0652 149.771C82.3467 150.159 82.9322 150.035 83.4114 149.997C84.284 149.928 85.2363 151.08 86.0941 150.445C87.031 149.748 86.2458 148.245 85.3652 147.916C84.7003 147.675 83.9669 147.885 83.2846 148.098L84.7076 147.531L84.7297 147.526Z" fill="#F7C19E"/>
<path d="M107.85 66.7228C107.85 66.7228 107.806 66.7318 107.781 66.7461C107.018 67.1458 106.55 67.8434 105.999 68.4982C105.379 69.2177 104.747 69.9443 104.11 70.6488C102.792 72.1085 101.42 73.5331 100.008 74.9154C98.6525 76.2402 97.2442 77.5299 95.8074 78.7703C94.9651 79.5031 94.1627 80.4759 93.1106 80.9025C92.034 81.3433 90.9936 81.2208 89.9302 80.8734C88.835 80.5278 87.7119 80.2477 86.6219 79.8827C84.8982 79.3167 83.177 78.7409 81.4455 78.204C78.1087 77.164 74.7765 76.1461 71.4007 75.252C71.1868 75.1947 71.1087 75.4863 71.305 75.5702C74.5468 76.8868 77.8425 78.0408 81.1409 79.1851C82.7985 79.7647 84.4737 80.3178 86.1391 80.8682C87.5181 81.321 88.832 82.0169 90.278 82.2585C91.9722 82.5458 93.206 81.9074 94.5291 80.897C96.2946 79.5572 97.9606 78.0448 99.5824 76.5415C101.177 75.0621 102.724 73.5281 104.21 71.9468C105.001 71.0959 105.782 70.2424 106.536 69.3714C107.141 68.6687 107.868 67.9779 108.149 67.0842C108.034 66.97 107.941 66.8513 107.853 66.7131L107.85 66.7228Z" fill="#9E4418"/>
<path d="M138.302 96.5957C138.336 96.4693 138.367 96.3527 138.401 96.2263C137.008 95.4363 135.21 95.0692 133.701 94.5604C131.858 93.9313 130.016 93.3023 128.156 92.6997C126.058 92.0126 123.943 91.2373 121.799 90.6837C120.268 90.2942 118.598 89.8365 117.655 88.4169C117.067 87.5404 117.005 86.1381 116.744 85.1304C116.251 83.2375 115.812 81.3381 115.409 79.4174C114.996 77.4209 114.627 75.4153 114.302 73.4007C114.148 72.4216 114.003 71.4452 113.871 70.4616C113.759 69.6712 113.739 68.853 113.38 68.1317C113.174 68.2015 112.973 68.2518 112.752 68.2969C112.593 69.0876 112.784 69.8891 112.893 70.6892C113.045 71.7928 113.229 72.8944 113.413 73.9961C113.814 76.3122 114.278 78.6245 114.808 80.9233C115.283 82.999 115.812 85.0683 116.422 87.1072C116.778 88.307 117.055 89.5689 118.087 90.3039C119.486 91.304 121.262 91.7171 122.923 92.0478C124.712 92.4123 126.141 93.0662 127.852 93.6809C129.628 94.3235 131.412 94.9369 133.196 95.5504C134.781 96.0897 136.502 96.9365 138.154 97.1498C138.184 96.9599 138.233 96.7752 138.29 96.6028L138.302 96.5957Z" fill="#9E4418"/>
<path d="M67.7652 78.4767C68.3355 81.8699 69.3337 85.2214 70.0337 88.5971C70.3953 90.3194 70.7226 92.0533 71.0401 93.7846C71.3189 95.3492 71.4148 97.0524 71.892 98.5764C71.9663 98.8047 72.3229 98.796 72.3323 98.5276C72.3328 97.0483 71.8906 95.4711 71.6097 94.031C71.2637 92.2504 70.8982 90.4646 70.5107 88.6833C69.7771 85.2776 69.1486 81.7126 67.9539 78.4335C67.9119 78.3181 67.7452 78.3568 67.7652 78.4767V78.4767Z" fill="#9E4418"/>
<path d="M56.6141 114.3C58.1282 113.393 59.4388 111.962 60.7594 110.805C62.3131 109.44 63.8667 108.074 65.4229 106.699C66.8253 105.471 68.2516 104.269 69.623 103.001C70.9125 101.804 72.2148 100.288 72.2922 98.444C72.2995 98.3001 72.0707 98.2596 72.0343 98.3957C71.5641 100.656 70.0241 102.087 68.3614 103.548C67.0531 104.698 65.7474 105.838 64.4391 106.988C63.0218 108.234 61.6044 109.479 60.1774 110.722C58.9385 111.807 57.4858 112.835 56.4606 114.134C56.3957 114.22 56.5154 114.357 56.6141 114.3V114.3Z" fill="#9E4418"/>
<path d="M139.087 100.744C136.271 102.699 133.701 105.136 131.126 107.395C129.788 108.578 128.46 109.764 127.153 110.987C126.024 112.05 124.671 113.135 123.794 114.422C123.642 114.641 123.941 114.846 124.127 114.698C125.396 113.694 126.463 112.355 127.627 111.239C128.865 110.039 130.135 108.879 131.421 107.734C133.981 105.451 136.792 103.359 139.189 100.907C139.261 100.833 139.176 100.685 139.075 100.751L139.087 100.744Z" fill="#683018"/>
<path d="M128.749 137.535C128.605 135.819 127.907 134.069 127.454 132.416C126.901 130.435 126.336 128.46 125.794 126.481C125.322 124.781 124.85 123.081 124.4 121.377C123.792 119.057 123.161 116.784 124.123 114.478C124.182 114.338 123.966 114.249 123.89 114.374C122.762 116.176 123.228 118.479 123.711 120.411C124.159 122.198 124.661 123.979 125.151 125.767C125.713 127.793 126.284 129.821 126.846 131.847C127.366 133.716 127.704 135.838 128.546 137.595C128.593 137.691 128.769 137.655 128.766 137.55L128.749 137.535Z" fill="#683018"/>
<path d="M82.4853 147.582C82.2469 144.194 81.6306 140.778 81.0596 137.426C80.6662 135.123 80.2508 132.823 79.7816 130.531C79.6282 129.781 79.4872 129.024 79.324 128.272C79.2473 127.897 79.183 127.515 79.0719 127.152C78.9867 126.848 78.9553 126.537 78.8507 126.228C78.8158 126.125 78.7783 126.032 78.7187 125.943C78.6663 125.866 78.5893 125.804 78.5219 125.744C77.5887 124.911 76.3179 124.56 75.1449 124.193C74.7879 124.087 74.4431 123.974 74.086 123.868C71.7349 123.154 69.3805 122.492 67.0216 121.808C63.8098 120.885 60.6002 119.838 57.3311 119.128C57.2533 119.107 57.2247 119.214 57.2998 119.245C60.3861 120.52 63.6803 121.33 66.8895 122.262C69.2387 122.944 71.5755 123.633 73.9143 124.353C74.4438 124.516 74.9732 124.679 75.4903 124.848C76.2505 125.083 76.9587 125.356 77.5824 125.867C78.0254 126.236 78.4008 126.701 78.6089 127.247C78.8429 127.851 78.9367 128.512 79.0605 129.139C79.1725 129.732 79.2846 130.324 79.3967 130.917C79.7955 133.045 80.1624 135.175 80.495 137.317C81.0355 140.744 81.3704 144.199 81.9452 147.614C81.9915 147.908 82.4927 147.865 82.471 147.557L82.4853 147.582Z" fill="#683018"/>
<path d="M125.045 139.773C124.036 139.221 122.815 138.956 121.735 138.594C120.281 138.111 118.829 137.618 117.368 137.122C114.56 136.171 111.751 135.221 108.94 134.28C107.763 133.892 106.593 133.474 105.405 133.124C104.866 132.959 104.771 132.965 104.349 133.331C103.737 133.865 103.135 134.402 102.533 134.939C100.169 137.035 97.7682 139.111 95.4377 141.237C93.9924 142.548 92.5374 143.857 91.2074 145.282C90.0715 146.489 88.6241 147.924 88.0848 149.509C87.995 149.766 88.326 149.97 88.5194 149.792C89.2113 149.155 89.6965 148.316 90.2899 147.579C91.0054 146.697 91.774 145.851 92.5736 145.044C93.9224 143.665 95.3527 142.371 96.7999 141.092C99.5159 138.694 102.311 136.39 105.027 133.992C108.275 135.05 111.508 136.166 114.753 137.276C116.557 137.894 118.37 138.516 120.183 139.137C121.615 139.625 123.151 140.349 124.66 140.587C124.765 140.312 124.887 140.012 125.045 139.773V139.773Z" fill="#683018"/>
<path fill-rule="evenodd" clip-rule="evenodd" d="M79.9487 150.205C79.2256 152.553 80.5432 155.063 82.9014 155.789C85.2499 156.512 87.7622 155.184 88.4853 152.836C89.2083 150.487 87.8811 147.975 85.5326 147.252C83.1841 146.529 80.6743 147.846 79.9487 150.205ZM80.3738 150.329C81.0343 148.214 83.2905 147.026 85.4083 147.677L85.3959 147.684C87.5137 148.335 88.7013 150.591 88.0504 152.709C87.3996 154.827 85.1435 156.014 83.0257 155.364C80.9105 154.703 79.723 152.447 80.3738 150.329Z" fill="#683018"/>
<path fill-rule="evenodd" clip-rule="evenodd" d="M49.3073 115.905C48.5843 118.254 49.9018 120.763 52.26 121.489C54.6085 122.212 57.1209 120.885 57.8439 118.536C58.567 116.188 57.2494 113.678 54.8912 112.952C52.5427 112.229 50.033 113.547 49.3073 115.905ZM49.7421 116.032C50.393 113.914 52.6491 112.727 54.7669 113.378L54.7792 113.37C56.8944 114.031 58.082 116.287 57.4311 118.405C56.7706 120.52 54.5145 121.708 52.3967 121.057C50.2789 120.406 49.0913 118.15 49.7421 116.032Z" fill="#9E4418"/>
<path fill-rule="evenodd" clip-rule="evenodd" d="M71.2257 75.7886C71.2972 75.5993 71.3233 75.5021 71.3233 75.5021L71.4014 75.2105C71.4274 75.1133 71.449 74.994 71.4634 74.8624C71.4816 74.7944 71.4927 74.714 71.4915 74.6408C71.4919 74.6166 71.4924 74.5925 71.4928 74.5681C71.4974 74.5185 71.4994 74.4673 71.5015 74.4131C71.5022 74.3966 71.5028 74.3798 71.5035 74.3627C71.5169 74.0016 71.4902 73.5568 71.3521 73.0614C71.214 72.5659 70.9715 72.0321 70.5844 71.5325C70.1974 71.0328 69.6728 70.5797 68.997 70.2632C68.3478 69.9642 67.5474 69.8018 66.7454 69.8787C66.3421 69.9061 65.9374 70.0164 65.5444 70.1612C65.1488 70.3156 64.7887 70.5317 64.4474 70.7945C64.1132 71.0696 63.8172 71.3967 63.5672 71.7464C63.3243 72.1085 63.1267 72.5349 63.0031 72.9185C62.8833 73.3657 62.8154 73.7747 62.8103 74.2213C62.8175 74.6609 62.8786 75.094 63.0084 75.5038C63.1382 75.9137 63.3245 76.3074 63.5555 76.6507C63.7988 76.9868 64.0695 77.2989 64.3848 77.5605C64.7029 77.8125 65.0287 78.0352 65.3948 78.1854C65.515 78.2521 65.6335 78.2909 65.7491 78.3288C65.8081 78.3481 65.8662 78.3672 65.9235 78.3896C66.1179 78.4417 66.2955 78.4788 66.4731 78.516C67.2036 78.6284 67.9006 78.5547 68.5044 78.3622C69.1081 78.1697 69.6064 77.8656 69.9977 77.5329C70.3864 77.2099 70.661 76.8459 70.8565 76.544C70.8808 76.4974 70.9074 76.4548 70.9331 76.4134C70.9529 76.3817 70.9722 76.3507 70.9897 76.3192C71.03 76.2467 71.0579 76.1812 71.0859 76.1158L71.0859 76.1158C71.1024 76.0783 71.1196 76.0419 71.1362 76.0068C71.1733 75.9283 71.2077 75.8557 71.2257 75.7886ZM71.4928 74.5681C71.494 74.5087 71.4955 74.4478 71.4983 74.3821C71.502 74.0184 71.485 73.5763 71.3248 73.0853C71.1718 72.6067 70.9267 72.0826 70.5221 71.6096C70.1246 71.1488 69.5702 70.7293 68.9326 70.4647C68.2756 70.1949 67.5328 70.0896 66.7839 70.2016C66.4072 70.2465 66.0414 70.3673 65.6872 70.5224C65.3331 70.6776 65.0048 70.8918 64.7005 71.1332C64.4033 71.387 64.1468 71.683 63.9144 72.0062C63.6987 72.3443 63.5492 72.6689 63.4081 73.0791C63.3117 73.4388 63.2341 73.8452 63.2226 74.238C63.2305 74.6361 63.2728 75.0225 63.3787 75.4051C63.4872 75.778 63.6423 76.1321 63.8442 76.4675C64.0487 76.7932 64.2901 77.0976 64.5666 77.3488C64.8431 77.6 65.1495 77.8175 65.4715 77.9767C65.5922 78.0504 65.7316 78.1028 65.8687 78.1544C65.9047 78.168 65.9404 78.1814 65.9756 78.1952C66.1383 78.2492 66.3132 78.2961 66.4811 78.3306C67.1623 78.4715 67.8489 78.4366 68.4448 78.2733C69.0408 78.11 69.5461 77.8182 69.942 77.5075C70.3475 77.1995 70.6222 76.8354 70.8177 76.5336C70.8703 76.4539 70.9105 76.3814 70.9508 76.3088L70.9508 76.3088C70.9686 76.2767 70.9841 76.246 70.999 76.2162C71.0178 76.1788 71.0357 76.143 71.0567 76.108C71.1224 75.9797 71.1731 75.8682 71.1965 75.7807C71.2654 75.6012 71.3038 75.4969 71.3038 75.4969L71.3233 75.5021L71.3161 75.4898L71.3943 75.1982C71.4203 75.101 71.4419 74.9817 71.4589 74.8404C71.4648 74.7795 71.4759 74.6991 71.487 74.6187C71.4893 74.602 71.4912 74.5851 71.4928 74.5681Z" fill="#9E4418"/>
<path fill-rule="evenodd" clip-rule="evenodd" d="M146.308 99.2232C146.311 99.2149 146.312 99.2107 146.312 99.2107L146.309 99.2204C146.309 99.2204 146.309 99.2214 146.308 99.2232ZM146.215 99.4713C146.269 99.3281 146.302 99.2396 146.308 99.2232C146.299 99.2532 146.272 99.337 146.215 99.4713ZM146.202 99.505C146.175 99.599 146.128 99.698 146.065 99.8217L146.065 99.8218C146.037 99.8872 146.009 99.9526 145.969 100.025C145.951 100.057 145.932 100.088 145.912 100.119C145.886 100.161 145.86 100.203 145.835 100.25C145.64 100.552 145.365 100.916 144.976 101.239C144.585 101.572 144.087 101.876 143.483 102.068C142.879 102.261 142.182 102.334 141.452 102.222C141.274 102.185 141.097 102.148 140.902 102.096C140.844 102.073 140.786 102.053 140.726 102.032C140.612 101.992 140.495 101.951 140.374 101.891C140.007 101.741 139.682 101.518 139.364 101.267C139.046 101.015 138.778 100.693 138.534 100.357C138.306 100.004 138.127 99.6223 137.987 99.2098C137.857 98.8 137.796 98.3668 137.799 97.9299C137.801 97.493 137.862 97.0716 137.992 96.6271C138.125 96.2461 138.313 95.8171 138.553 95.4647C138.806 95.1052 139.099 94.7879 139.433 94.5128C139.775 94.25 140.144 94.0365 140.533 93.8697C140.926 93.725 141.331 93.6146 141.734 93.5872C142.536 93.5104 143.336 93.6728 143.986 93.9718C144.652 94.2857 145.186 94.7414 145.583 95.2437C145.97 95.7433 146.212 96.2771 146.341 96.77C146.479 97.2654 146.505 97.7102 146.492 98.0712C146.491 98.0884 146.491 98.1052 146.49 98.1217C146.489 98.1611 146.487 98.1989 146.485 98.2356C146.486 98.1861 146.487 98.1352 146.489 98.081C146.493 97.7173 146.466 97.2725 146.316 96.7842C146.163 96.3056 145.918 95.7815 145.513 95.3084C145.109 94.8353 144.561 94.4282 143.924 94.1636C143.267 93.8938 142.524 93.7885 141.775 93.9004C141.398 93.9453 141.033 94.0661 140.678 94.2213C140.324 94.3765 139.996 94.5906 139.692 94.8321C139.394 95.0859 139.138 95.3818 138.905 95.705C138.69 96.0432 138.538 96.3775 138.397 96.7877C138.3 97.1474 138.223 97.5537 138.211 97.9466C138.209 98.342 138.261 98.7311 138.367 99.1137C138.476 99.4866 138.631 99.8407 138.833 100.176C139.037 100.502 139.279 100.806 139.555 101.057C139.832 101.309 140.138 101.526 140.47 101.688C140.59 101.762 140.73 101.814 140.867 101.866C140.903 101.879 140.939 101.893 140.974 101.906C141.137 101.96 141.311 102.007 141.479 102.042C142.17 102.185 142.847 102.148 143.44 101.994C144.036 101.831 144.542 101.539 144.938 101.228C145.343 100.92 145.615 100.566 145.813 100.254C145.866 100.175 145.906 100.102 145.946 100.03L145.946 100.03C145.964 99.9976 145.98 99.9669 145.995 99.9371C146.013 99.8997 146.031 99.8639 146.052 99.8289C146.118 99.7009 146.166 99.5994 146.202 99.505ZM146.202 99.505C146.203 99.5015 146.204 99.498 146.204 99.4945C146.208 99.4866 146.211 99.4789 146.215 99.4713C146.21 99.482 146.206 99.493 146.202 99.5042C146.202 99.5045 146.202 99.5047 146.202 99.505ZM146.485 98.2356C146.484 98.2708 146.483 98.3052 146.483 98.3396C146.483 98.3878 146.475 98.4379 146.466 98.4866C146.462 98.512 146.457 98.5371 146.455 98.5613C146.437 98.7026 146.416 98.8219 146.39 98.9191L146.312 99.2107L146.295 99.1958L146.373 98.9041C146.409 98.8095 146.43 98.6903 146.447 98.549C146.45 98.5247 146.454 98.5007 146.459 98.4763C146.466 98.4297 146.475 98.3817 146.476 98.3273C146.48 98.2972 146.483 98.2668 146.485 98.2356Z" fill="#9E4418"/>
<path fill-rule="evenodd" clip-rule="evenodd" d="M124.741 140.441C124.018 142.79 125.335 145.3 127.694 146.025L127.684 146.023C130.032 146.746 132.545 145.418 133.268 143.07C134.001 140.724 132.673 138.212 130.325 137.489C127.976 136.766 125.467 138.083 124.741 140.441ZM125.176 140.568C125.827 138.45 128.083 137.263 130.2 137.914C132.318 138.565 133.506 140.821 132.855 142.938C132.204 145.056 129.945 146.254 127.83 145.593C125.712 144.942 124.525 142.686 125.176 140.568Z" fill="#9E4418"/>
<path fill-rule="evenodd" clip-rule="evenodd" d="M115.09 65.8706C115.162 65.6814 115.188 65.5842 115.188 65.5842L115.178 65.5816C115.178 65.5816 115.14 65.6859 115.071 65.8654C115.038 65.9503 114.987 66.0617 114.921 66.19C114.9 66.2251 114.882 66.2609 114.864 66.2983C114.849 66.328 114.833 66.3588 114.816 66.3909C114.805 66.4081 114.795 66.4262 114.784 66.4449C114.755 66.4941 114.723 66.5482 114.685 66.6059C114.487 66.9175 114.205 67.2692 113.809 67.5799C113.413 67.8906 112.908 68.1824 112.312 68.3457C111.716 68.509 111.03 68.5438 110.348 68.403C110.181 68.3684 110.006 68.3215 109.843 68.2675C109.808 68.2538 109.772 68.2403 109.736 68.2268C109.599 68.1752 109.46 68.1227 109.339 68.0491C109.017 67.8899 108.71 67.6723 108.434 67.4211C108.157 67.1699 107.916 66.8656 107.712 66.5399C107.519 66.2071 107.355 65.8503 107.246 65.4775C107.14 65.0948 107.098 64.7084 107.09 64.3104C107.092 63.9149 107.176 63.5209 107.278 63.1417C107.298 63.0914 107.318 63.0358 107.339 62.9784C107.388 62.8419 107.441 62.6954 107.5 62.5864C107.546 62.4673 107.618 62.3498 107.691 62.231C107.721 62.1805 107.752 62.1297 107.782 62.0785C108.014 61.7553 108.271 61.4594 108.568 61.2056C108.872 60.9641 109.2 60.75 109.555 60.5948C109.909 60.4396 110.284 60.3214 110.651 60.2739C111.4 60.162 112.143 60.2673 112.8 60.5371C113.438 60.8017 113.995 61.2114 114.389 61.6819C114.794 62.155 115.039 62.6791 115.192 63.1577C115.343 63.646 115.369 64.0908 115.366 64.4545C115.362 64.5472 115.36 64.6301 115.359 64.7131C115.345 64.8032 115.337 64.8739 115.328 64.9445C115.311 65.0858 115.29 65.2051 115.266 65.2926L115.266 65.2926C115.292 65.1954 115.323 65.0787 115.328 64.9445C115.337 64.8739 115.348 64.7935 115.359 64.7131C115.368 64.6476 115.371 64.5804 115.373 64.5075C115.374 64.491 115.375 64.4742 115.375 64.4571C115.379 64.0934 115.362 63.6512 115.224 63.1558C115.096 62.6629 114.853 62.1291 114.466 61.6295C114.079 61.1298 113.545 60.6741 112.869 60.3576C112.22 60.0586 111.419 59.8962 110.617 59.9731C110.214 60.0005 109.809 60.1108 109.416 60.2556C109.03 60.4126 108.658 60.6359 108.317 60.8986C107.982 61.1738 107.689 61.4911 107.436 61.8506C107.316 62.0268 107.194 62.2127 107.107 62.4187C107.014 62.5998 106.959 62.7527 106.895 62.9308C106.884 62.9598 106.874 62.9895 106.863 63.02C106.748 63.4477 106.675 63.8762 106.672 64.3131C106.68 64.7527 106.741 65.1858 106.871 65.5956C107 66.0055 107.187 66.3992 107.418 66.7425C107.661 67.0786 107.932 67.3907 108.247 67.6523C108.565 67.9042 108.891 68.127 109.257 68.2772C109.403 68.3496 109.544 68.3941 109.683 68.4378C109.718 68.449 109.753 68.4601 109.788 68.4717C109.983 68.5238 110.16 68.5609 110.338 68.5981C111.068 68.7105 111.765 68.6367 112.369 68.4443C112.973 68.2518 113.471 67.9477 113.862 67.615C114.251 67.2919 114.526 66.9279 114.721 66.6261C114.746 66.5795 114.772 66.5369 114.798 66.4955C114.818 66.4638 114.837 66.4328 114.854 66.4013C114.895 66.3287 114.923 66.2633 114.951 66.1979L114.951 66.1978C115.016 66.0696 115.064 65.9678 115.09 65.8706Z" fill="#9E4418"/>
<g style="mix-blend-mode:multiply" opacity="0.6">
<path fill-rule="evenodd" clip-rule="evenodd" d="M120.829 105.188L120.83 105.188L120.832 105.178L120.829 105.188ZM120.829 105.188L115.298 103.476L109.447 101.669L105.984 100.595L105.599 101.836C105.186 100.735 104.373 99.9967 103.108 99.5848L103.04 99.5666C102.28 99.3316 101.498 99.2159 100.839 99.2268L100.894 99.0227L95.0528 97.218L91.5799 96.1416L89.6926 102.252L88.4711 101.873L90.361 95.7525L86.8979 94.6787L86.7586 95.1206C86.3981 94.6385 85.814 94.0965 84.8549 93.7874C83.7085 93.4386 82.4803 93.745 81.4718 94.6313C80.6392 95.3668 79.9461 96.5147 79.5355 97.8529C78.8228 100.163 79.1343 102.111 80.471 103.772C81.0393 104.528 81.1165 105.018 80.8197 105.97C80.67 106.45 80.4485 106.85 80.2304 107.041C80.124 107.127 80.1046 107.122 80.0657 107.112C79.8739 107.05 79.5902 106.786 79.4073 106.341L78.3012 103.742L76.0715 108.292L76.2725 108.825C76.6628 109.857 77.6555 110.779 78.7216 111.117L78.7604 111.127C79.8848 111.481 81.0234 111.275 81.9947 110.567L81.6179 111.778L85.081 112.852L87.1981 106.001L88.4196 106.381L86.3026 113.232L89.0153 114.073L94.5962 115.798L98.0593 116.872L99.4663 112.32C98.9828 114.941 98.884 115.738 98.8841 116.165L98.8778 117.122L100.707 117.685L104.17 118.759L106.882 119.6L108.925 112.99L110.994 113.628L108.952 120.238L112.415 121.312L114.459 114.692L117.354 115.592L118.604 111.551L115.709 110.65L116.44 108.273L119.578 109.239L120.829 105.188ZM83.0779 98.7083C82.8274 99.5268 82.8548 99.9301 83.535 100.852L83.5253 100.849C83.9479 101.411 84.2409 101.989 84.4457 102.586L85.1017 100.449L84.0294 98.3069C83.9564 98.1519 83.7972 97.8904 83.5762 97.8208C83.5146 97.8564 83.2354 98.1983 83.0779 98.7083ZM96.5036 102.108L98.6214 102.759L97.9628 104.906L95.8353 104.252L96.5036 102.108ZM94.5857 108.293L93.7234 111.084L93.7208 111.093L95.8386 111.744L96.7009 108.954L94.5857 108.293ZM101.287 106.421L102.112 103.767C102.238 104.155 102.065 104.838 101.964 105.175C101.755 105.838 101.502 106.239 101.296 106.424L101.287 106.421ZM110.895 106.568L110.164 108.946L112.234 109.584L112.964 107.206L110.895 106.568Z" fill="#864A30"/>
<path d="M78.9047 90.8555L79.919 87.5769L127.02 102.148L126.006 105.427L78.9047 90.8555Z" fill="#864A30"/>
<path d="M71.7531 113.919L72.7673 110.641L119.868 125.212L118.854 128.49L71.7531 113.919Z" fill="#864A30"/>
</g>
<path d="M118.601 111.561L118.371 111.489L117.227 115.173L114.371 114.283L112.35 120.815L109.088 119.806L108.952 120.238L112.415 121.312L114.457 114.701L117.354 115.592L118.601 111.561V111.561Z" fill="#F7C19E"/>
<path d="M98.0604 104.619L98.0993 104.63L98.7501 102.512L96.6517 101.866L96.5691 102.136L98.6286 102.771L98.0604 104.619V104.619Z" fill="#F7C19E"/>
<path d="M96.8653 108.612L94.767 107.967L94.6635 108.314L96.723 108.949L95.9746 111.354L96.0134 111.364L96.8653 108.612V108.612Z" fill="#F7C19E"/>
<path d="M102.185 103.495L101.377 106.123C101.377 106.123 101.392 106.106 101.404 106.099L102.122 103.77C102.211 104.023 102.16 104.405 102.094 104.731C102.19 104.371 102.307 103.819 102.195 103.498L102.185 103.495Z" fill="#F7C19E"/>
<path d="M112.911 106.9L110.874 106.26L110.151 108.609L110.274 108.652L110.915 106.574L112.828 107.17L112.911 106.9V106.9Z" fill="#F7C19E"/>
<path d="M119.427 108.907L116.328 107.951L115.605 110.3L115.807 110.364L116.447 108.285L119.585 109.251L120.83 105.188L120.597 105.125L119.427 108.907V108.907Z" fill="#F7C19E"/>
<path d="M89.9361 102.005L91.7329 96.1931L91.5897 96.1443L89.7902 101.966L89.9361 102.005V102.005Z" fill="#F7C19E"/>
<path d="M81.9561 111.411L82.3277 110.218C81.359 110.917 80.2424 111.118 79.1349 110.78L79.0961 110.769C78.0424 110.425 77.0665 109.517 76.6833 108.498L76.4797 107.974L78.4234 104.025L78.3084 103.755L76.0787 108.304L76.2796 108.837C76.67 109.869 77.6627 110.792 78.7287 111.129L78.7676 111.14C79.8919 111.493 81.0305 111.288 82.0019 110.579L81.6251 111.791L85.0882 112.865L85.2248 112.432L81.9633 111.423L81.9561 111.411Z" fill="#F7C19E"/>
<path d="M110.838 113.586L110.935 113.226L108.914 112.601L106.893 119.134L104.219 118.303L100.804 117.243L99.0047 116.687L99.0085 115.74C99.0057 115.323 99.1117 114.538 99.5874 111.947L98.1986 116.43L94.7815 115.379L89.2686 113.672L86.5948 112.841L88.6884 106.078L87.4766 105.701L87.3802 106.06L88.4391 106.386L86.322 113.237L89.0347 114.078L94.6156 115.803L98.0788 116.877L99.4858 112.326C99.0023 114.947 98.9034 115.743 98.9036 116.171L98.8972 117.127L100.726 117.69L104.189 118.764L106.902 119.606L108.944 112.995L110.858 113.591L110.838 113.586Z" fill="#F7C19E"/>
<path d="M87.0369 94.9764L87.0968 94.7528L86.9024 94.7007L86.8816 94.7785C86.9366 94.8453 86.9916 94.9122 87.0369 94.9764V94.9764Z" fill="#F7C19E"/>
<path d="M80.4781 103.784C81.0464 104.54 81.1236 105.03 80.8268 105.982C80.7285 106.31 80.5895 106.596 80.4395 106.805C80.4686 106.813 80.5004 106.811 80.5848 106.73C80.8002 106.548 81.0218 106.149 81.1688 105.678C81.4604 104.745 81.3832 104.256 80.822 103.511C79.5021 101.866 79.1926 99.9491 79.8974 97.6687C80.3029 96.3499 80.981 95.2188 81.8111 94.4931C82.0959 94.2464 82.3996 94.0465 82.7122 93.8906C82.2822 94.0567 81.8605 94.3084 81.479 94.6437C80.6463 95.3792 79.9532 96.5271 79.5426 97.8653C78.8299 100.175 79.1414 102.123 80.4781 103.784V103.784Z" fill="#F7C19E"/>
<path d="M85.4106 100.229L84.3525 98.1122C84.2768 97.9669 84.1177 97.7054 83.8967 97.6358C83.8623 97.6474 83.7851 97.7413 83.6948 97.8838C83.8639 97.9917 83.9874 98.1915 84.0489 98.3121L85.1212 100.454L84.6409 102.013C84.6855 102.119 84.7301 102.225 84.765 102.328L85.4132 100.22L85.4106 100.229Z" fill="#F7C19E"/>
<path d="M127.014 102.135L126.715 102.045L125.765 105.124L79.2646 90.7372L80.2245 87.6603L79.9161 87.5672L78.8917 90.8456L125.999 105.416L127.014 102.135V102.135Z" fill="#F7C19E"/>
<path d="M119.873 125.207L119.574 125.116L118.715 127.897L72.2242 113.513L73.084 110.732L72.7658 110.636L71.7635 113.91L118.858 128.488L119.873 125.207V125.207Z" fill="#F7C19E"/>
<path d="M79.9777 90.2815L80.4804 88.6567L125.928 102.716L125.425 104.341L79.9777 90.2815Z" fill="#7F462D"/>
<path d="M72.8358 113.348L73.3384 111.723L118.795 125.786L118.293 127.411L72.8358 113.348Z" fill="#7F462D"/>
<path d="M73.5831 112.407L118.208 126.209L73.5831 112.407L73.5831 112.407Z" fill="#EC804D"/>
<path d="M73.4551 112.813L73.7019 112.015L118.332 125.821L118.085 126.619L73.4551 112.813Z" fill="#EC804D"/>
<path d="M80.775 89.1831L125.4 102.985L80.775 89.1831L80.775 89.1831Z" fill="#EC804D"/>
<path d="M80.6435 89.5745L80.8904 88.7765L125.521 102.583L125.274 103.381L80.6435 89.5745Z" fill="#EC804D"/>
<g style="mix-blend-mode:color-dodge">
<path d="M79.8978 123.914C79.8978 123.914 87.931 110.615 102.783 103.52C117.635 96.4238 129.109 94.3928 129.109 94.3928C129.109 94.3928 119.203 92.7907 117.78 90.5965C116.347 88.3998 114.15 75.7978 114.15 75.7978C114.15 75.7978 112.447 69.9029 109.596 70.0454C106.742 70.1976 102.954 73.6419 102.954 73.6419C102.954 73.6419 94.5111 82.403 93.1086 82.6211C91.7061 82.8391 76.3778 77.7526 76.3778 77.7526C76.3778 77.7526 71.2826 78.6482 70.2069 79.902C69.1312 81.1558 69.4597 81.796 69.4597 81.796L73.5814 97.56C73.5814 97.56 75.023 100.968 72.1921 103.522C69.3587 106.087 62.1404 112.3 62.1404 112.3C62.1404 112.3 58.5509 115.548 63.2383 118.002C67.9283 120.447 79.8978 123.914 79.8978 123.914V123.914Z" fill="url(#paint3_radial_71_193)"/>
</g>
<g style="mix-blend-mode:multiply" opacity="0.31">
<path d="M84.1284 102.293C84.0052 101.78 83.7492 101.18 83.3526 100.522C82.9702 99.8882 82.8248 99.5366 82.7692 99.3551C82.6879 99.1145 82.6603 98.8674 82.6716 98.6308C82.6855 98.3845 82.7442 98.0876 82.8477 97.7403C83.0071 97.2621 83.1936 96.9161 83.4389 96.7005C83.605 96.5471 83.7522 96.5032 83.944 96.565C84.2985 96.6808 84.6825 97.0754 85.0551 97.7066L85.506 98.4734L87.0608 95.5872L86.9282 95.3433C86.4094 94.402 85.7411 93.7854 84.9447 93.5303C84.3401 93.337 83.4254 93.2899 82.4416 94.162C81.7401 94.7971 81.1645 95.7785 80.737 97.1018C80.3974 98.136 80.2445 99.0953 80.2889 99.9407C80.328 100.806 80.5967 101.669 81.1053 102.493C81.5187 103.167 81.754 103.688 81.8184 104.07C81.8757 104.44 81.8246 104.864 81.6775 105.335C81.5051 105.862 81.2888 106.241 81.0285 106.474C80.8351 106.651 80.627 106.689 80.3406 106.591C80.1099 106.519 79.8708 106.361 79.6332 106.121C79.369 105.862 79.1425 105.541 78.9511 105.167L78.3955 104.091L77.2236 107.725L77.3109 107.905C77.7099 108.71 78.3718 109.273 79.292 109.572C80.2413 109.878 81.1751 109.659 81.9999 108.953C82.7605 108.292 83.364 107.245 83.8221 105.847C84.0511 105.148 84.1815 104.505 84.2399 103.938C84.2912 103.357 84.2542 102.795 84.131 102.283L84.1284 102.293Z" fill="#231F20"/>
<path d="M90.2528 102.183L87.9899 101.452L89.9446 95.4014L87.854 94.7266L82.7579 110.48L84.8581 111.157L87.0087 104.492L89.2716 105.223L87.1113 111.886L89.2213 112.566L94.3078 96.8101L92.2075 96.1328L90.2528 102.183V102.183Z" fill="#231F20"/>
<path d="M90.0929 112.851L95.0024 114.438L95.9758 111.427L93.1666 110.518L94.3639 106.827L96.991 107.677L97.9566 104.696L95.3197 103.843L96.3185 100.777L99.1206 101.673L100.091 98.6724L95.1917 97.0887L90.0929 112.851V112.851Z" fill="#231F20"/>
<path fill-rule="evenodd" clip-rule="evenodd" d="M102.057 109.108L101.912 116.258L101.915 116.248L106.893 100.859L108.993 101.537L103.904 117.302L101.92 116.656L101.803 116.625L99.6086 115.912L99.8517 109.444L99.56 109.366L97.6515 115.283L95.5513 114.606L100.64 98.8403L103.095 99.6335C104.168 99.9836 104.835 100.683 105.079 101.718C105.302 102.673 105.164 103.887 104.665 105.441C104.073 107.262 103.2 108.497 102.057 109.108ZM100.836 106.509C101.19 106.625 101.462 106.583 101.698 106.365L101.71 106.358C102.015 106.075 102.287 105.564 102.527 104.826C102.823 103.916 102.794 103.439 102.723 103.201C102.664 103.029 102.527 102.763 102.061 102.597L101.78 102.521L100.52 106.404L100.836 106.509Z" fill="#231F20"/>
<path d="M104.773 117.597L106.863 118.272L108.826 112.192L111.453 113.042L112.426 110.031L109.799 109.182L110.991 105.511L113.791 106.417L114.762 103.416L109.872 101.835L104.773 117.597V117.597Z" fill="#231F20"/>
<path d="M118.987 108.101L119.957 105.1L115.067 103.519L109.981 119.274L112.071 119.949L114.031 113.879L116.658 114.729L117.634 111.708L115.005 110.868L116.187 107.194L118.987 108.101V108.101Z" fill="#231F20"/>
</g>
<path d="M83.3386 105.707C82.9137 107.02 82.3531 107.985 81.6594 108.591C80.9656 109.197 80.2303 109.375 79.4364 109.11C78.6497 108.858 78.0889 108.384 77.7513 107.7L78.4905 105.408C78.7007 105.829 78.9583 106.19 79.2633 106.49C79.5585 106.788 79.8701 106.986 80.176 107.089C80.6276 107.231 81.0219 107.16 81.3516 106.862C81.6812 106.565 81.9476 106.116 82.1434 105.501C82.3237 104.945 82.3735 104.448 82.3054 104.003C82.2372 103.557 81.9786 102.967 81.5269 102.242C81.0708 101.494 80.8202 100.719 80.7894 99.9393C80.7611 99.1504 80.8931 98.2688 81.2198 97.2832C81.6141 96.0448 82.137 95.143 82.7815 94.5655C83.4259 93.9881 84.0977 93.8138 84.7872 94.0402C85.4573 94.2615 86.0174 94.7762 86.4793 95.6189L85.4813 97.477C85.0375 96.7225 84.5765 96.2655 84.0859 96.1133C83.7217 95.9948 83.3787 96.0696 83.0834 96.3552C82.781 96.6284 82.5419 97.054 82.359 97.6197C82.2354 98.0034 82.1637 98.3488 82.1562 98.649C82.1487 98.9491 82.1853 99.2402 82.2802 99.547C82.3778 99.844 82.5879 100.265 82.9108 100.81C83.2763 101.429 83.5162 101.972 83.6304 102.441C83.7446 102.909 83.7777 103.407 83.7297 103.936C83.6818 104.465 83.552 105.066 83.3308 105.736L83.3386 105.707Z" fill="#FECB88"/>
<path d="M88.8901 111.935L87.749 111.567L89.9021 104.892L86.6898 103.854L84.5367 110.529L83.3955 110.161L88.1755 95.3545L89.3167 95.7228L87.362 101.773L90.5743 102.811L92.5289 96.7607L93.6701 97.129L88.8901 111.935Z" fill="#FECB88"/>
<path d="M94.6712 113.807L90.7208 112.53L95.5008 97.7237L99.4512 99.001L98.7894 101.043L95.9802 100.134L94.6821 104.162L97.3092 105.012L96.6527 107.034L94.0256 106.185L92.5192 110.834L95.3284 111.743L94.6641 113.795L94.6712 113.807Z" fill="#FECB88"/>
<path fill-rule="evenodd" clip-rule="evenodd" d="M97.3275 114.665L99.236 108.748L99.2457 108.75L100.367 109.113L100.13 115.561L101.424 115.981L101.569 108.789C102.722 108.296 103.599 107.124 104.196 105.284C104.665 103.847 104.796 102.694 104.598 101.839C104.398 100.993 103.844 100.418 102.943 100.124L100.966 99.4903L96.1863 114.296L97.3275 114.665ZM100.674 106.997L99.8776 106.742L99.8653 106.749L101.433 101.908L102.191 102.152C102.708 102.322 103.042 102.63 103.184 103.075C103.325 103.519 103.256 104.167 102.99 105.002C102.73 105.818 102.405 106.408 102.033 106.746C101.661 107.084 101.211 107.172 100.674 106.997Z" fill="#FECB88"/>
<path d="M102.429 116.313L107.209 101.507L108.35 101.875L103.57 116.681L102.429 116.313Z" fill="#FECB88"/>
<path d="M106.544 117.635L105.413 117.269L110.193 102.463L114.124 103.735L113.462 105.777L110.653 104.868L109.162 109.5L111.789 110.35L111.124 112.402L108.497 111.552L106.535 117.632L106.544 117.635Z" fill="#FECB88"/>
<path d="M111.74 119.318L110.609 118.953L115.389 104.147L119.32 105.419L118.658 107.461L115.859 106.554L114.367 111.187L116.994 112.037L116.33 114.088L113.703 113.239L111.74 119.318V119.318Z" fill="#FECB88"/>
</g>
<defs>
<radialGradient id="paint0_radial_71_193" cx="0" cy="0" r="1" gradientUnits="userSpaceOnUse" gradientTransform="translate(181.336 218.869) rotate(18.78) scale(158.377 176.505)">
<stop stop-color="white"/>
<stop offset="0.08" stop-color="#F5F5F5"/>
<stop offset="0.23" stop-color="#DCDCDC"/>
<stop offset="0.4" stop-color="#B3B3B3"/>
<stop offset="0.62" stop-color="#797979"/>
<stop offset="0.85" stop-color="#313131"/>
<stop offset="1"/>
</radialGradient>
<radialGradient id="paint1_radial_71_193" cx="0" cy="0" r="1" gradientUnits="userSpaceOnUse" gradientTransform="translate(136.855 78.1621) rotate(15) scale(34.1371 42.6786)">
<stop stop-color="white"/>
<stop offset="0.08" stop-color="#F5F5F5"/>
<stop offset="0.23" stop-color="#DCDCDC"/>
<stop offset="0.4" stop-color="#B3B3B3"/>
<stop offset="0.62" stop-color="#797979"/>
<stop offset="0.85" stop-color="#313131"/>
<stop offset="1"/>
</radialGradient>
<radialGradient id="paint2_radial_71_193" cx="0" cy="0" r="1" gradientUnits="userSpaceOnUse" gradientTransform="translate(39.8742 42.7782) rotate(15) scale(47.4115 83.5776)">
<stop stop-color="white"/>
<stop offset="0.08" stop-color="#F5F5F5"/>
<stop offset="0.23" stop-color="#DCDCDC"/>
<stop offset="0.4" stop-color="#B3B3B3"/>
<stop offset="0.62" stop-color="#797979"/>
<stop offset="0.85" stop-color="#313131"/>
<stop offset="1"/>
</radialGradient>
<radialGradient id="paint3_radial_71_193" cx="0" cy="0" r="1" gradientUnits="userSpaceOnUse" gradientTransform="translate(114.859 134.638) rotate(17.91) scale(50.642 49.6362)">
<stop stop-color="white"/>
<stop offset="0.08" stop-color="#F5F5F5"/>
<stop offset="0.23" stop-color="#DCDCDC"/>
<stop offset="0.4" stop-color="#B3B3B3"/>
<stop offset="0.62" stop-color="#797979"/>
<stop offset="0.85" stop-color="#313131"/>
<stop offset="1"/>
</radialGradient>
<clipPath id="clip0_71_193">
<rect width="200" height="200" fill="white"/>
</clipPath>
</defs>
</svg>
