<svg width="775" height="120" viewBox="0 0 775 120" fill="none" xmlns="http://www.w3.org/2000/svg">
<g filter="url(#filter0_d_0_18593)">
<path fill-rule="evenodd" clip-rule="evenodd" d="M44.64 0C45.3867 0 45.84 0.24 46 0.72C46.16 1.2 46.24 2.02667 46.24 3.2V37.6C46.24 38.1333 46.0267 38.6667 45.6 39.2C45.1733 39.7333 44.48 40 43.52 40H42.4C41.5467 40 40.9067 39.7333 40.48 39.2C40.0533 38.6667 39.84 38.1333 39.84 37.6V30.4C39.84 28.8 39.7867 27.8667 39.68 27.6C39.5733 27.3333 39.0933 27.2 38.24 27.2H26.56V84.8H31.68C32.4267 84.8 32.88 84.9867 33.04 85.36C33.2 85.7333 33.28 86.6133 33.28 88V112H29.28C28.32 112 27.1467 111.253 25.76 109.76C24.5867 107.84 23.7333 106.027 23.2 104.32C22.6667 106.133 21.76 107.947 20.48 109.76C19.3067 111.253 18.24 112 17.28 112H13.12V88C13.12 86.5067 13.2267 85.6 13.44 85.28C13.6533 84.96 14.1867 84.8 15.04 84.8H20.16V27.2H7.84C7.2 27.2 6.8 27.3867 6.64 27.76C6.48 28.1333 6.4 29.0133 6.4 30.4V37.6C6.4 38.0267 6.18667 38.5333 5.76 39.12C5.33333 39.7067 4.53333 40 3.36 40H2.4C1.44 40 0.8 39.7067 0.48 39.12C0.16 38.5333 0 38.0267 0 37.6V3.2C0 2.34667 0.08 1.6 0.24 0.96C0.4 0.32 0.853333 0 1.6 0H17.44C18.4 0 19.4667 0.746667 20.64 2.24C21.92 4.05333 22.8267 5.86667 23.36 7.68C23.8933 5.97333 24.7467 4.16 25.92 2.24C27.3067 0.746667 28.48 0 29.44 0H44.64ZM119.04 112H115.04C114.08 112 112.907 111.253 111.52 109.76C110.347 107.84 109.493 106.027 108.96 104.32C108.427 106.133 107.52 107.947 106.24 109.76C105.067 111.253 104 112 103.04 112H99.04V88C99.04 86.72 99.12 85.8667 99.28 85.44C99.44 85.0133 99.8933 84.8 100.64 84.8H104.32C104.96 84.8 105.36 84.6933 105.52 84.48C105.68 84.2667 105.76 83.3067 105.76 81.6V61.6C105.76 60.4267 105.68 59.6 105.52 59.12C105.36 58.64 104.96 58.4 104.32 58.4H76.32C75.5733 58.4 75.12 58.6933 74.96 59.28C74.8 59.8667 74.72 60.64 74.72 61.6V81.6C74.72 82.9867 74.7733 83.8667 74.88 84.24C74.9867 84.6133 75.4667 84.8 76.32 84.8H79.84C80.48 84.8 80.9067 85.0133 81.12 85.44C81.3333 85.8667 81.44 86.72 81.44 88V112H77.44C76.48 112 75.3067 111.253 73.92 109.76C72.7467 107.84 71.8933 106.027 71.36 104.32C70.8267 106.133 69.92 107.947 68.64 109.76C67.4667 111.253 66.4 112 65.44 112H61.44V88C61.44 86.72 61.52 85.8667 61.68 85.44C61.84 85.0133 62.2933 84.8 63.04 84.8H66.72C67.4667 84.8 67.92 84.6133 68.08 84.24C68.24 83.8667 68.32 82.9867 68.32 81.6V30.4C68.32 29.0133 68.24 28.1333 68.08 27.76C67.92 27.3867 67.4667 27.2 66.72 27.2H63.04C62.2933 27.2 61.84 26.9867 61.68 26.56C61.52 26.1333 61.44 25.28 61.44 24V0H65.44C66.4 0 67.4667 0.746667 68.64 2.24C69.92 4.05333 70.8267 5.86667 71.36 7.68C71.8933 5.97333 72.7467 4.16 73.92 2.24C75.3067 0.746667 76.48 0 77.44 0H81.44V24C81.44 25.28 81.36 26.1333 81.2 26.56C81.04 26.9867 80.5867 27.2 79.84 27.2H76.32C75.5733 27.2 75.12 27.3867 74.96 27.76C74.8 28.1333 74.72 29.0133 74.72 30.4V48.8C74.72 50.1867 74.8 51.0667 74.96 51.44C75.12 51.8133 75.5733 52 76.32 52H104.32C104.96 52 105.36 51.8133 105.52 51.44C105.68 51.0667 105.76 50.1867 105.76 48.8V30.4C105.76 29.2267 105.68 28.4 105.52 27.92C105.36 27.44 104.96 27.2 104.32 27.2H100.64C99.8933 27.2 99.44 26.96 99.28 26.48C99.12 26 99.04 25.1733 99.04 24V0H103.04C104 0 105.067 0.746667 106.24 2.24C107.52 4.05333 108.427 5.86667 108.96 7.68C109.493 5.97333 110.347 4.16 111.52 2.24C112.907 0.746667 114.08 0 115.04 0H119.04V24C119.04 25.4933 118.96 26.4 118.8 26.72C118.64 27.04 118.133 27.2 117.28 27.2H113.76C113.013 27.2 112.56 27.44 112.4 27.92C112.24 28.4 112.16 29.2267 112.16 30.4V81.6C112.16 83.3067 112.24 84.2667 112.4 84.48C112.56 84.6933 113.013 84.8 113.76 84.8H117.44C118.08 84.8 118.507 84.96 118.72 85.28C118.933 85.6 119.04 86.5067 119.04 88V112ZM153.76 112H175.84C176.48 112 176.88 111.92 177.04 111.76C177.2 111.6 177.28 110.613 177.28 108.8V74.4C177.28 73.76 177.04 73.2 176.56 72.72C176.08 72.24 175.253 72 174.08 72C172.907 72 172.08 72.24 171.6 72.72C171.12 73.2 170.88 73.76 170.88 74.4V81.6C170.88 83.2 170.8 84.1333 170.64 84.4C170.48 84.6667 170.027 84.8 169.28 84.8H152.48C151.84 84.8 151.413 84.64 151.2 84.32C150.987 84 150.88 83.0933 150.88 81.6V61.28C150.88 60.4267 151.013 59.7867 151.28 59.36C151.547 58.9333 152.053 58.72 152.8 58.72H163.68C164.427 58.72 165.013 58.6133 165.44 58.4C165.867 58.1867 166.08 57.3333 166.08 55.84C166.08 54.1333 165.84 53.12 165.36 52.8C164.88 52.48 164.32 52.32 163.68 52.32H152.8C152.053 52.32 151.547 52.1867 151.28 51.92C151.013 51.6533 150.88 51.0933 150.88 50.24V30.4C150.88 28.8 150.987 27.8667 151.2 27.6C151.413 27.3333 151.893 27.2 152.64 27.2H169.28C170.027 27.2 170.48 27.36 170.64 27.68C170.8 28 170.88 28.9067 170.88 30.4V37.6C170.88 38.24 171.12 38.8 171.6 39.28C172.08 39.76 172.907 40 174.08 40C175.147 40 175.947 39.76 176.48 39.28C177.013 38.8 177.28 38.24 177.28 37.6V2.08C177.28 1.33333 177.12 0.826667 176.8 0.56C176.48 0.293333 175.947 0.106667 175.2 0H153.76C152.8 0 151.627 0.746667 150.24 2.24C149.067 4.16 148.213 5.97333 147.68 7.68C147.147 5.86667 146.24 4.05333 144.96 2.24C143.787 0.746667 142.72 0 141.76 0H138.88C138.24 0.106667 137.787 0.346667 137.52 0.72C137.253 1.09333 137.12 1.65333 137.12 2.4V25.28C137.12 26.1333 137.227 26.6667 137.44 26.88C137.653 27.0933 138.027 27.2 138.56 27.2H142.88C143.52 27.2 143.947 27.36 144.16 27.68C144.373 28 144.48 28.9067 144.48 30.4V81.6C144.48 83.2 144.4 84.1333 144.24 84.4C144.08 84.6667 143.68 84.8 143.04 84.8H136.8C136.053 85.0133 135.573 85.3067 135.36 85.68C135.147 86.0533 135.04 86.6133 135.04 87.36V108.8C135.04 110.187 135.093 111.067 135.2 111.44C135.307 111.813 135.84 112 136.8 112H141.76C142.72 112 143.787 111.253 144.96 109.76C146.24 107.947 147.147 106.133 147.68 104.32C148.213 106.027 149.067 107.84 150.24 109.76C151.627 111.253 152.8 112 153.76 112ZM291.36 88V112H287.36C286.4 112 285.227 111.253 283.84 109.76C282.667 107.84 281.813 106.027 281.28 104.32C280.747 106.133 279.84 107.947 278.56 109.76C277.387 111.253 276.32 112 275.36 112H271.36V88C271.36 85.8667 272.107 84.8 273.6 84.8L266.08 45.92H265.44L257.92 84.8C259.307 84.8 260.053 85.0133 260.16 85.44C260.267 85.8667 260.32 86.72 260.32 88V112H256.32C255.36 112 254.187 111.253 252.8 109.76C251.627 107.84 250.773 106.027 250.24 104.32C249.707 106.133 248.8 107.947 247.52 109.76C246.347 111.253 245.28 112 244.32 112H240.32V88C240.32 86.4 240.427 85.4667 240.64 85.2C240.853 84.9333 241.333 84.8 242.08 84.8L231.52 27.2H226.56C225.92 27.2 225.467 27.0133 225.2 26.64C224.933 26.2667 224.8 25.3867 224.8 24V0H228.8C229.76 0 230.827 0.746667 232 2.24C233.28 4.05333 234.187 5.86667 234.72 7.68C235.253 5.97333 236.107 4.16 237.28 2.24C238.667 0.746667 239.84 0 240.8 0H244.8V24C244.8 25.4933 244.747 26.4 244.64 26.72C244.533 27.04 244 27.2 243.04 27.2H237.92L248.96 84.8H251.52L262.56 27.2H257.28C256.64 27.2 256.24 27.04 256.08 26.72C255.92 26.4 255.84 25.4933 255.84 24V0H259.84C260.8 0 261.867 0.746667 263.04 2.24C264.32 4.05333 265.227 5.86667 265.76 7.68C266.293 5.97333 267.147 4.16 268.32 2.24C269.707 0.746667 270.88 0 271.84 0H275.84V24C275.84 25.4933 275.787 26.4 275.68 26.72C275.573 27.04 275.147 27.2 274.4 27.2H268.96L280 84.8H282.56L293.6 27.2H288.64C287.68 27.2 287.147 27.0667 287.04 26.8C286.933 26.5333 286.88 25.6 286.88 24V0H290.88C291.84 0 292.907 0.746667 294.08 2.24C295.36 4.05333 296.267 5.86667 296.8 7.68C297.333 5.97333 298.187 4.16 299.36 2.24C300.747 0.746667 301.92 0 302.88 0H306.88V24C306.88 25.28 306.773 26.1333 306.56 26.56C306.347 26.9867 305.92 27.2 305.28 27.2H300L289.44 84.8C290.08 84.8 290.533 84.96 290.8 85.28C291.067 85.6 291.253 86.5067 291.36 88ZM341.28 112H363.36C364 112 364.4 111.92 364.56 111.76C364.72 111.6 364.8 110.613 364.8 108.8V74.4C364.8 73.76 364.56 73.2 364.08 72.72C363.6 72.24 362.773 72 361.6 72C360.427 72 359.6 72.24 359.12 72.72C358.64 73.2 358.4 73.76 358.4 74.4V81.6C358.4 83.2 358.32 84.1333 358.16 84.4C358 84.6667 357.547 84.8 356.8 84.8H340C339.36 84.8 338.933 84.64 338.72 84.32C338.507 84 338.4 83.0933 338.4 81.6V61.28C338.4 60.4267 338.533 59.7867 338.8 59.36C339.067 58.9333 339.573 58.72 340.32 58.72H351.2C351.947 58.72 352.533 58.6133 352.96 58.4C353.387 58.1867 353.6 57.3333 353.6 55.84C353.6 54.1333 353.36 53.12 352.88 52.8C352.4 52.48 351.84 52.32 351.2 52.32H340.32C339.573 52.32 339.067 52.1867 338.8 51.92C338.533 51.6533 338.4 51.0933 338.4 50.24V30.4C338.4 28.8 338.507 27.8667 338.72 27.6C338.933 27.3333 339.413 27.2 340.16 27.2H356.8C357.547 27.2 358 27.36 358.16 27.68C358.32 28 358.4 28.9067 358.4 30.4V37.6C358.4 38.24 358.64 38.8 359.12 39.28C359.6 39.76 360.427 40 361.6 40C362.667 40 363.467 39.76 364 39.28C364.533 38.8 364.8 38.24 364.8 37.6V2.08C364.8 1.33333 364.64 0.826667 364.32 0.56C364 0.293333 363.467 0.106667 362.72 0H341.28C340.32 0 339.147 0.746667 337.76 2.24C336.587 4.16 335.733 5.97333 335.2 7.68C334.667 5.86667 333.76 4.05333 332.48 2.24C331.307 0.746667 330.24 0 329.28 0H326.4C325.76 0.106667 325.307 0.346667 325.04 0.72C324.773 1.09333 324.64 1.65333 324.64 2.4V25.28C324.64 26.1333 324.747 26.6667 324.96 26.88C325.173 27.0933 325.547 27.2 326.08 27.2H330.4C331.04 27.2 331.467 27.36 331.68 27.68C331.893 28 332 28.9067 332 30.4V81.6C332 83.2 331.92 84.1333 331.76 84.4C331.6 84.6667 331.2 84.8 330.56 84.8H324.32C323.573 85.0133 323.093 85.3067 322.88 85.68C322.667 86.0533 322.56 86.6133 322.56 87.36V108.8C322.56 110.187 322.613 111.067 322.72 111.44C322.827 111.813 323.36 112 324.32 112H329.28C330.24 112 331.307 111.253 332.48 109.76C333.76 107.947 334.667 106.133 335.2 104.32C335.733 106.027 336.587 107.84 337.76 109.76C339.147 111.253 340.32 112 341.28 112ZM418.88 7.04V37.6C418.88 38.1333 418.693 38.6667 418.32 39.2C417.947 39.7333 417.227 40 416.16 40H415.04C414.08 40 413.413 39.7333 413.04 39.2C412.667 38.6667 412.48 38.1333 412.48 37.6V30.4C412.48 28.5867 412.373 27.6 412.16 27.44C411.947 27.28 411.52 27.2 410.88 27.2H390.4C388.907 27.2 388.027 27.28 387.76 27.44C387.493 27.6 387.36 28.0533 387.36 28.8V35.52C387.36 39.68 389.093 42.9067 392.56 45.2C396.027 47.4933 399.573 49.6533 403.2 51.68C407.573 54.1333 411.28 56.4 414.32 58.48C417.36 60.56 418.88 63.9467 418.88 68.64V75.2V87.52V99.44V105.12C418.56 106.613 418.027 107.787 417.28 108.64C416.533 109.493 415.733 110.187 414.88 110.72C414.347 111.04 413.867 111.307 413.44 111.52C413.013 111.733 412.48 111.893 411.84 112H398.72C397.76 112 396.693 111.253 395.52 109.76C394.24 107.947 393.333 106.133 392.8 104.32C392.267 106.027 391.413 107.84 390.24 109.76C388.853 111.253 387.68 112 386.72 112C385.12 112 383.733 111.36 382.56 110.08C381.387 108.8 380.8 107.147 380.8 105.12V74.4C380.8 73.76 380.96 73.2 381.28 72.72C381.6 72.24 382.027 72 382.56 72H385.76C386.4 72 386.827 72.24 387.04 72.72C387.253 73.2 387.36 73.76 387.36 74.4V81.6C387.36 83.2 387.467 84.1333 387.68 84.4C387.893 84.6667 388.32 84.8 388.96 84.8H409.6C410.987 84.8 411.813 84.72 412.08 84.56C412.347 84.4 412.48 83.9467 412.48 83.2V72.64C412.48 68.16 411.28 65.04 408.88 63.28C406.48 61.52 402.133 59.0933 395.84 56C390.187 53.0133 386.267 50.5333 384.08 48.56C381.893 46.5867 380.8 42.9867 380.8 37.76V6.88C381.12 5.38667 381.653 4.21333 382.4 3.36C383.147 2.50667 383.947 1.81333 384.8 1.28C385.333 0.96 385.813 0.693333 386.24 0.48C386.667 0.266667 387.2 0.106667 387.84 0H400.96C401.92 0 402.987 0.746667 404.16 2.24C405.44 4.05333 406.347 5.86667 406.88 7.68C407.413 5.97333 408.267 4.16 409.44 2.24C410.827 0.746667 412 0 412.96 0C414.56 0 415.947 0.64 417.12 1.92C418.293 3.2 418.88 4.90667 418.88 7.04ZM480.56 0.72C480.4 0.24 479.947 0 479.2 0H464C463.04 0 461.867 0.746667 460.48 2.24C459.307 4.16 458.453 5.97333 457.92 7.68C457.387 5.86667 456.48 4.05333 455.2 2.24C454.027 0.746667 452.96 0 452 0H436.16C435.413 0 434.96 0.32 434.8 0.96C434.64 1.6 434.56 2.34667 434.56 3.2V37.6C434.56 38.0267 434.72 38.5333 435.04 39.12C435.36 39.7067 436 40 436.96 40H437.92C439.093 40 439.893 39.7067 440.32 39.12C440.747 38.5333 440.96 38.0267 440.96 37.6V30.4C440.96 29.0133 441.04 28.1333 441.2 27.76C441.36 27.3867 441.76 27.2 442.4 27.2H454.72V84.8H449.6C448.747 84.8 448.213 84.96 448 85.28C447.787 85.6 447.68 86.5067 447.68 88V112H451.84C452.8 112 453.867 111.253 455.04 109.76C456.32 107.947 457.227 106.133 457.76 104.32C458.293 106.027 459.147 107.84 460.32 109.76C461.707 111.253 462.88 112 463.84 112H467.84V88C467.84 86.6133 467.76 85.7333 467.6 85.36C467.44 84.9867 466.987 84.8 466.24 84.8H461.12V27.2H472.8C473.653 27.2 474.133 27.3333 474.24 27.6C474.347 27.8667 474.4 28.8 474.4 30.4V37.6C474.4 38.1333 474.613 38.6667 475.04 39.2C475.467 39.7333 476.107 40 476.96 40H478.08C479.04 40 479.733 39.7333 480.16 39.2C480.587 38.6667 480.8 38.1333 480.8 37.6V3.2C480.8 2.02667 480.72 1.2 480.56 0.72ZM544.96 112C543.893 112 542.827 111.253 541.76 109.76C540.373 107.947 539.52 106.24 539.2 104.64C538.773 106.133 537.973 107.84 536.8 109.76C535.947 111.253 534.773 112 533.28 112H530.24C529.493 112 528.987 111.867 528.72 111.6C528.453 111.333 528.32 110.56 528.32 109.28V86.24C528.32 85.8133 528.427 85.52 528.64 85.36C528.853 85.2 529.227 85.0133 529.76 84.8H534.72C535.36 84.8 535.733 84.6933 535.84 84.48C535.947 84.2667 536 83.3067 536 81.6V30.4C536 29.0133 535.893 28.1333 535.68 27.76C535.467 27.3867 535.147 27.2 534.72 27.2H530.08C529.227 27.2 528.72 26.9867 528.56 26.56C528.4 26.1333 528.32 25.7067 528.32 25.28V13.52V1.76C528.32 1.33333 528.453 0.986667 528.72 0.72C528.987 0.453333 529.44 0.213333 530.08 0H532.96C534.667 0.213333 535.947 1.06667 536.8 2.56C537.973 4.48 538.773 6.18667 539.2 7.68C539.52 6.08 540.373 4.37333 541.76 2.56C542.827 1.06667 544.053 0.213333 545.44 0H560.48C562.507 0.213333 564.24 1.2 565.68 2.96C567.12 4.72 568.32 6.66667 569.28 8.8C569.707 9.86667 570.027 10.88 570.24 11.84C570.453 12.8 570.56 13.6533 570.56 14.4V49.6C570.56 49.92 570.4 50.3467 570.08 50.88C569.76 51.4133 569.387 51.8933 568.96 52.32C568.96 52.4267 568.827 52.6133 568.56 52.88C568.293 53.1467 568 53.52 567.68 54C567.36 54.48 567.2 54.88 567.2 55.2C567.2 55.52 567.36 55.8667 567.68 56.24C568 56.6133 568.427 57.0133 568.96 57.44C569.387 57.8667 569.76 58.2933 570.08 58.72C570.4 59.1467 570.56 59.6267 570.56 60.16V99.52C570.56 100.053 570.293 100.88 569.76 102C569.227 103.12 568.48 104.267 567.52 105.44C566.347 107.04 565.013 108.48 563.52 109.76C562.027 111.04 560.48 111.787 558.88 112H544.96ZM544.16 58.56C543.52 58.56 543.067 58.8 542.8 59.28C542.533 59.76 542.4 60.5867 542.4 61.76V81.6C542.4 82.9867 542.48 83.8667 542.64 84.24C542.8 84.6133 543.36 84.8 544.32 84.8H562.56C563.093 84.8 563.493 84.6133 563.76 84.24C564.027 83.8667 564.16 82.9867 564.16 81.6V61.76C564.16 61.0133 563.867 60.2933 563.28 59.6C562.693 58.9067 561.92 58.56 560.96 58.56H544.16ZM542.8 27.92C543.067 27.44 543.627 27.2 544.48 27.2H561.76C562.827 27.2 563.493 27.3867 563.76 27.76C564.027 28.1333 564.16 28.6933 564.16 29.44V48.96C564.16 49.92 563.867 50.6933 563.28 51.28C562.693 51.8667 561.92 52.16 560.96 52.16H544.16C543.413 52.16 542.933 51.9733 542.72 51.6C542.507 51.2267 542.4 50.3467 542.4 48.96V29.76C542.4 29.0133 542.533 28.4 542.8 27.92ZM622.88 27.2H616L635.84 84.8H641.28C641.92 84.8 642.347 84.9867 642.56 85.36C642.773 85.7333 642.88 86.6133 642.88 88V112H638.88C637.92 112 636.747 111.253 635.36 109.76C634.187 107.84 633.333 106.027 632.8 104.32C632.267 106.133 631.36 107.947 630.08 109.76C628.907 111.253 627.84 112 626.88 112H622.72V88C622.72 86.72 622.827 85.8667 623.04 85.44C623.253 85.0133 623.733 84.8 624.48 84.8H629.76L623.52 67.2H604.32L598.56 84.8H603.68C604.32 84.8 604.773 84.96 605.04 85.28C605.307 85.6 605.44 86.5067 605.44 88V112H601.44C600.48 112 599.307 111.253 597.92 109.76C596.747 107.84 595.893 106.027 595.36 104.32C594.827 106.133 593.92 107.947 592.64 109.76C591.467 111.253 590.4 112 589.44 112H585.28V88C585.28 86.4 585.36 85.4667 585.52 85.2C585.68 84.9333 586.133 84.8 586.88 84.8H592.16L611.2 27.2H603.04C602.08 27.2 601.493 26.96 601.28 26.48C601.067 26 600.96 24.5867 600.96 22.24V0H607.52C608.48 0 609.547 0.746667 610.72 2.24C612 4.05333 612.907 5.86667 613.44 7.68C613.973 5.97333 614.827 4.16 616 2.24C617.387 0.746667 618.56 0 619.52 0H625.12V22.24C625.12 24.8 624.96 26.2667 624.64 26.64C624.32 27.0133 623.733 27.2 622.88 27.2ZM613.92 38.24L606.72 60.8H621.6L613.92 38.24ZM715.68 112H711.68C710.72 112 709.547 111.253 708.16 109.76C706.987 107.84 706.133 106.027 705.6 104.32C705.067 106.133 704.16 107.947 702.88 109.76C701.707 111.253 700.64 112 699.68 112H695.68V87.04C695.68 86.1867 695.813 85.68 696.08 85.52C696.347 85.36 696.8 85.28 697.44 85.28H699.2H700.88C701.36 85.28 691.307 68.3733 670.72 34.56V82.72C670.72 83.5733 670.827 84.2133 671.04 84.64C671.253 85.0667 671.68 85.28 672.32 85.28H674H675.84C676.48 85.28 676.933 85.3867 677.2 85.6C677.467 85.8133 677.6 86.2933 677.6 87.04V112H673.6C672.64 112 671.467 111.253 670.08 109.76C668.907 107.84 668.053 106.027 667.52 104.32C666.987 106.133 666.08 107.947 664.8 109.76C663.627 111.253 662.56 112 661.6 112H657.6V87.52C657.6 86.6667 657.813 86.08 658.24 85.76C658.667 85.44 659.147 85.28 659.68 85.28H663.2C663.84 85.28 664.267 85.0133 664.48 84.48C664.693 83.9467 664.8 83.36 664.8 82.72V29.28C664.8 28.1067 664.693 27.44 664.48 27.28C664.267 27.12 663.84 27.04 663.2 27.04H659.52C658.56 27.04 658 26.8533 657.84 26.48C657.68 26.1067 657.6 25.7067 657.6 25.28V0H661.6C662.56 0 663.627 0.746667 664.8 2.24C666.08 4.05333 666.987 5.86667 667.52 7.68C668.053 5.97333 668.907 4.16 670.08 2.24C671.467 0.746667 672.64 0 673.6 0H677.6V24.8C677.6 25.5467 677.52 26.1067 677.36 26.48C677.2 26.8533 676.8 27.04 676.16 27.04H674.24H672.64C672.107 27.04 682.027 43.3067 702.4 75.84V29.12C702.4 28.3733 702.293 27.84 702.08 27.52C701.867 27.2 701.44 27.04 700.8 27.04H697.6C696.853 27.04 696.347 26.9333 696.08 26.72C695.813 26.5067 695.68 26.0267 695.68 25.28V0H699.68C700.64 0 701.707 0.746667 702.88 2.24C704.16 4.05333 705.067 5.86667 705.6 7.68C706.133 5.97333 706.987 4.16 708.16 2.24C709.547 0.746667 710.72 0 711.68 0H715.68V24.8C715.68 25.6533 715.547 26.24 715.28 26.56C715.013 26.88 714.507 27.04 713.76 27.04H710.24C709.493 27.04 709.013 27.2 708.8 27.52C708.587 27.84 708.48 28.3733 708.48 29.12V82.56C708.48 83.52 708.56 84.2133 708.72 84.64C708.88 85.0667 709.387 85.28 710.24 85.28H713.92C714.56 85.28 715.013 85.36 715.28 85.52C715.547 85.68 715.68 86.1867 715.68 87.04V112ZM768.48 110.08C769.653 108.8 770.24 107.147 770.24 105.12V62.56C770.24 61.92 770.133 61.4933 769.92 61.28C769.707 61.0667 769.387 60.96 768.96 60.96H755.04C754.4 60.96 753.947 61.0667 753.68 61.28C753.413 61.4933 753.28 61.92 753.28 62.56V67.36C753.28 67.7867 753.413 68.1867 753.68 68.56C753.947 68.9333 754.453 69.12 755.2 69.12H762.08C762.827 69.12 763.307 69.1733 763.52 69.28C763.733 69.3867 763.84 69.8133 763.84 70.56V83.2C763.84 83.9467 763.707 84.4 763.44 84.56C763.173 84.72 762.293 84.8 760.8 84.8H740C739.36 84.8 738.96 84.6667 738.8 84.4C738.64 84.1333 738.56 83.2 738.56 81.6V30.4C738.56 28.6933 738.667 27.7333 738.88 27.52C739.093 27.3067 739.52 27.2 740.16 27.2H760.8C762.4 27.2 763.307 27.3067 763.52 27.52C763.733 27.7333 763.84 28.16 763.84 28.8V37.76C763.84 38.72 763.973 39.3333 764.24 39.6C764.507 39.8667 764.907 40 765.44 40H768.64C769.28 40 769.707 39.8667 769.92 39.6C770.133 39.3333 770.24 38.72 770.24 37.76V6.88C770.24 4.85333 769.653 3.2 768.48 1.92C767.307 0.64 765.92 0 764.32 0C763.36 0 762.187 0.746667 760.8 2.24C759.627 4.16 758.773 5.97333 758.24 7.68C757.707 5.86667 756.8 4.05333 755.52 2.24C754.347 0.746667 753.28 0 752.32 0H739.2C738.56 0.106667 738.027 0.266667 737.6 0.48C737.173 0.693333 736.693 0.96 736.16 1.28C735.307 1.81333 734.507 2.50667 733.76 3.36C733.013 4.21333 732.48 5.38667 732.16 6.88V105.12C732.48 106.613 733.013 107.787 733.76 108.64C734.507 109.493 735.307 110.187 736.16 110.72C736.693 111.04 737.173 111.307 737.6 111.52C738.027 111.733 738.56 111.893 739.2 112H752.32C753.28 112 754.347 111.253 755.52 109.76C756.8 107.947 757.707 106.133 758.24 104.32C758.773 106.027 759.627 107.84 760.8 109.76C762.187 111.253 763.36 112 764.32 112C765.92 112 767.307 111.36 768.48 110.08Z" fill="#2D1509"/>
</g>
<defs>
<filter id="filter0_d_0_18593" x="-4" y="0" width="778.24" height="120" filterUnits="userSpaceOnUse" color-interpolation-filters="sRGB">
<feFlood flood-opacity="0" result="BackgroundImageFix"/>
<feColorMatrix in="SourceAlpha" type="matrix" values="0 0 0 0 0 0 0 0 0 0 0 0 0 0 0 0 0 0 127 0" result="hardAlpha"/>
<feOffset dy="4"/>
<feGaussianBlur stdDeviation="2"/>
<feComposite in2="hardAlpha" operator="out"/>
<feColorMatrix type="matrix" values="0 0 0 0 0 0 0 0 0 0 0 0 0 0 0 0 0 0 0.25 0"/>
<feBlend mode="normal" in2="BackgroundImageFix" result="effect1_dropShadow_0_18593"/>
<feBlend mode="normal" in="SourceGraphic" in2="effect1_dropShadow_0_18593" result="shape"/>
</filter>
</defs>
</svg>
