<svg width="106" height="40" viewBox="0 0 106 40" fill="none" xmlns="http://www.w3.org/2000/svg">
<path d="M95.9203 32.1079C92.0719 33.9618 87.3122 34.5511 82.6942 34.7798C77.6405 35.0273 74.0754 34.8309 71.8225 34.8444C71.0344 34.8516 70.3455 34.3107 70.1603 33.5394C69.8944 32.4396 69.7997 31.3049 69.8796 30.1759C69.9195 29.6465 70.0008 29.121 70.1228 28.6045C70.3138 27.8255 71.0151 27.2836 71.8119 27.2995C76.0023 27.3882 89.6533 27.5336 94.1832 25.8599C98.4592 24.2831 103.021 20.6129 104.822 15.2932C105.12 14.4101 105.337 13.5013 105.469 12.5782C106.025 21.4766 103.385 28.3865 95.9203 32.1079Z" fill="#E3D9CC"/>
<path d="M104.494 21.622C102.89 25.9084 99.6591 29.0943 95.474 31.1823C91.5 33.0928 86.5292 33.5583 82.6461 33.752C81.3312 33.8166 80.0404 33.8543 78.6989 33.8704C76.9029 33.8893 75.3369 33.8704 74.0781 33.8381C73.2149 33.8247 72.4746 33.8085 71.8199 33.8139C71.0181 33.8139 70.2164 32.9098 69.9732 32.5519C70.0213 32.8694 70.0801 33.1977 70.163 33.5395C70.3481 34.3108 71.0371 34.8517 71.8252 34.8445C73.4287 34.8445 75.7057 34.9333 78.7095 34.8983C79.9175 34.8848 81.2457 34.8499 82.6969 34.7799C87.3149 34.5512 92.0746 33.9727 95.923 32.108C101.372 29.393 103.761 25.7577 104.838 21.0274C104.705 20.9762 104.55 21.4713 104.494 21.622Z" fill="white"/>
<path d="M104.71 18.0405C102.912 23.3602 98.4806 27.0788 94.2153 28.6529C89.6721 30.3266 76.0424 30.184 71.8439 30.0952C71.0462 30.0763 70.3432 30.6195 70.1549 31.4002C70.0701 31.755 70.005 32.1144 69.9599 32.4765C69.8506 31.713 69.8237 30.9398 69.8797 30.1705C69.9184 29.6418 69.9998 29.1172 70.1229 28.6018C70.3129 27.8223 71.0148 27.2799 71.8119 27.2968C75.9997 27.3856 89.6534 27.5282 94.1832 25.8572C98.4592 24.2804 103.018 20.6102 104.822 15.2905C105.121 14.4077 105.336 13.4988 105.466 12.5756C105.376 13.7003 105.001 17.1768 104.71 18.0405Z" fill="white"/>
<path d="M101.273 25.4294C99.5878 27.3814 97.4602 28.8959 95.0704 29.845C93.858 30.2713 92.6037 30.5654 91.329 30.7222C90.0649 30.8863 88.8008 31.0209 87.534 31.1016C85.0005 31.2899 82.4563 31.333 79.9282 31.3438C78.6614 31.3438 77.3938 31.3312 76.1252 31.3061C74.8585 31.2765 73.5917 31.2415 72.3276 31.1769L76.1252 31.1393L79.9282 31.0612C82.4581 30.9966 84.9845 30.8702 87.5073 30.6818C88.7687 30.5903 90.0221 30.4477 91.2702 30.2755C92.5039 30.1084 93.718 29.8172 94.8941 29.4064C97.2374 28.4713 99.3973 27.1247 101.273 25.4294V25.4294Z" fill="white"/>
<path fill-rule="evenodd" clip-rule="evenodd" d="M74.3188 35.3495C75.2156 35.3648 76.2515 35.3825 77.4107 35.3825C78.9554 35.3825 80.7299 35.3529 82.7129 35.2642C86.743 35.0677 91.9062 34.578 96.1207 32.5492C103.238 29 106.538 22.2758 105.929 12.5621C105.914 12.3177 105.718 12.124 105.475 12.1143C105.232 12.1045 105.022 12.2819 104.988 12.5244C104.861 13.4184 104.652 14.2986 104.363 15.1533C102.521 20.5833 97.8098 24.0221 94.0095 25.4267C89.5545 27.0708 75.8927 26.9228 71.8119 26.8367C70.794 26.821 69.8994 27.5133 69.6525 28.5076C69.5249 29.048 69.44 29.5978 69.3986 30.1517C69.316 31.3257 69.4133 32.5055 69.6872 33.6497C69.9218 34.643 70.8113 35.3382 71.8252 35.3207C72.4452 35.3153 73.1962 35.3287 74.0487 35.3449C74.1373 35.3464 74.2273 35.3479 74.3188 35.3495ZM74.0648 34.3923C73.3058 34.3681 72.6377 34.3681 72.0497 34.3681L72.0577 34.3708H71.8199C71.2539 34.3752 70.7598 33.9859 70.628 33.4317C70.3734 32.3759 70.2832 31.2866 70.3607 30.2028C70.3969 29.6996 70.4738 29.2001 70.5905 28.7094C70.7327 28.1495 71.238 27.7611 71.8119 27.7704C75.9355 27.8538 89.7442 28.0018 94.3542 26.2985C98.2026 24.8859 102.96 21.4551 105.044 16.0736C104.748 23.5835 101.674 28.7202 95.7145 31.68C91.6497 33.6335 86.6094 34.1098 82.6702 34.3035C79.065 34.4811 76.176 34.43 74.0648 34.3923Z" fill="#E3D9CC"/>
<path d="M10.0856 32.1079C13.9339 33.9618 18.6936 34.5511 23.3117 34.7798C28.3653 35.0273 31.9304 34.8309 34.1833 34.8444C34.9718 34.8508 35.6611 34.3105 35.8483 33.5394C36.1085 32.4387 36.1986 31.3042 36.1155 30.1759C36.077 29.6463 35.9956 29.1208 35.8723 28.6045C35.6814 27.8255 34.98 27.2836 34.1833 27.2995C29.9955 27.3882 16.3418 27.5336 11.812 25.8599C7.53601 24.2831 2.97676 20.6129 1.17284 15.2932C0.874656 14.4104 0.65903 13.5015 0.528769 12.5782C-0.0190892 21.4766 2.62132 28.3865 10.0856 32.1079Z" fill="#E3D9CC"/>
<path d="M1.51224 21.622C3.11573 25.9084 6.34943 29.0943 10.5345 31.1823C14.5085 33.0928 19.4767 33.5583 23.3624 33.752C24.6773 33.8166 25.9681 33.8543 27.3124 33.8704C29.1083 33.8893 30.6743 33.8704 31.9304 33.8381C32.7936 33.8247 33.5339 33.8085 34.1887 33.8139C34.9904 33.8139 35.7921 32.9098 36.0353 32.5519C35.9899 32.8694 35.9284 33.1977 35.8483 33.5395C35.6611 34.3106 34.9718 34.8509 34.1833 34.8445C32.5798 34.8445 30.3029 34.9333 27.299 34.8983C26.091 34.8848 24.7628 34.8499 23.3117 34.7799C18.6936 34.5512 13.9339 33.9727 10.0856 32.108C4.63637 29.393 2.24718 25.7577 1.17017 21.0274C1.30112 20.9762 1.45612 21.4713 1.51224 21.622Z" fill="white"/>
<path d="M1.29581 18.0405C3.09706 23.3602 7.52536 27.0788 11.78 28.6529C16.3232 30.3266 29.9528 30.184 34.154 30.0952C34.9507 30.0776 35.6522 30.6205 35.8403 31.4002C35.9264 31.7548 35.9916 32.1142 36.0354 32.4765C36.146 31.7131 36.1728 30.9398 36.1156 30.1705C36.0768 29.6418 35.9955 29.1172 35.8724 28.6018C35.6832 27.8217 34.9807 27.2789 34.1834 27.2968C29.9956 27.3856 16.3419 27.5282 11.812 25.8572C7.53605 24.2804 2.9768 20.6102 1.17555 15.2905C0.875228 14.4082 0.658679 13.4991 0.528809 12.5756C0.630363 13.7003 1.00451 17.1768 1.29581 18.0405Z" fill="white"/>
<path d="M4.7326 25.4294C6.60737 27.1236 8.76531 28.47 11.1065 29.4064C12.2869 29.8181 13.5054 30.1093 14.7437 30.2755C15.9918 30.4477 17.2452 30.5903 18.5066 30.6818C21.0258 30.8702 23.5522 30.9966 26.0857 31.0612L29.8833 31.1393L33.6836 31.1769C32.4168 31.2415 31.1501 31.2765 29.8833 31.3061C28.6166 31.3357 27.3498 31.3491 26.0804 31.3438C23.5469 31.3438 21.0027 31.2899 18.4745 31.1016C17.2077 31.0209 15.9437 30.8863 14.6796 30.7222C13.4048 30.5654 12.1505 30.2713 10.9381 29.845C8.5474 28.8963 6.41886 27.3817 4.7326 25.4294Z" fill="white"/>
<path fill-rule="evenodd" clip-rule="evenodd" d="M23.2903 35.2534C25.2786 35.353 27.0505 35.3826 28.5952 35.3826C29.8726 35.3826 30.9951 35.361 31.9625 35.3314C32.8177 35.3072 33.5526 35.3072 34.186 35.3072H34.1994C35.2044 35.3134 36.0807 34.6207 36.3133 33.6363C36.5885 32.4923 36.6859 31.3123 36.6019 30.1383C36.5585 29.5828 36.4692 29.032 36.3347 28.4915C36.0876 27.4976 35.1928 26.8063 34.1753 26.8232C30.0944 26.9093 16.4327 27.0573 11.9777 25.4133C8.1801 24.0194 3.46585 20.5753 1.62451 15.1399C1.33987 14.2856 1.13499 13.4064 1.01251 12.5137C0.978952 12.2712 0.768213 12.0938 0.525205 12.1035C0.282196 12.1133 0.0861149 12.3069 0.0717952 12.5514C-0.540203 22.2651 2.76298 28.9893 9.88247 32.5384C14.097 34.5673 19.2629 35.057 23.2903 35.2534ZM23.3357 34.3036C19.3965 34.1018 14.3562 33.6336 10.294 31.6801C4.33173 28.7068 1.26105 23.5808 0.961731 16.0709C3.04092 21.4524 7.79526 24.8724 11.6517 26.2958C16.2617 27.9991 30.0731 27.8511 34.1967 27.7677C34.7706 27.7567 35.276 28.1461 35.4153 28.7068C35.5321 29.1974 35.609 29.6969 35.6452 30.2001C35.7239 31.2839 35.6337 32.3734 35.3779 33.4291C35.2461 33.9832 34.752 34.3726 34.186 34.3681C33.5446 34.3655 32.8017 34.3762 31.9411 34.3924C29.8299 34.43 26.9409 34.4812 23.3357 34.3036Z" fill="#E3D9CC"/>
<path d="M67.274 35.579C69.9779 32.9242 73.5915 31.4167 77.368 31.368C80.0814 31.3827 82.7331 32.1842 85.0059 33.6767C87.3069 30.2405 88.1915 27.2188 88.6111 26.0752C91.6844 17.6908 89.2605 14.1336 87.208 14.0287C84.4287 13.8887 77.1542 23.3199 74.4122 25.6232C74.6287 23.9549 74.4897 22.9728 73.7254 22.5207C72.8488 16.41 69.9679 11.6392 67.739 9.64269C65.5102 7.64614 63.5673 4.57059 62.7842 3.11488C62.0012 1.65918 60.224 -0.625287 57.9524 0.693191C55.0916 2.24658 51.6466 2.24658 48.7858 0.693191C46.5142 -0.63605 44.7397 1.6511 43.9539 3.11488C43.1682 4.57866 41.2307 7.64614 38.9992 9.64269C36.7676 11.6392 33.8894 16.41 33.0128 22.5207C32.2485 22.9728 32.1095 23.9549 32.326 25.6232C29.5894 23.3118 22.3122 13.8941 19.5301 14.0287C17.4777 14.1336 15.0537 17.6908 18.1271 26.0752C18.5814 27.313 19.5729 30.7222 22.2988 34.4866C24.0783 33.7047 25.9963 33.2929 27.9378 33.2757H27.9511C30.1405 31.9951 32.6216 31.3064 35.1535 31.2765C39.0205 31.2765 42.4547 34.8317 45.2474 37.4148C48.0402 39.998 64.7966 38.0707 67.274 35.579Z" fill="white"/>
<path d="M34.9851 22.8732C33.7771 23.3521 34.2127 25.0043 34.2127 25.0043L32.8097 25.3783C32.8097 25.3783 32.4916 23.5674 33.1998 23.3252C33.7832 23.1309 34.3798 22.9798 34.9851 22.8732Z" fill="#E3D9CC"/>
<path d="M39.7661 22.1763C38.6276 22.3557 37.4999 22.5853 36.3828 22.8651C35.8242 23.0023 35.2683 23.1342 34.7178 23.3064C34.4506 23.3844 34.1673 23.4705 33.8947 23.5566C33.7611 23.5997 33.6274 23.6427 33.4911 23.6912L33.296 23.7638C33.2292 23.788 33.1731 23.8149 33.117 23.8392L32.9139 23.3844L33.1384 23.3064L33.3548 23.2445C33.4965 23.2041 33.6381 23.1719 33.7798 23.1369C34.063 23.0669 34.3437 23.0023 34.6269 22.9431C35.1935 22.8247 35.7619 22.7171 36.332 22.6202C37.4731 22.4265 38.617 22.2758 39.7661 22.1763Z" fill="#E3D9CC"/>
<path d="M39.4936 22.8866C38.3898 23.0723 37.2914 23.2902 36.2064 23.5458C35.6719 23.675 35.1214 23.8149 34.5842 23.9575C34.317 24.0302 34.0497 24.1082 33.7825 24.1889C33.6515 24.2293 33.5152 24.2697 33.3896 24.3154L33.1999 24.3827C33.1331 24.4069 33.0796 24.4311 33.0288 24.4526L32.8231 24.0006C32.9006 23.971 32.9781 23.9441 33.0475 23.9252L33.256 23.866C33.395 23.8284 33.5232 23.7988 33.6702 23.7665C33.9375 23.7046 34.2234 23.6454 34.4987 23.5916C35.0519 23.4839 35.6051 23.3898 36.1583 23.301C37.2647 23.1261 38.3791 22.9888 39.4936 22.8866Z" fill="#E3D9CC"/>
<path d="M39.2183 23.597C38.1493 23.7827 37.0803 23.9899 36.0274 24.2294C35.4929 24.3478 34.9717 24.4715 34.4479 24.6088C34.1807 24.6734 33.9268 24.746 33.6676 24.8213C33.542 24.859 33.4003 24.8967 33.2854 24.9397L33.1037 25.0016C33.0482 25.0212 32.9938 25.0436 32.9406 25.0689L32.7349 24.6142C32.8124 24.5872 32.8872 24.5603 32.954 24.5415L33.1598 24.4877C33.2961 24.4527 33.427 24.4258 33.5633 24.3962C33.8306 24.3424 34.0978 24.2886 34.3651 24.2428C34.8996 24.146 35.4341 24.0563 35.9686 23.9738C37.0554 23.8231 38.1386 23.6975 39.2183 23.597Z" fill="#E3D9CC"/>
<path d="M71.7557 22.8732C72.9637 23.3521 72.5281 25.0043 72.5281 25.0043L73.9338 25.3783C73.9338 25.3783 74.2492 23.5674 73.541 23.3252C72.9576 23.1309 72.361 22.9798 71.7557 22.8732Z" fill="#E3D9CC"/>
<path d="M66.9747 22.1763C68.1238 22.2758 69.2703 22.4265 70.4088 22.6202C70.9772 22.7171 71.5455 22.8247 72.1138 22.9431C72.3971 23.0023 72.6804 23.0669 72.9637 23.1369C73.1053 23.1719 73.2443 23.2041 73.3886 23.2445L73.6024 23.3064L73.8296 23.3844L73.6238 23.8392C73.5704 23.8149 73.5142 23.788 73.4474 23.7638L73.2497 23.6912C73.1187 23.6427 72.9824 23.5997 72.8461 23.5566C72.5789 23.4705 72.3116 23.3844 72.023 23.3064C71.4725 23.1476 70.9166 23.0023 70.358 22.8651C69.2409 22.5906 68.1131 22.361 66.9747 22.1763Z" fill="#E3D9CC"/>
<path d="M67.2499 22.8866C68.3653 22.9906 69.4734 23.1324 70.5745 23.3117C71.1277 23.4005 71.6809 23.4947 72.2314 23.6023C72.4987 23.6562 72.7846 23.7154 73.0599 23.7772C73.1989 23.8095 73.3272 23.8391 73.4741 23.8768L73.6853 23.936C73.7521 23.9548 73.8296 23.9817 73.9071 24.0113L73.7013 24.4634L73.5329 24.3934C73.4715 24.3692 73.4073 24.3477 73.3405 24.3262C73.2122 24.2804 73.0733 24.2401 72.9477 24.1997C72.6804 24.119 72.4132 24.0409 72.1459 23.9683C71.6114 23.8203 71.0769 23.6858 70.5237 23.5566C69.4458 23.2947 68.3546 23.0714 67.2499 22.8866Z" fill="#E3D9CC"/>
<path d="M67.5225 23.597C68.6022 23.6993 69.681 23.8276 70.7589 23.9818C71.2934 24.0608 71.8279 24.1504 72.3624 24.2509C72.6296 24.2966 72.8969 24.3505 73.1641 24.4043C73.3004 24.4339 73.4314 24.4608 73.5677 24.4958L73.7735 24.5496C73.8403 24.5684 73.9178 24.5953 73.9953 24.6222L73.7895 25.077C73.7387 25.0554 73.6906 25.0312 73.6265 25.0097L73.4421 24.9478C73.3165 24.9048 73.1882 24.8671 73.0599 24.8294C72.7927 24.7541 72.5414 24.6814 72.2795 24.6168C71.745 24.4796 71.2293 24.3478 70.7001 24.2374C69.6578 23.9899 68.5915 23.7827 67.5225 23.597Z" fill="#E3D9CC"/>
<path d="M33.5179 22.2059C33.3629 22.2489 33.2052 22.2866 33.0475 22.3216L33.0154 22.5207C32.2672 22.9647 32.1202 23.9172 32.3179 25.5263C32.5976 25.4513 32.8826 25.3982 33.1705 25.3675C32.978 23.7531 33.2399 23.4006 33.4537 23.2741L33.8145 23.0615L33.8733 22.6445C33.9054 22.4265 33.9401 22.2085 33.9775 21.9933C33.8356 22.0867 33.6807 22.1584 33.5179 22.2059Z" fill="white"/>
<path d="M45.3196 3.03149C45.1378 3.46251 44.9271 3.88055 44.6889 4.2827C44.4573 4.68991 44.2149 5.08904 43.962 5.4801C43.4595 6.26849 42.9277 7.03536 42.3825 7.79147C42.1153 8.17087 41.8293 8.54488 41.546 8.91621C41.4017 9.10187 41.2601 9.28754 41.1077 9.4732C40.9554 9.65886 40.8004 9.82838 40.6481 10.0114C40.0281 10.7083 39.4134 11.3971 38.8442 12.1155C38.2733 12.8276 37.7569 13.5823 37.2995 14.3731C36.8531 15.1689 36.4646 15.9963 36.1369 16.8486C35.8029 17.7043 35.5249 18.5815 35.2657 19.4694C35.0065 20.3574 34.7766 21.2534 34.5468 22.1602L33.9455 22.023C34.1299 21.1027 34.3544 20.1932 34.5976 19.2837C34.8408 18.3743 35.1321 17.4809 35.4768 16.593C35.6452 16.1517 35.8323 15.7158 36.0327 15.2826C36.2331 14.8494 36.4576 14.435 36.6982 14.0233C37.1837 13.2068 37.7352 12.4319 38.3471 11.7065C38.9457 10.98 39.5978 10.3046 40.2338 9.63195C40.5572 9.29561 40.8592 8.96195 41.1558 8.60677C41.4525 8.25159 41.7465 7.89372 42.0378 7.53046C42.6204 6.80934 43.195 6.08014 43.7535 5.34018C44.3265 4.60697 44.8497 3.83566 45.3196 3.03149Z" fill="#E3D9CC"/>
<path d="M45.3303 0.849238C45.6333 0.56996 46.0007 0.37113 46.3993 0.270723C46.6049 0.221915 46.8165 0.203782 47.0273 0.216907C47.2372 0.230789 47.4441 0.274265 47.642 0.346064C48.0147 0.490301 48.3567 0.704927 48.6495 0.978395C48.7888 1.10913 48.9208 1.24746 49.045 1.39277L49.2187 1.60804C49.2722 1.6753 49.3256 1.74257 49.3817 1.80715C49.5998 2.07154 49.8364 2.31973 50.0899 2.54981C50.3422 2.78329 50.6101 2.99906 50.8917 3.19559C51.1745 3.39541 51.4741 3.57007 51.787 3.7176C52.1034 3.87212 52.4413 3.97736 52.7892 4.02973C52.4301 4.06464 52.0677 4.03271 51.7202 3.93555C51.3663 3.83978 51.0232 3.70722 50.6966 3.54001C50.041 3.20025 49.4437 2.75694 48.9274 2.22691C48.8633 2.15964 48.8018 2.09237 48.7403 2.02241C48.6789 1.95245 48.6254 1.89595 48.5666 1.83406C48.4523 1.7148 48.3319 1.60163 48.2058 1.49502C47.9703 1.28681 47.6985 1.12441 47.4041 1.01607C47.1313 0.915765 46.8362 0.893414 46.5516 0.951488C46.2542 1.01852 45.9744 1.14879 45.7311 1.33358L45.3303 0.849238Z" fill="#E3D9CC"/>
<path d="M47.7007 0.0743408C47.9978 0.106114 48.2834 0.207481 48.5346 0.370326C48.7562 0.521404 48.9638 0.692528 49.1546 0.881572C49.5207 1.23675 49.8467 1.58924 50.2236 1.89599C50.5972 2.20538 51.001 2.47584 51.4289 2.70322C51.867 2.93942 52.3206 3.1453 52.7865 3.31941C52.2838 3.25674 51.7886 3.14316 51.3086 2.98037C50.8196 2.81454 50.3529 2.5886 49.9189 2.30768C49.4945 2.02306 49.0909 1.70834 48.7109 1.36591C48.5265 1.20446 48.3448 1.05916 48.1764 0.932697C48.0071 0.820146 47.8213 0.734814 47.6259 0.679764L47.7007 0.0743408Z" fill="#E3D9CC"/>
<path d="M47.5297 3.80103C47.9245 4.16501 48.237 4.61003 48.4464 5.10605C48.6566 5.6101 48.7769 6.1475 48.8018 6.6936C48.8287 7.23619 48.7783 7.77987 48.6521 8.30807C48.5258 8.83942 48.3383 9.35414 48.0936 9.84181C47.8411 10.3312 47.5237 10.7838 47.1502 11.1872C46.7803 11.5677 46.3895 11.927 45.9797 12.2635C45.5829 12.5892 45.2154 12.9494 44.8813 13.3398C44.5518 13.7476 44.2818 14.2006 44.0795 14.6852C44.1905 14.1605 44.3941 13.6601 44.6808 13.208C44.9792 12.7607 45.3261 12.3483 45.7151 11.9783C46.0866 11.6016 46.4714 11.2518 46.8001 10.8643C47.1359 10.4879 47.4216 10.0691 47.65 9.61847C47.8825 9.16597 48.0662 8.68967 48.1978 8.19774C48.3298 7.70695 48.4024 7.20192 48.4143 6.6936C48.446 5.65734 48.1349 4.63984 47.5297 3.80103Z" fill="#E3D9CC"/>
<path d="M47.2812 5.01453C47.3895 5.21839 47.479 5.43186 47.5484 5.65224C47.7641 6.33855 47.7434 7.07806 47.4896 7.75104C47.3244 8.19253 47.0878 8.60348 46.7894 8.96727C46.5043 9.3307 46.1727 9.6546 45.8033 9.93056C46.0545 9.54578 46.3244 9.18522 46.5516 8.80044C46.7866 8.42857 46.9835 8.03371 47.1395 7.62188C47.2975 7.21624 47.3878 6.78712 47.4068 6.35184V6.1877V6.02357C47.4068 5.91055 47.3907 5.80292 47.3827 5.68991C47.3587 5.4585 47.3239 5.23517 47.2812 5.01453Z" fill="#E3D9CC"/>
<path d="M47.5591 4.6217C48.0348 5.25173 48.2768 6.02937 48.2432 6.82006C48.2123 7.61426 47.9972 8.39016 47.6152 9.08569C47.2368 9.76294 46.7694 10.3856 46.2255 10.9369C45.6971 11.4882 45.1192 11.989 44.4991 12.433C44.9775 11.8384 45.4692 11.2679 45.9342 10.6813C46.3987 10.106 46.8152 9.49316 47.1796 8.84891C47.5271 8.21046 47.7571 7.51401 47.8584 6.79316C47.9487 6.05544 47.8455 5.30676 47.5591 4.6217Z" fill="#E3D9CC"/>
<path d="M32.8925 22.2355C33.2728 22.0783 33.6664 21.9559 34.0684 21.8695C34.2635 21.8265 34.4559 21.7808 34.6483 21.7431L35.2309 21.6381C36.0033 21.5036 36.781 21.4014 37.556 21.2991C39.106 21.1054 40.6614 20.9547 42.2168 20.8255C43.7722 20.6964 45.3276 20.5968 46.8856 20.5322C48.4437 20.4677 50.0044 20.4381 51.5625 20.4488C50.0044 20.5026 48.4517 20.6076 46.899 20.734C45.3463 20.8605 43.7989 21.0031 42.2515 21.1995C40.7042 21.396 39.1648 21.5924 37.6335 21.8426L36.4843 22.0391C36.1048 22.1117 35.7227 22.179 35.3432 22.257L34.7766 22.3727L34.2154 22.4992C33.8532 22.5772 33.4962 22.6779 33.1464 22.8006L32.8925 22.2355Z" fill="#E3D9CC"/>
<path d="M67.274 35.579C69.9779 32.9242 73.5915 31.4167 77.3679 31.368C80.0876 31.3823 82.7453 32.1868 85.0219 33.6847C87.1893 30.515 88.8142 26.382 89.0467 20.7421C89.215 16.6764 88.1888 15.5274 86.9087 15.6915C85.4228 15.8853 83.5039 17.9276 81.2403 20.4515C77.0285 25.1496 64.7966 38.0707 67.274 35.579Z" fill="#E3D9CC"/>
<path d="M22.2988 34.4866C24.0792 33.7048 25.9981 33.293 27.9404 33.2757H27.9538C30.1431 31.9951 32.6243 31.3064 35.1561 31.2765C35.3004 31.2765 35.4447 31.2765 35.589 31.2765C31.0458 27.1919 27.5155 22.6902 25.5004 20.4408C23.2368 17.9168 21.318 15.8665 19.8321 15.6808C18.5547 15.5167 17.5284 16.6656 17.6941 20.7314C17.9507 26.8717 19.8455 31.22 22.2988 34.4866Z" fill="#E3D9CC"/>
<path d="M22.0075 34.6131C22.1973 34.5243 22.387 34.4409 22.5794 34.3628C20.1368 31.1339 18.258 26.8287 18.0068 20.726C17.8839 17.8065 18.4024 16.6898 18.8567 16.2701C19.1109 16.0386 19.4575 15.9392 19.7947 16.001C21.155 16.1786 23.0017 18.1294 25.2706 20.6614C25.733 21.178 26.2728 21.8104 26.8982 22.545C28.8972 24.8832 31.722 28.1956 35.116 31.2819H35.1561C35.4768 31.2819 35.7949 31.298 36.1102 31.3196C32.4436 28.0906 29.429 24.5496 27.3685 22.1386C26.7405 21.4041 26.198 20.7717 25.7303 20.2551C23.293 17.5374 21.4543 15.5974 19.8722 15.3929C19.3535 15.3082 18.825 15.469 18.4398 15.8288C17.638 16.5795 17.2799 18.1967 17.3868 20.7664C17.614 26.2179 19.1266 30.7518 22.0075 34.6131Z" fill="#E3D9CC"/>
<path d="M69.0859 33.4586C73.6292 29.8288 77.3706 25.4428 79.8454 22.5422C80.4707 21.8103 81.0106 21.178 81.4729 20.6586C83.7445 18.1266 85.5885 16.1758 86.9515 15.9982C87.2879 15.9364 87.6337 16.0359 87.8868 16.2673C88.3412 16.6898 88.8596 17.8037 88.7394 20.7232C88.5069 26.3173 86.9141 30.3912 84.7707 33.5178C84.9418 33.6228 85.1128 33.7304 85.2812 33.8434C87.8093 30.149 89.1456 25.8518 89.3567 20.7474C89.4636 18.1777 89.1189 16.5606 88.3038 15.8099C87.9185 15.4501 87.39 15.2893 86.8713 15.374C85.2972 15.5785 83.4505 17.5266 81.0132 20.2362C80.5455 20.7582 80.003 21.3905 79.375 22.1197C74.5913 27.7219 64.6336 39.3756 53.3718 39.3756C51.3705 39.3611 49.3848 39.0194 47.4923 38.3639C47.6366 38.633 47.7596 38.8832 47.8959 39.1496C49.6673 39.7012 51.5096 39.9877 53.3637 39.9999C58.364 40.0134 63.6528 37.8069 69.0859 33.4586Z" fill="#E3D9CC"/>
<path d="M38.1119 33.4586C33.5686 29.8288 29.8272 25.4428 27.3525 22.5422C26.7271 21.8103 26.1873 21.178 25.7249 20.6586C23.4533 18.1266 21.6093 16.1758 20.2463 15.9982C19.9099 15.9364 19.5642 16.0359 19.311 16.2673C18.8566 16.6898 18.3382 17.8037 18.4584 20.7232C18.691 26.3173 20.2837 30.3912 22.4271 33.5178C22.256 33.6228 22.085 33.7304 21.9166 33.8434C19.3885 30.149 18.0522 25.8518 17.8411 20.7474C17.7342 18.1777 18.079 16.5606 18.8941 15.8099C19.2793 15.4501 19.8078 15.2893 20.3265 15.374C21.9006 15.5785 23.7473 17.5266 26.1846 20.2362C26.6523 20.7582 27.1948 21.3905 27.8228 22.1197C32.6066 27.7219 42.5642 39.3756 53.826 39.3756C55.8273 39.3611 57.813 39.0194 59.7055 38.3639C59.5612 38.633 59.4383 38.8832 59.302 39.1496C57.5305 39.7012 55.6882 39.9877 53.8341 39.9999C48.8339 40.0134 43.545 37.8069 38.1119 33.4586Z" fill="#E3D9CC"/>
<path d="M45.8941 36.1414C46.9833 36.5884 48.1022 36.958 49.2428 37.2473C47.9583 36.8423 46.7073 36.3367 45.5013 35.7351C45.6349 35.867 45.7659 36.0015 45.8941 36.1414Z" fill="#E3D9CC"/>
<path d="M34.8621 28.6179C35.1775 28.9166 35.5035 29.2072 35.8216 29.5032C36.1396 29.7992 36.4737 30.0817 36.7997 30.3696L37.8072 31.2038L38.4085 31.6773C38.8788 31.7924 39.3427 31.9325 39.7982 32.0971C39.5844 31.9303 39.3706 31.7634 39.1595 31.5939L38.1707 30.7625L37.2059 29.9041L36.2545 29.0269C35.6291 28.435 35.0145 27.8322 34.3838 27.2268C33.7531 26.6214 33.1598 26.0052 32.5344 25.4025L32.0961 25.8438C32.6948 26.4707 33.2961 27.095 33.9161 27.7058C34.2332 28.0053 34.5486 28.3094 34.8621 28.6179Z" fill="#E3D9CC"/>
<path d="M21.5371 31.968C21.983 32.7473 22.4934 33.4872 23.0631 34.1798L23.1834 34.1341C22.9082 33.7606 22.6531 33.3726 22.419 32.9717C20.1955 29.0405 19.4606 24.5469 19.4606 24.5469L19.6236 21.1135C19.795 20.5069 20.0419 19.9247 20.3586 19.3806C20.567 19.0362 20.7781 18.3043 21.1015 18.3043C22.1972 18.3635 25.2946 21.9019 25.936 22.4239C25.594 22.0041 21.8685 17.2038 20.1474 17.0181C19.0464 16.897 18.3569 17.8253 18.5012 21.4821C18.6305 25.1774 19.674 28.7817 21.5371 31.968Z" fill="white"/>
<path d="M32.4569 25.9057L32.1896 25.3379C34.7766 24.1513 47.3667 23.4248 53.361 23.4248V24.0491C46.7386 24.0491 34.7632 24.8455 32.4569 25.9057Z" fill="#E3D9CC"/>
<path d="M53.3718 29.9526C50.6993 29.9526 34.782 28.4726 32.1122 25.8464L32.5451 25.3998C34.9504 27.7596 50.114 29.3283 53.3718 29.3283V29.9526Z" fill="#E3D9CC"/>
<path d="M34.349 20.9869C35.3218 20.7502 36.2999 20.5618 37.2887 20.4057C38.2775 20.2497 39.2557 20.1367 40.2418 20.0371C42.2136 19.8485 44.1956 19.7927 46.1747 19.8703C44.1984 19.8982 42.2262 20.0591 40.2712 20.3519C39.2949 20.4936 38.3256 20.6667 37.3636 20.8712C36.4015 21.0757 35.4474 21.3125 34.512 21.5951L34.349 20.9869Z" fill="#E3D9CC"/>
<path d="M34.4185 20.1393C36.0932 19.671 37.8121 19.3815 39.547 19.2756C41.2708 19.1438 42.9892 19.1276 44.7102 19.1007C42.9945 19.2299 41.2788 19.3509 39.5791 19.585C37.8875 19.7938 36.2223 20.1807 34.6109 20.7394L34.4185 20.1393Z" fill="#E3D9CC"/>
<path d="M34.7873 19.2084C36.2304 18.8263 37.7042 18.5733 39.1915 18.4523C40.667 18.3304 42.1479 18.2891 43.6279 18.3285C42.1548 18.3917 40.6863 18.5363 39.229 18.7617C37.7809 18.9849 36.3553 19.337 34.969 19.8138L34.7873 19.2084Z" fill="#E3D9CC"/>
<path d="M35.1481 18.28C36.3647 17.9547 37.6096 17.7475 38.8655 17.6612C40.1104 17.569 41.3592 17.5403 42.607 17.5751C41.3683 17.6446 40.1338 17.7767 38.9083 17.9706C37.6951 18.1608 36.5024 18.4653 35.3458 18.8801L35.1481 18.28Z" fill="#E3D9CC"/>
<path d="M35.5062 17.3517C36.493 17.0813 37.5051 16.9154 38.5261 16.8566C39.5363 16.7866 40.5439 16.7866 41.5487 16.8055C40.5465 16.8916 39.547 16.9938 38.5635 17.166C37.5878 17.3216 36.6305 17.5777 35.7067 17.9302L35.5062 17.3517Z" fill="#E3D9CC"/>
<path d="M35.8643 16.4234C36.6773 16.1949 37.5142 16.0639 38.3577 16.0333C39.1889 15.9902 40.012 16.0118 40.8351 16.0333C40.0147 16.1113 39.1969 16.1974 38.3925 16.34C37.5969 16.4706 36.8192 16.6945 36.0754 17.0073L35.8643 16.4234Z" fill="#E3D9CC"/>
<path d="M36.2198 15.5086C36.8922 15.3126 37.5883 15.2112 38.2883 15.2072C38.9724 15.1911 39.6459 15.2341 40.322 15.2718C39.6486 15.3364 38.9858 15.401 38.3177 15.5167C37.6709 15.6201 37.0413 15.8129 36.4469 16.0898L36.2198 15.5086Z" fill="#E3D9CC"/>
<path d="M36.5752 14.5694C37.1574 14.3858 37.767 14.3066 38.3764 14.3353C38.9697 14.3488 39.547 14.4215 40.1242 14.4807C39.5443 14.5237 38.9617 14.5587 38.3978 14.6475C37.8479 14.7185 37.3144 14.8851 36.8211 15.1399L36.5752 14.5694Z" fill="#E3D9CC"/>
<path d="M36.9173 13.6492C37.1522 13.5627 37.3995 13.5154 37.6496 13.5093C37.8768 13.4998 38.1045 13.5052 38.331 13.5255C38.7722 13.5612 39.2105 13.6259 39.6432 13.7192C39.2082 13.7291 38.7744 13.7677 38.3444 13.8349C38.135 13.8674 37.928 13.9132 37.7244 13.9721C37.5404 14.0196 37.3653 14.0968 37.2059 14.2008L36.9173 13.6492Z" fill="#E3D9CC"/>
<path d="M37.6228 12.7586C37.8053 12.7256 37.991 12.7147 38.176 12.7263C38.3474 12.7365 38.5179 12.7581 38.6864 12.7909C39.0115 12.8567 39.3313 12.9467 39.6432 13.0599C39.32 13.0516 38.9966 13.0678 38.6758 13.1084C38.5217 13.1281 38.3691 13.1578 38.2188 13.1972C38.0819 13.2325 37.9499 13.2849 37.8259 13.3532L37.6228 12.7586Z" fill="#E3D9CC"/>
<path d="M38.1627 12.0967C38.3476 12.0621 38.536 12.0494 38.7239 12.059C38.8977 12.0688 39.0708 12.0886 39.2423 12.1182C39.4134 12.1478 39.5764 12.1855 39.7394 12.2258C39.9024 12.2662 40.0628 12.3173 40.2231 12.3631C40.0574 12.3631 39.8918 12.3631 39.7261 12.3819C39.5604 12.4007 39.3973 12.4088 39.237 12.4303C39.0793 12.4516 38.923 12.4831 38.7693 12.5245C38.6289 12.5621 38.4935 12.6163 38.3658 12.686L38.1627 12.0967Z" fill="#E3D9CC"/>
<path d="M38.7025 11.432C38.8901 11.3964 39.0811 11.3828 39.2718 11.3916C39.4509 11.3983 39.6294 11.4163 39.8062 11.4454C39.9773 11.4724 40.1483 11.5073 40.314 11.5477C40.4797 11.5881 40.6454 11.6338 40.8111 11.6688C40.6401 11.6849 40.469 11.6876 40.3033 11.7011C40.1376 11.7145 39.9666 11.7334 39.8036 11.7576C39.6431 11.7806 39.4842 11.8139 39.3279 11.8571C39.1831 11.8957 39.0433 11.9507 38.911 12.0213L38.7025 11.432Z" fill="#E3D9CC"/>
<path d="M39.2423 10.7702C39.4316 10.7341 39.6243 10.7188 39.8169 10.7244C39.9958 10.7286 40.1743 10.7439 40.3514 10.7702C40.5296 10.7971 40.7033 10.8293 40.8725 10.867C41.0436 10.902 41.2093 10.9451 41.3803 10.9773C41.2066 10.9989 41.0329 11.0042 40.8618 11.0204C40.6908 11.0365 40.5198 11.0554 40.3541 11.0823C40.1902 11.1084 40.0278 11.1434 39.8677 11.1872C39.7192 11.2284 39.5758 11.2862 39.4401 11.3594L39.2423 10.7702Z" fill="#E3D9CC"/>
<path d="M40.91 10.0947C40.7273 10.0715 40.5435 10.058 40.3595 10.0543H40.1751C40.0599 10.1183 39.9391 10.1714 39.8143 10.2131L39.98 10.6893C40.2731 10.5439 40.5868 10.445 40.91 10.396C41.081 10.3691 41.2547 10.3449 41.4284 10.3288C41.6022 10.3126 41.7812 10.2965 41.9629 10.275C41.7892 10.2454 41.6182 10.205 41.4445 10.1727C41.2708 10.1404 41.0944 10.127 40.91 10.0947Z" fill="#E3D9CC"/>
<path d="M40.9554 9.38708C40.8103 9.5642 40.6473 9.72562 40.469 9.86873L40.5251 10.0329C40.827 9.88422 41.1496 9.78261 41.4819 9.7315C41.8293 9.66693 42.1901 9.63733 42.5509 9.59427C42.1954 9.53508 41.8426 9.45974 41.4819 9.41937C41.3028 9.40054 41.1318 9.38978 40.9554 9.38708Z" fill="#E3D9CC"/>
<path d="M41.4445 8.71972C41.3188 8.91346 41.1772 9.10719 41.0436 9.28747L41.073 9.3682C41.3822 9.21668 41.7117 9.11152 42.0511 9.05607C42.4065 8.98611 42.7727 8.94844 43.1361 8.9C42.7727 8.84619 42.4119 8.77623 42.0377 8.74394C41.8407 8.72357 41.6425 8.71548 41.4445 8.71972Z" fill="#E3D9CC"/>
<path d="M41.856 8.05511C41.7545 8.21387 41.6529 8.378 41.5487 8.54483L41.6048 8.70628C41.9218 8.54979 42.2592 8.43927 42.607 8.378C42.9651 8.30266 43.3393 8.25961 43.7107 8.20849C43.3393 8.15467 42.9705 8.09547 42.5883 8.06587C42.3448 8.0447 42.1001 8.04111 41.856 8.05511Z" fill="#E3D9CC"/>
<path d="M43.986 5.07106C43.9496 5.15764 43.9068 5.2413 43.8577 5.3213C43.8043 5.40561 43.7508 5.48633 43.6974 5.56347L43.7776 5.73299C44.1885 5.4377 44.6198 5.17243 45.0684 4.93921C44.7103 4.97688 44.3495 5.01455 43.986 5.07106Z" fill="#E3D9CC"/>
<path d="M43.6385 5.65228C43.529 5.81373 43.414 5.96979 43.2991 6.12317L43.3793 6.31421C43.6053 6.16258 43.8441 6.03113 44.0929 5.92136C44.3601 5.80297 44.6113 5.70072 44.8759 5.59308C44.4627 5.59171 44.0497 5.61147 43.6385 5.65228Z" fill="#E3D9CC"/>
<path d="M43.7374 6.21458C43.5589 6.21394 43.3805 6.22292 43.2029 6.24149L42.8796 6.65318L42.9731 6.89266C43.2264 6.7404 43.4952 6.61591 43.7749 6.52133C44.0662 6.41908 44.3681 6.33567 44.6701 6.25226C44.3842 6.23342 44.0581 6.21189 43.7374 6.21458Z" fill="#E3D9CC"/>
<path d="M43.4569 6.81192C43.2215 6.8022 42.9858 6.80849 42.7513 6.83076L42.4841 7.17787L42.591 7.47116C42.8763 7.31696 43.1798 7.19944 43.4943 7.12136C43.8203 7.03257 44.1597 6.97068 44.4964 6.90072C44.149 6.86574 43.8069 6.82538 43.4569 6.81192Z" fill="#E3D9CC"/>
<path d="M43.1762 7.40929C42.8855 7.38375 42.5931 7.38375 42.3023 7.40929C42.2328 7.50078 42.166 7.59227 42.0992 7.67837C42.093 7.68974 42.0859 7.70054 42.0778 7.71066L42.1927 8.03893C42.5088 7.88242 42.8453 7.77189 43.1922 7.71066C43.553 7.63801 43.9245 7.59227 44.296 7.54383C43.9272 7.50078 43.5557 7.4362 43.1762 7.40929Z" fill="#E3D9CC"/>
<path d="M32.7455 25.642C34.137 25.4429 35.5321 25.2796 36.9306 25.1523C38.3292 25.0249 39.7287 24.9298 41.1291 24.867C42.5295 24.7971 43.9299 24.7621 45.3329 24.754H46.3832C46.7333 24.754 47.0834 24.754 47.4335 24.754C48.1337 24.7675 48.8339 24.789 49.5314 24.8455C48.8339 24.8159 48.1337 24.8213 47.4335 24.8321L46.3832 24.8563L45.3356 24.8966C43.9388 24.9558 42.5437 25.0455 41.1505 25.1657C39.7572 25.2859 38.3676 25.4321 36.9814 25.6043C35.5971 25.7873 34.2181 25.9972 32.8444 26.2447L32.7455 25.642Z" fill="#E3D9CC"/>
<path d="M32.8631 25.6232C35.4955 25.3864 38.1306 25.311 40.7629 25.3245C42.0814 25.3245 43.3971 25.3496 44.7102 25.3998C46.0251 25.4456 47.3373 25.5048 48.6494 25.5909C47.3346 25.5586 46.0206 25.5469 44.7075 25.5559C43.3945 25.5649 42.0814 25.5909 40.7683 25.6339C38.1466 25.7281 35.5249 25.903 32.9326 26.242L32.8631 25.6232Z" fill="#E3D9CC"/>
<path d="M32.9861 25.6043C34.2261 25.5827 35.4608 25.6043 36.6955 25.6473C37.9302 25.6904 39.1622 25.7469 40.3915 25.8222C41.6209 25.8976 42.8529 25.9783 44.0795 26.0671C45.3062 26.1559 46.5356 26.2581 47.7676 26.3362C46.5356 26.32 45.3035 26.2689 44.0715 26.2339C42.8395 26.1989 41.6102 26.164 40.3808 26.1424C39.1515 26.1209 37.9195 26.1128 36.6901 26.1236C35.4608 26.1344 34.2315 26.164 33.0101 26.2393L32.9861 25.6043Z" fill="#E3D9CC"/>
<path d="M33.1223 25.5881C35.426 25.8169 37.7137 26.0994 40.004 26.3658C41.1478 26.5003 42.2943 26.6348 43.4408 26.7586C44.5873 26.8824 45.7311 27.0062 46.8829 27.0573C45.7311 27.0573 44.5766 26.9846 43.4274 26.9147C42.2783 26.8447 41.1237 26.7586 39.9746 26.6779C37.6736 26.5138 35.3726 26.3335 33.0769 26.2097L33.1223 25.5881Z" fill="#E3D9CC"/>
<path d="M33.2827 25.5828C34.3036 25.8787 35.3566 26.1209 36.4095 26.3416C37.4625 26.5622 38.5235 26.7721 39.5844 26.9577C40.6454 27.1434 41.7224 27.3183 42.7914 27.469C43.8588 27.6308 44.9336 27.7377 46.0118 27.7892C44.9309 27.7896 43.8507 27.7348 42.7754 27.6251C41.7064 27.5246 40.6312 27.4053 39.5497 27.2672C38.4807 27.13 37.4117 26.9766 36.3427 26.8017C35.2737 26.6268 34.2047 26.4384 33.1357 26.1828L33.2827 25.5828Z" fill="#E3D9CC"/>
<path d="M33.395 25.9729C34.0295 26.4911 34.7155 26.942 35.4421 27.3183C36.1758 27.7046 36.9338 28.0426 37.711 28.33C38.4914 28.6206 39.2842 28.8771 40.0895 29.0996C40.29 29.1534 40.4904 29.2099 40.6935 29.2583C40.8966 29.3068 41.0997 29.3606 41.3028 29.4063C41.7091 29.4978 42.1179 29.5839 42.5322 29.6431C42.1153 29.6108 41.701 29.5489 41.2868 29.4817C41.081 29.4494 40.8752 29.4117 40.6695 29.374C40.4637 29.3364 40.2579 29.2933 40.0521 29.2503C39.2317 29.078 38.4166 28.8709 37.6121 28.6233C36.8022 28.3823 36.0094 28.0866 35.239 27.738C34.4538 27.3937 33.7067 26.9671 33.0101 26.4653L33.395 25.9729Z" fill="#E3D9CC"/>
<path d="M33.5126 26.0591C34.2157 26.65 34.9696 27.1768 35.7655 27.6332C36.5672 28.1014 37.3877 28.5211 38.2295 28.9113C39.0713 29.3015 39.9319 29.6593 40.8031 29.9876C41.6743 30.3159 42.5562 30.6092 43.4569 30.8513C42.5429 30.6603 41.6422 30.4127 40.7523 30.1356C39.8624 29.8585 38.9778 29.5463 38.1092 29.2019C37.2407 28.8575 36.3801 28.4754 35.541 28.0449C34.6967 27.6191 33.8918 27.1184 33.1357 26.5488L33.5126 26.0591Z" fill="#E3D9CC"/>
<path d="M33.6328 26.1478C34.4083 26.8137 35.227 27.4267 36.0835 27.9829C36.9387 28.548 37.8232 29.0754 38.7292 29.5678C39.6352 30.0602 40.5545 30.523 41.4926 30.9455C42.4318 31.3728 43.3956 31.743 44.3788 32.0541C43.3805 31.792 42.3988 31.4695 41.4391 31.0881C40.4743 30.7141 39.5256 30.297 38.5929 29.8476C37.6602 29.3983 36.7409 28.9112 35.8429 28.3812C34.9384 27.8553 34.0696 27.2692 33.2426 26.6268L33.6328 26.1478Z" fill="#E3D9CC"/>
<path d="M33.7531 26.2367C34.5922 26.9874 35.4795 27.6924 36.3881 28.3651C37.2968 29.0378 38.2375 29.6755 39.1996 30.2782C40.1617 30.881 41.1478 31.4406 42.1634 31.9492C43.1757 32.4655 44.2244 32.9061 45.3009 33.2677C44.2048 32.956 43.133 32.5639 42.0939 32.0945C41.0516 31.6317 40.0361 31.1097 39.0392 30.55C38.0424 29.9903 37.0723 29.3903 36.1209 28.7553C35.1695 28.1202 34.2502 27.4449 33.3469 26.7157L33.7531 26.2367Z" fill="#E3D9CC"/>
<path d="M33.8733 26.3228C35.6842 28.0246 37.6123 29.5954 39.6432 31.0235C40.6637 31.7312 41.7227 32.3807 42.8155 32.969C43.9108 33.5596 45.0511 34.0617 46.2255 34.4704C45.0332 34.1107 43.8714 33.6554 42.7513 33.1089C41.6274 32.5639 40.5352 31.9548 39.4802 31.2845C37.375 29.9307 35.3666 28.4301 33.4698 26.7936L33.8733 26.3228Z" fill="#E3D9CC"/>
<path d="M44.018 34.4489C45.0315 34.9345 46.0772 35.349 47.1475 35.6893C45.7907 35.2041 44.4789 34.5999 43.227 33.8838C43.4969 34.056 43.7588 34.247 44.018 34.4489Z" fill="#E3D9CC"/>
<path d="M39.8837 32.0514L40.151 32.2316C40.6805 32.441 41.198 32.6799 41.701 32.9474C41.1398 32.5886 40.5919 32.2047 40.0575 31.7957C38.9751 30.9885 37.9408 30.1167 36.9387 29.2099C35.9365 28.3031 34.9744 27.3533 33.9989 26.4115L33.582 26.8743C34.5949 27.7676 35.5998 28.6906 36.6474 29.5651C37.695 30.4396 38.772 31.2764 39.8837 32.0514Z" fill="#E3D9CC"/>
<path d="M19.621 21.213C20.0727 22.3943 20.519 23.5728 21.016 24.7299C21.5036 25.8941 22.0715 27.0225 22.7157 28.1068C21.9836 27.077 21.322 25.9982 20.7354 24.8778C20.1421 23.7558 19.5996 22.6095 19.0544 21.4713L19.621 21.213Z" fill="white"/>
<path d="M19.6264 20.3331C20.3641 22.3954 21.2919 24.3835 22.3977 26.2717C21.1092 24.4792 19.9899 22.5695 19.0544 20.5672L19.6264 20.3331Z" fill="white"/>
<path d="M19.9978 19.7949C20.6252 21.5498 21.3966 23.2491 22.3042 24.8751C21.2124 23.3447 20.2505 21.7245 19.4286 20.0317L19.9978 19.7949Z" fill="white"/>
<path d="M20.3693 19.2568C20.9135 20.7765 21.571 22.2526 22.3362 23.6724C21.3857 22.3502 20.5369 20.9568 19.7974 19.5044L20.3693 19.2568Z" fill="white"/>
<path d="M20.7408 18.7159C21.2377 20.0897 21.8316 21.426 22.518 22.7144C21.6497 21.5248 20.8673 20.274 20.1769 18.9716L20.7408 18.7159Z" fill="white"/>
<path d="M21.0935 18.2316C21.5687 19.4971 22.1359 20.7256 22.7905 21.9072C21.9552 20.8275 21.2004 19.6871 20.5323 18.4953L21.0935 18.2316Z" fill="white"/>
<path d="M21.4329 17.8119C21.9577 19.0642 22.5787 20.2733 23.2903 21.4283C22.4037 20.3798 21.5995 19.2633 20.8851 18.089L21.4329 17.8119Z" fill="white"/>
<path d="M22.2855 18.5571C22.1786 18.4683 22.077 18.3715 21.9808 18.2881L21.5505 18.2396C21.8178 18.6809 22.1251 19.1061 22.4351 19.5204C22.8814 20.1205 23.3518 20.699 23.8141 21.2856C23.4373 20.6398 23.0525 20.0021 22.6944 19.3509C22.5447 19.0854 22.4084 18.8208 22.2855 18.5571Z" fill="white"/>
<path d="M19.5996 21.9879C19.9077 23.4566 20.3914 24.8824 21.0401 26.234C21.6963 27.5989 22.4417 28.9185 23.2716 30.184C22.3576 28.9713 21.5237 27.6994 20.7755 26.3766C20.014 25.0398 19.4163 23.6149 18.9956 22.1332L19.5996 21.9879Z" fill="white"/>
<path d="M19.5649 22.7333C19.7109 23.701 19.9453 24.6531 20.265 25.5774C20.5895 26.508 20.9789 27.4144 21.4302 28.2897C21.8765 29.1696 22.379 30.028 22.9108 30.8648C23.4426 31.7016 24.0065 32.5169 24.6132 33.3026C23.9664 32.5519 23.3571 31.7635 22.7825 30.9509C22.2079 30.1383 21.6574 29.3068 21.1577 28.4404C20.6504 27.576 20.2039 26.6769 19.8214 25.7496C19.4402 24.8116 19.1477 23.8395 18.9475 22.8463L19.5649 22.7333Z" fill="white"/>
<path d="M23.8943 33.8972L24.0413 33.8569C23.2218 32.7682 22.4882 31.6166 21.8472 30.4127C20.6855 28.2455 19.9018 25.8937 19.5301 23.4597L18.9182 23.562C19.4041 26.031 20.3081 28.3975 21.5906 30.558C22.2706 31.73 23.0409 32.8465 23.8943 33.8972Z" fill="white"/>
<path d="M21.9754 32.5357C22.3202 33.0981 22.689 33.6416 23.0738 34.1744L23.309 34.091C22.9322 33.534 22.5741 32.9608 22.24 32.3769C21.5191 31.1204 20.9204 29.7966 20.4521 28.4242C19.985 27.0558 19.6625 25.6416 19.49 24.2051L18.8754 24.2858C19.1053 25.7568 19.4868 27.1997 20.0138 28.591C20.5398 29.9665 21.1968 31.2876 21.9754 32.5357Z" fill="white"/>
<path d="M73.2256 22.2059C73.3833 22.2489 73.5383 22.2866 73.6986 22.3216C73.6986 22.3888 73.72 22.4534 73.728 22.5207C74.4763 22.9647 74.626 23.9172 74.4255 25.5263C74.1459 25.4511 73.8609 25.398 73.573 25.3675C73.7654 23.7531 73.5062 23.4006 73.2897 23.2741L72.929 23.0615L72.8702 22.6445C72.8381 22.4265 72.8033 22.2085 72.7659 21.9933C72.9078 22.0867 73.0627 22.1584 73.2256 22.2059Z" fill="white"/>
<path d="M61.424 3.03149C61.894 3.83381 62.4172 4.60332 62.99 5.33479C63.5486 6.07476 64.1232 6.80395 64.7058 7.52508C64.9971 7.88564 65.291 8.24621 65.5877 8.60139C65.8843 8.95657 66.189 9.29023 66.5097 9.62657C67.1457 10.2993 67.7978 10.972 68.3991 11.7012C69.0093 12.4273 69.5598 13.2021 70.0454 14.0179C70.2859 14.4305 70.5086 14.8503 70.7135 15.2772C70.9113 15.7104 71.0983 16.1463 71.2667 16.5876C71.6061 17.4702 71.8974 18.3689 72.1459 19.2784C72.3945 20.1878 72.6136 21.0973 72.8007 22.0176L72.1967 22.1548C71.9696 21.2561 71.7424 20.3574 71.4778 19.464C71.2132 18.5707 70.9433 17.6989 70.6066 16.8432C70.2789 15.9909 69.8904 15.1635 69.4441 14.3677C68.9876 13.5763 68.4711 12.8216 67.8994 12.1102C67.3301 11.3917 66.7155 10.7029 66.0981 10.006C65.9431 9.82838 65.7881 9.65617 65.6358 9.46782C65.4834 9.27946 65.3418 9.09649 65.2002 8.91083C64.9133 8.5395 64.6336 8.16459 64.361 7.78609C63.8265 7.02998 63.292 6.26311 62.7816 5.47471C62.5304 5.08186 62.2881 4.68273 62.0547 4.27732C61.8166 3.87691 61.6059 3.46068 61.424 3.03149Z" fill="#E3D9CC"/>
<path d="M61.0204 1.33359C60.7771 1.14881 60.4973 1.01853 60.1999 0.951503C59.9153 0.893571 59.6202 0.915919 59.3474 1.01608C59.0533 1.12504 58.7816 1.28738 58.5456 1.49504C58.4196 1.60165 58.2992 1.71481 58.1849 1.83408C58.1261 1.89596 58.0753 1.95247 58.0138 2.02243L57.8241 2.22693C57.3083 2.75755 56.7109 3.20095 56.0549 3.54002C55.7286 3.70811 55.3855 3.84071 55.0313 3.93557C54.6838 4.03273 54.3214 4.06465 53.9623 4.02974C54.3102 3.97737 54.6481 3.87213 54.9645 3.71762C55.2774 3.57008 55.577 3.39542 55.8598 3.19561C56.1419 2.99973 56.4098 2.78393 56.6615 2.54982C56.9151 2.31975 57.1517 2.07155 57.3698 1.80717C57.4259 1.74259 57.4793 1.67532 57.5328 1.60805L57.7092 1.39279C57.8319 1.24618 57.9641 1.10776 58.1047 0.978411C58.3966 0.703814 58.7388 0.489045 59.1122 0.34608C59.3092 0.274287 59.5152 0.230807 59.7242 0.216923C59.935 0.203522 60.1467 0.221658 60.3522 0.270738C60.7508 0.371146 61.1182 0.569976 61.4212 0.849254L61.0204 1.33359Z" fill="#E3D9CC"/>
<path d="M59.1283 0.690506C58.9382 0.746378 58.7578 0.83171 58.5938 0.943439C58.4147 1.06991 58.2357 1.21252 58.0593 1.37665C57.6794 1.71908 57.2757 2.0338 56.8513 2.31842C56.4176 2.59986 55.9508 2.82582 55.4616 2.99112C54.9817 3.1542 54.4865 3.2678 53.9838 3.33015C54.4497 3.15604 54.9033 2.95017 55.3414 2.71397C55.7696 2.48722 56.1735 2.21672 56.5467 1.90673C56.9208 1.59999 57.2469 1.2475 57.6157 0.892314C57.8065 0.70327 58.014 0.532146 58.2357 0.381068C58.4869 0.218223 58.7724 0.116856 59.0695 0.085083L59.1283 0.690506Z" fill="#E3D9CC"/>
<path d="M59.2138 3.80103C58.606 4.6417 58.2938 5.66236 58.3265 6.70168C58.3379 7.21022 58.4115 7.71541 58.5457 8.20582C58.6718 8.69762 58.851 9.17403 59.0802 9.62654C59.3085 10.0772 59.5942 10.496 59.93 10.8724C60.2587 11.2598 60.6436 11.6096 61.0177 11.9864C61.4051 12.3571 61.751 12.7694 62.0493 13.216C62.3382 13.667 62.5421 14.1678 62.6506 14.6933C62.4483 14.2087 62.1783 13.7557 61.8488 13.3479C61.5154 12.9567 61.1478 12.5965 60.7505 12.2716C60.3412 11.9344 59.9505 11.5751 59.5799 11.1953C59.2064 10.7919 58.889 10.3393 58.6365 9.84988C58.3918 9.36221 58.2044 8.84749 58.078 8.31614C57.9518 7.78794 57.9014 7.24426 57.9283 6.70168C57.9532 6.15558 58.0736 5.61817 58.2838 5.11412C58.4966 4.61429 58.8138 4.16645 59.2138 3.80103V3.80103Z" fill="#E3D9CC"/>
<path d="M59.4623 5.01453C59.4249 5.24324 59.3848 5.46658 59.3608 5.68991C59.3608 5.80292 59.334 5.91055 59.3367 6.02357V6.1877V6.35184C59.3557 6.78712 59.446 7.21624 59.604 7.62188C59.7599 8.03371 59.9569 8.42857 60.1919 8.80044C60.4191 9.18522 60.689 9.54578 60.9429 9.93056C60.5726 9.65466 60.2401 9.33077 59.9541 8.96727C59.6557 8.60348 59.4191 8.19253 59.2539 7.75104C59.0843 7.30276 59.0176 6.82167 59.0588 6.34377C59.078 6.10856 59.1246 5.87646 59.1977 5.65224C59.2651 5.43151 59.3537 5.21793 59.4623 5.01453Z" fill="#E3D9CC"/>
<path d="M59.187 4.6217C58.8984 5.30618 58.7943 6.05519 58.885 6.79316C58.9864 7.51401 59.2163 8.21046 59.5638 8.84891C59.9282 9.49316 60.3447 10.106 60.8092 10.6813C61.2742 11.2679 61.766 11.8384 62.2443 12.433C61.6242 11.989 61.0463 11.4882 60.5179 10.9369C59.974 10.3856 59.5066 9.76294 59.1282 9.08569C58.7474 8.38967 58.5324 7.61406 58.5002 6.82006C58.4663 6.02889 58.7093 5.25084 59.187 4.6217Z" fill="#E3D9CC"/>
<path d="M73.5997 22.8032C73.2498 22.681 72.8928 22.5803 72.5307 22.5018L71.9695 22.3754L71.4029 22.2597C71.0261 22.1816 70.6413 22.1144 70.2618 22.0417L69.1153 21.8453C67.5813 21.595 66.0393 21.3852 64.4946 21.2022C62.9499 21.0192 61.3998 20.8578 59.8471 20.7367C58.2944 20.6156 56.7417 20.5053 55.1837 20.4515C56.7408 20.4407 58.2998 20.4685 59.8605 20.5349C61.4186 20.5995 62.9739 20.7044 64.5293 20.8282C66.0847 20.952 67.6401 21.0973 69.1928 21.3018C69.9678 21.404 70.7428 21.5063 71.5179 21.6408L72.0978 21.7457C72.2902 21.7834 72.4853 21.8291 72.6777 21.8722C73.0799 21.9581 73.4734 22.0806 73.8536 22.2381L73.5997 22.8032Z" fill="#E3D9CC"/>
<path d="M74.634 25.8438C74.038 26.4707 73.4341 27.095 72.814 27.7058C72.5094 28.0125 72.1967 28.3166 71.8813 28.618C71.566 28.9193 71.2426 29.2072 70.9219 29.5032C70.6012 29.7992 70.2698 30.0817 69.9438 30.3696L68.9363 31.2038L67.9074 32.011C67.5599 32.2801 67.2045 32.525 66.8544 32.7833C65.4366 33.7967 63.9386 34.6913 62.3753 35.4579C60.8162 36.2221 59.1826 36.8218 57.5007 37.2473C59.1459 36.7247 60.7372 36.0435 62.2524 35.213C63.7591 34.3844 65.201 33.4417 66.5658 32.3931C66.9025 32.124 67.2446 31.8549 67.5787 31.5859L68.5675 30.7544L69.5322 29.8961L70.4836 29.0189C71.109 28.4269 71.7263 27.8242 72.341 27.2188C72.9557 26.6133 73.5677 25.9971 74.1904 25.3944L74.634 25.8438Z" fill="#E3D9CC"/>
<path d="M74.2866 25.9057C71.9776 24.8455 60.0075 24.0491 53.3718 24.0491V23.4248C59.3661 23.4248 71.9562 24.1513 74.5432 25.3379L74.2866 25.9057Z" fill="#E3D9CC"/>
<path d="M53.3718 29.9526V29.3283C56.6295 29.3283 71.8119 27.7596 74.1984 25.3998L74.6313 25.8464C71.9615 28.4726 56.0523 29.9526 53.3718 29.9526Z" fill="#E3D9CC"/>
<path d="M72.3945 20.9869C71.4217 20.7502 70.4462 20.5618 69.4547 20.4057C68.4632 20.2497 67.4878 20.1367 66.515 20.0371C64.5433 19.8485 62.5612 19.7927 60.5821 19.8703C62.5539 19.8987 64.5217 20.0596 66.4722 20.3519C67.4486 20.4936 68.4178 20.6667 69.3799 20.8712C70.342 21.0757 71.2961 21.3125 72.2314 21.5951L72.3945 20.9869Z" fill="#E3D9CC"/>
<path d="M72.325 20.1393C70.6503 19.671 68.9314 19.3815 67.1965 19.2756C65.4754 19.1438 63.7543 19.1276 62.0333 19.1007C63.749 19.2299 65.4674 19.3509 67.1644 19.585C68.856 19.7938 70.5212 20.1807 72.1326 20.7394L72.325 20.1393Z" fill="#E3D9CC"/>
<path d="M71.9562 19.2084C70.5131 18.8263 69.0392 18.5733 67.5519 18.4523C66.0765 18.3304 64.5955 18.2891 63.1156 18.3285C64.5887 18.3917 66.0572 18.5363 67.5145 18.7617C68.9626 18.9849 70.3882 19.337 71.7744 19.8138L71.9562 19.2084Z" fill="#E3D9CC"/>
<path d="M71.5954 18.28C70.3799 17.9517 69.136 17.7418 67.8806 17.653C66.6357 17.561 65.387 17.5323 64.1392 17.5669C65.3779 17.6365 66.6123 17.7685 67.8379 17.9625C69.0511 18.152 70.2439 18.4565 71.4003 18.872L71.5954 18.28Z" fill="#E3D9CC"/>
<path d="M71.2372 17.3517C70.2505 17.0813 69.2383 16.9154 68.2173 16.8566C67.2071 16.7866 66.1996 16.7866 65.1948 16.8055C66.1969 16.8916 67.1965 16.9938 68.1799 17.166C69.1569 17.3251 70.1151 17.5848 71.0395 17.941L71.2372 17.3517Z" fill="#E3D9CC"/>
<path d="M70.8791 16.4234C70.0662 16.1947 69.2292 16.0638 68.3857 16.0333C67.5572 15.9902 66.7314 16.0118 65.9083 16.0333C66.7288 16.1113 67.5492 16.1974 68.351 16.34C69.1466 16.4702 69.9243 16.6942 70.668 17.0073L70.8791 16.4234Z" fill="#E3D9CC"/>
<path d="M70.5237 15.5086C69.8522 15.3128 69.157 15.2114 68.4579 15.2072C67.7737 15.1911 67.0976 15.2341 66.4214 15.2718C67.0949 15.3364 67.7577 15.401 68.4258 15.5167C69.0727 15.6197 69.7023 15.8125 70.2965 16.0898L70.5237 15.5086Z" fill="#E3D9CC"/>
<path d="M70.1709 14.5694C69.5878 14.3858 68.9773 14.3066 68.367 14.3353C67.7764 14.3488 67.1991 14.4214 66.6192 14.4806C67.1991 14.5237 67.7817 14.5587 68.3456 14.6475C68.8955 14.7185 69.4291 14.8851 69.9224 15.1399L70.1709 14.5694Z" fill="#E3D9CC"/>
<path d="M69.8262 13.6492C69.5913 13.5627 69.344 13.5154 69.094 13.5093C68.8667 13.4998 68.639 13.5052 68.4125 13.5255C67.9713 13.5612 67.533 13.6259 67.1003 13.7192C67.5362 13.7291 67.9709 13.7677 68.4018 13.8349C68.6102 13.8676 68.8164 13.9135 69.0191 13.9721C69.2031 14.0196 69.3782 14.0968 69.5376 14.2008L69.8262 13.6492Z" fill="#E3D9CC"/>
<path d="M69.1207 12.7586C68.9382 12.7256 68.7525 12.7147 68.5675 12.7263C68.3961 12.7365 68.2256 12.7581 68.057 12.7909C67.732 12.8567 67.4122 12.9467 67.1003 13.0599C67.4235 13.0516 67.7469 13.0678 68.0677 13.1084C68.2218 13.1279 68.3745 13.1575 68.5247 13.1972C68.6616 13.2325 68.7936 13.2849 68.9176 13.3532L69.1207 12.7586Z" fill="#E3D9CC"/>
<path d="M68.5808 12.0967C68.3958 12.0621 68.2075 12.0494 68.0196 12.059C67.8458 12.0688 67.6727 12.0886 67.5011 12.1182C67.3328 12.1478 67.1671 12.1855 67.004 12.2258C66.841 12.2662 66.6807 12.3173 66.5203 12.3631C66.6887 12.3631 66.8544 12.3631 67.0174 12.3819C67.1804 12.4007 67.3461 12.4088 67.5065 12.4303C67.6642 12.4516 67.8204 12.4831 67.9742 12.5245C68.1145 12.5621 68.25 12.6163 68.3777 12.686L68.5808 12.0967Z" fill="#E3D9CC"/>
<path d="M68.041 11.432C67.8543 11.3964 67.6642 11.3828 67.4744 11.3916C67.2953 11.3984 67.1168 11.4164 66.9399 11.4455C66.7689 11.4724 66.6005 11.5073 66.4322 11.5477C66.2638 11.5881 66.1008 11.6338 65.9377 11.6688C66.1061 11.6849 66.2771 11.6876 66.4455 11.7011C66.6139 11.7145 66.7796 11.7334 66.9426 11.7576C67.104 11.7806 67.2637 11.8139 67.421 11.8571C67.5648 11.8957 67.7038 11.9507 67.8352 12.0213L68.041 11.432Z" fill="#E3D9CC"/>
<path d="M67.5011 10.7702C67.3118 10.7341 67.1192 10.7188 66.9266 10.7244C66.7476 10.7287 66.5691 10.744 66.3921 10.7702C66.2139 10.7971 66.0402 10.8293 65.8709 10.867C65.6999 10.902 65.5342 10.9451 65.3632 10.9773C65.5369 10.9989 65.7106 11.0042 65.8816 11.0204C66.0527 11.0365 66.2237 11.0554 66.3894 11.0823C66.5533 11.1081 66.7157 11.1432 66.8758 11.1872C67.0242 11.2284 67.1677 11.2862 67.3034 11.3594L67.5011 10.7702Z" fill="#E3D9CC"/>
<path d="M65.8281 10.0947C66.0108 10.0716 66.1946 10.0581 66.3787 10.0543H66.5657C66.6797 10.1188 66.7997 10.1719 66.9239 10.2131L66.7582 10.6893C66.463 10.5452 66.1475 10.4481 65.8228 10.4014C65.6518 10.3745 65.4807 10.3503 65.3043 10.3342C65.1279 10.318 64.9542 10.3019 64.7698 10.2803C64.9435 10.2507 65.1146 10.2104 65.291 10.1781C65.4674 10.1458 65.6491 10.127 65.8281 10.0947Z" fill="#E3D9CC"/>
<path d="M65.7908 9.38708C65.9349 9.56414 66.097 9.72556 66.2745 9.86873L66.2184 10.0329C65.9164 9.88422 65.5938 9.78261 65.2616 9.7315C64.9142 9.66693 64.5534 9.63733 64.1926 9.59427C64.5481 9.53508 64.9008 9.45974 65.2616 9.41937C65.438 9.40144 65.6144 9.39067 65.7908 9.38708Z" fill="#E3D9CC"/>
<path d="M65.307 8.71972C65.4326 8.91345 65.5743 9.10719 65.7079 9.28747L65.6785 9.36819C65.3679 9.21431 65.0365 9.10733 64.695 9.05068C64.3422 8.98072 63.9734 8.94305 63.61 8.89462C63.9734 8.8408 64.3342 8.77084 64.7084 8.73855C64.9073 8.71981 65.1073 8.71352 65.307 8.71972Z" fill="#E3D9CC"/>
<path d="M64.8874 8.05508C64.989 8.21383 65.0905 8.37797 65.1948 8.5448L65.1386 8.70625C64.8226 8.54973 64.4861 8.4392 64.1391 8.37797C63.7783 8.30263 63.4069 8.25958 63.0354 8.20845C63.4042 8.15464 63.7757 8.09544 64.1552 8.06584C64.3987 8.04472 64.6434 8.04112 64.8874 8.05508Z" fill="#E3D9CC"/>
<path d="M62.7601 5.07106C62.7954 5.15814 62.8384 5.24189 62.8884 5.3213C62.9392 5.40471 62.9926 5.48544 63.0461 5.56347L62.9686 5.73299C62.5568 5.4377 62.1245 5.17243 61.6751 4.93921C62.0225 4.97688 62.394 5.01455 62.7601 5.07106Z" fill="#E3D9CC"/>
<path d="M63.1049 5.65229C63.2145 5.81374 63.3294 5.96981 63.447 6.12318L63.3641 6.31422C63.139 6.1626 62.9012 6.03114 62.6533 5.92137C62.3994 5.80298 62.1321 5.70073 61.8676 5.5931C62.2807 5.59159 62.6937 5.61135 63.1049 5.65229Z" fill="#E3D9CC"/>
<path d="M63.0061 6.21458C63.1846 6.21409 63.363 6.22307 63.5406 6.24149C63.6448 6.37872 63.7544 6.51057 63.8613 6.65318L63.7677 6.89266C63.5147 6.7399 63.2458 6.61539 62.966 6.52133C62.6747 6.41908 62.3727 6.33567 62.0734 6.25226C62.3754 6.23342 62.6854 6.21189 63.0061 6.21458Z" fill="#E3D9CC"/>
<path d="M63.2866 6.81194C63.5229 6.80219 63.7595 6.80848 63.9948 6.83078L64.2621 7.17789L64.1552 7.47118C63.8698 7.31698 63.5663 7.19946 63.2519 7.12138C62.9258 7.03259 62.5891 6.9707 62.2524 6.90074C62.5945 6.86576 62.9365 6.8254 63.2866 6.81194Z" fill="#E3D9CC"/>
<path d="M63.57 7.40929C63.8607 7.38375 64.1531 7.38375 64.4439 7.40929L64.6443 7.67837L64.6657 7.71066L64.5508 8.03893C64.2347 7.88242 63.8982 7.77189 63.5512 7.71066C63.1905 7.63801 62.819 7.59227 62.4475 7.54383C62.8243 7.50078 63.1878 7.4362 63.57 7.40929Z" fill="#E3D9CC"/>
<path d="M73.8991 26.2555C72.5281 26.0079 71.1464 25.798 69.7621 25.6151C68.3777 25.4321 66.988 25.2949 65.5957 25.1765C64.2033 25.0581 62.8056 24.9693 61.4079 24.9074L60.3603 24.867L59.31 24.8428C58.6125 24.8428 57.9123 24.8267 57.2121 24.8563C57.9096 24.7998 58.6098 24.7782 59.31 24.7648C59.6601 24.7648 60.0102 24.7648 60.3603 24.7648H61.4106C62.8136 24.7648 64.214 24.8078 65.6144 24.8778C67.0148 24.9477 68.4151 25.0365 69.8128 25.163C71.2105 25.2895 72.6056 25.4536 73.9979 25.6527L73.8991 26.2555Z" fill="#E3D9CC"/>
<path d="M73.8135 26.242C71.2185 25.9057 68.5995 25.7281 65.9751 25.6339C64.6621 25.5891 63.349 25.563 62.0359 25.5559C60.7228 25.5487 59.4089 25.5604 58.094 25.5908C59.4062 25.5047 60.721 25.4455 62.0332 25.3998C63.3454 25.3541 64.663 25.3272 65.9805 25.3245C68.6129 25.3245 71.2479 25.3864 73.883 25.6231L73.8135 26.242Z" fill="#E3D9CC"/>
<path d="M73.7333 26.2286C72.512 26.1533 71.2827 26.1264 70.0533 26.1129C68.824 26.0995 67.5947 26.1129 66.3653 26.1318C65.136 26.1506 63.9013 26.1856 62.6719 26.2232C61.4426 26.2609 60.2079 26.3094 58.9786 26.3255C60.2079 26.2582 61.4346 26.1533 62.6639 26.0564C63.8933 25.9596 65.1226 25.8842 66.3519 25.8116C67.5813 25.7389 68.816 25.677 70.048 25.6367C71.28 25.5963 72.5174 25.5721 73.7574 25.5936L73.7333 26.2286Z" fill="#E3D9CC"/>
<path d="M73.6666 26.2097C71.3709 26.3335 69.0699 26.5138 66.7689 26.6779C65.6197 26.7586 64.4679 26.842 63.3161 26.9147C62.1642 26.9873 61.0124 27.06 59.8605 27.0573C61.0124 27.0062 62.1589 26.8797 63.3054 26.7586C64.4519 26.6375 65.5957 26.4895 66.7395 26.3658C69.0325 26.0967 71.3201 25.8276 73.6211 25.5881L73.6666 26.2097Z" fill="#E3D9CC"/>
<path d="M73.6211 26.1828C72.5521 26.4519 71.4831 26.6268 70.4142 26.8017C69.3452 26.9766 68.2762 27.13 67.2072 27.2672C66.1382 27.4044 65.0692 27.5363 63.9842 27.6251C62.9079 27.7348 61.8269 27.7896 60.7451 27.7892C61.8188 27.7372 62.8892 27.6304 63.9521 27.469C65.0211 27.3183 66.0901 27.1479 67.1591 26.9577C68.2281 26.7721 69.281 26.5649 70.334 26.3416C71.3869 26.1182 72.4399 25.8787 73.4608 25.5828L73.6211 26.1828Z" fill="#E3D9CC"/>
<path d="M73.7334 26.4626C73.0368 26.9644 72.2897 27.391 71.5045 27.7354C70.7343 28.0843 69.9414 28.3801 69.1313 28.6206C68.3296 28.8682 67.5118 29.0754 66.6914 29.2476C66.4856 29.2906 66.2825 29.3337 66.074 29.3713C65.8656 29.409 65.6625 29.4467 65.4567 29.479C65.0424 29.5462 64.6282 29.6081 64.2113 29.6404C64.6255 29.5812 65.0344 29.4951 65.4406 29.4036C65.6438 29.3579 65.8469 29.3095 66.05 29.2556C66.2531 29.2018 66.4535 29.1507 66.654 29.0969C67.4557 28.8736 68.2574 28.6179 69.0325 28.3273C69.8097 28.0399 70.5676 27.7019 71.3014 27.3156C72.0292 26.9399 72.7161 26.489 73.3512 25.9702L73.7334 26.4626Z" fill="#E3D9CC"/>
<path d="M73.6211 26.5407C72.8646 27.1097 72.0598 27.6103 71.2159 28.0368C70.3767 28.4673 69.5189 28.844 68.6503 29.1938C67.7818 29.5436 66.8972 29.8477 66.0046 30.1275C65.1119 30.4074 64.214 30.6657 63.3027 30.8433C64.2006 30.6011 65.0852 30.3051 65.9564 29.9796C66.8277 29.654 67.6855 29.2961 68.5274 28.9032C69.3692 28.5104 70.195 28.096 70.9914 27.6251C71.7881 27.17 72.5421 26.6432 73.2443 26.051L73.6211 26.5407Z" fill="#E3D9CC"/>
<path d="M73.5142 26.6268C72.6872 27.2692 71.8185 27.8553 70.9139 28.3812C70.0159 28.9193 69.0993 29.3956 68.1639 29.8476C67.2285 30.2997 66.2932 30.7141 65.3177 31.0881C64.358 31.4695 63.3763 31.792 62.378 32.0541C63.3612 31.743 64.3251 31.3728 65.2643 30.9455C66.205 30.5239 67.127 30.0647 68.0303 29.5678C68.9336 29.0754 69.8182 28.548 70.6734 27.9829C71.5298 27.4267 72.3485 26.8137 73.124 26.1478L73.5142 26.6268Z" fill="#E3D9CC"/>
<path d="M73.3939 26.7103C72.4987 27.4395 71.5713 28.1122 70.6199 28.7499C69.6685 29.3876 68.6957 29.9849 67.7016 30.5446C66.7074 31.1043 65.6892 31.6209 64.6469 32.0891C63.6078 32.5585 62.536 32.9506 61.4399 33.2623C62.5163 32.9025 63.5649 32.4636 64.5774 31.9492C65.593 31.4406 66.5791 30.8729 67.5412 30.2782C68.5033 29.6836 69.4413 29.0378 70.3527 28.3651C71.264 27.6924 72.1486 26.9874 72.9877 26.2367L73.3939 26.7103Z" fill="#E3D9CC"/>
<path d="M73.2791 26.7936C71.3827 28.4307 69.3743 29.9314 67.2687 31.2845C66.214 31.9554 65.1218 32.5645 63.9975 33.1089C62.8773 33.655 61.7155 34.1103 60.5233 34.4704C61.6967 34.0612 62.836 33.5591 63.9307 32.969C65.0232 32.3818 66.0814 31.7323 67.1003 31.0235C69.1312 29.5954 71.0593 28.0246 72.8702 26.3228L73.2791 26.7936Z" fill="#E3D9CC"/>
<path d="M73.1668 26.8744C72.1539 27.7677 71.1491 28.6907 70.1041 29.5652C69.0592 30.4397 67.9822 31.2792 66.8597 32.0541C64.6335 33.6263 62.1848 34.8518 59.5959 35.6894C62.1383 34.7617 64.5268 33.4527 66.6807 31.8066C67.763 30.9994 68.7973 30.1276 69.7995 29.2208C70.8017 28.314 71.7637 27.3641 72.7392 26.4224L73.1668 26.8744Z" fill="#E3D9CC"/>
<path d="M53.3717 2.18116C55.0308 2.22532 56.67 1.80922 58.11 0.978382C58.6406 0.641276 59.2872 0.543666 59.8926 0.709305C61.2101 1.08063 62.1642 2.63052 62.5143 3.27899C63.3347 4.79659 65.3124 7.89904 67.5359 9.89021C69.8583 11.9675 72.5762 16.6952 73.4153 22.5799L73.4367 22.7279L73.565 22.8032C74.1583 23.153 74.316 23.9629 74.0995 25.5962L73.9979 26.3873L74.6046 25.8761C75.4785 25.1415 76.6384 23.7854 77.9799 22.2139C80.7299 19.0065 84.4714 14.6206 86.9327 14.6206C87.7656 14.6156 88.5434 15.0386 88.9959 15.7426C89.7469 16.819 90.6582 19.5985 88.3224 25.9676C88.269 26.1156 88.2075 26.2932 88.138 26.5057C87.2965 28.9751 86.1452 31.3261 84.7119 33.5017C84.9017 33.6174 85.0887 33.7358 85.2731 33.8596C86.7368 31.6452 87.8973 29.2422 88.7233 26.7156C88.7928 26.5138 88.8516 26.3416 88.905 26.1963C91.337 19.5608 90.3241 16.5849 89.5037 15.3982C88.9321 14.531 87.9664 14.0105 86.9327 14.0125C84.1801 14.0125 80.4867 18.3339 77.5176 21.8157C76.4833 23.0266 75.5587 24.1109 74.805 24.859C74.8692 23.8203 74.7382 22.8759 74.0033 22.3566C73.1133 16.383 70.3233 11.5666 67.9368 9.44086C65.7774 7.51157 63.8479 4.48446 63.0488 2.99915C62.6613 2.28072 61.5923 0.577457 60.0503 0.128099C59.2898 -0.0881139 58.4741 0.0250205 57.8 0.440228C56.4582 1.20705 54.9356 1.59472 53.3931 1.56228H53.3504C51.8079 1.59445 50.2853 1.2068 48.9434 0.440228C48.2704 0.0128192 47.45 -0.110205 46.6825 0.101191C45.1405 0.537096 44.0715 2.25381 43.6867 2.97224C42.8849 4.45755 40.9554 7.48467 38.796 9.41395C36.4095 11.5504 33.6194 16.3669 32.7295 22.3296C32.0053 22.849 31.8743 23.7907 31.9278 24.8294C31.1795 24.076 30.2548 22.9701 29.2179 21.7377C26.2113 18.1536 22.4805 13.7084 19.629 13.7084H19.5301C18.7097 13.7461 17.9266 14.2466 17.3494 15.113C15.8982 17.3141 16.0799 21.3448 17.8491 26.1748C17.9026 26.3201 17.964 26.4923 18.0335 26.6941C18.9486 29.5231 20.2898 32.1939 22.0102 34.613C22.2133 34.5188 22.4217 34.43 22.6302 34.3439C20.9182 31.9392 19.5674 29.2935 18.6215 26.4923C18.5493 26.2878 18.4879 26.1102 18.4344 25.9541C16.0292 19.3644 17.2345 16.4153 17.8678 15.4601C18.3222 14.774 18.9368 14.3623 19.5622 14.3354H19.6557C22.216 14.3354 25.9975 18.8397 28.7689 22.1386C30.1051 23.7531 31.2783 25.1307 32.1442 25.8572L32.7509 26.3685L32.6493 25.5774C32.4382 23.9441 32.5932 23.1342 33.1838 22.7844L33.3121 22.709L33.3335 22.5611C34.178 16.6763 36.8986 11.9487 39.2129 9.87138C41.4364 7.8829 43.4167 4.77775 44.2345 3.26016C44.5846 2.61168 45.5414 1.0618 46.8562 0.69047C47.4617 0.526175 48.1078 0.623703 48.6388 0.959547C50.0753 1.796 51.7127 2.21861 53.3717 2.18116Z" fill="#E3D9CC"/>
<path d="M85.6526 18.3096C85.976 18.2908 86.1871 19.0361 86.3956 19.3859C86.7123 19.93 86.9592 20.5122 87.1305 21.1188L87.2935 24.5522C87.2935 24.5522 86.5586 29.0458 84.3351 32.977C84.295 33.0496 84.2523 33.1223 84.2041 33.2003L84.3725 33.2945C84.6775 32.8698 84.9594 32.4288 85.217 31.9733C87.0793 28.7886 88.1228 25.1862 88.253 21.4928C88.3973 17.8333 87.7185 16.9185 86.6067 17.0288C84.8856 17.2145 81.1602 22.0148 80.8181 22.4346C81.4595 21.9072 84.5569 18.3688 85.6526 18.3096Z" fill="white"/>
<path d="M87.7024 21.4606C87.1679 22.5988 86.6121 23.745 86.0188 24.8671C85.4322 25.9874 84.7706 27.0662 84.0385 28.096C84.6827 27.0117 85.2506 25.8833 85.7381 24.7191C86.2352 23.5621 86.6815 22.3835 87.1332 21.2023L87.7024 21.4606Z" fill="white"/>
<path d="M87.6997 20.5699C86.7652 22.5718 85.6458 24.4807 84.3564 26.2717C85.4635 24.3833 86.3914 22.3941 87.1278 20.3304L87.6997 20.5699Z" fill="white"/>
<path d="M87.3256 20.0371C86.5036 21.7293 85.5427 23.3494 84.4527 24.8805C85.3583 23.2539 86.1288 21.5547 86.7564 19.8003L87.3256 20.0371Z" fill="white"/>
<path d="M86.9515 19.5044C86.2137 20.9567 85.3667 22.3501 84.418 23.6724C85.1832 22.2526 85.8407 20.7765 86.3849 19.2568L86.9515 19.5044Z" fill="white"/>
<path d="M86.58 18.9716C85.8876 20.2734 85.1044 21.5242 84.2362 22.7144C84.9226 21.426 85.5165 20.0897 86.0134 18.7159L86.58 18.9716Z" fill="white"/>
<path d="M86.2219 18.4953C85.5537 19.6871 84.7989 20.8275 83.9636 21.9072C84.6193 20.7262 85.1865 19.4976 85.6606 18.2316L86.2219 18.4953Z" fill="white"/>
<path d="M85.8798 18.0837C85.1654 19.2579 84.3612 20.3744 83.4745 21.4229C84.1859 20.2696 84.8069 19.0623 85.3319 17.8119L85.8798 18.0837Z" fill="white"/>
<path d="M84.4714 18.5571C84.581 18.4683 84.6799 18.3715 84.7788 18.2881C84.9204 18.2692 85.0647 18.2531 85.2064 18.2396C84.9391 18.6809 84.6318 19.1061 84.3218 19.5204C83.8755 20.1205 83.4051 20.699 82.9454 21.2856C83.3196 20.6398 83.7071 20.0021 84.0625 19.3509C84.2033 19.0854 84.3396 18.8208 84.4714 18.5571Z" fill="white"/>
<path d="M87.7559 22.1332C87.3394 23.6143 86.7462 25.0391 85.9894 26.3766C85.2421 27.7 84.4082 28.972 83.4933 30.184C84.3195 28.9182 85.0614 27.5986 85.7141 26.234C86.3591 24.8819 86.8392 23.4562 87.1439 21.9879L87.7559 22.1332Z" fill="white"/>
<path d="M82.7984 32.4981C83.2046 31.9922 83.6001 31.4783 83.9716 30.9509C84.5489 30.1436 85.0967 29.3068 85.5965 28.4404C86.1037 27.576 86.5502 26.6768 86.9327 25.7496C87.3139 24.8116 87.6065 23.8395 87.8066 22.8463L87.1973 22.7413C87.0525 23.7093 86.8181 24.6615 86.4971 25.5855C86.1726 26.5161 85.7833 27.4224 85.3319 28.2978C84.8856 29.1777 84.3832 30.036 83.8514 30.8728C83.5066 31.411 83.1405 31.9492 82.761 32.4873L82.7984 32.4981Z" fill="white"/>
<path d="M83.6429 32.8937C84.1959 32.1455 84.708 31.3677 85.1769 30.5635C86.4595 28.403 87.3635 26.0365 87.8494 23.5675L87.2374 23.4652C86.8649 25.8994 86.0803 28.2512 84.9177 30.4182C84.4807 31.2405 84.0008 32.039 83.4799 32.8103L83.6429 32.8937Z" fill="white"/>
<path d="M84.3137 33.2676C84.4714 33.0281 84.6291 32.7913 84.7814 32.5465C85.5591 31.2926 86.2151 29.9662 86.7403 28.5857C87.2685 27.1947 87.6501 25.7517 87.8788 24.2804L87.2641 24.1997C87.0916 25.6377 86.7701 27.0536 86.3047 28.4242C85.8362 29.8004 85.2365 31.1278 84.5141 32.3877C84.3725 32.638 84.2228 32.8828 84.0732 33.1277L84.3137 33.2676Z" fill="white"/>
</svg>
