<svg width="615" height="117" viewBox="0 0 615 117" fill="none" xmlns="http://www.w3.org/2000/svg">
<path d="M5.35844 81.44V57.76H32.6384V81.44H25.2784V75.84C25.2784 74.5067 25.1451 73.68 24.8784 73.36C24.6651 73.04 23.9184 72.88 22.6384 72.88V100H27.1984V116H10.7984V100H15.3584V72.88H14.6384C13.6784 72.88 13.0918 73.1467 12.8784 73.68C12.7718 73.9467 12.7184 74.6667 12.7184 75.84V81.44H5.35844ZM66.7772 68.72V105.12C66.7772 108.32 65.8705 111.013 64.0572 113.2C62.2972 115.333 59.1239 116.4 54.5372 116.4C50.0039 116.4 46.8305 115.307 45.0172 113.12C43.2039 110.933 42.2972 108.267 42.2972 105.12V68.72C42.2972 64.6133 43.3372 61.6533 45.4172 59.84C47.3372 58.08 50.3772 57.2 54.5372 57.2C58.7505 57.2 61.8439 58.08 63.8172 59.84C65.7905 61.6 66.7772 64.56 66.7772 68.72ZM59.3372 94.96V77.76C59.3372 76.0533 59.1239 74.8533 58.6972 74.16C58.1105 73.3067 57.0172 72.88 55.4172 72.88H53.6572C52.0572 72.88 50.9905 73.28 50.4572 74.08C49.9772 74.8267 49.7372 76.0533 49.7372 77.76V94.96C49.7372 96.6133 49.9505 97.7867 50.3772 98.48C50.9639 99.3867 52.0572 99.84 53.6572 99.84H55.4172C57.0172 99.84 58.1105 99.3867 58.6972 98.48C59.1239 97.7867 59.3372 96.6133 59.3372 94.96ZM77.1722 57.76H91.9722V72.88H88.5322V95.68C88.5322 97.9733 88.8522 99.3067 89.4922 99.68C89.8655 99.8933 91.3855 100 94.0522 100C95.2789 100 96.0522 99.5467 96.3722 98.64C96.4789 98.32 96.5322 97.3333 96.5322 95.68V72.88H93.0922V57.76H107.892V72.88H103.892V103.2C103.892 112.107 100.106 116.56 92.5322 116.56C84.9589 116.56 81.1722 112.107 81.1722 103.2V72.88H77.1722V57.76ZM117.195 57.76H131.675C139.888 57.76 143.995 61.9467 143.995 70.32V76.88C143.995 79.7067 143.728 81.6267 143.195 82.64C142.501 83.8133 140.928 84.9333 138.475 86V88.08C140.928 88.2933 142.528 89.2 143.275 90.8C143.755 91.8133 143.995 93.7333 143.995 96.56C143.995 98.5867 143.701 99.7333 143.115 100H149.035V116H141.435C138.768 116 137.008 115.44 136.155 114.32C135.461 113.413 135.115 111.573 135.115 108.8V94.32C135.115 90.16 133.435 88.08 130.075 88.08H128.635V100H133.595V116H117.195V100H121.275V72.88H117.195V57.76ZM128.635 83.92H131.915C133.355 83.92 134.261 83.8667 134.635 83.76C135.061 83.6533 135.275 83.2533 135.275 82.56C135.275 82.1333 135.248 81.6 135.195 80.96C135.248 79.2533 135.088 76.9867 134.715 74.16C134.395 73.3067 133.381 72.88 131.675 72.88H128.635V83.92ZM156.469 72.88V57.76H168.629L179.269 90.8V72.88H174.229V57.76H191.029V72.88H186.469V116H179.269L168.629 82.32V100H173.349V116H156.469V100H161.429V72.88H156.469ZM210.017 91.2L207.937 100H211.937V116H196.977V100H200.737L206.897 72.88H203.857V57.76H223.297V72.88H220.257L226.337 100H230.097V116H215.137V100H219.137L217.137 91.2H210.017ZM210.897 87.04H216.337L213.617 74.56L210.897 87.04ZM236.782 57.76H250.462L258.462 96.16L266.382 57.76H280.062V72.88H276.062V100H280.062V116H264.942V100H268.782V79.92L260.542 116H256.382L248.062 79.84V100H251.902V116H236.782V100H240.782V72.88H236.782V57.76ZM288.422 57.76H315.942V81.2H308.502V76.88C308.502 75.28 308.369 74.2667 308.102 73.84C307.729 73.2 306.849 72.88 305.462 72.88H300.822V83.92H308.822V88.08H300.822V100H305.462C306.796 100 307.622 99.76 307.942 99.28C308.316 98.8 308.502 97.84 308.502 96.4V90.8H315.942V116H288.422V100H293.382V72.88H288.422V57.76ZM326.313 72.88V57.76H338.473L349.113 90.8V72.88H344.073V57.76H360.873V72.88H356.313V116H349.113L338.473 82.32V100H343.193V116H326.313V100H331.273V72.88H326.313ZM367.78 81.44V57.76H395.06V81.44H387.7V75.84C387.7 74.5067 387.567 73.68 387.3 73.36C387.087 73.04 386.34 72.88 385.06 72.88V100H389.62V116H373.22V100H377.78V72.88H377.06C376.1 72.88 375.514 73.1467 375.3 73.68C375.194 73.9467 375.14 74.6667 375.14 75.84V81.44H367.78ZM433.718 81.44V57.76H460.998V81.44H453.638V75.84C453.638 74.5067 453.504 73.68 453.238 73.36C453.024 73.04 452.278 72.88 450.998 72.88V100H455.558V116H439.158V100H443.718V72.88H442.998C442.038 72.88 441.451 73.1467 441.238 73.68C441.131 73.9467 441.078 74.6667 441.078 75.84V81.44H433.718ZM480.017 91.2L477.937 100H481.937V116H466.977V100H470.737L476.897 72.88H473.857V57.76H493.297V72.88H490.257L496.337 100H500.097V116H485.137V100H489.137L487.137 91.2H480.017ZM480.897 87.04H486.337L483.617 74.56L480.897 87.04ZM506.782 116V100H511.742V72.88H506.782V57.76H523.342C526.862 57.76 529.688 58.48 531.822 59.92C534.328 61.6267 535.582 64.1867 535.582 67.6V78.16C535.582 80.24 535.182 81.76 534.382 82.72C533.635 83.68 532.248 84.5333 530.222 85.28V86.56C532.622 87.3067 534.168 88.3467 534.862 89.68C535.342 90.64 535.582 92.5067 535.582 95.28V104.56C535.582 107.493 534.382 110.133 531.982 112.48C529.635 114.827 526.995 116 524.062 116H506.782ZM519.022 88.08V100H525.422C526.382 100 526.995 99.6267 527.262 98.88C527.315 98.6133 527.342 97.8133 527.342 96.48V91.84C527.342 90.3467 527.288 89.44 527.182 89.12C526.915 88.4267 526.195 88.08 525.022 88.08H519.022ZM519.022 72.88V83.92H524.702C525.875 83.92 526.648 83.5467 527.022 82.8C527.235 82.32 527.342 81.4133 527.342 80.08V75.6C527.342 74.48 527.208 73.76 526.942 73.44C526.728 73.0667 526.115 72.88 525.102 72.88H519.022ZM545.219 57.76H563.779V72.88H557.619V100H560.739C562.232 100 563.139 99.7067 563.459 99.12C563.672 98.7467 563.779 97.7067 563.779 96V90.8H571.059V116H545.219V100H550.179V72.88H545.219V57.76ZM581.391 57.76H608.911V81.2H601.471V76.88C601.471 75.28 601.338 74.2667 601.071 73.84C600.698 73.2 599.818 72.88 598.431 72.88H593.791V83.92H601.791V88.08H593.791V100H598.431C599.764 100 600.591 99.76 600.911 99.28C601.284 98.8 601.471 97.84 601.471 96.4V90.8H608.911V116H581.391V100H586.351V72.88H581.391V57.76Z" fill="#2D1509"/>
<path fill-rule="evenodd" clip-rule="evenodd" d="M602.449 79L595.072 82.7082L596.481 74.8541L590.512 69.2918L598.76 68.1459L602.449 61L606.138 68.1459L614.386 69.2918L608.417 74.8541L609.826 82.7082L602.449 79Z" fill="#E3D9CC"/>
<path fill-rule="evenodd" clip-rule="evenodd" d="M12.551 79L5.17372 82.7082L6.58266 74.8541L0.614291 69.2918L8.86237 68.1459L12.551 61L16.2397 68.1459L24.4877 69.2918L18.5194 74.8541L19.9283 82.7082L12.551 79Z" fill="#E3D9CC"/>
<path d="M352.391 32.1079C348.366 33.9618 343.388 34.5511 338.558 34.7798C333.272 35.0273 329.543 34.8309 327.187 34.8444C326.363 34.8516 325.642 34.3107 325.448 33.5394C325.17 32.4396 325.071 31.3049 325.155 30.1759C325.196 29.6465 325.282 29.121 325.409 28.6045C325.609 27.8255 326.342 27.2836 327.176 27.2995C331.559 27.3882 345.836 27.5336 350.574 25.8599C355.047 24.2831 359.818 20.6129 361.702 15.2932C362.013 14.4101 362.24 13.5013 362.378 12.5782C362.96 21.4766 360.198 28.3865 352.391 32.1079Z" fill="#E3D9CC"/>
<path d="M361.358 21.622C359.681 25.9084 356.302 29.0943 351.924 31.1823C347.768 33.0928 342.569 33.5583 338.507 33.752C337.132 33.8166 335.782 33.8543 334.379 33.8704C332.501 33.8893 330.863 33.8704 329.546 33.8381C328.643 33.8247 327.869 33.8085 327.184 33.8139C326.345 33.8139 325.507 32.9098 325.253 32.5519C325.303 32.8694 325.364 33.1977 325.451 33.5395C325.645 34.3108 326.365 34.8517 327.19 34.8445C328.867 34.8445 331.248 34.9333 334.39 34.8983C335.653 34.8848 337.043 34.8499 338.56 34.7799C343.391 34.5512 348.369 33.9727 352.394 32.108C358.093 29.393 360.592 25.7577 361.719 21.0274C361.579 20.9762 361.417 21.4713 361.358 21.622Z" fill="white"/>
<path d="M361.585 18.0405C359.703 23.3602 355.069 27.0788 350.608 28.6529C345.856 30.3266 331.601 30.184 327.209 30.0952C326.375 30.0763 325.64 30.6195 325.443 31.4002C325.354 31.755 325.286 32.1144 325.239 32.4765C325.124 31.713 325.096 30.9398 325.155 30.1705C325.195 29.6418 325.28 29.1172 325.409 28.6018C325.608 27.8223 326.342 27.2799 327.176 27.2968C331.556 27.3856 345.836 27.5282 350.574 25.8572C355.047 24.2804 359.815 20.6102 361.702 15.2905C362.014 14.4077 362.239 13.4988 362.376 12.5756C362.281 13.7003 361.889 17.1768 361.585 18.0405Z" fill="white"/>
<path d="M357.99 25.4294C356.227 27.3814 354.002 28.8959 351.502 29.845C350.234 30.2713 348.922 30.5654 347.589 30.7222C346.267 30.8863 344.945 31.0209 343.62 31.1016C340.97 31.2899 338.309 31.333 335.665 31.3438C334.34 31.3438 333.014 31.3312 331.687 31.3061C330.362 31.2765 329.037 31.2415 327.715 31.1769L331.687 31.1393L335.665 31.0612C338.311 30.9966 340.953 30.8702 343.592 30.6818C344.911 30.5903 346.222 30.4477 347.527 30.2755C348.818 30.1084 350.088 29.8172 351.318 29.4064C353.769 28.4713 356.028 27.1247 357.99 25.4294V25.4294Z" fill="white"/>
<path fill-rule="evenodd" clip-rule="evenodd" d="M329.798 35.3495C330.736 35.3648 331.819 35.3825 333.032 35.3825C334.647 35.3825 336.503 35.3529 338.577 35.2642C342.792 35.0677 348.193 34.578 352.601 32.5492C360.044 29 363.496 22.2758 362.859 12.5621C362.844 12.3177 362.639 12.124 362.385 12.1143C362.131 12.1045 361.91 12.2819 361.875 12.5244C361.743 13.4184 361.524 14.2986 361.221 15.1533C359.295 20.5833 354.367 24.0221 350.393 25.4267C345.733 27.0708 331.444 26.9228 327.176 26.8367C326.111 26.821 325.175 27.5133 324.917 28.5076C324.784 29.048 324.695 29.5978 324.652 30.1517C324.565 31.3257 324.667 32.5055 324.954 33.6497C325.199 34.643 326.129 35.3382 327.19 35.3207C327.838 35.3153 328.624 35.3287 329.515 35.3449C329.608 35.3464 329.702 35.3479 329.798 35.3495ZM329.532 34.3923C328.738 34.3681 328.039 34.3681 327.424 34.3681L327.433 34.3708H327.184C326.592 34.3752 326.075 33.9859 325.937 33.4317C325.671 32.3759 325.577 31.2866 325.658 30.2028C325.696 29.6996 325.776 29.2001 325.898 28.7094C326.047 28.1495 326.575 27.7611 327.176 27.7704C331.489 27.8538 345.931 28.0018 350.753 26.2985C354.778 24.8859 359.754 21.4551 361.934 16.0736C361.624 23.5835 358.409 28.7202 352.176 31.68C347.924 33.6335 342.653 34.1098 338.533 34.3035C334.762 34.4811 331.74 34.43 329.532 34.3923Z" fill="#E3D9CC"/>
<path d="M262.615 32.1079C266.64 33.9618 271.618 34.5511 276.448 34.7798C281.734 35.0273 285.463 34.8309 287.819 34.8444C288.644 34.8508 289.365 34.3105 289.561 33.5394C289.833 32.4387 289.927 31.3042 289.84 30.1759C289.8 29.6463 289.715 29.1208 289.586 28.6045C289.386 27.8255 288.653 27.2836 287.819 27.2995C283.439 27.3882 269.159 27.5336 264.421 25.8599C259.948 24.2831 255.18 20.6129 253.293 15.2932C252.981 14.4104 252.756 13.5015 252.619 12.5782C252.046 21.4766 254.808 28.3865 262.615 32.1079Z" fill="#E3D9CC"/>
<path d="M253.648 21.622C255.325 25.9084 258.707 29.0943 263.085 31.1823C267.241 33.0928 272.437 33.5583 276.502 33.752C277.877 33.8166 279.227 33.8543 280.633 33.8704C282.511 33.8893 284.149 33.8704 285.463 33.8381C286.366 33.8247 287.14 33.8085 287.825 33.8139C288.663 33.8139 289.502 32.9098 289.756 32.5519C289.709 32.8694 289.645 33.1977 289.561 33.5395C289.365 34.3106 288.644 34.8509 287.819 34.8445C286.142 34.8445 283.761 34.9333 280.619 34.8983C279.355 34.8848 277.966 34.8499 276.448 34.7799C271.618 34.5512 266.64 33.9727 262.615 32.108C256.916 29.393 254.417 25.7577 253.29 21.0274C253.427 20.9762 253.589 21.4713 253.648 21.622Z" fill="white"/>
<path d="M253.422 18.0405C255.306 23.3602 259.937 27.0788 264.387 28.6529C269.139 30.3266 283.394 30.184 287.789 30.0952C288.622 30.0776 289.356 30.6205 289.552 31.4002C289.642 31.7548 289.711 32.1142 289.756 32.4765C289.872 31.7131 289.9 30.9398 289.84 30.1705C289.8 29.6418 289.715 29.1172 289.586 28.6018C289.388 27.8217 288.653 27.2789 287.819 27.2968C283.439 27.3856 269.159 27.5282 264.421 25.8572C259.948 24.2804 255.18 20.6102 253.296 15.2905C252.982 14.4082 252.755 13.4991 252.619 12.5756C252.726 13.7003 253.117 17.1768 253.422 18.0405Z" fill="white"/>
<path d="M257.016 25.4294C258.977 27.1236 261.234 28.47 263.683 29.4064C264.917 29.8181 266.192 30.1093 267.487 30.2755C268.792 30.4477 270.103 30.5903 271.423 30.6818C274.058 30.8702 276.7 30.9966 279.35 31.0612L283.322 31.1393L287.297 31.1769C285.972 31.2415 284.647 31.2765 283.322 31.3061C281.997 31.3357 280.672 31.3491 279.344 31.3438C276.694 31.3438 274.033 31.2899 271.389 31.1016C270.064 31.0209 268.742 30.8863 267.42 30.7222C266.087 30.5654 264.775 30.2713 263.507 29.845C261.006 28.8963 258.78 27.3817 257.016 25.4294Z" fill="white"/>
<path fill-rule="evenodd" clip-rule="evenodd" d="M276.426 35.2534C278.506 35.353 280.359 35.3826 281.975 35.3826C283.311 35.3826 284.485 35.361 285.497 35.3314C286.391 35.3072 287.16 35.3072 287.822 35.3072H287.836C288.887 35.3134 289.804 34.6207 290.047 33.6363C290.335 32.4923 290.437 31.3123 290.349 30.1383C290.304 29.5828 290.21 29.032 290.069 28.4915C289.811 27.4976 288.875 26.8063 287.811 26.8232C283.543 26.9093 269.254 27.0573 264.594 25.4133C260.622 24.0194 255.691 20.5753 253.765 15.1399C253.468 14.2856 253.253 13.4064 253.125 12.5137C253.09 12.2712 252.87 12.0938 252.616 12.1035C252.361 12.1133 252.156 12.3069 252.141 12.5514C251.501 22.2651 254.956 28.9893 262.403 32.5384C266.811 34.5673 272.214 35.057 276.426 35.2534ZM276.474 34.3036C272.354 34.1018 267.082 33.6336 262.833 31.6801C256.597 28.7068 253.385 23.5808 253.072 16.0709C255.247 21.4524 260.22 24.8724 264.253 26.2958C269.075 27.9991 283.52 27.8511 287.833 27.7677C288.434 27.7567 288.962 28.1461 289.108 28.7068C289.23 29.1974 289.31 29.6969 289.348 30.2001C289.431 31.2839 289.336 32.3734 289.069 33.4291C288.931 33.9832 288.414 34.3726 287.822 34.3681C287.151 34.3655 286.374 34.3762 285.474 34.3924C283.266 34.43 280.244 34.4812 276.474 34.3036Z" fill="#E3D9CC"/>
<path d="M322.429 35.579C325.258 32.9242 329.037 31.4167 332.987 31.368C335.825 31.3827 338.598 32.1842 340.976 33.6767C343.382 30.2405 344.307 27.2188 344.746 26.0752C347.961 17.6908 345.426 14.1336 343.279 14.0287C340.372 13.8887 332.763 23.3199 329.895 25.6232C330.122 23.9549 329.977 22.9728 329.177 22.5207C328.26 16.41 325.247 11.6392 322.916 9.64269C320.585 7.64614 318.553 4.57059 317.734 3.11488C316.915 1.65918 315.056 -0.625287 312.68 0.693191C309.688 2.24658 306.084 2.24658 303.092 0.693191C300.716 -0.63605 298.86 1.6511 298.039 3.11488C297.217 4.57866 295.19 7.64614 292.856 9.64269C290.522 11.6392 287.512 16.41 286.595 22.5207C285.796 22.9728 285.65 23.9549 285.877 25.6232C283.014 23.3118 275.403 13.8941 272.493 14.0287C270.347 14.1336 267.811 17.6908 271.026 26.0752C271.501 27.313 272.538 30.7222 275.389 34.4866C277.25 33.7047 279.256 33.2929 281.287 33.2757H281.301C283.591 31.9951 286.186 31.3064 288.834 31.2765C292.879 31.2765 296.47 34.8317 299.391 37.4148C302.312 39.998 319.838 38.0707 322.429 35.579Z" fill="white"/>
<path d="M288.658 22.8732C287.394 23.3521 287.85 25.0043 287.85 25.0043L286.383 25.3783C286.383 25.3783 286.05 23.5674 286.791 23.3252C287.401 23.1309 288.025 22.9798 288.658 22.8732Z" fill="#E3D9CC"/>
<path d="M293.659 22.1763C292.468 22.3557 291.288 22.5853 290.12 22.8651C289.536 23.0023 288.954 23.1342 288.378 23.3064C288.099 23.3844 287.803 23.4705 287.517 23.5566C287.378 23.5997 287.238 23.6427 287.095 23.6912L286.891 23.7638C286.821 23.788 286.763 23.8149 286.704 23.8392L286.492 23.3844L286.726 23.3064L286.953 23.2445C287.101 23.2041 287.249 23.1719 287.397 23.1369C287.694 23.0669 287.987 23.0023 288.283 22.9431C288.876 22.8247 289.47 22.7171 290.067 22.6202C291.26 22.4265 292.457 22.2758 293.659 22.1763Z" fill="#E3D9CC"/>
<path d="M293.373 22.8866C292.219 23.0723 291.07 23.2902 289.935 23.5458C289.376 23.675 288.8 23.8149 288.239 23.9575C287.959 24.0302 287.68 24.1082 287.4 24.1889C287.263 24.2293 287.121 24.2697 286.989 24.3154L286.791 24.3827C286.721 24.4069 286.665 24.4311 286.612 24.4526L286.397 24.0006C286.478 23.971 286.559 23.9441 286.631 23.9252L286.849 23.866C286.995 23.8284 287.129 23.7988 287.283 23.7665C287.562 23.7046 287.861 23.6454 288.149 23.5916C288.728 23.4839 289.306 23.3898 289.885 23.301C291.042 23.1261 292.208 22.9888 293.373 22.8866Z" fill="#E3D9CC"/>
<path d="M293.085 23.597C291.967 23.7827 290.849 23.9899 289.748 24.2294C289.189 24.3478 288.644 24.4715 288.096 24.6088C287.817 24.6734 287.551 24.746 287.28 24.8213C287.148 24.859 287 24.8967 286.88 24.9397L286.69 25.0016C286.632 25.0212 286.575 25.0436 286.52 25.0689L286.304 24.6142C286.385 24.5872 286.464 24.5603 286.534 24.5415L286.749 24.4877C286.891 24.4527 287.028 24.4258 287.171 24.3962C287.45 24.3424 287.73 24.2886 288.009 24.2428C288.568 24.146 289.127 24.0563 289.687 23.9738C290.823 23.8231 291.956 23.6975 293.085 23.597Z" fill="#E3D9CC"/>
<path d="M327.117 22.8732C328.38 23.3521 327.925 25.0043 327.925 25.0043L329.395 25.3783C329.395 25.3783 329.725 23.5674 328.984 23.3252C328.374 23.1309 327.75 22.9798 327.117 22.8732Z" fill="#E3D9CC"/>
<path d="M322.116 22.1763C323.318 22.2758 324.517 22.4265 325.708 22.6202C326.303 22.7171 326.897 22.8247 327.492 22.9431C327.788 23.0023 328.084 23.0669 328.38 23.1369C328.529 23.1719 328.674 23.2041 328.825 23.2445L329.048 23.3064L329.286 23.3844L329.071 23.8392C329.015 23.8149 328.956 23.788 328.886 23.7638L328.68 23.6912C328.543 23.6427 328.4 23.5997 328.257 23.5566C327.978 23.4705 327.698 23.3844 327.397 23.3064C326.821 23.1476 326.239 23.0023 325.655 22.8651C324.487 22.5906 323.307 22.361 322.116 22.1763Z" fill="#E3D9CC"/>
<path d="M322.404 22.8866C323.571 22.9906 324.73 23.1324 325.882 23.3117C326.46 23.4005 327.039 23.4947 327.615 23.6023C327.894 23.6562 328.193 23.7154 328.481 23.7772C328.626 23.8095 328.761 23.8391 328.914 23.8768L329.135 23.936C329.205 23.9548 329.286 23.9817 329.367 24.0113L329.152 24.4634L328.976 24.3934C328.912 24.3692 328.844 24.3477 328.775 24.3262C328.64 24.2804 328.495 24.2401 328.364 24.1997C328.084 24.119 327.805 24.0409 327.525 23.9683C326.966 23.8203 326.407 23.6858 325.828 23.5566C324.701 23.2947 323.56 23.0714 322.404 22.8866Z" fill="#E3D9CC"/>
<path d="M322.689 23.597C323.819 23.6993 324.947 23.8276 326.074 23.9818C326.633 24.0608 327.192 24.1504 327.751 24.2509C328.031 24.2966 328.311 24.3505 328.59 24.4043C328.733 24.4339 328.87 24.4608 329.012 24.4958L329.227 24.5496C329.297 24.5684 329.378 24.5953 329.459 24.6222L329.244 25.077C329.191 25.0554 329.141 25.0312 329.074 25.0097L328.881 24.9478C328.749 24.9048 328.615 24.8671 328.481 24.8294C328.202 24.7541 327.939 24.6814 327.665 24.6168C327.106 24.4796 326.566 24.3478 326.013 24.2374C324.923 23.9899 323.807 23.7827 322.689 23.597Z" fill="#E3D9CC"/>
<path d="M287.123 22.2059C286.961 22.2489 286.796 22.2866 286.631 22.3216L286.598 22.5207C285.815 22.9647 285.661 23.9172 285.868 25.5263C286.161 25.4513 286.459 25.3982 286.76 25.3675C286.559 23.7531 286.833 23.4006 287.056 23.2741L287.434 23.0615L287.495 22.6445C287.529 22.4265 287.565 22.2085 287.604 21.9933C287.456 22.0867 287.294 22.1584 287.123 22.2059Z" fill="white"/>
<path d="M299.467 3.03149C299.277 3.46251 299.056 3.88055 298.807 4.2827C298.565 4.68991 298.312 5.08904 298.047 5.4801C297.521 6.26849 296.965 7.03536 296.395 7.79147C296.115 8.17087 295.816 8.54488 295.52 8.91621C295.369 9.10187 295.221 9.28754 295.062 9.4732C294.902 9.65886 294.74 9.82838 294.581 10.0114C293.932 10.7083 293.29 11.3971 292.694 12.1155C292.097 12.8276 291.557 13.5823 291.079 14.3731C290.612 15.1689 290.205 15.9963 289.863 16.8486C289.513 17.7043 289.223 18.5815 288.951 19.4694C288.68 20.3574 288.44 21.2534 288.199 22.1602L287.571 22.023C287.763 21.1027 287.998 20.1932 288.253 19.2837C288.507 18.3743 288.812 17.4809 289.172 16.593C289.348 16.1517 289.544 15.7158 289.754 15.2826C289.963 14.8494 290.198 14.435 290.45 14.0233C290.957 13.2068 291.534 12.4319 292.174 11.7065C292.8 10.98 293.482 10.3046 294.148 9.63195C294.486 9.29561 294.802 8.96195 295.112 8.60677C295.422 8.25159 295.73 7.89372 296.034 7.53046C296.644 6.80934 297.245 6.08014 297.829 5.34018C298.428 4.60697 298.976 3.83566 299.467 3.03149Z" fill="#E3D9CC"/>
<path d="M299.478 0.849238C299.795 0.56996 300.179 0.37113 300.596 0.270723C300.811 0.221915 301.033 0.203782 301.253 0.216907C301.473 0.230789 301.689 0.274265 301.896 0.346064C302.286 0.490301 302.644 0.704927 302.95 0.978395C303.095 1.10913 303.233 1.24746 303.363 1.39277L303.545 1.60804C303.601 1.6753 303.657 1.74257 303.716 1.80715C303.944 2.07154 304.191 2.31973 304.456 2.54981C304.72 2.78329 305 2.99906 305.295 3.19559C305.591 3.39541 305.904 3.57007 306.231 3.7176C306.562 3.87212 306.916 3.97736 307.279 4.02973C306.904 4.06464 306.525 4.03271 306.161 3.93555C305.791 3.83978 305.432 3.70722 305.091 3.54001C304.405 3.20025 303.78 2.75694 303.24 2.22691C303.173 2.15964 303.109 2.09237 303.045 2.02241C302.98 1.95245 302.925 1.89595 302.863 1.83406C302.744 1.7148 302.618 1.60163 302.486 1.49502C302.239 1.28681 301.955 1.12441 301.647 1.01607C301.362 0.915765 301.053 0.893414 300.755 0.951488C300.444 1.01852 300.152 1.14879 299.897 1.33358L299.478 0.849238Z" fill="#E3D9CC"/>
<path d="M301.957 0.0743408C302.268 0.106114 302.567 0.207481 302.83 0.370326C303.061 0.521404 303.278 0.692528 303.478 0.881572C303.861 1.23675 304.202 1.58924 304.596 1.89599C304.987 2.20538 305.409 2.47584 305.857 2.70322C306.315 2.93942 306.789 3.1453 307.277 3.31941C306.751 3.25674 306.233 3.14316 305.731 2.98037C305.22 2.81454 304.731 2.58861 304.277 2.30768C303.834 2.02306 303.411 1.70834 303.014 1.36591C302.821 1.20446 302.631 1.05916 302.455 0.932697C302.278 0.820146 302.084 0.734814 301.879 0.679764L301.957 0.0743408Z" fill="#E3D9CC"/>
<path d="M301.779 3.80103C302.191 4.16501 302.518 4.61003 302.737 5.10605C302.957 5.6101 303.083 6.1475 303.109 6.6936C303.137 7.23619 303.084 7.77987 302.953 8.30807C302.82 8.83942 302.624 9.35414 302.368 9.84181C302.104 10.3312 301.772 10.7838 301.382 11.1872C300.995 11.5677 300.586 11.927 300.157 12.2635C299.742 12.5892 299.358 12.9494 299.008 13.3398C298.664 13.7476 298.382 14.2006 298.17 14.6852C298.286 14.1605 298.499 13.6601 298.799 13.208C299.111 12.7607 299.474 12.3483 299.881 11.9783C300.269 11.6016 300.672 11.2518 301.015 10.8643C301.367 10.4879 301.665 10.0691 301.904 9.61847C302.148 9.16597 302.34 8.68967 302.477 8.19774C302.615 7.70695 302.691 7.20192 302.704 6.6936C302.737 5.65734 302.411 4.63984 301.779 3.80103Z" fill="#E3D9CC"/>
<path d="M301.519 5.01453C301.632 5.21839 301.725 5.43186 301.798 5.65224C302.024 6.33855 302.002 7.07806 301.737 7.75104C301.564 8.19253 301.316 8.60348 301.004 8.96727C300.706 9.3307 300.359 9.6546 299.973 9.93056C300.236 9.54578 300.518 9.18522 300.755 8.80044C301.001 8.42857 301.207 8.03371 301.37 7.62188C301.536 7.21624 301.63 6.78712 301.65 6.35184V6.1877V6.02357C301.65 5.91055 301.633 5.80292 301.625 5.68991C301.6 5.4585 301.563 5.23517 301.519 5.01453Z" fill="#E3D9CC"/>
<path d="M301.809 4.6217C302.307 5.25173 302.56 6.02937 302.525 6.82006C302.493 7.61426 302.268 8.39016 301.868 9.08569C301.472 9.76294 300.983 10.3856 300.414 10.9369C299.862 11.4882 299.257 11.989 298.609 12.433C299.109 11.8384 299.623 11.2679 300.11 10.6813C300.596 10.106 301.031 9.49316 301.412 8.84891C301.776 8.21046 302.016 7.51401 302.122 6.79316C302.217 6.05544 302.109 5.30676 301.809 4.6217Z" fill="#E3D9CC"/>
<path d="M286.469 22.2355C286.867 22.0783 287.279 21.9559 287.699 21.8695C287.903 21.8265 288.104 21.7808 288.306 21.7431L288.915 21.6381C289.723 21.5036 290.536 21.4014 291.347 21.2991C292.968 21.1054 294.595 20.9547 296.222 20.8255C297.848 20.6964 299.475 20.5968 301.105 20.5322C302.734 20.4677 304.367 20.4381 305.996 20.4488C304.367 20.5026 302.743 20.6076 301.119 20.734C299.495 20.8605 297.876 21.0031 296.258 21.1995C294.64 21.396 293.03 21.5924 291.428 21.8426L290.226 22.0391C289.829 22.1117 289.429 22.179 289.032 22.257L288.44 22.3727L287.853 22.4992C287.474 22.5772 287.101 22.6779 286.735 22.8006L286.469 22.2355Z" fill="#E3D9CC"/>
<path d="M322.429 35.579C325.258 32.9242 329.037 31.4167 332.987 31.368C335.831 31.3823 338.611 32.1868 340.992 33.6847C343.259 30.515 344.959 26.382 345.202 20.7421C345.378 16.6764 344.305 15.5274 342.966 15.6915C341.412 15.8853 339.405 17.9276 337.037 20.4515C332.632 25.1496 319.838 38.0707 322.429 35.579Z" fill="#E3D9CC"/>
<path d="M275.389 34.4866C277.251 33.7048 279.258 33.293 281.29 33.2757H281.304C283.594 31.9951 286.189 31.3064 288.837 31.2765C288.988 31.2765 289.139 31.2765 289.29 31.2765C284.538 27.1919 280.845 22.6902 278.738 20.4408C276.37 17.9168 274.363 15.8665 272.809 15.6808C271.473 15.5167 270.4 16.6656 270.573 20.7314C270.841 26.8717 272.823 31.22 275.389 34.4866Z" fill="#E3D9CC"/>
<path d="M275.084 34.6131C275.283 34.5243 275.481 34.4409 275.683 34.3628C273.128 31.1339 271.163 26.8287 270.9 20.726C270.771 17.8065 271.314 16.6898 271.789 16.2701C272.055 16.0386 272.417 15.9392 272.77 16.001C274.193 16.1786 276.124 18.1294 278.497 20.6614C278.981 21.178 279.546 21.8104 280.2 22.545C282.29 24.8832 285.245 28.1956 288.795 31.2819H288.837C289.172 31.2819 289.505 31.298 289.835 31.3196C286 28.0906 282.847 24.5496 280.692 22.1386C280.035 21.4041 279.467 20.7717 278.978 20.2551C276.429 17.5374 274.506 15.5974 272.851 15.3929C272.309 15.3082 271.756 15.469 271.353 15.8288C270.514 16.5795 270.14 18.1967 270.252 20.7664C270.489 26.2179 272.071 30.7518 275.084 34.6131Z" fill="#E3D9CC"/>
<path d="M324.325 33.4586C329.076 29.8288 332.99 25.4428 335.578 22.5422C336.232 21.8103 336.797 21.178 337.28 20.6586C339.656 18.1266 341.585 16.1758 343.011 15.9982C343.362 15.9364 343.724 16.0359 343.989 16.2673C344.464 16.6898 345.006 17.8037 344.88 20.7232C344.637 26.3173 342.971 30.3912 340.73 33.5178C340.909 33.6228 341.087 33.7304 341.264 33.8434C343.908 30.149 345.305 25.8518 345.526 20.7474C345.638 18.1777 345.277 16.5606 344.425 15.8099C344.022 15.4501 343.469 15.2893 342.927 15.374C341.28 15.5785 339.349 17.5266 336.8 20.2362C336.31 20.7582 335.743 21.3905 335.086 22.1197C330.083 27.7219 319.668 39.3756 307.889 39.3756C305.796 39.3611 303.719 39.0194 301.739 38.3639C301.89 38.633 302.019 38.8832 302.162 39.1496C304.014 39.7012 305.941 39.9877 307.88 39.9999C313.11 40.0134 318.642 37.8069 324.325 33.4586Z" fill="#E3D9CC"/>
<path d="M291.928 33.4586C287.176 29.8288 283.263 25.4428 280.675 22.5422C280.021 21.8103 279.456 21.178 278.973 20.6586C276.597 18.1266 274.668 16.1758 273.242 15.9982C272.891 15.9364 272.529 16.0359 272.264 16.2673C271.789 16.6898 271.247 17.8037 271.372 20.7232C271.616 26.3173 273.281 30.3912 275.523 33.5178C275.344 33.6228 275.165 33.7304 274.989 33.8434C272.345 30.149 270.948 25.8518 270.727 20.7474C270.615 18.1777 270.975 16.5606 271.828 15.8099C272.231 15.4501 272.784 15.2893 273.326 15.374C274.973 15.5785 276.904 17.5266 279.453 20.2362C279.942 20.7582 280.51 21.3905 281.167 22.1197C286.17 27.7219 296.585 39.3756 308.364 39.3756C310.457 39.3611 312.534 39.0194 314.513 38.3639C314.362 38.633 314.234 38.8832 314.091 39.1496C312.239 39.7012 310.312 39.9877 308.372 39.9999C303.143 40.0134 297.611 37.8069 291.928 33.4586Z" fill="#E3D9CC"/>
<path d="M300.068 36.1414C301.207 36.5884 302.377 36.958 303.57 37.2473C302.227 36.8423 300.918 36.3367 299.657 35.7351C299.797 35.867 299.934 36.0015 300.068 36.1414Z" fill="#E3D9CC"/>
<path d="M288.529 28.6179C288.859 28.9166 289.2 29.2072 289.533 29.5032C289.865 29.7992 290.215 30.0817 290.556 30.3696L291.61 31.2038L292.239 31.6773C292.73 31.7924 293.216 31.9325 293.692 32.0971C293.468 31.9303 293.245 31.7634 293.024 31.5939L291.99 30.7625L290.981 29.9041L289.986 29.0269C289.332 28.435 288.689 27.8322 288.029 27.2268C287.369 26.6214 286.749 26.0052 286.095 25.4025L285.636 25.8438C286.262 26.4707 286.891 27.095 287.54 27.7058C287.872 28.0053 288.201 28.3094 288.529 28.6179Z" fill="#E3D9CC"/>
<path d="M274.592 31.968C275.059 32.7473 275.593 33.4872 276.189 34.1798L276.314 34.1341C276.026 33.7606 275.76 33.3726 275.515 32.9717C273.189 29.0405 272.421 24.5469 272.421 24.5469L272.591 21.1135C272.77 20.5069 273.029 19.9247 273.36 19.3806C273.578 19.0362 273.799 18.3043 274.137 18.3043C275.283 18.3635 278.522 21.9019 279.193 22.4239C278.836 22.0041 274.939 17.2038 273.139 17.0181C271.987 16.897 271.266 17.8253 271.417 21.4821C271.552 25.1774 272.644 28.7817 274.592 31.968V31.968Z" fill="white"/>
<path d="M286.014 25.9057L285.734 25.3379C288.44 24.1513 301.608 23.4248 307.878 23.4248V24.0491C300.951 24.0491 288.426 24.8455 286.014 25.9057Z" fill="#E3D9CC"/>
<path d="M307.889 29.9526C305.094 29.9526 288.445 28.4726 285.653 25.8464L286.106 25.3998C288.622 27.7596 304.482 29.3283 307.889 29.3283V29.9526Z" fill="#E3D9CC"/>
<path d="M287.993 20.9869C289.01 20.7502 290.033 20.5618 291.067 20.4057C292.102 20.2497 293.125 20.1367 294.156 20.0371C296.218 19.8485 298.291 19.7927 300.361 19.8703C298.294 19.8982 296.232 20.0591 294.187 20.3519C293.166 20.4936 292.152 20.6667 291.146 20.8712C290.139 21.0757 289.141 21.3125 288.163 21.5951L287.993 20.9869Z" fill="#E3D9CC"/>
<path d="M288.065 20.1393C289.817 19.671 291.615 19.3815 293.429 19.2756C295.232 19.1438 297.03 19.1276 298.83 19.1007C297.035 19.2299 295.241 19.3509 293.463 19.585C291.694 19.7938 289.952 20.1807 288.267 20.7394L288.065 20.1393Z" fill="#E3D9CC"/>
<path d="M288.451 19.2084C289.96 18.8263 291.502 18.5733 293.058 18.4523C294.601 18.3304 296.15 18.2891 297.698 18.3285C296.157 18.3917 294.621 18.5363 293.097 18.7617C291.582 18.9849 290.091 19.337 288.641 19.8138L288.451 19.2084Z" fill="#E3D9CC"/>
<path d="M288.828 18.28C290.101 17.9547 291.403 17.7475 292.717 17.6612C294.019 17.569 295.325 17.5403 296.63 17.5751C295.334 17.6446 294.043 17.7767 292.761 17.9706C291.492 18.1608 290.245 18.4653 289.035 18.8801L288.828 18.28Z" fill="#E3D9CC"/>
<path d="M289.203 17.3517C290.235 17.0813 291.294 16.9154 292.362 16.8566C293.418 16.7866 294.472 16.7866 295.523 16.8055C294.475 16.8916 293.429 16.9938 292.401 17.166C291.38 17.3216 290.379 17.5777 289.413 17.9302L289.203 17.3517Z" fill="#E3D9CC"/>
<path d="M289.578 16.4234C290.428 16.1949 291.303 16.0639 292.185 16.0333C293.055 15.9902 293.916 16.0118 294.777 16.0333C293.918 16.1113 293.063 16.1974 292.222 16.34C291.39 16.4706 290.576 16.6945 289.798 17.0073L289.578 16.4234Z" fill="#E3D9CC"/>
<path d="M289.949 15.5086C290.653 15.3126 291.381 15.2112 292.113 15.2072C292.828 15.1911 293.533 15.2341 294.24 15.2718C293.536 15.3364 292.842 15.401 292.144 15.5167C291.467 15.6201 290.809 15.8129 290.187 16.0898L289.949 15.5086Z" fill="#E3D9CC"/>
<path d="M290.321 14.5694C290.93 14.3858 291.568 14.3066 292.205 14.3353C292.826 14.3488 293.429 14.4215 294.033 14.4807C293.427 14.5237 292.817 14.5587 292.227 14.6475C291.652 14.7185 291.094 14.8851 290.578 15.1399L290.321 14.5694Z" fill="#E3D9CC"/>
<path d="M290.679 13.6492C290.924 13.5627 291.183 13.5154 291.445 13.5093C291.682 13.4998 291.921 13.5052 292.157 13.5255C292.619 13.5612 293.077 13.6259 293.53 13.7192C293.075 13.7291 292.621 13.7677 292.171 13.8349C291.953 13.8674 291.736 13.9132 291.523 13.9721C291.331 14.0196 291.147 14.0968 290.981 14.2008L290.679 13.6492Z" fill="#E3D9CC"/>
<path d="M291.417 12.7586C291.608 12.7256 291.802 12.7147 291.995 12.7263C292.175 12.7365 292.353 12.7581 292.529 12.7909C292.869 12.8567 293.204 12.9467 293.53 13.0599C293.192 13.0516 292.854 13.0678 292.518 13.1084C292.357 13.1281 292.197 13.1578 292.04 13.1972C291.897 13.2325 291.759 13.2849 291.629 13.3532L291.417 12.7586Z" fill="#E3D9CC"/>
<path d="M291.981 12.0967C292.175 12.0621 292.372 12.0494 292.568 12.059C292.75 12.0688 292.931 12.0886 293.111 12.1182C293.29 12.1478 293.46 12.1855 293.631 12.2258C293.801 12.2662 293.969 12.3173 294.136 12.3631C293.963 12.3631 293.79 12.3631 293.617 12.3819C293.443 12.4007 293.273 12.4088 293.105 12.4303C292.94 12.4516 292.777 12.4831 292.616 12.5245C292.469 12.5621 292.327 12.6163 292.194 12.686L291.981 12.0967Z" fill="#E3D9CC"/>
<path d="M292.546 11.432C292.742 11.3964 292.942 11.3828 293.141 11.3916C293.329 11.3983 293.515 11.4163 293.7 11.4454C293.879 11.4724 294.058 11.5073 294.232 11.5477C294.405 11.5881 294.578 11.6338 294.751 11.6688C294.573 11.6849 294.394 11.6876 294.22 11.7011C294.047 11.7145 293.868 11.7334 293.698 11.7576C293.53 11.7806 293.364 11.8139 293.2 11.8571C293.049 11.8957 292.902 11.9507 292.764 12.0213L292.546 11.432Z" fill="#E3D9CC"/>
<path d="M293.111 10.7702C293.309 10.7341 293.51 10.7188 293.712 10.7244C293.899 10.7286 294.085 10.7439 294.271 10.7702C294.457 10.7971 294.639 10.8293 294.816 10.867C294.995 10.902 295.168 10.9451 295.347 10.9773C295.165 10.9989 294.983 11.0042 294.805 11.0204C294.626 11.0365 294.447 11.0554 294.273 11.0823C294.102 11.1084 293.932 11.1434 293.765 11.1872C293.609 11.2284 293.459 11.2862 293.318 11.3594L293.111 10.7702Z" fill="#E3D9CC"/>
<path d="M294.855 10.0947C294.664 10.0715 294.472 10.058 294.279 10.0543H294.086C293.966 10.1183 293.839 10.1714 293.709 10.2131L293.882 10.6893C294.189 10.5439 294.517 10.445 294.855 10.396C295.034 10.3691 295.215 10.3449 295.397 10.3288C295.579 10.3126 295.766 10.2965 295.956 10.275C295.774 10.2454 295.596 10.205 295.414 10.1727C295.232 10.1404 295.048 10.127 294.855 10.0947Z" fill="#E3D9CC"/>
<path d="M294.902 9.38708C294.751 9.5642 294.58 9.72562 294.394 9.86873L294.452 10.0329C294.768 9.88422 295.106 9.78261 295.453 9.7315C295.816 9.66693 296.194 9.63733 296.571 9.59427C296.199 9.53508 295.83 9.45974 295.453 9.41937C295.266 9.40054 295.087 9.38978 294.902 9.38708Z" fill="#E3D9CC"/>
<path d="M295.414 8.71972C295.283 8.91346 295.134 9.10719 294.995 9.28747L295.025 9.3682C295.349 9.21668 295.693 9.11152 296.048 9.05607C296.42 8.98611 296.803 8.94844 297.183 8.9C296.803 8.84619 296.426 8.77623 296.034 8.74394C295.828 8.72357 295.621 8.71548 295.414 8.71972Z" fill="#E3D9CC"/>
<path d="M295.844 8.05511C295.738 8.21387 295.632 8.378 295.523 8.54483L295.582 8.70628C295.913 8.54979 296.266 8.43927 296.63 8.378C297.004 8.30266 297.396 8.25961 297.784 8.20849C297.396 8.15467 297.01 8.09547 296.61 8.06587C296.356 8.0447 296.1 8.04111 295.844 8.05511Z" fill="#E3D9CC"/>
<path d="M298.072 5.07106C298.034 5.15764 297.989 5.2413 297.938 5.3213C297.882 5.40561 297.826 5.48633 297.77 5.56347L297.854 5.73299C298.284 5.4377 298.735 5.17243 299.204 4.93921C298.83 4.97688 298.452 5.01455 298.072 5.07106Z" fill="#E3D9CC"/>
<path d="M297.709 5.65228C297.594 5.81373 297.474 5.96979 297.354 6.12317L297.438 6.31421C297.674 6.16258 297.924 6.03113 298.184 5.92136C298.463 5.80297 298.726 5.70072 299.003 5.59308C298.571 5.59171 298.139 5.61147 297.709 5.65228Z" fill="#E3D9CC"/>
<path d="M297.812 6.21458C297.625 6.21394 297.439 6.22292 297.253 6.24149L296.915 6.65318L297.013 6.89266C297.278 6.7404 297.559 6.61591 297.851 6.52133C298.156 6.41908 298.472 6.33567 298.788 6.25226C298.489 6.23342 298.148 6.21189 297.812 6.21458Z" fill="#E3D9CC"/>
<path d="M297.519 6.81192C297.273 6.8022 297.026 6.80849 296.781 6.83076L296.501 7.17787L296.613 7.47116C296.912 7.31696 297.229 7.19944 297.558 7.12136C297.899 7.03257 298.254 6.97068 298.606 6.90072C298.243 6.86574 297.885 6.82538 297.519 6.81192Z" fill="#E3D9CC"/>
<path d="M297.225 7.40929C296.921 7.38375 296.615 7.38375 296.311 7.40929C296.238 7.50078 296.169 7.59227 296.099 7.67837C296.092 7.68974 296.085 7.70054 296.076 7.71066L296.197 8.03893C296.527 7.88242 296.879 7.77189 297.242 7.71066C297.619 7.63801 298.008 7.59227 298.396 7.54383C298.011 7.50078 297.622 7.4362 297.225 7.40929Z" fill="#E3D9CC"/>
<path d="M286.315 25.642C287.771 25.4429 289.23 25.2796 290.693 25.1523C292.156 25.0249 293.619 24.9298 295.084 24.867C296.549 24.7971 298.013 24.7621 299.481 24.754H300.579C300.946 24.754 301.312 24.754 301.678 24.754C302.41 24.7675 303.143 24.789 303.872 24.8455C303.143 24.8159 302.41 24.8213 301.678 24.8321L300.579 24.8563L299.484 24.8966C298.023 24.9558 296.564 25.0455 295.106 25.1657C293.649 25.2859 292.196 25.4321 290.746 25.6043C289.298 25.7873 287.856 25.9972 286.419 26.2447L286.315 25.642Z" fill="#E3D9CC"/>
<path d="M286.439 25.6232C289.192 25.3864 291.948 25.311 294.701 25.3245C296.08 25.3245 297.456 25.3496 298.83 25.3998C300.205 25.4456 301.577 25.5048 302.95 25.5909C301.575 25.5586 300.2 25.5469 298.827 25.5559C297.453 25.5649 296.08 25.5909 294.707 25.6339C291.965 25.7281 289.223 25.903 286.511 26.242L286.439 25.6232Z" fill="#E3D9CC"/>
<path d="M286.567 25.6043C287.864 25.5827 289.155 25.6043 290.447 25.6473C291.738 25.6904 293.027 25.7469 294.313 25.8222C295.598 25.8976 296.887 25.9783 298.17 26.0671C299.453 26.1559 300.739 26.2581 302.027 26.3362C300.739 26.32 299.45 26.2689 298.162 26.2339C296.873 26.1989 295.587 26.164 294.301 26.1424C293.016 26.1209 291.727 26.1128 290.441 26.1236C289.155 26.1344 287.87 26.164 286.592 26.2393L286.567 25.6043Z" fill="#E3D9CC"/>
<path d="M286.71 25.5881C289.119 25.8169 291.512 26.0994 293.907 26.3658C295.104 26.5003 296.303 26.6348 297.502 26.7586C298.701 26.8824 299.897 27.0062 301.102 27.0573C299.897 27.0573 298.69 26.9846 297.488 26.9147C296.286 26.8447 295.078 26.7586 293.877 26.6779C291.47 26.5138 289.063 26.3335 286.662 26.2097L286.71 25.5881Z" fill="#E3D9CC"/>
<path d="M286.877 25.5828C287.945 25.8787 289.046 26.1209 290.148 26.3416C291.249 26.5622 292.359 26.7721 293.468 26.9577C294.578 27.1434 295.705 27.3183 296.823 27.469C297.939 27.6308 299.063 27.7377 300.191 27.7892C299.06 27.7896 297.931 27.7348 296.806 27.6251C295.688 27.5246 294.563 27.4053 293.432 27.2672C292.314 27.13 291.196 26.9766 290.078 26.8017C288.96 26.6268 287.842 26.4384 286.724 26.1828L286.877 25.5828Z" fill="#E3D9CC"/>
<path d="M286.995 25.9729C287.658 26.4911 288.376 26.942 289.136 27.3183C289.903 27.7046 290.696 28.0426 291.509 28.33C292.325 28.6206 293.154 28.8771 293.997 29.0996C294.206 29.1534 294.416 29.2099 294.628 29.2583C294.841 29.3068 295.053 29.3606 295.266 29.4063C295.691 29.4978 296.118 29.5839 296.552 29.6431C296.115 29.6108 295.682 29.5489 295.249 29.4817C295.034 29.4494 294.818 29.4117 294.603 29.374C294.388 29.3364 294.173 29.2933 293.958 29.2503C293.099 29.078 292.247 28.8709 291.406 28.6233C290.558 28.3823 289.729 28.0866 288.923 27.738C288.102 27.3937 287.321 26.9671 286.592 26.4653L286.995 25.9729Z" fill="#E3D9CC"/>
<path d="M287.118 26.0591C287.853 26.65 288.642 27.1768 289.474 27.6332C290.313 28.1014 291.171 28.5211 292.051 28.9113C292.932 29.3015 293.832 29.6593 294.743 29.9876C295.654 30.3159 296.577 30.6092 297.519 30.8513C296.563 30.6603 295.621 30.4127 294.69 30.1356C293.759 29.8585 292.834 29.5463 291.925 29.2019C291.017 28.8575 290.117 28.4754 289.239 28.0449C288.356 27.6191 287.514 27.1184 286.724 26.5488L287.118 26.0591Z" fill="#E3D9CC"/>
<path d="M287.244 26.1478C288.055 26.8137 288.911 27.4267 289.807 27.9829C290.701 28.548 291.626 29.0754 292.574 29.5678C293.522 30.0602 294.483 30.523 295.464 30.9455C296.447 31.3728 297.455 31.743 298.483 32.0541C297.439 31.792 296.412 31.4695 295.408 31.0881C294.399 30.7141 293.407 30.297 292.431 29.8476C291.456 29.3983 290.494 28.9112 289.555 28.3812C288.609 27.8553 287.7 27.2692 286.835 26.6268L287.244 26.1478Z" fill="#E3D9CC"/>
<path d="M287.369 26.2367C288.247 26.9874 289.175 27.6924 290.125 28.3651C291.076 29.0378 292.06 29.6755 293.066 30.2782C294.072 30.881 295.104 31.4406 296.166 31.9492C297.225 32.4655 298.321 32.9061 299.447 33.2677C298.301 32.956 297.18 32.5639 296.093 32.0945C295.003 31.6317 293.941 31.1097 292.898 30.55C291.856 29.9903 290.841 29.3903 289.846 28.7553C288.851 28.1202 287.889 27.4449 286.944 26.7157L287.369 26.2367Z" fill="#E3D9CC"/>
<path d="M287.495 26.3228C289.389 28.0246 291.406 29.5954 293.53 31.0235C294.597 31.7312 295.705 32.3807 296.848 32.969C297.993 33.5596 299.186 34.0617 300.414 34.4704C299.167 34.1107 297.952 33.6554 296.781 33.1089C295.605 32.5639 294.463 31.9548 293.359 31.2845C291.158 29.9307 289.057 28.4301 287.073 26.7936L287.495 26.3228Z" fill="#E3D9CC"/>
<path d="M298.106 34.4489C299.166 34.9345 300.259 35.349 301.379 35.6893C299.96 35.2041 298.588 34.5999 297.278 33.8838C297.561 34.056 297.835 34.247 298.106 34.4489Z" fill="#E3D9CC"/>
<path d="M293.782 32.0514L294.061 32.2316C294.615 32.441 295.156 32.6799 295.682 32.9474C295.095 32.5886 294.522 32.2047 293.963 31.7957C292.831 30.9885 291.749 30.1167 290.701 29.2099C289.653 28.3031 288.647 27.3533 287.626 26.4115L287.19 26.8743C288.25 27.7676 289.301 28.6906 290.397 29.5651C291.492 30.4396 292.619 31.2764 293.782 32.0514Z" fill="#E3D9CC"/>
<path d="M272.588 21.213C273.061 22.3943 273.527 23.5728 274.047 24.7299C274.557 25.8941 275.151 27.0225 275.825 28.1068C275.059 27.077 274.367 25.9982 273.754 24.8778C273.133 23.7558 272.566 22.6095 271.996 21.4713L272.588 21.213Z" fill="white"/>
<path d="M272.594 20.3331C273.366 22.3954 274.336 24.3835 275.493 26.2717C274.145 24.4792 272.974 22.5695 271.996 20.5672L272.594 20.3331Z" fill="white"/>
<path d="M272.982 19.7949C273.639 21.5498 274.446 23.2491 275.395 24.8751C274.253 23.3447 273.247 21.7245 272.387 20.0317L272.982 19.7949Z" fill="white"/>
<path d="M273.371 19.2568C273.94 20.7765 274.628 22.2526 275.428 23.6724C274.434 22.3502 273.546 20.9568 272.773 19.5044L273.371 19.2568Z" fill="white"/>
<path d="M273.76 18.7159C274.279 20.0897 274.9 21.426 275.618 22.7144C274.71 21.5248 273.892 20.274 273.17 18.9716L273.76 18.7159Z" fill="white"/>
<path d="M274.128 18.2316C274.626 19.4971 275.219 20.7256 275.903 21.9072C275.03 20.8275 274.24 19.6871 273.542 18.4953L274.128 18.2316Z" fill="white"/>
<path d="M274.483 17.8119C275.032 19.0642 275.682 20.2733 276.426 21.4283C275.499 20.3798 274.658 19.2633 273.91 18.089L274.483 17.8119Z" fill="white"/>
<path d="M275.375 18.5571C275.263 18.4683 275.157 18.3715 275.056 18.2881L274.606 18.2396C274.886 18.6809 275.207 19.1061 275.532 19.5204C275.998 20.1205 276.49 20.699 276.974 21.2856C276.58 20.6398 276.177 20.0021 275.803 19.3509C275.646 19.0854 275.504 18.8208 275.375 18.5571Z" fill="white"/>
<path d="M272.566 21.9879C272.888 23.4566 273.394 24.8824 274.073 26.234C274.759 27.5989 275.539 28.9185 276.407 30.184C275.451 28.9713 274.578 27.6994 273.796 26.3766C272.999 25.0398 272.374 23.6149 271.934 22.1332L272.566 21.9879Z" fill="white"/>
<path d="M272.53 22.7333C272.682 23.701 272.928 24.6531 273.262 25.5774C273.601 26.508 274.009 27.4144 274.481 28.2897C274.947 29.1696 275.473 30.028 276.029 30.8648C276.585 31.7016 277.175 32.5169 277.81 33.3026C277.133 32.5519 276.496 31.7635 275.895 30.9509C275.294 30.1383 274.718 29.3068 274.196 28.4404C273.665 27.576 273.198 26.6769 272.798 25.7496C272.399 24.8116 272.093 23.8395 271.884 22.8463L272.53 22.7333Z" fill="white"/>
<path d="M277.058 33.8972L277.212 33.8569C276.354 32.7682 275.587 31.6166 274.917 30.4127C273.702 28.2455 272.882 25.8937 272.493 23.4597L271.853 23.562C272.361 26.031 273.307 28.3975 274.648 30.558C275.36 31.73 276.165 32.8465 277.058 33.8972V33.8972Z" fill="white"/>
<path d="M275.051 32.5357C275.411 33.0981 275.797 33.6416 276.2 34.1744L276.446 34.091C276.052 33.534 275.677 32.9608 275.328 32.3769C274.574 31.1204 273.947 29.7966 273.458 28.4242C272.969 27.0558 272.632 25.6416 272.451 24.2051L271.808 24.2858C272.049 25.7568 272.448 27.1997 272.999 28.591C273.549 29.9665 274.236 31.2876 275.051 32.5357V32.5357Z" fill="white"/>
<path d="M328.654 22.2059C328.819 22.2489 328.981 22.2866 329.149 22.3216C329.149 22.3888 329.171 22.4534 329.18 22.5207C329.963 22.9647 330.119 23.9172 329.909 25.5263C329.617 25.4511 329.319 25.398 329.018 25.3675C329.219 23.7531 328.948 23.4006 328.721 23.2741L328.344 23.0615L328.283 22.6445C328.249 22.4265 328.213 22.2085 328.174 21.9933C328.322 22.0867 328.484 22.1584 328.654 22.2059Z" fill="white"/>
<path d="M316.311 3.03149C316.802 3.83381 317.35 4.60332 317.949 5.33479C318.533 6.07476 319.134 6.80395 319.743 7.52508C320.048 7.88564 320.355 8.24621 320.666 8.60139C320.976 8.95657 321.295 9.29023 321.63 9.62657C322.295 10.2993 322.977 10.972 323.606 11.7012C324.244 12.4273 324.82 13.2021 325.328 14.0179C325.58 14.4305 325.813 14.8503 326.027 15.2772C326.234 15.7104 326.429 16.1463 326.605 16.5876C326.96 17.4702 327.265 18.3689 327.525 19.2784C327.785 20.1878 328.014 21.0973 328.21 22.0176L327.578 22.1548C327.341 21.2561 327.103 20.3574 326.826 19.464C326.55 18.5707 326.267 17.6989 325.915 16.8432C325.572 15.9909 325.166 15.1635 324.699 14.3677C324.222 13.5763 323.682 12.8216 323.084 12.1102C322.488 11.3917 321.845 10.7029 321.2 10.006C321.037 9.82838 320.875 9.65617 320.716 9.46782C320.557 9.27946 320.409 9.09649 320.26 8.91083C319.96 8.5395 319.668 8.16459 319.383 7.78609C318.824 7.02998 318.265 6.26311 317.731 5.47471C317.468 5.08186 317.215 4.68273 316.97 4.27732C316.722 3.87691 316.501 3.46068 316.311 3.03149Z" fill="#E3D9CC"/>
<path d="M315.889 1.33359C315.634 1.14881 315.342 1.01853 315.031 0.951503C314.733 0.893571 314.424 0.915919 314.139 1.01608C313.831 1.12504 313.547 1.28738 313.3 1.49504C313.169 1.60165 313.043 1.71481 312.923 1.83408C312.862 1.89596 312.808 1.95247 312.744 2.02243L312.546 2.22693C312.006 2.75755 311.381 3.20095 310.695 3.54002C310.354 3.70811 309.995 3.84071 309.625 3.93557C309.261 4.03273 308.882 4.06465 308.507 4.02974C308.87 3.97737 309.224 3.87213 309.555 3.71762C309.882 3.57008 310.195 3.39542 310.491 3.19561C310.786 2.99973 311.066 2.78393 311.33 2.54982C311.595 2.31975 311.842 2.07155 312.07 1.80717C312.129 1.74259 312.185 1.67532 312.241 1.60805L312.425 1.39279C312.554 1.24618 312.692 1.10776 312.839 0.978411C313.144 0.703814 313.502 0.489045 313.893 0.34608C314.099 0.274287 314.314 0.230807 314.533 0.216923C314.754 0.203522 314.975 0.221658 315.19 0.270738C315.607 0.371146 315.991 0.569976 316.308 0.849254L315.889 1.33359Z" fill="#E3D9CC"/>
<path d="M313.91 0.690506C313.711 0.746378 313.522 0.83171 313.351 0.943439C313.163 1.06991 312.976 1.21252 312.792 1.37665C312.394 1.71908 311.972 2.0338 311.528 2.31842C311.075 2.59986 310.586 2.82582 310.075 2.99112C309.573 3.1542 309.055 3.2678 308.529 3.33015C309.016 3.15604 309.491 2.95017 309.949 2.71397C310.397 2.48722 310.819 2.21672 311.21 1.90673C311.601 1.59999 311.942 1.2475 312.328 0.892314C312.527 0.70327 312.744 0.532146 312.976 0.381068C313.239 0.218223 313.537 0.116856 313.848 0.085083L313.91 0.690506Z" fill="#E3D9CC"/>
<path d="M313.999 3.80103C313.363 4.6417 313.037 5.66236 313.071 6.70168C313.083 7.21022 313.16 7.71541 313.3 8.20582C313.432 8.69761 313.62 9.17403 313.859 9.62654C314.098 10.0772 314.397 10.496 314.748 10.8724C315.092 11.2598 315.495 11.6096 315.886 11.9864C316.291 12.3571 316.653 12.7694 316.965 13.216C317.267 13.667 317.48 14.1678 317.594 14.6933C317.382 14.2087 317.1 13.7557 316.755 13.3479C316.406 12.9567 316.022 12.5965 315.606 12.2716C315.178 11.9344 314.77 11.5751 314.382 11.1953C313.991 10.7919 313.659 10.3393 313.395 9.84988C313.139 9.36221 312.943 8.84749 312.811 8.31614C312.679 7.78794 312.626 7.24426 312.655 6.70168C312.681 6.15558 312.807 5.61817 313.026 5.11412C313.249 4.61429 313.581 4.16645 313.999 3.80103V3.80103Z" fill="#E3D9CC"/>
<path d="M314.259 5.01453C314.22 5.24324 314.178 5.46658 314.153 5.68991C314.153 5.80292 314.125 5.91055 314.128 6.02357V6.1877V6.35184C314.148 6.78712 314.242 7.21624 314.407 7.62188C314.57 8.03371 314.776 8.42857 315.022 8.80044C315.26 9.18522 315.542 9.54578 315.808 9.93056C315.42 9.65466 315.073 9.33077 314.773 8.96727C314.461 8.60348 314.214 8.19253 314.041 7.75104C313.864 7.30276 313.794 6.82167 313.837 6.34377C313.857 6.10856 313.906 5.87646 313.982 5.65224C314.053 5.43151 314.146 5.21793 314.259 5.01453V5.01453Z" fill="#E3D9CC"/>
<path d="M313.971 4.6217C313.669 5.30618 313.56 6.05519 313.655 6.79316C313.761 7.51401 314.002 8.21046 314.365 8.84891C314.746 9.49316 315.182 10.106 315.668 10.6813C316.154 11.2679 316.669 11.8384 317.169 12.433C316.52 11.989 315.916 11.4882 315.363 10.9369C314.794 10.3856 314.305 9.76294 313.91 9.08569C313.511 8.38967 313.287 7.61406 313.253 6.82006C313.217 6.02889 313.472 5.25084 313.971 4.6217V4.6217Z" fill="#E3D9CC"/>
<path d="M329.046 22.8032C328.68 22.681 328.306 22.5803 327.928 22.5018L327.341 22.3754L326.748 22.2597C326.354 22.1816 325.951 22.1144 325.554 22.0417L324.355 21.8453C322.751 21.595 321.138 21.3852 319.522 21.2022C317.907 21.0192 316.286 20.8578 314.662 20.7367C313.038 20.6156 311.414 20.5053 309.784 20.4515C311.413 20.4407 313.043 20.4685 314.676 20.5349C316.305 20.5995 317.932 20.7044 319.559 20.8282C321.186 20.952 322.812 21.0973 324.436 21.3018C325.247 21.404 326.058 21.5063 326.868 21.6408L327.475 21.7457C327.676 21.7834 327.88 21.8291 328.081 21.8722C328.502 21.9581 328.914 22.0806 329.311 22.2381L329.046 22.8032Z" fill="#E3D9CC"/>
<path d="M330.127 25.8438C329.504 26.4707 328.872 27.095 328.224 27.7058C327.905 28.0125 327.578 28.3166 327.248 28.618C326.919 28.9193 326.58 29.2072 326.245 29.5032C325.909 29.7992 325.563 30.0817 325.222 30.3696L324.168 31.2038L323.092 32.011C322.729 32.2801 322.357 32.525 321.991 32.7833C320.508 33.7967 318.941 34.6913 317.306 35.4579C315.675 36.2221 313.966 36.8218 312.207 37.2473C313.928 36.7247 315.592 36.0435 317.177 35.213C318.753 34.3844 320.261 33.4417 321.689 32.3931C322.041 32.124 322.399 31.8549 322.748 31.5859L323.782 30.7544L324.791 29.8961L325.786 29.0189C326.441 28.4269 327.086 27.8242 327.729 27.2188C328.372 26.6133 329.012 25.9971 329.663 25.3944L330.127 25.8438Z" fill="#E3D9CC"/>
<path d="M329.764 25.9057C327.349 24.8455 314.829 24.0491 307.889 24.0491V23.4248C314.158 23.4248 327.327 24.1513 330.032 25.3379L329.764 25.9057Z" fill="#E3D9CC"/>
<path d="M307.889 29.9526V29.3283C311.296 29.3283 327.176 27.7596 329.672 25.3998L330.125 25.8464C327.332 28.4726 310.692 29.9526 307.889 29.9526Z" fill="#E3D9CC"/>
<path d="M327.785 20.9869C326.768 20.7502 325.747 20.5618 324.71 20.4057C323.673 20.2497 322.653 20.1367 321.636 20.0371C319.573 19.8485 317.5 19.7927 315.43 19.8703C317.493 19.8987 319.551 20.0596 321.591 20.3519C322.612 20.4936 323.626 20.6667 324.632 20.8712C325.638 21.0757 326.636 21.3125 327.615 21.5951L327.785 20.9869Z" fill="#E3D9CC"/>
<path d="M327.712 20.1393C325.961 19.671 324.163 19.3815 322.348 19.2756C320.548 19.1438 318.748 19.1276 316.948 19.1007C318.743 19.2299 320.54 19.3509 322.315 19.585C324.084 19.7938 325.826 20.1807 327.511 20.7394L327.712 20.1393Z" fill="#E3D9CC"/>
<path d="M327.327 19.2084C325.817 18.8263 324.276 18.5733 322.72 18.4523C321.177 18.3304 319.628 18.2891 318.08 18.3285C319.621 18.3917 321.157 18.5363 322.681 18.7617C324.196 18.9849 325.687 19.337 327.137 19.8138L327.327 19.2084Z" fill="#E3D9CC"/>
<path d="M326.949 18.28C325.678 17.9517 324.377 17.7418 323.064 17.653C321.762 17.561 320.456 17.5323 319.151 17.5669C320.446 17.6365 321.737 17.7685 323.019 17.9625C324.288 18.152 325.536 18.4565 326.745 18.872L326.949 18.28Z" fill="#E3D9CC"/>
<path d="M326.575 17.3517C325.543 17.0813 324.484 16.9154 323.416 16.8566C322.36 16.7866 321.306 16.7866 320.255 16.8055C321.303 16.8916 322.348 16.9938 323.377 17.166C324.399 17.3251 325.401 17.5848 326.368 17.941L326.575 17.3517Z" fill="#E3D9CC"/>
<path d="M326.2 16.4234C325.35 16.1947 324.475 16.0638 323.592 16.0333C322.726 15.9902 321.862 16.0118 321.001 16.0333C321.859 16.1113 322.717 16.1974 323.556 16.34C324.388 16.4702 325.202 16.6942 325.979 17.0073L326.2 16.4234Z" fill="#E3D9CC"/>
<path d="M325.828 15.5086C325.126 15.3128 324.399 15.2114 323.668 15.2072C322.952 15.1911 322.245 15.2341 321.538 15.2718C322.242 15.3364 322.935 15.401 323.634 15.5167C324.311 15.6197 324.969 15.8125 325.591 16.0898L325.828 15.5086Z" fill="#E3D9CC"/>
<path d="M325.459 14.5694C324.85 14.3858 324.211 14.3066 323.573 14.3353C322.955 14.3488 322.351 14.4214 321.745 14.4806C322.351 14.5237 322.961 14.5587 323.55 14.6475C324.126 14.7185 324.684 14.8851 325.199 15.1399L325.459 14.5694Z" fill="#E3D9CC"/>
<path d="M325.099 13.6492C324.853 13.5627 324.595 13.5154 324.333 13.5093C324.095 13.4998 323.857 13.5052 323.62 13.5255C323.159 13.5612 322.7 13.6259 322.248 13.7192C322.704 13.7291 323.158 13.7677 323.609 13.8349C323.827 13.8676 324.043 13.9135 324.255 13.9721C324.447 14.0196 324.63 14.0968 324.797 14.2008L325.099 13.6492Z" fill="#E3D9CC"/>
<path d="M324.361 12.7586C324.17 12.7256 323.976 12.7147 323.782 12.7263C323.603 12.7365 323.425 12.7581 323.248 12.7909C322.908 12.8567 322.574 12.9467 322.248 13.0599C322.586 13.0516 322.924 13.0678 323.26 13.1084C323.421 13.1279 323.581 13.1575 323.738 13.1972C323.881 13.2325 324.019 13.2849 324.149 13.3532L324.361 12.7586Z" fill="#E3D9CC"/>
<path d="M323.796 12.0967C323.603 12.0621 323.406 12.0494 323.209 12.059C323.028 12.0688 322.847 12.0886 322.667 12.1182C322.491 12.1478 322.318 12.1855 322.147 12.2258C321.977 12.2662 321.809 12.3173 321.641 12.3631C321.817 12.3631 321.991 12.3631 322.161 12.3819C322.332 12.4007 322.505 12.4088 322.673 12.4303C322.838 12.4516 323.001 12.4831 323.162 12.5245C323.309 12.5621 323.45 12.6163 323.584 12.686L323.796 12.0967Z" fill="#E3D9CC"/>
<path d="M323.232 11.432C323.036 11.3964 322.838 11.3828 322.639 11.3916C322.452 11.3984 322.265 11.4164 322.08 11.4455C321.901 11.4724 321.725 11.5073 321.549 11.5477C321.373 11.5881 321.202 11.6338 321.032 11.6688C321.208 11.6849 321.387 11.6876 321.563 11.7011C321.739 11.7145 321.912 11.7334 322.083 11.7576C322.252 11.7806 322.419 11.8139 322.583 11.8571C322.734 11.8957 322.879 11.9507 323.016 12.0213L323.232 11.432Z" fill="#E3D9CC"/>
<path d="M322.667 10.7702C322.469 10.7341 322.268 10.7188 322.066 10.7244C321.879 10.7287 321.692 10.744 321.507 10.7702C321.321 10.7971 321.139 10.8293 320.962 10.867C320.783 10.902 320.61 10.9451 320.431 10.9773C320.613 10.9989 320.794 11.0042 320.973 11.0204C321.152 11.0365 321.331 11.0554 321.504 11.0823C321.676 11.1081 321.846 11.1432 322.013 11.1872C322.168 11.2284 322.318 11.2862 322.46 11.3594L322.667 10.7702Z" fill="#E3D9CC"/>
<path d="M320.917 10.0947C321.108 10.0716 321.301 10.0581 321.493 10.0543H321.689C321.808 10.1188 321.933 10.1719 322.063 10.2131L321.89 10.6893C321.581 10.5452 321.251 10.4481 320.912 10.4014C320.733 10.3745 320.554 10.3503 320.369 10.3342C320.185 10.318 320.003 10.3019 319.81 10.2803C319.992 10.2507 320.171 10.2104 320.355 10.1781C320.54 10.1458 320.73 10.127 320.917 10.0947Z" fill="#E3D9CC"/>
<path d="M320.878 9.38708C321.029 9.56414 321.198 9.72556 321.384 9.86873L321.325 10.0329C321.01 9.88422 320.672 9.78261 320.325 9.7315C319.961 9.66693 319.584 9.63733 319.207 9.59427C319.578 9.53508 319.947 9.45974 320.325 9.41937C320.509 9.40144 320.694 9.39067 320.878 9.38708Z" fill="#E3D9CC"/>
<path d="M320.372 8.71972C320.504 8.91345 320.652 9.10719 320.791 9.28747L320.761 9.36819C320.436 9.21431 320.089 9.10733 319.732 9.05068C319.363 8.98072 318.977 8.94305 318.597 8.89462C318.977 8.8408 319.355 8.77084 319.746 8.73855C319.954 8.71981 320.163 8.71352 320.372 8.71972Z" fill="#E3D9CC"/>
<path d="M319.933 8.05508C320.04 8.21383 320.146 8.37797 320.255 8.5448L320.196 8.70625C319.866 8.54973 319.514 8.4392 319.151 8.37797C318.773 8.30263 318.385 8.25958 317.996 8.20845C318.382 8.15464 318.771 8.09544 319.167 8.06584C319.422 8.04472 319.678 8.04112 319.933 8.05508Z" fill="#E3D9CC"/>
<path d="M317.708 5.07106C317.745 5.15814 317.79 5.24189 317.843 5.3213C317.896 5.40471 317.952 5.48544 318.007 5.56347L317.926 5.73299C317.496 5.4377 317.044 5.17243 316.574 4.93921C316.937 4.97688 317.325 5.01455 317.708 5.07106Z" fill="#E3D9CC"/>
<path d="M318.069 5.65229C318.184 5.81374 318.304 5.96981 318.427 6.12318L318.34 6.31422C318.105 6.1626 317.856 6.03114 317.597 5.92137C317.331 5.80298 317.052 5.70073 316.775 5.5931C317.207 5.59159 317.639 5.61135 318.069 5.65229Z" fill="#E3D9CC"/>
<path d="M317.966 6.21458C318.152 6.21409 318.339 6.22307 318.525 6.24149C318.634 6.37872 318.748 6.51057 318.86 6.65318L318.762 6.89266C318.497 6.7399 318.216 6.61539 317.924 6.52133C317.619 6.41908 317.303 6.33567 316.99 6.25226C317.306 6.23342 317.63 6.21189 317.966 6.21458Z" fill="#E3D9CC"/>
<path d="M318.259 6.81194C318.506 6.80219 318.754 6.80848 319 6.83078L319.279 7.17789L319.167 7.47118C318.869 7.31698 318.552 7.19946 318.223 7.12138C317.882 7.03259 317.53 6.9707 317.177 6.90074C317.535 6.86576 317.893 6.8254 318.259 6.81194Z" fill="#E3D9CC"/>
<path d="M318.555 7.40929C318.859 7.38375 319.165 7.38375 319.469 7.40929L319.679 7.67837L319.701 7.71066L319.581 8.03893C319.251 7.88242 318.899 7.77189 318.536 7.71066C318.158 7.63801 317.77 7.59227 317.381 7.54383C317.775 7.50078 318.156 7.4362 318.555 7.40929Z" fill="#E3D9CC"/>
<path d="M329.359 26.2555C327.925 26.0079 326.48 25.798 325.032 25.6151C323.584 25.4321 322.13 25.2949 320.674 25.1765C319.218 25.0581 317.756 24.9693 316.294 24.9074L315.198 24.867L314.1 24.8428C313.37 24.8428 312.638 24.8267 311.906 24.8563C312.635 24.7998 313.367 24.7782 314.1 24.7648C314.466 24.7648 314.832 24.7648 315.198 24.7648H316.297C317.764 24.7648 319.229 24.8078 320.694 24.8778C322.158 24.9477 323.623 25.0365 325.085 25.163C326.547 25.2895 328.006 25.4536 329.462 25.6527L329.359 26.2555Z" fill="#E3D9CC"/>
<path d="M329.269 26.242C326.555 25.9057 323.816 25.7281 321.071 25.6339C319.698 25.5891 318.324 25.563 316.951 25.5559C315.577 25.5487 314.203 25.5604 312.828 25.5908C314.2 25.5047 315.576 25.4455 316.948 25.3998C318.321 25.3541 319.699 25.3272 321.077 25.3245C323.83 25.3245 326.586 25.3864 329.342 25.6231L329.269 26.242Z" fill="#E3D9CC"/>
<path d="M329.185 26.2286C327.908 26.1533 326.622 26.1264 325.336 26.1129C324.051 26.0995 322.765 26.1129 321.479 26.1318C320.193 26.1506 318.902 26.1856 317.616 26.2232C316.33 26.2609 315.039 26.3094 313.753 26.3255C315.039 26.2582 316.322 26.1533 317.608 26.0564C318.894 25.9596 320.179 25.8842 321.465 25.8116C322.751 25.7389 324.042 25.677 325.331 25.6367C326.619 25.5963 327.914 25.5721 329.211 25.5936L329.185 26.2286Z" fill="#E3D9CC"/>
<path d="M329.116 26.2097C326.715 26.3335 324.308 26.5138 321.901 26.6779C320.699 26.7586 319.495 26.842 318.29 26.9147C317.085 26.9873 315.88 27.06 314.676 27.0573C315.88 27.0062 317.079 26.8797 318.279 26.7586C319.478 26.6375 320.674 26.4895 321.87 26.3658C324.269 26.0967 326.661 25.8276 329.068 25.5881L329.116 26.2097Z" fill="#E3D9CC"/>
<path d="M329.068 26.1828C327.95 26.4519 326.832 26.6268 325.714 26.8017C324.596 26.9766 323.478 27.13 322.36 27.2672C321.241 27.4044 320.123 27.5363 318.989 27.6251C317.863 27.7348 316.732 27.7896 315.601 27.7892C316.724 27.7372 317.843 27.6304 318.955 27.469C320.073 27.3183 321.191 27.1479 322.309 26.9577C323.427 26.7721 324.529 26.5649 325.63 26.3416C326.731 26.1182 327.833 25.8787 328.9 25.5828L329.068 26.1828Z" fill="#E3D9CC"/>
<path d="M329.185 26.4626C328.457 26.9644 327.676 27.391 326.854 27.7354C326.049 28.0843 325.219 28.3801 324.372 28.6206C323.534 28.8682 322.678 29.0754 321.82 29.2476C321.605 29.2906 321.392 29.3337 321.174 29.3713C320.956 29.409 320.744 29.4467 320.529 29.479C320.095 29.5462 319.662 29.6081 319.226 29.6404C319.659 29.5812 320.087 29.4951 320.512 29.4036C320.724 29.3579 320.937 29.3095 321.149 29.2556C321.362 29.2018 321.571 29.1507 321.781 29.0969C322.62 28.8736 323.458 28.6179 324.269 28.3273C325.082 28.0399 325.874 27.7019 326.642 27.3156C327.403 26.9399 328.121 26.489 328.786 25.9702L329.185 26.4626Z" fill="#E3D9CC"/>
<path d="M329.068 26.5407C328.277 27.1097 327.435 27.6103 326.552 28.0368C325.675 28.4673 324.777 28.844 323.869 29.1938C322.961 29.5436 322.035 29.8477 321.102 30.1275C320.168 30.4074 319.229 30.6657 318.276 30.8433C319.215 30.6011 320.14 30.3051 321.051 29.9796C321.963 29.654 322.86 29.2961 323.74 28.9032C324.621 28.5104 325.485 28.096 326.318 27.6251C327.151 27.17 327.94 26.6432 328.674 26.051L329.068 26.5407Z" fill="#E3D9CC"/>
<path d="M328.956 26.6268C328.091 27.2692 327.183 27.8553 326.237 28.3812C325.297 28.9193 324.339 29.3956 323.36 29.8476C322.382 30.2997 321.404 30.7141 320.383 31.0881C319.38 31.4695 318.353 31.792 317.309 32.0541C318.337 31.743 319.345 31.3728 320.327 30.9455C321.311 30.5239 322.276 30.0647 323.22 29.5678C324.165 29.0754 325.09 28.548 325.985 27.9829C326.881 27.4267 327.737 26.8137 328.548 26.1478L328.956 26.6268Z" fill="#E3D9CC"/>
<path d="M328.83 26.7103C327.894 27.4395 326.924 28.1122 325.929 28.7499C324.934 29.3876 323.916 29.9849 322.877 30.5446C321.837 31.1043 320.772 31.6209 319.682 32.0891C318.595 32.5585 317.474 32.9506 316.328 33.2623C317.453 32.9025 318.55 32.4636 319.609 31.9492C320.671 31.4406 321.703 30.8729 322.709 30.2782C323.715 29.6836 324.696 29.0378 325.649 28.3651C326.603 27.6924 327.528 26.9874 328.406 26.2367L328.83 26.7103Z" fill="#E3D9CC"/>
<path d="M328.71 26.7936C326.727 28.4307 324.626 29.9314 322.424 31.2845C321.321 31.9554 320.178 32.5645 319.003 33.1089C317.831 33.655 316.616 34.1103 315.369 34.4704C316.596 34.0612 317.788 33.5591 318.933 32.969C320.075 32.3818 321.182 31.7323 322.248 31.0235C324.372 29.5954 326.389 28.0246 328.283 26.3228L328.71 26.7936Z" fill="#E3D9CC"/>
<path d="M328.593 26.8744C327.533 27.7677 326.482 28.6907 325.39 29.5652C324.297 30.4397 323.17 31.2792 321.996 32.0541C319.668 33.6263 317.107 34.8518 314.399 35.6894C317.058 34.7617 319.556 33.4527 321.809 31.8066C322.941 30.9994 324.023 30.1276 325.071 29.2208C326.119 28.314 327.125 27.3641 328.146 26.4224L328.593 26.8744Z" fill="#E3D9CC"/>
<path d="M307.889 2.18116C309.624 2.22532 311.339 1.80922 312.845 0.978382C313.4 0.641276 314.076 0.543666 314.709 0.709305C316.087 1.08063 317.085 2.63052 317.451 3.27899C318.309 4.79659 320.378 7.89904 322.703 9.89021C325.132 11.9675 327.975 16.6952 328.853 22.5799L328.875 22.7279L329.009 22.8032C329.63 23.153 329.795 23.9629 329.568 25.5962L329.462 26.3873L330.097 25.8761C331.011 25.1415 332.224 23.7854 333.627 22.2139C336.503 19.0065 340.417 14.6206 342.991 14.6206C343.862 14.6156 344.676 15.0386 345.149 15.7426C345.934 16.8189 346.887 19.5985 344.444 25.9676C344.389 26.1156 344.324 26.2932 344.252 26.5057C343.371 28.9751 342.167 31.3261 340.668 33.5017C340.867 33.6174 341.062 33.7358 341.255 33.8596C342.786 31.6452 344 29.2422 344.864 26.7156C344.936 26.5138 344.998 26.3416 345.054 26.1963C347.597 19.5608 346.538 16.5849 345.68 15.3982C345.082 14.531 344.072 14.0105 342.991 14.0125C340.112 14.0125 336.249 18.3339 333.143 21.8157C332.062 23.0266 331.095 24.1109 330.306 24.859C330.373 23.8203 330.236 22.8759 329.468 22.3566C328.537 16.383 325.619 11.5666 323.123 9.44086C320.864 7.51157 318.846 4.48446 318.01 2.99915C317.605 2.28072 316.487 0.577458 314.874 0.128099C314.079 -0.0881139 313.226 0.0250205 312.52 0.440228C311.117 1.20705 309.525 1.59472 307.911 1.56228H307.866C306.253 1.59445 304.661 1.2068 303.257 0.440228C302.553 0.0128192 301.695 -0.110205 300.892 0.101191C299.28 0.537096 298.162 2.25381 297.759 2.97224C296.92 4.45755 294.902 7.48467 292.644 9.41395C290.148 11.5504 287.23 16.3669 286.299 22.3296C285.541 22.849 285.404 23.7907 285.46 24.8294C284.678 24.076 283.71 22.9701 282.626 21.7377C279.481 18.1536 275.579 13.7084 272.597 13.7084H272.493C271.635 13.7461 270.816 14.2466 270.212 15.113C268.695 17.3141 268.885 21.3448 270.735 26.1748C270.791 26.3201 270.855 26.4923 270.928 26.6941C271.885 29.5231 273.288 32.1939 275.087 34.613C275.3 34.5188 275.518 34.43 275.736 34.3439C273.945 31.9392 272.532 29.2935 271.543 26.4923C271.467 26.2878 271.403 26.1102 271.347 25.9541C268.832 19.3644 270.092 16.4153 270.755 15.4601C271.23 14.774 271.873 14.3623 272.527 14.3354H272.625C275.302 14.3354 279.258 18.8397 282.156 22.1386C283.554 23.7531 284.781 25.1307 285.687 25.8572L286.321 26.3685L286.215 25.5774C285.994 23.9441 286.156 23.1342 286.774 22.7844L286.908 22.709L286.93 22.5611C287.814 16.6763 290.659 11.9487 293.08 9.87138C295.405 7.8829 297.477 4.77775 298.332 3.26016C298.698 2.61168 299.699 1.0618 301.074 0.69047C301.707 0.526175 302.383 0.623703 302.939 0.959547C304.441 1.796 306.154 2.21861 307.889 2.18116Z" fill="#E3D9CC"/>
<path d="M341.652 18.3096C341.99 18.2908 342.211 19.0361 342.429 19.3859C342.76 19.93 343.019 20.5122 343.198 21.1188L343.368 24.5522C343.368 24.5522 342.6 29.0458 340.274 32.977C340.232 33.0496 340.187 33.1223 340.137 33.2003L340.313 33.2945C340.632 32.8698 340.927 32.4288 341.196 31.9733C343.144 28.7886 344.236 25.1862 344.372 21.4928C344.523 17.8333 343.813 16.9185 342.65 17.0288C340.85 17.2145 336.953 22.0148 336.596 22.4346C337.266 21.9072 340.506 18.3688 341.652 18.3096Z" fill="white"/>
<path d="M343.796 21.4606C343.237 22.5988 342.656 23.745 342.035 24.8671C341.422 25.9874 340.729 27.0662 339.964 28.096C340.638 27.0117 341.232 25.8833 341.741 24.7191C342.261 23.5621 342.728 22.3835 343.201 21.2023L343.796 21.4606Z" fill="white"/>
<path d="M343.793 20.5699C342.816 22.5718 341.645 24.4807 340.296 26.2717C341.454 24.3833 342.425 22.3941 343.195 20.3304L343.793 20.5699Z" fill="white"/>
<path d="M343.402 20.0371C342.542 21.7293 341.537 23.3494 340.397 24.8805C341.344 23.2539 342.15 21.5547 342.806 19.8003L343.402 20.0371Z" fill="white"/>
<path d="M343.011 19.5044C342.239 20.9567 341.353 22.3501 340.361 23.6724C341.161 22.2526 341.849 20.7765 342.418 19.2568L343.011 19.5044Z" fill="white"/>
<path d="M342.622 18.9716C341.898 20.2734 341.079 21.5242 340.171 22.7144C340.888 21.426 341.51 20.0897 342.029 18.7159L342.622 18.9716Z" fill="white"/>
<path d="M342.247 18.4953C341.549 19.6871 340.759 20.8275 339.885 21.9072C340.571 20.7262 341.165 19.4976 341.66 18.2316L342.247 18.4953Z" fill="white"/>
<path d="M341.89 18.0837C341.142 19.2579 340.301 20.3744 339.374 21.4229C340.118 20.2696 340.768 19.0623 341.317 17.8119L341.89 18.0837Z" fill="white"/>
<path d="M340.417 18.5571C340.531 18.4683 340.635 18.3715 340.738 18.2881C340.886 18.2692 341.037 18.2531 341.185 18.2396C340.906 18.6809 340.584 19.1061 340.26 19.5204C339.793 20.1205 339.301 20.699 338.82 21.2856C339.212 20.6398 339.617 20.0021 339.989 19.3509C340.136 19.0854 340.279 18.8208 340.417 18.5571Z" fill="white"/>
<path d="M343.852 22.1332C343.416 23.6143 342.796 25.0391 342.004 26.3766C341.223 27.7 340.35 28.972 339.393 30.184C340.258 28.9182 341.034 27.5986 341.716 26.234C342.391 24.8819 342.893 23.4562 343.212 21.9879L343.852 22.1332Z" fill="white"/>
<path d="M338.667 32.4981C339.092 31.9922 339.505 31.4783 339.894 30.9509C340.498 30.1436 341.071 29.3068 341.593 28.4404C342.124 27.576 342.591 26.6768 342.991 25.7496C343.39 24.8116 343.696 23.8395 343.905 22.8463L343.268 22.7413C343.116 23.7093 342.871 24.6615 342.535 25.5855C342.196 26.5161 341.789 27.4224 341.317 28.2978C340.85 29.1777 340.324 30.036 339.768 30.8728C339.407 31.411 339.025 31.9492 338.628 32.4873L338.667 32.4981Z" fill="white"/>
<path d="M339.55 32.8937C340.128 32.1455 340.664 31.3677 341.154 30.5635C342.496 28.403 343.441 26.0365 343.95 23.5675L343.31 23.4652C342.92 25.8994 342.099 28.2512 340.883 30.4182C340.426 31.2405 339.924 32.039 339.38 32.8103L339.55 32.8937Z" fill="white"/>
<path d="M340.252 33.2676C340.417 33.0281 340.581 32.7913 340.741 32.5465C341.554 31.2926 342.24 29.9662 342.79 28.5857C343.342 27.1947 343.741 25.7517 343.98 24.2804L343.338 24.1997C343.157 25.6377 342.821 27.0536 342.334 28.4242C341.844 29.8004 341.217 31.1278 340.461 32.3877C340.313 32.638 340.157 32.8828 340 33.1277L340.252 33.2676Z" fill="white"/>
</svg>
