<svg width="35" height="35" viewBox="0 0 35 35" fill="none" xmlns="http://www.w3.org/2000/svg">
<path fill-rule="evenodd" clip-rule="evenodd" d="M1.78618 9.91472C6.53522 10.1496 11.2671 10.6537 15.9589 11.4247C14.5224 10.5245 13.2343 9.40693 12.1405 8.11204C12.1963 7.70746 12.3108 7.31315 12.4802 6.94147C14.3884 4.34254 16.6335 2.00831 19.1566 0C21.8623 2.34114 30.3191 11.1438 34.9106 16.2358C35.0277 16.7323 35.0277 17.2493 34.9106 17.7458C29.9831 23.7844 24.7237 29.5447 19.1566 35C16.5559 32.911 14.2957 30.4311 12.4567 27.6488C12.4002 27.1314 12.4002 26.6094 12.4567 26.092C13.6075 25.0825 14.9023 24.2501 16.2986 23.6221C11.0395 24.0786 5.15953 24.4532 1.43479 24.5234C0.899374 24.2193 0.485583 23.7396 0.263492 23.1656C-0.0878306 19.4123 -0.0878306 15.6345 0.263492 11.8813C0.451768 11.0314 1.01026 10.3101 1.78618 9.91472Z" fill="url(#paint0_linear_0_19181)"/>
<path fill-rule="evenodd" clip-rule="evenodd" d="M1.7862 9.91472C5.06584 9.97324 10.8052 10.3361 16.3455 10.7809C14.9747 9.59501 13.6835 8.32024 12.4802 6.96488C14.3329 4.31307 16.585 1.96366 19.1566 0C24.7057 5.12752 29.9652 10.5595 34.9106 16.2709C34.9518 16.4401 34.9518 16.6167 34.9106 16.786C29.9612 22.4826 24.7019 27.9027 19.1566 33.0217C16.5794 31.0706 14.3195 28.7331 12.4567 26.092C13.65 24.7241 14.9335 23.4375 16.2986 22.2408C11.0395 22.6739 5.48751 23.0251 1.76278 23.0836C1.23669 22.8062 0.822845 22.3554 0.591475 21.8077C0.251897 18.269 0.251897 14.7059 0.591475 11.1672C0.732032 10.8161 1.28254 9.99666 1.76278 9.86789L1.7862 9.91472Z" fill="url(#paint1_radial_0_19181)"/>
<g style="mix-blend-mode:multiply" opacity="0.5">
<path fill-rule="evenodd" clip-rule="evenodd" d="M17.5988 1.27596C18.3367 1.04185 19.0629 0.819437 19.836 0.608735C19.7813 0.561571 19.7283 0.51546 19.6767 0.470625C19.485 0.304034 19.3135 0.15506 19.1566 0.0351562C18.6143 0.418981 18.0942 0.833247 17.5988 1.27596ZM17.0421 3.25397L17.0422 3.25395C18.4377 2.79867 19.8638 2.33341 21.265 1.94318C21.019 1.69736 20.773 1.47496 20.5505 1.27596C19.1745 1.74772 17.7813 2.27113 16.4077 2.78713L16.4077 2.78714C16.1794 2.87289 15.9517 2.95844 15.7247 3.04352L14.858 3.95656C15.5718 3.73361 16.3026 3.49522 17.0419 3.25402L17.0421 3.25397ZM12.7966 6.4798L12.7496 6.49669H12.7848L12.7966 6.4798ZM12.7966 6.4798L14.3777 5.91141C17.0366 4.93984 19.7774 3.94486 22.5768 3.17228L21.8506 2.46994C19.7883 3.1208 17.7736 3.94415 15.7725 4.76192L15.7725 4.76192L15.7725 4.76192L15.7725 4.76193L15.7725 4.76193L15.7725 4.76194L15.7724 4.76194L15.7724 4.76195L15.7724 4.76195C14.9664 5.09136 14.1625 5.41987 13.3587 5.73583C13.1529 5.99859 12.9583 6.25021 12.7966 6.4798ZM0.61494 11.6355L0.661792 11.6246V11.6706L0.61494 11.6355ZM0.661792 11.6246V11.2492C0.705384 11.1443 0.756265 11.0426 0.814061 10.9449L1.72768 10.7342C2.71157 10.5117 3.66032 10.2893 4.58565 10.0435C4.8534 10.0561 5.13013 10.0761 5.41421 10.0966H5.41422H5.41424H5.41425H5.41427H5.41428H5.41429H5.41431H5.41432H5.41434H5.41435H5.41437C5.92559 10.1336 6.46066 10.1723 7.01024 10.1723C5.28843 10.5703 3.59004 10.9566 1.86823 11.3428L0.661792 11.6246ZM17.1186 6.75488C15.9212 7.24989 14.7157 7.74826 13.4992 8.19402L12.8082 7.45656C14.038 7.02345 15.2796 6.56693 16.5681 6.07529C17.0878 5.88709 17.6064 5.69525 18.1253 5.50329L18.1253 5.50328L18.1253 5.50326L18.1254 5.50325L18.1254 5.50324L18.1254 5.50322L18.1255 5.50321L18.1255 5.5032L18.1256 5.50319L18.1256 5.50317L18.1256 5.50316C19.2203 5.09819 20.3165 4.69265 21.4289 4.31944C22.0029 4.13215 22.5534 3.95656 23.0922 3.80439L23.6544 4.35455C23.5305 4.39341 23.4055 4.43227 23.2796 4.47144L23.2795 4.47146L23.2794 4.47151C22.7983 4.62112 22.3025 4.77531 21.7921 4.95154C20.2439 5.46284 18.6882 6.10598 17.1186 6.75488ZM0.333828 14.4683L0.38068 14.4543V14.4683H0.333828ZM0.38068 14.4543V13.485L0.802993 13.3563C1.73628 13.0716 2.66578 12.7881 3.68375 12.5134C5.93264 11.8579 8.15811 11.1439 10.3602 10.3947L11.9414 10.5C9.32968 11.6093 6.659 12.5745 3.94143 13.3913L0.38068 14.4543ZM24.041 5.78265C20.8571 6.81237 17.7293 8.00799 14.6705 9.36459L14.3074 9.02512L17.4231 7.85455C18.288 7.52925 19.1382 7.16152 19.9882 6.79383C21.2793 6.23536 22.5701 5.67699 23.9121 5.2676L24.4158 5.12713L24.8374 5.56024L24.041 5.78265ZM28.5387 23.786C28.5479 23.4883 28.6114 23.1947 28.7262 22.9198C28.8338 22.664 28.998 22.4359 29.2064 22.2525C29.5051 21.9938 29.8406 21.7807 30.202 21.6204C30.4128 21.5268 30.6237 21.4566 30.8345 21.3863C30.0966 22.194 29.3235 23.0134 28.4919 23.8328L28.5387 23.786ZM23.1813 29.1868L23.2328 29.2174L23.1859 29.1823L23.1813 29.1868ZM21.7686 28.2927C22.2321 28.609 22.7065 28.9035 23.1813 29.1868C22.89 29.4662 22.5988 29.7457 22.3309 30.0251C20.1405 28.9014 17.7511 27.286 17.5285 25.776C17.4589 24.4537 17.9776 23.1682 18.9458 22.2643C22.9985 17.582 27.1917 13.9766 32.7086 13.883L33.7042 15.0536C28.0937 14.9716 24.1347 18.378 20.3045 22.8144C19.5961 23.5285 19.2699 24.5368 19.426 25.5301C19.59 26.4081 20.3045 27.2977 21.7686 28.2927ZM20.1757 32.1556C18.8989 31.6522 17.5402 31.0669 16.0644 30.3997H15.9707C16.5681 30.9967 17.142 31.5703 17.7745 32.0736L19.5314 32.7525L20.1757 32.1907V32.1556ZM16.3924 19.8529C15.2211 20.6957 13.8858 21.7141 12.7965 22.6154L10.899 22.7442C11.6894 22.0894 12.7267 21.3438 13.7659 20.5968L13.766 20.5967C14.4361 20.1151 15.1069 19.6328 15.713 19.174C16.614 18.5305 17.4448 17.9087 18.2365 17.3162L18.2366 17.3161L18.2369 17.3159L18.2371 17.3158L18.2372 17.3156C22.0971 14.4269 25.0275 12.2337 30.6354 11.6121L31.1625 12.1974C24.7689 13.1839 22.4504 15.059 19.3943 17.5307C18.4976 18.2559 17.5375 19.0324 16.3924 19.8529ZM1.43485 23.0602L1.46739 23.0419C1.47988 23.052 1.49246 23.062 1.50513 23.0719L1.43485 23.0602ZM1.46739 23.0419C2.33039 22.556 3.21881 22.1167 4.12884 21.7258C4.62403 21.5095 5.12564 21.295 5.62776 21.0803L5.62785 21.0803C6.91915 20.5282 8.21386 19.9746 9.41141 19.3847C11.4149 18.3895 13.3221 17.0091 15.2418 15.6196L15.2418 15.6196L15.2418 15.6196L15.2419 15.6196L15.2419 15.6195C17.0482 14.3122 18.8655 12.9967 20.7847 11.9867C23.2041 10.691 25.807 9.77131 28.5036 9.25924L27.8711 8.60372C25.2913 9.1432 22.8023 10.0499 20.4802 11.296C18.8287 12.1505 17.2943 13.1455 15.795 14.1405C13.4016 15.7019 10.918 17.1208 8.35724 18.3897C7.27976 18.9 6.13326 19.3992 4.9789 19.9019L4.97889 19.9019C3.48546 20.5521 1.97887 21.2081 0.591514 21.9014C0.7894 22.3455 1.08963 22.7363 1.46739 23.0419ZM4.89552 15.8071L4.89525 15.8072L4.89506 15.8073C3.31052 16.5608 1.76026 17.298 0.26355 17.9917L0.322115 17.898V16.6572C2.36018 15.8027 4.37481 14.9365 6.38945 14.0469C7.7439 13.4084 9.07743 12.7699 10.411 12.1314C11.5223 11.5993 12.6335 11.0672 13.7569 10.5352L15.8418 10.8044C12.1656 12.35 8.4446 14.1194 4.89552 15.8071ZM16.0995 10.7107C19.4398 9.26638 22.8906 8.09205 26.4187 7.19904L25.7745 6.54352C22.1522 7.30619 18.6192 8.44388 15.2328 9.93817L16.0761 10.7107H16.0995ZM31.2444 18.1556C32.1074 17.9537 32.9958 17.8827 33.8799 17.9449L33.3879 18.5067C32.6831 18.4694 31.9765 18.5364 31.2913 18.7057C30.5443 18.8985 29.8185 19.1651 29.1244 19.5017C27.8734 20.0962 26.7633 20.9502 25.8682 22.0067C24.4041 23.8211 24.8726 25.097 26.1142 26.2676L25.5871 26.8061C24.9815 26.2768 24.4877 25.6321 24.1347 24.9097C24.0965 24.8026 24.0652 24.6931 24.0409 24.582C23.9572 23.4608 24.3882 22.3624 25.2122 21.597C26.2209 20.4998 27.4397 19.6161 28.7964 18.9984C29.5833 18.639 30.4031 18.3568 31.2444 18.1556Z" fill="#B7805C"/>
</g>
<g style="mix-blend-mode:multiply">
<path fill-rule="evenodd" clip-rule="evenodd" d="M0.614852 21.8545C3.07458 20.684 5.90913 19.6188 8.38057 18.3428C10.9413 17.074 13.4249 15.6551 15.8183 14.0937C17.3644 13.0987 18.8989 12.1037 20.5035 11.2492C22.7874 10.018 25.2373 9.123 27.7773 8.59199H27.8944L26.4889 7.12878H26.3717C22.8849 8.03266 19.4739 9.20678 16.1697 10.6405L16.322 10.7693H15.912L15.3147 11.0268L14.7642 11.2609C9.80956 13.3913 4.83153 15.8729 0.33374 17.9565C0.344428 19.2668 0.422619 20.5757 0.568 21.8779L0.614852 21.8545Z" fill="url(#paint2_radial_0_19181)"/>
</g>
<g style="mix-blend-mode:multiply">
<path fill-rule="evenodd" clip-rule="evenodd" d="M20.3981 22.7558C19.6897 23.4699 19.3635 24.4782 19.5197 25.4716C19.6368 26.3495 20.3513 27.2391 21.8623 28.2341C22.3425 28.5619 22.8344 28.8662 23.3264 29.1589C24.0526 28.4331 24.8257 27.6605 25.669 26.8177C25.0634 26.2885 24.5696 25.6438 24.2166 24.9214C24.15 24.8126 24.0913 24.6991 24.0409 24.5819C23.9461 23.4488 24.378 22.3351 25.2122 21.5619C26.2529 20.4294 27.5172 19.5246 28.9252 18.9047C29.712 18.5454 30.5319 18.2631 31.3732 18.0619C32.2362 17.8601 33.1246 17.789 34.0086 17.8512L34.9691 16.7508C35.0103 16.5856 35.0103 16.4127 34.9691 16.2475L33.8564 14.9716C28.2693 14.913 24.322 18.3194 20.5036 22.7324L20.3981 22.7558Z" fill="url(#paint3_radial_0_19181)"/>
</g>
<g style="mix-blend-mode:multiply">
<path fill-rule="evenodd" clip-rule="evenodd" d="M25.8564 22.0418C24.3923 23.8562 24.8608 25.1087 26.1024 26.3027C26.9223 25.4599 27.7656 24.5937 28.5855 23.7274C28.5947 23.4297 28.6582 23.1362 28.7729 22.8612C28.8806 22.6054 29.0448 22.3773 29.2532 22.194C29.5519 21.9352 29.8874 21.7222 30.2488 21.5619C30.4596 21.4683 30.6705 21.398 30.8813 21.3278C31.7598 20.3796 32.6031 19.4549 33.3762 18.5887C32.6713 18.5513 31.9648 18.6183 31.2795 18.7876C30.5326 18.9804 29.8067 19.2471 29.1126 19.5836C27.8616 20.1782 26.7516 21.0321 25.8564 22.0887V22.0418Z" fill="url(#paint4_radial_0_19181)"/>
</g>
<g style="mix-blend-mode:screen">
<path fill-rule="evenodd" clip-rule="evenodd" d="M1.52846 10.0201C1.21686 10.2652 0.954552 10.567 0.755403 10.9097L1.66902 10.699C2.59434 10.5 3.48453 10.2776 4.36301 10.0552H4.52699C3.48453 10.0552 2.54749 9.97325 1.76272 9.96155L1.52846 10.0669V10.0201ZM0.415726 13.4381C1.49332 13.1104 2.59434 12.7826 3.71879 12.4666L6.26052 11.7057L4.86667 12.0452C4.49185 12.1388 1.43476 12.9699 1.28249 12.8997C1.13022 12.8294 1.18878 12.6421 1.2005 12.5134C1.23266 12.2897 1.29986 12.0724 1.39962 11.8696C1.43865 11.7623 1.51299 11.6715 1.61045 11.612C1.99119 11.4618 2.38273 11.3405 2.78175 11.2492L4.1756 10.8044L1.833 11.3428L0.579708 11.6355C0.579708 12.1739 0.474291 12.806 0.439152 13.4381H0.415726ZM3.92963 13.3562L0.35716 14.4214C0.35716 15.1589 0.35716 15.9314 0.35716 16.6923C2.39522 15.8378 4.40986 14.9716 6.4245 14.0819L7.53723 13.5786L5.74514 14.2575C4.57384 14.7141 3.40254 15.2291 2.23124 15.6739C1.92938 15.8059 1.60969 15.8927 1.28249 15.9314C1.18875 15.9368 1.1028 15.8795 1.07165 15.791C1.0249 15.5513 1.0249 15.3049 1.07165 15.0652C1.11144 14.8706 1.20012 14.6894 1.32934 14.5385C1.45544 14.3724 1.62033 14.2398 1.80957 14.1522C2.50064 13.8712 3.20342 13.6137 3.9062 13.3562H3.92963ZM5.4406 15.51L0.322021 17.9331C0.33271 19.2434 0.4109 20.5523 0.556282 21.8545C3.01601 20.684 5.85056 19.6187 8.322 18.3428C10.3718 17.3361 12.2107 16.306 14.0731 15.1589L11.5782 16.4114C9.23562 17.5819 7.17413 18.6472 4.70269 19.6656C3.72342 20.2091 2.62505 20.5026 1.50503 20.5201C1.32792 20.4824 1.17487 20.3719 1.08337 20.2157C0.771802 19.5093 0.828768 18.6947 1.23564 18.0385C1.35634 17.8788 1.5028 17.7404 1.66902 17.6288C2.88156 16.8319 4.14104 16.1087 5.4406 15.4632V15.51ZM4.12875 21.7258C3.21648 22.1033 2.32502 22.5292 1.45818 23.0017C1.5447 23.0588 1.63952 23.1022 1.7393 23.1304C4.19903 23.1304 7.46695 22.9197 10.9223 22.6856C11.9296 21.8779 13.2649 20.9064 14.5065 20.005C13.956 20.3679 13.3937 20.7308 12.8081 21.0585C12.0612 21.4527 11.2763 21.7703 10.4655 22.0067C9.62231 22.242 8.76002 22.4026 7.88862 22.4866C7.02305 22.5508 6.15391 22.5508 5.28834 22.4866C4.83242 22.4819 4.38072 22.3988 3.95305 22.2408C3.78907 22.1706 4.25759 21.7492 4.73782 21.3746L4.07018 21.6672L4.12875 21.7258Z" fill="url(#paint5_linear_0_19181)"/>
</g>
<g style="mix-blend-mode:screen" opacity="0.75">
<path fill-rule="evenodd" clip-rule="evenodd" d="M18.0907 1.82609C16.4275 3.54682 14.2489 5.33779 12.4568 6.96488C14.3167 4.31133 16.5768 1.96182 19.1566 0C24.7058 5.12752 29.9652 10.5595 34.9106 16.2709C32.4509 14.0702 29.6046 11.4599 26.8989 8.83779C26.6862 8.39352 26.3877 7.9957 26.0204 7.66722C25.9619 7.66722 25.6691 7.53846 25.4465 7.44482C25.142 7.15217 24.896 6.90635 24.6149 6.61371L23.4436 5.44314C23.3664 5.2443 23.2723 5.05241 23.1625 4.86957C23.0068 4.79007 22.8414 4.73105 22.6705 4.69398C21.6515 3.7107 20.7027 2.79766 19.754 1.74415C19.4395 1.38139 19.2184 0.947438 19.1098 0.479933C18.8878 1.01404 18.5521 1.49339 18.1259 1.88462L18.0907 1.82609Z" fill="#CA9E67"/>
</g>
<g style="mix-blend-mode:screen" opacity="0.75">
<path fill-rule="evenodd" clip-rule="evenodd" d="M1.78614 10.2307C0.685119 11.4013 0.450859 13.8244 0.310303 15.826C0.318817 14.285 0.408742 12.7455 0.579702 11.214C0.720258 10.8628 1.27077 10.0434 1.751 9.91467C5.03064 9.9732 10.77 10.3361 16.3103 10.7809C11.7635 10.9618 7.20983 10.8562 2.67633 10.4648C2.37901 10.4047 2.08565 10.3265 1.79785 10.2307H1.78614Z" fill="#CA9E67"/>
</g>
<g style="mix-blend-mode:multiply" opacity="0.5">
<path fill-rule="evenodd" clip-rule="evenodd" d="M20.8081 11.9866C16.8491 14.0703 13.3235 17.4532 9.43481 19.3846C8.62661 19.7826 7.78327 20.1572 6.92822 20.5552C7.57244 20.3679 8.21665 20.1689 8.83744 19.9231C10.2564 19.4584 11.6195 18.8381 12.9019 18.0736C13.3001 17.8044 14.3543 16.6923 15.1273 16.0602C15.6645 15.6296 16.2321 15.2384 16.8257 14.8897C17.2942 14.597 17.8565 14.4565 18.3133 14.1522C20.3455 12.679 22.5054 11.3902 24.7671 10.301C23.4077 10.7832 22.0847 11.3622 20.8081 12.0335V11.9866Z" fill="#683C11"/>
</g>
<g style="mix-blend-mode:screen" opacity="0.5">
<path fill-rule="evenodd" clip-rule="evenodd" d="M21.5226 18.9867C19.59 20.9883 18.1493 22.8963 17.8564 24.0669C18.1468 23.4032 18.5423 22.7905 19.0277 22.2525C21.2783 19.4014 24.0633 17.0158 27.2268 15.2291C25.0243 15.9261 23.0553 17.2136 21.5343 18.9515L21.5226 18.9867Z" fill="#CA9E67"/>
</g>
<g style="mix-blend-mode:screen">
<path fill-rule="evenodd" clip-rule="evenodd" d="M29.6749 23.3177C27.9765 25.893 22.9633 30.9967 19.1332 34.5084C16.9394 32.9632 15.0792 30.9926 13.6632 28.7141C15.3613 30.4689 17.1899 32.0928 19.1332 33.5719C22.7994 30.4933 26.3601 26.7358 29.6749 23.3177V23.3177Z" fill="url(#paint6_radial_0_19181)"/>
</g>
<defs>
<linearGradient id="paint0_linear_0_19181" x1="34.9867" y1="35" x2="34.9867" y2="0.0351166" gradientUnits="userSpaceOnUse">
<stop stop-color="#692705"/>
<stop offset="1" stop-color="#823B00"/>
</linearGradient>
<radialGradient id="paint1_radial_0_19181" cx="0" cy="0" r="1" gradientUnits="userSpaceOnUse" gradientTransform="translate(1.26695 -3.97246) scale(38.2009 36.4534)">
<stop stop-color="#BD8A60"/>
<stop offset="1" stop-color="#A85021"/>
</radialGradient>
<radialGradient id="paint2_radial_0_19181" cx="0" cy="0" r="1" gradientUnits="userSpaceOnUse" gradientTransform="translate(9.89155 -6.4264) scale(37.7979 20.2276)">
<stop stop-color="#CFA04D"/>
<stop offset="1" stop-color="white"/>
</radialGradient>
<radialGradient id="paint3_radial_0_19181" cx="0" cy="0" r="1" gradientUnits="userSpaceOnUse" gradientTransform="translate(37.6045 30.6104) scale(26.8228 24.5229)">
<stop stop-color="#CFA04D"/>
<stop offset="1" stop-color="white"/>
</radialGradient>
<radialGradient id="paint4_radial_0_19181" cx="0" cy="0" r="1" gradientUnits="userSpaceOnUse" gradientTransform="translate(37.5577 34.8127) scale(20.0292 18.3547)">
<stop stop-color="#CFA04D"/>
<stop offset="1" stop-color="white"/>
</radialGradient>
<linearGradient id="paint5_linear_0_19181" x1="-8.83755" y1="30.6815" x2="21.6514" y2="30.6815" gradientUnits="userSpaceOnUse">
<stop stop-color="#CA9E67"/>
<stop offset="0.65"/>
</linearGradient>
<radialGradient id="paint6_radial_0_19181" cx="0" cy="0" r="1" gradientUnits="userSpaceOnUse" gradientTransform="translate(19.2855 35.1522) scale(23.4846 16.4135)">
<stop stop-color="#B0670B"/>
<stop offset="1"/>
</radialGradient>
</defs>
</svg>
