<svg width="40" height="51" viewBox="0 0 40 51" fill="none" xmlns="http://www.w3.org/2000/svg">
<path fill-rule="evenodd" clip-rule="evenodd" d="M33.3314 49.6121C33.204 50.541 25.7138 50.7461 16.7303 49.4875C7.74682 48.2289 0.614979 46.0817 0.742404 45.1528C0.869829 44.2239 8.30828 44.1194 17.2918 45.378C26.2753 46.6366 33.4668 48.6712 33.3314 49.6121Z" fill="url(#paint0_radial_0_18561)"/>
<path fill-rule="evenodd" clip-rule="evenodd" d="M0 42.963L0.504948 45.1562L32.9886 49.6296L34.0741 47.6533L0 42.963Z" fill="url(#paint1_radial_0_18561)"/>
<path fill-rule="evenodd" clip-rule="evenodd" d="M39.9984 5.27388C39.8712 6.19464 31.6486 6.19063 22.6826 4.93761C13.7165 3.68458 5.80018 1.43473 5.92742 0.497963C6.05465 -0.438805 14.2136 0.0175689 23.1836 1.2706C32.5313 2.59168 40.1256 4.35313 39.9984 5.27388Z" fill="url(#paint2_radial_0_18561)"/>
<path fill-rule="evenodd" clip-rule="evenodd" d="M5.9259 0.740723L6.42688 2.93402L38.9145 7.40739L40 5.43106L5.9259 0.740723Z" fill="url(#paint3_radial_0_18561)"/>
<ellipse cx="17.2647" cy="45.7621" rx="1.66336" ry="17.0919" transform="rotate(-81.9509 17.2647 45.7621)" fill="url(#paint4_radial_0_18561)"/>
<path fill-rule="evenodd" clip-rule="evenodd" d="M5.9259 2.96295C5.9259 2.96295 19.1145 5.922 38.5185 7.4074C38.5185 7.4074 29.5585 4.17792 5.9259 2.96295Z" fill="url(#paint5_radial_0_18561)"/>
<path opacity="0.72" fill-rule="evenodd" clip-rule="evenodd" d="M36.2963 6.92168C25.8649 4.80696 18.5515 3.6574 7.80668 2.96295C7.80668 2.96295 4.19504 15.9848 18.6964 25.0282L19.2605 25.1067L19.8246 25.1852C36.2336 20.4378 36.2963 6.92168 36.2963 6.92168Z" fill="url(#paint6_linear_0_18561)"/>
<path opacity="0.72" fill-rule="evenodd" clip-rule="evenodd" d="M2.22223 43.4604C11.54 45.845 21.0967 47.169 30.7108 47.4074C30.7108 47.4074 34.3263 34.3856 19.8254 25.3421L19.2613 25.2636L18.6973 25.1852C2.27707 29.9443 2.22223 43.4604 2.22223 43.4604Z" fill="url(#paint7_linear_0_18561)"/>
<path fill-rule="evenodd" clip-rule="evenodd" d="M12.5926 18.5544C12.5926 18.5544 15.7428 23.5234 19.3887 24.3742C22.9266 25.197 30.3704 18.5185 30.3704 18.5185C30.3704 18.5185 20.1602 22.1893 12.5926 18.5544Z" fill="url(#paint8_linear_0_18561)"/>
<path fill-rule="evenodd" clip-rule="evenodd" d="M12.5926 18.3502C12.5926 18.3502 16.2553 16.9661 19.5302 18.5024C19.6141 19.8866 30.3704 18.3191 30.3704 18.3191C30.3704 18.3191 25.3921 20.5475 19.6141 19.8727C13.8362 19.198 12.5926 18.3502 12.5926 18.3502Z" fill="url(#paint9_linear_0_18561)"/>
<path fill-rule="evenodd" clip-rule="evenodd" d="M5.83931 36.3638C4.49106 38.3031 3.74825 40.5939 3.70367 42.9499C3.70367 42.9499 10.5274 44.6841 16.9184 45.6813C21.3195 46.309 25.7585 46.6382 30.2047 46.6667C30.2047 46.6667 31.2209 39.7574 28.2199 34.8148C28.2199 34.8148 26.7789 38.1808 24.2503 39.5248C21.7216 40.8688 22.0471 39.8638 14.9297 38.7681C7.8122 37.6723 5.83931 36.3638 5.83931 36.3638Z" fill="url(#paint10_linear_0_18561)"/>
<path fill-rule="evenodd" clip-rule="evenodd" d="M28.1481 34.0741C28.1481 34.0741 25.291 36.1939 20.4951 36.7238C15.6991 37.2538 14.1898 35.4818 10.9859 35.399C9.29386 35.3215 7.59869 35.4227 5.9259 35.7012C5.9259 35.7012 8.25098 37.5187 14.0558 38.5993C19.8606 39.6799 23.0605 40.7647 25.5827 39.2618C28.1048 37.7589 28.1481 34.0741 28.1481 34.0741Z" fill="url(#paint11_linear_0_18561)"/>
<path fill-rule="evenodd" clip-rule="evenodd" d="M12.5926 37.6632C12.5926 37.6632 21.3488 39.5877 25.1852 37.6632C25.1852 37.6632 21.0416 33.2591 19.7479 32.6538C18.4543 32.0485 12.8958 36.0936 12.5926 37.6632Z" fill="url(#paint12_linear_0_18561)"/>
<path fill-rule="evenodd" clip-rule="evenodd" d="M18.5185 23.7037C19.1606 26.6006 19.1606 29.5604 18.5185 32.4573L19.7057 32.5926C19.7057 32.5926 18.7869 26.9465 20 23.8748L18.5185 23.7037Z" fill="url(#paint13_linear_0_18561)"/>
<path fill-rule="evenodd" clip-rule="evenodd" d="M19.2593 18.7361C19.2593 18.7361 16.7463 20.0425 12.5926 18.5264C12.5926 18.5264 16.0931 16.7099 19.2593 18.7361Z" fill="#FFE74C"/>
<path fill-rule="evenodd" clip-rule="evenodd" d="M20.1543 19.3908L17.7778 20.3139C17.7778 20.3139 18.9622 20.9277 22.9294 20.6831C25.2669 20.5565 27.5534 19.8178 29.6296 18.5185C29.6296 18.5185 25.4132 19.4047 23.0521 19.4047L20.1543 19.3908Z" fill="#FFE74C"/>
<path opacity="0.5" fill-rule="evenodd" clip-rule="evenodd" d="M8.14813 2.63719V0.0196625C9.87784 -0.0308375 11.6091 0.0159582 13.3333 0.15982L13.1327 2.96296C13.1327 2.96296 10.0771 2.75462 8.14813 2.63719Z" fill="#FBF9FA"/>
<g style="mix-blend-mode:soft-light" opacity="0.5">
<path fill-rule="evenodd" clip-rule="evenodd" d="M35.5555 6.16263L36.4144 3.70367C36.4144 3.70367 38.1659 4.22296 38.5185 4.37569L37.3933 6.66664L35.5555 6.16263Z" fill="#FBF9FA"/>
</g>
<g style="mix-blend-mode:soft-light" opacity="0.5">
<path fill-rule="evenodd" clip-rule="evenodd" d="M2.04373 45.9231L1.48151 43.7037L4.44447 44.4891V46.6667C3.62947 46.4616 2.82791 46.2133 2.04373 45.9231Z" fill="#FBF9FA"/>
</g>
<g style="mix-blend-mode:soft-light" opacity="0.5">
<path fill-rule="evenodd" clip-rule="evenodd" d="M28.8889 50.3704L29.4091 48.2361C30.4697 48.3464 31.5385 48.3169 32.5926 48.1481L31.4533 50.1465C31.4533 50.1465 29.8304 50.3584 28.8889 50.3704Z" fill="#FBF9FA"/>
</g>
<g style="mix-blend-mode:screen">
<path fill-rule="evenodd" clip-rule="evenodd" d="M2.96295 43.8709C2.96295 43.8709 3.63479 36.8728 8.06102 32.0831C12.4873 27.2933 18.7314 25.9259 18.7314 25.9259L20 26.2795C20 26.2795 14.7636 33.8355 13.0445 45.9259C13.0445 45.9337 4.52399 44.5663 2.96295 43.8709Z" fill="url(#paint14_linear_0_18561)"/>
</g>
<g style="mix-blend-mode:screen">
<path fill-rule="evenodd" clip-rule="evenodd" d="M18.5185 24.4444C18.5185 24.4444 12.2589 20.6675 10.1672 13.9122C8.07553 7.15696 9.18063 2.96295 9.18063 2.96295L13.8458 3.6908C13.8458 3.6908 11.9529 13.4558 18.5185 24.4444Z" fill="url(#paint15_linear_0_18561)"/>
</g>
<g style="mix-blend-mode:screen">
<path fill-rule="evenodd" clip-rule="evenodd" d="M36.2963 7.12072C36.2963 7.12072 35.8429 20.6642 20 25.1852C20 25.1852 33.7424 20.9824 34.0408 6.66669L36.2963 7.12072Z" fill="url(#paint16_linear_0_18561)"/>
</g>
<g style="mix-blend-mode:screen">
<path fill-rule="evenodd" clip-rule="evenodd" d="M27.4074 47.4074C27.4074 47.4074 29.1187 40.9713 29.2275 37.7778C30.2955 40.8468 30.6224 44.1621 30.177 47.4074H27.4074Z" fill="url(#paint17_linear_0_18561)"/>
</g>
<path fill-rule="evenodd" clip-rule="evenodd" d="M9.62964 31.1111C9.62964 31.1111 12.5389 30.2307 13.3333 28.1481C13.3333 28.1481 11.2953 28.3537 9.62964 31.1111Z" fill="white"/>
<path fill-rule="evenodd" clip-rule="evenodd" d="M9.15341 8.14813C9.15341 8.14813 8.09927 10.1889 10.1999 11.8518C10.1999 11.8592 10.9943 8.92961 9.15341 8.14813Z" fill="white"/>
<path fill-rule="evenodd" clip-rule="evenodd" d="M31.1111 17.7778C31.1111 17.7778 32.1729 16.0225 33.3333 15.5555C33.3333 15.5555 32.5478 17.2582 31.1111 17.7778Z" fill="white"/>
<defs>
<radialGradient id="paint0_radial_0_18561" cx="0" cy="0" r="1" gradientUnits="userSpaceOnUse" gradientTransform="translate(17.0095 47.5643) rotate(8.30995) scale(11.5935 3.3958)">
<stop stop-color="#AD5C2E"/>
<stop offset="1" stop-color="#692705"/>
</radialGradient>
<radialGradient id="paint1_radial_0_18561" cx="0" cy="0" r="1" gradientUnits="userSpaceOnUse" gradientTransform="translate(17.0083 46.4727) rotate(8.93238) scale(12.1404 3.81399)">
<stop stop-color="#AD5C2E"/>
<stop offset="1" stop-color="#692705"/>
</radialGradient>
<radialGradient id="paint2_radial_0_18561" cx="0" cy="0" r="1" gradientUnits="userSpaceOnUse" gradientTransform="translate(22.9342 3.1198) rotate(7.95337) scale(12.1097 3.39882)">
<stop stop-color="#AD5C2E"/>
<stop offset="1" stop-color="#692705"/>
</radialGradient>
<radialGradient id="paint3_radial_0_18561" cx="0" cy="0" r="1" gradientUnits="userSpaceOnUse" gradientTransform="translate(22.9342 4.2505) rotate(8.93238) scale(12.1404 3.81399)">
<stop stop-color="#AD5C2E"/>
<stop offset="1" stop-color="#692705"/>
</radialGradient>
<radialGradient id="paint4_radial_0_18561" cx="0" cy="0" r="1" gradientUnits="userSpaceOnUse" gradientTransform="translate(17.2619 46.6668) rotate(83.0927) scale(9.73628 2.3808)">
<stop stop-color="#AD5C2E"/>
<stop offset="1" stop-color="#692705"/>
</radialGradient>
<radialGradient id="paint5_radial_0_18561" cx="0" cy="0" r="1" gradientUnits="userSpaceOnUse" gradientTransform="translate(22.1947 5.3028) rotate(6.25161) scale(11.5404 2.55857)">
<stop stop-color="#AD5C2E"/>
<stop offset="1" stop-color="#692705"/>
</radialGradient>
<linearGradient id="paint6_linear_0_18561" x1="32.5042" y1="25.7837" x2="34.1753" y2="5.3988" gradientUnits="userSpaceOnUse">
<stop stop-color="#D09866"/>
<stop offset="1" stop-color="#F0E1EA"/>
</linearGradient>
<linearGradient id="paint7_linear_0_18561" x1="29.7756" y1="46.9128" x2="31.4679" y2="26.2678" gradientUnits="userSpaceOnUse">
<stop offset="0.000132314" stop-color="#D09866"/>
<stop offset="1" stop-color="#F0E1EA"/>
</linearGradient>
<linearGradient id="paint8_linear_0_18561" x1="30.3649" y1="24.4421" x2="30.3649" y2="18.5185" gradientUnits="userSpaceOnUse">
<stop stop-color="#FF8647"/>
<stop offset="1" stop-color="#FFB934"/>
</linearGradient>
<linearGradient id="paint9_linear_0_18561" x1="12.5926" y1="20.0011" x2="30.3704" y2="20.0011" gradientUnits="userSpaceOnUse">
<stop stop-color="#FFC200"/>
<stop offset="1" stop-color="#FFD328"/>
</linearGradient>
<linearGradient id="paint10_linear_0_18561" x1="30.3709" y1="46.6667" x2="30.3709" y2="34.8148" gradientUnits="userSpaceOnUse">
<stop stop-color="#FF8647"/>
<stop offset="1" stop-color="#FFB934"/>
</linearGradient>
<linearGradient id="paint11_linear_0_18561" x1="5.9259" y1="39.989" x2="28.1481" y2="39.989" gradientUnits="userSpaceOnUse">
<stop stop-color="#FFC200"/>
<stop offset="1" stop-color="#FFD328"/>
</linearGradient>
<linearGradient id="paint12_linear_0_18561" x1="25.2114" y1="38.519" x2="25.2114" y2="32.5703" gradientUnits="userSpaceOnUse">
<stop stop-color="#FFB934"/>
<stop offset="1" stop-color="#FF9F47"/>
</linearGradient>
<linearGradient id="paint13_linear_0_18561" x1="19.9971" y1="32.5886" x2="19.9971" y2="23.7037" gradientUnits="userSpaceOnUse">
<stop stop-color="#FFB934"/>
<stop offset="1" stop-color="#FF9F47"/>
</linearGradient>
<linearGradient id="paint14_linear_0_18561" x1="19.9963" y1="45.9337" x2="19.9963" y2="25.9377" gradientUnits="userSpaceOnUse">
<stop/>
<stop offset="1" stop-color="#CDC8CA"/>
</linearGradient>
<linearGradient id="paint15_linear_0_18561" x1="18.5191" y1="24.4444" x2="18.5191" y2="2.96295" gradientUnits="userSpaceOnUse">
<stop/>
<stop offset="1" stop-color="#CDC8CA"/>
</linearGradient>
<linearGradient id="paint16_linear_0_18561" x1="20" y1="25.1852" x2="36.2963" y2="25.1852" gradientUnits="userSpaceOnUse">
<stop stop-color="#CDC8CA"/>
<stop offset="1"/>
</linearGradient>
<linearGradient id="paint17_linear_0_18561" x1="30.3787" y1="47.4074" x2="30.3787" y2="37.7778" gradientUnits="userSpaceOnUse">
<stop stop-color="#AB6F55"/>
<stop offset="1"/>
</linearGradient>
</defs>
</svg>
