<svg width="1920" height="471" viewBox="0 0 1920 471" fill="none" xmlns="http://www.w3.org/2000/svg">
<path d="M1937.48 175.474C1931.48 170.966 1923.2 178.479 1923.2 178.479C1923.2 178.479 1917.21 185.946 1915.7 196.464C1914.19 206.936 1911.17 227.881 1911.17 227.881L1901.38 258.569L1889.35 278.011L1878.09 286.981L1866.06 289.986C1866.06 289.986 1860.8 270.544 1863.04 254.062C1865.28 237.579 1869.81 217.408 1869.81 217.408V177.75C1869.81 175.519 1870.55 111.137 1870.55 111.137C1870.55 111.137 1870.55 46.0263 1869.81 43.7497C1869.08 41.5187 1863.04 11.5587 1863.04 11.5587C1863.04 11.5587 1857 1.08631 1844.24 1.81482C1831.48 2.54333 1825.44 7.05099 1825.44 7.05099C1825.44 7.05099 1815.65 17.5233 1813.41 38.468C1811.16 59.4127 1813.41 84.865 1813.41 84.865L1814.18 149.976L1817.94 197.875C1817.94 197.875 1821.69 245.046 1820.18 253.242C1818.67 261.483 1815.65 275.689 1815.65 275.689L1811.12 283.931C1811.12 283.931 1797.58 262.212 1796.07 255.473C1794.56 248.734 1792.32 241.996 1792.32 241.996C1792.32 241.996 1797.58 225.513 1791.58 218.046C1785.55 210.579 1778.04 210.579 1778.04 210.579C1778.04 210.579 1766.01 211.307 1763.77 230.021C1761.53 248.734 1770.54 287.664 1770.54 287.664C1770.54 287.664 1776.53 316.85 1788.61 325.091C1800.64 333.333 1806.64 336.292 1806.64 336.292L1811.9 337.021C1811.9 337.021 1807.37 366.207 1810.39 395.393C1812.54 416.337 1819.35 448.392 1823.01 464.874C1825.99 461.141 1829.46 457.862 1832.99 454.675C1837.06 450.942 1841.04 447.071 1845.06 443.292C1846.12 439.24 1848.22 435.142 1849.68 431.272C1850.32 429.496 1851.06 427.538 1852.06 425.808C1852.06 424.579 1852.61 423.349 1854.08 422.803C1854.49 422.666 1854.85 422.484 1855.27 422.302L1855.4 422.211C1855.68 422.029 1855.95 421.938 1856.27 421.892C1859.2 420.435 1861.81 418.295 1864.42 416.155C1863.27 397.123 1865.33 382.006 1865.33 382.006L1870.59 353.549L1874.34 334.107C1874.34 334.107 1892.41 331.876 1900.65 325.137C1908.93 318.398 1917.21 304.921 1917.21 304.921C1917.21 304.921 1927.73 278.74 1927.73 276.463C1927.73 274.187 1936.01 246.503 1936.01 246.503L1945.8 225.559C1945.8 225.559 1948.82 212.081 1948.82 203.84C1948.82 195.599 1946.58 192.639 1946.58 192.639C1946.58 192.639 1943.56 179.936 1937.57 175.428L1937.48 175.474Z" fill="#9D815C"/>
<path fill-rule="evenodd" clip-rule="evenodd" d="M1867.25 326.912C1862.22 317.68 1863.41 310.308 1864.77 301.898C1865.23 299.068 1865.71 296.121 1865.97 292.946C1866.3 289.293 1865.5 285.641 1864.7 282.021C1864.61 281.579 1864.51 281.138 1864.42 280.697C1861.81 268.632 1860.94 252.877 1863.27 240.72C1863.68 238.519 1864.29 236.361 1864.9 234.201C1865.17 233.234 1865.44 232.267 1865.7 231.295C1868.61 219.949 1868.65 208.686 1868.7 197.27V197.27C1868.71 193.98 1868.73 190.678 1868.81 187.357C1869.02 178.795 1869.71 170.232 1870.41 161.664L1870.41 161.663L1870.41 161.663C1871.1 153.282 1871.78 144.896 1872.01 136.498C1873 107.557 1871.44 78.858 1869.87 50.1002L1869.87 50.1001L1869.87 50.099C1869.64 45.7834 1869.4 41.4665 1869.17 37.1473L1869.86 37.6481C1869.63 33.4137 1869.36 29.4069 1868.62 25.6277C1868.62 25.1656 1868.59 24.7035 1868.54 24.2056L1868.53 24.0796C1867.94 10.9209 1852.11 -1.32718 1838.8 0.494101C1835.23 0.994952 1831.75 2.72516 1829.65 5.54814C1829.04 5.71246 1828.45 5.8603 1827.85 6.01148L1827.85 6.01149C1827.45 6.11167 1827.05 6.21331 1826.63 6.32219C1827.45 6.14006 1828.37 6.09453 1829.28 6.14006C1829.21 6.25389 1829.14 6.35633 1829.07 6.45878C1829.01 6.56123 1828.94 6.66367 1828.87 6.7775L1843.37 17.7052C1848.59 32.5486 1849.32 48.7579 1849.82 64.603C1851.88 130.579 1851.38 196.6 1848.27 262.485C1847.92 269.843 1847.55 277.207 1847.17 284.575C1844.78 331.14 1842.39 377.84 1848.36 424.032C1848.66 426.45 1849.03 428.829 1849.42 431.241L1849.5 431.772C1849.52 431.704 1849.56 431.624 1849.59 431.545C1849.63 431.465 1849.66 431.385 1849.68 431.317C1850.33 429.541 1851.06 427.583 1852.06 425.853C1852.06 424.624 1852.61 423.394 1854.08 422.848C1854.39 422.744 1854.68 422.614 1854.98 422.477L1854.98 422.477C1855.07 422.434 1855.17 422.391 1855.27 422.347L1855.4 422.256C1855.68 422.074 1855.95 421.983 1856.27 421.937C1858.74 420.708 1860.98 418.978 1863.18 417.202C1861.85 396.713 1864 376.041 1869.86 356.371C1869.98 355.973 1870.1 355.573 1870.22 355.171L1870.22 355.169C1872.19 348.547 1874.29 341.506 1871.87 335.154C1871.18 333.309 1870.12 331.611 1869.06 329.92C1868.45 328.939 1867.84 327.961 1867.3 326.958L1867.25 326.912ZM1831.11 4.27345C1832.21 3.95473 1833.22 4.04579 1834.18 4.31898C1834 4.36601 1833.81 4.41303 1833.63 4.46046L1833.63 4.46046C1832.93 4.64264 1832.2 4.83073 1831.48 5.04749L1831.07 4.27345H1831.11ZM1834.31 10.7392L1832.39 6.86895C1834.27 7.68853 1835.46 9.05449 1834.31 10.7392Z" fill="#856D55"/>
<path d="M1927.36 175.109C1939.17 184.307 1940.31 202.019 1935.92 216.27C1931.57 230.43 1923.34 243.088 1918.12 256.93C1913.32 269.633 1908.61 282.337 1903.67 294.949C1900.97 301.733 1892.96 309.155 1886.01 311.386C1875.26 314.847 1869.45 305.421 1875.03 295.996C1877.22 292.263 1879.47 288.529 1881.66 284.75C1878 287.801 1873.2 289.44 1868.44 289.258C1867.75 289.258 1867.02 289.167 1866.47 289.576C1865.92 289.941 1865.7 290.624 1865.51 291.261C1861.26 306.287 1859.15 337.886 1883.49 332.422C1903.76 327.869 1917.53 308.244 1922.65 288.21C1925.44 277.283 1927.36 266.173 1931.62 255.655C1935.92 245.092 1942.19 235.393 1945.3 224.375C1948.68 212.445 1948.04 199.378 1943.56 187.813C1940.86 180.846 1934.68 173.47 1927.41 175.109H1927.36Z" fill="#856D55"/>
<path d="M1767.43 273.093C1767.06 269.815 1766.61 266.537 1766.15 263.304C1765.78 266.582 1766.47 269.861 1767.43 273.093Z" fill="#856D55"/>
<path d="M1767.43 273.094C1767.52 274.005 1767.66 274.915 1767.75 275.871C1767.75 275.871 1767.66 274.779 1767.47 273.276V273.094H1767.43Z" fill="#856D55"/>
<path d="M1827.18 311.704C1826.54 314.892 1824.39 317.942 1821.27 318.762C1818.76 319.399 1816.06 318.489 1813.68 317.441C1800.6 311.477 1788.56 300.64 1782.34 287.664C1773.15 268.449 1764.82 242.496 1771.68 221.551C1772.14 220.185 1772.46 218.273 1771.13 217.59C1770.08 217.044 1768.85 217.863 1768.07 218.728C1764.14 222.963 1763.59 229.246 1763.54 235.029C1763.49 244.681 1764.87 253.97 1766.15 263.35C1766.19 262.94 1766.24 262.53 1766.33 262.12C1766.33 262.12 1767.06 269.314 1767.47 273.321C1767.75 274.277 1768.07 275.188 1768.34 276.144C1770.72 283.338 1773.06 290.532 1775.43 297.772C1778.09 305.831 1780.74 313.981 1785.13 321.221C1789.53 328.46 1795.93 334.835 1803.94 337.658C1811.94 340.481 1821.73 339.115 1827.63 332.968C1835.46 324.818 1833.9 310.703 1826.49 302.188C1827.18 305.33 1827.82 308.608 1827.18 311.795V311.704Z" fill="#856D55"/>
<path d="M1766.19 263.305C1766.65 266.537 1767.06 269.816 1767.48 273.094V273.276C1767.11 269.269 1766.38 262.075 1766.38 262.075C1766.29 262.485 1766.24 262.895 1766.19 263.305Z" fill="#856D55"/>
<path d="M1843.1 14.2905C1841.4 12.7424 1838.38 12.3782 1836.97 14.1994C1836.33 15.019 1836.1 16.1573 1835.32 16.8858C1834.04 18.0241 1831.84 17.3411 1830.97 15.9297C1830.2 14.7003 1830.2 13.1522 1830.52 11.6952C1830.56 11.4675 1830.65 11.2399 1830.7 11.0122C1805.35 18.616 1812.58 60.0045 1812.22 80.2207C1811.8 102.304 1812.45 124.387 1813.82 146.424C1816.43 189.406 1821.59 232.161 1826.81 274.87C1827.18 278.057 1827.77 281.563 1830.38 283.475C1836.92 248.78 1834.27 213.037 1837.7 177.887C1839.39 160.858 1842.5 144.011 1844.29 127.028C1846.21 109.133 1845.25 91.4216 1845.8 73.6641C1846.34 55.2237 1850.05 39.0599 1845.89 20.4373C1845.38 18.2062 1844.74 15.8386 1843.1 14.2905Z" fill="#C2A37C"/>
<path d="M1923.7 189.952C1923.43 189.952 1923.16 189.907 1922.88 189.861C1912.86 189.315 1911.22 220.778 1909.66 228.017C1906.5 242.451 1902.52 257.112 1894.33 269.633C1888.62 278.375 1880.66 287.254 1882.12 297.59C1891.09 294.539 1897.13 286.07 1900.83 277.374C1904.54 268.677 1906.55 259.298 1910.94 250.92C1913.69 245.638 1917.25 240.857 1920.18 235.712C1923.93 228.973 1940.27 192.092 1923.8 189.952H1923.7Z" fill="#C2A37C"/>
<path d="M1770.72 214.949C1769.9 216.042 1769.3 217.363 1769.21 218.865L1770.72 214.949Z" fill="#C2A37C"/>
<path d="M1811.67 284.067C1806.59 279.422 1803.43 273.139 1800.37 266.992C1797.62 261.392 1794.83 255.7 1793.83 249.553C1792.77 242.997 1793.78 236.258 1793.32 229.61C1792.87 222.963 1790.49 215.814 1784.72 212.445C1780.24 209.85 1773.7 211.124 1770.72 214.949L1769.21 218.865C1769.3 217.362 1769.85 216.087 1770.72 214.949L1771.46 213.037C1765.87 218 1762.85 225.649 1763.54 233.071C1763.54 233.435 1763.63 233.799 1763.82 234.073C1764.73 235.393 1766.56 233.663 1767.66 232.479C1770.22 229.747 1774.98 230.384 1777.86 232.752C1780.74 235.165 1782.21 238.762 1783.62 242.223C1789.71 257.203 1796.57 271.864 1804.16 286.161C1808.33 293.993 1814 302.598 1822.88 303.554C1825.16 300.094 1823.79 295.313 1821.09 292.126C1818.44 288.939 1814.73 286.844 1811.67 284.021V284.067Z" fill="#C2A37C"/>
<path d="M1825.99 334.881C1826.35 334.699 1826.72 334.517 1827.04 334.334L1826.08 334.061C1826.08 334.334 1826.03 334.608 1825.99 334.926V334.881Z" fill="#C2A37C"/>
<path d="M1825.99 334.88C1821.64 337.339 1816.84 338.933 1811.85 339.525C1810.84 353.594 1810.11 367.618 1809.61 381.687C1809.24 393.161 1809.06 404.772 1811.07 416.064C1813.13 427.356 1817.52 438.511 1825.35 446.98C1827.08 448.847 1830.38 450.44 1831.8 448.346C1832.25 447.618 1832.25 446.661 1832.25 445.796C1830.93 408.733 1821.5 371.716 1825.94 334.88H1825.99Z" fill="#C2A37C"/>
<path opacity="0.49" d="M1851.56 17.9328L1852.84 17.0222C1851.47 16.4303 1849.82 17.5686 1849.27 18.9801C1848.72 20.3916 1849 21.9852 1849.27 23.4422C1854.63 53.5843 1856.87 84.2273 1856.04 114.779C1856.68 89.0537 1857.32 63.3282 1857.92 37.6026C1858.06 31.638 1858.01 25.1269 1854.17 20.5282C1853.39 19.572 1852.43 18.7524 1851.51 17.9328H1851.56Z" fill="#C2A37C"/>
<path opacity="0.49" d="M1858.51 19.117C1858.1 20.4374 1858.51 21.8489 1858.97 23.1693C1862.59 35.0987 1863.87 48.7582 1864.32 62.3723C1864.69 72.6625 1864.51 82.8616 1864.51 92.1502C1864.51 76.3961 1868.12 60.4599 1868.17 44.5238C1868.17 37.3297 1867.98 31.5017 1865.74 24.7629C1864.69 21.5757 1861.12 10.4204 1858.51 19.117Z" fill="#C2A37C"/>
<path opacity="0.49" d="M1855.49 109.133C1855.49 121.427 1853.25 133.265 1853.12 145.513C1853.02 154.392 1853.12 163.225 1853.21 172.149C1853.34 183.76 1854.03 193.777 1853.12 205.388C1852.02 219.229 1852.43 233.116 1852.84 246.958C1852.43 232.069 1856.82 216.042 1857.87 201.108C1858.88 186.81 1858.42 172.513 1860.02 158.399C1863.55 127.164 1858.65 94.3807 1855.68 63.3279C1855.68 78.5811 1855.59 93.8799 1855.54 109.133H1855.49Z" fill="#C2A37C"/>
<path opacity="0.49" d="M1867.98 95.8376C1867.25 82.1325 1863.96 67.6533 1864.55 54.1759C1863.64 75.4393 1862.22 97.1125 1862.45 118.239C1862.68 144.739 1862.91 171.284 1863.18 197.784C1865.93 178.979 1867.71 160.038 1868.53 141.051C1869.17 126.936 1868.53 112.411 1868.12 98.2053C1868.12 97.4312 1868.08 96.6116 1868.03 95.8376H1867.98Z" fill="#C2A37C"/>
<path opacity="0.49" d="M1854.17 289.531C1853.53 289.895 1853.16 290.533 1852.89 291.216C1852.61 292.035 1852.52 292.991 1852.52 293.902C1851.93 314.801 1851.56 335.7 1850.32 356.599C1854.44 344.625 1856.87 332.103 1857.64 319.445C1857.83 316.167 1857.78 287.391 1854.17 289.531Z" fill="#C2A37C"/>
<path opacity="0.49" d="M1888.39 278.603C1887.52 280.06 1886.33 281.517 1885 282.974C1886.19 281.744 1887.34 280.333 1888.39 278.603Z" fill="#9A938A"/>
<path opacity="0.49" d="M1879.28 333.014C1878.55 332.923 1877.82 332.786 1877.13 332.604C1877.77 332.923 1878.51 333.059 1879.28 333.014Z" fill="#9A938A"/>
<path opacity="0.49" d="M1883.31 312.661C1878.46 314.573 1872.74 314.209 1876.08 306.332C1877.59 302.78 1883.26 300.367 1885.64 297.271C1890.31 291.306 1894.61 284.932 1896.07 277.373C1891.5 285.615 1885.55 293.128 1878.55 299.502C1877.04 300.868 1874.39 302.143 1873.2 300.458C1872.65 299.73 1872.79 298.728 1873.02 297.817C1874.39 292.9 1880.56 287.891 1885 282.974C1880.24 287.755 1874.48 289.03 1870.09 292.08C1866.15 294.858 1863.36 299.047 1863.59 308.563C1863.73 313.845 1864.46 319.263 1866.93 323.953C1869.08 328.005 1872.79 331.374 1877.13 332.604C1874.48 331.329 1872.97 327.55 1874.11 324.59C1876.68 317.988 1889.62 314.528 1894.75 309.565C1899.32 305.148 1902.84 299.32 1903.3 292.991C1898.86 300.048 1891.32 309.473 1883.26 312.661H1883.31Z" fill="#9A938A"/>
<path d="M1871.41 44.569C1870.96 35.0073 1870.91 23.9886 1867.21 14.9733C1864.14 7.50603 1857.37 3.40816 1849.82 1.26816C1845.61 0.0843266 1841.04 -0.416524 1836.69 0.40305C1830.7 1.49582 1827.68 5.3205 1822.65 8.37113C1821.32 9.19071 1822.51 11.1941 1823.88 10.4201C1828.23 8.00688 1831.61 4.63752 1836.69 3.68135C1842.55 2.54305 1849 4.54645 1854.26 7.09624C1862.54 11.103 1864.74 18.3882 1865.83 26.9026C1868.72 49.3043 1867.16 71.9337 1867.39 94.4264C1867.57 117.01 1868.94 139.503 1868.3 162.178C1867.98 172.923 1866.93 183.669 1866.98 194.415C1866.98 205.706 1866.7 216.27 1864.6 227.425C1862.49 238.489 1859.84 249.645 1859.2 260.891C1858.61 271.363 1860.89 281.426 1863.91 291.397C1864.83 294.448 1869.72 293.128 1868.76 290.077C1865.56 279.832 1863.27 269.633 1864.19 258.842C1865.19 246.549 1868.21 234.437 1870.32 222.326C1872.19 211.58 1871.37 201.017 1871.64 190.18C1871.96 177.841 1872.88 165.502 1873.06 153.163C1873.38 129.031 1871.6 104.99 1871.74 80.8579C1871.78 68.792 1872.01 56.6805 1871.41 44.6145V44.569Z" fill="#93816E"/>
<path d="M1932.95 172.013C1924.53 170.829 1919.54 178.023 1917.44 185.126C1913.37 198.604 1912.08 212.992 1909.07 226.697C1904.12 249.19 1893.33 285.752 1865.83 289.531C1864.32 289.759 1864.96 292.035 1866.47 291.808C1883.72 289.394 1894.98 272.775 1901.65 258.205C1911.49 236.76 1913.59 212.719 1918.9 189.953C1920.23 184.216 1922.01 176.885 1928.42 174.882C1933.31 173.334 1937.48 175.929 1940.31 179.754C1945.02 186.128 1947.17 194.916 1947.49 202.702C1948.09 216.543 1942.96 228.928 1936.93 241.04C1931.89 251.193 1929.24 262.166 1926.31 273.048C1922.93 285.752 1919.5 299.093 1911.76 310.02C1903.85 321.221 1890.95 330.92 1877.09 332.786C1875.53 333.014 1876.22 335.336 1877.73 335.108C1901.84 331.876 1917.48 310.111 1924.39 288.666C1928.55 275.735 1930.93 262.212 1935.87 249.554C1940.72 237.124 1947.63 226.378 1949.46 212.855C1950.74 203.476 1949.78 194.005 1946.12 185.217C1943.74 179.48 1939.72 172.833 1932.95 171.922V172.013Z" fill="#806743"/>
<path d="M1809.52 336.884C1792.45 333.515 1782.57 318.444 1777.26 303.1C1772.55 289.44 1768.71 275.052 1766.19 260.846C1764.82 253.197 1764 245.411 1764.27 237.67C1764.5 231.25 1764.96 220.505 1769.76 215.542C1774.75 210.397 1784.08 212.172 1788.56 216.999C1794.47 223.419 1793.78 233.527 1792.36 241.449C1792.18 242.314 1793.46 242.724 1793.73 241.814C1796.71 231.66 1796.52 217.09 1785.32 211.808C1776.85 207.847 1767.98 211.125 1765.05 219.867C1760.34 233.754 1761.8 249.099 1764.5 263.259C1767.38 278.33 1771.36 293.948 1777.26 308.154C1783.17 322.36 1793.28 335.427 1809.15 338.523C1810.25 338.751 1810.75 337.066 1809.61 336.839L1809.52 336.884Z" fill="#806743"/>
<path d="M1811.94 283.019C1800.23 270.862 1797.58 254.881 1792.5 239.536C1792.32 238.99 1791.63 239.263 1791.68 239.764C1793.41 252.513 1797.35 266.082 1804.49 276.964C1812.08 288.62 1831.2 297.772 1827.63 313.936C1827.31 315.256 1829.33 315.802 1829.69 314.482C1833.31 300.549 1820.36 291.762 1811.94 283.065V283.019Z" fill="#B9BBA4"/>
<path d="M1836.1 3.27134C1820.86 6.09432 1813.82 21.2109 1812.08 35.1437C1810.89 44.5688 1811.3 54.2671 1811.35 63.7377C1811.39 74.4832 1811.53 85.2288 1811.76 95.9743C1812.22 117.465 1812.99 138.956 1814.14 160.402C1815.14 179.662 1817.16 198.785 1818.76 218C1820.59 239.992 1820.31 262.621 1810.25 282.837C1809.84 283.657 1811.07 284.34 1811.48 283.566C1827.73 252.103 1819.63 216.543 1817.29 182.986C1814.41 142.189 1813.31 101.165 1813.18 60.2773C1813.13 40.3343 1812.08 11.0118 1836.37 4.36411C1837.1 4.18198 1836.78 3.13475 1836.05 3.27134H1836.1Z" fill="#806743"/>
<path d="M1811.71 339.753C1811.71 338.979 1810.43 338.797 1810.34 339.571C1806.64 361.927 1807.6 385.877 1810.02 408.324C1812.13 427.811 1815.74 447.709 1821.92 466.514C1822.69 465.466 1823.47 464.419 1824.34 463.463C1819.12 444.977 1814.64 426.537 1812.4 407.277C1809.79 384.602 1810.8 362.473 1811.76 339.798L1811.71 339.753Z" fill="#5E4543"/>
<path d="M1916.52 192.912C1916.52 192.912 1916.89 192.912 1917.07 192.821C1916.98 192.821 1916.93 192.821 1916.84 192.821C1916.75 192.821 1916.61 192.867 1916.52 192.958V192.912Z" fill="#3F2C2B"/>
<path d="M1919.4 191.683C1919.08 192.047 1918.63 192.366 1918.17 192.548C1917.71 192.73 1917.3 192.73 1916.84 192.821C1916.93 192.821 1916.98 192.821 1917.07 192.821C1916.89 192.821 1916.71 192.866 1916.52 192.912C1916.61 192.866 1916.75 192.821 1916.84 192.775C1916.8 192.775 1916.75 192.775 1916.71 192.775C1915.84 192.548 1915.52 193.823 1916.34 194.096C1916.8 194.278 1917.03 194.506 1917.53 194.46C1917.94 194.46 1918.4 194.369 1918.76 194.232C1919.63 193.914 1920.23 193.413 1920.69 192.639C1921.1 191.865 1920.05 190.909 1919.4 191.637V191.683Z" fill="#3F2C2B"/>
<path opacity="0.47" d="M1944.79 192.684C1949.69 222.371 1926.77 246.002 1918.81 272.866C1914.97 285.706 1912.77 298.91 1904.26 309.747C1895.84 320.447 1884.54 326.457 1871.55 329.963C1871 330.1 1871.28 330.828 1871.78 330.783C1883.72 329.053 1895.02 322.041 1902.94 313.162C1912.18 302.781 1915.29 290.123 1918.86 277.055C1926.54 248.734 1951.52 223.145 1946.44 192.229C1946.26 191.182 1944.66 191.637 1944.84 192.684H1944.79Z" fill="#423D32"/>
<path opacity="0.47" d="M1938.02 193.595C1941.32 222.052 1919.59 243.999 1911.35 269.588C1907.74 280.743 1905.91 292.809 1899.6 302.917C1891.73 315.53 1878.14 320.174 1864.78 324.909C1864.1 325.137 1864.37 326.229 1865.1 326.002C1877 322.587 1889.62 317.852 1897.77 308.108C1905.54 298.774 1908.06 286.526 1911.31 275.143C1919.13 247.824 1943.29 223.464 1939.81 193.595C1939.67 192.457 1937.89 192.457 1938.02 193.595Z" fill="#423D32"/>
<path d="M1928.78 197.647C1930.25 211.352 1925.26 223.464 1918.9 235.347C1913.37 245.729 1908.33 255.791 1904.77 266.992C1901.2 278.239 1896.85 288.62 1888.43 297.18C1880.56 305.148 1871.64 308.79 1861.58 313.07C1860.44 313.571 1861.3 315.119 1862.36 314.937C1883.9 311.477 1899.05 290.532 1905.27 271.409C1907.51 264.533 1909.48 257.704 1912.54 251.102C1915.52 244.727 1918.99 238.626 1922.15 232.297C1927.5 221.46 1931.85 209.713 1929.97 197.465C1929.88 196.827 1928.74 196.964 1928.83 197.647H1928.78Z" fill="#806743"/>
<path d="M1922.06 192.047C1924.12 205.16 1917.94 216.907 1912.86 228.564C1908.97 237.488 1905.91 246.731 1902.57 255.883C1895.39 275.37 1885 296.133 1863.91 303.418C1863.04 303.737 1863.41 305.103 1864.28 304.784C1884.45 298 1895.39 278.922 1902.62 260.163C1907.33 247.915 1911.44 235.621 1916.75 223.646C1921.28 213.401 1925.35 202.975 1923.57 191.637C1923.38 190.635 1921.88 191.045 1922.01 192.047H1922.06Z" fill="#806743"/>
<path d="M1790.62 217.499C1785.55 216.498 1779.55 216.452 1776.72 221.005C1776.85 221.552 1777.04 222.144 1777.17 222.69H1775.89C1776.12 222.053 1776.44 221.506 1776.76 221.005C1776.4 219.594 1775.98 218.137 1775.62 216.725C1775.53 216.407 1775.21 216.27 1774.89 216.316C1773.42 216.68 1771.96 216.816 1770.49 216.68C1770.04 216.999 1769.63 217.363 1769.17 217.682C1769.12 217.272 1769.08 216.907 1769.03 216.498C1769.53 216.589 1770.04 216.634 1770.49 216.68C1771.87 215.678 1773.24 214.676 1774.57 213.629C1775.11 213.219 1774.38 212.263 1773.83 212.673C1772.05 213.948 1770.27 215.268 1768.53 216.543C1768.02 216.907 1768.16 217.727 1768.85 217.773C1769.81 217.818 1772.96 217.363 1773.65 217.727C1775.53 218.683 1775.44 221.187 1775.89 223.054C1776.08 223.737 1776.99 223.601 1777.17 223.054C1779.32 217.636 1785.5 218.046 1790.21 219.002C1791.17 219.184 1791.58 217.727 1790.62 217.499Z" fill="#5E4543"/>
<path d="M1775.85 222.69H1777.13C1776.99 222.144 1776.81 221.552 1776.67 221.005C1776.35 221.506 1776.08 222.053 1775.8 222.69H1775.85Z" fill="#5E4543"/>
<path d="M1769.12 217.681C1769.58 217.363 1769.99 216.999 1770.45 216.68C1769.95 216.68 1769.44 216.589 1768.98 216.498C1769.03 216.907 1769.08 217.272 1769.12 217.681Z" fill="#5E4543"/>
<path opacity="0.47" d="M1825.53 333.514C1805.99 328.369 1797.44 305.649 1790.3 288.939C1781.06 267.311 1774.98 245 1777.72 221.369C1777.77 220.777 1776.81 220.641 1776.67 221.233C1771.87 245.046 1779.32 269.405 1788.66 291.124C1795.93 307.971 1804.85 331.056 1824.89 335.836C1826.4 336.201 1827.04 333.924 1825.53 333.514Z" fill="#423D32"/>
<path opacity="0.49" d="M1831.52 325.865C1823.47 327.96 1817.84 319.582 1813.68 314.118C1810.89 310.475 1808.19 306.742 1805.63 302.872C1800.18 294.63 1795.34 286.025 1791.36 276.964C1782.98 257.704 1779.87 237.943 1781.79 217.044C1781.79 216.589 1781.11 216.498 1781.02 216.953C1776.72 238.945 1782.43 262.348 1791.81 282.337C1796.98 293.355 1803.43 303.782 1810.75 313.481C1815.69 320.037 1822.37 330.327 1831.98 327.641C1833.17 327.322 1832.67 325.501 1831.48 325.82L1831.52 325.865Z" fill="#9A938A"/>
<path opacity="0.49" d="M1836.23 318.398C1816.88 313.526 1807.78 296.087 1800 279.377C1795.84 270.407 1791.81 261.301 1789.02 251.785C1785.82 240.766 1785.55 230.567 1787.19 219.275C1787.28 218.819 1786.64 218.592 1786.46 219.093C1779.46 239.309 1790.03 262.166 1798.4 280.287C1805.99 296.725 1815.97 316.394 1835.73 320.082C1836.83 320.265 1837.33 318.671 1836.19 318.352L1836.23 318.398Z" fill="#9A938A"/>
<path opacity="0.47" d="M1779.87 281.244C1776.35 270.498 1772.64 259.661 1770.63 248.506C1768.53 236.85 1769.49 227.015 1773.93 216.087C1774.11 215.632 1773.42 215.404 1773.15 215.769C1767.38 223.919 1767.2 235.575 1768.39 245.091C1769.99 258.022 1774.34 270.544 1778.36 282.883C1784.86 302.689 1791.36 324.135 1808.97 337.02C1809.97 337.749 1810.98 336.064 1809.97 335.335C1792.59 322.586 1786.32 300.777 1779.87 281.289V281.244Z" fill="#423D32"/>
<path opacity="0.47" d="M1859.29 36.464C1858.93 24.3525 1857.55 10.4652 1847.31 2.40608C1847.08 2.22395 1846.71 2.54268 1846.94 2.77034C1857.46 13.2882 1857.87 28.1771 1858.06 42.1554C1858.29 59.0022 1858.47 75.8491 1858.61 92.6959C1858.83 125.251 1860.16 157.852 1859.43 190.362C1859.06 206.708 1856.82 222.735 1855.08 238.944C1853.48 254.198 1854.03 268.904 1856.27 284.021C1858.7 300.321 1860.34 315.939 1858.47 332.376C1856.68 348.084 1853.89 363.52 1853.39 379.365C1852.98 393.662 1853.8 407.959 1855.81 422.074C1855.91 422.074 1856 422.074 1856.09 422.028C1856.64 421.755 1857.14 421.482 1857.69 421.163C1856 409.097 1855.13 396.895 1855.22 384.692C1855.36 368.528 1857.51 352.683 1859.57 336.701C1861.53 321.266 1861.35 306.514 1859.11 291.124C1856.64 274.277 1854.99 258.204 1856.64 241.175C1858.19 224.966 1860.66 208.893 1861.12 192.593C1862.08 159.355 1860.8 125.934 1860.16 92.6959C1859.79 73.9367 1859.84 55.1776 1859.29 36.464Z" fill="#423D32"/>
<path d="M1843.01 2.31557C1851.88 32.3666 1850.97 63.7381 1850.6 94.6998C1850.23 126.344 1849.82 157.944 1849.46 189.588C1848.68 253.606 1847.76 317.624 1846.99 381.642C1846.76 399.673 1846.89 417.476 1848.22 435.187C1848.77 433.913 1849.32 432.638 1849.78 431.363C1849.87 431.09 1849.96 430.816 1850.1 430.498C1849.18 416.565 1849 402.587 1849.14 388.472C1849.5 356.873 1849.82 325.273 1850.19 293.72C1850.92 229.702 1851.65 165.684 1852.43 101.666C1852.84 68.3824 1854.4 34.1424 1844.24 1.99685C1844.01 1.26834 1842.82 1.54153 1843.05 2.31557H1843.01Z" fill="#5E4543"/>
<path d="M1866.57 330.919C1860.16 354.049 1859.89 378.773 1862.4 402.495C1862.49 403.133 1863.5 403.178 1863.45 402.495C1862.68 378.5 1861.94 354.869 1868.53 331.465C1868.9 330.191 1866.89 329.644 1866.52 330.919H1866.57Z" fill="#5E4543"/>
<path d="M1829.05 4.72846C1820.18 17.1587 1818.48 32.5485 1818.39 47.3919C1818.3 66.5608 1819.49 85.8208 1820.13 104.99C1821.46 144.785 1822.78 184.534 1824.16 224.329C1824.93 246.594 1826.31 268.495 1819.99 290.214C1819.63 291.488 1821.64 292.035 1822.01 290.76C1827.04 273.458 1827.18 256.11 1826.54 238.262C1825.85 218.546 1825.16 198.877 1824.48 179.161C1823.1 139.776 1821.69 100.391 1820.31 60.9604C1819.63 41.928 1818.8 21.8029 1830.01 5.32037C1830.42 4.68293 1829.42 4.13655 1829.01 4.72846H1829.05Z" fill="#B9BBA4"/>
<path d="M1820.45 336.565C1820.45 335.472 1818.76 335.472 1818.71 336.565C1817.71 377.68 1816.93 420.162 1827.18 460.321C1827.45 460.047 1827.73 459.774 1828 459.501C1818.71 419.205 1819.4 377.862 1820.45 336.565Z" fill="#B9BBA4"/>
<path d="M1835.09 4.0908C1825.85 17.887 1827.08 35.4168 1826.99 51.2619C1826.9 72.0244 1827.04 92.787 1827.18 113.595C1827.45 154.346 1828.82 195.052 1830.38 235.757C1831.25 259.024 1831.57 282.2 1829.05 305.375C1828.91 306.605 1830.79 306.559 1830.97 305.375C1835.78 265.99 1831.71 225.786 1830.52 186.264C1829.28 146.651 1828.55 107.038 1828.41 67.4257C1828.41 56.6802 1828.23 45.8891 1828.46 35.1436C1828.69 24.4436 1829.88 13.7436 1835.87 4.59165C1836.23 4.04527 1835.37 3.58995 1835.04 4.0908H1835.09Z" fill="#806743"/>
<path d="M1827.91 333.925C1827.91 333.105 1826.67 333.105 1826.63 333.925C1824.71 359.195 1826.08 385.239 1828.59 410.418C1830.01 424.715 1831.89 439.149 1834.45 453.4C1835.18 452.763 1835.87 452.08 1836.6 451.397C1834.04 437.1 1831.8 422.757 1830.38 408.233C1828 383.418 1827.95 358.831 1827.95 333.925H1827.91Z" fill="#5E4543"/>
<path d="M1840.08 1.49618C1840.08 0.175753 1838.02 0.175753 1837.97 1.49618C1835.73 62.7821 1839.94 124.068 1841.86 185.308C1842.82 215.724 1843.33 246.185 1842.41 276.6C1841.5 307.471 1837.65 338.205 1837.84 369.075C1838.02 394.801 1839.94 420.617 1841.91 446.343C1842.32 445.979 1842.68 445.614 1843.1 445.205C1841.72 423.623 1840.26 402.04 1839.57 380.413C1838.61 349.497 1842.18 318.808 1843.42 287.937C1845.89 226.697 1842.5 165.411 1840.53 104.171C1839.44 69.8851 1839.07 35.6906 1840.03 1.40511L1840.08 1.49618Z" fill="#806743"/>
<path d="M1857.42 11.9226C1853.16 12.3324 1849.91 16.3392 1845.29 12.9243C1844.29 12.1958 1843.83 10.7843 1842.46 10.5111C1840.08 10.1013 1839.94 11.9681 1838.75 13.243C1836.51 15.5651 1829.6 18.2515 1830.84 11.6039C1830.93 11.103 1830.42 10.6022 1829.92 10.9209C1826.49 13.0154 1822.51 16.0205 1819.44 17.8873C1820.18 17.432 1819.54 16.2937 1818.76 16.7034C1817.52 17.432 1817.52 17.2954 1817.34 18.7524C1817.25 19.2988 1817.8 19.8451 1818.35 19.5264C1820.36 18.2515 1822.42 16.9766 1824.43 15.7017C1825.35 15.1098 1828.18 12.6966 1829.1 12.7422C1829.69 12.7422 1829.1 15.4286 1829.92 16.5668C1832.71 20.6647 1835.64 14.609 1838.7 15.8383C1839.03 15.9749 1839.44 15.7017 1839.53 15.383C1840.99 9.78259 1844.88 15.383 1848.13 15.8383C1850.78 16.1571 1863.59 10.5111 1863.55 15.7473C1863.55 16.2937 1864.14 16.4303 1864.51 16.1571C1864.69 16.0205 1864.87 15.8839 1865.06 15.7017C1865.33 15.4741 1865.42 14.9277 1865.19 14.609C1863.59 12.2868 1860.11 11.6039 1857.42 11.8771V11.9226Z" fill="#806743"/>
<path d="M1809.97 48.1201C1809.33 48.029 1808.65 47.938 1808.01 47.8014C1807.41 47.7103 1806.31 47.5282 1805.77 47.255C1805.08 46.8907 1804.58 47.8469 1805.17 48.2567C1805.72 48.6209 1806.09 49.2584 1806.64 49.7137C1807.41 50.3056 1808.05 50.7609 1808.92 51.2163C1810.43 52.0358 1812.03 52.6278 1813.5 51.4439C1814 51.0341 1814.05 50.1235 1813.73 49.6226C1812.86 48.2567 1811.39 48.3022 1809.93 48.0746L1809.97 48.1201Z" fill="#3F2C2B"/>
<path d="M1872.65 33.8692C1872.65 33.8692 1872.15 34.279 1872.24 34.2335C1872.28 34.2335 1871.78 34.2335 1871.64 34.2335C1871.19 34.3701 1870.77 34.8254 1870.36 35.0986C1869.49 35.6905 1868.58 36.2369 1867.71 36.8288C1866.61 37.6029 1867.25 39.4241 1868.67 39.0599C1869.86 38.7412 1870.91 38.0582 1871.83 37.2386C1872.24 36.8743 1872.7 36.419 1872.97 35.9637C1873.15 35.645 1873.02 35.3718 1873.11 35.0531C1873.11 35.2807 1873.38 34.4156 1873.38 34.3701C1873.61 33.9148 1873.06 33.4595 1872.65 33.8237V33.8692Z" fill="#3F2C2B"/>
<path d="M1876.36 75.1206C1875.85 75.4393 1875.12 75.3938 1874.48 75.5759C1873.66 75.8491 1872.79 76.0767 1871.96 76.3044C1870.45 76.6687 1868.58 76.4865 1867.53 77.7614C1866.89 78.5355 1866.84 79.4916 1867.53 80.2657C1868.99 81.8593 1871.64 81.1763 1873.43 80.4933C1874.34 80.1746 1875.21 79.7193 1876.04 79.1729C1876.9 78.581 1877.18 77.7614 1877.96 77.124C1879.1 76.2133 1877.64 74.3465 1876.4 75.1206H1876.36Z" fill="#3F2C2B"/>
<path d="M1836.74 150.977C1836.74 150.977 1837.06 150.795 1837.24 150.704H1837.01C1837.01 150.704 1836.83 150.886 1836.74 150.977Z" fill="#3F2C2B"/>
<path d="M1836.23 152.798C1836.23 152.798 1836.42 152.798 1836.51 152.798C1836.33 152.707 1836.1 152.616 1835.91 152.571C1836.01 152.662 1836.14 152.707 1836.23 152.798Z" fill="#3F2C2B"/>
<path d="M1838.61 150.34C1838.02 150.385 1837.47 150.431 1837.06 150.75H1837.29C1837.29 150.75 1836.97 150.886 1836.78 150.977C1836.87 150.886 1836.97 150.795 1837.06 150.75C1836.69 150.841 1836.33 150.932 1836.05 151.159C1835.78 151.387 1835.59 151.569 1835.23 151.706C1834.72 151.933 1835 152.662 1835.5 152.662C1835.78 152.662 1836.01 152.662 1836.28 152.753C1836.19 152.707 1836.05 152.616 1835.96 152.525C1836.14 152.616 1836.37 152.707 1836.55 152.753C1836.46 152.753 1836.37 152.753 1836.28 152.753C1836.65 152.935 1837.01 152.935 1837.52 152.89C1837.38 152.89 1837.2 152.798 1837.06 152.707C1837.24 152.753 1837.42 152.798 1837.61 152.844H1837.52C1838.02 152.981 1838.43 152.844 1838.98 152.707C1840.26 152.343 1840.08 150.112 1838.66 150.294L1838.61 150.34Z" fill="#3F2C2B"/>
<path d="M1837.42 152.935H1837.52C1837.52 152.935 1837.15 152.798 1836.97 152.753C1837.15 152.844 1837.29 152.889 1837.42 152.935Z" fill="#3F2C2B"/>
<path d="M1834.13 92.6509C1834.13 92.6509 1834.22 92.7419 1834.27 92.7419C1834.18 92.6053 1834.04 92.4687 1833.95 92.2866C1833.99 92.4232 1834.08 92.5143 1834.13 92.6053V92.6509Z" fill="#5E4543"/>
<path d="M1834.31 91.467C1834.31 91.467 1834.68 91.4215 1834.86 91.376H1834.59C1834.59 91.376 1834.36 91.376 1834.27 91.467H1834.31Z" fill="#5E4543"/>
<path d="M1838.52 90.9204C1837.29 90.7838 1835.73 90.7838 1834.59 91.3301H1834.86C1834.86 91.3301 1834.5 91.4212 1834.31 91.4667C1834.4 91.4212 1834.5 91.3757 1834.63 91.3301C1834.5 91.3301 1834.4 91.3301 1834.27 91.2391C1833.58 91.057 1833.22 91.9676 1833.81 92.3774C1833.95 92.4684 1834.08 92.5595 1834.18 92.6506C1834.13 92.514 1834.04 92.4229 1833.99 92.3318C1834.13 92.4684 1834.22 92.605 1834.31 92.7872C1834.27 92.7872 1834.22 92.7416 1834.18 92.6961C1835.09 94.2897 1837.33 94.745 1838.98 94.1076C1840.72 93.4701 1840.35 91.1935 1838.57 90.9659L1838.52 90.9204Z" fill="#5E4543"/>
<path d="M1849.36 109.588C1848.72 109.361 1848.17 109.588 1847.53 109.816C1847.03 109.953 1846.48 110.135 1845.98 110.271C1844.42 110.727 1845.06 113.094 1846.66 112.73C1847.17 112.594 1847.72 112.457 1848.22 112.366C1848.82 112.229 1849.46 112.138 1849.87 111.637C1850.46 110.954 1850.23 109.953 1849.32 109.634L1849.36 109.588Z" fill="#5E4543"/>
<path d="M1816.7 199.195C1814.55 199.651 1812.49 200.197 1810.25 200.061C1809.56 200.061 1809.06 201.062 1809.65 201.518C1810.2 201.927 1810.52 202.383 1811.21 202.61C1811.9 202.884 1812.58 203.111 1813.31 203.339C1814.87 203.84 1816.29 203.794 1817.84 203.248C1820.36 202.337 1819.4 198.649 1816.75 199.241L1816.7 199.195Z" fill="#3F2C2B"/>
<path d="M1810.11 162.906C1809.61 162.815 1809.06 162.633 1808.6 162.405C1808.33 162.269 1808.1 162.041 1807.82 161.95C1807.6 161.859 1807.32 161.859 1807.14 161.768C1806.41 161.358 1805.67 162.132 1805.99 162.906C1806.18 163.225 1806.09 163.498 1806.36 163.817C1806.59 164.09 1806.91 164.318 1807.18 164.5C1807.87 165.046 1808.56 165.41 1809.38 165.638C1810.94 166.139 1812.86 166.367 1813.82 164.819C1814.09 164.363 1813.91 163.771 1813.45 163.498C1812.4 162.815 1811.3 163.134 1810.16 162.952L1810.11 162.906Z" fill="#3F2C2B"/>
<path d="M1826.63 62.3261C1825.99 62.0984 1825.58 62.235 1824.93 62.3261C1823.93 62.5082 1823.93 64.1929 1824.93 64.375C1825.58 64.4661 1825.99 64.6027 1826.63 64.375C1827.63 64.0108 1827.63 62.6904 1826.63 62.3261Z" fill="#3F2C2B"/>
<path d="M1906 239.218C1904.63 239.081 1903.3 238.626 1902.07 238.079C1900.79 237.487 1899.6 238.945 1900.56 240.037C1901.84 241.494 1903.62 242.359 1905.54 242.633C1908.01 242.997 1908.52 239.491 1906 239.263V239.218Z" fill="#3F2C2B"/>
<path d="M1866.61 259.935C1865.56 260.208 1864.55 260.481 1863.5 260.709C1862.36 260.936 1860.94 261.892 1861.53 263.258C1862.08 264.533 1863.68 264.351 1864.64 263.668C1865.56 263.031 1866.47 262.348 1867.39 261.71C1868.3 261.073 1867.75 259.616 1866.61 259.889V259.935Z" fill="#3F2C2B"/>
<path d="M1796.85 240.357C1796.85 240.357 1797.17 240.448 1797.3 240.493C1797.21 240.448 1797.07 240.402 1796.98 240.357H1796.85Z" fill="#5E4543"/>
<path d="M1797.62 241.859C1797.62 241.859 1797.71 241.631 1797.76 241.494C1797.62 241.677 1797.49 241.859 1797.35 242.041C1797.44 241.95 1797.53 241.904 1797.67 241.859H1797.62Z" fill="#5E4543"/>
<path d="M1797.3 240.31C1797.3 240.31 1797.07 240.31 1796.98 240.31C1797.07 240.31 1797.17 240.401 1797.3 240.447C1797.17 240.447 1796.98 240.356 1796.85 240.31H1796.98C1796.48 240.128 1796.11 240.128 1795.56 240.401C1795.2 240.584 1794.88 240.811 1794.6 241.084C1794.05 241.54 1793.6 242.177 1793.28 242.815C1792.91 243.589 1793.09 244.499 1793.96 244.818C1794.83 245.182 1795.56 244.681 1795.88 243.907C1795.98 243.634 1796.3 243.27 1796.52 242.997C1796.66 242.86 1796.75 242.769 1796.89 242.678C1797.26 242.405 1797.44 242.177 1797.58 241.858C1797.49 241.904 1797.39 241.995 1797.26 242.041C1797.39 241.858 1797.53 241.676 1797.67 241.494C1797.67 241.631 1797.58 241.767 1797.53 241.858C1797.53 241.858 1797.62 241.858 1797.62 241.813C1798.31 241.403 1797.99 240.356 1797.21 240.356L1797.3 240.31Z" fill="#5E4543"/>
<path d="M1764.32 276.645C1764.32 276.645 1764.68 276.645 1764.91 276.736C1764.82 276.736 1764.78 276.69 1764.68 276.645C1764.55 276.645 1764.46 276.645 1764.32 276.645Z" fill="#5E4543"/>
<path d="M1767.02 277.055C1766.19 276.964 1765.46 276.554 1764.68 276.6C1764.78 276.6 1764.82 276.691 1764.91 276.691C1764.73 276.691 1764.55 276.691 1764.32 276.6C1764.46 276.6 1764.55 276.6 1764.68 276.6C1764.55 276.554 1764.41 276.463 1764.23 276.418C1763.63 276.144 1762.95 276.873 1763.45 277.374C1763.86 277.784 1764.09 278.284 1764.59 278.603C1765.1 278.967 1765.78 279.149 1766.33 279.332C1767.57 279.696 1768.98 279.969 1769.95 278.922C1770.36 278.466 1770.27 277.875 1769.76 277.556C1768.89 276.964 1767.98 277.146 1766.97 277.055H1767.02Z" fill="#5E4543"/>
<path d="M1873.75 168.188C1872.56 168.734 1871.32 169.281 1870.23 170.055C1868.76 171.148 1870 173.379 1871.69 172.514C1872.97 171.876 1874.11 170.92 1875.21 170.055C1875.67 169.691 1875.62 168.916 1875.3 168.507C1874.89 168.006 1874.34 167.96 1873.79 168.188H1873.75Z" fill="#3F2C2B"/>
<path d="M1868.62 387.47C1868.35 387.515 1867.94 387.47 1867.66 387.47C1867.34 387.47 1867.02 387.47 1866.75 387.561C1866.06 387.698 1865.38 387.925 1864.69 388.107C1862.54 388.563 1863.87 392.16 1865.88 390.93C1866.47 390.566 1867.16 390.338 1867.75 389.929C1868.26 389.61 1868.67 389.018 1869.17 388.745C1869.86 388.335 1869.4 387.379 1868.67 387.515L1868.62 387.47Z" fill="#3F2C2B"/>
<path d="M1832.99 371.716C1832.99 371.716 1833.35 371.534 1833.49 371.397C1833.4 371.397 1833.35 371.488 1833.26 371.488C1833.17 371.579 1833.08 371.625 1832.99 371.67V371.716Z" fill="#3F2C2B"/>
<path d="M1833.49 371.397C1833.49 371.397 1833.17 371.579 1832.99 371.67C1833.08 371.579 1833.17 371.534 1833.26 371.488C1833.12 371.534 1832.99 371.625 1832.85 371.67C1832.35 371.898 1832.16 372.581 1832.39 373.082C1832.62 373.628 1833.12 373.81 1833.72 373.719C1833.95 373.719 1834.59 373.901 1834.91 373.992C1835.37 374.129 1835.87 374.266 1836.33 374.448C1837.65 374.903 1838.66 373.036 1837.7 372.126C1836.65 371.124 1834.82 370.714 1833.49 371.443V371.397Z" fill="#3F2C2B"/>
<path d="M1833.54 371.397C1833.54 371.397 1833.4 371.488 1833.31 371.488C1833.35 371.488 1833.44 371.488 1833.49 371.397H1833.54Z" fill="#3F2C2B"/>
<path d="M1829.37 414.789C1828.69 414.834 1828 415.107 1827.27 415.244C1826.4 415.472 1825.62 415.381 1824.75 415.244C1823.84 415.062 1823.42 416.428 1824.39 416.655C1826.03 417.065 1828.55 417.111 1829.83 415.881C1830.2 415.517 1829.92 414.743 1829.37 414.834V414.789Z" fill="#3F2C2B"/>
<path d="M1793.73 316.486C1792.87 316.714 1792.18 317.214 1791.4 317.624C1790.49 318.125 1789.48 318.307 1788.43 318.307C1787.51 318.307 1787.51 319.673 1788.43 319.719C1790.49 319.81 1793.6 319.263 1794.28 317.032C1794.37 316.668 1794.05 316.349 1793.69 316.44L1793.73 316.486Z" fill="#3F2C2B"/>
<path d="M1817.48 299.684C1817.57 299.912 1817.48 300.049 1817.2 300.185C1817.16 300.185 1816.97 300.185 1816.93 300.185C1816.97 300.185 1816.93 300.185 1816.93 300.185C1816.88 300.185 1816.7 300.185 1816.65 300.185C1816.56 300.185 1816.47 300.185 1816.38 300.185C1816.15 300.185 1815.92 300.322 1815.83 300.595C1815.69 301.142 1816.06 301.597 1816.56 301.779C1817.07 301.961 1817.57 301.87 1818.03 301.597C1818.9 301.096 1819.44 300.049 1818.85 299.093C1818.39 298.41 1817.11 298.865 1817.48 299.684Z" fill="#3F2C2B"/>
<path d="M1762.95 252.923C1761.89 252.832 1760.84 253.06 1759.79 253.06C1758.74 253.06 1758.74 254.699 1759.79 254.699C1760.84 254.699 1761.89 254.926 1762.95 254.881C1764.23 254.79 1764.23 253.014 1762.95 252.923Z" fill="#5E4543"/>
<path opacity="0.53" d="M1877.41 331.602C1858.01 333.014 1861.49 300.094 1866.89 289.895C1866.43 290.487 1865.97 291.079 1865.56 291.671C1860.3 299.366 1858.65 310.521 1860.3 319.491C1861.9 328.005 1867.94 337.066 1877.45 336.429C1880.56 336.201 1880.56 331.375 1877.45 331.602H1877.41Z" fill="#3F2C2B"/>
<path opacity="0.53" d="M1827.82 300.367C1825.94 299.457 1824.25 302.28 1826.17 303.19C1833.67 306.787 1836.97 315.894 1834.13 323.68C1830.61 333.332 1819.22 337.294 1809.75 336.019C1807.23 335.7 1806.68 339.16 1809.29 339.479C1820.27 340.891 1832.94 336.155 1837.15 325.228C1840.67 315.985 1836.92 304.693 1827.82 300.367Z" fill="#3F2C2B"/>
<path d="M1871.19 334.562C1869.68 357.783 1860.48 380.458 1861.94 403.77C1862.22 408.233 1862.68 412.74 1863.18 417.202C1864.23 416.337 1865.28 415.472 1866.34 414.653C1865.88 410.281 1865.51 405.91 1865.33 401.585C1864.78 389.246 1867.89 377.498 1870.32 365.478C1872.33 355.461 1873.98 345.353 1874.66 335.154C1874.57 335.154 1874.53 335.154 1874.43 335.154C1873.29 335.154 1872.24 334.926 1871.23 334.562L1871.19 334.562Z" fill="#93816E"/>
<g style="mix-blend-mode:color-burn">
<path d="M1910.16 273.867C1905.68 283.839 1903.35 294.676 1897.31 303.918C1895.98 305.967 1894.43 308.016 1892.14 308.927C1889.85 309.838 1886.74 308.927 1886.05 306.65C1885.14 303.645 1890.03 297.316 1891.41 294.493C1893.69 289.849 1896.58 284.34 1899.69 280.242C1895.25 286.024 1890.58 291.397 1885.05 296.133C1883.72 297.271 1871.32 304.738 1870.45 299.547C1869.81 295.632 1873.2 292.308 1876.26 289.758C1865.79 296.133 1865.1 283.11 1863.5 275.643C1861.58 266.719 1861.67 257.749 1862.59 248.825C1863.82 236.486 1866.61 224.147 1867.8 211.898C1869.86 191.181 1870.41 170.146 1870.73 149.292C1870.59 157.716 1869.13 165.82 1866.93 173.97C1865.83 177.977 1860.89 184.761 1861.12 176.247C1861.03 179.844 1860.89 183.441 1860.8 187.084C1860.66 192.183 1858.79 202.519 1854.17 205.342C1853.71 204.796 1853.48 204.158 1853.34 203.475C1852.38 198.831 1851.93 194.05 1851.97 189.269C1851.01 202.974 1849.78 216.679 1848.82 230.384C1846.71 224.966 1844.65 219.548 1842.55 214.13C1844.24 218.455 1842.59 226.742 1842.55 231.477C1842.55 237.26 1842.46 243.042 1842.41 248.825C1842.27 260.481 1842.32 272.228 1841.31 283.884C1841.13 286.207 1840.17 289.166 1837.84 289.121C1835.96 289.121 1834.86 286.981 1834.36 285.159C1832.07 276.964 1832.44 268.313 1832.85 259.798C1831.52 271.682 1828.27 285.933 1829.78 297.817C1830.88 306.514 1837.42 313.48 1835.69 322.678C1834.54 328.824 1828.27 341.255 1820.73 336.747C1816.97 352.137 1819.44 371.624 1821.27 387.287C1822.42 384.282 1821.82 379.638 1824.98 379.092C1827.36 378.682 1828.96 381.414 1829.74 383.69C1834.91 398.306 1839.21 413.241 1842.59 428.403C1842.14 422.392 1842.73 416.337 1844.29 410.554C1844.93 408.232 1845.89 405.773 1848.04 404.726C1850.19 403.679 1853.48 405.409 1852.84 407.731C1853.85 399.353 1855.72 389.655 1863.27 385.83C1861.95 380.776 1863.87 332.74 1866.89 332.831C1869.4 332.922 1871.87 334.152 1873.38 336.11C1872.01 335.017 1873.11 332.831 1874.34 331.556C1881.57 324.317 1891.59 322.45 1900.37 317.897C1914.78 310.43 1924.48 294.63 1924.57 278.466C1923.11 280.97 1919.59 282.063 1916.98 280.743C1917.48 268.449 1920.23 256.247 1925.08 244.909C1919.08 253.97 1914.51 264.124 1910.07 274.004L1910.16 273.867Z" fill="url(#paint0_radial_345_7)"/>
</g>
<g clip-path="url(#clip0_345_7)">
<path fill-rule="evenodd" clip-rule="evenodd" d="M-21.0642 470L-4.12232 403.731L8.08991 395.86L16.7003 353.739L33.8726 196.945L35.9828 191.887L73.8807 168.334L83.3885 170.347L82.9277 194.264V213.5L85.6927 165.448L104.429 129.148L131.534 125L135.56 144.126L138.447 144.999L131.68 277.731H135.912L138.35 443.209L140.727 447.102L172.706 462.869L176.163 470H-21.0642Z" fill="url(#paint1_linear_345_7)"/>
<g style="mix-blend-mode:soft-light">
<path fill-rule="evenodd" clip-rule="evenodd" d="M131.534 125L113.064 149.754V170.493H116.52L135.56 144.126L131.534 125Z" fill="#FFCF9D"/>
</g>
<g style="mix-blend-mode:soft-light">
<path fill-rule="evenodd" clip-rule="evenodd" d="M135.912 277.731L98.3779 326.086L63.3663 437.593L110.044 357.668L124.318 343.806L56.0172 452.717L51.6998 470L98.3779 467.405L138.35 443.209L135.912 277.731Z" fill="#FFCF9D"/>
</g>
<path fill-rule="evenodd" clip-rule="evenodd" d="M140.727 447.102L98.3779 469.175L172.706 462.869L140.727 447.102Z" fill="#CF7F6C"/>
<path fill-rule="evenodd" clip-rule="evenodd" d="M-4.12231 403.731L59.4856 368.001L38.7357 395.86L-4.12231 403.731Z" fill="#CF7F6C"/>
<path fill-rule="evenodd" clip-rule="evenodd" d="M113.064 149.754L85.6927 165.448L104.429 129.148L131.534 125L113.064 149.754Z" fill="#CF7F6C"/>
<path fill-rule="evenodd" clip-rule="evenodd" d="M135.56 144.126L116.52 170.493H119.334L138.447 144.999L135.56 144.126Z" fill="#CF7F6C"/>
<path fill-rule="evenodd" clip-rule="evenodd" d="M58.0424 193.682L35.9828 191.887L73.8807 168.334L83.3885 170.348L58.0424 193.682Z" fill="#CF7F6C"/>
<path fill-rule="evenodd" clip-rule="evenodd" d="M131.68 277.731L98.3779 294.25V326.086L135.912 277.731H131.68Z" fill="#CF7F6C"/>
<path fill-rule="evenodd" clip-rule="evenodd" d="M8.08997 395.86L43.9262 368.001L57.3148 341.647L77.5554 373.872L59.4856 368.001L8.08997 395.86Z" fill="#4E223B"/>
<path opacity="0.5" fill-rule="evenodd" clip-rule="evenodd" d="M85.6928 165.448L84.286 184.307L86.5538 219.625L113.064 193.682L119.334 170.493H113.064V149.754L85.6928 165.448Z" fill="#4E223B"/>
<path fill-rule="evenodd" clip-rule="evenodd" d="M91.3441 294.25L98.378 286.172L121.711 260.242L124.318 259.672L98.378 294.25V326.086L84.286 334.976L91.3441 294.25Z" fill="#4E223B"/>
<path fill-rule="evenodd" clip-rule="evenodd" d="M38.7357 395.86L23.1763 447.102L38.7357 414.101L23.1763 470H-21.0642L-4.12232 403.731L38.7357 395.86Z" fill="#4E223B"/>
<path opacity="0.5" fill-rule="evenodd" clip-rule="evenodd" d="M87.6937 237.247L108.613 226.853L107.207 234.288L87.9969 242.11L87.6937 237.247Z" fill="#4E223B"/>
<path opacity="0.5" fill-rule="evenodd" clip-rule="evenodd" d="M88.8701 255.633H103.144L89.1248 259.672L88.8701 255.633Z" fill="#4E223B"/>
<path opacity="0.5" fill-rule="evenodd" clip-rule="evenodd" d="M57.3147 204.052L31.3986 219.625L22.3759 301.915L51.6998 284.887L57.3147 204.052Z" fill="#4E223B"/>
<g style="mix-blend-mode:soft-light">
<path fill-rule="evenodd" clip-rule="evenodd" d="M138.447 144.999L119.334 170.493L98.3779 280.702V286.172L121.711 260.242L124.318 259.672L98.3779 294.25L131.68 277.731L138.447 144.999Z" fill="#FFCF9D"/>
</g>
<g style="mix-blend-mode:soft-light">
<path fill-rule="evenodd" clip-rule="evenodd" d="M83.3886 170.348L91.3441 294.25L77.5553 373.872L57.3148 341.647V251.74L49.1046 322.193L58.0425 193.682L83.3886 170.348Z" fill="#FFCF9D"/>
</g>
<path fill-rule="evenodd" clip-rule="evenodd" d="M49.1045 322.193L13.7776 368.001L56.8539 317.875L57.3147 251.74L49.1045 322.193Z" fill="#4E223B"/>
<g style="mix-blend-mode:soft-light">
<path fill-rule="evenodd" clip-rule="evenodd" d="M-21.0642 470L-9.72515 425.647L3.53003 423.767L-0.738794 451.274L2.7175 457.035L16.3244 399.972L28.9611 397.655L8.08991 470H-21.0642Z" fill="#8B90A1"/>
</g>
<g style="mix-blend-mode:soft-light">
<path fill-rule="evenodd" clip-rule="evenodd" d="M113.064 149.754V170.493H119.334L105.715 242.11H101.81L110.578 184.683L101.81 189.365L88.8701 252.977L84.286 184.307L85.6928 165.448L113.064 149.754Z" fill="#8B90A1"/>
</g>
<g style="mix-blend-mode:soft-light">
<path fill-rule="evenodd" clip-rule="evenodd" d="M58.0424 193.682L54.671 242.11L43.9261 277.731L35.5461 282.146L33.5451 242.11L28.9367 294.25L22.3759 304.037L33.6664 198.861L40.203 199.455L58.0424 193.682Z" fill="#8B90A1"/>
</g>
<g style="mix-blend-mode:soft-light">
<path fill-rule="evenodd" clip-rule="evenodd" d="M59.4855 368.001L59.6796 433.834L42.8226 470H23.1763L38.7356 414.101V395.86L59.4855 368.001Z" fill="#FFCF9D"/>
</g>
<path fill-rule="evenodd" clip-rule="evenodd" d="M50.6689 193.088L63.1358 188.989L57.6664 199.104L50.6689 193.088Z" fill="#A15556"/>
<path fill-rule="evenodd" clip-rule="evenodd" d="M109.644 151.719L115.502 146.491L113.064 153.962L109.644 151.719Z" fill="#A15556"/>
<path fill-rule="evenodd" clip-rule="evenodd" d="M28.9611 397.655L38.7357 400.639L43.2956 389.735L28.9611 397.655Z" fill="#A15556"/>
<g style="mix-blend-mode:color-dodge" opacity="0.15">
<path fill-rule="evenodd" clip-rule="evenodd" d="M134.578 220.886L105.327 244.148H88.1303L57.2056 268.174H55.4107L52.3547 270.551L25.2015 277.731V274.65L52.5608 269.193L55.726 265.457L57.1086 266.767L87.9969 242.11L106.152 238.132L134.893 214.579L134.578 220.886Z" fill="#B89C7E"/>
</g>
<g style="mix-blend-mode:color-dodge" opacity="0.15">
<path fill-rule="evenodd" clip-rule="evenodd" d="M135.56 201.493L109.644 221.468H87.6938L55.2046 234.482H29.7615L30.7438 222.572H55.811L87.6938 216.095L112.567 206.065L136.506 183.021L135.56 201.493Z" fill="#B85E3D"/>
</g>
<g style="mix-blend-mode:color-dodge" opacity="0.15">
<path fill-rule="evenodd" clip-rule="evenodd" d="M134.372 224.815L104.745 247.204L88.4214 246.161L57.145 276.057L54.671 274.505L52.3183 276.057L24.6923 279.95V282.473L52.0152 280.46L54.2951 277.731H57.1329L88.8701 247.75L104.187 250.163L113.282 243.857L133.802 236.18L134.372 224.815Z" fill="#B89C7E"/>
</g>
<g style="mix-blend-mode:color-dodge" opacity="0.15">
<path fill-rule="evenodd" clip-rule="evenodd" d="M137.78 404.119L57.8484 449.806L52.9126 448.351L27.6756 453.845L-18.9419 461.704L-20.0576 466.07L27.0692 456.028L52.1728 449.94L57.3148 452.426L101.689 427.066L137.913 413.519L137.78 404.119Z" fill="#B85E3D"/>
</g>
<g style="mix-blend-mode:color-dodge" opacity="0.15">
<path fill-rule="evenodd" clip-rule="evenodd" d="M138.022 421.062L106.37 428.4L55.3138 455.531L50.475 453.566L26.4871 458.139L10.9035 460.273L-20.3608 466.604L-21.0642 470L8.19906 469.636L25.0682 463.305L46.1819 462.796L53.3006 463.596L138.35 435.095L137.913 433.834L53.3249 462.335L55.047 457.144L108.104 430.886L138.083 424.944L138.022 421.062Z" fill="#B89C7E"/>
</g>
<g style="mix-blend-mode:soft-light" opacity="0.5">
<path fill-rule="evenodd" clip-rule="evenodd" d="M135.912 277.731L105.86 318.882L85.9838 380.688L92.3264 378.517L107.74 331.411L98.3779 366.134L109.183 352.308L129.485 329.215L135.912 277.731Z" fill="#C47A5F"/>
</g>
<g style="mix-blend-mode:soft-light" opacity="0.5">
<path fill-rule="evenodd" clip-rule="evenodd" d="M120.85 354.612L88.6519 406.472H95.0308L137.561 389.735L136.858 341.647L120.85 354.612Z" fill="#C47A5F"/>
</g>
<g style="mix-blend-mode:soft-light" opacity="0.5">
<path fill-rule="evenodd" clip-rule="evenodd" d="M137.27 352.016L107.304 383.708L89.3673 399.547L124.318 343.806L136.628 326.086L137.27 352.016Z" fill="#C47A5F"/>
</g>
<g style="mix-blend-mode:soft-light" opacity="0.69">
<path fill-rule="evenodd" clip-rule="evenodd" d="M57.6665 199.104L59.6918 290.854L64.4457 294.25V240.291L70.2304 234.482L73.5291 332.563L85.9838 298.858L75.9424 177.212L63.1359 188.989L57.6665 199.104Z" fill="#C47A5F"/>
</g>
<path fill-rule="evenodd" clip-rule="evenodd" d="M82.0909 426.205V423.609L88.6518 419.001L91.3441 419.874L82.0909 426.205Z" fill="#D6794F"/>
<path fill-rule="evenodd" clip-rule="evenodd" d="M88.6519 413.094L91.3441 409.347H95.0308L93.9151 411.227L90.4467 413.094H88.6519Z" fill="#D6794F"/>
<path d="M122.572 446.544H120.122V447.635H122.572V446.544Z" fill="#D6794F"/>
<path fill-rule="evenodd" clip-rule="evenodd" d="M96.2192 360.227V356.043H98.3779L97.4684 362.811L96.2192 360.227Z" fill="#D6794F"/>
<path fill-rule="evenodd" clip-rule="evenodd" d="M41.428 405.284L44.7873 400.639L43.2956 404.119L41.428 405.284Z" fill="#D6794F"/>
<path fill-rule="evenodd" clip-rule="evenodd" d="M49.8686 391.13L49.1046 388.971L49.8686 387.564L50.948 391.13H49.8686Z" fill="#D6794F"/>
<path fill-rule="evenodd" clip-rule="evenodd" d="M63.4755 341.647L62.1779 337.754L62.8327 334.297L64.2395 341.647H63.4755Z" fill="#D6794F"/>
<path fill-rule="evenodd" clip-rule="evenodd" d="M81.1935 332.563L81.9575 331.047L82.9277 331.811L82.0667 334.297L81.1935 332.563Z" fill="#D6794F"/>
<path fill-rule="evenodd" clip-rule="evenodd" d="M138.35 153.962L134.372 162.501V178.704L136.506 183.021L138.35 153.962Z" fill="#D6794F"/>
<path fill-rule="evenodd" clip-rule="evenodd" d="M131.534 181.008L129.703 183.022V188.989L131.534 181.008Z" fill="#D6794F"/>
<path fill-rule="evenodd" clip-rule="evenodd" d="M119.334 141.349L124.318 138.729V134.666L119.334 141.349Z" fill="#D6794F"/>
<path fill-rule="evenodd" clip-rule="evenodd" d="M56.5871 214.579L57.6664 224.815L55.2046 234.482L56.5871 214.579Z" fill="#D6794F"/>
<path fill-rule="evenodd" clip-rule="evenodd" d="M83.1339 264.341L80.0536 268.598L81.5938 275.087L83.1339 273.571V264.341Z" fill="#D6794F"/>
<path fill-rule="evenodd" clip-rule="evenodd" d="M134.893 208.758L124.318 223.251L134.893 214.579V208.758Z" fill="#D6794F"/>
<path fill-rule="evenodd" clip-rule="evenodd" d="M118.412 228.09H115.502L110.602 234.482L118.412 228.09Z" fill="#D6794F"/>
<path fill-rule="evenodd" clip-rule="evenodd" d="M104.308 423.246L109.39 416.624L126.028 409.347L133.28 406.691L104.308 423.246Z" fill="#D6794F"/>
<path fill-rule="evenodd" clip-rule="evenodd" d="M137.913 413.519L111.912 423.246L107.837 424.774L117.151 425.902L138.022 421.063L137.913 413.519Z" fill="#D6794F"/>
<g style="mix-blend-mode:multiply" opacity="0.46">
<path fill-rule="evenodd" clip-rule="evenodd" d="M133.802 236.18L113.282 243.857L104.187 250.163L88.8701 247.75L57.1328 277.731H54.295L52.0151 280.46L24.6922 282.473L24.2556 284.268L51.6998 281.673L54.5133 278.968L57.3147 279.405L88.8701 252.977H103.144L113.319 245.155L133.584 240.352L133.802 236.18Z" fill="#DE895F"/>
</g>
<path fill-rule="evenodd" clip-rule="evenodd" d="M152.32 469.139C152.32 469.139 159.318 428.667 160.664 423.949C162.022 419.231 183.233 379.281 183.233 379.281L190 373.859L184.809 382.131C184.809 382.131 169.02 418.297 163.829 433.53C158.639 448.763 152.32 469.127 152.32 469.127V469.139Z" fill="url(#paint2_linear_345_7)"/>
<path fill-rule="evenodd" clip-rule="evenodd" d="M154.127 470C154.127 470 170.596 449.018 176.235 437.957C181.875 426.896 184.809 406.666 184.809 406.666C184.809 406.666 173.749 429.152 167.892 439.995C162.034 450.837 152.32 469.151 152.32 469.151L154.127 470.012V470Z" fill="url(#paint3_linear_345_7)"/>
<path fill-rule="evenodd" clip-rule="evenodd" d="M150.283 470C150.283 470 153.218 431.19 152.308 422.615C151.411 414.04 148.925 396.43 148.925 396.43C148.925 396.43 156.953 420.735 157.05 431.299C157.147 441.862 154.115 470.012 154.115 470.012H150.283V470Z" fill="url(#paint4_linear_345_7)"/>
<path fill-rule="evenodd" clip-rule="evenodd" d="M157.062 470C157.062 470 167.443 456.683 171.166 453.979L161.125 470H157.062Z" fill="url(#paint5_linear_345_7)"/>
<path fill-rule="evenodd" clip-rule="evenodd" d="M150.283 470C150.283 470 141.272 452.402 140.023 440.443C140.023 440.443 153.218 462.335 154.115 470H150.283Z" fill="url(#paint6_linear_345_7)"/>
<path fill-rule="evenodd" clip-rule="evenodd" d="M179.752 385.866L177.242 392.707L176.672 394.514V396.418L177.667 398.807L184.81 382.143L190 373.872L183.233 379.281L179.752 385.866Z" fill="#814A10"/>
<path fill-rule="evenodd" clip-rule="evenodd" d="M175.011 397.97V399.547L172.561 402.943V401.936L173.216 399.547L175.011 397.97Z" fill="#814A10"/>
<path fill-rule="evenodd" clip-rule="evenodd" d="M180.407 415.556L174.72 426.872L177.57 423.258V428.085L179.777 429.031C179.777 429.031 183.536 417.242 184.822 406.678L180.407 415.568V415.556Z" fill="#814A10"/>
<path fill-rule="evenodd" clip-rule="evenodd" d="M176.163 429.019L175.011 429.698V431.323V433.809L176.163 429.019Z" fill="#814A10"/>
<path fill-rule="evenodd" clip-rule="evenodd" d="M148.937 396.418L150.817 410.39L151.095 412.415H152.32L152.999 414.95L155.68 421.038C155.68 421.038 151.629 401.803 148.937 396.406V396.418Z" fill="#814A10"/>
<path fill-rule="evenodd" clip-rule="evenodd" d="M153 417.849V421.511L154.127 423.246L155.68 425.902L153 417.849Z" fill="#814A10"/>
</g>
<g clip-path="url(#clip1_345_7)">
<path fill-rule="evenodd" clip-rule="evenodd" d="M357.04 412.44L296.01 386.45L290.96 413.72L297.46 451.25L283.93 449.63L268 463.98L269.56 469.67H436.23L426.19 445.39L385.86 422.22L376.28 426.84L372.82 434.17L357.04 412.44Z" fill="url(#paint7_linear_345_7)"/>
<g style="mix-blend-mode:soft-light">
<path fill-rule="evenodd" clip-rule="evenodd" d="M296.01 386.45L321.34 443.35L315.38 414.09L331.11 453.02L353.13 464.07L383.7 463.26L372.82 434.17L357.04 412.44L320.62 383L296.01 386.45Z" fill="#FFCF9D"/>
</g>
<g style="mix-blend-mode:soft-light">
<path fill-rule="evenodd" clip-rule="evenodd" d="M283.93 449.63L268 463.98L312.59 466.52L297.46 451.25L283.93 449.63Z" fill="#FFCF9D"/>
</g>
<g style="mix-blend-mode:soft-light">
<path fill-rule="evenodd" clip-rule="evenodd" d="M376.28 426.84L397.45 467.65L404.56 468.19L401.12 453.89L411.21 466.52L435.05 466.82L426.19 445.39L385.86 422.22L376.28 426.84Z" fill="#FFCF9D"/>
</g>
<path fill-rule="evenodd" clip-rule="evenodd" d="M376.28 426.84L387.22 445.2L426.19 445.39L385.86 422.22L376.28 426.84Z" fill="#CF7F6C"/>
<path fill-rule="evenodd" clip-rule="evenodd" d="M283.93 449.63L285.72 465.09L312.59 466.52L297.46 451.25L283.93 449.63Z" fill="#CF7F6C"/>
<path fill-rule="evenodd" clip-rule="evenodd" d="M296.01 386.45L302.57 401.19L357.04 412.44L320.62 383L296.01 386.45Z" fill="#CF7F6C"/>
<path opacity="0.5" fill-rule="evenodd" clip-rule="evenodd" d="M302.57 401.19L291.6 417.43L293.44 428.06L303.97 404.32L302.57 401.19Z" fill="#4E223B"/>
<path opacity="0.5" fill-rule="evenodd" clip-rule="evenodd" d="M305.56 407.92L294.17 432.27L296.45 445.39L314.53 428.06L305.56 407.92Z" fill="#4E223B"/>
<path fill-rule="evenodd" clip-rule="evenodd" d="M331.11 453.02L312.59 466.52L289.12 470.03L370.05 469.32L353.13 464.07L331.11 453.02Z" fill="#4E223B"/>
<path fill-rule="evenodd" clip-rule="evenodd" d="M321.34 443.35L311.02 464.07L327.3 443.58L315.38 414.09L321.34 443.35Z" fill="#4E223B"/>
<path fill-rule="evenodd" clip-rule="evenodd" d="M383.7 463.26L382.83 469.67H396.71L397.45 467.65L379.07 432.21L374.66 439.08L383.7 463.26Z" fill="#4E223B"/>
<path fill-rule="evenodd" clip-rule="evenodd" d="M300.37 397.24L311.02 402.8L307.82 412.98L300.37 397.24Z" fill="#B26860"/>
<path fill-rule="evenodd" clip-rule="evenodd" d="M384.21 441.92L394.95 445.2L390.1 453.89L384.21 441.92Z" fill="#B26860"/>
<path fill-rule="evenodd" clip-rule="evenodd" d="M307.94 401.19L316.92 404.15H310.6L307.94 401.19Z" fill="#C8938D"/>
<path fill-rule="evenodd" clip-rule="evenodd" d="M394.95 445.2L401.24 445.27L393.65 447.52L394.95 445.2Z" fill="#C8938D"/>
<path fill-rule="evenodd" clip-rule="evenodd" d="M283 464.83L285.55 463.58L296.01 465.64L283 464.83Z" fill="#C8938D"/>
<path fill-rule="evenodd" clip-rule="evenodd" d="M329.35 406.72L341.73 407.92L357.04 412.44L329.35 406.72Z" fill="#C8938D"/>
<g style="mix-blend-mode:soft-light" opacity="0.5">
<path fill-rule="evenodd" clip-rule="evenodd" d="M324.72 405.76L343.19 449.63L360.07 451.7L339.85 419.06L344.05 417.82L364.86 449.63L379.38 451.7L372.82 434.17L357.04 412.44L324.72 405.76Z" fill="#C47A5F"/>
</g>
<g style="mix-blend-mode:soft-light" opacity="0.5">
<path fill-rule="evenodd" clip-rule="evenodd" d="M426.19 445.39L425.95 466.71L435.05 466.82L426.19 445.39Z" fill="#C47A5F"/>
</g>
<g style="mix-blend-mode:soft-light" opacity="0.5">
<path fill-rule="evenodd" clip-rule="evenodd" d="M411.21 466.52L397.45 446.4L401.24 445.27L407.76 445.39L415.96 466.58L411.21 466.52Z" fill="#C47A5F"/>
</g>
<g style="mix-blend-mode:soft-light">
<path fill-rule="evenodd" clip-rule="evenodd" d="M297.46 451.25L290.96 413.72L300.89 443.35L306.58 446.4L302.57 401.19L321.34 443.35L311.02 464.07L297.46 451.25Z" fill="#8B90A1"/>
</g>
<path fill-rule="evenodd" clip-rule="evenodd" d="M331.11 453.02L361.63 463.84L353.13 464.07L331.11 453.02Z" fill="#7C4760"/>
<g style="mix-blend-mode:color-dodge" opacity="0.15">
<path fill-rule="evenodd" clip-rule="evenodd" d="M367.6 426.98L318.84 422.64L317.6 424.98L312.17 422.76L293.44 428.06L294.17 433.81L314.53 428.06L318.37 428.73L320.17 425.94L368.73 428.53L367.6 426.98Z" fill="#B89C7E"/>
</g>
<g style="mix-blend-mode:color-dodge" opacity="0.15">
<path fill-rule="evenodd" clip-rule="evenodd" d="M371.4 432.21H322.7L319.38 433.72L316.57 432.63L295.54 440.15L295.35 439.08L316.11 431.6L319.16 432.63L321.94 430.52H370.17L371.4 432.21Z" fill="#B89C7E"/>
</g>
<g style="mix-blend-mode:multiply" opacity="0.46">
<path fill-rule="evenodd" clip-rule="evenodd" d="M294.17 433.81L295.35 439.08L316.11 431.6L319.16 432.63L321.94 430.52H370.17L368.73 428.53L320.17 425.94L318.37 428.73L314.53 428.06L294.17 433.81Z" fill="#DE895F"/>
</g>
<g style="mix-blend-mode:color-dodge" opacity="0.15">
<path fill-rule="evenodd" clip-rule="evenodd" d="M379.38 451.7L329.58 447.91L314.53 456.11L305.69 459.56L284.68 456.11L274.56 458.08L272.63 459.81L284.7 456.89L307.02 460.9L315.82 456.89L329.74 449.63L380.2 453.89L379.38 451.7Z" fill="#B89C7E"/>
</g>
<g style="mix-blend-mode:color-dodge" opacity="0.15">
<path fill-rule="evenodd" clip-rule="evenodd" d="M431 458.08L407.89 462.36L411.21 466.52L432.86 461.53L431 458.08Z" fill="#B89C7E"/>
</g>
<path fill-rule="evenodd" clip-rule="evenodd" d="M358.7 414.72L360.07 423.03L367.6 426.98L358.7 414.72Z" fill="#D6794F"/>
<path fill-rule="evenodd" clip-rule="evenodd" d="M334.43 432.3L341.73 433.81L346.37 432.21L334.43 432.3Z" fill="#D6794F"/>
<path fill-rule="evenodd" clip-rule="evenodd" d="M348.84 430.52L351.06 428.73L359.89 428.06L361.63 430.52H348.84Z" fill="#D6794F"/>
<path fill-rule="evenodd" clip-rule="evenodd" d="M332.17 445.2V441.92L333.38 445.39L332.17 447.52V445.2Z" fill="#D6794F"/>
<path fill-rule="evenodd" clip-rule="evenodd" d="M341.95 441.92L346.37 446.36L348.84 445.39L350.15 444.14L341.95 441.92Z" fill="#D6794F"/>
<path fill-rule="evenodd" clip-rule="evenodd" d="M346.37 440.15L347.42 441.92L350.15 441.03L346.37 440.15Z" fill="#D6794F"/>
<path fill-rule="evenodd" clip-rule="evenodd" d="M333.38 410.45L334.43 412.98H337.32L336.01 409.58L333.38 410.45Z" fill="#D6794F"/>
<path fill-rule="evenodd" clip-rule="evenodd" d="M395.88 453.02V456.11L398.73 458.08L395.88 453.02Z" fill="#D6794F"/>
<path fill-rule="evenodd" clip-rule="evenodd" d="M416.79 448.28H420.38L422.73 453.02H419.76L416.79 448.28Z" fill="#D6794F"/>
<path fill-rule="evenodd" clip-rule="evenodd" d="M413.82 446.36L416.79 450.94H415.3L412.15 447.52L413.82 446.36Z" fill="#D6794F"/>
</g>
<g clip-path="url(#clip2_345_7)">
<path fill-rule="evenodd" clip-rule="evenodd" d="M1473 470.241L1493.04 401.941L1555.44 364H1559.4L1549.68 388.151L1555.73 424.079L1557.64 433.884L1556.69 410.005L1573.87 396.824L1581.51 399.162L1621.92 456.231L1619.69 461.747L1626.69 459.492L1649.92 475.579H1574.51L1493.04 473.912L1473 470.241Z" fill="url(#paint8_linear_345_7)"/>
<g style="mix-blend-mode:soft-light">
<path fill-rule="evenodd" clip-rule="evenodd" d="M1549.68 388.151L1516.12 427.256L1525.34 419.706L1503.79 470.828L1565.79 475.579L1555.73 424.079L1549.68 388.151Z" fill="#FFCF9D"/>
</g>
<g style="mix-blend-mode:soft-light">
<path fill-rule="evenodd" clip-rule="evenodd" d="M1581.51 399.162L1570.84 421.761L1569.1 475.474L1580.19 475.579L1579.4 441.581L1583.54 467.053L1610.53 463.907L1621.92 456.231L1581.51 399.162Z" fill="#FFCF9D"/>
</g>
<g style="mix-blend-mode:soft-light">
<path fill-rule="evenodd" clip-rule="evenodd" d="M1626.69 459.492L1594.28 472.894L1610.49 469.843L1594.28 475.579H1649.92L1626.69 459.492Z" fill="#FFCF9D"/>
</g>
<path fill-rule="evenodd" clip-rule="evenodd" d="M1493.04 401.941L1517.47 405.077L1538.56 401.102L1549.68 388.151L1559.4 364H1555.44L1493.04 401.941Z" fill="#CF7F6C"/>
<path fill-rule="evenodd" clip-rule="evenodd" d="M1573.87 396.824L1556.69 410.005L1570.84 421.761L1581.51 399.162L1573.87 396.824Z" fill="#CF7F6C"/>
<path fill-rule="evenodd" clip-rule="evenodd" d="M1566.31 417.996L1574.08 414.903L1570.19 432.887L1566.31 417.996Z" fill="#B26860"/>
<path fill-rule="evenodd" clip-rule="evenodd" d="M1517.47 405.076L1516.12 427.256L1538.56 401.102L1517.47 405.076Z" fill="#B26860"/>
<path fill-rule="evenodd" clip-rule="evenodd" d="M1516.12 427.256L1473 470.241L1518.56 433.947L1525.34 419.706L1516.12 427.256Z" fill="#4E223B"/>
<path fill-rule="evenodd" clip-rule="evenodd" d="M1557.42 428.221L1570.19 438.875L1569.1 475.474L1564.86 470.828L1557.64 433.884L1557.42 428.221Z" fill="#4E223B"/>
<path opacity="0.5" fill-rule="evenodd" clip-rule="evenodd" d="M1556.91 415.542L1570.19 432.887L1568.13 425.001L1556.69 412.826L1556.91 415.542Z" fill="#4E223B"/>
<g style="mix-blend-mode:soft-light">
<path fill-rule="evenodd" clip-rule="evenodd" d="M1493.04 401.941L1476.81 457.258L1482.57 454.417L1499.17 417.818L1502.07 416.832L1493.04 440.511L1502.07 439.788L1516.12 414.179L1517.47 405.076L1493.04 401.941Z" fill="#8B90A1"/>
</g>
<g style="mix-blend-mode:soft-light">
<path fill-rule="evenodd" clip-rule="evenodd" d="M1556.69 410.005L1557.42 428.221L1570.19 438.875V432.888L1566.31 417.996L1556.69 410.005Z" fill="#8B90A1"/>
</g>
<g style="mix-blend-mode:soft-light" opacity="0.5">
<path fill-rule="evenodd" clip-rule="evenodd" d="M1549.68 388.151L1564.22 467.536L1549.68 410.498L1545.18 414.892V446.017L1527.34 463.907L1525.34 419.706L1549.68 388.151Z" fill="#C47A5F"/>
</g>
<g style="mix-blend-mode:soft-light" opacity="0.5">
<path fill-rule="evenodd" clip-rule="evenodd" d="M1581.51 399.162L1590.64 412.071L1578.71 405.077L1581.51 399.162Z" fill="#C47A5F"/>
</g>
<g style="mix-blend-mode:soft-light" opacity="0.5">
<path fill-rule="evenodd" clip-rule="evenodd" d="M1583.54 467.053L1578.71 424.876L1595.51 457.259H1600.61L1589.66 432.887L1610.53 463.907L1583.54 467.053Z" fill="#C47A5F"/>
</g>
<path fill-rule="evenodd" clip-rule="evenodd" d="M1559.4 364L1563.81 405.077L1556.69 410.005L1557.64 433.884L1554.54 418.321L1549.68 388.151L1559.4 364Z" fill="#B26860"/>
<path fill-rule="evenodd" clip-rule="evenodd" d="M1556.69 410.005L1554.99 419.706L1557.64 433.884L1556.69 410.005Z" fill="url(#paint9_linear_345_7)"/>
<path fill-rule="evenodd" clip-rule="evenodd" d="M1544.78 393.866L1554.59 375.955L1550.19 390.909L1544.78 393.866Z" fill="#C8938D"/>
<path fill-rule="evenodd" clip-rule="evenodd" d="M1534.79 402.119L1540.42 398.942L1537.76 403.598L1534.79 402.119Z" fill="#C8938D"/>
<path fill-rule="evenodd" clip-rule="evenodd" d="M1571.67 415.867L1576.86 409.009L1573.45 417.818L1571.67 415.867Z" fill="#C8938D"/>
<g style="mix-blend-mode:color-dodge" opacity="0.15">
<path fill-rule="evenodd" clip-rule="evenodd" d="M1598.29 422.852L1580.94 451.051L1579.58 449.509L1569.78 452.634L1561.15 451.848L1509.8 456.556L1496.1 451.848L1486.03 457.259H1476.81L1475.8 460.709L1483.78 459.492L1494.89 453.693L1508.05 460.709L1561.46 453.431L1569.82 455.612L1578.71 451.848L1581.51 454.564L1601.82 427.843L1598.29 422.852Z" fill="#B89C7E"/>
</g>
<g style="mix-blend-mode:color-dodge" opacity="0.15">
<path fill-rule="evenodd" clip-rule="evenodd" d="M1596.82 420.796L1579.62 442.976L1570.01 444.979L1560.7 448.313L1511.79 451.847L1498.11 450.243L1489.45 453.85L1477.58 454.626L1478 453.211L1490.56 452.623L1501.57 447.485L1512.46 450.243L1560.12 447.233L1569.93 443.049L1578.71 441.581L1595.82 419.38L1596.82 420.796Z" fill="#B89C7E"/>
</g>
<g style="mix-blend-mode:multiply" opacity="0.46">
<path fill-rule="evenodd" clip-rule="evenodd" d="M1595.82 419.381L1592.14 414.179L1578.71 438.875L1570.16 440.071L1559.55 444.245L1513.81 447.045L1503.79 445.965L1498.35 444.979L1494.18 449.132H1479.2L1478 453.211L1490.56 452.624L1501.57 447.485L1512.46 450.243L1560.12 447.233L1569.93 443.049L1578.71 441.581L1595.82 419.381Z" fill="#DE895F"/>
</g>
<path fill-rule="evenodd" clip-rule="evenodd" d="M1560.98 378.765L1557.64 390.909L1561.46 383.233L1560.98 378.765Z" fill="#D6794F"/>
<path fill-rule="evenodd" clip-rule="evenodd" d="M1545.18 420.209L1542.1 421.939V429.93L1545.18 423.324V420.209Z" fill="#D6794F"/>
<path fill-rule="evenodd" clip-rule="evenodd" d="M1516.73 443.291L1518.5 438.876L1519.07 440.239L1517.47 443.291H1516.73Z" fill="#D6794F"/>
<path fill-rule="evenodd" clip-rule="evenodd" d="M1518.33 443.291L1519.52 441.781L1520.15 442.536L1519.07 443.647L1518.33 443.291Z" fill="#D6794F"/>
<path fill-rule="evenodd" clip-rule="evenodd" d="M1544.78 440.417V439.463H1545.7V441.088L1544.78 440.417Z" fill="#D6794F"/>
<path fill-rule="evenodd" clip-rule="evenodd" d="M1524.46 450.935H1532.7L1537.55 449.991L1524.46 450.935Z" fill="#D6794F"/>
<path fill-rule="evenodd" clip-rule="evenodd" d="M1538.56 453.913L1539.2 452.802L1540.91 451.848L1543.64 453.211L1538.56 453.913Z" fill="#D6794F"/>
<path fill-rule="evenodd" clip-rule="evenodd" d="M1544.78 451.848L1545.7 451.365H1546.89L1545.84 452.498L1544.78 451.848Z" fill="#D6794F"/>
<path fill-rule="evenodd" clip-rule="evenodd" d="M1549.23 466.435L1550.03 465.48L1551.17 465.952L1550.89 469.423L1548.09 468.71L1549.23 466.435Z" fill="#D6794F"/>
<path fill-rule="evenodd" clip-rule="evenodd" d="M1605.08 432.447L1604.09 439.463L1607.05 442.819L1612.41 446.94L1614.65 445.965L1605.08 432.447Z" fill="#D6794F"/>
<path fill-rule="evenodd" clip-rule="evenodd" d="M1602.6 437.376L1601.82 438.875V441.088L1602.6 441.78V437.376Z" fill="#D6794F"/>
<path fill-rule="evenodd" clip-rule="evenodd" d="M1519.55 395.377L1519.15 396.625L1520.24 397.453H1521.15L1519.55 395.377Z" fill="#D6794F"/>
<path fill-rule="evenodd" clip-rule="evenodd" d="M1599.3 450.464L1596.5 452.886L1597.53 453.914L1599.3 450.464Z" fill="#D6794F"/>
<path fill-rule="evenodd" clip-rule="evenodd" d="M1616.75 454.627L1617.89 453.914V452.498L1616.75 454.627Z" fill="#D6794F"/>
<path opacity="0.5" fill-rule="evenodd" clip-rule="evenodd" d="M1554.99 419.706L1549.63 474.342L1565.79 475.579L1554.99 419.706Z" fill="#4E223B"/>
</g>
<g clip-path="url(#clip3_345_7)">
<path fill-rule="evenodd" clip-rule="evenodd" d="M1804.59 471L1799.67 443.415L1771.55 432.644L1747.78 465.189L1737.74 461.666L1724 471H1804.59Z" fill="url(#paint10_linear_345_7)"/>
<g style="mix-blend-mode:soft-light">
<path fill-rule="evenodd" clip-rule="evenodd" d="M1771.55 432.644L1775.82 468.048L1804.59 471L1799.67 443.415L1771.55 432.644Z" fill="#FFCF9D"/>
</g>
<path fill-rule="evenodd" clip-rule="evenodd" d="M1771.55 432.644L1799.67 443.415L1792.66 433.278L1771.55 432.644Z" fill="#CF7F6C"/>
<path fill-rule="evenodd" clip-rule="evenodd" d="M1737.74 461.666L1738.75 462.763L1743.62 468.048L1758.53 470.706L1747.78 465.189L1737.74 461.666Z" fill="#CF7F6C"/>
<path fill-rule="evenodd" clip-rule="evenodd" d="M1759.94 448.546L1774.34 455.67L1775.61 466.178L1757.55 451.822L1759.94 448.546Z" fill="#4E223B"/>
<path fill-rule="evenodd" clip-rule="evenodd" d="M1766.18 440.016L1772.85 443.415L1772.44 440.016L1767.63 438.022L1766.18 440.016Z" fill="#4E223B"/>
<g style="mix-blend-mode:color-dodge" opacity="0.15">
<path fill-rule="evenodd" clip-rule="evenodd" d="M1801.87 455.778L1766.18 440.016L1759.94 448.546L1774.34 455.67L1802.66 460.229L1801.87 455.778Z" fill="#B89C7E"/>
</g>
<path fill-rule="evenodd" clip-rule="evenodd" d="M1767.63 438.022L1773.31 447.124L1789.84 439.645L1771.55 432.644L1767.63 438.022Z" fill="#B26860"/>
<path fill-rule="evenodd" clip-rule="evenodd" d="M1771.55 444.327H1779.48L1773.31 447.124L1771.55 444.327Z" fill="#C8938D"/>
<path fill-rule="evenodd" clip-rule="evenodd" d="M1792.27 458.915L1794.45 461.666H1802.92L1802.66 460.229L1792.27 458.915Z" fill="#D6794F"/>
<path fill-rule="evenodd" clip-rule="evenodd" d="M1791.12 451.034L1792.27 450.509L1797.59 453.893L1791.12 451.034Z" fill="#D6794F"/>
<path fill-rule="evenodd" clip-rule="evenodd" d="M1817.56 470.799L1835.05 409.325L1874.99 402L1933.33 431.825L1937.55 436.4L1956 469.331L1817.56 470.799Z" fill="url(#paint11_linear_345_7)"/>
<g style="mix-blend-mode:soft-light">
<path fill-rule="evenodd" clip-rule="evenodd" d="M1835.05 409.325L1846.82 464.664L1847.96 420.081L1870.9 470.706L1956 469.331L1937.55 436.4L1861.11 431.068L1835.05 409.325Z" fill="#FFCF9D"/>
</g>
<path fill-rule="evenodd" clip-rule="evenodd" d="M1835.05 409.325L1861.11 431.068L1937.55 436.4L1933.33 431.825L1874.99 402L1835.05 409.325Z" fill="#CF7F6C"/>
<path fill-rule="evenodd" clip-rule="evenodd" d="M1847.21 449.659L1867.44 463.088L1860.21 447.124L1847.6 434.004L1847.21 449.659Z" fill="#4E223B"/>
<g style="mix-blend-mode:color-dodge" opacity="0.15">
<path fill-rule="evenodd" clip-rule="evenodd" d="M1946.11 451.652L1867.44 463.088L1847.01 457.37H1845.26L1822.32 454.048L1820.56 460.229H1845.87L1847.21 461.666L1868.85 466.179L1948.4 455.778L1946.11 451.652Z" fill="#B89C7E"/>
</g>
<g style="mix-blend-mode:multiply" opacity="0.46">
<path fill-rule="evenodd" clip-rule="evenodd" d="M1948.4 455.778L1868.85 466.179L1847.21 461.666L1820.56 460.229L1818.87 466.179L1846.82 464.664L1870.9 470.706L1953.29 464.479L1948.4 455.778Z" fill="#DE895F"/>
</g>
<path fill-rule="evenodd" clip-rule="evenodd" d="M1847.96 420.081L1874.25 431.98L1860.21 447.124L1847.96 420.081Z" fill="#B26860"/>
<path fill-rule="evenodd" clip-rule="evenodd" d="M1868.84 429.538L1880.84 432.443L1872.75 433.602L1868.84 429.538Z" fill="#C8938D"/>
<path fill-rule="evenodd" clip-rule="evenodd" d="M1886.3 460.337L1893.13 455.098L1912.51 452.131L1917.73 455.778L1886.3 460.337Z" fill="#D6794F"/>
<path fill-rule="evenodd" clip-rule="evenodd" d="M1882.46 460.893L1880.84 458.915L1876.49 460.337L1874.85 462.006L1882.46 460.893Z" fill="#D6794F"/>
<path fill-rule="evenodd" clip-rule="evenodd" d="M1886.78 445.718L1889.21 443.369L1893.04 446.213L1886.78 445.718Z" fill="#D6794F"/>
</g>
<defs>
<radialGradient id="paint0_radial_345_7" cx="0" cy="0" r="1" gradientUnits="userSpaceOnUse" gradientTransform="translate(1966.48 394.345) scale(160.713 421.946)">
<stop/>
<stop offset="1" stop-color="white"/>
</radialGradient>
<linearGradient id="paint1_linear_345_7" x1="77.5553" y1="471.455" x2="77.5553" y2="176.497" gradientUnits="userSpaceOnUse">
<stop stop-color="#4F2C3B"/>
<stop offset="0.97" stop-color="#723747"/>
</linearGradient>
<linearGradient id="paint2_linear_345_7" x1="171.154" y1="469.139" x2="171.154" y2="373.872" gradientUnits="userSpaceOnUse">
<stop stop-color="#5B5902"/>
<stop offset="0.97" stop-color="#927F10"/>
</linearGradient>
<linearGradient id="paint3_linear_345_7" x1="168.559" y1="470" x2="168.559" y2="406.666" gradientUnits="userSpaceOnUse">
<stop stop-color="#797E18"/>
<stop offset="0.97" stop-color="#927F10"/>
</linearGradient>
<linearGradient id="paint4_linear_345_7" x1="152.999" y1="470" x2="152.999" y2="396.418" gradientUnits="userSpaceOnUse">
<stop stop-color="#797E18"/>
<stop offset="0.97" stop-color="#A17F10"/>
</linearGradient>
<linearGradient id="paint5_linear_345_7" x1="157.062" y1="461.995" x2="171.154" y2="461.995" gradientUnits="userSpaceOnUse">
<stop stop-color="#797E18"/>
<stop offset="0.97" stop-color="#927F10"/>
</linearGradient>
<linearGradient id="paint6_linear_345_7" x1="140.023" y1="455.216" x2="154.127" y2="455.216" gradientUnits="userSpaceOnUse">
<stop stop-color="#797E18"/>
<stop offset="0.97" stop-color="#927F10"/>
</linearGradient>
<linearGradient id="paint7_linear_345_7" x1="352.11" y1="470.02" x2="352.11" y2="398.87" gradientUnits="userSpaceOnUse">
<stop stop-color="#4F2C3B"/>
<stop offset="0.97" stop-color="#723747"/>
</linearGradient>
<linearGradient id="paint8_linear_345_7" x1="1561.46" y1="476.051" x2="1561.46" y2="380.653" gradientUnits="userSpaceOnUse">
<stop stop-color="#4F2C3B"/>
<stop offset="0.97" stop-color="#723747"/>
</linearGradient>
<linearGradient id="paint9_linear_345_7" x1="1556.32" y1="433.978" x2="1556.32" y2="413.571" gradientUnits="userSpaceOnUse">
<stop stop-color="#4F2C3B"/>
<stop offset="0.97" stop-color="#723747"/>
</linearGradient>
<linearGradient id="paint10_linear_345_7" x1="1764.29" y1="471.154" x2="1764.29" y2="438.362" gradientUnits="userSpaceOnUse">
<stop stop-color="#4F2C3B"/>
<stop offset="0.97" stop-color="#723747"/>
</linearGradient>
<linearGradient id="paint11_linear_345_7" x1="1886.78" y1="471.077" x2="1886.78" y2="412.261" gradientUnits="userSpaceOnUse">
<stop stop-color="#4F2C3B"/>
<stop offset="0.97" stop-color="#723747"/>
</linearGradient>
<clipPath id="clip0_345_7">
<rect width="240" height="345" fill="white" transform="translate(-50 125)"/>
</clipPath>
<clipPath id="clip1_345_7">
<rect width="168.23" height="87.03" fill="white" transform="translate(268 383)"/>
</clipPath>
<clipPath id="clip2_345_7">
<rect width="176.92" height="106" fill="white" transform="translate(1473 364)"/>
</clipPath>
<clipPath id="clip3_345_7">
<rect width="232" height="69" fill="white" transform="translate(1724 402)"/>
</clipPath>
</defs>
</svg>
