<svg width="106" height="40" viewBox="0 0 106 40" fill="none" xmlns="http://www.w3.org/2000/svg">
<path d="M95.9202 32.1079C92.0718 33.9619 87.3121 34.5511 82.6941 34.7799C77.6404 35.0274 74.0753 34.831 71.8224 34.8444C71.0343 34.8516 70.3453 34.3107 70.1601 33.5394C69.8943 32.4396 69.7996 31.305 69.8795 30.1759C69.9194 29.6465 70.0007 29.1211 70.1227 28.6045C70.3137 27.8256 71.015 27.2837 71.8117 27.2995C76.0022 27.3883 89.6532 27.5336 94.1831 25.86C98.459 24.2832 103.021 20.6129 104.822 15.2933C105.12 14.4102 105.337 13.5014 105.469 12.5783C106.025 21.4767 103.384 28.3866 95.9202 32.1079Z" fill="#E3D9CC"/>
<path d="M104.494 21.622C102.89 25.9084 99.6591 29.0942 95.474 31.1823C91.5 33.0927 86.5292 33.5582 82.646 33.752C81.3312 33.8165 80.0404 33.8542 78.6988 33.8704C76.9029 33.8892 75.3368 33.8704 74.0781 33.8381C73.2149 33.8246 72.4746 33.8085 71.8198 33.8138C71.0181 33.8138 70.2163 32.9097 69.9731 32.5519C70.0212 32.8694 70.08 33.1977 70.1629 33.5394C70.3481 34.3107 71.0371 34.8516 71.8252 34.8444C73.4287 34.8444 75.7056 34.9332 78.7095 34.8982C79.9174 34.8848 81.2457 34.8498 82.6968 34.7798C87.3149 34.5511 92.0746 33.9726 95.9229 32.1079C101.372 29.3929 103.761 25.7577 104.838 21.0273C104.705 20.9762 104.55 21.4713 104.494 21.622Z" fill="white"/>
<path d="M104.71 18.0405C102.912 23.3602 98.4806 27.0788 94.2153 28.6529C89.6721 30.3266 76.0424 30.184 71.8439 30.0952C71.0462 30.0763 70.3432 30.6195 70.1549 31.4002C70.0701 31.7551 70.005 32.1144 69.9599 32.4765C69.8506 31.713 69.8237 30.9399 69.8797 30.1705C69.9184 29.6419 69.9998 29.1172 70.1229 28.6018C70.3129 27.8223 71.0148 27.28 71.8119 27.2968C75.9997 27.3856 89.6534 27.5282 94.1832 25.8572C98.4592 24.2804 103.018 20.6102 104.822 15.2906C105.121 14.4077 105.336 13.4988 105.466 12.5756C105.376 13.7003 105.001 17.1768 104.71 18.0405Z" fill="white"/>
<path d="M101.273 25.4294C99.5878 27.3814 97.4602 28.8959 95.0704 29.845C93.858 30.2713 92.6037 30.5654 91.329 30.7222C90.0649 30.8863 88.8008 31.0208 87.534 31.1016C85.0005 31.2899 82.4563 31.333 79.9282 31.3437C78.6614 31.3437 77.3938 31.3312 76.1252 31.3061C74.8585 31.2765 73.5917 31.2415 72.3276 31.1769L76.1252 31.1392L79.9282 31.0612C82.4581 30.9966 84.9845 30.8702 87.5073 30.6818C88.7687 30.5903 90.0221 30.4477 91.2702 30.2755C92.5039 30.1084 93.718 29.8172 94.8941 29.4064C97.2374 28.4712 99.3973 27.1247 101.273 25.4294V25.4294Z" fill="white"/>
<path fill-rule="evenodd" clip-rule="evenodd" d="M74.3186 35.3495C75.2154 35.3648 76.2514 35.3826 77.4107 35.3826C78.9554 35.3826 80.7299 35.353 82.7129 35.2642C86.743 35.0678 91.9062 34.578 96.1207 32.5492C103.238 29.0001 106.538 22.2758 105.929 12.5622C105.914 12.3177 105.718 12.124 105.475 12.1143C105.232 12.1046 105.022 12.282 104.988 12.5245C104.861 13.4185 104.652 14.2986 104.363 15.1534C102.521 20.5833 97.8098 24.0221 94.0095 25.4267C89.5545 27.0708 75.8927 26.9228 71.8119 26.8367C70.794 26.8211 69.8994 27.5133 69.6525 28.5077C69.5249 29.0481 69.44 29.5978 69.3986 30.1517C69.316 31.3257 69.4133 32.5055 69.6872 33.6497C69.9218 34.6431 70.8113 35.3383 71.8252 35.3207C72.4452 35.3153 73.1962 35.3288 74.0487 35.3449C74.1372 35.3464 74.2272 35.3479 74.3186 35.3495ZM74.0648 34.3924C73.3058 34.3682 72.6377 34.3682 72.0497 34.3682L72.0577 34.3708H71.8199C71.2539 34.3753 70.7598 33.9859 70.628 33.4318C70.3734 32.3759 70.2832 31.2866 70.3607 30.2028C70.3969 29.6996 70.4738 29.2001 70.5905 28.7095C70.7327 28.1496 71.238 27.7611 71.8119 27.7704C75.9355 27.8538 89.7442 28.0018 94.3542 26.2985C98.2026 24.8859 102.96 21.4551 105.044 16.0736C104.748 23.5835 101.674 28.7202 95.7145 31.6801C91.6497 33.6336 86.6094 34.1098 82.6702 34.3036C79.065 34.4812 76.176 34.43 74.0648 34.3924Z" fill="#E3D9CC"/>
<path d="M10.0856 32.1079C13.934 33.9619 18.6937 34.5511 23.3117 34.7799C28.3654 35.0274 31.9305 34.831 34.1834 34.8444C34.9718 34.8509 35.6612 34.3106 35.8483 33.5394C36.1085 32.4387 36.1987 31.3043 36.1156 30.1759C36.077 29.6464 35.9957 29.1208 35.8724 28.6045C35.6814 27.8256 34.9801 27.2837 34.1834 27.2995C29.9956 27.3883 16.3419 27.5336 11.812 25.86C7.53607 24.2832 2.97682 20.6129 1.1729 15.2933C0.874717 14.4105 0.659091 13.5015 0.52883 12.5783C-0.0190281 21.4767 2.62138 28.3866 10.0856 32.1079Z" fill="#E3D9CC"/>
<path d="M1.51224 21.622C3.11573 25.9084 6.34943 29.0942 10.5345 31.1823C14.5085 33.0927 19.4767 33.5582 23.3624 33.752C24.6773 33.8165 25.9681 33.8542 27.3124 33.8704C29.1083 33.8892 30.6743 33.8704 31.9304 33.8381C32.7936 33.8246 33.5339 33.8085 34.1887 33.8138C34.9904 33.8138 35.7921 32.9097 36.0353 32.5519C35.9899 32.8694 35.9284 33.1977 35.8483 33.5394C35.6611 34.3106 34.9718 34.8509 34.1833 34.8444C32.5798 34.8444 30.3029 34.9332 27.299 34.8982C26.091 34.8848 24.7628 34.8498 23.3117 34.7798C18.6936 34.5511 13.9339 33.9726 10.0856 32.1079C4.63637 29.3929 2.24718 25.7577 1.17017 21.0273C1.30112 20.9762 1.45612 21.4713 1.51224 21.622Z" fill="white"/>
<path d="M1.29581 18.0405C3.09706 23.3602 7.52536 27.0788 11.78 28.6529C16.3232 30.3266 29.9528 30.184 34.154 30.0952C34.9507 30.0776 35.6522 30.6205 35.8403 31.4002C35.9264 31.7548 35.9916 32.1142 36.0354 32.4765C36.146 31.7131 36.1728 30.9398 36.1156 30.1705C36.0768 29.6419 35.9955 29.1172 35.8724 28.6018C35.6832 27.8217 34.9807 27.2789 34.1834 27.2968C29.9956 27.3856 16.3419 27.5282 11.812 25.8572C7.53605 24.2804 2.9768 20.6102 1.17555 15.2906C0.875228 14.4082 0.658679 13.4991 0.528809 12.5756C0.630363 13.7003 1.00451 17.1768 1.29581 18.0405Z" fill="white"/>
<path d="M4.73267 25.4294C6.60743 27.1236 8.76537 28.47 11.1065 29.4064C12.287 29.8181 13.5055 30.1092 14.7438 30.2755C15.9918 30.4477 17.2452 30.5903 18.5066 30.6818C21.0259 30.8702 23.5523 30.9966 26.0858 31.0612L29.8834 31.1392L33.6836 31.1769C32.4169 31.2415 31.1501 31.2765 29.8834 31.3061C28.6166 31.3357 27.3499 31.3491 26.0804 31.3437C23.5469 31.3437 21.0027 31.2899 18.4746 31.1016C17.2078 31.0208 15.9437 30.8863 14.6796 30.7222C13.4049 30.5654 12.1506 30.2713 10.9382 29.845C8.54746 28.8963 6.41892 27.3817 4.73267 25.4294Z" fill="white"/>
<path fill-rule="evenodd" clip-rule="evenodd" d="M23.2903 35.2534C25.2786 35.353 27.0505 35.3826 28.5952 35.3826C29.8726 35.3826 30.9951 35.361 31.9625 35.3314C32.8177 35.3072 33.5526 35.3072 34.186 35.3072H34.1994C35.2044 35.3134 36.0807 34.6207 36.3133 33.6363C36.5885 32.4923 36.6859 31.3123 36.6019 30.1383C36.5585 29.5828 36.4692 29.032 36.3347 28.4915C36.0876 27.4976 35.1928 26.8063 34.1753 26.8232C30.0944 26.9093 16.4327 27.0573 11.9777 25.4133C8.1801 24.0194 3.46584 20.5753 1.62451 15.1399C1.33987 14.2856 1.13499 13.4064 1.01251 12.5137C0.978952 12.2712 0.768213 12.0938 0.525205 12.1035C0.282196 12.1133 0.0861149 12.3069 0.0717952 12.5514C-0.540203 22.2651 2.76298 28.9893 9.88247 32.5384C14.097 34.5673 19.2629 35.057 23.2903 35.2534ZM23.3357 34.3036C19.3965 34.1018 14.3562 33.6336 10.294 31.6801C4.33173 28.7068 1.26105 23.5808 0.961731 16.0709C3.04092 21.4524 7.79526 24.8724 11.6517 26.2958C16.2617 27.9991 30.0731 27.8511 34.1967 27.7677C34.7706 27.7567 35.276 28.1461 35.4153 28.7068C35.5321 29.1974 35.609 29.6969 35.6452 30.2001C35.7239 31.2839 35.6337 32.3734 35.3779 33.4291C35.2461 33.9832 34.752 34.3726 34.186 34.3681C33.5446 34.3655 32.8017 34.3762 31.9411 34.3924C29.8299 34.43 26.9409 34.4812 23.3357 34.3036Z" fill="#E3D9CC"/>
<path d="M67.2739 35.579C69.9779 32.9242 73.5914 31.4166 77.3679 31.3679C80.0813 31.3827 82.733 32.1842 85.0059 33.6766C87.3069 30.2405 88.1914 27.2188 88.611 26.0752C91.6844 17.6908 89.2604 14.1336 87.208 14.0286C84.4286 13.8887 77.1541 23.3199 74.4121 25.6231C74.6286 23.9549 74.4896 22.9727 73.7253 22.5207C72.8487 16.41 69.9678 11.6392 67.739 9.64266C65.5101 7.64611 63.5672 4.57056 62.7842 3.11485C62.0011 1.65915 60.2239 -0.625318 57.9523 0.69316C55.0916 2.24655 51.6465 2.24655 48.7857 0.69316C46.5141 -0.636081 44.7396 1.65107 43.9539 3.11485C43.1682 4.57863 41.2306 7.64611 38.9991 9.64266C36.7676 11.6392 33.8893 16.41 33.0127 22.5207C32.2484 22.9727 32.1094 23.9549 32.3259 25.6231C29.5893 23.3118 22.3121 13.8941 19.5301 14.0286C17.4776 14.1336 15.0537 17.6908 18.127 26.0752C18.5814 27.313 19.5728 30.7222 22.2988 34.4865C24.0783 33.7047 25.9963 33.2929 27.9377 33.2757H27.9511C30.1404 31.9951 32.6216 31.3063 35.1534 31.2765C39.0205 31.2765 42.4546 34.8317 45.2474 37.4148C48.0401 39.998 64.7966 38.0707 67.2739 35.579Z" fill="white"/>
<path d="M34.9851 22.8732C33.7772 23.3521 34.2128 25.0043 34.2128 25.0043L32.8097 25.3783C32.8097 25.3783 32.4917 23.5674 33.1999 23.3252C33.7832 23.1309 34.3799 22.9798 34.9851 22.8732Z" fill="#E3D9CC"/>
<path d="M39.7663 22.1763C38.6278 22.3557 37.5 22.5853 36.3829 22.8651C35.8244 23.0023 35.2685 23.1342 34.718 23.3064C34.4507 23.3844 34.1675 23.4705 33.8949 23.5566C33.7612 23.5997 33.6276 23.6427 33.4913 23.6912L33.2962 23.7638C33.2294 23.788 33.1733 23.8149 33.1172 23.8392L32.9141 23.3844L33.1386 23.3064L33.355 23.2445C33.4967 23.2041 33.6383 23.1719 33.7799 23.1369C34.0632 23.0669 34.3438 23.0023 34.6271 22.9431C35.1937 22.8247 35.762 22.7171 36.3322 22.6202C37.4733 22.4265 38.6171 22.2758 39.7663 22.1763Z" fill="#E3D9CC"/>
<path d="M39.4935 22.8866C38.3898 23.0723 37.2914 23.2902 36.2064 23.5459C35.6719 23.675 35.1213 23.8149 34.5842 23.9576C34.3169 24.0302 34.0497 24.1082 33.7824 24.189C33.6515 24.2293 33.5152 24.2697 33.3896 24.3154L33.1998 24.3827C33.133 24.4069 33.0796 24.4311 33.0288 24.4527L32.823 24.0006C32.9005 23.971 32.978 23.9441 33.0475 23.9253L33.2559 23.8661C33.3949 23.8284 33.5232 23.7988 33.6702 23.7665C33.9374 23.7046 34.2234 23.6454 34.4986 23.5916C35.0518 23.484 35.6051 23.3898 36.1583 23.301C37.2647 23.1261 38.3791 22.9889 39.4935 22.8866Z" fill="#E3D9CC"/>
<path d="M39.2183 23.597C38.1493 23.7826 37.0803 23.9898 36.0274 24.2293C35.4929 24.3477 34.9717 24.4715 34.4479 24.6087C34.1807 24.6733 33.9268 24.7459 33.6676 24.8213C33.542 24.859 33.4003 24.8966 33.2854 24.9397L33.1037 25.0016C33.0482 25.0211 32.9938 25.0436 32.9406 25.0688L32.7349 24.6141C32.8124 24.5872 32.8872 24.5603 32.954 24.5414L33.1598 24.4876C33.2961 24.4526 33.427 24.4257 33.5633 24.3961C33.8306 24.3423 34.0978 24.2885 34.3651 24.2428C34.8996 24.1459 35.4341 24.0562 35.9686 23.9737C37.0554 23.823 38.1386 23.6974 39.2183 23.597Z" fill="#E3D9CC"/>
<path d="M71.7559 22.8732C72.9638 23.3521 72.5282 25.0043 72.5282 25.0043L73.9339 25.3783C73.9339 25.3783 74.2493 23.5674 73.5411 23.3252C72.9577 23.1309 72.3611 22.9798 71.7559 22.8732Z" fill="#E3D9CC"/>
<path d="M66.9746 22.1763C68.1238 22.2758 69.2703 22.4265 70.4087 22.6202C70.9771 22.7171 71.5454 22.8247 72.1138 22.9431C72.3971 23.0023 72.6804 23.0669 72.9636 23.1369C73.1053 23.1719 73.2442 23.2041 73.3886 23.2445L73.6024 23.3064L73.8295 23.3844L73.6237 23.8392C73.5703 23.8149 73.5142 23.788 73.4474 23.7638L73.2496 23.6912C73.1186 23.6427 72.9823 23.5997 72.846 23.5566C72.5788 23.4705 72.3116 23.3844 72.0229 23.3064C71.4724 23.1476 70.9165 23.0023 70.358 22.8651C69.2409 22.5906 68.1131 22.361 66.9746 22.1763Z" fill="#E3D9CC"/>
<path d="M67.25 22.8866C68.3653 22.9907 69.4735 23.1324 70.5746 23.3118C71.1278 23.4006 71.681 23.4947 72.2315 23.6024C72.4988 23.6562 72.7847 23.7154 73.06 23.7773C73.1989 23.8096 73.3272 23.8392 73.4742 23.8768L73.6853 23.936C73.7521 23.9549 73.8296 23.9818 73.9071 24.0114L73.7014 24.4634L73.533 24.3935C73.4715 24.3692 73.4074 24.3477 73.3406 24.3262C73.2123 24.2804 73.0733 24.2401 72.9477 24.1997C72.6805 24.119 72.4132 24.041 72.146 23.9683C71.6115 23.8203 71.077 23.6858 70.5238 23.5566C69.4459 23.2947 68.3546 23.0714 67.25 22.8866Z" fill="#E3D9CC"/>
<path d="M67.5225 23.597C68.6021 23.6992 69.6809 23.8275 70.7588 23.9818C71.2933 24.0607 71.8278 24.1504 72.3623 24.2508C72.6296 24.2966 72.8968 24.3504 73.1641 24.4042C73.3004 24.4338 73.4313 24.4607 73.5676 24.4957L73.7734 24.5495C73.8402 24.5684 73.9177 24.5953 73.9952 24.6222L73.7894 25.0769C73.7386 25.0554 73.6905 25.0312 73.6264 25.0096L73.442 24.9478C73.3164 24.9047 73.1881 24.867 73.0598 24.8294C72.7926 24.754 72.5414 24.6814 72.2795 24.6168C71.745 24.4796 71.2292 24.3477 70.7 24.2374C69.6578 23.9898 68.5915 23.7826 67.5225 23.597Z" fill="#E3D9CC"/>
<path d="M33.5181 22.2059C33.3631 22.2489 33.2054 22.2866 33.0477 22.3216L33.0156 22.5207C32.2673 22.9647 32.1204 23.9172 32.3181 25.5263C32.5978 25.4513 32.8828 25.3982 33.1706 25.3675C32.9782 23.7531 33.2401 23.4006 33.4539 23.2741L33.8147 23.0615L33.8735 22.6445C33.9056 22.4265 33.9403 22.2085 33.9777 21.9933C33.8358 22.0867 33.6809 22.1584 33.5181 22.2059Z" fill="white"/>
<path d="M45.3196 3.03143C45.1379 3.46245 44.9272 3.88049 44.6889 4.28264C44.4573 4.68984 44.215 5.08898 43.962 5.48003C43.4596 6.26843 42.9278 7.0353 42.3826 7.79141C42.1153 8.17081 41.8294 8.54482 41.5461 8.91615C41.4018 9.10181 41.2601 9.28748 41.1078 9.47314C40.9555 9.6588 40.8005 9.82832 40.6481 10.0113C40.0281 10.7082 39.4135 11.397 38.8442 12.1155C38.2733 12.8276 37.7569 13.5822 37.2995 14.373C36.8532 15.1689 36.4646 15.9962 36.137 16.8485C35.8029 17.7042 35.525 18.5814 35.2658 19.4694C35.0065 20.3573 34.7767 21.2533 34.5469 22.1601L33.9456 22.0229C34.13 21.1026 34.3544 20.1932 34.5976 19.2837C34.8408 18.3742 35.1321 17.4809 35.4769 16.5929C35.6453 16.1516 35.8323 15.7157 36.0328 15.2825C36.2332 14.8493 36.4577 14.4349 36.6982 14.0232C37.1838 13.2067 37.7353 12.4319 38.3471 11.7065C38.9458 10.98 39.5979 10.3046 40.2339 9.63189C40.5573 9.29555 40.8593 8.96189 41.1559 8.60671C41.4526 8.25153 41.7465 7.89366 42.0378 7.5304C42.6204 6.80928 43.195 6.08008 43.7536 5.34011C44.3266 4.60691 44.8498 3.8356 45.3196 3.03143Z" fill="#E3D9CC"/>
<path d="M45.3303 0.849238C45.6334 0.56996 46.0008 0.37113 46.3993 0.270723C46.6049 0.221915 46.8165 0.203782 47.0273 0.216907C47.2372 0.230789 47.4441 0.274265 47.642 0.346064C48.0148 0.490301 48.3568 0.704927 48.6495 0.978395C48.7888 1.10913 48.9209 1.24746 49.0451 1.39277L49.2188 1.60804C49.2722 1.6753 49.3257 1.74257 49.3818 1.80715C49.5998 2.07154 49.8365 2.31973 50.09 2.54981C50.3423 2.78329 50.6101 2.99906 50.8918 3.19559C51.1746 3.39541 51.4741 3.57007 51.787 3.7176C52.1035 3.87212 52.4414 3.97736 52.7892 4.02973C52.4302 4.06464 52.0678 4.03271 51.7202 3.93555C51.3663 3.83978 51.0233 3.70722 50.6967 3.54001C50.0411 3.20025 49.4438 2.75694 48.9275 2.22691C48.8633 2.15964 48.8019 2.09237 48.7404 2.02241C48.6789 1.95245 48.6255 1.89595 48.5667 1.83406C48.4524 1.7148 48.332 1.60163 48.2059 1.49502C47.9704 1.28681 47.6985 1.12441 47.4042 1.01607C47.1314 0.915765 46.8363 0.893414 46.5516 0.951488C46.2542 1.01852 45.9745 1.14879 45.7312 1.33358L45.3303 0.849238Z" fill="#E3D9CC"/>
<path d="M47.7008 0.0742798C47.9979 0.106053 48.2834 0.20742 48.5346 0.370265C48.7563 0.521343 48.9638 0.692467 49.1546 0.881511C49.5208 1.23669 49.8468 1.58918 50.2236 1.89593C50.5973 2.20532 51.0011 2.47578 51.4289 2.70316C51.867 2.93936 52.3206 3.14524 52.7865 3.31935C52.2838 3.25668 51.7887 3.1431 51.3087 2.98031C50.8197 2.81448 50.353 2.58854 49.919 2.30762C49.4946 2.023 49.0909 1.70828 48.711 1.36585C48.5266 1.2044 48.3449 1.0591 48.1765 0.932636C48.0071 0.820085 47.8214 0.734753 47.626 0.679703L47.7008 0.0742798Z" fill="#E3D9CC"/>
<path d="M47.5298 3.80099C47.9245 4.16497 48.2371 4.61 48.4464 5.10602C48.6566 5.61007 48.7769 6.14747 48.8019 6.69357C48.8288 7.23616 48.7784 7.77984 48.6522 8.30804C48.5258 8.83939 48.3384 9.35411 48.0937 9.84177C47.8412 10.3312 47.5238 10.7838 47.1503 11.1872C46.7803 11.5676 46.3896 11.927 45.9797 12.2635C45.583 12.5892 45.2155 12.9493 44.8813 13.3398C44.5519 13.7475 44.2819 14.2006 44.0796 14.6852C44.1905 14.1605 44.3942 13.6601 44.6809 13.2079C44.9793 12.7607 45.3262 12.3483 45.7151 11.9782C46.0866 11.6015 46.4715 11.2517 46.8002 10.8643C47.136 10.4879 47.4217 10.0691 47.65 9.61844C47.8825 9.16594 48.0662 8.68964 48.1979 8.19771C48.3298 7.70692 48.4025 7.20189 48.4144 6.69357C48.4461 5.65731 48.1349 4.63981 47.5298 3.80099Z" fill="#E3D9CC"/>
<path d="M47.2811 5.01453C47.3894 5.21839 47.4789 5.43186 47.5484 5.65224C47.764 6.33855 47.7433 7.07806 47.4896 7.75104C47.3243 8.19253 47.0877 8.60348 46.7894 8.96727C46.5042 9.3307 46.1726 9.6546 45.8032 9.93056C46.0544 9.54578 46.3244 9.18522 46.5515 8.80044C46.7865 8.42857 46.9835 8.03371 47.1395 7.62188C47.2974 7.21624 47.3877 6.78712 47.4067 6.35184V6.1877V6.02357C47.4067 5.91055 47.3907 5.80292 47.3827 5.68991C47.3586 5.4585 47.3239 5.23517 47.2811 5.01453Z" fill="#E3D9CC"/>
<path d="M47.5593 4.62167C48.035 5.2517 48.277 6.02934 48.2434 6.82003C48.2125 7.61423 47.9974 8.39013 47.6154 9.08566C47.237 9.76291 46.7696 10.3856 46.2257 10.9369C45.6973 11.4882 45.1194 11.989 44.4993 12.433C44.9776 11.8383 45.4694 11.2679 45.9344 10.6813C46.3989 10.106 46.8154 9.49313 47.1798 8.84887C47.5273 8.21043 47.7572 7.51397 47.8586 6.79313C47.9489 6.05541 47.8457 5.30673 47.5593 4.62167Z" fill="#E3D9CC"/>
<path d="M32.8926 22.2355C33.2729 22.0783 33.6664 21.9558 34.0685 21.8695C34.2636 21.8265 34.456 21.7807 34.6484 21.7431L35.231 21.6381C36.0033 21.5036 36.781 21.4013 37.5561 21.2991C39.1061 21.1053 40.6615 20.9547 42.2169 20.8255C43.7722 20.6963 45.3276 20.5968 46.8857 20.5322C48.4437 20.4676 50.0045 20.438 51.5625 20.4488C50.0045 20.5026 48.4518 20.6075 46.899 20.734C45.3463 20.8605 43.799 21.0031 42.2516 21.1995C40.7042 21.3959 39.1649 21.5924 37.6336 21.8426L36.4844 22.039C36.1049 22.1117 35.7227 22.179 35.3432 22.257L34.7767 22.3727L34.2155 22.4992C33.8533 22.5772 33.4962 22.6778 33.1465 22.8005L32.8926 22.2355Z" fill="#E3D9CC"/>
<path d="M67.2741 35.579C69.978 32.9242 73.5916 31.4167 77.368 31.368C80.0877 31.3823 82.7454 32.1868 85.022 33.6847C87.1894 30.515 88.8143 26.382 89.0468 20.7421C89.2151 16.6764 88.1889 15.5274 86.9088 15.6915C85.4229 15.8853 83.5041 17.9276 81.2405 20.4515C77.0286 25.1496 64.7967 38.0707 67.2741 35.579Z" fill="#E3D9CC"/>
<path d="M22.2988 34.4866C24.0792 33.7048 25.9981 33.2929 27.9404 33.2757H27.9538C30.1431 31.9951 32.6243 31.3063 35.1561 31.2765C35.3004 31.2765 35.4447 31.2765 35.589 31.2765C31.0458 27.1919 27.5155 22.6902 25.5004 20.4407C23.2368 17.9168 21.318 15.8664 19.8321 15.6808C18.5547 15.5166 17.5284 16.6656 17.6941 20.7313C17.9507 26.8717 19.8455 31.22 22.2988 34.4866Z" fill="#E3D9CC"/>
<path d="M22.0076 34.613C22.1973 34.5242 22.3871 34.4408 22.5795 34.3628C20.1369 31.1338 18.2581 26.8286 18.0069 20.7259C17.884 17.8064 18.4024 16.6898 18.8567 16.27C19.111 16.0385 19.4576 15.9391 19.7948 16.0009C21.1551 16.1785 23.0018 18.1293 25.2707 20.6614C25.733 21.178 26.2729 21.8103 26.8982 22.5449C28.8972 24.8832 31.7221 28.1955 35.1161 31.2818H35.1562C35.4769 31.2818 35.7949 31.298 36.1103 31.3195C32.4436 28.0906 29.4291 24.5495 27.3686 22.1386C26.7406 21.404 26.198 20.7717 25.7304 20.255C23.2931 17.5374 21.4544 15.5973 19.8723 15.3928C19.3536 15.3081 18.8251 15.469 18.4398 15.8287C17.6381 16.5795 17.28 18.1966 17.3869 20.7663C17.614 26.2178 19.1267 30.7517 22.0076 34.613Z" fill="#E3D9CC"/>
<path d="M69.0861 33.4587C73.6293 29.8288 77.3708 25.4429 79.8455 22.5422C80.4708 21.8103 81.0107 21.178 81.473 20.6587C83.7446 18.1267 85.5886 16.1758 86.9516 15.9983C87.288 15.9365 87.6338 16.0359 87.887 16.2673C88.3413 16.6898 88.8598 17.8038 88.7395 20.7232C88.507 26.3174 86.9142 30.3912 84.7709 33.5179C84.9419 33.6228 85.1129 33.7304 85.2813 33.8434C87.8095 30.149 89.1457 25.8519 89.3568 20.7475C89.4637 18.1778 89.119 16.5606 88.3039 15.8099C87.9186 15.4501 87.3901 15.2893 86.8714 15.374C85.2973 15.5785 83.4507 17.5266 81.0134 20.2362C80.5457 20.7582 80.0032 21.3906 79.3751 22.1198C74.5914 27.7219 64.6337 39.3757 53.3719 39.3757C51.3706 39.3611 49.3849 39.0194 47.4924 38.3639C47.6367 38.633 47.7597 38.8833 47.896 39.1496C49.6674 39.7012 51.5097 39.9877 53.3639 39.9999C58.3641 40.0134 63.6529 37.807 69.0861 33.4587Z" fill="#E3D9CC"/>
<path d="M38.1119 33.4587C33.5687 29.8288 29.8272 25.4429 27.3525 22.5422C26.7272 21.8103 26.1873 21.178 25.725 20.6587C23.4534 18.1267 21.6094 16.1758 20.2464 15.9983C19.91 15.9365 19.5642 16.0359 19.311 16.2673C18.8567 16.6898 18.3382 17.8038 18.4585 20.7232C18.691 26.3174 20.2838 30.3912 22.4271 33.5179C22.2561 33.6228 22.0851 33.7304 21.9167 33.8434C19.3885 30.149 18.0523 25.8519 17.8412 20.7475C17.7343 18.1778 18.079 16.5606 18.8941 15.8099C19.2794 15.4501 19.8079 15.2893 20.3266 15.374C21.9007 15.5785 23.7473 17.5266 26.1846 20.2362C26.6523 20.7582 27.1948 21.3906 27.8229 22.1198C32.6066 27.7219 42.5643 39.3757 53.8261 39.3757C55.8274 39.3611 57.8131 39.0194 59.7056 38.3639C59.5613 38.633 59.4383 38.8833 59.302 39.1496C57.5306 39.7012 55.6883 39.9877 53.8341 39.9999C48.8339 40.0134 43.5451 37.807 38.1119 33.4587Z" fill="#E3D9CC"/>
<path d="M45.8943 36.1414C46.9835 36.5884 48.1024 36.958 49.2429 37.2473C47.9585 36.8423 46.7075 36.3367 45.5015 35.7351C45.6351 35.8669 45.766 36.0015 45.8943 36.1414Z" fill="#E3D9CC"/>
<path d="M34.8622 28.618C35.1776 28.9166 35.5036 29.2072 35.8216 29.5032C36.1397 29.7992 36.4737 30.0817 36.7998 30.3697L37.8073 31.2038L38.4086 31.6774C38.8789 31.7924 39.3428 31.9325 39.7983 32.0971C39.5845 31.9303 39.3707 31.7635 39.1596 31.594L38.1707 30.7625L37.206 29.9042L36.2546 29.027C35.6292 28.435 35.0145 27.8323 34.3838 27.2268C33.7531 26.6214 33.1598 26.0052 32.5345 25.4025L32.0962 25.8438C32.6948 26.4707 33.2961 27.095 33.9162 27.7058C34.2333 28.0054 34.5486 28.3094 34.8622 28.618Z" fill="#E3D9CC"/>
<path d="M21.5371 31.968C21.983 32.7473 22.4934 33.4872 23.0631 34.1798L23.1834 34.1341C22.9082 33.7606 22.6531 33.3726 22.419 32.9717C20.1955 29.0404 19.4606 24.5469 19.4606 24.5469L19.6236 21.1134C19.795 20.5069 20.0419 19.9246 20.3586 19.3806C20.567 19.0362 20.7781 18.3043 21.1015 18.3043C22.1972 18.3635 25.2946 21.9018 25.936 22.4238C25.594 22.0041 21.8685 17.2037 20.1474 17.0181C19.0464 16.897 18.3569 17.8253 18.5012 21.4821C18.6305 25.1773 19.674 28.7816 21.5371 31.968Z" fill="white"/>
<path d="M32.4569 25.9057L32.1897 25.3379C34.7767 24.1513 47.3667 23.4248 53.3611 23.4248V24.0491C46.7387 24.0491 34.7633 24.8455 32.4569 25.9057Z" fill="#E3D9CC"/>
<path d="M53.3719 29.9526C50.6994 29.9526 34.7821 28.4727 32.1123 25.8465L32.5452 25.3998C34.9505 27.7596 50.1141 29.3283 53.3719 29.3283V29.9526Z" fill="#E3D9CC"/>
<path d="M34.3491 20.9869C35.3219 20.7502 36.3 20.5618 37.2888 20.4057C38.2777 20.2497 39.2558 20.1367 40.2419 20.0371C42.2137 19.8485 44.1957 19.7927 46.1748 19.8703C44.1986 19.8982 42.2263 20.0591 40.2713 20.3519C39.295 20.4936 38.3258 20.6667 37.3637 20.8712C36.4016 21.0757 35.4475 21.3125 34.5121 21.5951L34.3491 20.9869Z" fill="#E3D9CC"/>
<path d="M34.4185 20.1393C36.0931 19.671 37.8121 19.3815 39.5469 19.2756C41.2707 19.1438 42.9891 19.1276 44.7102 19.1007C42.9944 19.2299 41.2787 19.3509 39.579 19.585C37.8874 19.7938 36.2223 20.1807 34.6109 20.7394L34.4185 20.1393Z" fill="#E3D9CC"/>
<path d="M34.7874 19.2084C36.2305 18.8262 37.7043 18.5732 39.1916 18.4522C40.6671 18.3304 42.148 18.289 43.6279 18.3285C42.1548 18.3916 40.6863 18.5363 39.229 18.7617C37.7809 18.9849 36.3554 19.3369 34.9691 19.8138L34.7874 19.2084Z" fill="#E3D9CC"/>
<path d="M35.1482 18.28C36.3649 17.9547 37.6097 17.7475 38.8656 17.6612C40.1105 17.569 41.3593 17.5403 42.6071 17.5751C41.3684 17.6446 40.1339 17.7767 38.9084 17.9706C37.6952 18.1608 36.5025 18.4653 35.346 18.8801L35.1482 18.28Z" fill="#E3D9CC"/>
<path d="M35.5063 17.3517C36.4931 17.0814 37.5053 16.9154 38.5263 16.8566C39.5364 16.7867 40.544 16.7867 41.5488 16.8055C40.5466 16.8916 39.5471 16.9939 38.5637 17.1661C37.5879 17.3217 36.6306 17.5777 35.7068 17.9302L35.5063 17.3517Z" fill="#E3D9CC"/>
<path d="M35.8643 16.4234C36.6772 16.1949 37.5142 16.0639 38.3577 16.0332C39.1888 15.9902 40.0119 16.0117 40.8351 16.0332C40.0146 16.1113 39.1968 16.1974 38.3924 16.34C37.5968 16.4705 36.8192 16.6945 36.0754 17.0073L35.8643 16.4234Z" fill="#E3D9CC"/>
<path d="M36.2197 15.5086C36.8921 15.3126 37.5882 15.2112 38.2882 15.2072C38.9724 15.191 39.6458 15.2341 40.322 15.2718C39.6485 15.3363 38.9857 15.4009 38.3176 15.5166C37.6708 15.62 37.0413 15.8129 36.4469 16.0898L36.2197 15.5086Z" fill="#E3D9CC"/>
<path d="M36.5752 14.5695C37.1574 14.3858 37.767 14.3066 38.3764 14.3354C38.9697 14.3488 39.547 14.4215 40.1242 14.4807C39.5443 14.5237 38.9617 14.5587 38.3978 14.6475C37.8479 14.7186 37.3144 14.8852 36.8211 15.1399L36.5752 14.5695Z" fill="#E3D9CC"/>
<path d="M36.9172 13.6492C37.1521 13.5627 37.3995 13.5154 37.6495 13.5093C37.8768 13.4998 38.1044 13.5052 38.331 13.5255C38.7721 13.5612 39.2104 13.6259 39.6432 13.7192C39.2082 13.7291 38.7743 13.7677 38.3443 13.8349C38.135 13.8674 37.9279 13.9132 37.7243 13.9721C37.5403 14.0196 37.3652 14.0968 37.2059 14.2008L36.9172 13.6492Z" fill="#E3D9CC"/>
<path d="M37.6228 12.7586C37.8053 12.7256 37.991 12.7147 38.176 12.7263C38.3474 12.7365 38.5179 12.7581 38.6864 12.7909C39.0115 12.8567 39.3313 12.9467 39.6432 13.0599C39.32 13.0516 38.9966 13.0678 38.6758 13.1084C38.5217 13.1281 38.3691 13.1578 38.2188 13.1972C38.0819 13.2325 37.9499 13.2849 37.8259 13.3532L37.6228 12.7586Z" fill="#E3D9CC"/>
<path d="M38.1626 12.0967C38.3476 12.062 38.5359 12.0494 38.7238 12.059C38.8976 12.0688 39.0707 12.0886 39.2423 12.1182C39.4133 12.1478 39.5763 12.1854 39.7394 12.2258C39.9024 12.2662 40.0627 12.3173 40.2231 12.363C40.0574 12.363 39.8917 12.363 39.726 12.3819C39.5603 12.4007 39.3973 12.4088 39.2369 12.4303C39.0792 12.4516 38.923 12.483 38.7693 12.5245C38.6289 12.5621 38.4934 12.6163 38.3657 12.6859L38.1626 12.0967Z" fill="#E3D9CC"/>
<path d="M38.7026 11.432C38.8902 11.3964 39.0812 11.3829 39.2719 11.3917C39.451 11.3983 39.6295 11.4163 39.8064 11.4455C39.9774 11.4724 40.1484 11.5074 40.3141 11.5477C40.4798 11.5881 40.6455 11.6338 40.8112 11.6688C40.6402 11.685 40.4691 11.6876 40.3035 11.7011C40.1378 11.7146 39.9667 11.7334 39.8037 11.7576C39.6432 11.7807 39.4843 11.8139 39.328 11.8572C39.1833 11.8957 39.0434 11.9508 38.9111 12.0213L38.7026 11.432Z" fill="#E3D9CC"/>
<path d="M39.2424 10.7701C39.4318 10.734 39.6244 10.7187 39.817 10.7243C39.9959 10.7286 40.1744 10.7438 40.3515 10.7701C40.5297 10.797 40.7034 10.8293 40.8726 10.867C41.0437 10.9019 41.2094 10.945 41.3804 10.9773C41.2067 10.9988 41.033 11.0042 40.862 11.0203C40.6909 11.0365 40.5199 11.0553 40.3542 11.0822C40.1903 11.1084 40.0279 11.1434 39.8678 11.1872C39.7193 11.2284 39.5759 11.2861 39.4402 11.3594L39.2424 10.7701Z" fill="#E3D9CC"/>
<path d="M40.9099 10.0947C40.7272 10.0715 40.5435 10.058 40.3594 10.0544H40.175C40.0598 10.1183 39.9391 10.1715 39.8142 10.2131L39.9799 10.6894C40.273 10.5439 40.5868 10.445 40.9099 10.3961C41.081 10.3692 41.2547 10.345 41.4284 10.3288C41.6021 10.3127 41.7812 10.2965 41.9629 10.275C41.7892 10.2454 41.6181 10.205 41.4444 10.1727C41.2707 10.1405 41.0943 10.127 40.9099 10.0947Z" fill="#E3D9CC"/>
<path d="M40.9554 9.38705C40.8103 9.56417 40.6473 9.72559 40.469 9.8687L40.5251 10.0328C40.827 9.88419 41.1496 9.78258 41.4819 9.73147C41.8293 9.66689 42.1901 9.6373 42.5509 9.59424C42.1954 9.53505 41.8426 9.45971 41.4819 9.41934C41.3028 9.40051 41.1318 9.38975 40.9554 9.38705Z" fill="#E3D9CC"/>
<path d="M41.4446 8.71972C41.319 8.91346 41.1773 9.10719 41.0437 9.28747L41.0731 9.3682C41.3823 9.21668 41.7118 9.11152 42.0512 9.05607C42.4067 8.98611 42.7728 8.94844 43.1363 8.9C42.7728 8.84619 42.412 8.77623 42.0379 8.74394C41.8408 8.72357 41.6426 8.71548 41.4446 8.71972Z" fill="#E3D9CC"/>
<path d="M41.8562 8.05511C41.7546 8.21387 41.6531 8.378 41.5488 8.54483L41.605 8.70628C41.922 8.54979 42.2594 8.43927 42.6071 8.378C42.9652 8.30266 43.3394 8.25961 43.7109 8.20849C43.3394 8.15467 42.9706 8.09547 42.5884 8.06587C42.3449 8.0447 42.1002 8.04111 41.8562 8.05511Z" fill="#E3D9CC"/>
<path d="M43.9861 5.07106C43.9498 5.15764 43.9069 5.2413 43.8579 5.3213C43.8044 5.40561 43.751 5.48633 43.6975 5.56347L43.7777 5.73299C44.1886 5.4377 44.62 5.17243 45.0685 4.93921C44.7104 4.97688 44.3496 5.01455 43.9861 5.07106Z" fill="#E3D9CC"/>
<path d="M43.6387 5.65225C43.5291 5.8137 43.4142 5.96976 43.2993 6.12314L43.3795 6.31418C43.6055 6.16255 43.8443 6.0311 44.093 5.92133C44.3603 5.80293 44.6115 5.70069 44.8761 5.59305C44.4629 5.59168 44.0499 5.61143 43.6387 5.65225Z" fill="#E3D9CC"/>
<path d="M43.7375 6.21462C43.559 6.21397 43.3806 6.22295 43.203 6.24152L42.8796 6.65321L42.9732 6.89269C43.2265 6.74043 43.4953 6.61595 43.7749 6.52136C44.0662 6.41911 44.3682 6.3357 44.6702 6.25229C44.3842 6.23345 44.0582 6.21192 43.7375 6.21462Z" fill="#E3D9CC"/>
<path d="M43.4569 6.81198C43.2216 6.80226 42.9859 6.80855 42.7514 6.83082L42.4841 7.17793L42.591 7.47122C42.8764 7.31702 43.1799 7.19951 43.4943 7.12142C43.8204 7.03263 44.1598 6.97074 44.4965 6.90078C44.1491 6.8658 43.807 6.82544 43.4569 6.81198Z" fill="#E3D9CC"/>
<path d="M43.1763 7.40932C42.8855 7.38378 42.5931 7.38378 42.3024 7.40932C42.2329 7.50081 42.1661 7.5923 42.0993 7.6784C42.0931 7.68977 42.0859 7.70057 42.0779 7.71069L42.1928 8.03896C42.5089 7.88245 42.8454 7.77192 43.1923 7.71069C43.5531 7.63804 43.9246 7.5923 44.296 7.54386C43.9272 7.50081 43.5558 7.43623 43.1763 7.40932Z" fill="#E3D9CC"/>
<path d="M32.7456 25.642C34.1371 25.4429 35.5321 25.2796 36.9307 25.1523C38.3293 25.0249 39.7288 24.9298 41.1292 24.867C42.5296 24.7971 43.9299 24.7621 45.333 24.754H46.3833C46.7334 24.754 47.0835 24.754 47.4336 24.754C48.1337 24.7675 48.8339 24.789 49.5315 24.8455C48.8339 24.8159 48.1337 24.8213 47.4336 24.8321L46.3833 24.8563L45.3357 24.8966C43.9388 24.9558 42.5438 25.0455 41.1506 25.1657C39.7573 25.2859 38.3676 25.4321 36.9815 25.6043C35.5971 25.7873 34.2181 25.9972 32.8445 26.2447L32.7456 25.642Z" fill="#E3D9CC"/>
<path d="M32.8633 25.6231C35.4957 25.3864 38.1307 25.311 40.7631 25.3245C42.0816 25.3245 43.3973 25.3496 44.7104 25.3998C46.0252 25.4456 47.3374 25.5047 48.6496 25.5909C47.3348 25.5586 46.0208 25.5469 44.7077 25.5559C43.3946 25.5648 42.0816 25.5909 40.7685 25.6339C38.1468 25.7281 35.5251 25.903 32.9328 26.242L32.8633 25.6231Z" fill="#E3D9CC"/>
<path d="M32.9861 25.6043C34.2261 25.5828 35.4608 25.6043 36.6955 25.6474C37.9302 25.6904 39.1622 25.7469 40.3915 25.8223C41.6209 25.8976 42.8529 25.9783 44.0795 26.0671C45.3062 26.1559 46.5356 26.2582 47.7676 26.3362C46.5356 26.3201 45.3035 26.269 44.0715 26.234C42.8395 26.199 41.6102 26.164 40.3808 26.1425C39.1515 26.121 37.9195 26.1129 36.6901 26.1236C35.4608 26.1344 34.2315 26.164 33.0101 26.2394L32.9861 25.6043Z" fill="#E3D9CC"/>
<path d="M33.1223 25.5882C35.426 25.8169 37.7137 26.0994 40.004 26.3658C41.1478 26.5003 42.2943 26.6349 43.4408 26.7587C44.5873 26.8824 45.7311 27.0062 46.8829 27.0573C45.7311 27.0573 44.5766 26.9847 43.4274 26.9147C42.2783 26.8448 41.1237 26.7587 39.9746 26.6779C37.6736 26.5138 35.3726 26.3335 33.0769 26.2097L33.1223 25.5882Z" fill="#E3D9CC"/>
<path d="M33.2827 25.5828C34.3036 25.8788 35.3566 26.1209 36.4095 26.3416C37.4625 26.5622 38.5235 26.7721 39.5844 26.9578C40.6454 27.1434 41.7224 27.3183 42.7914 27.469C43.8588 27.6308 44.9336 27.7377 46.0118 27.7892C44.9309 27.7896 43.8507 27.7349 42.7754 27.6251C41.7064 27.5246 40.6312 27.4053 39.5497 27.2672C38.4807 27.13 37.4117 26.9766 36.3427 26.8017C35.2737 26.6268 34.2047 26.4385 33.1357 26.1828L33.2827 25.5828Z" fill="#E3D9CC"/>
<path d="M33.3951 25.973C34.0297 26.4912 34.7157 26.942 35.4422 27.3183C36.176 27.7047 36.9339 28.0426 37.7111 28.3301C38.4915 28.6207 39.2843 28.8772 40.0897 29.0996C40.2901 29.1535 40.4905 29.21 40.6936 29.2584C40.8967 29.3068 41.0999 29.3606 41.303 29.4064C41.7092 29.4979 42.1181 29.584 42.5323 29.6432C42.1154 29.6109 41.7012 29.549 41.2869 29.4817C41.0811 29.4494 40.8754 29.4118 40.6696 29.3741C40.4638 29.3364 40.258 29.2934 40.0522 29.2503C39.2318 29.0781 38.4167 28.8709 37.6123 28.6234C36.8023 28.3824 36.0095 28.0866 35.2391 27.7381C34.4539 27.3937 33.7068 26.9671 33.0103 26.4654L33.3951 25.973Z" fill="#E3D9CC"/>
<path d="M33.5126 26.0591C34.2157 26.65 34.9696 27.1767 35.7655 27.6332C36.5672 28.1013 37.3877 28.5211 38.2295 28.9113C39.0713 29.3014 39.9319 29.6593 40.8031 29.9876C41.6743 30.3159 42.5562 30.6091 43.4569 30.8513C42.5429 30.6603 41.6422 30.4127 40.7523 30.1356C39.8624 29.8584 38.9778 29.5463 38.1092 29.2019C37.2407 28.8575 36.3801 28.4754 35.541 28.0448C34.6967 27.619 33.8918 27.1184 33.1357 26.5488L33.5126 26.0591Z" fill="#E3D9CC"/>
<path d="M33.6329 26.1479C34.4083 26.8137 35.227 27.4268 36.0835 27.983C36.9387 28.548 37.8233 29.0754 38.7293 29.5678C39.6352 30.0602 40.5546 30.5231 41.4926 30.9455C42.4318 31.3728 43.3957 31.743 44.3789 32.0541C43.3805 31.7921 42.3988 31.4695 41.4392 31.0881C40.4744 30.7141 39.5257 30.297 38.593 29.8477C37.6603 29.3983 36.741 28.9113 35.843 28.3812C34.9384 27.8553 34.0697 27.2692 33.2427 26.6268L33.6329 26.1479Z" fill="#E3D9CC"/>
<path d="M33.7531 26.2366C34.5923 26.9874 35.4796 27.6923 36.3882 28.365C37.2968 29.0377 38.2376 29.6754 39.1997 30.2782C40.1617 30.8809 41.1479 31.4406 42.1634 31.9491C43.1758 32.4654 44.2244 32.9061 45.3009 33.2676C44.2049 32.956 43.133 32.5638 42.094 32.0944C41.0517 31.6316 40.0361 31.1096 39.0393 30.5499C38.0425 29.9903 37.0724 29.3902 36.121 28.7552C35.1696 28.1202 34.2502 27.4448 33.3469 26.7156L33.7531 26.2366Z" fill="#E3D9CC"/>
<path d="M33.8733 26.3228C35.6842 28.0246 37.6123 29.5954 39.6432 31.0235C40.6636 31.7312 41.7227 32.3807 42.8154 32.969C43.9108 33.5596 45.0511 34.0617 46.2255 34.4704C45.0332 34.1107 43.8714 33.6554 42.7513 33.1089C41.6273 32.5639 40.5352 31.9548 39.4801 31.2845C37.375 29.9307 35.3666 28.4301 33.4697 26.7936L33.8733 26.3228Z" fill="#E3D9CC"/>
<path d="M44.0181 34.4489C45.0316 34.9346 46.0772 35.3491 47.1476 35.6893C45.7908 35.2041 44.4789 34.5999 43.2271 33.8838C43.497 34.056 43.7589 34.2471 44.0181 34.4489Z" fill="#E3D9CC"/>
<path d="M39.8837 32.0514L40.151 32.2317C40.6805 32.441 41.198 32.68 41.701 32.9474C41.1398 32.5887 40.5919 32.2048 40.0575 31.7958C38.9751 30.9886 37.9408 30.1168 36.9387 29.21C35.9365 28.3032 34.9744 27.3533 33.9989 26.4116L33.582 26.8744C34.5949 27.7677 35.5998 28.6906 36.6474 29.5651C37.695 30.4396 38.772 31.2765 39.8837 32.0514Z" fill="#E3D9CC"/>
<path d="M19.621 21.213C20.0727 22.3942 20.519 23.5728 21.016 24.7298C21.5036 25.8941 22.0715 27.0225 22.7157 28.1067C21.9836 27.0769 21.322 25.9981 20.7354 24.8778C20.1421 23.7558 19.5996 22.6095 19.0544 21.4713L19.621 21.213Z" fill="white"/>
<path d="M19.6264 20.3331C20.3641 22.3953 21.2919 24.3835 22.3977 26.2716C21.1092 24.4792 19.9899 22.5694 19.0544 20.5672L19.6264 20.3331Z" fill="white"/>
<path d="M19.9979 19.795C20.6253 21.5499 21.3968 23.2491 22.3043 24.8751C21.2125 23.3447 20.2506 21.7246 19.4287 20.0317L19.9979 19.795Z" fill="white"/>
<path d="M20.3693 19.2568C20.9135 20.7764 21.571 22.2525 22.3362 23.6723C21.3857 22.3502 20.5369 20.9568 19.7974 19.5043L20.3693 19.2568Z" fill="white"/>
<path d="M20.7409 18.7159C21.2378 20.0897 21.8317 21.426 22.5181 22.7144C21.6498 21.5248 20.8674 20.274 20.177 18.9716L20.7409 18.7159Z" fill="white"/>
<path d="M21.0937 18.2316C21.5689 19.4971 22.1361 20.7256 22.7907 21.9072C21.9554 20.8275 21.2006 19.6871 20.5325 18.4953L21.0937 18.2316Z" fill="white"/>
<path d="M21.4329 17.8118C21.9576 19.0641 22.5786 20.2732 23.2902 21.4282C22.4036 20.3797 21.5994 19.2633 20.885 18.089L21.4329 17.8118Z" fill="white"/>
<path d="M22.2855 18.5572C22.1786 18.4684 22.077 18.3715 21.9808 18.2881L21.5505 18.2397C21.8178 18.681 22.1251 19.1061 22.4351 19.5205C22.8814 20.1205 23.3518 20.699 23.8141 21.2856C23.4373 20.6399 23.0525 20.0021 22.6944 19.351C22.5447 19.0855 22.4084 18.8209 22.2855 18.5572Z" fill="white"/>
<path d="M19.5996 21.9879C19.9077 23.4566 20.3914 24.8824 21.0401 26.234C21.6963 27.5989 22.4417 28.9185 23.2716 30.184C22.3576 28.9713 21.5237 27.6994 20.7755 26.3766C20.014 25.0398 19.4163 23.6149 18.9956 22.1332L19.5996 21.9879Z" fill="white"/>
<path d="M19.5649 22.7333C19.7109 23.701 19.9453 24.6531 20.265 25.5774C20.5895 26.508 20.9789 27.4144 21.4302 28.2897C21.8765 29.1696 22.379 30.028 22.9108 30.8648C23.4426 31.7016 24.0065 32.5169 24.6132 33.3026C23.9664 32.5519 23.3571 31.7635 22.7825 30.9509C22.2079 30.1383 21.6574 29.3068 21.1577 28.4404C20.6504 27.576 20.2039 26.6769 19.8214 25.7496C19.4402 24.8116 19.1477 23.8395 18.9475 22.8463L19.5649 22.7333Z" fill="white"/>
<path d="M23.8944 33.8973L24.0414 33.8569C23.2218 32.7683 22.4882 31.6167 21.8473 30.4127C20.6856 28.2456 19.9019 25.8938 19.5302 23.4598L18.9182 23.562C19.4041 26.031 20.3081 28.3975 21.5907 30.558C22.2707 31.73 23.0409 32.8465 23.8944 33.8973Z" fill="white"/>
<path d="M21.9756 32.5357C22.3203 33.0981 22.6891 33.6416 23.074 34.1744L23.3091 34.091C22.9323 33.534 22.5742 32.9609 22.2401 32.377C21.5192 31.1204 20.9205 29.7967 20.4523 28.4242C19.9851 27.0558 19.6627 25.6416 19.4902 24.2051L18.8755 24.2858C19.1054 25.7568 19.4869 27.1997 20.014 28.5911C20.54 29.9666 21.1969 31.2876 21.9756 32.5357Z" fill="white"/>
<path d="M73.2255 22.2059C73.3832 22.2489 73.5382 22.2866 73.6986 22.3216C73.6986 22.3888 73.7199 22.4534 73.728 22.5207C74.4763 22.9647 74.6259 23.9172 74.4255 25.5263C74.1458 25.4511 73.8608 25.398 73.573 25.3675C73.7654 23.7531 73.5061 23.4006 73.2897 23.2741L72.9289 23.0615L72.8701 22.6445C72.838 22.4265 72.8033 22.2085 72.7659 21.9933C72.9078 22.0867 73.0627 22.1584 73.2255 22.2059Z" fill="white"/>
<path d="M61.4241 3.03143C61.8941 3.83375 62.4173 4.60326 62.9901 5.33473C63.5487 6.07469 64.1233 6.80389 64.7059 7.52502C64.9972 7.88558 65.2912 8.24615 65.5878 8.60133C65.8844 8.95651 66.1891 9.29017 66.5098 9.62651C67.1459 10.2992 67.7979 10.9719 68.3992 11.7011C69.0094 12.4272 69.5599 13.202 70.0455 14.0178C70.286 14.4304 70.5087 14.8502 70.7136 15.2771C70.9114 15.7103 71.0985 16.1462 71.2668 16.5875C71.6062 17.4701 71.8975 18.3688 72.1461 19.2783C72.3946 20.1878 72.6137 21.0973 72.8008 22.0175L72.1968 22.1547C71.9697 21.256 71.7425 20.3573 71.4779 19.464C71.2134 18.5706 70.9434 17.6988 70.6067 16.8432C70.2791 15.9908 69.8905 15.1635 69.4442 14.3677C68.9877 13.5763 68.4713 12.8215 67.8995 12.1101C67.3303 11.3917 66.7156 10.7028 66.0982 10.0059C65.9432 9.82832 65.7882 9.65611 65.6359 9.46776C65.4836 9.2794 65.3419 9.09643 65.2003 8.91077C64.9134 8.53944 64.6337 8.16453 64.3611 7.78603C63.8266 7.02992 63.2921 6.26305 62.7817 5.47465C62.5305 5.0818 62.2882 4.68267 62.0548 4.27726C61.8168 3.87685 61.606 3.46061 61.4241 3.03143Z" fill="#E3D9CC"/>
<path d="M61.0204 1.33356C60.7771 1.14878 60.4974 1.0185 60.2 0.951473C59.9153 0.89354 59.6203 0.915888 59.3474 1.01605C59.0534 1.12501 58.7816 1.28735 58.5457 1.49501C58.4197 1.60162 58.2992 1.71478 58.1849 1.83405C58.1261 1.89593 58.0753 1.95244 58.0139 2.0224L57.8241 2.2269C57.3084 2.75752 56.711 3.20091 56.055 3.53999C55.7287 3.70808 55.3856 3.84068 55.0314 3.93554C54.6838 4.0327 54.3215 4.06462 53.9624 4.02971C54.3102 3.97734 54.6481 3.8721 54.9646 3.71759C55.2775 3.57005 55.577 3.39539 55.8599 3.19558C56.142 2.9997 56.4099 2.7839 56.6616 2.54979C56.9151 2.31972 57.1518 2.07152 57.3698 1.80714C57.4259 1.74256 57.4794 1.67529 57.5328 1.60802L57.7092 1.39276C57.832 1.24615 57.9641 1.10773 58.1047 0.97838C58.3967 0.703784 58.7389 0.489014 59.1123 0.346049C59.3092 0.274256 59.5153 0.230776 59.7243 0.216892C59.9351 0.203492 60.1467 0.221627 60.3523 0.270708C60.7508 0.371115 61.1182 0.569945 61.4213 0.849223L61.0204 1.33356Z" fill="#E3D9CC"/>
<path d="M59.1284 0.690476C58.9383 0.746347 58.758 0.83168 58.5939 0.943408C58.4149 1.06987 58.2358 1.21249 58.0594 1.37662C57.6795 1.71905 57.2758 2.03377 56.8515 2.31839C56.4178 2.59982 55.9509 2.82579 55.4618 2.99108C54.9818 3.15417 54.4866 3.26777 53.9839 3.33012C54.4498 3.15601 54.9034 2.95014 55.3415 2.71394C55.7697 2.48719 56.1736 2.21669 56.5468 1.9067C56.9209 1.59996 57.247 1.24747 57.6158 0.892284C57.8066 0.70324 58.0141 0.532115 58.2358 0.381037C58.487 0.218193 58.7725 0.116826 59.0696 0.0850525L59.1284 0.690476Z" fill="#E3D9CC"/>
<path d="M59.2139 3.80099C58.6061 4.64167 58.2939 5.66233 58.3266 6.70165C58.338 7.21019 58.4116 7.71538 58.5458 8.20579C58.6719 8.69758 58.8511 9.174 59.0803 9.62651C59.3086 10.0772 59.5943 10.496 59.9301 10.8723C60.2588 11.2598 60.6437 11.6096 61.0178 11.9863C61.4052 12.3571 61.7512 12.7694 62.0494 13.216C62.3383 13.667 62.5422 14.1678 62.6507 14.6932C62.4484 14.2087 62.1784 13.7556 61.849 13.3478C61.5156 12.9567 61.148 12.5965 60.7506 12.2715C60.3413 11.9344 59.9506 11.5751 59.58 11.1952C59.2065 10.7919 58.8891 10.3393 58.6366 9.84985C58.3919 9.36218 58.2045 8.84746 58.0781 8.31611C57.9519 7.78791 57.9015 7.24423 57.9284 6.70165C57.9534 6.15554 58.0737 5.61814 58.2839 5.11409C58.4967 4.61426 58.8139 4.16642 59.2139 3.80099V3.80099Z" fill="#E3D9CC"/>
<path d="M59.4623 5.01453C59.4248 5.24324 59.3848 5.46658 59.3607 5.68991C59.3607 5.80292 59.334 5.91055 59.3367 6.02357V6.1877V6.35184C59.3557 6.78712 59.446 7.21624 59.6039 7.62188C59.7599 8.03371 59.9569 8.42857 60.1918 8.80044C60.419 9.18522 60.6889 9.54578 60.9428 9.93056C60.5726 9.65466 60.2401 9.33077 59.954 8.96727C59.6556 8.60348 59.419 8.19253 59.2538 7.75104C59.0842 7.30276 59.0175 6.82167 59.0587 6.34377C59.0779 6.10856 59.1246 5.87646 59.1977 5.65224C59.2651 5.43151 59.3537 5.21793 59.4623 5.01453Z" fill="#E3D9CC"/>
<path d="M59.187 4.62167C58.8984 5.30615 58.7943 6.05516 58.885 6.79313C58.9864 7.51397 59.2163 8.21043 59.5638 8.84887C59.9282 9.49313 60.3447 10.106 60.8092 10.6813C61.2742 11.2679 61.766 11.8383 62.2443 12.433C61.6242 11.989 61.0463 11.4882 60.5179 10.9369C59.974 10.3856 59.5066 9.76291 59.1282 9.08566C58.7474 8.38964 58.5324 7.61403 58.5002 6.82003C58.4663 6.02886 58.7093 5.25081 59.187 4.62167Z" fill="#E3D9CC"/>
<path d="M73.5999 22.8032C73.25 22.681 72.893 22.5804 72.5309 22.5019L71.9697 22.3754L71.4031 22.2597C71.0263 22.1817 70.6415 22.1144 70.262 22.0417L69.1155 21.8453C67.5815 21.5951 66.0395 21.3852 64.4948 21.2022C62.9501 21.0193 61.4 20.8578 59.8473 20.7367C58.2946 20.6156 56.7419 20.5053 55.1838 20.4515C56.741 20.4407 58.2999 20.4685 59.8607 20.5349C61.4187 20.5995 62.9741 20.7044 64.5295 20.8282C66.0849 20.952 67.6403 21.0973 69.193 21.3018C69.968 21.404 70.743 21.5063 71.518 21.6408L72.098 21.7458C72.2904 21.7834 72.4855 21.8292 72.6779 21.8722C73.08 21.9582 73.4736 22.0806 73.8538 22.2382L73.5999 22.8032Z" fill="#E3D9CC"/>
<path d="M74.634 25.8438C74.038 26.4707 73.4341 27.095 72.814 27.7058C72.5094 28.0126 72.1967 28.3166 71.8813 28.618C71.566 28.9193 71.2426 29.2073 70.9219 29.5032C70.6012 29.7992 70.2698 30.0818 69.9438 30.3697L68.9363 31.2038L67.9074 32.011C67.5599 32.2801 67.2045 32.525 66.8544 32.7833C65.4366 33.7968 63.9386 34.6913 62.3753 35.4579C60.8162 36.2222 59.1826 36.8218 57.5007 37.2473C59.1459 36.7247 60.7372 36.0435 62.2524 35.2131C63.7591 34.3844 65.201 33.4417 66.5658 32.3931C66.9025 32.1241 67.2446 31.855 67.5787 31.5859L68.5675 30.7545L69.5322 29.8961L70.4836 29.0189C71.109 28.4269 71.7263 27.8242 72.341 27.2188C72.9557 26.6134 73.5677 25.9972 74.1904 25.3944L74.634 25.8438Z" fill="#E3D9CC"/>
<path d="M74.2867 25.9057C71.9776 24.8455 60.0076 24.0491 53.3718 24.0491V23.4248C59.3662 23.4248 71.9563 24.1513 74.5432 25.3379L74.2867 25.9057Z" fill="#E3D9CC"/>
<path d="M53.3718 29.9526V29.3283C56.6296 29.3283 71.8119 27.7596 74.1985 25.3998L74.6314 25.8465C71.9616 28.4727 56.0523 29.9526 53.3718 29.9526Z" fill="#E3D9CC"/>
<path d="M72.3944 20.9869C71.4216 20.7502 70.4462 20.5618 69.4547 20.4057C68.4632 20.2497 67.4877 20.1367 66.5149 20.0371C64.5432 19.8485 62.5611 19.7927 60.582 19.8703C62.5539 19.8987 64.5216 20.0596 66.4722 20.3519C67.4485 20.4936 68.4177 20.6667 69.3798 20.8712C70.3419 21.0757 71.296 21.3125 72.2314 21.5951L72.3944 20.9869Z" fill="#E3D9CC"/>
<path d="M72.3249 20.1393C70.6503 19.671 68.9313 19.3815 67.1964 19.2756C65.4754 19.1438 63.7543 19.1276 62.0332 19.1007C63.7489 19.2299 65.4673 19.3509 67.1644 19.585C68.856 19.7938 70.5211 20.1807 72.1325 20.7394L72.3249 20.1393Z" fill="#E3D9CC"/>
<path d="M71.9563 19.2084C70.5132 18.8262 69.0394 18.5732 67.552 18.4522C66.0766 18.3304 64.5956 18.289 63.1157 18.3285C64.5888 18.3916 66.0573 18.5363 67.5146 18.7617C68.9627 18.9849 70.3883 19.3369 71.7746 19.8138L71.9563 19.2084Z" fill="#E3D9CC"/>
<path d="M71.5954 18.28C70.3799 17.9518 69.136 17.7419 67.8806 17.6531C66.6357 17.5611 65.387 17.5324 64.1392 17.567C65.3779 17.6366 66.6123 17.7686 67.8379 17.9625C69.0511 18.1521 70.2439 18.4566 71.4003 18.872L71.5954 18.28Z" fill="#E3D9CC"/>
<path d="M71.2373 17.3517C70.2505 17.0814 69.2384 16.9154 68.2174 16.8566C67.2072 16.7867 66.1997 16.7867 65.1948 16.8055C66.197 16.8916 67.1965 16.9939 68.18 17.1661C69.157 17.3252 70.1152 17.5848 71.0395 17.941L71.2373 17.3517Z" fill="#E3D9CC"/>
<path d="M70.8793 16.4234C70.0663 16.1947 69.2294 16.0637 68.3858 16.0332C67.5574 15.9902 66.7316 16.0117 65.9084 16.0332C66.7289 16.1113 67.5494 16.1974 68.3511 16.34C69.1468 16.4702 69.9245 16.6941 70.6681 17.0073L70.8793 16.4234Z" fill="#E3D9CC"/>
<path d="M70.5239 15.5086C69.8524 15.3128 69.1572 15.2113 68.4581 15.2072C67.7739 15.191 67.0978 15.2341 66.4216 15.2718C67.0951 15.3363 67.7579 15.4009 68.426 15.5166C69.0729 15.6196 69.7025 15.8125 70.2967 16.0898L70.5239 15.5086Z" fill="#E3D9CC"/>
<path d="M70.1711 14.5695C69.588 14.3858 68.9775 14.3066 68.3672 14.3354C67.7766 14.3488 67.1993 14.4215 66.6194 14.4807C67.1993 14.5237 67.7819 14.5587 68.3458 14.6475C68.8957 14.7186 69.4292 14.8852 69.9226 15.1399L70.1711 14.5695Z" fill="#E3D9CC"/>
<path d="M69.8263 13.6492C69.5914 13.5627 69.344 13.5154 69.094 13.5093C68.8667 13.4998 68.6391 13.5052 68.4125 13.5255C67.9714 13.5612 67.5331 13.6259 67.1003 13.7192C67.5362 13.7291 67.971 13.7677 68.4018 13.8349C68.6103 13.8676 68.8164 13.9135 69.0192 13.9721C69.2032 14.0196 69.3783 14.0968 69.5376 14.2008L69.8263 13.6492Z" fill="#E3D9CC"/>
<path d="M69.1207 12.7586C68.9383 12.7256 68.7526 12.7147 68.5675 12.7263C68.3962 12.7365 68.2256 12.7581 68.0571 12.7909C67.732 12.8567 67.4122 12.9467 67.1003 13.0599C67.4236 13.0516 67.747 13.0678 68.0678 13.1084C68.2219 13.1279 68.3745 13.1575 68.5248 13.1972C68.6617 13.2325 68.7936 13.2849 68.9176 13.3532L69.1207 12.7586Z" fill="#E3D9CC"/>
<path d="M68.581 12.0967C68.396 12.062 68.2077 12.0494 68.0198 12.059C67.846 12.0688 67.6729 12.0886 67.5013 12.1182C67.3329 12.1478 67.1672 12.1854 67.0042 12.2258C66.8412 12.2662 66.6809 12.3173 66.5205 12.363C66.6889 12.363 66.8546 12.363 67.0176 12.3819C67.1806 12.4007 67.3463 12.4088 67.5067 12.4303C67.6644 12.4516 67.8206 12.483 67.9743 12.5245C68.1147 12.5621 68.2502 12.6163 68.3779 12.6859L68.581 12.0967Z" fill="#E3D9CC"/>
<path d="M68.041 11.432C67.8543 11.3964 67.6642 11.3829 67.4744 11.3917C67.2953 11.3984 67.1168 11.4164 66.9399 11.4455C66.7689 11.4724 66.6005 11.5074 66.4322 11.5477C66.2638 11.5881 66.1008 11.6338 65.9377 11.6688C66.1061 11.685 66.2771 11.6877 66.4455 11.7011C66.6139 11.7146 66.7796 11.7334 66.9426 11.7576C67.104 11.7807 67.2637 11.8139 67.421 11.8572C67.5648 11.8957 67.7038 11.9508 67.8352 12.0213L68.041 11.432Z" fill="#E3D9CC"/>
<path d="M67.5013 10.7701C67.3119 10.734 67.1193 10.7187 66.9267 10.7243C66.7478 10.7287 66.5693 10.7439 66.3922 10.7701C66.214 10.797 66.0403 10.8293 65.8711 10.867C65.7 10.9019 65.5343 10.945 65.3633 10.9773C65.537 10.9988 65.7107 11.0042 65.8817 11.0203C66.0528 11.0365 66.2238 11.0553 66.3895 11.0822C66.5535 11.1081 66.7158 11.1431 66.8759 11.1872C67.0244 11.2284 67.1678 11.2861 67.3035 11.3594L67.5013 10.7701Z" fill="#E3D9CC"/>
<path d="M65.8283 10.0947C66.011 10.0716 66.1948 10.0581 66.3789 10.0544H66.5659C66.6799 10.1188 66.7999 10.1719 66.924 10.2131L66.7583 10.6894C66.4632 10.5453 66.1477 10.4481 65.823 10.4015C65.6519 10.3746 65.4809 10.3503 65.3045 10.3342C65.1281 10.318 64.9544 10.3019 64.77 10.2804C64.9437 10.2508 65.1148 10.2104 65.2912 10.1781C65.4675 10.1458 65.6493 10.127 65.8283 10.0947Z" fill="#E3D9CC"/>
<path d="M65.7908 9.38705C65.9349 9.56411 66.097 9.72553 66.2745 9.8687L66.2184 10.0328C65.9164 9.88419 65.5938 9.78258 65.2616 9.73147C64.9142 9.66689 64.5534 9.6373 64.1926 9.59424C64.5481 9.53505 64.9008 9.45971 65.2616 9.41934C65.438 9.40141 65.6144 9.39064 65.7908 9.38705Z" fill="#E3D9CC"/>
<path d="M65.3071 8.71972C65.4327 8.91345 65.5744 9.10719 65.708 9.28747L65.6786 9.36819C65.368 9.21431 65.0367 9.10733 64.6951 9.05068C64.3424 8.98072 63.9736 8.94305 63.6101 8.89462C63.9736 8.8408 64.3343 8.77084 64.7085 8.73855C64.9075 8.71981 65.1074 8.71352 65.3071 8.71972Z" fill="#E3D9CC"/>
<path d="M64.8874 8.05511C64.989 8.21386 65.0905 8.378 65.1948 8.54483L65.1386 8.70628C64.8226 8.54976 64.4861 8.43923 64.1391 8.378C63.7783 8.30266 63.4069 8.25961 63.0354 8.20848C63.4042 8.15467 63.7757 8.09547 64.1552 8.06587C64.3987 8.04475 64.6434 8.04115 64.8874 8.05511Z" fill="#E3D9CC"/>
<path d="M62.7603 5.07106C62.7956 5.15814 62.8385 5.24189 62.8886 5.3213C62.9394 5.40471 62.9928 5.48544 63.0463 5.56347L62.9688 5.73299C62.5569 5.4377 62.1247 5.17243 61.6753 4.93921C62.0227 4.97688 62.3942 5.01455 62.7603 5.07106Z" fill="#E3D9CC"/>
<path d="M63.105 5.65226C63.2146 5.81371 63.3295 5.96977 63.4471 6.12315L63.3643 6.31419C63.1392 6.16257 62.9013 6.03111 62.6534 5.92134C62.3995 5.80295 62.1323 5.7007 61.8677 5.59307C62.2809 5.59156 62.6939 5.61132 63.105 5.65226Z" fill="#E3D9CC"/>
<path d="M63.0062 6.21462C63.1847 6.21412 63.3631 6.2231 63.5407 6.24152C63.6449 6.37875 63.7545 6.5106 63.8614 6.65321L63.7678 6.89269C63.5148 6.73993 63.246 6.61542 62.9661 6.52136C62.6748 6.41911 62.3728 6.3357 62.0735 6.25229C62.3755 6.23345 62.6855 6.21192 63.0062 6.21462Z" fill="#E3D9CC"/>
<path d="M63.2867 6.81197C63.5229 6.80222 63.7595 6.80851 63.9949 6.83081L64.2621 7.17792L64.1552 7.47121C63.8699 7.31701 63.5664 7.19949 63.2519 7.12141C62.9259 7.03262 62.5892 6.97073 62.2524 6.90077C62.5945 6.86579 62.9366 6.82543 63.2867 6.81197Z" fill="#E3D9CC"/>
<path d="M63.57 7.40932C63.8607 7.38378 64.1531 7.38378 64.4439 7.40932L64.6443 7.6784L64.6657 7.71069L64.5508 8.03896C64.2347 7.88245 63.8982 7.77192 63.5512 7.71069C63.1905 7.63804 62.819 7.5923 62.4475 7.54386C62.8243 7.50081 63.1878 7.43623 63.57 7.40932Z" fill="#E3D9CC"/>
<path d="M73.8991 26.2555C72.5281 26.0079 71.1465 25.7981 69.7621 25.6151C68.3778 25.4321 66.9881 25.2949 65.5957 25.1765C64.2034 25.0581 62.8057 24.9693 61.408 24.9074L60.3603 24.8671L59.3101 24.8428C58.6125 24.8428 57.9123 24.8267 57.2122 24.8563C57.9097 24.7998 58.6099 24.7783 59.3101 24.7648C59.6602 24.7648 60.0102 24.7648 60.3603 24.7648H61.4106C62.8137 24.7648 64.2141 24.8079 65.6144 24.8778C67.0148 24.9478 68.4152 25.0366 69.8129 25.163C71.2106 25.2895 72.6056 25.4536 73.998 25.6528L73.8991 26.2555Z" fill="#E3D9CC"/>
<path d="M73.8135 26.242C71.2185 25.9057 68.5995 25.7281 65.9751 25.6339C64.6621 25.5891 63.349 25.563 62.0359 25.5559C60.7228 25.5487 59.4089 25.5604 58.094 25.5908C59.4062 25.5047 60.721 25.4455 62.0332 25.3998C63.3454 25.3541 64.663 25.3272 65.9805 25.3245C68.6129 25.3245 71.2479 25.3864 73.883 25.6231L73.8135 26.242Z" fill="#E3D9CC"/>
<path d="M73.7335 26.2286C72.5122 26.1532 71.2829 26.1263 70.0535 26.1129C68.8242 26.0994 67.5948 26.1129 66.3655 26.1317C65.1362 26.1505 63.9015 26.1855 62.6721 26.2232C61.4428 26.2609 60.2081 26.3093 58.9788 26.3254C60.2081 26.2582 61.4348 26.1532 62.6641 26.0564C63.8935 25.9595 65.1228 25.8841 66.3521 25.8115C67.5815 25.7388 68.8162 25.677 70.0482 25.6366C71.2802 25.5962 72.5175 25.572 73.7576 25.5935L73.7335 26.2286Z" fill="#E3D9CC"/>
<path d="M73.6666 26.2097C71.371 26.3335 69.07 26.5138 66.769 26.6779C65.6198 26.7587 64.468 26.8421 63.3161 26.9147C62.1643 26.9874 61.0124 27.06 59.8606 27.0573C61.0124 27.0062 62.1589 26.8797 63.3054 26.7587C64.4519 26.6376 65.5957 26.4896 66.7396 26.3658C69.0325 26.0967 71.3202 25.8276 73.6212 25.5882L73.6666 26.2097Z" fill="#E3D9CC"/>
<path d="M73.6211 26.1828C72.5521 26.4519 71.4831 26.6268 70.4142 26.8017C69.3452 26.9766 68.2762 27.13 67.2072 27.2672C66.1382 27.4044 65.0692 27.5363 63.9842 27.6251C62.9079 27.7349 61.8269 27.7896 60.7451 27.7892C61.8188 27.7373 62.8892 27.6304 63.9521 27.469C65.0211 27.3183 66.0901 27.1479 67.1591 26.9578C68.2281 26.7721 69.281 26.5649 70.334 26.3416C71.3869 26.1183 72.4399 25.8788 73.4608 25.5828L73.6211 26.1828Z" fill="#E3D9CC"/>
<path d="M73.7335 26.4627C73.0369 26.9645 72.2899 27.3911 71.5046 27.7354C70.7344 28.0844 69.9415 28.3801 69.1315 28.6207C68.3297 28.8682 67.5119 29.0754 66.6915 29.2476C66.4857 29.2907 66.2826 29.3337 66.0741 29.3714C65.8657 29.4091 65.6626 29.4468 65.4568 29.479C65.0426 29.5463 64.6283 29.6082 64.2114 29.6405C64.6257 29.5813 65.0345 29.4952 65.4408 29.4037C65.6439 29.358 65.847 29.3095 66.0501 29.2557C66.2532 29.2019 66.4536 29.1508 66.6541 29.097C67.4558 28.8736 68.2576 28.618 69.0326 28.3274C69.8098 28.04 70.5678 27.702 71.3015 27.3157C72.0293 26.94 72.7162 26.4891 73.3513 25.9703L73.7335 26.4627Z" fill="#E3D9CC"/>
<path d="M73.6212 26.5407C72.8647 27.1096 72.0598 27.6103 71.2159 28.0368C70.3768 28.4673 69.5189 28.844 68.6504 29.1938C67.7818 29.5436 66.8972 29.8477 66.0046 30.1275C65.112 30.4074 64.2141 30.6657 63.3027 30.8433C64.2007 30.6011 65.0853 30.3051 65.9565 29.9795C66.8277 29.6539 67.6856 29.2961 68.5274 28.9032C69.3693 28.5104 70.1951 28.096 70.9915 27.6251C71.7881 27.17 72.5422 26.6431 73.2444 26.051L73.6212 26.5407Z" fill="#E3D9CC"/>
<path d="M73.5144 26.6268C72.6874 27.2692 71.8187 27.8553 70.9141 28.3812C70.0161 28.9194 69.0995 29.3956 68.1641 29.8477C67.2287 30.2997 66.2934 30.7141 65.3179 31.0881C64.3582 31.4695 63.3765 31.7921 62.3782 32.0541C63.3614 31.743 64.3252 31.3728 65.2645 30.9455C66.2052 30.5239 67.1272 30.0647 68.0305 29.5678C68.9338 29.0754 69.8184 28.548 70.6736 27.983C71.53 27.4268 72.3487 26.8137 73.1242 26.1479L73.5144 26.6268Z" fill="#E3D9CC"/>
<path d="M73.3939 26.7102C72.4987 27.4394 71.5713 28.1121 70.6199 28.7498C69.6685 29.3875 68.6957 29.9849 67.7016 30.5446C66.7074 31.1042 65.6892 31.6209 64.6469 32.0891C63.6078 32.5585 62.536 32.9506 61.4399 33.2622C62.5163 32.9024 63.5649 32.4636 64.5774 31.9491C65.593 31.4406 66.5791 30.8728 67.5412 30.2782C68.5033 29.6835 69.4413 29.0377 70.3527 28.365C71.264 27.6923 72.1486 26.9874 72.9877 26.2366L73.3939 26.7102Z" fill="#E3D9CC"/>
<path d="M73.2792 26.7936C71.3828 28.4307 69.3744 29.9314 67.2688 31.2845C66.2141 31.9554 65.1219 32.5645 63.9977 33.1089C62.8774 33.655 61.7156 34.1103 60.5234 34.4704C61.6968 34.0612 62.8362 33.5591 63.9308 32.969C65.0233 32.3818 66.0816 31.7323 67.1004 31.0235C69.1313 29.5954 71.0594 28.0246 72.8703 26.3228L73.2792 26.7936Z" fill="#E3D9CC"/>
<path d="M73.1668 26.8744C72.1539 27.7677 71.1491 28.6906 70.1041 29.5651C69.0592 30.4396 67.9822 31.2791 66.8597 32.0541C64.6335 33.6262 62.1848 34.8517 59.5959 35.6893C62.1383 34.7617 64.5268 33.4526 66.6807 31.8065C67.763 30.9993 68.7973 30.1275 69.7995 29.2207C70.8017 28.3139 71.7637 27.3641 72.7392 26.4223L73.1668 26.8744Z" fill="#E3D9CC"/>
<path d="M53.3718 2.18116C55.0309 2.22532 56.6701 1.80922 58.1101 0.978382C58.6406 0.641276 59.2873 0.543666 59.8927 0.709305C61.2102 1.08063 62.1643 2.63052 62.5144 3.27899C63.3348 4.79659 65.3124 7.89904 67.5359 9.89021C69.8583 11.9675 72.5762 16.6952 73.4154 22.5799L73.4368 22.7279L73.5651 22.8032C74.1584 23.153 74.316 23.9629 74.0996 25.5962L73.998 26.3873L74.6047 25.8761C75.4786 25.1415 76.6384 23.7854 77.98 22.2139C80.73 19.0065 84.4715 14.6206 86.9328 14.6206C87.7657 14.6156 88.5435 15.0386 88.996 15.7426C89.7469 16.819 90.6582 19.5985 88.3225 25.9676C88.269 26.1156 88.2076 26.2932 88.1381 26.5057C87.2966 28.9751 86.1452 31.3261 84.712 33.5017C84.9017 33.6174 85.0888 33.7358 85.2732 33.8596C86.7369 31.6452 87.8974 29.2422 88.7234 26.7156C88.7928 26.5138 88.8516 26.3416 88.9051 26.1963C91.3371 19.5608 90.3242 16.5849 89.5037 15.3982C88.9322 14.531 87.9665 14.0105 86.9328 14.0125C84.1802 14.0125 80.4868 18.3339 77.5177 21.8157C76.4834 23.0266 75.5587 24.1109 74.8051 24.859C74.8692 23.8203 74.7383 22.8759 74.0033 22.3566C73.1134 16.383 70.3233 11.5666 67.9368 9.44086C65.7775 7.51157 63.8479 4.48446 63.0488 2.99915C62.6613 2.28072 61.5924 0.577457 60.0503 0.128099C59.2898 -0.0881139 58.4742 0.0250205 57.8001 0.440228C56.4583 1.20705 54.9357 1.59472 53.3932 1.56228H53.3504C51.8079 1.59445 50.2854 1.2068 48.9435 0.440228C48.2705 0.0128192 47.4501 -0.110205 46.6826 0.101191C45.1406 0.537096 44.0716 2.25381 43.6867 2.97224C42.885 4.45755 40.9555 7.48467 38.7961 9.41395C36.4096 11.5504 33.6195 16.3669 32.7296 22.3296C32.0053 22.849 31.8744 23.7907 31.9278 24.8294C31.1795 24.076 30.2548 22.9701 29.2179 21.7377C26.2114 18.1536 22.4806 13.7084 19.6291 13.7084H19.5302C18.7097 13.7461 17.9267 14.2466 17.3494 15.113C15.8983 17.3141 16.08 21.3448 17.8492 26.1748C17.9026 26.3201 17.9641 26.4923 18.0336 26.6941C18.9487 29.5231 20.2899 32.1939 22.0102 34.613C22.2134 34.5188 22.4218 34.43 22.6303 34.3439C20.9183 31.9392 19.5675 29.2935 18.6215 26.4923C18.5494 26.2878 18.4879 26.1102 18.4345 25.9541C16.0292 19.3644 17.2345 16.4153 17.8679 15.4601C18.3222 14.774 18.9369 14.3623 19.5623 14.3354H19.6558C22.216 14.3354 25.9976 18.8397 28.7689 22.1386C30.1052 23.7531 31.2784 25.1307 32.1443 25.8572L32.7509 26.3685L32.6494 25.5774C32.4383 23.9441 32.5933 23.1342 33.1839 22.7844L33.3122 22.709L33.3335 22.5611C34.178 16.6763 36.8986 11.9487 39.213 9.87138C41.4365 7.8829 43.4168 4.77775 44.2346 3.26016C44.5847 2.61168 45.5414 1.0618 46.8563 0.69047C47.4618 0.526175 48.1078 0.623703 48.6388 0.959547C50.0754 1.796 51.7127 2.21861 53.3718 2.18116Z" fill="#E3D9CC"/>
<path d="M85.6526 18.3096C85.976 18.2908 86.1871 19.0361 86.3956 19.3859C86.7123 19.93 86.9592 20.5122 87.1305 21.1188L87.2935 24.5522C87.2935 24.5522 86.5586 29.0458 84.3351 32.977C84.295 33.0497 84.2523 33.1223 84.2041 33.2004L84.3725 33.2945C84.6775 32.8698 84.9594 32.4288 85.217 31.9734C87.0793 28.7886 88.1228 25.1862 88.253 21.4928C88.3973 17.8334 87.7185 16.9185 86.6067 17.0288C84.8856 17.2145 81.1602 22.0148 80.8181 22.4346C81.4595 21.9072 84.5569 18.3688 85.6526 18.3096Z" fill="white"/>
<path d="M87.7025 21.4605C87.168 22.5987 86.6122 23.745 86.0189 24.867C85.4323 25.9874 84.7707 27.0662 84.0386 28.096C84.6828 27.0117 85.2508 25.8833 85.7383 24.719C86.2354 23.562 86.6817 22.3835 87.1333 21.2022L87.7025 21.4605Z" fill="white"/>
<path d="M87.6997 20.5699C86.7652 22.5717 85.6458 24.4807 84.3564 26.2716C85.4635 24.3832 86.3914 22.394 87.1278 20.3304L87.6997 20.5699Z" fill="white"/>
<path d="M87.3256 20.0371C86.5036 21.7293 85.5426 23.3494 84.4526 24.8805C85.3582 23.2539 86.1287 21.5547 86.7563 19.8003L87.3256 20.0371Z" fill="white"/>
<path d="M86.9515 19.5043C86.2137 20.9566 85.3667 22.35 84.418 23.6723C85.1832 22.2525 85.8407 20.7764 86.3849 19.2568L86.9515 19.5043Z" fill="white"/>
<path d="M86.5801 18.9716C85.8878 20.2734 85.1045 21.5242 84.2363 22.7144C84.9227 21.426 85.5166 20.0897 86.0135 18.7159L86.5801 18.9716Z" fill="white"/>
<path d="M86.2219 18.4953C85.5537 19.6871 84.7989 20.8275 83.9636 21.9072C84.6193 20.7262 85.1865 19.4976 85.6606 18.2316L86.2219 18.4953Z" fill="white"/>
<path d="M85.8798 18.0836C85.1654 19.2579 84.3613 20.3743 83.4746 21.4228C84.186 20.2696 84.807 19.0623 85.332 17.8118L85.8798 18.0836Z" fill="white"/>
<path d="M84.4715 18.5572C84.5811 18.4684 84.68 18.3715 84.7789 18.2881C84.9205 18.2693 85.0648 18.2531 85.2065 18.2397C84.9392 18.681 84.6319 19.1061 84.3219 19.5205C83.8756 20.1205 83.4052 20.699 82.9456 21.2856C83.3197 20.6399 83.7072 20.0021 84.0627 19.351C84.2034 19.0855 84.3397 18.8209 84.4715 18.5572Z" fill="white"/>
<path d="M87.756 22.1332C87.3395 23.6143 86.7464 25.0391 85.9895 26.3766C85.2422 27.7 84.4083 28.972 83.4934 30.184C84.3196 28.9182 85.0615 27.5986 85.7142 26.234C86.3592 24.8819 86.8393 23.4562 87.144 21.9879L87.756 22.1332Z" fill="white"/>
<path d="M82.7984 32.4981C83.2046 31.9922 83.6001 31.4783 83.9716 30.9509C84.5489 30.1436 85.0967 29.3068 85.5965 28.4404C86.1037 27.576 86.5502 26.6768 86.9327 25.7496C87.3139 24.8116 87.6065 23.8395 87.8066 22.8463L87.1973 22.7413C87.0525 23.7093 86.8181 24.6615 86.4971 25.5855C86.1726 26.5161 85.7833 27.4224 85.3319 28.2978C84.8856 29.1777 84.3832 30.036 83.8514 30.8728C83.5066 31.411 83.1405 31.9492 82.761 32.4873L82.7984 32.4981Z" fill="white"/>
<path d="M83.643 32.8936C84.196 32.1455 84.7081 31.3676 85.177 30.5634C86.4596 28.4029 87.3636 26.0364 87.8495 23.5674L87.2375 23.4651C86.865 25.8993 86.0804 28.2511 84.9178 30.4181C84.4808 31.2405 84.0009 32.039 83.48 32.8102L83.643 32.8936Z" fill="white"/>
<path d="M84.3138 33.2676C84.4714 33.0282 84.6291 32.7914 84.7814 32.5465C85.5592 31.2926 86.2152 29.9662 86.7404 28.5857C87.2686 27.1947 87.6502 25.7517 87.8789 24.2805L87.2642 24.1997C87.0917 25.6378 86.7701 27.0536 86.3048 28.4242C85.8362 29.8005 85.2366 31.1278 84.5142 32.3878C84.3726 32.638 84.2229 32.8829 84.0732 33.1277L84.3138 33.2676Z" fill="white"/>
</svg>
