<svg width="567" height="600" viewBox="0 0 567 600" fill="none" xmlns="http://www.w3.org/2000/svg">
<path fill-rule="evenodd" clip-rule="evenodd" d="M3.5388 574.829C-1.76198 530.147 -0.130973 346.964 2.14565 203.774C2.14565 202.245 13.3249 201.226 16.7908 201.022C13.3928 199.595 2.17963 195.755 2.21361 194.226C2.89319 150.936 3.7087 111.758 4.35431 81.8904C11.2471 81.9914 18.1386 81.6168 24.9798 80.769C21.5819 80.4972 4.42227 78.8662 4.59216 75.4683C4.83002 64.2551 5.0339 54.5369 5.23777 46.6197C9.32375 39.4852 14.8284 33.2636 21.412 28.3388C94.5016 9.41231 193.518 0.203888 284.277 0.203888C375.036 0.203888 472.998 9.61618 547.209 28.1689C553.734 33.1473 559.218 39.3585 563.349 46.4498C563.621 64.6288 564.029 93.7492 564.471 129.224C564.471 130.039 558.456 132.622 556.927 133.301C558.388 133.539 564.505 133.641 564.539 134.626C566.272 280.908 568.344 528.278 564.81 574.796C564.471 578.771 555.772 593.076 551.559 594.096C373.348 601.911 195.205 601.968 17.1306 594.266C12.5094 592.159 4.25237 579.553 3.74268 574.965L3.5388 574.829Z" fill="url(#paint0_linear_23_2)"/>
<path fill-rule="evenodd" clip-rule="evenodd" d="M553.088 580.402C373.858 588.013 194.605 588.013 15.3296 580.402C12.6682 579.258 10.442 577.294 8.9755 574.795C3.53879 532.763 2.79125 351.041 3.50481 207.614C20.8003 205.338 36.8386 203.91 53.0128 202.687C34.9697 201.158 13.5287 196.435 3.60675 192.018C3.84461 150.223 4.21838 112.438 4.62613 83.2835C18.014 82.7059 30.6883 81.7884 43.0229 80.803C30.1015 80.2773 17.2688 78.4213 4.72807 75.2644C4.89797 64.0172 5.10185 54.2991 5.27174 46.4159C9.34333 39.2917 14.8235 33.0716 21.378 28.1349C94.0599 9.34434 193.993 0 284.243 0C374.492 0 473.44 9.82005 547.209 28.1689C553.726 33.1563 559.208 39.3657 563.349 46.4498C563.621 64.255 563.859 92.8657 563.961 127.797C550.063 131.874 535.86 136.631 521.453 141.898C535.303 138.078 549.629 136.259 563.995 136.495C564.301 232.555 563.995 371.327 562.568 468.338C549.779 469.73 536.886 469.878 524.069 468.78C536.811 472.178 549.588 475.236 562.432 477.886C561.718 524.676 560.733 560.422 559.408 574.795C558.058 577.325 555.872 579.306 553.224 580.402H553.088Z" fill="url(#paint1_radial_23_2)"/>
<g style="mix-blend-mode:multiply" opacity="0.5">
<path fill-rule="evenodd" clip-rule="evenodd" d="M192.498 28.5427C139.694 29.7659 87.0262 27.9311 34.3582 24.9749V24.8389C45.073 22.4604 56.2409 20.1951 67.8618 18.0431C109.045 21.1012 151.621 22.8681 192.396 21.9507C267.185 20.2177 331.916 13.8296 402.015 5.30078C414.927 6.4221 427.772 7.78128 440.378 9.27637C361.206 23.2419 266.437 26.8437 192.498 28.5427ZM293.587 46.4498C197.527 56.032 101.4 57.9688 5.03393 57.9688L4.99995 57.8669C5.23781 53.8234 5.23781 50.0517 5.23781 46.6537C96.3026 48.8963 197.799 49.3721 292.941 39.8578C360.051 33.1639 419.922 26.0282 483.226 15.2907C491.879 16.6952 500.329 18.179 508.575 19.742C437.422 31.7028 364.944 39.3142 293.587 46.4498ZM4.45628 95.1083C23.5975 95.2382 42.7157 93.7606 61.6096 90.691C96.7783 84.167 123.86 84.4728 157.737 87.2931C207.892 91.4048 241.643 83.56 277.767 75.1637C295.976 70.9315 314.787 66.5593 336.605 63.5075C355.49 60.9399 371.872 59.7498 388.06 58.5738C414.718 56.6372 440.851 54.7388 476.77 46.7896C481.776 45.6818 486.781 44.5656 491.788 43.4492L491.789 43.449C511.352 39.0866 530.924 34.7222 550.539 30.8533C549.489 29.8383 548.352 28.9173 547.141 28.101C542.747 26.995 538.196 25.9417 533.672 24.8946L533.671 24.8945L533.67 24.8943C533.051 24.7512 532.433 24.6082 531.817 24.4652C517.941 27.2341 504.087 30.1666 490.233 33.099L490.233 33.0991C457.675 39.9905 425.12 46.8814 392.297 51.6487C382.635 53.0814 372.892 53.5349 363.146 53.9884C353.939 54.4169 344.73 54.8455 335.585 56.1C318.721 58.4273 302.994 61.3908 287.243 64.359L286.893 64.4249C240.103 73.1916 205.342 77.2012 157.975 75.7401C125.679 74.9513 93.3636 76.0859 61.2019 79.138C43.1588 80.6671 24.708 82.2301 4.69414 83.1136V94.9044L4.45628 95.1083ZM4.2524 117.228L4.21843 117.229H4.2524V117.228ZM4.2524 117.228C22.3498 116.74 40.4765 116.632 58.595 116.524H58.5955C79.5194 116.399 100.433 116.274 121.277 115.564C143.16 114.839 164.941 113.82 186.62 112.506C208.299 111.192 230.046 109.561 251.86 107.613C267.049 106.254 282.442 104.487 297.902 102.414C348.158 95.618 402.967 87.395 451.591 75.7061C468.853 71.5606 482.444 67.3472 495.153 63.3716C517.225 55.8556 539.99 50.5514 563.112 47.5372V46.4498C561.557 43.4826 559.64 40.7204 557.403 38.2268C535.747 41.4029 514.423 46.5321 493.692 53.5515C435.485 71.6965 397.836 82.1622 335.484 90.4532C275.404 98.4348 216.315 100.219 153.496 102.115L153.494 102.115L153.47 102.116L153.451 102.116C142.741 102.44 131.922 102.766 120.972 103.127C99.9411 103.844 78.9106 103.964 57.8801 104.085C40.0042 104.188 22.1283 104.29 4.2524 104.758V117.228ZM3.98057 140.267L4.21843 140.255V140.437L3.98057 140.267ZM4.21843 140.255V129.563C40.1686 127.627 75.9489 126.165 112.103 126.165C199.55 125.461 286.819 118.158 373.167 104.317C408.199 98.3364 440.65 92.0842 467.426 83.9291C479.031 80.4144 490.957 75.9729 502.968 71.5L502.968 71.4999C521.728 64.5135 540.694 57.4503 558.966 53.7214L563.417 52.8719V62.2503L561.039 62.692C539.45 67.1084 516.303 74.5345 493.952 81.7053L493.951 81.7055C485.52 84.4103 477.203 87.0788 469.125 89.5357C426.209 102.55 385.433 109.991 341.26 116.957C310.135 121.85 278.874 125.996 247.545 129.394C208.469 133.471 151.145 136.869 111.967 136.869C75.8588 136.869 40.1226 138.459 4.21843 140.255ZM84.5457 163.169C56.6486 162.252 30.7563 162.625 3.77669 163.781L3.98057 163.645V152.771C30.9602 151.616 56.9544 151.276 84.8515 152.194C152.199 154.436 334.43 141.218 403.646 123.855C429.762 117.292 455.509 106.955 481.488 96.5252C508.373 85.731 535.506 74.8373 563.553 67.9248V77.3711C530.933 85.4242 497.939 97.1811 466.372 108.53C445.679 116.108 424.985 123.549 403.612 128.918C382.543 133.782 361.215 137.446 339.731 139.893C324.668 141.9 309.755 144.006 294.929 146.101L294.926 146.101L294.924 146.101L294.922 146.102L294.919 146.102L294.917 146.102L294.916 146.102L294.916 146.102L294.915 146.103L294.914 146.103L294.914 146.103L294.913 146.103L294.91 146.103L294.91 146.103C225.123 155.961 157.238 165.551 84.5457 163.169ZM3.53884 219.541C26.6177 216.371 47.4783 214.916 69.4596 213.383C71.0389 213.273 72.6239 213.162 74.216 213.051C154.226 207.477 207.034 194.661 271.3 179.065C292.051 174.029 313.997 168.703 338.44 163.237L339.238 163.058C375.244 155.001 410.08 147.206 448.533 134.321C464.357 129.04 480.004 122.672 495.518 116.357C511.252 109.953 526.849 103.605 542.35 98.5063C549.758 96.0937 556.893 93.8511 563.757 91.7104V84.5407C555.636 86.7834 547.311 89.2639 538.714 92.0842C521.929 97.5546 505.586 103.637 489.242 109.719L489.242 109.719L489.24 109.719C436.708 129.258 391.889 144.378 337.115 156.611C326.232 159.086 313.924 161.992 300.939 165.058L300.938 165.058L300.937 165.058C260.443 174.618 213.366 185.732 182.44 190.183C138.053 196.586 104.832 198.912 74.4529 201.038L73.7063 201.09L72.5341 201.173C49.3934 202.806 27.6984 204.338 3.53884 207.512V219.405V219.541ZM55.969 265.073C36.7707 272.039 18.9315 279.582 3.36894 286.684H3.33496V273.976C18.4218 267.146 35.4795 260.146 53.7604 253.35C87.0664 241.243 120.818 234.695 154.385 228.183L154.385 228.183C170.748 225.009 187.067 221.843 203.27 218.046C240.578 209.313 274.243 199.23 308.568 188.95L308.568 188.95L308.568 188.95L308.568 188.95L308.569 188.95L308.569 188.95L308.569 188.949L308.569 188.949L308.57 188.949C324.732 184.109 341.04 179.224 357.944 174.416C405.515 160.892 451.489 144.548 497.905 127.559C506.777 124.293 515.48 120.586 524.185 116.878L524.186 116.877L524.186 116.877C537.217 111.327 550.251 105.775 563.859 101.7V107.171C532.971 116.505 501.743 129.494 469.928 142.728L469.927 142.728L469.927 142.728L469.926 142.728C434.332 157.534 398.003 172.645 360.594 183.285C341.292 188.773 322.226 194.58 303.213 200.371L303.212 200.371C255.954 214.765 209.032 229.056 159.674 238.094C124.382 244.033 89.6806 253.061 55.969 265.073ZM563.689 345.57C556.303 341.662 549.124 337.375 542.18 332.726C527.331 322.77 520.094 313.766 518.802 304.965C517.511 296.164 519.108 287.636 527.773 277.782C539.007 264.695 551.096 252.367 563.961 240.88V223.89C545.811 238.654 529.046 255.044 513.875 272.855C503.24 285.019 497.735 296.368 499.468 307.955C502.254 326.848 538.85 347.1 563.519 357.735V345.74L563.689 345.57ZM563.315 384.671L563.451 384.715L563.315 384.579V384.671ZM484.075 353.929C509.876 365.692 536.333 375.956 563.315 384.671V392.19C534.181 383.02 505.553 372.313 477.551 360.114C452.848 349.07 430.932 337.178 419.786 326.134C417.183 323.555 415.015 320.572 413.364 317.3C411.853 314.317 410.974 311.055 410.782 307.717C410.684 304.236 411.285 300.769 412.549 297.524C413.854 294.155 415.805 291.073 418.291 288.451C428.281 278.053 458.183 256.952 480.576 241.254C489.87 234.716 498.429 228.397 506.582 222.379L506.582 222.379C526.564 207.628 544.105 194.679 564.063 184.712V193.003C546.754 201.922 533.355 212.599 518.175 224.694C509.008 231.998 499.192 239.819 487.473 248.084C466.644 262.695 441.125 282.811 432.155 292.257C423.762 301.057 425.053 312.78 433.48 321.139C448.359 334.865 465.469 345.954 484.075 353.929ZM563.146 418.388C536.386 408.774 507.54 396.453 480.128 384.744C457.452 375.058 435.756 365.791 417.034 358.822C415.108 358.099 412.871 357.274 410.381 356.357C394.858 350.636 369.526 341.299 348.736 330.348C294.572 302.043 312.751 288.451 362.225 267.384C366.629 265.506 371.08 263.638 375.54 261.767L375.54 261.767L375.541 261.766L375.542 261.766L375.542 261.766L375.543 261.765L375.543 261.765L375.544 261.765L375.545 261.764L375.546 261.764L375.547 261.764L375.547 261.764L375.548 261.763L375.548 261.763L375.549 261.763C389.323 255.982 403.183 250.166 416.015 243.904C436.447 233.907 455.869 220.058 475.419 206.117C493.811 193.002 512.317 179.805 531.885 169.659C542.28 164.246 552.979 159.435 563.927 155.252V147.063C551.89 151.548 540.144 156.78 528.758 162.727C512.007 171.426 496.274 181.382 480.576 191.338C456.157 207.007 430.87 221.279 404.836 234.084C391.396 240.647 376.879 246.736 362.461 252.784C345.528 259.886 328.73 266.932 313.975 274.621C292.33 285.903 290.019 297.727 296.985 308.601C310.895 330.818 375.454 355.049 404.936 366.115L404.971 366.128L405.017 366.145C406.617 366.746 408.113 367.307 409.491 367.827C432.768 376.587 455.933 385.77 478.934 394.888C481.181 395.779 483.428 396.67 485.672 397.559C492.026 400.064 498.616 402.739 505.378 405.483L505.378 405.483L505.403 405.493L505.406 405.495L505.417 405.499L505.431 405.505L505.445 405.51L505.451 405.513C523.799 412.961 543.405 420.919 562.976 427.393V418.354L563.146 418.388ZM504.728 430.096C525.255 437.651 543.598 444.402 562.806 449.887H562.704V457.159C537.627 450.805 510.817 441.562 476.838 429.602C417.782 408.874 358.046 388.996 297.766 371.497C284.604 367.68 269.949 364.31 254.961 360.865L254.961 360.865L254.96 360.864C224.718 353.912 193.122 346.647 169.698 334.765C152.097 325.862 135.277 310.979 153.048 293.004C159.525 287.003 166.94 282.102 174.999 278.495C194.784 269.045 215.188 260.97 235.658 252.869L235.659 252.869L235.659 252.868L235.66 252.868L235.661 252.868L235.661 252.868L235.662 252.867C245.882 248.823 256.118 244.772 266.302 240.54C279.767 234.886 293.245 229.311 306.719 223.736L306.72 223.736C332.925 212.895 359.12 202.058 385.195 190.658C399.397 184.424 413.377 177.731 427.357 171.038L427.358 171.038L427.359 171.037L427.36 171.037L427.361 171.036L427.362 171.036L427.364 171.035C441.346 164.341 455.329 157.647 469.532 151.412C500.006 137.81 531.6 126.873 563.961 118.724V127.797C501.494 146.1 432.73 178.308 369.465 207.94L369.465 207.94C337.714 222.812 307.349 237.034 279.859 248.525C269.667 252.795 259.379 256.865 249.092 260.934L249.091 260.934L249.09 260.935L249.089 260.935L249.088 260.935L249.087 260.936L249.086 260.936C229.983 268.493 210.881 276.049 192.396 284.883C164.703 298.203 149.412 312.712 180.538 328.513C202.517 339.661 232.733 346.594 261.57 353.21L261.572 353.211L261.572 353.211L261.573 353.211C275.978 356.516 290.039 359.742 302.558 363.376C360.492 380.195 418.087 399.258 475.003 419.306C485.556 423.04 495.367 426.651 504.724 430.095L504.728 430.096ZM3.87863 423.893C28.3884 424.544 54.6508 421.364 81.7428 418.083L81.7461 418.083L81.7472 418.082L81.7485 418.082C95.6319 416.401 109.733 414.693 123.928 413.461C210.779 405.884 265.928 405.136 349.347 434.868C373.841 444.098 399.124 451.082 424.883 455.732C450.145 460.123 473.138 465.771 495.72 471.317C517.697 476.716 539.284 482.018 562.194 485.973V477.886C543.318 473.997 524.603 468.983 505.859 463.962C503.48 463.324 501.101 462.687 498.721 462.052C474.221 455.256 450.81 449.072 425.801 444.722C400.41 440.136 375.491 433.244 351.352 424.131C267.527 394.254 211.844 399.125 125.018 406.72L123.316 406.869C81.3856 410.539 40.3725 414.107 3.64078 411.592V423.893H3.87863ZM83.8322 458.484C53.1827 467.624 33.2708 472.382 4.52424 471.022L4.18445 471.124V459.333C32.1495 460.931 51.2459 456.819 81.5555 448.698C149.643 430.445 229.279 445.053 302.075 458.407L302.075 458.407C319.666 461.634 336.858 464.788 353.391 467.387C379.355 471.413 406.153 476.214 433.014 481.026L433.015 481.026L433.016 481.026C476.88 488.884 520.911 496.772 561.752 501.366V508.162C495.684 501.545 421.382 489.879 352.855 479.119L352.575 479.076C325.115 474.762 300.45 468.933 276.949 463.379C214.546 448.632 160.351 435.824 83.8322 458.484ZM5.33975 506.497C40.4592 508.164 71.5805 502.995 103.264 497.733C136.17 492.268 169.683 486.703 208.91 488.59C238.001 489.989 268.481 494.547 299.045 499.118C331.563 503.982 364.178 508.859 395.321 509.963C419.515 510.812 443.708 512.443 467.901 515.433C484.118 517.444 498.074 519.393 510.953 521.192L512.788 521.448C530.321 523.928 545.986 526.103 561.311 527.7V521.754C544.048 519.637 526.95 516.751 509.51 513.808L509.51 513.807C474.324 507.869 437.748 501.696 395.627 501.128C374.466 500.828 349.96 497.538 327.081 494.465L327.08 494.465C311.09 492.318 295.895 490.278 283.189 489.439C271.569 488.692 259.948 487.027 248.327 485.362L248.326 485.362C184.355 476.166 138.035 481.858 92.0824 487.506L92.0817 487.506C64.175 490.936 36.4041 494.349 4.89801 494.4C4.89801 497.205 4.99137 499.948 5.08332 502.65C5.12725 503.941 5.17087 505.222 5.20383 506.497H5.33975ZM79.6867 534.564C55.6334 539.533 31.0774 541.643 6.52902 540.85L6.59698 540.714C6.54885 539.665 6.4898 538.599 6.42989 537.518C6.27834 534.782 6.12127 531.947 6.12127 529.025C30.4438 529.453 54.7637 528.033 78.8712 524.778C150.203 514.433 188.14 515.189 234.429 516.111H234.429C243.486 516.291 252.861 516.478 262.87 516.589C289.849 517.03 316.591 517.064 343.571 516.589C390.465 515.701 430.003 521.061 474.398 527.08L474.404 527.081L474.413 527.082C482.705 528.206 491.166 529.353 499.876 530.486C520.264 533.137 540.651 535.345 561.039 536.84C560.835 539.389 560.835 541.869 560.835 544.248C540.175 542.345 519.516 539.695 499.128 537.044C444.116 529.909 398.583 526.137 343.129 527.156C340.31 527.21 337.495 527.265 334.684 527.32L334.496 527.324C310.398 527.798 286.545 528.267 262.258 527.326C249.393 526.815 237.822 526.013 226.717 525.244H226.716C185.434 522.384 150.59 519.971 79.6867 534.564ZM8.22799 568.034L12.126 567.89L12.1297 567.89C44.0408 566.712 77.3178 565.484 110.846 562.971C128.557 561.638 146.135 560.17 163.678 558.704C262.917 550.413 361.009 542.217 475.615 559.369C503.58 563.582 531.681 567.388 559.68 569.563C559.68 568.39 559.769 567.15 559.865 565.829L559.865 565.828C559.936 564.853 560.01 563.834 560.053 562.767C532.202 560.417 504.436 556.55 476.662 552.681C448.999 548.828 421.327 544.974 393.554 542.617C312.508 535.74 230.486 542.384 147.64 549.094H147.639L147.637 549.094C101.135 552.861 54.3732 556.648 7.37851 558.078C7.56701 560.932 7.77685 563.53 7.9742 565.974L7.97456 565.978C8.02611 566.617 8.07681 567.245 8.12606 567.864L8.22799 568.034ZM161.339 580.504C143.67 581.501 125.91 582.633 108.059 583.902C77.2515 582.996 46.4435 581.863 15.6355 580.504C60.8303 579.281 105.778 576.075 151.024 572.847C266.75 564.592 384.424 556.198 513.162 580.504L520.467 581.863C505.109 582.43 489.75 582.951 474.391 583.426C428.918 577.737 383.145 574.775 337.318 574.558C280.539 574.116 223.487 577.106 161.339 580.504Z" fill="#B7805C"/>
</g>
<g style="mix-blend-mode:multiply">
<path fill-rule="evenodd" clip-rule="evenodd" d="M3.26709 286.684C3.26709 329.09 3.26709 372.04 3.7428 411.592C40.4745 414.107 81.4877 410.539 123.418 406.869C211.221 399.19 267.083 394.059 351.454 424.131C375.592 433.255 400.511 440.159 425.903 444.756C450.912 449.106 474.323 455.426 498.823 462.086L523.933 468.882C536.75 469.98 549.644 469.832 562.432 468.44C562.432 464.77 562.432 461.032 562.432 457.261C537.355 450.907 510.41 441.664 476.566 429.703C417.51 408.874 357.638 389.098 297.495 371.599C257.807 360.08 204.459 352.638 169.426 334.867C151.825 325.964 135.005 311.081 152.776 293.106C159.284 287.096 166.734 282.195 174.829 278.597C204.493 264.36 235.72 253.35 266.132 240.642C305.956 223.89 345.711 207.92 385.026 190.658C413.432 178.188 440.956 163.883 469.362 151.412C499.836 137.81 531.43 126.873 563.791 118.724C563.791 114.782 563.791 110.943 563.791 107.171C498.347 126.947 431.272 163.135 360.526 183.285C293.247 202.415 228.822 225.419 159.606 238.094C124.315 244.033 89.6128 253.061 55.9012 265.073C36.7028 271.869 18.8636 279.582 3.30107 286.684H3.26709Z" fill="url(#paint2_radial_23_2)"/>
</g>
<g style="mix-blend-mode:multiply">
<path fill-rule="evenodd" clip-rule="evenodd" d="M362.225 267.384C312.751 288.451 294.572 302.043 348.634 330.348C372.929 343.056 403.001 353.59 416.932 358.822C458.285 374.385 514.147 400.821 563.044 418.388C563.044 409.859 563.044 401.161 563.281 392.326C534.147 383.156 505.519 372.449 477.517 360.25C452.848 349.308 430.932 337.415 419.753 326.27C417.149 323.691 414.981 320.707 413.33 317.436C411.819 314.453 410.94 311.191 410.748 307.853C410.65 304.371 411.251 300.905 412.515 297.659C413.815 294.239 415.778 291.11 418.291 288.451C428.281 277.951 458.183 256.85 480.474 241.152C512.55 218.555 535.86 198.644 563.961 184.61C563.961 174.416 563.961 164.664 563.961 155.15C553.002 159.321 542.292 164.12 531.885 169.523C491.517 190.454 455.669 224.366 416.015 243.768C399.025 252.059 380.234 259.569 362.225 267.248V267.384Z" fill="url(#paint3_radial_23_2)"/>
</g>
<g style="mix-blend-mode:multiply">
<path fill-rule="evenodd" clip-rule="evenodd" d="M352.575 479.075C252.2 463.309 189.033 427.291 83.8323 458.484C53.2509 467.556 33.271 472.382 4.52441 471.022C4.69431 479.109 4.83023 486.925 5.03411 494.4C88.4195 494.4 145.641 470.615 248.463 485.362C260.083 487.027 271.704 488.76 283.325 489.439C314.281 491.478 359.813 500.618 395.763 501.128C458.761 501.978 509.356 515.365 561.447 521.754C561.447 517.404 561.651 512.885 561.753 508.162C495.595 501.536 421.18 489.847 352.575 479.075V479.075Z" fill="url(#paint4_radial_23_2)"/>
</g>
<g style="mix-blend-mode:multiply">
<path fill-rule="evenodd" clip-rule="evenodd" d="M84.7495 152.33C152.233 154.538 334.328 141.354 403.544 123.991C456.688 110.637 508.303 81.6185 563.485 68.0607C563.485 66.0899 563.485 64.1871 563.485 62.3522L561.107 62.7939C531.375 68.8762 498.686 80.6671 469.192 89.6377C426.378 102.652 385.501 110.025 341.328 117.059C310.135 121.952 278.772 126.166 247.545 129.495C208.468 133.641 151.145 136.971 111.967 136.971C75.7789 136.971 39.9646 138.466 3.98047 140.369C3.98047 144.514 3.98047 148.728 3.98047 153.009C30.9601 151.854 56.9543 151.514 84.8514 152.432L84.7495 152.33Z" fill="url(#paint5_radial_23_2)"/>
</g>
<g style="mix-blend-mode:screen">
<path fill-rule="evenodd" clip-rule="evenodd" d="M27.3246 567.082L8.33013 567.796C8.56799 570.412 8.80584 572.723 9.07768 574.592C10.5441 577.09 12.7704 579.054 15.4318 580.198H15.8056C28.2421 579.858 40.6445 579.349 53.1829 578.771C38.7757 578.329 23.2131 577.276 20.8685 574.626C19.7812 573.368 18.2181 570.48 19.7472 569.733C22.1802 568.603 24.7182 567.715 27.3246 567.082ZM7.58259 558.01C25.7276 557.466 43.8726 556.549 61.9496 555.427C42.1057 555.801 20.3928 555.427 17.0968 551.146C16.6148 550.316 16.696 549.275 17.3007 548.529C18.2375 547.32 19.4982 546.401 20.9365 545.879C24.6453 544.649 28.4236 543.639 32.2516 542.855L45.1638 539.457C32.3565 540.649 19.4869 541.035 6.63116 540.612C6.93698 547 7.24279 552.777 7.58259 557.874V558.01ZM6.15545 529.025C30.4774 529.482 54.7986 528.073 78.9053 524.812L89.0992 523.385C67.5902 525.118 39.7271 527.632 22.9753 523.962C19.9057 523.395 17.0164 522.102 14.5484 520.191C12.5096 518.458 12.9174 512.715 14.5484 510.744C16.0707 508.881 18.0831 507.481 20.3588 506.701C15.4885 506.701 10.5614 506.599 5.5778 506.395C5.78168 514.448 6.01953 522.025 6.29137 529.025H6.15545ZM5.13607 494.298C26.1134 494.132 47.0654 492.805 67.896 490.323C53.5528 491.577 39.1306 491.645 24.7762 490.527C20.9744 490.491 17.2314 489.584 13.8348 487.876C9.2136 484.988 14.8882 475.202 21.3103 473.707C30.3828 471.634 37.9941 470.037 45.8434 468.134C32.2669 470.721 18.4275 471.657 4.62638 470.92C4.62638 479.008 4.93219 486.823 5.13607 494.298V494.298ZM4.4225 459.13C29.8051 460.591 47.8482 457.329 73.5706 450.669C53.5907 454.067 23.9267 458.688 17.8783 455.97C15.4075 454.977 13.554 452.872 12.8834 450.295C11.1164 439.014 26.4751 429.092 35.8874 426.509C45.2997 423.927 55.1877 421.922 64.9398 420.019C44.731 422.677 24.363 423.937 3.98077 423.791C3.98077 435.99 4.2526 447.814 4.4225 459.13V459.13ZM3.84485 411.558C34.4263 413.631 67.6242 411.558 101.977 408.67C83.4957 410.245 64.8876 409.4 46.6249 406.156C37.2806 404.423 22.6015 396.641 17.8783 388.418C7.95636 371.157 6.76708 305.95 20.5627 288.315C24.6659 283.399 29.7606 279.404 35.5136 276.592C46.8967 270.612 56.8867 265.855 67.4883 260.996C63.6826 262.253 59.8429 263.612 55.9692 265.039C36.7709 271.835 18.9317 279.515 3.36914 286.65C3.36914 329.056 3.36914 372.006 3.84485 411.558V411.558ZM3.40312 273.942C18.456 267.146 35.5476 259.976 53.8285 253.316C69.8011 247.584 86.0934 242.785 102.623 238.943C77.4782 241.933 35.4457 256.375 23.0432 259.331C20.121 260.044 17.1988 257.632 14.6163 256.137C7.82044 252.195 9.31554 229.191 16.723 222.871C21.7596 219.579 27.3749 217.273 33.271 216.075C23.5869 216.992 13.8008 218.046 3.53904 219.473C3.53904 237.244 3.53904 255.491 3.53904 273.84L3.40312 273.942ZM3.98077 152.873C10.165 152.601 16.2813 152.398 22.3976 152.228C19.6586 151.927 16.952 151.381 14.3105 150.597C9.2136 148.932 11.4902 144.956 15.6697 142.204C18.4143 140.698 21.4065 139.697 24.5043 139.248L4.11669 140.233C4.11669 144.378 4.11669 148.592 4.11669 152.873H3.98077ZM4.18465 129.36L34.4943 127.932C28.2973 127.954 22.1037 127.637 15.9415 126.981C10.4369 126.369 12.7135 118.248 16.3493 117.365L18.5579 116.855L4.32056 117.161C4.32056 121.137 4.32056 125.214 4.32056 129.36H4.18465ZM4.45648 104.724C12.9174 104.487 21.4462 104.351 29.907 104.249C21.4802 103.603 13.3931 102.652 12.9174 101.293C12.6964 100.344 12.9936 99.3485 13.6989 98.6762C14.6511 97.3632 15.9775 96.3684 17.5046 95.8219C19.3621 95.3688 21.231 94.9611 23.1112 94.5986C17.0628 94.8365 10.9126 94.9724 4.5924 95.0743C4.5924 98.2004 4.5924 101.428 4.5924 104.724H4.45648ZM43.0911 80.9389L61.2021 79.4438L69.8328 78.7303C50.3626 79.8516 23.6888 80.837 15.8396 76.7934C9.96114 73.7353 17.5385 61.7066 21.718 60.0756C27.3213 58.5103 33.131 57.8113 38.9456 58.0028V58.0028C27.6644 58.0028 16.3493 58.0028 4.96617 58.0028C4.96617 63.3036 4.7623 69.1141 4.66036 75.4003V75.4003C17.1702 78.5388 29.9672 80.3946 42.8532 80.9389H43.0911ZM5.33995 46.9595C21.786 47.322 38.5152 47.6391 55.5275 47.9109C46.8967 47.0275 38.266 46.3139 29.7711 44.6829C27.8964 44.4481 26.2509 43.3215 25.3538 41.6587C24.7485 39.8778 25.195 37.9077 26.5091 36.5618C33.9846 29.4601 65.6194 28.1689 88.3856 27.7272C70.4218 27.0476 52.4467 26.1981 34.4603 25.1787C30.043 26.1981 25.7276 27.2854 21.4802 28.3728C14.9172 33.3002 9.43533 39.5223 5.37393 46.6537V46.9595H5.33995ZM67.93 18.2469C100.075 20.6255 133.102 22.2225 165.417 22.3924C154.645 21.6109 143.84 21.0332 133.102 19.776C111.526 17.1936 138.981 10.3637 161.713 5.77649C129.025 8.7327 97.1523 12.8782 67.93 18.2469V18.2469ZM15.0241 195.212C11.3543 189.299 11.6261 174.042 17.1308 169.353C21.3442 165.955 29.2954 163.917 37.7903 162.761C26.4751 162.931 15.194 163.271 3.81087 163.781C3.81087 172.842 3.75424 182.277 3.64098 192.086V192.086C7.56013 193.729 11.5912 195.092 15.7037 196.163C15.466 195.874 15.2502 195.567 15.0581 195.246L15.0241 195.212ZM52.9451 202.721C59.741 202.177 66.5368 201.702 73.6046 201.226L94.1961 199.765C88.7594 199.765 83.3227 199.765 77.9199 200.139C65.9932 200.614 40.9504 201.328 41.0863 201.328C45.0958 201.906 49.1054 202.381 52.9451 202.721V202.721Z" fill="url(#paint6_linear_23_2)"/>
</g>
<g style="mix-blend-mode:screen" opacity="0.65">
<path fill-rule="evenodd" clip-rule="evenodd" d="M4.76221 68.5024C4.76221 60.1095 5.06802 52.702 5.20394 46.4498C9.26534 39.3184 14.7472 33.0964 21.3102 28.1689C93.9581 9.3783 193.926 0.0339661 284.141 0.0339661C374.356 0.0339661 473.372 9.82003 547.005 28.1689C553.522 33.1563 559.004 39.3657 563.146 46.4498C563.146 56.6436 563.451 70.813 563.553 87.5989C562.432 74.8566 560.971 62.7599 558.49 49.406C554.282 44.0607 549.34 39.3362 543.811 35.3725C532.87 32.994 522.2 30.8873 510.783 28.8485C506.026 27.5913 500.352 25.7224 494.541 24.1254C490.346 23.7834 486.13 23.7834 481.935 24.1254C472.115 22.6303 463.96 21.475 453.8 20.1837C443.64 18.8925 434.466 16.2421 424.102 14.2374C417.736 13.6236 411.319 13.8291 405.006 14.849C268.137 2.4465 126.374 10.9753 25.2858 35.4745C19.2785 39.001 14.1079 43.789 10.131 49.508C8.26209 56.4737 6.73301 62.624 4.86415 68.6044L4.76221 68.5024Z" fill="#CA9E67"/>
</g>
<g style="mix-blend-mode:screen" opacity="0.3">
<path fill-rule="evenodd" clip-rule="evenodd" d="M155.121 240.506C171.839 238.399 188.829 237.992 205.377 234.832C219.281 231.763 232.988 227.859 246.424 223.143C261.646 218.284 276.461 212.167 291.65 207.274C307.654 202.109 324.033 198.202 340.003 192.901C350.197 189.503 360.391 185.256 370.279 181.212L378.807 177.814C372.725 179.785 366.643 181.654 360.492 183.387C293.213 202.517 228.788 225.521 159.572 238.196C149.378 240.064 139.422 242.001 129.67 244.108C138.165 242.885 146.66 241.695 155.121 240.71V240.506Z" fill="#CA9E67"/>
</g>
<g style="mix-blend-mode:screen" opacity="0.4">
<path fill-rule="evenodd" clip-rule="evenodd" d="M51.4839 162.727C58.0419 163.407 64.5999 164.12 71.158 164.664C84.4439 165.751 97.6959 166.975 111.016 167.484C117.613 167.717 124.219 167.524 130.792 166.907C136.466 166.397 141.971 164.596 147.781 164.087C154.985 163.441 162.223 163.611 169.46 163.509C179.314 163.509 189.202 164.358 198.988 163.339C219.886 161.13 240.545 156.985 261.307 153.893C284.379 150.495 307.485 147.301 330.557 143.699C344.454 141.49 358.386 139.417 372.147 136.495C377.278 135.408 382.341 134.049 387.404 132.622C371.672 135.748 355.769 137.854 339.833 139.961C253.865 151.412 172.79 166.125 84.6478 163.237C73.3666 162.863 62.4253 162.693 51.5858 162.727H51.4839Z" fill="#CA9E67"/>
</g>
<g style="mix-blend-mode:screen" opacity="0.4">
<path fill-rule="evenodd" clip-rule="evenodd" d="M362.226 267.384L355.43 270.272C361.795 268.007 368.172 265.832 374.56 263.748C385.977 259.942 397.598 256.748 408.879 252.603C418.82 249.453 428.453 245.404 437.66 240.506C446.939 234.413 455.721 227.596 463.926 220.119C472.353 213.323 480.134 205.473 488.459 198.406C492.638 195.008 496.92 191.61 501.201 188.008C472.591 207.138 445.271 229.531 415.879 243.904C398.889 252.195 380.099 259.705 362.09 267.384H362.226Z" fill="#CA9E67"/>
</g>
<g style="mix-blend-mode:multiply" opacity="0.5">
<path fill-rule="evenodd" clip-rule="evenodd" d="M240.409 342.003C231.643 339.386 222.366 338.605 213.566 336.158C200.721 332.59 180.741 326.95 170.208 318.761C164.917 314.922 163.377 307.708 166.64 302.043C160.014 310.402 162.359 319.033 180.504 328.377C213.464 345.095 264.942 352.162 302.524 363.24C342.178 374.759 381.594 387.263 420.738 400.617C375.274 382.948 327.499 364.531 281.151 353.352C273.743 351.551 265.894 351.619 258.52 349.546C252.234 347.813 246.763 343.871 240.511 342.003H240.409Z" fill="#683C11"/>
</g>
<g style="mix-blend-mode:multiply" opacity="0.5">
<path fill-rule="evenodd" clip-rule="evenodd" d="M134.394 405.918C215.944 398.816 270.651 395.35 351.454 424.131C375.592 433.255 400.511 440.159 425.903 444.756C435.281 446.387 444.456 448.154 453.528 450.397L441.126 446.999C428.01 443.329 414.622 440.543 401.642 436.431C384.652 431.097 368.614 423.995 351.76 418.66C344.658 416.418 337.081 415.84 329.911 413.767C317.61 410.165 305.956 404.593 293.485 401.67C280.539 398.442 267.298 396.541 253.967 395.996C230.279 395.611 206.588 396.621 183.018 399.02C166.708 400.583 150.568 403.369 134.394 406.088L134.394 405.918Z" fill="#683C11"/>
</g>
<g style="mix-blend-mode:screen" opacity="0.5">
<path fill-rule="evenodd" clip-rule="evenodd" d="M334.124 506.157C334.362 506.157 373.235 512.715 352.915 514.652C344.964 515.4 336.945 515.026 329.129 515.196C318.936 515.467 308.742 515.773 298.548 515.977C283.665 516.215 268.782 516.215 253.899 516.521H252.03H262.904C289.883 516.827 316.625 516.861 343.605 516.521C376.802 516.181 409.979 518.316 442.858 522.909L437.49 522.026C425.869 520.157 414.112 519.001 402.389 517.676C392.875 516.589 383.36 515.739 373.812 514.822C368.206 514.312 371.06 511.424 374.798 511.05C379.332 510.92 383.869 511.045 388.389 511.424C400.146 511.832 411.937 512.036 423.694 512.749C437.286 513.599 451.047 514.924 464.707 516.147C475.615 517.132 486.488 518.22 497.361 519.307C488.289 518.05 478.605 516.759 467.901 515.434C443.708 512.443 419.515 510.812 395.321 509.963C334.906 507.822 268.952 491.478 208.91 488.59C168.135 486.653 133.714 492.667 99.6665 498.308C109.045 497.424 118.423 496.609 127.801 495.929C145.029 494.74 162.325 494.162 179.586 493.313C192.226 492.667 204.901 490.73 217.541 491.41C243.094 492.769 268.51 496.133 293.859 499.361C307.451 501.06 320.669 504.016 334.124 506.157Z" fill="#CA9E67"/>
</g>
<g style="mix-blend-mode:multiply" opacity="0.5">
<path fill-rule="evenodd" clip-rule="evenodd" d="M320.6 68.7743C331.678 67.1773 342.823 66.056 353.968 65.3764C362.191 64.8667 376.293 65.7162 378.705 65.2065C380.506 64.7987 391.617 60.8911 392.705 60.4833C395.899 59.2941 423.286 57.9689 430.082 56.8815C435.064 56.059 439.989 54.9241 444.829 53.4836C446.256 53.0758 447.683 52.6341 449.111 52.1584C407.384 58.9543 378.026 57.8669 336.571 63.5755C285.907 70.5752 251.588 84.7786 203.032 87.9727C211.119 87.9727 219.172 88.2105 227.225 87.6669C239.209 86.7712 251.125 85.1256 262.903 82.7398C274.321 80.4632 285.33 76.5556 296.645 73.8712C304.562 71.9684 312.547 70.1335 320.6 68.9442V68.7743Z" fill="#683C11"/>
</g>
<path opacity="0.75" fill-rule="evenodd" clip-rule="evenodd" d="M40.916 201.328C41.6636 154.878 42.7509 108.53 43.9062 62.3182C122.572 43.6374 203.186 34.4091 284.039 34.8289C364.863 34.5758 445.438 43.825 524.103 62.3862C524.669 88.3691 525.145 114.352 525.53 140.335C529.25 139.173 532.585 137.024 535.18 134.117C534.875 106.933 534.535 82.468 534.161 55.4204L533.04 54.1971C476.498 40.6054 415.301 33.9794 357.536 30.7174C333.071 29.3129 308.572 28.6107 284.039 28.6107C259.098 28.6107 234.089 29.3242 209.284 30.7174C177.139 32.5183 144.961 35.4065 113.02 39.7899C86.8414 43.1634 60.857 47.9043 35.1735 53.9933C34.7998 54.435 34.392 54.8428 33.9842 55.2845C33.9842 63.5075 33.6784 68.5025 33.5085 76.7934C36.1729 79.0923 39.5118 80.4636 43.0228 80.7011C39.8627 80.9729 34.6978 82.1622 33.4746 84.099C32.693 122.937 31.8775 156.101 31.2999 195.891C32.2853 198.27 37.756 200.886 41.018 201.362L40.916 201.328ZM40.916 203.673C37.4419 204.211 34.1195 205.473 31.164 207.376C29.465 324.095 29.465 440.373 35.9551 552.709C201.027 559.505 366.189 559.505 531.443 552.709C532.428 525.729 533.244 500.754 533.889 473.503C530.982 471.247 527.601 469.678 524.001 468.916C523.356 493.653 522.54 518.322 521.589 543.093C363.085 552.726 204.143 552.726 45.6392 543.093C39.353 430.961 39.1151 317.198 40.916 203.673V203.673ZM525.632 140.913C527.195 250.224 527.025 359.4 524.069 468.712C527.263 469.086 533.447 468.134 533.991 466.605C536.54 357.022 536.404 251.108 535.282 141.422C534.399 139.927 529.064 140.131 525.632 140.913V140.913Z" fill="url(#paint7_linear_23_2)"/>
<g style="mix-blend-mode:screen" opacity="0.65">
<path fill-rule="evenodd" clip-rule="evenodd" d="M36.0229 552.709C96.982 560.626 153.999 561.51 215.366 561.611C231.608 561.611 247.851 561.34 264.093 561.034C282.442 560.728 300.756 559.946 319.105 559.743C391.379 558.893 459.134 562.733 531.51 552.709C366.416 559.188 201.253 559.188 36.0229 552.709V552.709Z" fill="#CA9E67"/>
</g>
<g style="mix-blend-mode:multiply" opacity="0.5">
<path fill-rule="evenodd" clip-rule="evenodd" d="M521.656 543.093C363.153 552.726 204.211 552.726 45.707 543.093C48.0516 553.287 258.452 554.646 283.563 554.646C308.674 554.646 517.137 552.301 521.419 543.093L521.656 543.093Z" fill="#683C11"/>
</g>
<g style="mix-blend-mode:screen">
<path fill-rule="evenodd" clip-rule="evenodd" d="M3.0289 542.413C2.96839 553.659 3.51285 564.9 4.65991 576.087C7.60297 582.689 12.305 588.355 18.2517 592.465C99.8022 595.183 288.592 602.251 401.335 593.62C274.456 591.445 143.636 586.382 16.7566 583.426C13.1187 581.355 9.96708 578.528 7.51418 575.135C5.71327 570.412 3.77644 551.35 2.96094 542.345L3.0289 542.413Z" fill="url(#paint8_radial_23_2)"/>
</g>
<path opacity="0.8" fill-rule="evenodd" clip-rule="evenodd" d="M78.0557 226.473C215.083 223.188 352.134 223.188 489.206 226.473C491.245 246.276 491.245 266.236 489.206 286.039C352.134 289.323 215.083 289.323 78.0557 286.039C76.2718 266.223 76.2718 246.288 78.0557 226.473V226.473Z" fill="url(#paint9_linear_23_2)"/>
<g style="mix-blend-mode:multiply" opacity="0.35">
<path fill-rule="evenodd" clip-rule="evenodd" d="M79.3809 233.608C147.34 232.113 215.378 231.354 283.495 231.332C351.612 231.309 419.673 232.079 487.677 233.642C489.104 242.579 490.09 251.583 490.735 260.622C490.735 249.295 490.226 237.969 489.206 226.643C352.133 223.267 215.083 223.267 78.0557 226.643C77.2402 236.836 76.7984 247.03 76.7305 257.224C77.3761 249.341 78.2595 241.458 79.3809 233.642V233.608Z" fill="#683C11"/>
</g>
<path opacity="0.8" fill-rule="evenodd" clip-rule="evenodd" d="M78.0557 367.079C215.083 363.795 352.134 363.795 489.206 367.079C491.245 386.882 491.245 406.842 489.206 426.645C352.134 429.953 215.083 429.953 78.0557 426.645C76.2718 406.83 76.2718 386.895 78.0557 367.079V367.079Z" fill="url(#paint10_linear_23_2)"/>
<g style="mix-blend-mode:multiply" opacity="0.35">
<path fill-rule="evenodd" clip-rule="evenodd" d="M79.3809 374.249C147.34 372.754 215.378 371.995 283.495 371.972C351.612 371.95 419.673 372.709 487.677 374.249C489.104 383.22 490.09 392.224 490.735 401.229C490.735 389.902 490.226 378.576 489.206 367.249C352.133 363.897 215.083 363.897 78.0557 367.249C77.2402 377.443 76.7984 387.637 76.7305 397.831C77.3648 389.902 78.2482 382.042 79.3809 374.249V374.249Z" fill="#683C11"/>
</g>
<path opacity="0.75" fill-rule="evenodd" clip-rule="evenodd" d="M231.201 451.858C266.11 449.377 301.152 449.377 336.061 451.858C340.149 452.141 343.392 455.413 343.639 459.503C345.083 480.761 345.083 502.093 343.639 523.351C343.391 527.434 340.144 530.696 336.061 530.962C301.141 533.46 266.087 533.46 231.167 530.962C227.047 530.695 223.77 527.404 223.522 523.283C222.281 502.086 222.281 480.836 223.522 459.639C223.735 455.504 227.002 452.179 231.133 451.892L231.201 451.858Z" fill="url(#paint11_linear_23_2)"/>
<g style="mix-blend-mode:multiply" opacity="0.5">
<path fill-rule="evenodd" clip-rule="evenodd" d="M249.583 455.63C264.444 454.95 279.168 454.701 293.757 454.882C308.345 455.063 322.469 455.664 336.129 456.683C340.029 456.947 343.193 459.94 343.672 463.819C343.672 463.819 343.672 464.159 343.672 464.328C343.944 468.372 344.148 472.382 344.318 476.425C344.59 482.541 344.726 488.658 344.76 494.74C344.76 488.658 344.76 482.541 344.522 476.459C344.522 472.28 344.182 468.066 343.944 463.887C343.944 462.426 343.774 460.964 343.672 459.503C343.426 455.413 340.183 452.141 336.095 451.858C313.601 450.227 290.744 449.672 267.525 450.193C255.654 450.465 243.716 451.009 231.71 451.824H231.201C227.07 452.111 223.803 455.436 223.589 459.571C223.181 467.013 222.876 474.522 222.74 482.032V489.473V494.604C222.74 493.653 222.74 492.735 222.74 491.784C222.74 490.832 222.74 490.221 222.74 489.473C222.74 486.993 222.74 484.512 222.74 482.032C222.74 476.119 223.147 470.241 223.487 464.396C223.701 460.261 226.968 456.936 231.099 456.649C237.249 456.241 243.365 455.868 249.448 455.596L249.583 455.63Z" fill="#683C11"/>
</g>
<g style="mix-blend-mode:screen" opacity="0.65">
<path fill-rule="evenodd" clip-rule="evenodd" d="M231.201 530.928C228.445 530.746 225.967 529.188 224.609 526.783C224.001 525.746 223.641 524.583 223.555 523.385C223.555 521.346 223.318 519.341 223.25 517.302C223.046 513.157 222.876 509.045 222.774 504.934C222.774 509.045 222.944 513.157 223.114 517.302C223.114 520.496 223.386 523.656 223.589 526.851C223.589 527.292 223.589 527.768 223.589 528.21C223.806 532.332 227.081 535.636 231.201 535.889C266.076 538.386 301.084 538.386 335.959 535.889C339.728 535.638 342.827 532.821 343.435 529.093V528.448C343.673 525.05 343.876 521.482 344.012 517.982C344.012 517.472 344.012 516.963 344.012 516.453C344.012 513.802 344.216 511.152 344.284 508.502C344.284 507.686 344.284 506.837 344.284 506.021C344.284 505.206 344.284 504.628 344.284 503.914C344.284 504.628 344.284 505.308 344.284 506.021V508.468C344.284 511.152 344.08 513.802 343.944 516.453C343.944 516.963 343.944 517.472 343.944 517.982C343.944 519.885 343.707 521.754 343.571 523.622C343.456 525.737 342.502 527.718 340.92 529.127C339.559 530.36 337.825 531.101 335.993 531.234C301.073 533.731 266.019 533.731 231.099 531.234L231.201 530.928Z" fill="#CA9E67"/>
</g>
<defs>
<linearGradient id="paint0_linear_23_2" x1="566.587" y1="599.68" x2="566.587" y2="0.208604" gradientUnits="userSpaceOnUse">
<stop stop-color="#692705"/>
<stop offset="1" stop-color="#823B00"/>
</linearGradient>
<radialGradient id="paint1_radial_23_2" cx="0" cy="0" r="1" gradientUnits="userSpaceOnUse" gradientTransform="translate(18.3525 -70.5082) scale(619.107 647.02)">
<stop stop-color="#BD8A60"/>
<stop offset="1" stop-color="#A85021"/>
</radialGradient>
<radialGradient id="paint2_radial_23_2" cx="0" cy="0" r="1" gradientUnits="userSpaceOnUse" gradientTransform="translate(555.058 314.581) scale(584.344 377.839)">
<stop stop-color="#CFA04D"/>
<stop offset="1" stop-color="white"/>
</radialGradient>
<radialGradient id="paint3_radial_23_2" cx="0" cy="0" r="1" gradientUnits="userSpaceOnUse" gradientTransform="translate(689.073 416.655) scale(567.83 602.104)">
<stop stop-color="#CFA04D"/>
<stop offset="1" stop-color="white"/>
</radialGradient>
<radialGradient id="paint4_radial_23_2" cx="0" cy="0" r="1" gradientUnits="userSpaceOnUse" gradientTransform="translate(37.8922 515.433) scale(781.798 106.049)">
<stop stop-color="#CFA04D"/>
<stop offset="1" stop-color="white"/>
</radialGradient>
<radialGradient id="paint5_radial_23_2" cx="0" cy="0" r="1" gradientUnits="userSpaceOnUse" gradientTransform="translate(378.094 -63.7453) scale(499.531 80.9395)">
<stop stop-color="#CFA04D"/>
<stop offset="1" stop-color="white"/>
</radialGradient>
<linearGradient id="paint6_linear_23_2" x1="-149.606" y1="1193.48" x2="358.454" y2="1193.48" gradientUnits="userSpaceOnUse">
<stop stop-color="#CA9E67"/>
<stop offset="0.65"/>
</linearGradient>
<linearGradient id="paint7_linear_23_2" x1="536.01" y1="557.67" x2="536.01" y2="28.6107" gradientUnits="userSpaceOnUse">
<stop stop-color="#823B00"/>
<stop offset="1" stop-color="#692705"/>
</linearGradient>
<radialGradient id="paint8_radial_23_2" cx="0" cy="0" r="1" gradientUnits="userSpaceOnUse" gradientTransform="translate(-1.11658 636.978) scale(566.369 78.8025)">
<stop stop-color="#B0670B"/>
<stop offset="1"/>
</radialGradient>
<linearGradient id="paint9_linear_23_2" x1="490.96" y1="288.519" x2="490.96" y2="223.958" gradientUnits="userSpaceOnUse">
<stop stop-color="#823B00"/>
<stop offset="1" stop-color="#692705"/>
</linearGradient>
<linearGradient id="paint10_linear_23_2" x1="490.796" y1="429.126" x2="490.796" y2="364.599" gradientUnits="userSpaceOnUse">
<stop stop-color="#823B00"/>
<stop offset="1" stop-color="#692705"/>
</linearGradient>
<linearGradient id="paint11_linear_23_2" x1="344.801" y1="532.831" x2="344.801" y2="449.989" gradientUnits="userSpaceOnUse">
<stop stop-color="#823B00"/>
<stop offset="1" stop-color="#692705"/>
</linearGradient>
</defs>
</svg>
