<svg width="40" height="51" viewBox="0 0 40 51" fill="none" xmlns="http://www.w3.org/2000/svg">
<path fill-rule="evenodd" clip-rule="evenodd" d="M33.3315 49.612C33.204 50.5409 25.7138 50.746 16.7303 49.4874C7.74683 48.2288 0.614994 46.0815 0.742419 45.1527C0.869844 44.2238 8.3083 44.1193 17.2918 45.3778C26.2753 46.6364 33.4668 48.6711 33.3315 49.612Z" fill="url(#paint0_radial_189_18759)"/>
<path fill-rule="evenodd" clip-rule="evenodd" d="M0 42.9629L0.504948 45.1562L32.9886 49.6296L34.0741 47.6532L0 42.9629Z" fill="url(#paint1_radial_189_18759)"/>
<path fill-rule="evenodd" clip-rule="evenodd" d="M39.9984 5.27388C39.8712 6.19464 31.6487 6.19063 22.6826 4.93761C13.7166 3.68458 5.8002 1.43473 5.92743 0.497963C6.05467 -0.438805 14.2136 0.0175689 23.1836 1.2706C32.5313 2.59168 40.1257 4.35313 39.9984 5.27388Z" fill="url(#paint2_radial_189_18759)"/>
<path fill-rule="evenodd" clip-rule="evenodd" d="M5.92592 0.740723L6.42689 2.93402L38.9146 7.40739L40 5.43106L5.92592 0.740723Z" fill="url(#paint3_radial_189_18759)"/>
<ellipse cx="17.2648" cy="45.7621" rx="1.66336" ry="17.0919" transform="rotate(-81.9509 17.2648 45.7621)" fill="url(#paint4_radial_189_18759)"/>
<path fill-rule="evenodd" clip-rule="evenodd" d="M5.92592 2.96289C5.92592 2.96289 19.1146 5.92193 38.5185 7.40734C38.5185 7.40734 29.5585 4.17786 5.92592 2.96289Z" fill="url(#paint5_radial_189_18759)"/>
<path opacity="0.72" fill-rule="evenodd" clip-rule="evenodd" d="M36.2963 6.92162C25.8649 4.8069 18.5515 3.65734 7.80668 2.96289C7.80668 2.96289 4.19504 15.9847 18.6964 25.0282L19.2605 25.1066L19.8246 25.1851C36.2336 20.4378 36.2963 6.92162 36.2963 6.92162Z" fill="url(#paint6_linear_189_18759)"/>
<path opacity="0.72" fill-rule="evenodd" clip-rule="evenodd" d="M2.22223 43.4606C11.54 45.8451 21.0967 47.1691 30.7108 47.4075C30.7108 47.4075 34.3263 34.3857 19.8254 25.3422L19.2613 25.2638L18.6973 25.1853C2.27707 29.9444 2.22223 43.4606 2.22223 43.4606Z" fill="url(#paint7_linear_189_18759)"/>
<path fill-rule="evenodd" clip-rule="evenodd" d="M12.5926 18.5545C12.5926 18.5545 15.7428 23.5235 19.3887 24.3742C22.9266 25.1971 30.3704 18.5186 30.3704 18.5186C30.3704 18.5186 20.1602 22.1893 12.5926 18.5545Z" fill="url(#paint8_linear_189_18759)"/>
<path fill-rule="evenodd" clip-rule="evenodd" d="M12.5926 18.3503C12.5926 18.3503 16.2553 16.9661 19.5302 18.5025C19.6141 19.8866 30.3704 18.3191 30.3704 18.3191C30.3704 18.3191 25.3921 20.5476 19.6141 19.8728C13.8362 19.198 12.5926 18.3503 12.5926 18.3503Z" fill="url(#paint9_linear_189_18759)"/>
<path fill-rule="evenodd" clip-rule="evenodd" d="M5.83934 36.3637C4.49109 38.303 3.74828 40.5937 3.7037 42.9498C3.7037 42.9498 10.5274 44.684 16.9185 45.6812C21.3195 46.3088 25.7585 46.6381 30.2047 46.6665C30.2047 46.6665 31.2209 39.7572 28.2199 34.8147C28.2199 34.8147 26.7789 38.1807 24.2503 39.5247C21.7217 40.8687 22.0472 39.8637 14.9297 38.7679C7.81223 37.6722 5.83934 36.3637 5.83934 36.3637Z" fill="url(#paint10_linear_189_18759)"/>
<path fill-rule="evenodd" clip-rule="evenodd" d="M28.1481 34.074C28.1481 34.074 25.2911 36.1938 20.4951 36.7237C15.6991 37.2537 14.1898 35.4816 10.9859 35.3988C9.29387 35.3214 7.5987 35.4226 5.92592 35.7011C5.92592 35.7011 8.251 37.5186 14.0558 38.5992C19.8606 39.6798 23.0606 40.7646 25.5827 39.2617C28.1048 37.7588 28.1481 34.074 28.1481 34.074Z" fill="url(#paint11_linear_189_18759)"/>
<path fill-rule="evenodd" clip-rule="evenodd" d="M12.5926 37.6631C12.5926 37.6631 21.3488 39.5876 25.1852 37.6631C25.1852 37.6631 21.0416 33.259 19.7479 32.6537C18.4543 32.0484 12.8958 36.0935 12.5926 37.6631Z" fill="url(#paint12_linear_189_18759)"/>
<path fill-rule="evenodd" clip-rule="evenodd" d="M18.5185 23.7036C19.1606 26.6005 19.1606 29.5603 18.5185 32.4572L19.7058 32.5925C19.7058 32.5925 18.7869 26.9464 20 23.8747L18.5185 23.7036Z" fill="url(#paint13_linear_189_18759)"/>
<path fill-rule="evenodd" clip-rule="evenodd" d="M19.2593 18.7362C19.2593 18.7362 16.7463 20.0426 12.5926 18.5264C12.5926 18.5264 16.0931 16.7099 19.2593 18.7362Z" fill="#FFE74C"/>
<path fill-rule="evenodd" clip-rule="evenodd" d="M20.1543 19.3909L17.7778 20.314C17.7778 20.314 18.9622 20.9278 22.9294 20.6832C25.2669 20.5565 27.5534 19.8178 29.6296 18.5186C29.6296 18.5186 25.4132 19.4047 23.0521 19.4047L20.1543 19.3909Z" fill="#FFE74C"/>
<path opacity="0.5" fill-rule="evenodd" clip-rule="evenodd" d="M8.14815 2.63719V0.0196625C9.87785 -0.0308375 11.6091 0.0159582 13.3333 0.15982L13.1327 2.96296C13.1327 2.96296 10.0772 2.75462 8.14815 2.63719Z" fill="#FBF9FA"/>
<g style="mix-blend-mode:soft-light" opacity="0.5">
<path fill-rule="evenodd" clip-rule="evenodd" d="M35.5556 6.16257L36.4144 3.70361C36.4144 3.70361 38.166 4.2229 38.5185 4.37563L37.3933 6.66658L35.5556 6.16257Z" fill="#FBF9FA"/>
</g>
<g style="mix-blend-mode:soft-light" opacity="0.5">
<path fill-rule="evenodd" clip-rule="evenodd" d="M2.0437 45.923L1.48148 43.7036L4.44444 44.4889V46.6666C3.62944 46.4614 2.82788 46.2132 2.0437 45.923Z" fill="#FBF9FA"/>
</g>
<g style="mix-blend-mode:soft-light" opacity="0.5">
<path fill-rule="evenodd" clip-rule="evenodd" d="M28.8889 50.3704L29.4091 48.2361C30.4696 48.3465 31.5385 48.3169 32.5926 48.1482L31.4533 50.1466C31.4533 50.1466 29.8304 50.3584 28.8889 50.3704Z" fill="#FBF9FA"/>
</g>
<g style="mix-blend-mode:screen">
<path fill-rule="evenodd" clip-rule="evenodd" d="M2.96297 43.871C2.96297 43.871 3.63481 36.873 8.06104 32.0832C12.4873 27.2934 18.7314 25.926 18.7314 25.926L20 26.2797C20 26.2797 14.7636 33.8356 13.0445 45.926C13.0445 45.9338 4.524 44.5665 2.96297 43.871Z" fill="url(#paint14_linear_189_18759)"/>
</g>
<g style="mix-blend-mode:screen">
<path fill-rule="evenodd" clip-rule="evenodd" d="M18.5185 24.4444C18.5185 24.4444 12.2588 20.6674 10.1672 13.9122C8.07549 7.15689 9.1806 2.96289 9.1806 2.96289L13.8457 3.69074C13.8457 3.69074 11.9529 13.4558 18.5185 24.4444Z" fill="url(#paint15_linear_189_18759)"/>
</g>
<g style="mix-blend-mode:screen">
<path fill-rule="evenodd" clip-rule="evenodd" d="M36.2963 7.12079C36.2963 7.12079 35.8429 20.6643 20 25.1853C20 25.1853 33.7424 20.9825 34.0408 6.66675L36.2963 7.12079Z" fill="url(#paint16_linear_189_18759)"/>
</g>
<g style="mix-blend-mode:screen">
<path fill-rule="evenodd" clip-rule="evenodd" d="M27.4074 47.4075C27.4074 47.4075 29.1187 40.9714 29.2275 37.7778C30.2955 40.8469 30.6224 44.1621 30.177 47.4075H27.4074Z" fill="url(#paint17_linear_189_18759)"/>
</g>
<path fill-rule="evenodd" clip-rule="evenodd" d="M9.62962 31.1112C9.62962 31.1112 12.5389 30.2308 13.3333 28.1482C13.3333 28.1482 11.2953 28.3537 9.62962 31.1112Z" fill="white"/>
<path fill-rule="evenodd" clip-rule="evenodd" d="M9.15338 8.14819C9.15338 8.14819 8.09924 10.1889 10.1999 11.8519C10.1999 11.8593 10.9943 8.92967 9.15338 8.14819Z" fill="white"/>
<path fill-rule="evenodd" clip-rule="evenodd" d="M31.1111 17.7779C31.1111 17.7779 32.1729 16.0226 33.3333 15.5557C33.3333 15.5557 32.5479 17.2583 31.1111 17.7779Z" fill="white"/>
<defs>
<radialGradient id="paint0_radial_189_18759" cx="0" cy="0" r="1" gradientUnits="userSpaceOnUse" gradientTransform="translate(17.0095 47.5641) rotate(8.30995) scale(11.5935 3.3958)">
<stop stop-color="#AD5C2E"/>
<stop offset="1" stop-color="#692705"/>
</radialGradient>
<radialGradient id="paint1_radial_189_18759" cx="0" cy="0" r="1" gradientUnits="userSpaceOnUse" gradientTransform="translate(17.0083 46.4727) rotate(8.93238) scale(12.1404 3.81399)">
<stop stop-color="#AD5C2E"/>
<stop offset="1" stop-color="#692705"/>
</radialGradient>
<radialGradient id="paint2_radial_189_18759" cx="0" cy="0" r="1" gradientUnits="userSpaceOnUse" gradientTransform="translate(22.9342 3.1198) rotate(7.95337) scale(12.1097 3.39882)">
<stop stop-color="#AD5C2E"/>
<stop offset="1" stop-color="#692705"/>
</radialGradient>
<radialGradient id="paint3_radial_189_18759" cx="0" cy="0" r="1" gradientUnits="userSpaceOnUse" gradientTransform="translate(22.9342 4.2505) rotate(8.93238) scale(12.1404 3.81399)">
<stop stop-color="#AD5C2E"/>
<stop offset="1" stop-color="#692705"/>
</radialGradient>
<radialGradient id="paint4_radial_189_18759" cx="0" cy="0" r="1" gradientUnits="userSpaceOnUse" gradientTransform="translate(17.262 46.6668) rotate(83.0927) scale(9.73628 2.3808)">
<stop stop-color="#AD5C2E"/>
<stop offset="1" stop-color="#692705"/>
</radialGradient>
<radialGradient id="paint5_radial_189_18759" cx="0" cy="0" r="1" gradientUnits="userSpaceOnUse" gradientTransform="translate(22.1947 5.30274) rotate(6.25161) scale(11.5404 2.55857)">
<stop stop-color="#AD5C2E"/>
<stop offset="1" stop-color="#692705"/>
</radialGradient>
<linearGradient id="paint6_linear_189_18759" x1="32.5042" y1="25.7837" x2="34.1753" y2="5.39874" gradientUnits="userSpaceOnUse">
<stop stop-color="#D09866"/>
<stop offset="1" stop-color="#F0E1EA"/>
</linearGradient>
<linearGradient id="paint7_linear_189_18759" x1="29.7756" y1="46.913" x2="31.4679" y2="26.2679" gradientUnits="userSpaceOnUse">
<stop offset="0.000132314" stop-color="#D09866"/>
<stop offset="1" stop-color="#F0E1EA"/>
</linearGradient>
<linearGradient id="paint8_linear_189_18759" x1="30.3649" y1="24.4421" x2="30.3649" y2="18.5186" gradientUnits="userSpaceOnUse">
<stop stop-color="#FF8647"/>
<stop offset="1" stop-color="#FFB934"/>
</linearGradient>
<linearGradient id="paint9_linear_189_18759" x1="12.5926" y1="20.0012" x2="30.3704" y2="20.0012" gradientUnits="userSpaceOnUse">
<stop stop-color="#FFC200"/>
<stop offset="1" stop-color="#FFD328"/>
</linearGradient>
<linearGradient id="paint10_linear_189_18759" x1="30.3709" y1="46.6665" x2="30.3709" y2="34.8147" gradientUnits="userSpaceOnUse">
<stop stop-color="#FF8647"/>
<stop offset="1" stop-color="#FFB934"/>
</linearGradient>
<linearGradient id="paint11_linear_189_18759" x1="5.92592" y1="39.9889" x2="28.1481" y2="39.9889" gradientUnits="userSpaceOnUse">
<stop stop-color="#FFC200"/>
<stop offset="1" stop-color="#FFD328"/>
</linearGradient>
<linearGradient id="paint12_linear_189_18759" x1="25.2114" y1="38.5189" x2="25.2114" y2="32.5703" gradientUnits="userSpaceOnUse">
<stop stop-color="#FFB934"/>
<stop offset="1" stop-color="#FF9F47"/>
</linearGradient>
<linearGradient id="paint13_linear_189_18759" x1="19.9971" y1="32.5885" x2="19.9971" y2="23.7036" gradientUnits="userSpaceOnUse">
<stop stop-color="#FFB934"/>
<stop offset="1" stop-color="#FF9F47"/>
</linearGradient>
<linearGradient id="paint14_linear_189_18759" x1="19.9963" y1="45.9338" x2="19.9963" y2="25.9378" gradientUnits="userSpaceOnUse">
<stop/>
<stop offset="1" stop-color="#CDC8CA"/>
</linearGradient>
<linearGradient id="paint15_linear_189_18759" x1="18.5191" y1="24.4444" x2="18.5191" y2="2.96289" gradientUnits="userSpaceOnUse">
<stop/>
<stop offset="1" stop-color="#CDC8CA"/>
</linearGradient>
<linearGradient id="paint16_linear_189_18759" x1="20" y1="25.1853" x2="36.2963" y2="25.1853" gradientUnits="userSpaceOnUse">
<stop stop-color="#CDC8CA"/>
<stop offset="1"/>
</linearGradient>
<linearGradient id="paint17_linear_189_18759" x1="30.3787" y1="47.4075" x2="30.3787" y2="37.7778" gradientUnits="userSpaceOnUse">
<stop stop-color="#AB6F55"/>
<stop offset="1"/>
</linearGradient>
</defs>
</svg>
