<svg width="8" height="24" viewBox="0 0 8 24" fill="none" xmlns="http://www.w3.org/2000/svg">
<g clip-path="url(#clip0_25_13477)">
<path d="M7.25382 4.66773V9.75864H0.744141V4.66773C0.744141 3.86178 1.01325 2.88995 1.46381 2.03934C1.53721 1.89899 1.61468 1.76077 1.69827 1.62892C2.05505 1.06326 2.49338 0.584795 2.98675 0.295587C2.99287 0.291334 3.00102 0.287081 3.01122 0.282828C3.3211 0.1042 3.64934 0.00212653 3.98981 0H3.99796C4.06932 0 4.14067 0.00425306 4.20999 0.0148857C4.25688 0.0191388 4.30377 0.0255183 4.34863 0.036151C4.44241 0.0531632 4.53619 0.0786816 4.62793 0.112706C4.94801 0.227539 5.25179 0.429559 5.53109 0.686869C6.55862 1.63317 7.25382 3.36842 7.25382 4.66773Z" fill="#BE8546"/>
<path d="M7.80224 8.91229V21.9564C7.80224 22.016 7.75739 22.067 7.70234 22.067H0.297652C0.242606 22.067 0.197754 22.016 0.197754 21.9564V8.91229H7.80224Z" fill="#D8A453"/>
<path d="M7.7148 22.067L7.54354 22.6582L7.43753 23.0218L7.34375 23.3408H0.656694L0.562913 23.0218L0.456898 22.6582L0.285645 22.067H7.7148Z" fill="#A07C40"/>
<path d="M8 23.2642V23.7597C8 23.8937 7.90214 24 7.78593 24H0.214067C0.0958206 24 0 23.8937 0 23.7597V23.2642C0 23.1303 0.0958206 23.0239 0.214067 23.0239H7.78593C7.90214 23.0239 8 23.1303 8 23.2642Z" fill="#B69256"/>
<path opacity="0.1" d="M7.25382 8.54651H0.744141V8.91015H7.25382V8.54651Z" fill="black"/>
<path opacity="0.1" d="M8 23.6364V23.7597C8 23.8937 7.90214 24 7.78593 24H0.214067C0.0958206 24 0 23.8937 0 23.7597V23.6364H8Z" fill="black"/>
<path opacity="0.1" d="M7.54319 22.6582L7.43717 23.0218H0.562557L0.456543 22.6582H7.54319Z" fill="black"/>
<path opacity="0.1" d="M7.80224 21.7033V21.9564C7.80224 22.0159 7.75739 22.067 7.70234 22.067H0.297652C0.242606 22.067 0.197754 22.0159 0.197754 21.9564V21.7033H7.80224Z" fill="black"/>
<path opacity="0.2" d="M1.56974 23.2642C1.56974 23.1303 1.67168 23.0239 1.80012 23.0239H2.17933L2.06312 22.6582L1.87963 22.0691H1.79604V8.91229H0.972393V22.0691H1.05598L1.23947 22.6582L1.35568 23.0239H0.976471C0.848031 23.0239 0.746094 23.1303 0.746094 23.2642V23.7597C0.746094 23.8937 0.848031 24 0.976471 24H1.80216C1.67372 24 1.57178 23.8937 1.57178 23.7597V23.2642H1.56974Z" fill="black"/>
<path opacity="0.2" d="M2.98692 0.295596C2.98692 0.295596 3.0012 0.28709 3.01139 0.282837C2.991 0.321114 2.96858 0.359392 2.94819 0.397669C2.35899 1.48858 1.99406 2.85381 1.99406 3.9511V8.91016H1.17041V3.9511C1.17041 3.36418 1.27439 2.69857 1.46399 2.03935C1.53738 1.899 1.61485 1.76077 1.69844 1.62893C2.05522 1.06327 2.49355 0.584804 2.98692 0.295596Z" fill="black"/>
<path opacity="0.2" d="M2.3794 23.2642C2.3794 23.1303 2.48134 23.0239 2.60978 23.0239H2.98898L2.87277 22.6582L2.68929 22.0691H2.6057V8.91229H1.78001V22.0691H1.8636L2.04709 22.6582L2.16329 23.0239H1.78409C1.65565 23.0239 1.55371 23.1303 1.55371 23.2642V23.7597C1.55371 23.8937 1.65565 24 1.78409 24H2.60978C2.48134 24 2.3794 23.8937 2.3794 23.7597V23.2642Z" fill="white"/>
<path opacity="0.2" d="M3.01118 0.282828C3.32107 0.1042 3.6493 0.00212653 3.98977 0C3.90822 0.127592 3.82871 0.259436 3.75532 0.397661C3.16612 1.48857 2.80119 2.8538 2.80119 3.95109V8.91015H1.97754V3.95109C1.97754 2.8538 2.34247 1.48857 2.92963 0.397661C2.94798 0.363636 2.96633 0.329612 2.98671 0.295587C2.99283 0.291334 3.00098 0.287081 3.01118 0.282828Z" fill="white"/>
<path d="M5.74532 23.2642C5.74532 23.1303 5.64339 23.0239 5.51495 23.0239H5.13574L5.25195 22.6582L5.43544 22.0691H5.51902V8.91229H6.34471V22.0691H6.26112L6.07764 22.6582L5.96143 23.0239H6.34064C6.46908 23.0239 6.57101 23.1303 6.57101 23.2642V23.7597C6.57101 23.8937 6.46908 24 6.34064 24H5.51495C5.64339 24 5.74532 23.8937 5.74532 23.7597V23.2642Z" fill="#FFF4E5"/>
<path d="M6.33844 3.9511V8.91017H5.51479V3.9511C5.51479 2.85381 5.14986 1.48858 4.56066 0.397673C4.49542 0.272208 4.42407 0.153122 4.34863 0.0361633C4.44241 0.0531756 4.5362 0.0786939 4.62794 0.112718C4.94802 0.227551 5.25179 0.429571 5.5311 0.686881C6.03263 1.7225 6.33844 2.94951 6.33844 3.9511Z" fill="#FFF4E5"/>
<path fill-rule="evenodd" clip-rule="evenodd" d="M7.25382 8.91228V8.91015V8.54652V4.66773C7.25382 3.36842 6.55861 1.63317 5.53109 0.686869C5.25178 0.429559 4.94801 0.227539 4.62793 0.112706C4.53619 0.0786816 4.44241 0.0531632 4.34862 0.036151C4.30377 0.0255183 4.25688 0.0191388 4.20999 0.0148857C4.14067 0.00425306 4.06932 0 3.99796 0H3.98981C3.64934 0.00212653 3.3211 0.1042 3.01121 0.282828C3.00102 0.287081 2.99286 0.291334 2.98675 0.295587C2.49337 0.584795 2.05505 1.06326 1.69827 1.62892C1.61468 1.76077 1.53721 1.89899 1.46381 2.03934C1.01325 2.88995 0.744139 3.86178 0.744139 4.66773V8.54652V8.91015V8.91228H0.197757V21.7033V21.9564C0.197757 22.0159 0.24261 22.067 0.297655 22.067L0.285423 22.067L0.456677 22.6582L0.562691 23.0218L0.563315 23.0239H0.214067C0.0958206 23.0239 0 23.1302 0 23.2642V23.6364V23.7597C0 23.8602 0.0538991 23.9451 0.130734 23.9813C0.156346 23.9934 0.184506 24 0.214067 24H0.975612L0.976555 24L1.78296 24L1.78389 24L1.8013 24L1.80224 24H2.60924H2.60958H5.51478L5.51549 24L6.34047 24L6.34127 24H7.78593C7.90214 24 8 23.8937 8 23.7597V23.6364V23.2642C8 23.1302 7.90214 23.0239 7.78593 23.0239H7.43668L7.43731 23.0218L7.54332 22.6582L7.71458 22.067L7.70234 22.067C7.75739 22.067 7.80224 22.0159 7.80224 21.9564V21.7033V8.91228H7.25382Z" fill="#2D1509" fill-opacity="0.6"/>
</g>
<defs>
<clipPath id="clip0_25_13477">
<rect width="8" height="24" fill="white"/>
</clipPath>
</defs>
</svg>
