<svg width="246" height="375" viewBox="0 0 246 375" fill="none" xmlns="http://www.w3.org/2000/svg">
<path fill-rule="evenodd" clip-rule="evenodd" d="M82.6012 0C85.9323 3.50141 92.1582 5.85714 99.289 5.85714C104.624 5.85714 109.452 4.53868 112.94 2.40842C114.206 2.74303 115.604 2.92857 117.072 2.92857C120.757 2.92857 123.993 1.76044 125.833 0H240C243.314 0 246 2.68629 246 6V111.434L229.619 119.322L246 122.2V316.772L214.672 295.634L246 327.575V368.857C246 372.171 243.314 374.857 240 374.857H237.055L223.825 354.118L228.165 374.857H186.005L146.921 372.276L115.33 374.857H5.99999C2.68629 374.857 0 372.171 0 368.857V317.348L11.7551 311.077L0 299.09V166.462L16.5625 167.466L0 159.413V157.6L34.1065 160.651L0 143.334V6.00001C0 2.6863 2.68629 0 6 0H41.7422L51.8395 18.4128L49.5909 0H82.6012Z" fill="#EFAB6A" fill-opacity="0.2"/>
</svg>
