<svg width="88" height="130" viewBox="0 0 88 130" fill="none" xmlns="http://www.w3.org/2000/svg">
<g filter="url(#filter0_d_25_12737)">
<mask id="path-1-outside-1_25_12737" maskUnits="userSpaceOnUse" x="4" y="0" width="80" height="122" fill="black">
<rect fill="white" x="4" width="80" height="122"/>
<path fill-rule="evenodd" clip-rule="evenodd" d="M31.1907 1C32.2468 2.12088 34.2209 2.875 36.4819 2.875C38.1734 2.875 39.7043 2.45292 40.8104 1.77097C41.2119 1.87809 41.6549 1.93748 42.1205 1.93748C43.2887 1.93748 44.3148 1.56355 44.8983 1H77C80.3137 1 83 3.68629 83 7V36.6725L77.8061 39.1974L83 40.1188V102.406L73.0668 95.639L83 105.864V115C83 117.325 81.678 119.34 79.7449 120.337L75.9692 114.361L77.3433 120.99C77.2297 120.997 77.1152 121 77 121H63.9769L51.5844 120.174L41.5681 121H11C7.68629 121 5 118.314 5 115V102.59L8.72742 100.583L5 96.745V54.288L10.2518 54.6097L5 52.0315V51.4512L15.8142 52.4278L5 46.8843V7C5 3.68629 7.68629 1 11 1H18.2352L21.4368 6.89434L20.7238 1H31.1907Z"/>
</mask>
<path fill-rule="evenodd" clip-rule="evenodd" d="M31.1907 1C32.2468 2.12088 34.2209 2.875 36.4819 2.875C38.1734 2.875 39.7043 2.45292 40.8104 1.77097C41.2119 1.87809 41.6549 1.93748 42.1205 1.93748C43.2887 1.93748 44.3148 1.56355 44.8983 1H77C80.3137 1 83 3.68629 83 7V36.6725L77.8061 39.1974L83 40.1188V102.406L73.0668 95.639L83 105.864V115C83 117.325 81.678 119.34 79.7449 120.337L75.9692 114.361L77.3433 120.99C77.2297 120.997 77.1152 121 77 121H63.9769L51.5844 120.174L41.5681 121H11C7.68629 121 5 118.314 5 115V102.59L8.72742 100.583L5 96.745V54.288L10.2518 54.6097L5 52.0315V51.4512L15.8142 52.4278L5 46.8843V7C5 3.68629 7.68629 1 11 1H18.2352L21.4368 6.89434L20.7238 1H31.1907Z" fill="url(#paint0_linear_25_12737)"/>
<path d="M31.1907 1L31.9185 0.314211L31.6224 0H31.1907V1ZM40.8104 1.77097L41.0683 0.804781L40.6522 0.693753L40.2856 0.919745L40.8104 1.77097ZM44.8983 1V0H44.4942L44.2036 0.28069L44.8983 1ZM83 36.6725L83.4372 37.5718L84 37.2982V36.6725H83ZM77.8061 39.1974L77.3689 38.2981L74.5997 39.6443L77.6314 40.1821L77.8061 39.1974ZM83 40.1188H84V39.2806L83.1747 39.1342L83 40.1188ZM83 102.406L82.437 103.232L84 104.297V102.406H83ZM73.0668 95.639L73.6299 94.8126L72.3496 96.3358L73.0668 95.639ZM83 105.864H84V105.458L83.7173 105.167L83 105.864ZM79.7449 120.337L78.8995 120.871L79.3888 121.645L80.203 121.226L79.7449 120.337ZM75.9692 114.361L76.8145 113.827L74.99 114.564L75.9692 114.361ZM77.3433 120.99L77.3996 121.989L78.558 121.923L78.3225 120.787L77.3433 120.99ZM63.9769 121L63.9104 121.998L63.9436 122H63.9769V121ZM51.5844 120.174L51.6509 119.176L51.5765 119.171L51.5022 119.177L51.5844 120.174ZM41.5681 121V122H41.6093L41.6503 121.997L41.5681 121ZM5 102.59L4.52585 101.71L4 101.993V102.59H5ZM8.72742 100.583L9.20157 101.463L10.367 100.835L9.44475 99.8859L8.72742 100.583ZM5 96.745H4V97.1507L4.28267 97.4418L5 96.745ZM5 54.288L5.06114 53.2899L4 53.2249V54.288H5ZM10.2518 54.6097L10.1907 55.6078L10.6925 53.712L10.2518 54.6097ZM5 52.0315H4V52.6546L4.55933 52.9292L5 52.0315ZM5 51.4512L5.08994 50.4553L4 50.3569V51.4512H5ZM15.8142 52.4278L15.7243 53.4238L16.2704 51.5379L15.8142 52.4278ZM5 46.8843H4V47.4954L4.54382 47.7741L5 46.8843ZM18.2352 1L19.114 0.522701L18.83 0H18.2352V1ZM21.4368 6.89434L20.5581 7.37164L22.4296 6.77425L21.4368 6.89434ZM20.7238 1V0H19.5956L19.7311 1.12008L20.7238 1ZM36.4819 1.875C34.4027 1.875 32.7298 1.17527 31.9185 0.314211L30.4629 1.68579C31.7639 3.06648 34.0391 3.875 36.4819 3.875V1.875ZM40.2856 0.919745C39.3616 1.48942 38.0189 1.875 36.4819 1.875V3.875C38.3279 3.875 40.047 3.41642 41.3352 2.6222L40.2856 0.919745ZM42.1205 0.937479C41.7389 0.937479 41.3827 0.888687 41.0683 0.804781L40.5526 2.73716C41.041 2.86749 41.5708 2.93748 42.1205 2.93748V0.937479ZM44.2036 0.28069C43.8568 0.6156 43.1091 0.937479 42.1205 0.937479V2.93748C43.4684 2.93748 44.7727 2.51149 45.593 1.71931L44.2036 0.28069ZM44.8983 2H77V0H44.8983V2ZM77 2C79.7614 2 82 4.23858 82 7H84C84 3.13401 80.866 0 77 0V2ZM82 7V36.6725H84V7H82ZM78.2433 40.0968L83.4372 37.5718L82.5628 35.7731L77.3689 38.2981L78.2433 40.0968ZM83.1747 39.1342L77.9807 38.2128L77.6314 40.1821L82.8253 41.1035L83.1747 39.1342ZM82 40.1188V102.406H84V40.1188H82ZM72.5038 96.4655L82.437 103.232L83.563 101.579L73.6299 94.8126L72.5038 96.4655ZM83.7173 105.167L73.7841 94.9422L72.3496 96.3358L82.2827 106.561L83.7173 105.167ZM82 105.864V115H84V105.864H82ZM82 115C82 116.936 80.9002 118.616 79.2868 119.448L80.203 121.226C82.4559 120.065 84 117.713 84 115H82ZM80.5903 119.803L76.8145 113.827L75.1238 114.895L78.8995 120.871L80.5903 119.803ZM74.99 114.564L76.3641 121.193L78.3225 120.787L76.9483 114.158L74.99 114.564ZM77.287 119.992C77.1921 119.997 77.0964 120 77 120V122C77.134 122 77.2673 121.996 77.3996 121.989L77.287 119.992ZM77 120H63.9769V122H77V120ZM51.5179 121.172L63.9104 121.998L64.0434 120.002L51.6509 119.176L51.5179 121.172ZM41.6503 121.997L51.6666 121.17L51.5022 119.177L41.4859 120.003L41.6503 121.997ZM41.5681 120H11V122H41.5681V120ZM11 120C8.23858 120 6 117.761 6 115H4C4 118.866 7.13401 122 11 122V120ZM6 115V102.59H4V115H6ZM8.25326 99.7022L4.52585 101.71L5.47415 103.47L9.20157 101.463L8.25326 99.7022ZM4.28267 97.4418L8.01009 101.279L9.44475 99.8859L5.71733 96.0483L4.28267 97.4418ZM6 96.745V54.288H4V96.745H6ZM10.3129 53.6115L5.06114 53.2899L4.93886 55.2861L10.1907 55.6078L10.3129 53.6115ZM4.55933 52.9292L9.81114 55.5073L10.6925 53.712L5.44067 51.1338L4.55933 52.9292ZM6 52.0315V51.4512H4V52.0315H6ZM4.91006 52.4472L15.7243 53.4238L15.9041 51.4319L5.08994 50.4553L4.91006 52.4472ZM16.2704 51.5379L5.45618 45.9944L4.54382 47.7741L15.358 53.3177L16.2704 51.5379ZM6 46.8843V7H4V46.8843H6ZM6 7C6 4.23858 8.23858 2 11 2V0C7.13401 0 4 3.13401 4 7H6ZM11 2H18.2352V0H11V2ZM22.3155 6.41704L19.114 0.522701L17.3565 1.4773L20.5581 7.37164L22.3155 6.41704ZM19.7311 1.12008L20.444 7.01442L22.4296 6.77425L21.7166 0.879918L19.7311 1.12008ZM20.7238 2H31.1907V0H20.7238V2Z" fill="url(#paint1_linear_25_12737)" mask="url(#path-1-outside-1_25_12737)"/>
</g>
<mask id="mask0_25_12737" style="mask-type:alpha" maskUnits="userSpaceOnUse" x="4" y="0" width="80" height="122">
<mask id="path-3-outside-2_25_12737" maskUnits="userSpaceOnUse" x="4" y="0" width="80" height="122" fill="black">
<rect fill="white" x="4" width="80" height="122"/>
<path fill-rule="evenodd" clip-rule="evenodd" d="M31.1907 1C32.2468 2.12088 34.2209 2.875 36.4819 2.875C38.1734 2.875 39.7043 2.45292 40.8104 1.77097C41.2119 1.87809 41.6549 1.93748 42.1205 1.93748C43.2887 1.93748 44.3148 1.56355 44.8983 1H77C80.3137 1 83 3.68629 83 7V36.6725L77.8061 39.1974L83 40.1188V102.406L73.0668 95.639L83 105.864V115C83 117.325 81.678 119.34 79.7449 120.337L75.9692 114.361L77.3433 120.99C77.2297 120.997 77.1152 121 77 121H63.9769L51.5844 120.174L41.5681 121H11C7.68629 121 5 118.314 5 115V102.59L8.72742 100.583L5 96.745V54.288L10.2518 54.6097L5 52.0315V51.4512L15.8142 52.4278L5 46.8843V7C5 3.68629 7.68629 1 11 1H18.2352L21.4368 6.89434L20.7238 1H31.1907Z"/>
</mask>
<path fill-rule="evenodd" clip-rule="evenodd" d="M31.1907 1C32.2468 2.12088 34.2209 2.875 36.4819 2.875C38.1734 2.875 39.7043 2.45292 40.8104 1.77097C41.2119 1.87809 41.6549 1.93748 42.1205 1.93748C43.2887 1.93748 44.3148 1.56355 44.8983 1H77C80.3137 1 83 3.68629 83 7V36.6725L77.8061 39.1974L83 40.1188V102.406L73.0668 95.639L83 105.864V115C83 117.325 81.678 119.34 79.7449 120.337L75.9692 114.361L77.3433 120.99C77.2297 120.997 77.1152 121 77 121H63.9769L51.5844 120.174L41.5681 121H11C7.68629 121 5 118.314 5 115V102.59L8.72742 100.583L5 96.745V54.288L10.2518 54.6097L5 52.0315V51.4512L15.8142 52.4278L5 46.8843V7C5 3.68629 7.68629 1 11 1H18.2352L21.4368 6.89434L20.7238 1H31.1907Z" fill="white"/>
<path d="M31.1907 1L31.9185 0.314211L31.6224 0H31.1907V1ZM40.8104 1.77097L41.0683 0.804781L40.6522 0.693753L40.2856 0.919745L40.8104 1.77097ZM44.8983 1V0H44.4942L44.2036 0.28069L44.8983 1ZM83 36.6725L83.4372 37.5718L84 37.2982V36.6725H83ZM77.8061 39.1974L77.3689 38.2981L74.5997 39.6443L77.6314 40.1821L77.8061 39.1974ZM83 40.1188H84V39.2806L83.1747 39.1342L83 40.1188ZM83 102.406L82.437 103.232L84 104.297V102.406H83ZM73.0668 95.639L73.6299 94.8126L72.3496 96.3358L73.0668 95.639ZM83 105.864H84V105.458L83.7173 105.167L83 105.864ZM79.7449 120.337L78.8995 120.871L79.3888 121.645L80.203 121.226L79.7449 120.337ZM75.9692 114.361L76.8145 113.827L74.99 114.564L75.9692 114.361ZM77.3433 120.99L77.3996 121.989L78.558 121.923L78.3225 120.787L77.3433 120.99ZM63.9769 121L63.9104 121.998L63.9436 122H63.9769V121ZM51.5844 120.174L51.6509 119.176L51.5765 119.171L51.5022 119.177L51.5844 120.174ZM41.5681 121V122H41.6093L41.6503 121.997L41.5681 121ZM5 102.59L4.52585 101.71L4 101.993V102.59H5ZM8.72742 100.583L9.20157 101.463L10.367 100.835L9.44475 99.8859L8.72742 100.583ZM5 96.745H4V97.1507L4.28267 97.4418L5 96.745ZM5 54.288L5.06114 53.2899L4 53.2249V54.288H5ZM10.2518 54.6097L10.1907 55.6078L10.6925 53.712L10.2518 54.6097ZM5 52.0315H4V52.6546L4.55933 52.9292L5 52.0315ZM5 51.4512L5.08994 50.4553L4 50.3569V51.4512H5ZM15.8142 52.4278L15.7243 53.4238L16.2704 51.5379L15.8142 52.4278ZM5 46.8843H4V47.4954L4.54382 47.7741L5 46.8843ZM18.2352 1L19.114 0.522701L18.83 0H18.2352V1ZM21.4368 6.89434L20.5581 7.37164L22.4296 6.77425L21.4368 6.89434ZM20.7238 1V0H19.5956L19.7311 1.12008L20.7238 1ZM36.4819 1.875C34.4027 1.875 32.7298 1.17527 31.9185 0.314211L30.4629 1.68579C31.7639 3.06648 34.0391 3.875 36.4819 3.875V1.875ZM40.2856 0.919745C39.3616 1.48942 38.0189 1.875 36.4819 1.875V3.875C38.3279 3.875 40.047 3.41642 41.3352 2.6222L40.2856 0.919745ZM42.1205 0.937479C41.7389 0.937479 41.3827 0.888687 41.0683 0.804781L40.5526 2.73716C41.041 2.86749 41.5708 2.93748 42.1205 2.93748V0.937479ZM44.2036 0.28069C43.8568 0.615601 43.1091 0.937479 42.1205 0.937479V2.93748C43.4684 2.93748 44.7727 2.51149 45.593 1.71931L44.2036 0.28069ZM44.8983 2H77V0H44.8983V2ZM77 2C79.7614 2 82 4.23858 82 7H84C84 3.13401 80.866 0 77 0V2ZM82 7V36.6725H84V7H82ZM78.2433 40.0968L83.4372 37.5718L82.5628 35.7731L77.3689 38.2981L78.2433 40.0968ZM83.1747 39.1342L77.9807 38.2128L77.6314 40.1821L82.8253 41.1035L83.1747 39.1342ZM82 40.1188V102.406H84V40.1188H82ZM72.5038 96.4655L82.437 103.232L83.563 101.579L73.6299 94.8126L72.5038 96.4655ZM83.7173 105.167L73.7841 94.9422L72.3496 96.3358L82.2827 106.561L83.7173 105.167ZM82 105.864V115H84V105.864H82ZM82 115C82 116.936 80.9002 118.616 79.2868 119.448L80.203 121.226C82.4559 120.065 84 117.713 84 115H82ZM80.5903 119.803L76.8145 113.827L75.1238 114.895L78.8995 120.871L80.5903 119.803ZM74.99 114.564L76.3641 121.193L78.3225 120.787L76.9483 114.158L74.99 114.564ZM77.287 119.992C77.1921 119.997 77.0964 120 77 120V122C77.134 122 77.2673 121.996 77.3996 121.989L77.287 119.992ZM77 120H63.9769V122H77V120ZM51.5179 121.172L63.9104 121.998L64.0434 120.002L51.6509 119.176L51.5179 121.172ZM41.6503 121.997L51.6666 121.17L51.5022 119.177L41.4859 120.003L41.6503 121.997ZM41.5681 120H11V122H41.5681V120ZM11 120C8.23858 120 6 117.761 6 115H4C4 118.866 7.13401 122 11 122V120ZM6 115V102.59H4V115H6ZM8.25326 99.7022L4.52585 101.71L5.47415 103.47L9.20157 101.463L8.25326 99.7022ZM4.28267 97.4418L8.01008 101.279L9.44475 99.8859L5.71733 96.0483L4.28267 97.4418ZM6 96.745V54.288H4V96.745H6ZM10.3129 53.6115L5.06114 53.2899L4.93886 55.2861L10.1907 55.6078L10.3129 53.6115ZM4.55933 52.9292L9.81114 55.5073L10.6925 53.712L5.44067 51.1338L4.55933 52.9292ZM6 52.0315V51.4512H4V52.0315H6ZM4.91006 52.4472L15.7243 53.4238L15.9041 51.4319L5.08994 50.4553L4.91006 52.4472ZM16.2704 51.5379L5.45618 45.9944L4.54382 47.7741L15.358 53.3177L16.2704 51.5379ZM6 46.8843V7H4V46.8843H6ZM6 7C6 4.23858 8.23858 2 11 2V0C7.13401 0 4 3.13401 4 7H6ZM11 2H18.2352V0H11V2ZM22.3155 6.41704L19.114 0.522701L17.3565 1.4773L20.5581 7.37164L22.3155 6.41704ZM19.7311 1.12008L20.444 7.01442L22.4296 6.77425L21.7166 0.879918L19.7311 1.12008ZM20.7238 2H31.1907V0H20.7238V2Z" fill="white" mask="url(#path-3-outside-2_25_12737)"/>
</mask>
<g mask="url(#mask0_25_12737)">
</g>
<defs>
<filter id="filter0_d_25_12737" x="0" y="0" width="88" height="130" filterUnits="userSpaceOnUse" color-interpolation-filters="sRGB">
<feFlood flood-opacity="0" result="BackgroundImageFix"/>
<feColorMatrix in="SourceAlpha" type="matrix" values="0 0 0 0 0 0 0 0 0 0 0 0 0 0 0 0 0 0 127 0" result="hardAlpha"/>
<feOffset dy="4"/>
<feGaussianBlur stdDeviation="2"/>
<feComposite in2="hardAlpha" operator="out"/>
<feColorMatrix type="matrix" values="0 0 0 0 0 0 0 0 0 0 0 0 0 0 0 0 0 0 0.25 0"/>
<feBlend mode="normal" in2="BackgroundImageFix" result="effect1_dropShadow_25_12737"/>
<feBlend mode="normal" in="SourceGraphic" in2="effect1_dropShadow_25_12737" result="shape"/>
</filter>
<linearGradient id="paint0_linear_25_12737" x1="35.0567" y1="-52.1205" x2="-67.0591" y2="22.8508" gradientUnits="userSpaceOnUse">
<stop stop-color="#D9A231"/>
<stop offset="1" stop-color="#CCA048"/>
</linearGradient>
<linearGradient id="paint1_linear_25_12737" x1="5" y1="1" x2="5" y2="121" gradientUnits="userSpaceOnUse">
<stop stop-color="#C5AA8A"/>
<stop offset="0.999192" stop-color="#9C613D"/>
</linearGradient>
</defs>
</svg>
